<?xml version="1.0" encoding="UTF-8"?><svg xmlns="http://www.w3.org/2000/svg" viewBox="0 0 262.17 180.53"><defs><style>.d{fill:#fff;}.e{fill:#ffd200;}.f{fill:#1f1715;}</style></defs><g id="a"/><g id="b"><g id="c"><g><path class="d" d="M260.36,46.93c.51-.85,.58-1.89,.2-2.8-.57-.97-1.71-1.44-2.8-1.16-.87,.3-1.67,.76-2.36,1.37,.51-.47,.98-.92,1.43-1.35,.93-.77,1.55-1.86,1.73-3.06,.08-1.3-.81-2.45-2.08-2.71-1.37-.24-2.42,.46-3.48,1.42-.54,.49-1.08,.98-1.64,1.48l.26-.42c.31-.58,.55-1.2,.7-1.85,.16-1.07-.32-2.14-1.23-2.74-.88-.44-1.92-.43-2.8,.02-.84,.38-1.61,.9-2.28,1.54-2.77,2.57-8.42,7.25-11.18,9.81,0,0-.74,.69-1.75,1.62,.49-1.82,.8-2.86,1.25-4.85,.14-.61-.01-1.25-.41-1.73-.25-.3-.59-.5-.97-.6-2.07-.29-3.6,1.43-4.67,3.23-1.45,2.43-2.12,5.24-2.78,7.99-.49,2.05-1.21,4.82-1.53,6.91-.44,.51-.89,1.01-1.35,1.51,3.81,4.05,7.57,8.3,11.04,12.52l.19-.23c.5-.58,4.41-4.1,5.02-4.24,4.63-1.09,7.18-2.66,11.64-5.41,2.07-1.3,4.04-2.74,5.89-4.33,1.12-.94,2.13-1.99,3.03-3.15,.6-.81,.77-1.86,.45-2.81-.23-.7-1.01-1.29-2.21-1.24-.96,.07-1.89,.34-2.73,.79,1.34-1.15,2.58-2.27,3.56-3.2,.72-.68,1.34-1.47,1.85-2.33Z"/><path class="d" d="M28.29,72.85l.19,.23c3.47-4.22,7.22-8.47,11.04-12.52-.45-.5-.9-1-1.35-1.51-.32-2.09-1.04-4.86-1.53-6.91-.66-2.75-1.33-5.56-2.78-7.99-1.07-1.79-2.6-3.52-4.67-3.23-.38,.09-.71,.3-.97,.6-.4,.48-.55,1.12-.41,1.73,.45,2,.76,3.04,1.25,4.85l-1.75-1.62c-2.77-2.57-8.42-7.25-11.18-9.82-.67-.64-1.44-1.16-2.28-1.54-.88-.45-1.91-.46-2.8-.02-.91,.6-1.38,1.67-1.23,2.74,.15,.64,.39,1.27,.7,1.85l.26,.42c-.55-.5-1.1-.99-1.64-1.48-1.06-.96-2.12-1.66-3.48-1.42-1.27,.26-2.16,1.42-2.08,2.71,.18,1.2,.8,2.29,1.73,3.06,.44,.43,.92,.88,1.43,1.35-.69-.6-1.5-1.06-2.36-1.37-1.09-.28-2.23,.2-2.8,1.16-.38,.91-.3,1.95,.2,2.8,.5,.86,1.13,1.64,1.85,2.33,.97,.93,2.21,2.05,3.56,3.2-.84-.46-1.77-.73-2.73-.79-1.21-.05-1.99,.54-2.21,1.24-.32,.96-.15,2.01,.45,2.81,.9,1.15,1.91,2.21,3.03,3.15,1.86,1.58,3.83,3.03,5.89,4.33,4.45,2.75,7,4.32,11.64,5.41,.61,.14,4.52,3.66,5.02,4.24Z"/><path class="d" d="M95.29,179.2c0-13.01-.65-32.96-.78-36.19-.11-2.84-.44-6.57-2.54-9.11-2.09-2.52-4.33-4.92-6.7-7.18-16.06-13.71-50.95-41.91-58.59-51.43,4.24-5.3,8.99-10.71,13.81-15.77,.2-.2,.52-.23,.76-.06,10.03,7.58,40.94,31.73,48.74,36.49,2.67,1.63,11.87,4.99,14.16,5.62,3.6,.98,8.43,2.27,6.7,1.91,2.69,5.28,11.33,10.76,20.24,10.84,10.37,.09,17.55-6.26,20.4-10.09,0,0,.08-.11,.2-.26l.64-.85c1.43-.41,3.73-1.02,5.66-1.55,2.29-.62,11.5-3.99,14.16-5.62,7.8-4.76,38.7-28.91,48.74-36.49,.23-.17,.55-.14,.76,.06,4.82,5.06,9.57,10.48,13.81,15.77-7.63,9.52-42.52,37.73-58.58,51.43-2.37,2.26-4.61,4.66-6.7,7.18-2.1,2.54-2.43,6.27-2.54,9.11-.13,3.23-.78,23.18-.78,36.19H95.29Z"/><path class="d" d="M155.38,59.92c-3.92-2.27-8.08-7.89-9.54-10.63-1.17-2.19-2.5-6.69-3.44-10.31-4.8,6.24-10.89,10.67-18.46,12.83-1.8,.53-.1-5.17,.22-7.87-5.88,5.78-12.44,11.96-18.14,16.19-.79-.74-1.84-1.12-2.92-1.08-1.37-.04-2.66,.67-3.35,1.86-1.14,1.97-1.09,5.61-.33,7.86,.54,1.59,1.43,4.03,3.56,5.78,1,.84,2.32,1.18,3.6,.94,1.17,3.81,3.07,7.35,5.61,10.41,2.75,3.29,5.95,5.85,9.42,7.19-.49,2.15-1.05,4.85-1.49,5.78-1.11,2.35-4.52,4.24-9.07,5,2.92,5.15,11.34,10.37,20.03,10.44,10.37,.09,17.55-6.26,20.4-10.09,0,0,.11-.15,.26-.34-4.57-.75-8-2.64-9.12-5-.45-.96-.95-3.82-1.51-6.07,6.95-2.16,12.71-11.97,13.66-14.56,.17-.52,.68-1.57,1.08-2.75l.24,.04c1.23,.16,2.46-.19,3.41-.99,2.13-1.75,3.02-4.18,3.56-5.78,.76-2.25,.81-5.88-.33-7.86-.69-1.19-1.97-1.9-3.35-1.86-1.19-.06-2.34,.42-3.14,1.31-.3-.14-.6-.29-.89-.46Z"/><path class="d" d="M64.67,25c-.95,2.35-2.28,5.05-3.5,7.35,.79,.4,6.7,2.81,8.32,3.22,.98-2.51,2.01-4.9,2.79-7.37-1.29-.48-4.96-2.19-7.61-3.2Z"/><path class="d" d="M200.86,26.58c-2.13,2.03-4.73,4.44-6.44,6.23,1.81,1.71,3.68,3.51,5.35,5.02,1.91-1.96,4.26-4.09,6.16-6.21-.82-.87-3.51-3.47-5.08-5.05Z"/><path class="d" d="M190.23,8.66c-2.73-2.51-5.65-5.14-8.28-7.3-2.67,2.71-5.01,5.49-7.39,8.19,1.63,1.55,5.58,5.19,8.2,7.23,2-2.14,5.95-6.31,7.47-8.12Z"/><path class="e" d="M104.16,101.56c3.6,.98,8.43,2.27,6.7,1.91,.07,.13,.14,.26,.21,.4,4.55-.76,7.95-2.64,9.06-4.99,.44-.93,1-3.63,1.49-5.78-3.47-1.34-6.67-3.89-9.42-7.19-2.54-3.07-4.45-6.6-5.61-10.41-1.28,.24-2.6-.11-3.6-.94-2.13-1.75-3.02-4.18-3.56-5.78-.76-2.25-.81-5.88,.33-7.86,.69-1.19,1.97-1.9,3.35-1.86,1.08-.05,2.13,.34,2.92,1.08,5.69-4.23,12.26-10.41,18.14-16.19-.32,2.7-2.01,8.4-.22,7.87,7.57-2.16,13.66-6.59,18.46-12.83,.94,3.61,2.27,8.12,3.44,10.31,1.46,2.73,5.62,8.36,9.54,10.63,.29,.17,.59,.32,.89,.46,.79-.89,1.95-1.37,3.14-1.31,1.37-.04,2.66,.67,3.35,1.86,1.14,1.97,1.09,5.61,.33,7.86-.54,1.59-1.43,4.03-3.56,5.78-.95,.79-2.19,1.15-3.41,.99l-.24-.04c-.4,1.18-.91,2.23-1.08,2.75-.95,2.59-6.71,12.4-13.66,14.56,.56,2.25,1.06,5.11,1.51,6.07,1.12,2.36,4.54,4.25,9.11,5l.58-.77c1.43-.41,3.73-1.02,5.66-1.55,3.8-1.2,7.53-2.58,11.19-4.16,.19-.65,.29-1.32,.29-2-.02-2.87-.55-5.72-1.55-8.41-1.28-3.7-3.75-11.21-3.93-24.62,.36-4.06-.01-9.93-.17-12.18-.56-7.82-4.05-16.54-9.08-21.39-2-1.93-2.7-2.91-4.64-4.06l-4.49-2.27c-4.62-1.92-9.59-2.88-14.6-2.8-10.06,0-19.01,5.18-22.98,8.98-6.59,6.31-10.77,17.83-10.24,33.72h0c0,10.77-.88,18.53-2.12,22.95-.93,3.64-1.46,7.37-1.59,11.12,0,.5,.05,1,.15,1.5,3.71,1.54,8.38,3.2,9.93,3.62Z"/><path class="f" d="M63.35,24.63c-.98,2.4-2.15,4.73-3.36,7.02-.37,.65-.15,1.49,.49,1.88,1.32,.67,2.74,1.18,4.11,1.72,1.48,.64,2.99,1.18,4.53,1.64,.73,.18,1.47-.24,1.69-.96,.96-2.44,1.99-4.87,2.79-7.37,.18-.73-.24-1.47-.96-1.69-.98-.37-1.93-.81-3.12-1.33-1.49-.65-2.97-1.29-4.49-1.87-.73-.19-1.48,.23-1.69,.96-.18,.73,.24,1.47,.96,1.69,2.57,.98,5.03,2.23,7.61,3.2l-.96-1.69c-.8,2.5-1.83,4.92-2.79,7.37l1.69-.96c-1.5-.44-2.97-.97-4.41-1.59-.8-.31-1.59-.64-2.38-.97l-.29-.12c.13,.06,.19,.08,.02,0-.14-.06-.27-.12-.41-.18-.18-.08-.35-.15-.53-.24l.49,1.88c1.32-2.51,2.57-5.05,3.64-7.67,.2-.73-.23-1.48-.96-1.69-.73-.18-1.47,.24-1.68,.96Z"/><path class="f" d="M199.89,25.61c-2.16,2.06-4.37,4.08-6.44,6.24-.53,.54-.53,1.4,0,1.94,1.78,1.68,3.54,3.38,5.35,5.02,.54,.52,1.4,.52,1.94,0,2.04-2.08,4.21-4.04,6.16-6.21,.52-.54,.52-1.4,0-1.94-1.65-1.73-3.39-3.36-5.08-5.05-1.25-1.25-3.19,.69-1.94,1.94,1.69,1.68,3.43,3.32,5.08,5.05v-1.94c-1.95,2.17-4.12,4.13-6.16,6.21h1.94c-1.81-1.64-3.58-3.34-5.35-5.02v1.94c2.07-2.16,4.28-4.17,6.44-6.23,1.28-1.22-.66-3.16-1.94-1.94Z"/><path class="f" d="M191.2,7.69c-2.71-2.49-5.44-4.96-8.28-7.3-.54-.52-1.4-.52-1.94,0-2.57,2.63-4.96,5.43-7.39,8.19-.52,.54-.52,1.4,0,1.94,2.63,2.51,5.34,4.99,8.2,7.23,.54,.52,1.4,.52,1.94,0,2.51-2.68,5.1-5.32,7.47-8.12,.52-.54,.52-1.4,0-1.94-.54-.53-1.4-.53-1.94,0-2.37,2.81-4.96,5.44-7.47,8.12h1.94c-2.86-2.25-5.57-4.72-8.2-7.23v1.94c2.43-2.76,4.82-5.56,7.39-8.19h-1.94c2.84,2.34,5.57,4.81,8.28,7.3,1.3,1.19,3.24-.74,1.94-1.94Z"/><path class="f" d="M223.6,61.53c.4-.43,.8-.87,1.18-1.32,.4-.5,.64-1.11,.68-1.75,.21-1.12,.47-2.23,.73-3.34,.54-2.25,1.02-4.53,1.73-6.74,.62-1.95,1.53-4.3,3.21-5.6,.28-.23,.62-.4,.97-.48,.33-.07,.61-.09,.72,.04,.26,.3,.17,.58,.09,.93-.13,.56-.27,1.12-.41,1.68-.29,1.11-.69,2.22-.88,3.35-.13,1.23-.17,2.46-.13,3.7-.07,1.76,2.67,1.76,2.74,0,.04-1.03-.13-2.13,.07-3.15,.21-1.1,.6-2.18,.88-3.27,.31-1.2,.81-2.55,.42-3.79-.39-1.28-1.52-2.18-2.86-2.27-2.47-.17-4.34,1.81-5.53,3.74-1.39,2.26-2.14,4.85-2.76,7.41-.65,2.65-1.37,5.31-1.79,8.01l.35-.6c-.44,.51-.89,1.01-1.35,1.51-1.2,1.29,.74,3.24,1.94,1.94h0Z"/><path class="f" d="M256.69,45.07c.55-.41,1.29-.93,1.96-.77,.53,.09,.89,.59,.8,1.12,0,.03-.01,.07-.02,.1-.12,.93-.92,1.78-1.54,2.43-.62,.65-1.29,1.23-1.94,1.83-2.85,2.61-5.86,5.04-9.01,7.29-.64,.39-.85,1.22-.49,1.88,.39,.65,1.22,.87,1.88,.49,3.08-2.2,6.04-4.57,8.86-7.09,1.45-1.17,2.76-2.51,3.9-3.98,1.17-1.66,1.68-4.18,.04-5.74-1.7-1.61-4.08-1.2-5.81,.09-.63,.4-.85,1.22-.49,1.88,.39,.65,1.22,.87,1.88,.49h0Z"/><path class="f" d="M242.91,49.4c2.13-1.85,4.25-3.72,6.36-5.59,1.06-.94,2.11-1.89,3.16-2.83,.86-.77,1.72-1.8,2.79-2.28,.64-.37,1.46-.15,1.83,.5,.02,.03,.04,.07,.05,.1,.36,.86-.37,1.8-.92,2.39-1.62,1.72-3.46,3.27-5.23,4.83-2.08,1.83-4.2,3.62-6.35,5.37-.53,.54-.53,1.4,0,1.94,.54,.52,1.4,.52,1.94,0,2.18-1.77,4.33-3.59,6.44-5.45,1.07-.94,2.13-1.9,3.18-2.86,1.01-.86,1.94-1.81,2.77-2.86,.9-1.15,1.21-2.66,.84-4.07-.43-1.39-1.6-2.44-3.03-2.72-1.48-.2-2.98,.26-4.08,1.26-1.23,.97-2.35,2.09-3.52,3.14-2.7,2.42-5.42,4.82-8.15,7.2-1.33,1.16,.61,3.09,1.94,1.94h0Z"/><path class="f" d="M235.8,47.45c2.88-2.67,5.92-5.16,8.88-7.75,1.33-1.17,2.68-2.81,4.4-3.41,.76-.27,1.5-.15,1.82,.65,.26,.66-.11,1.46-.46,2.07-.89,1.53,1.49,2.91,2.37,1.38,1.01-1.74,1.32-3.82,.04-5.5-1.55-2.03-4.21-1.65-6.15-.45-1.5,.93-2.76,2.3-4.09,3.45-1.44,1.26-2.9,2.51-4.35,3.76-1.47,1.27-2.95,2.54-4.38,3.87-1.3,1.2,.64,3.14,1.94,1.94h0Z"/><path class="f" d="M239.02,49.31c3,2.88,5.29,6.35,7.55,9.81,.39,.64,1.22,.86,1.88,.49,.65-.39,.87-1.22,.49-1.88-2.39-3.65-4.82-7.33-7.98-10.36-.54-.53-1.41-.52-1.94,.02-.53,.53-.53,1.39,0,1.92h0Z"/><path class="f" d="M30.66,52c-.04-1.01,.06-2.03-.05-3.04-.17-1.09-.42-2.16-.76-3.21-.13-.48-.25-.95-.37-1.43-.18-.5-.3-1.02-.34-1.55,.01-.16,.07-.31,.18-.43,.06-.07,.25-.13,.11-.08,.35-.05,.71,.01,1.03,.17,.81,.45,1.48,1.12,1.94,1.94,.62,.96,1.12,1.99,1.51,3.06,.73,2.22,1.34,4.48,1.83,6.77,.3,1.23,.6,2.46,.84,3.7,.13,.63,.14,1.44,.51,1.97,.45,.58,.94,1.13,1.46,1.65,1.2,1.3,3.14-.64,1.94-1.94-.46-.5-.91-1-1.35-1.51l.35,.6c-.37-2.37-1-4.7-1.56-7.03-.62-2.58-1.27-5.18-2.52-7.54-1.05-1.98-2.66-4.15-5.03-4.52-1.26-.28-2.57,.2-3.34,1.24-.88,1.24-.62,2.53-.29,3.9,.3,1.24,.65,2.47,.98,3.7,.31,1.17,.13,2.38,.18,3.57,.07,1.76,2.82,1.77,2.74,0h0Z"/><path class="f" d="M6.98,50.87c-1.51-.61-3.38-.91-4.81,.06-1.36,.91-1.71,2.76-1.23,4.26,.52,1.6,1.85,2.81,3.04,3.93,1.26,1.17,2.59,2.26,4,3.26,2.62,1.9,5.38,3.6,8.25,5.1,1.29,.66,2.62,1.23,3.99,1.7,.73,.24,1.46,.46,2.21,.64,.16,.05,.32,.09,.48,.11,.03-.04-.21-.15-.18-.07,.03,.07,.3,.19,.37,.24,.09,.06,.17,.13,.26,.19-.2-.15,.06,.05,.11,.09,.2,.16,.41,.33,.61,.5,.46,.38,.91,.78,1.36,1.18,.66,.55,1.29,1.14,1.88,1.77,1.17,1.33,3.1-.62,1.94-1.94-1.09-1.15-2.26-2.21-3.52-3.18-.52-.48-1.09-.9-1.7-1.25-.58-.23-1.19-.41-1.8-.53-.67-.19-1.34-.41-2-.65-2.45-1-4.79-2.24-7-3.7-2.58-1.53-4.99-3.31-7.22-5.31-.9-.84-2.64-2.11-2.54-3.51-.01-.2,.05-.39,.17-.55-.09,.09,.26-.11,.32-.12,.73-.2,1.62,.16,2.28,.43,.73,.2,1.48-.23,1.69-.95,.18-.73-.24-1.47-.96-1.69h0Z"/><path class="f" d="M6.85,42.7c-1.52-1.13-3.47-1.62-5.17-.58-1.92,1.17-2.07,3.66-1.07,5.51,.91,1.68,2.41,2.97,3.81,4.22,1.42,1.27,2.87,2.51,4.36,3.71,1.65,1.34,3.32,2.65,5.05,3.87,.65,.38,1.49,.16,1.88-.49,.37-.66,.15-1.48-.49-1.88-3.15-2.25-6.15-4.68-9.01-7.29-.66-.59-1.33-1.19-1.94-1.83s-1.42-1.5-1.54-2.43c-.14-.52,.16-1.06,.68-1.2,.03,0,.06-.02,.1-.02,.68-.16,1.41,.36,1.96,.77,.65,.38,1.49,.16,1.88-.49,.36-.66,.15-1.48-.49-1.88Z"/><path class="f" d="M21.18,47.46c-2.43-2.12-4.85-4.25-7.25-6.4-1.21-1.08-2.41-2.16-3.6-3.24-1.09-.99-2.26-1.88-3.77-2.02-1.45-.13-2.85,.54-3.66,1.75-.81,1.28-.87,2.89-.17,4.23,.57,1.22,1.61,2.15,2.57,3.06,1.01,.95,2.03,1.89,3.07,2.81,2.37,2.11,4.78,4.16,7.24,6.16,.54,.51,1.39,.51,1.94,0,.53-.54,.53-1.4,0-1.94-3.75-3.04-7.43-6.19-10.91-9.53-.71-.69-1.61-1.48-1.68-2.53-.03-.68,.5-1.26,1.18-1.29,.06,0,.13,0,.19,0,1.05,.1,1.88,1.09,2.62,1.75,1.04,.94,2.08,1.88,3.13,2.82,2.37,2.12,4.76,4.22,7.16,6.31,1.33,1.15,3.27-.78,1.94-1.94h0Z"/><path class="f" d="M28.3,45.51c-2.67-2.47-5.47-4.79-8.21-7.17-1.31-1.14-2.57-2.42-3.96-3.46-1.75-1.31-4.37-2.2-6.24-.6-1.88,1.6-1.66,4.14-.52,6.1,.88,1.53,3.26,.15,2.37-1.38-.35-.6-.72-1.41-.46-2.07,.32-.8,1.05-.92,1.82-.65,1.71,.6,3.06,2.24,4.4,3.41,2.96,2.59,6,5.08,8.88,7.75,1.29,1.2,3.24-.74,1.94-1.94h0Z"/><path class="f" d="M21.2,47.38c-3.16,3.03-5.59,6.72-7.98,10.36-.38,.65-.16,1.49,.49,1.88s1.49,.16,1.88-.49c2.27-3.46,4.55-6.93,7.55-9.81,.54-.54,.53-1.4,0-1.94-.54-.54-1.4-.53-1.94,0h0Z"/><path class="f" d="M162.63,62.37c.12,8.5,1.21,16.93,3.97,24.99,.55,1.54,.97,3.13,1.25,4.74,.35,1.63,.35,3.31,.01,4.93-.46,1.71,2.18,2.43,2.64,.73,.79-2.92,.17-6.32-.65-9.18-.44-1.55-1.02-3.07-1.49-4.62-1.12-3.73-1.91-7.55-2.36-11.42-.39-3.38-.6-6.78-.64-10.18-.03-1.76-2.77-1.77-2.74,0h0Z"/><path class="f" d="M95.55,97.57c-.15-1.14-.14-2.28,.02-3.42,.1-1.2,.24-2.4,.43-3.59,.32-2.05,.82-4.03,1.3-6.04,.88-4.08,1.42-8.22,1.59-12.39,.2-3.25,.27-6.5,.27-9.76,0-1.76-2.74-1.77-2.74,0,.05,5.34-.23,10.69-.83,16-.21,1.76-.5,3.5-.89,5.22-.47,2.05-1,4.05-1.33,6.13-.43,2.76-.98,5.81-.46,8.58,.21,.73,.96,1.15,1.69,.96,.72-.21,1.14-.96,.96-1.69h0Z"/><path class="f" d="M234.84,73.82c1.21-1.29,2.53-2.47,3.95-3.52,.04-.03,.21-.16,.01-.01,.09-.06,.17-.13,.26-.19,.11-.06,.21-.13,.31-.21,.11-.1,.25,.02-.16,.05,.09-.02,.19-.04,.28-.07,.46-.11,.92-.23,1.38-.37,1.41-.42,2.79-.94,4.13-1.57,2.84-1.4,5.57-3.02,8.15-4.85,1.42-.94,2.77-1.97,4.06-3.08,1.29-1.04,2.44-2.25,3.42-3.58,.97-1.48,1.2-3.79-.17-5.12-1.42-1.38-3.6-1.12-5.28-.43-.71,.22-1.13,.96-.96,1.69,.2,.73,.96,1.15,1.69,.96,.63-.31,1.31-.47,2.01-.47,.19,0,.38,.06,.54,.16,.1,.06,.1,.06,.14,.19,.42,1.21-.84,2.31-1.6,3.07-2.17,2.07-4.54,3.91-7.08,5.51-2.25,1.53-4.63,2.86-7.12,3.98-1.23,.51-2.5,.92-3.8,1.24-.78,.22-1.5,.61-2.11,1.15-1.44,1.07-2.77,2.26-4,3.56-1.16,1.32,.77,3.26,1.94,1.94h0Z"/><path class="f" d="M168.24,179.2c0-9.93,.26-19.87,.57-29.8,.09-3.05,.02-6.2,.43-9.23,.14-1.28,.47-2.54,.98-3.72,.62-1.18,1.41-2.26,2.34-3.22,1.82-2.16,3.8-4.19,5.92-6.07,6.51-5.54,13.1-11,19.66-16.49,7.34-6.15,14.67-12.32,21.87-18.64,5.29-4.64,10.73-9.29,15.41-14.57,.35-.39,.69-.79,1.02-1.2,.51-.55,.51-1.39,0-1.94-3.46-4.31-7.07-8.51-10.82-12.58-.95-1.03-1.88-2.13-2.9-3.1-.78-.81-2.06-.85-2.89-.09-.89,.67-1.77,1.35-2.66,2.02-5.09,3.89-10.17,7.79-15.24,11.7-5.75,4.4-11.5,8.8-17.3,13.12-4.13,3.08-8.24,6.24-12.59,9-2.38,1.52-5.03,2.47-7.64,3.47-3.08,1.19-6.22,2.21-9.41,3.08-1.05,.29-2.11,.57-3.16,.87-1.7,.48-.98,3.12,.73,2.64,3.34-.94,6.66-1.78,9.92-2.96,3.26-1.1,6.44-2.41,9.53-3.91,1.64-.91,3.22-1.93,4.72-3.06,2.24-1.57,4.46-3.19,6.66-4.82,5.65-4.18,11.25-8.44,16.84-12.71,5.31-4.06,10.6-8.12,15.9-12.2,1.03-.79,2.06-1.58,3.1-2.37l1.31-1c.2-.15,.4-.3,.6-.46,.09-.06,.18-.13,.27-.2,.03-.02,.1-.05,.11-.08,.18-.11,.08-.12-.29-.03-.37-.07-.45-.03-.26,.12,.06,.2,.5,.52,.66,.69,.25,.27,.5,.53,.75,.8,.5,.53,1,1.07,1.49,1.61,.93,1.01,1.85,2.03,2.76,3.06,1.81,2.04,3.59,4.11,5.34,6.21,.85,1.03,1.7,2.06,2.53,3.1v-1.94c-1.73,2.07-3.59,4.03-5.57,5.87-2.81,2.71-5.7,5.33-8.62,7.92-7.13,6.33-14.42,12.49-21.72,18.62-6.82,5.73-13.68,11.41-20.48,17.16-1.78,1.49-3.48,3.08-5.09,4.76-2.03,2.14-4.35,4.37-5.49,7.14-1.39,3.39-1.27,7.24-1.38,10.85-.31,9.65-.57,19.32-.64,28.98,0,1.19-.01,2.39-.01,3.58,0,1.76,2.74,1.77,2.74,0h0Z"/><path class="f" d="M96.66,179.2c0-10.01-.27-20.02-.57-30.03-.1-3.18-.06-6.43-.5-9.58-.18-1.42-.55-2.81-1.1-4.13-.6-1.27-1.38-2.43-2.33-3.46-1.88-2.29-3.92-4.43-6.12-6.42-6.48-5.61-13.14-11.03-19.7-16.53-7.42-6.22-14.83-12.45-22.11-18.84-3.08-2.7-6.14-5.43-9.13-8.24-2.21-2.07-4.41-4.18-6.42-6.45-.35-.39-.69-.79-1.02-1.2v1.94c3.35-4.17,6.83-8.23,10.45-12.17,.93-1.01,1.86-2.01,2.8-3.01,.06-.06,.26-.21,.28-.3l.09-.1-.72-.05s.28,.21,.3,.23l.59,.45c.9,.68,1.79,1.36,2.68,2.05,4.95,3.79,9.9,7.59,14.84,11.39,5.54,4.25,11.1,8.49,16.69,12.67,4.11,3.07,8.22,6.19,12.51,9,2.15,1.32,4.43,2.43,6.81,3.3,2.8,1.13,5.65,2.24,8.55,3.09,.98,.29,1.96,.54,2.94,.8,1.7,.46,2.43-2.18,.73-2.64-3.13-.85-6.17-1.84-9.2-3-2.63-1-5.31-1.94-7.71-3.45-4.15-2.61-8.07-5.62-11.99-8.54-5.66-4.21-11.27-8.49-16.87-12.78-5.11-3.91-10.21-7.83-15.3-11.75-.93-.71-1.86-1.42-2.8-2.13-.4-.3-.8-.62-1.2-.91-.36-.28-.81-.43-1.27-.43-.79,.01-1.3,.52-1.81,1.06-3.73,3.94-7.33,8-10.81,12.17-.85,1.03-1.7,2.06-2.53,3.1-.51,.55-.51,1.39,0,1.94,1.72,2.05,3.56,4,5.52,5.82,2.76,2.67,5.61,5.24,8.47,7.8,7.09,6.31,14.34,12.43,21.61,18.54,6.79,5.7,13.62,11.36,20.39,17.08,1.66,1.4,3.28,2.81,4.79,4.38,1.09,1.12,2.15,2.27,3.17,3.45,.96,.97,1.75,2.1,2.35,3.32,1.32,3.13,1.13,6.78,1.24,10.13,.31,9.61,.56,19.23,.63,28.85,0,1.19,.01,2.39,.01,3.58,0,1.76,2.74,1.77,2.74,0h0Z"/><path class="f" d="M145.97,21.15c-5.14-2.08-10.67-3.05-16.22-2.82-5.74,.31-11.34,1.95-16.34,4.79-3.7,2-6.92,4.78-9.44,8.14-2.58,3.67-4.48,7.77-5.59,12.12-1.59,6.2-2.26,12.6-1.96,19,.06,1.76,2.8,1.77,2.74,0-.3-9.63,.88-20.03,6.2-28.3,2.03-3.12,4.72-5.74,7.9-7.68,4.39-2.79,9.34-4.55,14.5-5.18,5.95-.59,11.96,.29,17.48,2.57,.73,.2,1.48-.23,1.69-.96,.18-.73-.24-1.47-.96-1.69h0Z"/><path class="f" d="M165.37,62.38c.2-2.85,.21-5.71,.04-8.56-.07-2.54-.31-5.07-.71-7.57-.99-5.97-3.44-11.6-7.14-16.38-1.03-1.21-2.13-2.37-3.29-3.47-1.03-1.09-2.2-2.04-3.47-2.84-1.52-.91-2.9,1.46-1.38,2.37,.99,.61,1.9,1.35,2.7,2.19,.98,.98,2,1.93,2.91,2.97,1.76,2.09,3.2,4.43,4.3,6.94,1.17,2.61,2.04,5.35,2.59,8.16,.41,2.29,.65,4.62,.73,6.95,.21,3.08,.2,6.17,0,9.25,0,.75,.62,1.36,1.37,1.37,.75-.01,1.36-.62,1.37-1.37h0Z"/><path class="f" d="M141.16,39.66c.99,3.73,1.94,7.76,3.94,11.1,1.8,3.03,4.03,5.77,6.64,8.13,1.42,1.38,3.12,2.44,4.98,3.11,1.68,.54,2.41-2.11,.73-2.64-2.81-.89-5.29-3.72-7.18-6.02-1.91-2.24-3.4-4.8-4.42-7.57-.79-2.24-1.44-4.54-2.04-6.84-.45-1.7-3.1-.98-2.64,.73h0Z"/><path class="f" d="M141.41,38.04c-2.7,3.57-6.03,6.6-9.82,8.96-1.91,1.16-3.95,2.12-6.06,2.87-.5,.17-1,.34-1.51,.49-.15,.03-.3,.07-.44,.13-.12,.06-.19-.06,.13-.01,.16,.01,.32,.06,.46,.16,.03,.02,.44,.41,.31,.25,.15,.2,.04,.17,.02-.03-.02-.19,.02,.26,.01,.06,0-.08,0-.16,0-.23,0-.34,.02-.69,.06-1.03,.19-1.75,.74-3.8,.97-5.69,.15-1.24-1.57-1.73-2.34-.97-4.79,4.71-9.66,9.36-14.86,13.62-.53,.54-.53,1.4,0,1.94,.54,.52,1.4,.52,1.94,0,5.2-4.26,10.06-8.91,14.86-13.62l-2.34-.97c-.02,.11-.04,.22-.05,.33-.04,.23-.08,.47-.12,.7-.09,.48-.18,.96-.28,1.44-.2,1.02-.38,2.04-.51,3.07-.19,1.58,.06,4.11,2.31,3.68,1.16-.27,2.28-.64,3.37-1.12,1.21-.47,2.39-1.01,3.55-1.6,2.27-1.19,4.4-2.62,6.36-4.26,2.2-1.84,4.18-3.92,5.93-6.2,.51-.55,.51-1.39,0-1.94-.54-.53-1.4-.53-1.94,0h0Z"/><path class="f" d="M155.02,73.38c-.19,1.05-.52,2.08-.96,3.05-.16,.39-.33,.78-.48,1.17-.04,.11-.08,.22-.12,.33-.09,.26-.05,.13-.02,.05-.51,1.09-1.08,2.16-1.72,3.18-1.79,3.01-4.07,5.69-6.75,7.95-1.44,1.23-3.15,2.11-4.99,2.57-1.72,.4-.99,3.04,.73,2.64,3.9-.9,7.14-3.75,9.67-6.71,2.16-2.43,3.96-5.16,5.35-8.1,.97-1.94,1.65-4.01,2.03-6.14,0-.76-.62-1.37-1.37-1.37-.75,.02-1.35,.62-1.37,1.37h0Z"/><path class="f" d="M104.68,73.65c1.82,7.85,6.75,15.48,13.87,19.49,1.9,1.09,3.98,1.83,6.14,2.18,.73,.18,1.47-.24,1.69-.96,.2-.73-.23-1.48-.96-1.69-4.75-.71-8.67-3.64-11.76-7.18-3.11-3.61-5.28-7.93-6.33-12.58-.4-1.72-3.04-.99-2.64,.73h0Z"/><path class="f" d="M106.98,59.15c-1.75-1.56-4.28-1.9-6.38-.86-1.45,.81-2.46,2.23-2.77,3.86-.81,3.85-.02,7.86,2.19,11.11,1.58,2.33,3.83,3.99,6.75,3.59,.73-.2,1.15-.96,.96-1.69-.22-.72-.96-1.14-1.69-.96-1.97,.26-3.5-1.9-4.29-3.39-.8-1.46-1.3-3.06-1.46-4.72-.12-1.58-.1-3.53,.88-4.84-.17,.24,.08-.08,.1-.1,.05-.05,.35-.3,.28-.25,.3-.21,.65-.35,1.01-.42,.87-.2,1.79,.02,2.48,.6,1.31,1.18,3.25-.75,1.94-1.94h0Z"/><path class="f" d="M157.47,61.09c.68-.58,1.6-.81,2.48-.6,.36,.07,.71,.21,1.01,.42-.07-.05,.23,.2,.28,.25s.28,.34,.1,.1c.98,1.31,1,3.27,.88,4.84-.16,1.65-.66,3.26-1.46,4.71-.79,1.49-2.32,3.66-4.29,3.39-.73-.17-1.46,.25-1.69,.96-.2,.73,.23,1.48,.96,1.69,4.71,.63,7.44-3.91,8.69-7.8,.6-1.98,.74-4.08,.4-6.12-.17-1.7-1.02-3.25-2.36-4.3-2.16-1.43-5.01-1.21-6.94,.52-1.31,1.18,.63,3.12,1.94,1.94h0Z"/><path class="f" d="M150.5,103.27c-.09,.11-.17,.23-.26,.35-.23,.3,.18-.22-.07,.09-.13,.16-.26,.32-.39,.48-.35,.42-.72,.82-1.1,1.21-.81,.83-1.67,1.61-2.58,2.33-2.14,1.68-4.54,3-7.1,3.91-6.53,2.2-13.69,1.48-19.65-1.97-2.77-1.56-5.45-3.66-7.07-6.44-.89-1.52-3.26-.15-2.37,1.38,1.63,2.8,4.18,5.02,6.9,6.74,3.21,2.04,6.8,3.41,10.55,4.01,6.91,1.04,13.95-.7,19.58-4.84,2.26-1.65,4.26-3.62,5.94-5.86,.38-.65,.16-1.49-.49-1.88-.66-.36-1.48-.15-1.88,.49h0Z"/><path class="f" d="M111.45,105.19c2.91-.5,5.9-1.49,8.16-3.45,.89-.77,1.58-1.75,1.99-2.85,.47-1.47,.85-2.96,1.13-4.48,.18-.73-.24-1.47-.96-1.69-.73-.19-1.48,.23-1.69,.96-.32,1.42-.6,2.88-1.06,4.26-.04,.11-.08,.21-.11,.32-.1,.29,.13-.23-.02,.02-.13,.22-.25,.43-.39,.64-.15,.24,.15-.16-.06,.08-.08,.09-.15,.17-.23,.26-.18,.19-.36,.37-.56,.54-.03,.03-.3,.25-.2,.17,.09-.07-.23,.17-.28,.2-.22,.16-.45,.3-.69,.44-.27,.16-.54,.3-.82,.44-.27,.13-.56,.26-.71,.33-1.37,.54-2.8,.93-4.26,1.17-.73,.21-1.15,.96-.96,1.69,.22,.72,.96,1.14,1.69,.96h0Z"/><path class="f" d="M140.08,94.34c.28,1.53,.64,3.05,1.09,4.54,.4,1.11,1.09,2.09,1.99,2.86,2.26,1.97,5.25,2.96,8.16,3.45,.73,.18,1.47-.24,1.69-.96,.2-.73-.23-1.48-.96-1.69-1.46-.23-2.89-.62-4.26-1.17-.16-.07-.39-.17-.64-.29-.3-.15-.6-.3-.88-.48-.23-.14-.46-.28-.69-.44-.11-.07-.21-.15-.32-.23,.21,.16-.12-.11-.16-.14-.2-.17-.38-.35-.56-.54-.08-.08-.15-.17-.23-.26-.24-.27,.13,.22-.06-.08-.13-.2-.24-.39-.36-.59-.19-.32,.05,.19-.04-.07-.03-.11-.07-.21-.11-.32-.44-1.41-.69-2.88-1.02-4.32-.2-.73-.96-1.16-1.69-.96-.73,.2-1.16,.96-.96,1.69h0Z"/><path class="f" d="M130.79,69.52c.23,.82,.41,1.65,.55,2.5l-.05-.36c.02,.11,.02,.23,0,.34l.05-.36c0,.05-.02,.1-.04,.15l.14-.33s-.03,.07-.05,.1l.21-.28s-.05,.06-.08,.08l.28-.21c-.06,.04-.13,.07-.2,.1l.33-.14c-.11,.05-.22,.08-.33,.1l.36-.05c-.1,.01-.21,.01-.31,0l.36,.05c-.12-.02-.23-.05-.35-.06-.18-.06-.37-.07-.55-.02-.18,0-.36,.06-.51,.16-.65,.38-.87,1.22-.49,1.88h0c.18,.31,.47,.54,.82,.63,.28,.04,.54,.11,.83,.12,.43,0,.85-.1,1.23-.29,.49-.22,.85-.66,.99-1.18,.09-.42,.08-.85-.01-1.26-.14-.8-.32-1.6-.53-2.39-.2-.73-.96-1.16-1.69-.96h0c-.72,.21-1.14,.96-.96,1.69h0Z"/><path class="f" d="M117.62,62.43c-.42,1.35-.15,4.47,2.42,4.74,3.39-.02,3.57-3.79,2.43-5.56-.93-1.45-3.68-2.05-4.85,.82Z"/><path class="f" d="M144.89,62.43c.42,1.35,.15,4.47-2.42,4.74-3.39-.02-3.57-3.79-2.43-5.56,.93-1.45,3.68-2.05,4.85,.82Z"/><path class="f" d="M129.65,82.12c-.55-.59-1.03-1.24-1.43-1.95-.17-.3-.31-.61-.41-.94-.07-.2-.12-.4-.16-.61-.06-.37,.11-.47-.44,.05-.52,.5-.51,.39-.16,.39h9.09c.38,0,.42,.13-.11-.4-.47-.46-.37-.59-.47-.18-.05,.23-.11,.47-.18,.7-.39,1.54-1.2,2.95-2.35,4.05-.54,.54-.53,1.4,0,1.94,.54,.54,1.4,.53,1.94,0,1.46-1.42,2.51-3.21,3.03-5.17,.34-1.14,.71-2.59-.52-3.36-.7-.44-1.64-.32-2.44-.32h-7.25c-.87,0-1.76-.07-2.41,.63-.98,1.06-.37,2.8,.14,3.94,.55,1.17,1.29,2.24,2.19,3.17,.54,.53,1.4,.53,1.94,0,.53-.54,.53-1.4,0-1.94Z"/></g></g></g></svg>