<svg xmlns="http://www.w3.org/2000/svg" xmlns:xlink="http://www.w3.org/1999/xlink" width="74.213" height="135.458" viewBox="0 0 74.213 135.458"><defs><clipPath id="a"><rect width="74.213" height="135.458" fill="#62a3c1"/></clipPath></defs><g clip-path="url(#a)"><path d="M0,16.854H6.948V50.868a3.374,3.374,0,0,0,1.214,2.589L25.326,67.729,8.162,82a3.373,3.373,0,0,0-1.214,2.589V118.6H0v16.854H74.213V118.6H67.265V84.586A3.375,3.375,0,0,0,66.051,82L48.888,67.726,66.051,53.457a3.376,3.376,0,0,0,1.214-2.589V16.854h6.948V0H0ZM60.527,49.289,41.463,65.133a3.371,3.371,0,0,0,0,5.182L60.527,86.166V118.6H13.686V86.166L32.751,70.318a3.368,3.368,0,0,0,0-5.178L13.686,49.289V16.854H60.527Z" fill="#62a3c1"/><rect width="37.617" height="19.088" transform="translate(18.299 95.173)" fill="#62a3c1"/><path d="M78.554,119.721l18.808-14.459h0V86.174H59.749v19.088Z" transform="translate(-41.45 -59.782)" fill="#62a3c1"/></g></svg>