<svg xmlns="http://www.w3.org/2000/svg" xmlns:xlink="http://www.w3.org/1999/xlink" width="184" height="158" viewBox="0 0 184 158"><defs><clipPath id="a"><rect width="184" height="158" transform="translate(745 3689.321)" fill="#fff" stroke="#707070" stroke-width="1"/></clipPath><clipPath id="b"><rect width="164.845" height="135.844" fill="#62a3c1" stroke="#fff" stroke-width="1"/></clipPath></defs><g transform="translate(-745 -3689.321)" clip-path="url(#a)"><g transform="translate(94.629 248.469)"><g transform="translate(650.556 3440.704)"><path d="M129.8,62.02l3.414-2.069,2.884,4.765-3.417,2.063ZM124.04,52.5l3.414-2.069,2.881,4.765-3.414,2.063Zm-5.765-9.524,3.417-2.069,2.881,4.765-3.417,2.063Zm-5.765-9.524,3.42-2.069,2.878,4.765-3.414,2.064Zm-5.763-9.524,3.417-2.069,2.881,4.765-3.414,2.063ZM130.387,0,105.9,14.814l1.379,2.28-3.417,2.063-1.377-2.274L0,78.908l34.455,56.936L136.944,73.818l-1.379-2.274,3.417-2.069,1.377,2.28,24.486-14.819Z" transform="translate(0)" fill="#62a3c1" stroke="#fff" stroke-width="1"/><g transform="translate(0)"><g clip-path="url(#b)"><path d="M110.851,306.145a9.006,9.006,0,0,1-2.872,2.652c-3.461,2.07-7.22.975-9.436-2.731-2.229-3.728-1.4-7.93,2.329-10.16a7.77,7.77,0,0,1,3.291-1.1l.423,1.765a5.715,5.715,0,0,0-2.856.865c-2.8,1.672-2.92,4.789-1.367,7.385,1.752,2.929,4.606,3.722,7.047,2.262a7.066,7.066,0,0,0,2.26-2.165Z" transform="translate(-68.916 -208.776)" fill="#62a3c1" stroke="#fff" stroke-width="1"/><path d="M146,278.351c2.694,4.5.862,8.191-1.822,9.8-3.106,1.858-6.9.962-9.232-2.943-2.469-4.127-1.262-7.952,1.822-9.8,3.306-1.978,7.016-.762,9.232,2.943m-8.436-1.461c-2.618,1.566-2.166,4.79-.772,7.119,1.606,2.685,4.393,3.97,6.567,2.669,2.2-1.314,2.427-4.4.794-7.133-1.287-2.152-3.949-4.235-6.59-2.656" transform="translate(-94.627 -194.369)" fill="#62a3c1" stroke="#fff" stroke-width="1"/><path d="M188.045,251.123c.743,1.243,1.433,2.245,2.036,3.151l-1.665,1-1.23-1.855-.067.039a5.108,5.108,0,0,1-2.56,4.484c-1.82,1.088-4.6,1.333-7.09-2.839l-4.274-7.144,1.842-1.1,4.075,6.812c1.407,2.352,3.076,3.582,5.1,2.375a3.729,3.729,0,0,0,1.186-5.168l-4.5-7.522,1.842-1.1Z" transform="translate(-122.651 -171.552)" fill="#62a3c1" stroke="#fff" stroke-width="1"/><path d="M221.063,224.75a5.217,5.217,0,0,1,2.733-4.8c2.862-1.712,6.4-.484,8.615,3.222,2.655,4.437,1.279,8.031-1.383,9.624a4.786,4.786,0,0,1-4.794.247l-.044.027,3.955,6.612-1.842,1.1-7.87-13.157c-.942-1.576-1.717-2.769-2.425-3.852l1.664-1,1.345,2Zm3.243,5.17a3.976,3.976,0,0,0,5.545,1.564c2.374-1.42,2.462-4.244.737-7.129-1.5-2.507-4.091-3.97-6.443-2.563a4.329,4.329,0,0,0-1.218,5.82Z" transform="translate(-154.387 -155.225)" fill="#62a3c1" stroke="#fff" stroke-width="1"/><path d="M282.172,196.9c2.694,4.5.862,8.191-1.822,9.8-3.106,1.858-6.9.962-9.232-2.943-2.469-4.127-1.262-7.952,1.822-9.8,3.306-1.977,7.016-.762,9.232,2.943m-8.436-1.461c-2.618,1.566-2.166,4.79-.772,7.12,1.606,2.685,4.393,3.97,6.567,2.669,2.2-1.314,2.427-4.4.795-7.133-1.288-2.152-3.949-4.235-6.59-2.656" transform="translate(-191.061 -136.685)" fill="#62a3c1" stroke="#fff" stroke-width="1"/><path d="M326.257,176.086l-1.842,1.1-4.273-7.145c-1.181-1.975-2.926-3.28-5.034-2.02a3.838,3.838,0,0,0-1.116,5.337l4.433,7.411-1.841,1.1-5.375-8.986c-.743-1.243-1.332-2.126-1.96-3.075l1.642-.982,1.292,1.908.044-.026a5.029,5.029,0,0,1,2.542-4.564c1.509-.9,4.626-1.532,7.082,2.573Z" transform="translate(-219 -117.188)" fill="#62a3c1" stroke="#fff" stroke-width="1"/></g></g></g><g transform="translate(683.385 3457.709) rotate(11)"><path d="M129.8,62.02l3.414-2.069,2.884,4.765-3.417,2.063ZM124.04,52.5l3.414-2.069,2.881,4.765-3.414,2.063Zm-5.765-9.525,3.417-2.069,2.881,4.765-3.417,2.063Zm-5.765-9.525,3.42-2.069,2.878,4.765-3.414,2.064Zm-5.763-9.524,3.417-2.069,2.881,4.765-3.414,2.063ZM130.387,0,105.9,14.814l1.379,2.28-3.417,2.063-1.377-2.274L0,78.908l34.455,56.936L136.944,73.818l-1.38-2.274,3.417-2.069,1.377,2.28,24.486-14.819Z" transform="translate(0 0)" fill="#62a3c1" stroke="#fff" stroke-width="1"/><g transform="translate(0 0)"><g clip-path="url(#b)"><path d="M13.535,11.334a9.005,9.005,0,0,1-2.872,2.652c-3.461,2.071-7.22.975-9.436-2.731C-1,7.527-.173,3.325,3.555,1.1A7.769,7.769,0,0,1,6.846,0l.423,1.765a5.717,5.717,0,0,0-2.856.865C1.617,4.3,1.493,7.42,3.046,10.015c1.752,2.929,4.606,3.722,7.047,2.262a7.067,7.067,0,0,0,2.26-2.165Z" transform="translate(28.4 86.035)" fill="#62a3c1" stroke="#fff" stroke-width="1"/><path d="M12.376,3.884c2.694,4.5.862,8.191-1.822,9.8-3.106,1.858-6.9.962-9.232-2.943C-1.147,6.61.06,2.785,3.144.941,6.45-1.037,10.16.179,12.376,3.884M3.94,2.422c-2.618,1.566-2.166,4.79-.772,7.12,1.606,2.685,4.393,3.97,6.567,2.669,2.2-1.314,2.427-4.4.794-7.133C9.242,2.926,6.581.843,3.94,2.422" transform="translate(38.995 80.098)" fill="#62a3c1" stroke="#fff" stroke-width="1"/><path d="M14.85,8.875c.743,1.243,1.433,2.245,2.036,3.151l-1.665,1-1.23-1.855-.067.039a5.108,5.108,0,0,1-2.56,4.484c-1.82,1.088-4.6,1.333-7.09-2.839L0,5.707l1.842-1.1,4.075,6.812c1.407,2.352,3.076,3.582,5.1,2.375A3.729,3.729,0,0,0,12.2,8.624L7.7,1.1,9.541,0Z" transform="translate(50.544 70.696)" fill="#62a3c1" stroke="#fff" stroke-width="1"/><path d="M3.054,5.558A5.217,5.217,0,0,1,5.787.76C8.649-.953,12.186.276,14.4,3.981c2.655,4.437,1.279,8.032-1.383,9.624a4.786,4.786,0,0,1-4.794.247l-.044.027,3.955,6.612-1.842,1.1L2.425,8.435C1.482,6.859.708,5.665,0,4.583l1.664-1,1.345,2ZM6.3,10.728a3.976,3.976,0,0,0,5.545,1.564c2.374-1.42,2.462-4.244.737-7.129C11.079,2.656,8.487,1.193,6.135,2.6A4.329,4.329,0,0,0,4.917,8.42Z" transform="translate(63.622 63.967)" fill="#62a3c1" stroke="#fff" stroke-width="1"/><path d="M12.376,3.884c2.694,4.5.862,8.191-1.822,9.8-3.106,1.858-6.9.962-9.232-2.943C-1.147,6.61.06,2.785,3.144.94,6.45-1.037,10.16.179,12.376,3.884M3.94,2.423c-2.618,1.566-2.166,4.79-.772,7.12,1.606,2.685,4.393,3.97,6.567,2.669,2.2-1.314,2.427-4.4.795-7.133C9.242,2.926,6.581.843,3.94,2.423" transform="translate(78.735 56.327)" fill="#62a3c1" stroke="#fff" stroke-width="1"/><path d="M17.009,10.606l-1.842,1.1L10.894,4.563C9.713,2.588,7.968,1.282,5.86,2.543A3.838,3.838,0,0,0,4.744,7.88l4.433,7.411-1.841,1.1L1.96,7.406C1.217,6.163.628,5.28,0,4.331l1.642-.982L2.934,5.257l.044-.026A5.029,5.029,0,0,1,5.521.667C7.03-.236,10.147-.866,12.6,3.239Z" transform="translate(90.248 48.292)" fill="#62a3c1" stroke="#fff" stroke-width="1"/></g></g></g></g></g></svg>