<svg xmlns="http://www.w3.org/2000/svg" viewBox="0 0 107.68 179.94"><defs><style>.cls-1{fill:#231815;}.cls-2{fill:#fff;}.cls-3{fill:#aad2e8;}.cls-4{fill:#cee1eb;}</style></defs><g id="レイヤー_2" data-name="レイヤー 2"><g id="PC文字とイラスト"><rect class="cls-1" x="8.15" y="3.41" width="91.38" height="173.11" rx="10.42" transform="translate(-9.55 6.46) rotate(-6.3)"/><rect class="cls-2" x="11.95" y="7.22" width="83.76" height="165.29" rx="7.62" transform="translate(-9.54 6.45) rotate(-6.3)"/><path class="cls-3" d="M22.85,173.79a7.64,7.64,0,0,0,6,2L97,168.25a7.64,7.64,0,0,0,6.73-8.41L87.22,10.7A7.54,7.54,0,0,0,84.8,6Z"/><path class="cls-4" d="M78.81,4,10.7,11.49A7.64,7.64,0,0,0,4,19.9L20.44,169a7.63,7.63,0,0,0,2.41,4.75L84.8,6A7.58,7.58,0,0,0,78.81,4Z"/><path class="cls-1" d="M67.84,5.17l.5,4.54a2.53,2.53,0,0,1-2.24,2.8L25,17.05a2.54,2.54,0,0,1-2.8-2.24l-.5-4.54Z"/></g></g></svg>