<svg xmlns="http://www.w3.org/2000/svg" viewBox="0 0 178.53 207.33"><defs><style>.cls-1{fill:#fff;}.cls-2{fill:#ffcd00;}.cls-3{fill:#070707;}</style></defs><g id="レイヤー_2" data-name="レイヤー 2"><g id="PC文字とイラスト"><path id="白" class="cls-1" d="M82.69,2.15c-14.5-1-37.8,14-42.15,28.73-1.09,3.15-4.19,13.9-4.13,17.36S37,60.36,36.84,63s1.52,1.62-1.34,3.8c-4.29,3.11-4.92,9.65-1.52,13.3,4.73,3.73,7.16,2.7,7.11,8.81-.77,9.45-.21,32.92-3.58,42.39-4.4,3.94-10.09,5.2-15.06,9.77C10.39,154,11.28,177.51,1.86,191.44c0,0,3.52,2.12,5.47,2.43a16.48,16.48,0,0,1,4.31,1.58L11,206.13H159.39c0-.18-1-11.23-1-11.23l10.21-3c-15.92-25.48-4.57-48.28-37.71-61.71-.86-10.62-2.76-35.6-3.18-46,2.53-.62,11.18-6.48,9.67-11.6,0-4.43-1.94-7-4.86-6.92,4.73-25-7.21-56.38-35-61.28C93.05,2.59,85,1.16,82.69,2.15Z"/><path class="cls-2" d="M54,122.92c4.29-3.53,9.16-8.52,9.5-14.3a8.22,8.22,0,0,0-2-2.52,18.25,18.25,0,0,1-2-1.54,37.84,37.84,0,0,1-5.65-6.46c-2.28-3.27-5.33-8-5.77-12.22q-.24-.27-.48-.51l-.44-.05c-1.66-.23-3.25-.8-4.9-1-3.21,3.55-.36,16.14-1,21.36.28,13.77-4.39,26.84-6.29,40.29-.89,8.6,3.61,17.23,12.64,18.78,2,.34,5.36.43,6.73-1.33.94-1.23.32-2.7-.43-3.82a27.39,27.39,0,0,1-3.31-6.23c-1.72-4.89-1.32-10.23-.9-15.4.24-3,.49-6.07.73-9.11.09-1-.12-2.81.39-3.73S53.11,123.46,54,122.92Z"/><path class="cls-2" d="M114.5,121.69a43,43,0,0,0,11.32,6q-1.06-21.1-2.57-42.2a11.05,11.05,0,0,0-2.58,1.78c-2.31,8.26-6.3,17.35-14.92,20.38,0,.15-.11.3-.16.46A25.51,25.51,0,0,0,114.5,121.69Z"/><path class="cls-2" d="M122.8,29.12c-10-22.5-38-30.4-60.17-22.26C41,17.2,33.63,42,36.6,63.86L44,65.08C51.86,49,76.12,24.66,95.23,21c8.9.6,12.59,11.22,18,17,6.27,7.79,9.48,17.18,13.2,26.3C128.72,52.58,128,40,122.8,29.12Z"/><g id="アウトライン"><path d="M33.94,135A18,18,0,0,0,35.81,134l.78-.48a1.35,1.35,0,0,0,.7-1.62c-.23-.84-.92-1-1.66-1.08l-.15,0-.32.07-1,.39c-11.87,5.11-19.55,14.61-22.82,28.25l-.3,1.22c-2.15,9-4.38,18.33-9,26.7a31.06,31.06,0,0,0-1.58,3.36,1.79,1.79,0,0,0,.82,2.4,1.73,1.73,0,0,0,.82.23,2.1,2.1,0,0,0,1.49-.77,4.92,4.92,0,0,0,.76-1.19l.16-.31C9,182.86,12.16,173.55,14.7,161S23.69,139.8,33.94,135Z"/><path d="M169.45,189.88q-1.74-3.63-3.5-7.24c-2.77-5.68-4.23-11.85-5.64-17.82-.41-1.72-.83-3.49-1.27-5.23a45.17,45.17,0,0,0-8.59-17.83c-4.29-5.17-10.49-9.33-19-12.71l-.81-.32a4.28,4.28,0,0,0-1.39-.32,2.09,2.09,0,0,0-.51.07,1.28,1.28,0,0,0-.85.74,1.41,1.41,0,0,0,0,1.22,3.31,3.31,0,0,0,1.72,1.25l.47.21,3,1.51,1.37.68c1.8.9,3.66,1.82,5.44,2.82a16.63,16.63,0,0,1,5.29,4.07c6.08,7,9.41,13.49,10.49,20.35a95,95,0,0,0,10.16,30.19c.41.76,1,1.91,2.13,1.91h0a2.12,2.12,0,0,0,.87-.21,1.74,1.74,0,0,0,1-1A3.19,3.19,0,0,0,169.45,189.88Z"/><path d="M164.32,191.87a4.61,4.61,0,0,0-1.11.19l-.34.08a152,152,0,0,0-20.17,6.1l-.27-.27c-.63-.58-1.28-1.14-1.93-1.7l-.69-.58a160.6,160.6,0,0,0,1-16.73c-.48-7.4-1-15.77-1.6-24.14-.07-1,.1-2.39-1.35-2.39s-1.47,1.42-1.61,2.51a9.65,9.65,0,0,0-.06,1.2c0,5.76,0,11.51.32,17.26a106.57,106.57,0,0,1-.15,14.84c-.12,1.37-.26,2.74-.41,4.1-2.21-1.89-4.42-3.78-6.67-5.63-2.87-2.36-5.75-4.69-8.65-7l-.31-.36a28.93,28.93,0,0,0-2.8-2.6c-5.76-4.62-13.51-14.64-15.3-22.24-1-4.08-1.79-8.22-2.56-12.35,3.22-2,6.45-4.11,9.68-6.28a56.1,56.1,0,0,0,8.7-7.78l.06-.06.32-.34a39.5,39.5,0,0,0,4.9,2.35l.34.14a6.74,6.74,0,0,0,2.3.64h0a1.72,1.72,0,0,0,1.68-1.3,1.8,1.8,0,0,0,.09-1.42c-.29-.65-1.17-1-2-1.29-.34-.12-.68-.25-1-.39-8.58-4.09-14.79-8.52-17.17-16.83-.25-.88-.65-1.29-1.27-1.29a2.47,2.47,0,0,0-.36,0c-1.17.25-1.23,1.18-1.31,2.36v0a13.1,13.1,0,0,0,1.89,5.67,34.86,34.86,0,0,0,9.25,9.57l-1.36,1.14c-.37.32-.74.65-1.12,1-.57.47-1.14.95-1.7,1.44a44.69,44.69,0,0,1-4,3.2q-4.24,2.82-8.59,5.55c-.3-1.68-.6-3.36-.89-5-1.29-7.31-2.63-14.88-4.41-22.24-.09-.41-.19-.82-.28-1.24a16.85,16.85,0,0,0-1.47-4.56A3.54,3.54,0,0,0,88.91,103a2.82,2.82,0,0,0-1.8.71,10.16,10.16,0,0,1-3.21,1.56,13.36,13.36,0,0,0-2.44,1A6.21,6.21,0,0,0,77.83,105c-2.28,0-4.06,1.6-4.65,4.18-.85,3.74-1.81,7.53-2.74,11.2-1.24,4.9-2.5,9.92-3.56,15A100,100,0,0,1,54.67,126l-.46-.4A36.3,36.3,0,0,0,62.65,117a14.26,14.26,0,0,0,2.24-6.1l0-.24c-.07-1.18-.13-2.11-1.4-2.32l-.29,0c-.71,0-1,.53-1.27,1.39-1.47,5-4.47,9-9.41,12.38-.18,1-.32,2-.45,3a1.67,1.67,0,0,0-.35.26,1.41,1.41,0,0,0-.5,1c0,.7.65,1.32,1.16,1.82l.23.23.88.88a50.22,50.22,0,0,0,7.42,6.51c1.83,1.21,3.56,2.35,5.23,3.43-.25,1.31-.48,2.62-.68,3.93a32.51,32.51,0,0,1-1.17,5.07c-1.46,4.52-3,9.1-4.51,13.53l-1.06,3.12a25.9,25.9,0,0,1-2.56,5.65l-.68,1.09a54.47,54.47,0,0,1-3.19,4.63c-5.68,6-12.36,13.09-18.42,19.51a132.09,132.09,0,0,1-.66-26.05c.05-4.45.38-9.73,0-15-.07-1-.22-2.3-1.6-2.27s-1.25,1.22-1.32,2.18c-.23,2.87-.44,5.73-.66,8.6-.85,10.93-1.31,21.86-.08,32.79.12,1.06.29,2.11.47,3.17l-.15-.07-.34-.14a93.26,93.26,0,0,0-10.63-3.64c-2.28-.67-4.63-1.37-6.91-2.17a24.27,24.27,0,0,0-4.2-.94L6.66,192a4.18,4.18,0,0,0-.73-.08,1.14,1.14,0,0,0-1.23.89c-.21.8.21,1.46,1.16,1.81s1.9.65,2.91,1l1.16.37c0,.14,0,.28-.07.41a7.53,7.53,0,0,0-.15,1l-.08,1.33c-.11,2-.24,4-.28,6a2.34,2.34,0,0,0,.53,1.73,1.75,1.75,0,0,0,1.29.51h.05c1.41,0,1.75-1.16,1.88-2.17a10.27,10.27,0,0,0,.05-1.47c0-.16,0-.33,0-.5,0-1.36,0-6.09,0-6.09a58.59,58.59,0,0,0,7.8,2.73A54.93,54.93,0,0,1,28,202a15.46,15.46,0,0,0-1.49,1.87A1.88,1.88,0,0,0,28,207a3.29,3.29,0,0,0,2.33-1.38c6.43-7,14.4-15.54,21.07-22.83a5.06,5.06,0,0,0,.43-.31,9.3,9.3,0,0,0,.9-.82,41.3,41.3,0,0,0,10-15.63l.45-1.31c.63-1.88,1.28-3.82,1.81-5.76s1.13-3.84,1.73-5.71a67.21,67.21,0,0,0,2.83-10.82c.47-3.21,1.23-6.43,2-9.53.61-2.6,1.24-5.28,1.71-8a8.36,8.36,0,0,1,2.44-4.35c-1.78,4.06-1.71,8.1-1.43,12.56.16,2.46.41,5,.65,7.36.38,3.79.77,7.71.8,11.58,0,1.59-.11,3.21-.22,4.77a39.61,39.61,0,0,0-.07,7.47,1.42,1.42,0,0,1-.17.79,34,34,0,0,0-2.2,5.05,25.39,25.39,0,0,1-3.22,6.6,1.45,1.45,0,0,0,.2,2.05,1.48,1.48,0,0,0,1,.36,2.33,2.33,0,0,0,1.17-.37,6.77,6.77,0,0,0,2.54-3.11,28,28,0,0,0,1.61-4.26c.13-.4.26-.81.4-1.22.12.24.24.47.35.7a11.18,11.18,0,0,0,1.06,1.82,3.64,3.64,0,0,1,.86,1.71c.48.45,1,.93,1.43,1.42a1.64,1.64,0,0,0-.25.21c-2.77,2.48-5.8,4.75-7.65,8-3.75,6.65-7.35,13.37-11,20.07a4.53,4.53,0,0,0-.32.87c-.14,1.09.16,1.86,1.11,2.2,1.28.46,2.07-.33,2.61-1.31,2.28-4.11,4.48-8.27,6.78-12.37,2.09-3.71,3.47-7.82,6.58-11a20.23,20.23,0,0,0,3.88-4.67,6.65,6.65,0,0,1,.71.69,6.61,6.61,0,0,0,.7.7c.44.37.88.74,1.31,1.12.88.74,1.77,1.5,2.69,2.23a2.71,2.71,0,0,0,1,.48,14.94,14.94,0,0,0,3,3.88,106.58,106.58,0,0,1,8.94,10.3c2.47,3,5.1,5.91,7.73,8.79.94,1,2.2,1.62,3.48.53s.82-2.31-.1-3.42c-.15-.19-.31-.38-.47-.56q-9.84-11.15-19.69-22.28A3.61,3.61,0,0,0,89.26,179l-.29-.25c-.24-.21-.49-.42-.72-.64-4.24-3.93-7.81-7.62-8.54-13a39.34,39.34,0,0,1-.18-6.56,69.78,69.78,0,0,0-.39-12.6c-.51-3.27-.7-6.62-.89-9.86-.11-2-.23-4-.42-6a25.15,25.15,0,0,1,.21-5.18,5.84,5.84,0,0,1,1.56-3.73c.27,4.76.93,9.26,1.57,13.61.17,1.16.33,2.32.5,3.47s.35,2.53,2,2.53H84c1.92-.16,1.82-1.8,1.75-2.89,0-.26,0-.53-.09-.79-.26-1.61-.52-3.21-.77-4.82-.62-3.89-1.27-7.92-2-11.86a22.67,22.67,0,0,1,.56-9.14l0-.15c.12-.54.24-1.1.82-1.37a1.86,1.86,0,0,1,.25,1.25c0,.13,0,.26,0,.38a75.6,75.6,0,0,0,1.3,12c.53,3.11,1,6.28,1.49,9.35l.15,1c.15,1,.37,2.4,1.92,2.4h.27a1.87,1.87,0,0,0,1.33-.62,3.08,3.08,0,0,0,.27-2.32c0-.2,0-.4-.07-.61,0-.38-.09-.75-.15-1.13l-.75-4.53c-.9-5.42-1.83-11-2.79-16.55a4.53,4.53,0,0,1,.59-2.73c.08-.16.15-.32.22-.48a.82.82,0,0,1,.76-.53h.18c.39.07.57.32.62.83s.07.91.1,1.36a23.88,23.88,0,0,0,.25,2.52q1.16,6.78,2.33,13.55c1.39,8,2.83,16.25,4.14,24.38,2,12.43,11.48,25.91,20.6,32.82l.11.09a9.07,9.07,0,0,0,.93.64q7.15,6.1,14.32,12.18,3.51,3,7.06,5.91a4.73,4.73,0,0,0,1.44.9c1.11,1.13,2.25,2.22,3.44,3.27a1.94,1.94,0,0,0,1.91.51,2.07,2.07,0,0,0,1.38-1.38,2,2,0,0,0-.51-1.92c-.6-.53-1.2-1.06-1.81-1.58,1.43-.51,2.89-1,4.32-1.37a52.4,52.4,0,0,0,7.07-2.44,26.2,26.2,0,0,1,.24,4.79c0,.89,0,1.74,0,2.6,0,1.05.13,2.63,1.87,2.67h.07a1.75,1.75,0,0,0,1.32-.47,3.17,3.17,0,0,0,.55-2.3l0-1.54a27.61,27.61,0,0,0-.64-6.74l1-.29c.81-.21,1.51-.4,2.21-.65l.3-.1c.9-.3,2-.68,1.72-2A1.2,1.2,0,0,0,164.32,191.87ZM80,109.7a29.82,29.82,0,0,0-1,7.49.54.54,0,0,1-.14.21l0,0a4.1,4.1,0,0,0-2.5-.85,5.33,5.33,0,0,0-1.21.15c.11-.67.21-1.34.31-2a40.43,40.43,0,0,1,.92-4.85c.24-.85.74-1.87,1.77-1.87a2.58,2.58,0,0,1,1.47.57A.92.92,0,0,1,80,109.7Z"/><path d="M94.14,89.68a2.26,2.26,0,0,0-1.86-1,49.74,49.74,0,0,0-6.6-.36H84.34a59.23,59.23,0,0,0-7.15.35,2.27,2.27,0,0,0-1.86,1,2.21,2.21,0,0,0,.26,2,12.76,12.76,0,0,0,9,7l.15,0,.17,0a12.8,12.8,0,0,0,9-7A2.17,2.17,0,0,0,94.14,89.68Zm-9.39,5.6a7.52,7.52,0,0,1-5.86-3.9c2.07-.21,4-.33,5.84-.34s3.79.13,5.85.34A7.49,7.49,0,0,1,84.75,95.28Z"/><path d="M84.19,74.73a2.41,2.41,0,0,0,.37-2.2,1.23,1.23,0,0,0-1.09-.64,1,1,0,0,0-.88.56l-.75,1c-.2.29-.41.58-.6.88s-.31.49-.45.74-.25.42-.41.68a4.05,4.05,0,0,0-.64,1.36,2.3,2.3,0,0,0,.74,2.09,4.36,4.36,0,0,0,2.33,1,10.65,10.65,0,0,0,1.37.1h.5a4.51,4.51,0,0,0,1.37-.18c.68-.22,1-.54.88-.91a1.19,1.19,0,0,0-.58-.48l-.06,0a6.63,6.63,0,0,0-.75-.34,4.51,4.51,0,0,0-.52-.17,3.9,3.9,0,0,1-.63-.23,2.19,2.19,0,0,1-.85-.67,1.09,1.09,0,0,1-.25-.6,1.84,1.84,0,0,1,.36-1A11.64,11.64,0,0,0,84.19,74.73Z"/><path d="M61.18,68.81a1.45,1.45,0,0,0,.8.25,1.6,1.6,0,0,0,1.19-.58,4.26,4.26,0,0,1,3.13-1.63,4.91,4.91,0,0,1,2.49.79,2,2,0,0,0,1,.32c.8,0,1.41-.62,1.63-1.66l0-.1,0-.09c0-.08-.07-.17-.11-.26a2.15,2.15,0,0,0-.43-.76,5.5,5.5,0,0,0-4.08-1.65,9.5,9.5,0,0,0-1.7.17,5.73,5.73,0,0,0-4.42,3.32A1.38,1.38,0,0,0,61.18,68.81Z"/><path d="M102.77,63.47h-.46a5.44,5.44,0,0,0-3.47,1.34,1.65,1.65,0,0,0-.52,2.4,1.6,1.6,0,0,0,1.35.74,2.24,2.24,0,0,0,1.17-.36,4.32,4.32,0,0,1,2.3-.76A3.9,3.9,0,0,1,106,68.23a2.26,2.26,0,0,0,1.5.84,1.45,1.45,0,0,0,1-.41c1-.92.22-2.08-.05-2.46A6.5,6.5,0,0,0,102.77,63.47Z"/><path d="M64.77,56.79a9.08,9.08,0,0,1,.91,0,11.26,11.26,0,0,1,2,.19,2.53,2.53,0,0,0,.46,0h.2a1.31,1.31,0,0,0,1.21-1,1.57,1.57,0,0,0-1.09-2,5.42,5.42,0,0,0-2.31-.43c-.44,0-1,0-1.6.09l-.44,0a8,8,0,0,0-4.78,1.89c-.78.75-.91,1.49-.38,2.2a1.42,1.42,0,0,0,1.15.62h.14a1.75,1.75,0,0,0,.79-.3A7.92,7.92,0,0,1,64.77,56.79Z"/><path d="M109.18,58.43a1.4,1.4,0,0,0,1.14-.62c.53-.71.41-1.45-.38-2.2a8,8,0,0,0-4.78-1.89l-.43,0c-.66-.06-1.17-.09-1.61-.09a5.48,5.48,0,0,0-2.31.43,1.57,1.57,0,0,0-1.09,2,1.32,1.32,0,0,0,1.21,1h.2a2.45,2.45,0,0,0,.46,0,11.29,11.29,0,0,1,2-.19,8.88,8.88,0,0,1,.9,0,7.88,7.88,0,0,1,3.72,1.33,1.79,1.79,0,0,0,.8.3Z"/><path d="M54.64,96.61a72,72,0,0,1-4.81-10.55,3.74,3.74,0,0,0-3.62-2.67,16,16,0,0,1-9.42-3.71,7.79,7.79,0,0,1-3-5.54c-.37-3.39.77-5.29,3.77-6.65a1.63,1.63,0,0,0,1.13-2,1.72,1.72,0,0,0-.56-.92c1-.82.37-3.22.27-4.34a68.54,68.54,0,0,1,2.47-25.64c2.35-7.81,7.43-14.54,13.27-20.15C63.28,5.68,74.77,3,87.2,3.76c3.74.23,7.45.67,10.89,2.38.78.39,1.8.73,2.37-.22.67-1.12-.31-1.68-1.13-2.22a17.63,17.63,0,0,0-5.85-2.45A47.2,47.2,0,0,0,61.34,5.11c-14.17,7-23.43,21.82-25.94,37.13a78.09,78.09,0,0,0-.55,19.32,4.54,4.54,0,0,0,1.08,2.86,6,6,0,0,0-4.13,2.93A11.67,11.67,0,0,0,35,82.63a21,21,0,0,0,4.62,2.72c0,.19,0,.38,0,.56l0,.41c0,.26,0,.52,0,.78a183.52,183.52,0,0,1-1,20.51q-.25,2.9-.5,5.79c-.42,5.33-1.31,10.7-2.17,15.89s-1.75,10.53-2.18,15.86a24,24,0,0,0,2.74,13.93,11.23,11.23,0,0,0,10.25,6.19,14.19,14.19,0,0,0,2.22-.17c.57-.08,1.36-.2,1.54-1s-.22-1.32-1.17-1.68a7.69,7.69,0,0,0-1.76-.43,9.38,9.38,0,0,1-7.84-5.53,20.12,20.12,0,0,1-2-10.2l.08-1.11a77.88,77.88,0,0,1,1.54-12c2.46-10.47,3.16-21.32,3.83-31.82l.05-.54c0-.4.07-.79.09-1.18a63.32,63.32,0,0,0-.56-13.27,18.12,18.12,0,0,0,1.84.34,2.8,2.8,0,0,1,2.67,2.06A42.09,42.09,0,0,0,48.92,93c1.64,3.64,3.28,7.35,6.35,10a57.37,57.37,0,0,0,12,8.29c2.15,1.09,4.38,2,6.62,2.88a1.16,1.16,0,0,0,0-.18c.18-1.1.18-2.21.33-3.31a57.67,57.67,0,0,1-14.88-8.63A21.78,21.78,0,0,1,54.64,96.61Z"/><path d="M139.23,73.12a19.06,19.06,0,0,0-.26-2.3c-.63-2.75-1.79-5.11-4.55-6.15.09-.34.15-.7.22-1a29.74,29.74,0,0,0,.19-9.18c0-1.83.06-3.66,0-5.49-.62-16.32-7.9-29.28-20.32-39.51a21.42,21.42,0,0,0-10.41-5c-1.08-.16-2.42-.32-2.69,1.12-.25,1.29,1,1.4,1.91,1.64a26.53,26.53,0,0,1,10.24,5.8c15.46,13.26,19.6,30.54,17.58,50a7.57,7.57,0,0,0-.13,2,2.14,2.14,0,0,0-.17.43c-.35,1.2.41,1.84,1.53,2.16a3.43,3.43,0,0,1,2.31,1.51,8.37,8.37,0,0,1-2,10.51,15.73,15.73,0,0,1-9.41,3.74A3.57,3.57,0,0,0,119.66,86a52.47,52.47,0,0,1-2.47,6c-1.77,3.68-3.6,7.26-7,10a62.46,62.46,0,0,1-17.1,9.55c.2,1.16.37,2.33.51,3.49a65.27,65.27,0,0,0,19.24-10.77,23.09,23.09,0,0,0,4.73-5.57,58.88,58.88,0,0,0,4.7-10,2.72,2.72,0,0,1,2.57-2,11.68,11.68,0,0,0,1.34-.18,8.16,8.16,0,0,0-.21,2.83c0,.26,0,.53,0,.79.07,6.34.6,12.77,1.11,19,.26,3.11.52,6.34.72,9.51.19,2.94.47,6.63,1,10.49a1.69,1.69,0,0,0,1.2,1.39,11,11,0,0,1,3.35,2c0-.22,0-.43-.06-.64l-.31-2.79c-.27-2.45-.55-5-.78-7.49q-.75-8.11-1.48-16.23-.81-8.92-1.63-17.84l0-.25a3.38,3.38,0,0,0-.34-1.46,26.38,26.38,0,0,0,2.71-1.22C136.12,82.21,139.15,78.69,139.23,73.12Z"/><path d="M57.67,161.49c-3.63-2.39-4.84-6.12-5.55-9.46-.95-4.45-.64-9-.34-13.46.06-.9.12-1.81.17-2.71.15-2.79.33-5.58.51-8.38.23-3.54.47-7.21.65-10.82v-.13c.09-1.77.19-3.77-1.51-5.35l-.12-.11-.13.09a3,3,0,0,0-1.3,2.52l-.1.86c-1.27,10.89-2.57,22.15-2.6,33.32a24.38,24.38,0,0,0,4.24,13.6,7.45,7.45,0,0,0,4.1,3.33l.14.05a4.65,4.65,0,0,0,1.41.28,1.56,1.56,0,0,0,1.4-.86C59.22,163.26,58.87,162.28,57.67,161.49Z"/><path d="M117.4,109.52l-.25,0c-1.18.18-1.11,1.3-1.07,2,.12,1.77.27,3.58.41,5.32l.18,2.2c0,.66.14,1.36.14,2,0,1.13.23,2.25.24,3.4a18.85,18.85,0,0,1,3.79,2.29s0-.09,0-.14a45.91,45.91,0,0,0-2-15.57C118.72,110.55,118.41,109.52,117.4,109.52Z"/><path d="M96.56,21.09a1.27,1.27,0,0,0-1-1.31,3.89,3.89,0,0,0-1.14-.19,9.64,9.64,0,0,0-4.61,1,85.78,85.78,0,0,0-14.28,7.76c-10.47,7.19-19.5,15.94-28,25.33-2.16,2.39-3.41,5.27-5.11,7.91a2,2,0,0,0-.32,1.54,1.54,1.54,0,0,0-.34,1.28,3.83,3.83,0,0,1,0,.6v.09A40.05,40.05,0,0,0,43.69,74a1.93,1.93,0,0,0,1.75,1.49,2,2,0,0,0,.58-.09c.59-.19,1.5-.76,1-2.46-.79-2.69-1.63-5.56-2.55-8.45a2.6,2.6,0,0,0,1.21-1,11.38,11.38,0,0,0,1.2-1.84c1.4-3,3.67-5.44,5.87-7.9A144.08,144.08,0,0,1,78.92,30.3C84,26.83,89.1,23,95.51,22.09A1.18,1.18,0,0,0,96.56,21.09Z"/><path d="M126.9,59.93c-1-2.28-2.09-4.52-3.14-6.78-5.13-11-11.55-21.21-20.25-29.84a18,18,0,0,0-2-1.75,1.16,1.16,0,0,0-1.61.11,1.11,1.11,0,0,0-.11,1.43,25,25,0,0,0,2,2.84c6.55,7.66,12.46,15.72,16.68,24.94,1.86,4,4.07,7.95,5.65,12.13a2.15,2.15,0,0,0,1.2,1.38l-.06.2c-.76,2.36-1.47,4.78-2.15,7.11l-.22.74c-.28,1-.71,2.41.88,2.89a2.09,2.09,0,0,0,.63.11c1.31,0,1.74-1.43,2-2.12a44.51,44.51,0,0,0,1.66-8.39v-.06l0-.06a1.56,1.56,0,0,1,0-.5,1.33,1.33,0,0,0-.47-1.3,4.71,4.71,0,0,0,.09-.58A22.11,22.11,0,0,0,126.9,59.93Z"/><path class="cls-3" d="M99.7,11.18c-.4,1.63-.76,3.28-1,4.93-.14.81,0,1.71,1,1.87s1.45-.59,1.65-1.41c.39-1.63.7-3.28,1-4.58-.11-1.2.25-2.3-1-2.5S99.91,10.35,99.7,11.18Z"/></g><g id="キラキラ"><path class="cls-1" d="M167.68,64.14c.1.15,4.84,4.76,4.84,4.76l-5.16,5.48-5-5.68Z"/><path class="cls-1" d="M11.89,111.48c.1.15,5,4.91,5,4.91l-5.33,5.67-5.2-5.88Z"/><path d="M156.17,68.87V69A1.63,1.63,0,0,0,158,70.43h.13a10.63,10.63,0,0,1,2,.25l.84.15c1.83.29,3.06,1.42,4,3.65a15.17,15.17,0,0,1,.86,4.57l0,.36a1.28,1.28,0,0,1,0,.19,3.36,3.36,0,0,0,.07.6,1.4,1.4,0,0,0,1.41,1.27h0a1.44,1.44,0,0,0,1.46-1.38c.06-.53.12-1.07.17-1.59s.1-1,.16-1.45a7.81,7.81,0,0,1,2.3-5.09,3.72,3.72,0,0,1,1.9-1c.33,0,.65-.12,1-.19a9.74,9.74,0,0,1,2-.29h.33a2.63,2.63,0,0,0,.88-.18,1.44,1.44,0,0,0,0-2.73,3.38,3.38,0,0,0-1.21-.19h-.24c-3.09-.17-4.87-1.1-6-3.09a10.73,10.73,0,0,1-1-3.52c-.08-.58-.14-1.18-.2-1.76,0-.32-.06-.64-.1-1V57.9a1.48,1.48,0,0,0-1.46-1.58h-.06A1.51,1.51,0,0,0,165.87,58v.12a18,18,0,0,1-.85,5c-.87,2.33-2.18,3.55-4.12,3.86l-.82.15a9.54,9.54,0,0,1-1.8.23l7,7.2c-1.43,0-9-6.32-9.06-5.79Zm11.19-3.51a9.75,9.75,0,0,0,3.09,3.54,9.43,9.43,0,0,0-1.94,1.79,10.18,10.18,0,0,0-1.15,1.75,9.73,9.73,0,0,0-3.09-3.55A9.86,9.86,0,0,0,167.36,65.36Z"/><path d="M0,116.36v.12A1.69,1.69,0,0,0,1.91,118h.14a11.29,11.29,0,0,1,2,.26l.87.16c1.89.3,3.16,1.46,4.12,3.76a15.86,15.86,0,0,1,.89,4.73l0,.37a1.34,1.34,0,0,1,0,.2,3.46,3.46,0,0,0,.07.61,1.47,1.47,0,0,0,1.45,1.32h0A1.49,1.49,0,0,0,13.06,128c.07-.55.13-1.1.18-1.64s.11-1,.17-1.5a8.1,8.1,0,0,1,2.37-5.26,3.76,3.76,0,0,1,2-1.07l1-.2a9.67,9.67,0,0,1,2.08-.3h.34a2.74,2.74,0,0,0,.91-.19,1.43,1.43,0,0,0,1-1.49,1.45,1.45,0,0,0-1-1.33,3.65,3.65,0,0,0-1.25-.2h-.25c-3.19-.18-5-1.13-6.15-3.18a11.19,11.19,0,0,1-1.05-3.65c-.09-.59-.15-1.21-.21-1.81,0-.33-.07-.66-.1-1V105a1.54,1.54,0,0,0-1.52-1.63h-.05A1.58,1.58,0,0,0,10,105.14v.12a18.84,18.84,0,0,1-.87,5.16c-.91,2.4-2.26,3.66-4.26,4l-.85.15a9.39,9.39,0,0,1-1.86.24H1.94A1.69,1.69,0,0,0,0,116.25Zm11.55-3.63a10,10,0,0,0,3.2,3.66,10.1,10.1,0,0,0-3.19,3.66,10.1,10.1,0,0,0-3.19-3.67A10,10,0,0,0,11.55,112.73Z"/></g></g></g></svg>