<svg xmlns="http://www.w3.org/2000/svg" xmlns:xlink="http://www.w3.org/1999/xlink" width="83.893" height="226.775" viewBox="0 0 83.893 226.775"><defs><clipPath id="a"><rect width="83.893" height="226.775" fill="none"/></clipPath></defs><g transform="translate(-666.107 -500)"><g transform="translate(666.107 500)" clip-path="url(#a)"><path d="M83.893,0V226.775H14a14,14,0,0,1-14-14V14A14,14,0,0,1,14,0Z" fill="#62a3c1"/></g><path d="M9.545-10.672a1.117,1.117,0,0,0-.023-1.633c-.828-.874-3.128-1.449-4.784-1.311a1.022,1.022,0,1,0,.115,2.024,4.3,4.3,0,0,1,3.036.943A1.16,1.16,0,0,0,9.545-10.672ZM-1.472-6.049A11.689,11.689,0,0,1,.943-6.923a6.425,6.425,0,0,1,3.726.046c2,.736,1.357,2.369.8,3.1C4.37-2.3,2.9-2.323,1.1-3.2A1.1,1.1,0,1,0,.115-1.242,5.616,5.616,0,0,0,7.5-2.622c1.173-1.7,1.794-4.807-2-6.118A8.825,8.825,0,0,0,.391-8.763a14.159,14.159,0,0,0-1.932.713c-.023-.874-.023-1.725,0-2.438A13.3,13.3,0,0,0,.621-11.523c1.61-.966.207-2.783-1.035-1.955a6.911,6.911,0,0,1-.92.529c.046-.69.069-1.426.115-1.932a1.165,1.165,0,1,0-2.323.023c.046.874.092,1.61.092,2.691a5.742,5.742,0,0,1-2.323.207c-1.909-.391-2.185,1.909-.483,2.116A8.624,8.624,0,0,0-3.5-9.936c0,.92.023,1.909.046,2.875A14.814,14.814,0,0,0-6.693-4.623c-1.219,1.334-1.978,2.967.759,4.3C-4.048.6-1.1.644-1.288-2.645-1.334-3.634-1.426-4.83-1.472-6.049ZM-3.427-4.9c.023.943.023,1.794,0,2.415-.023.9-.69.966-1.679.483-.529-.253-.529-.851-.046-1.38A11.291,11.291,0,0,1-3.427-4.9ZM7.13,14.7v.943c0,1.426.023,2.967.023,4.485,0,.989-.023,1.978-.046,2.9-.023,1.127-.6,1.4-1.357,1.4a8.245,8.245,0,0,1-1.219-.138c-.069,0-.115-.023-.184-.023a.927.927,0,0,0-.9,1.012c0,1.012.828,1.219,2.438,1.219,2.622,0,3.427-1.426,3.427-3.059,0-.805-.023-1.771-.023-2.852,0-2.921-.046-6.486-.046-9.936V8.923c0-1.035-.713-1.955-2.415-2.047-.391-.023-1.035-.023-1.7-.023-.943,0-1.909,0-2.346.023a1.911,1.911,0,0,0-2,1.817c-.023.8-.046,1.679-.046,2.53,0,.529,0,1.035.023,1.495.069,2.024,1.978,2.024,4.692,2.024C6.118,14.742,6.716,14.719,7.13,14.7ZM4.232,21.2c.023-.391.023-.805.023-1.2,0-.644-.023-1.288-.046-1.886A2.181,2.181,0,0,0,2.07,16.076c-.483-.023-1.311-.046-2.162-.046-.828,0-1.679.023-2.231.046a2.086,2.086,0,0,0-2.116,2.07c-.023.621-.046,1.265-.046,1.932,0,3.335.667,3.381,4.485,3.381.759,0,1.495-.023,2.024-.069A2.187,2.187,0,0,0,4.232,21.2Zm-11.339,4.37c.069-3.243.092-6.371.092-8.832V14.7c.414.023.989.046,1.587.046,4.554,0,4.577-.575,4.577-3.519,0-.851-.023-1.725-.046-2.53A1.954,1.954,0,0,0-2.944,6.876c-.437-.023-1.38-.023-2.254-.023-2.392,0-3.956,0-3.956,2.254-.046,4.991,0,12.259-.161,16.468v.046a1,1,0,0,0,1.1.943A1.009,1.009,0,0,0-7.107,25.575ZM2.76,10.05c0-.276.023-.529.023-.759.046-.736.3-.736,2.139-.736,2.116,0,2.162.023,2.162,1.495Zm4.37,2.99c-.322.023-1.058.023-1.817.023-2.438,0-2.507-.092-2.53-.736,0-.23-.023-.483-.023-.759H7.13ZM-7.015,10.05c0-.207.023-.414.023-.6.046-.828.207-.9,2.093-.9,1.84,0,1.955.069,2,.713,0,.23.023.506.023.782Zm4.14,1.518c0,.276-.023.529-.023.759-.023.644-.184.736-2.415.736-.69,0-1.38,0-1.7-.023V11.568ZM1.242,21.55c-.3.023-.828.023-1.357.023-1.633,0-2.208-.023-2.254-.736-.023-.368-.023-.851-.023-1.311,0-1.679.046-1.748,2.254-1.748,2.162,0,2.3.023,2.3,1.472C2.162,21.136,2.162,21.481,1.242,21.55ZM9.913,39.673a.906.906,0,0,0-.506-.828,33.284,33.284,0,0,1-7.337-6A3.051,3.051,0,0,0-.138,31.784a2.524,2.524,0,0,0-2.047,1.081,29.1,29.1,0,0,1-7.13,6.693,1.154,1.154,0,0,0-.621.989A1.23,1.23,0,0,0-8.671,41.72a1.717,1.717,0,0,0,1.035-.391A44.393,44.393,0,0,0-.6,34.406c.23-.3.414-.46.621-.46s.414.161.667.46A42.483,42.483,0,0,0,7.728,40.8a1.487,1.487,0,0,0,.759.253A1.473,1.473,0,0,0,9.913,39.673Zm-5.842.713a1.013,1.013,0,1,0,0-2.024H-3.657a.989.989,0,0,0-1.058,1.012.989.989,0,0,0,1.058,1.012Zm2.507,8c.023-.575.046-1.173.046-1.748,0-.6-.023-1.173-.046-1.656a2.381,2.381,0,0,0-2.438-2.07c-1.472-.023-3.1-.046-4.623-.046-1.242,0-2.415.023-3.381.046a2.337,2.337,0,0,0-2.553,2.277c-.023.529-.023,1.2-.023,1.84,0,.483,0,.966.023,1.38a2.4,2.4,0,0,0,2.6,2.346q1.932.069,3.864.069c1.311,0,2.645-.023,3.979-.069A2.5,2.5,0,0,0,6.578,48.39Zm-3.266.391c-1.058.023-2.185.046-3.312.046-1.1,0-2.185-.023-3.174-.046-.9-.023-1.1-.253-1.1-1.955,0-1.288.023-2,1.081-2.024,1.081-.023,2.346-.046,3.588-.046,1.035,0,2.024.023,2.875.046,1.058.023,1.1.437,1.1,2.162C4.37,48,4.37,48.735,3.312,48.781ZM-4.945,71.366a23.185,23.185,0,0,0,.023,3.4c.092.989.759,1.357,1.38,1.265a1.241,1.241,0,0,0,1.058-1.472,29.042,29.042,0,0,1-.184-5.474,13.788,13.788,0,0,1,2.9-1.932C3.4,65.524,5.8,65.846,6.831,66.9c1.012,1.058.736,2.852-1.7,4.485a11.726,11.726,0,0,1-2.438,1.127,1.234,1.234,0,1,0,.736,2.346,14.089,14.089,0,0,0,3.266-1.679c3.473-2.507,3.864-5.612,2.185-7.5C7.222,63.8,3.565,63.04-.529,65.225A15.577,15.577,0,0,0-2.507,66.49v-.115c.46-.828.805-1.472.92-1.633,1.035-1.472.414-2.576-.483-2.6.161-1.334.322-2.461.437-3.289.207-1.357-2.116-1.679-2.254-.069-.092.989-.23,2.438-.391,4.117-1.173.483-2.415,1.081-3.266,1.472C-8.855,65-8.1,67.295-6.44,66.26a14.989,14.989,0,0,1,1.656-.989.38.38,0,0,1,.3-.046l-.046.552A34.74,34.74,0,0,1-7.59,71.389a9.332,9.332,0,0,0-.69.92c-1.012,1.518,1.173,2.806,2.116,1.15.414-.713.759-1.334,1.081-1.863ZM-4.6,92.433c.046.966.115,2.024.207,2.852.322,3.128,1.426,4.554,4.439,4.876a13.845,13.845,0,0,0,4.761-.391,1.179,1.179,0,1,0-.644-2.254,12.8,12.8,0,0,1-3.749.621c-1.932-.046-2.668-.828-2.852-3.312-.069-.8-.092-1.909-.115-2.99,1.518-.391,3.312-.805,5.221-1.1A5.69,5.69,0,0,1,2,93.169c-.322.483-.713.6-1.38-.276-.9-1.173-2.139-.069-1.541.943a9.232,9.232,0,0,0,.9,1.219,2,2,0,0,0,2.829.345c1.081-.736,1.541-2.162,1.771-3.726.046-.391.115-.8.138-1.2.322-.023.621-.069.943-.092A21.854,21.854,0,0,1,8.9,90.34c1.863.115,2.231-2.139.345-2.254a21.877,21.877,0,0,0-3.818.253c-.207.023-.391.069-.6.092.023-.46.046-.92.069-1.311.046-.644.092-1.311.092-2.093A1.15,1.15,0,0,0,2.691,85c.023.506,0,.713.023.9a8.478,8.478,0,0,1,.023.92c0,.575.023,1.219.023,1.909-1.886.322-3.8.713-5.313,1.035l.023-.3c.046-1.081.069-2.139.069-2.875a1.209,1.209,0,0,0-2.415.092c.046.989.115,1.932.161,3.266v.3l-.644.138c-1.012.23-2.714.667-3.749.92-1.909.46-1.288,2.9.529,2.369.69-.207,1.564-.483,3.588-1.127Z" transform="translate(708.107 572)" fill="#fff"/></g></svg>