<?xml version="1.0" encoding="UTF-8"?><svg xmlns="http://www.w3.org/2000/svg" viewBox="0 0 181.32 240.51"><defs><style>.d{fill:#fff;}.e{fill:#ffd200;}.f{fill:#1f1715;}</style></defs><g id="a"/><g id="b"><g id="c"><g><g><path class="d" d="M34.06,236.51c.25,.2,.52,.38,.81,.54,1.33,.82,3.02,.79,4.32-.07,.63-.67,1.21-1.38,1.74-2.14,2.08-2.32,5.85-1.82,9.04-1.86,4.01-.06,7.92-1.29,11.24-3.56l5.44,.41c-.05-7.3,.27-14.59,.96-21.85-4.65-.5-11.93-1.4-16.2-2.3-1.18,1.95-2.31,3.73-3.35,5.28-2.87,4.27-9.92,10.11-14.63,12.19-1.71,.74-3.58,1.05-5.43,.92-.09,1.07,.06,2.15,.44,3.15,.89,2.31,2.02,4.53,3.37,6.61,.6,1.01,1.37,1.92,2.26,2.69Z"/><path class="d" d="M106.1,58.6l-2.78-3.13c-5.4-1.27-11.88-9.99-14.17-13.69-1.61-2.6-3.55-8.35-5.04-12.36-5.72,8.52-13.27,14.79-22.93,18.24-2.3,.85-.57-6.72-.38-10.25-5.83,6.51-16.94,17.48-22.91,23.05l-4.36,4.26c-1.29-1.51-3.32-2.19-5.26-1.76-1.55,.32-2.88,1.33-3.6,2.75-.4,.96-.6,1.99-.58,3.03-.08,4.07,.97,8.09,3.02,11.61,.98,1.78,2.32,3.33,3.95,4.55,1.38,.96,3.33,2.03,5.69,1.06,1.17,3.54,2.83,6.91,4.93,10,1.76,1.84,3.37,3.53,3.37,3.53,3.35,3.66,7.4,6.59,11.92,8.64-.1,1.83-.3,3.64-.62,5.44-.45,2.56-.31,4.85-3.87,6.14-.26,.09-15.26,4.8-14.63,4.74,0,6.38,13.8,15.67,32.22,15.67,21.08,0,34.92-9.63,34.92-15.37l-.3-.12c-.36-.15-10.46-4.95-10.69-5.04-3.56-1.29-3.42-3.57-3.87-6.13-.41-2.29-.66-4.6-.76-6.92,8.9-4.77,15.44-17.87,16.51-21.46,.14-.52,.4-1.45,.64-2.57,1.6-.39,3.94-.47,5.16-1.58,1.46-1.41,2.6-3.13,3.34-5.02,1.58-3.75,2.1-7.87,1.5-11.9-.11-1.03-.45-2.03-.97-2.93-.9-1.31-2.34-2.14-3.92-2.26-1.5-.12-2.99,.37-4.12,1.37l-1.39-1.58Z"/><path class="d" d="M140.44,225.56c4.27-15.71,3.76-44.53,1.78-65.06-.16-2.65-.54-5.29-1.12-7.88-1.21-4.3-3.24-8.82-6.2-11.29-1.51-1.62-6.7-5.02-8.63-6.07-7.17-3.9-13.68-7.35-20.9-10.72-.03,0-.05,.02-.07,.03-7.64,4.46-22.53,8.44-33.83,8.4-12.64-.03-26.08-4.28-34.36-8.95-9.95,3.7-21.46,8.28-28.03,13.09-3.38,2.9-5.94,7.32-6.83,13.8-1.65,18.08,1.42,36.83,7.52,54.12,1.87,5.29,4.16,10.62,8.23,14.48,4.07,3.86,10.31,5.9,15.44,3.64,4.71-2.08,11.76-7.92,14.63-12.19,1.04-1.54,2.17-3.33,3.35-5.28,4.44,.94,11.42,1.87,16.03,2.37l.14,.05c-1.05,9.73-1.39,29.23-.17,29.5,13.6,.6,37.24,2.45,57.81-.48,9.57-1.36,13.94-7.22,14.88-10.32,.12-.4,.24-.81,.36-1.24Z"/><path class="d" d="M45.06,153.3c1.51-2.33,5.59-7.5,5.86-8.99,.3-1.95,.31-3.94,.04-5.89-.87-6.47-1.34-15.3-2.48-19.15-.92-3.42-2.28-6.7-4.07-9.76-1.72-2.99-3.64-5.87-5.74-8.62-.69-.9-1.11-1.98-1.21-3.11-.08-1.1,.57-2.12,1.6-2.51,1.12-.36,2.33-.33,3.44,.07,3.37,1.83,5.61,4.53,8.14,8.46,1.74,2.71,7.22,9.93,8.81,12.73l.16,.25c1.34-.77,2.65-1.34,4.48-2.17,.81-.37,3.29-1.19,4.18-1.07,2.72,.38,4.83,2.58,5.09,5.32,1.72-.44,3.15,.57,4.14,1.75,.88,1.05,1.69,2.71,.83,6h0c1.81,.83,2.99,2.63,3.03,4.62,.13,1.75,.29,3.3-.68,5.25-1.01,2.02-3.61,.8-4.35-.14l-.29-.14c.75,2.64,1.85,7.28,.52,10.66-.48,1.22-4.47,4.24-6.17,5.3-2.24,3.49-4.43,10.62-5.2,12.72"/><path class="e" d="M26.25,128.24c3.62-1.49,7.32-2.91,10.84-4.22,.24,.14,.5,.27,.75,.4,.3-.18,6.78-2.24,11.02-3.58-.12-.58-.24-1.11-.37-1.56-.92-3.42-2.28-6.7-4.07-9.76-1.72-2.99-3.64-5.87-5.74-8.62-.69-.9-1.11-1.98-1.21-3.11-.08-1.1,.57-2.12,1.6-2.51,.65-.21,1.34-.29,2.02-.24-1.81-2.84-3.27-5.9-4.33-9.1-2.35,.97-4.31-.1-5.69-1.06-1.63-1.21-2.98-2.77-3.95-4.55-2.05-3.52-3.1-7.54-3.02-11.61-.02-1.04,.18-2.07,.58-3.03,.72-1.41,2.05-2.42,3.6-2.75,1.94-.43,3.97,.24,5.26,1.76l4.36-4.26c5.97-5.57,17.09-16.54,22.91-23.05-.19,3.53-1.91,11.1,.38,10.25,9.66-3.45,17.22-9.72,22.93-18.24,1.49,4.02,3.44,9.77,5.04,12.36,2.29,3.7,8.77,12.41,14.17,13.69l2.78,3.13,1.4,1.58c1.13-1,2.62-1.5,4.12-1.37,1.58,.12,3.03,.95,3.92,2.26,.53,.9,.86,1.89,.97,2.93,.6,4.03,.08,8.15-1.5,11.9-.74,1.89-1.88,3.61-3.34,5.02-1.22,1.11-3.56,1.19-5.16,1.58-.24,1.12-.5,2.05-.64,2.57-1.06,3.58-7.61,16.69-16.51,21.46,.1,2.32,.35,4.64,.76,6.92,.45,2.56,.31,4.85,3.87,6.13,.24,.09,10.33,4.89,10.69,5.04l.3,.12c.1-.06,.21-.12,.31-.17,.02-.01,.05-.02,.07-.03,.37,.17,.72,.34,1.08,.51,2.39-1.01,3.8-1.7,3.8-1.7,10.73,3.08,19.24-7.01,18.7-14.35-.3-4.19-1.34-8.3-3.06-12.14-2.22-5.28-6.54-16.03-8.07-35.62,.14-5.97-.96-14.51-1.4-17.79-1.55-11.37-7.48-23.8-15.29-30.41-3.38-2.86-4.39-4.23-7.97-5.89l-4.01-1.85-1.96-.65c-6.94-2.37-14.29-3.3-21.6-2.71-14.7,.95-27.29,9.37-32.74,15.3-9.04,9.84-14.06,27.08-11.78,50.25,1.02,15.74,.46,27.18-.93,33.75-1.02,5.41-1.44,10.91-1.27,16.41,.23,4.12,2.98,8.29,7.4,10.59Z"/><path class="f" d="M108.53,61.65c1.5-1.45,4.19-1.48,5.46,.31,.72,1.01,.82,2.49,.91,3.69,.11,1.45,.08,2.92-.12,4.36-.35,2.71-1.27,5.32-2.71,7.64-.49,.94-1.24,1.72-2.16,2.25-1.19,.38-2.42,.65-3.66,.8-2.26,.47-1.3,3.93,.95,3.46,1.15-.17,2.29-.41,3.41-.71,1.24-.41,2.34-1.16,3.18-2.17,1.81-2.19,3.12-4.74,3.84-7.49,.82-2.86,1.09-5.85,.8-8.81-.3-2.88-1.12-5.75-3.89-7.16-2.83-1.44-6.26-.93-8.54,1.29-1.66,1.61,.88,4.14,2.53,2.53h0Z"/><path class="f" d="M105.25,77.66c.03,2.58-.42,5.13-1.31,7.55-.11,.31-.24,.62-.36,.94-.16,.41,.1-.22-.09,.2-.09,.2-.18,.41-.28,.62-.41,.9-.86,1.79-1.32,2.66-2.32,4.56-5.39,8.69-9.09,12.22-1.96,1.9-4.32,3.33-6.91,4.2-2.2,.66-1.27,4.12,.95,3.46,5.56-1.67,9.87-6,13.31-10.5,2.91-3.76,5.28-7.9,7.05-12.31,1.13-2.87,1.68-5.94,1.64-9.03-.07-2.3-3.66-2.31-3.58,0h0Z"/><path class="f" d="M33.7,62.43c-2.37-1.69-5.52-1.82-8.02-.33-2.58,1.58-3.39,4.25-3.39,7.13,0,5.59,2.05,11.77,6.1,15.75,2.24,2.2,5.26,3.75,8.44,2.85,2.22-.63,1.27-4.09-.95-3.46-2.29,.65-4.4-1.19-5.78-2.82-1.71-2.14-2.93-4.63-3.57-7.3-.35-1.32-.56-2.68-.62-4.04-.17-1.25-.04-2.52,.38-3.71,1.05-2.18,3.86-2.27,5.61-.97,.86,.49,1.95,.21,2.45-.64,.48-.86,.19-1.94-.64-2.45h0Z"/><path class="f" d="M33.88,82.56c1.15,4.74,3.06,9.26,5.65,13.39,.5,.85,1.6,1.14,2.45,.64,.85-.5,1.14-1.6,.64-2.45-2.43-3.87-4.21-8.1-5.28-12.54-.26-.95-1.25-1.52-2.21-1.25-.95,.26-1.52,1.25-1.25,2.21h0Z"/><path class="f" d="M82.55,30.32c1.63,4.43,2.99,9.21,5.59,13.19,2.34,3.7,5.17,7.06,8.42,9.99,1.78,1.71,3.93,2.97,6.29,3.7,2.24,.56,3.19-2.89,.95-3.46-3.55-.89-6.63-4.41-8.99-7.22-2.39-2.73-4.35-5.82-5.81-9.14-1.09-2.64-2.02-5.34-3.01-8.01-.28-.94-1.25-1.49-2.2-1.25-.95,.27-1.51,1.25-1.25,2.2Z"/><path class="f" d="M82.55,28.54c-3.18,4.81-7.23,8.97-11.94,12.29-2.41,1.66-4.97,3.08-7.66,4.22-.65,.27-1.3,.53-1.97,.77-.49,.18-.36,.06,.06,.13,.15,.02,.3,.07,.43,.15,.03,.02,.51,.51,.36,.32,.17,.21,.1,.27,.02-.05-.1-.39-.01,.18-.02-.16-.02-.48-.03-.95,0-1.43,.12-2.47,.63-4.91,.78-7.38-.02-1-.85-1.79-1.85-1.77-.45,0-.89,.19-1.21,.5-7.22,8.06-15.01,15.68-22.91,23.06-1.69,1.58,.85,4.11,2.54,2.53,7.91-7.38,15.69-15,22.91-23.05l-3.06-1.27c-.15,2.47-.66,4.91-.78,7.38-.1,2.04,.4,5.35,3.27,4.65,1.6-.48,3.15-1.11,4.63-1.89,1.47-.69,2.89-1.45,4.27-2.3,2.86-1.75,5.52-3.81,7.95-6.13,2.73-2.65,5.18-5.59,7.29-8.76,1.3-1.92-1.81-3.71-3.1-1.81h0Z"/><path class="f" d="M87.65,2.93C79.83,.31,71.54-.57,63.34,.36c-8.06,1-15.79,3.8-22.61,8.2-5.22,3.19-9.69,7.46-13.1,12.53-3.49,5.55-5.92,11.7-7.18,18.13-1.96,9.28-2.09,18.87-1.18,28.28,.03,.98,.81,1.77,1.79,1.79,.99,0,1.79-.81,1.79-1.79-1.37-14.22-.64-29.87,6.63-42.57,2.7-4.69,6.4-8.72,10.84-11.8,6.08-4.35,13.03-7.35,20.37-8.78,8.7-1.52,17.65-.83,26.01,2.03,2.2,.73,3.14-2.74,.95-3.46Z"/><path class="f" d="M119.61,61.25c.02-4.22-.24-8.43-.76-12.62-.34-3.72-.92-7.41-1.75-11.05-2.13-8.6-6.22-17.17-12.39-23.61-1.59-1.66-3.39-3.13-5.12-4.65-1.66-1.49-3.52-2.74-5.53-3.71-.86-.47-1.94-.19-2.45,.64-.49,.86-.2,1.95,.64,2.45,1.64,.75,3.16,1.73,4.52,2.9,1.49,1.29,3.03,2.57,4.45,3.94,2.88,2.85,5.31,6.11,7.22,9.68,2.09,3.79,3.72,7.81,4.85,11.99,.58,2.11,1.03,4.26,1.34,6.43,.02,.14,.04,.29,.06,.43,.07,.51-.05-.39,.02,.16,.04,.31,.08,.62,.12,.92,.11,.82,.2,1.64,.3,2.46,.6,4.52,.89,9.07,.88,13.63-.05,2.31,3.54,2.31,3.58,0h0Z"/><path class="f" d="M19.26,67.5c.59,9.18,.89,18.48-.03,27.65-.16,1.64-.3,2.71-.58,4.32-.31,1.76-.67,3.49-.91,5.26-.65,4.27-.87,8.6-.68,12.92,.33,5.23,3.74,9.7,8.29,12.13,2.03,1.09,3.85-2.01,1.81-3.1-3.48-1.86-6.32-5.19-6.53-9.26-.17-4.15,.05-8.31,.66-12.42,.42-3.09,1.12-6.12,1.46-9.22,.41-3.8,.56-7.62,.6-11.44,.06-5.62-.15-11.24-.51-16.84-.02-.98-.81-1.77-1.79-1.79-.99,0-1.78,.81-1.79,1.79h0Z"/><path class="f" d="M116.03,61.25c.83,10.5,2.55,21.04,6.12,30.98,1.35,3.76,3.14,7.36,4.12,11.24,.39,1.54,.66,3.11,.81,4.69,.11,.98,.1,1.97-.02,2.95-.4,2.05-1.28,3.98-2.56,5.64-3.14,4.31-8.62,6.25-13.78,4.88-2.23-.62-3.18,2.84-.95,3.46,5.45,1.5,11.28,.06,15.41-3.8,3.51-3.2,5.94-7.96,5.52-12.78-.29-3.44-1.05-6.82-2.26-10.04-.63-1.67-1.36-3.31-2-4.97-1.43-3.69-2.62-7.46-3.56-11.3-1.66-6.88-2.75-13.88-3.26-20.93-.02-.98-.81-1.77-1.79-1.79-.99,0-1.78,.81-1.79,1.79h0Z"/><path class="f" d="M50.56,106.59c4.07,2.91,8.83,4.69,13.8,5.17,.99,0,1.78-.81,1.79-1.79-.02-.98-.81-1.77-1.79-1.79-4.26-.35-8.4-2.2-11.99-4.69-.86-.49-1.95-.2-2.45,.64-.48,.86-.2,1.94,.64,2.45Z"/><path class="f" d="M115.87,156.41c-.53,5.54-.61,11.15-.84,16.71-.2,4.9-.42,9.8-.59,14.7-.19,5.34-.16,10.68-.16,16.02,0,2.31,3.58,2.31,3.58,0,0-6.91,.07-13.79,.35-20.69,.25-6.35,.5-12.7,.8-19.04,.12-2.56,.2-5.14,.44-7.69,0-.99-.81-1.79-1.79-1.79-.98,.02-1.77,.81-1.79,1.79h0Z"/><path class="f" d="M68.51,204.84c12.53,.24,25.06,.45,37.59,.63,3.91,.05,7.83,.1,11.74,.15,2.31,.03,2.31-3.56,0-3.58-12.81-.15-25.63-.34-38.44-.58-3.63-.07-7.26-.13-10.9-.2-2.31-.04-2.31,3.54,0,3.58h0Z"/><path class="f" d="M140.43,160.5c1.45,14.29,1.84,28.67,1.18,43.01-.23,6.33-.97,12.63-2.23,18.84-.28,1.27-.59,2.54-.96,3.78-.05,.17-.11,.34-.16,.5-.03,.09-.07,.18-.1,.28-.09,.25,.2-.41,0-.03-.2,.4-.4,.8-.63,1.18-.49,.83-1.1,1.6-1.81,2.26-.86,.87-1.83,1.64-2.87,2.27-2.89,1.65-6.1,2.67-9.41,2.97-4.05,.52-8.12,.85-12.19,1.07-7.97,.41-15.96,.36-23.93,.09-3.54-.12-7.08-.28-10.62-.46-1.58-.08-3.15-.16-4.72-.24-.71-.04-1.42-.07-2.13-.11-.7-.12-1.41-.16-2.11-.1h-.11c.37,.04,.72,.21,.98,.47-.11-.11-.03-.1,.23,.3-.05-.08-.2-.23,0,.06,.19,.26,.04,.14,.01,0-.02-.1-.05-.19-.07-.29-.04-.19-.12-.97-.06-.28-.03-.31-.07-.62-.1-.93-.15-1.75-.18-3.52-.2-5.27-.04-4.71,.1-9.41,.36-14.11,.12-2.2,.27-4.39,.48-6.58,.08-.87,.18-1.74,.29-2.61-.07,.54,.03-.17,.04-.27,.02-.15,.05-.31,.07-.46,.06-.34,.12-.67,.19-1.01,.05-.23,.1-.46,.17-.68,.09-.31,.26-.68,.03-.18,.47-.86,.19-1.93-.64-2.45-.86-.49-1.95-.2-2.45,.64-.49,1.22-.79,2.5-.9,3.81-.28,2.08-.48,4.16-.63,6.25-.36,4.93-.55,9.88-.58,14.83-.02,2.06,0,4.13,.08,6.19,0,1.42,.15,2.83,.43,4.22,.13,.68,.52,1.28,1.09,1.66,.57,.25,1.2,.36,1.82,.31,.76,.03,1.51,.07,2.27,.11,3.34,.17,6.67,.35,10.01,.5,7.96,.37,15.93,.59,23.89,.42,4.26-.09,8.53-.29,12.78-.65,4.06-.35,8.35-.6,12.26-1.8,5.1-1.57,10.18-5.05,12.16-10.2,.84-2.45,1.44-4.98,1.8-7.54,.58-3.29,.98-6.61,1.28-9.94,1.34-14.84,.92-29.89-.26-44.73-.13-1.7-.28-3.4-.45-5.09-.03-.98-.81-1.77-1.79-1.79-.99,0-1.79,.81-1.79,1.79h0Z"/><path class="f" d="M67.43,206.25c-5.24-.51-10.46-1.28-15.62-2.32-.95-.24-1.92,.31-2.21,1.25-.25,.95,.3,1.93,1.25,2.2,5.48,1.09,11.01,1.91,16.58,2.44,.99,0,1.79-.81,1.79-1.79-.02-.98-.81-1.77-1.79-1.79h0Z"/><path class="f" d="M26.19,224.2c-.12,3.33,1.68,6.59,3.35,9.37,1.66,2.79,3.76,5.61,7.27,5.85,1.56,.12,3.09-.5,4.14-1.67,.81-.93,1.3-2.07,2.52-2.54,2.5-.98,5.51-.29,8.13-.53,3.76-.33,7.38-1.61,10.52-3.72,1.9-1.29,.11-4.4-1.81-3.1-2.37,1.62-5.07,2.69-7.9,3.13-2.53,.39-5.1-.01-7.63,.29-1.29,.11-2.55,.49-3.68,1.12-1.21,.73-1.82,1.8-2.7,2.85-1.6,1.91-4.01-.8-4.87-2.1-.96-1.45-1.8-2.96-2.54-4.53-.76-1.36-1.17-2.88-1.19-4.43,.08-2.31-3.5-2.3-3.58,0h0Z"/><path class="f" d="M106.02,122.92c-.97-.29-2.01-.13-2.85,.42-.81,.45-1.64,.87-2.49,1.26-1.88,.86-3.81,1.62-5.78,2.28-4.55,1.53-9.22,2.68-13.96,3.45-.95,.27-1.51,1.25-1.25,2.21,.28,.94,1.25,1.49,2.2,1.25,4.52-.73,8.98-1.81,13.34-3.24,1.97-.65,3.91-1.38,5.82-2.2,.86-.37,1.71-.76,2.55-1.18,.39-.19,.77-.4,1.16-.6,.19-.09,.37-.19,.55-.3,.59-.43-1.16-.11-.24,.13,2.24,.58,3.19-2.88,.95-3.46h0Z"/><path class="f" d="M50.48,127.93c-4.03-1.19-7.94-2.75-11.68-4.67-.86-.48-1.94-.19-2.45,.64-.49,.86-.2,1.95,.64,2.45,4.02,2.06,8.21,3.74,12.53,5.03,.95,.26,1.94-.3,2.21-1.25s-.3-1.94-1.25-2.21h0Z"/><path class="f" d="M87.59,106.95c.17,3.03,.55,6.04,1.13,9.02,.45,2.44,2.17,4.44,4.52,5.24,.7,.28-.45-.22,.05,.01,.19,.09,.38,.18,.57,.26,.6,.28,1.19,.56,1.78,.84,1.61,.76,3.22,1.52,4.83,2.29,1.1,.52,2.19,1.08,3.31,1.55,.86,.47,1.93,.18,2.45-.64,.49-.86,.21-1.95-.64-2.45-2.37-1.01-4.68-2.2-7.01-3.31-1.13-.53-2.26-1.08-3.4-1.6-.59-.23-1.16-.5-1.71-.81-.56-.34-.96-.89-1.1-1.52-.27-1.11-.47-2.24-.61-3.37-.3-1.82-.5-3.67-.59-5.51-.12-2.3-3.7-2.31-3.58,0h0Z"/><path class="f" d="M26.73,166.13l5.3,2.67c.42,.23,.91,.3,1.38,.18,.95-.26,1.52-1.25,1.25-2.2-.12-.45-.42-.84-.82-1.07l-5.3-2.67c-.42-.23-.91-.3-1.38-.18-.95,.26-1.52,1.25-1.25,2.2,.12,.45,.42,.84,.82,1.07Z"/><path class="f" d="M38.51,126.07c3.55-1.31,7.21-2.36,10.81-3.5,.95-.26,1.52-1.25,1.25-2.21s-1.25-1.52-2.21-1.25c-3.6,1.14-7.26,2.19-10.81,3.5-.94,.28-1.49,1.25-1.25,2.21,.27,.95,1.25,1.5,2.2,1.25Z"/><path class="f" d="M55.16,108.24c-.07,1.16-.17,2.32-.33,3.46l.06-.48c-.02,.16-.04,.33-.07,.49-.07,.23-.09,.48-.03,.71,.01,.24,.08,.47,.21,.67,.5,.85,1.6,1.14,2.45,.64h0c.41-.23,.7-.62,.82-1.07,.22-1.47,.36-2.94,.46-4.43,0-.99-.8-1.79-1.79-1.8-.48,0-.94,.19-1.27,.53-.32,.35-.51,.8-.52,1.27h0Z"/><path class="f" d="M96.46,122.51c8.65,3.69,17.04,7.9,25.32,12.35,3.14,1.63,6.18,3.46,9.09,5.48,1.11,.8,2.17,1.67,3.17,2.6,1.4,1.37,2.54,3,3.35,4.79,2,4.06,2.65,8.31,3.04,12.77,.02,.98,.81,1.77,1.79,1.79,.99,0,1.79-.81,1.79-1.79-.37-4.31-.93-8.43-2.59-12.46-1.39-3.62-3.7-6.81-6.71-9.26-2.7-2.12-5.57-4.01-8.6-5.64-4.22-2.29-8.45-4.54-12.74-6.7-4.97-2.5-10.01-4.84-15.12-7.02-.86-.47-1.93-.18-2.45,.64-.49,.86-.21,1.95,.64,2.45h0Z"/><path class="f" d="M3.96,151.39c.78-5.49,2.94-10.8,7.73-13.91,5.3-3.45,11.21-5.97,17.05-8.33,3.57-1.44,7.16-2.79,10.77-4.11,.94-.28,1.49-1.25,1.25-2.2-.27-.95-1.25-1.51-2.2-1.25-6.73,2.48-13.46,5.02-19.95,8.08-2.9,1.32-5.71,2.83-8.41,4.52-2.44,1.51-4.52,3.54-6.08,5.94-1.93,3.14-3.16,6.66-3.61,10.32-.23,.95,.32,1.91,1.25,2.2,.95,.25,1.93-.3,2.2-1.25Z"/><path class="f" d="M57.76,120.18c1.38-1.04,2.86-1.94,4.41-2.71,.78-.38,1.58-.74,2.37-1.09,.13-.06,.69-.3,.3-.14,.12-.05,.23-.09,.35-.13,.36-.13,.72-.25,1.08-.36,1.38-.42,1.96-.64,3.23,.08,1.12,.65,1.88,1.77,2.07,3.05,.03,1.01,.87,1.81,1.88,1.78,.13,0,.26-.02,.39-.05,.59-.09,1.19,.09,1.63,.5,.46,.33,.83,.76,1.07,1.27,.01,.03,.16,.31,.1,.18s.11,.32,.11,.31c.07,.23,.12,.46,.14,.69,.06,.87-.04,1.75-.29,2.59-.56,2.24,2.9,3.19,3.46,.95,.56-2.26,.72-4.78-.6-6.82-1.45-2.26-3.87-3.7-6.58-3.14l2.27,1.73c-.19-2.09-1.19-4.02-2.78-5.38-1.55-1.36-3.63-1.93-5.66-1.57-1.82,.43-3.58,1.08-5.24,1.93-1.95,.88-3.8,1.97-5.53,3.23-.83,.52-1.11,1.59-.64,2.45,.5,.85,1.6,1.14,2.45,.64h0Z"/><path class="f" d="M63.73,124.94c.86-.44,1.73-.84,2.61-1.23,.51-.23,1.02-.45,1.54-.67l.71-.3c.47-.2-.33,.14,.14-.06l.35-.15c1.58-.66,3.17-1.3,4.77-1.93,.94-.28,1.49-1.25,1.25-2.2-.27-.95-1.25-1.5-2.2-1.25-3.69,1.47-7.43,2.9-10.97,4.71-.85,.5-1.14,1.6-.64,2.45,.51,.84,1.59,1.12,2.45,.64h0Z"/><path class="f" d="M79.24,125.07c-2.19-.96-4.47-.42-6.66,.25-1.02,.31-2.05,.6-3.04,1-1.13,.45-2.28,1-3.36,1.45-.93,.29-1.48,1.25-1.25,2.2,.27,.95,1.25,1.51,2.2,1.25,1.93-.87,3.9-1.64,5.92-2.31,.88-.29,1.77-.53,2.67-.72,.12-.02,.24-.04,.35-.06-.18,.02-.17,.02,.05,0,.22-.02,.45-.04,.68-.03,.1,0,.73,.11,.33,.01,.08,.02,.68,.22,.3,.05,.86,.47,1.93,.19,2.45-.64,.49-.86,.21-1.95-.64-2.45h0Z"/><path class="f" d="M75.07,137.61c.75,.84,1.76,1.42,2.86,1.64,1.58,.4,3.24-.24,4.14-1.59,.85-1.44,1.26-3.1,1.18-4.77,.04-1.47-.19-2.93-.7-4.32-.64-1.53-1.82-2.78-3.32-3.51-.85-.5-1.95-.21-2.45,.64-.5,.85-.21,1.95,.64,2.45,.33,.16,.65,.35,.94,.56-.24-.17-.1-.08,.04,.05,.13,.11,.25,.24,.36,.36,.06,.06,.11,.13,.16,.19l-.13-.16c.1,.05,.22,.33,.27,.42,.1,.14,.18,.29,.23,.45l-.08-.19c.03,.08,.06,.16,.09,.24,.09,.3,.17,.6,.22,.91,.03,.2,.03,.18,0-.06,.01,.09,.02,.19,.03,.28,.02,.2,.03,.41,.04,.61,.05,.7,.06,1.39,.01,2.09-.02,.21-.02,.2,0-.02-.01,.07-.03,.15-.04,.23-.04,.18-.08,.37-.13,.55-.06,.22-.14,.43-.22,.64,.11-.28-.11,.24-.12,.24-.04,.08-.08,.15-.13,.22-.11,.16-.09,.14,.07-.08-.05,.05-.1,.11-.16,.15,.21-.16,.26-.2,.15-.12-.35,.23,.33-.06,.02,0-.48,.11,.3,.03-.02,.02h-.3c-.31,0,.45,.1-.03-.02-.12-.03-.23-.07-.35-.11-.41-.12,.29,.16,0,0-.05-.03-.61-.3-.59-.35,.24,.19,.29,.23,.15,.11-.04-.04-.09-.07-.13-.11-.07-.07-.14-.15-.21-.22-.7-.7-1.83-.7-2.53,0-.67,.71-.67,1.82,0,2.53h0Z"/><path class="f" d="M73.88,135.14c.61,1.93,1.08,3.91,1.39,5.92,.19,1.27,.19,2.56,0,3.84-.06,.3-.13,.6-.22,.89-.04,.12-.07,.25-.12,.37,.02-.05,.08-.22,0,0-.03,.06-.06,.11-.1,.16-.15,.2,.19-.22,0-.01-.16,.18-.32,.36-.49,.53-.77,.75-1.58,1.45-2.44,2.1-.83,.64-1.78,1.17-2.59,1.84-.88,.73-1.4,2.13-1.87,3.15-.58,1.25-1.1,2.52-1.59,3.81-.85,2.21-1.56,4.48-2.38,6.7-.25,.95,.3,1.93,1.25,2.2,.95,.24,1.92-.31,2.2-1.25,1.51-4.14,2.65-8.54,5.02-12.3l-.64,.64c1.59-1.02,3.11-2.16,4.54-3.41,1.43-1.24,2.46-2.44,2.86-4.33,.82-3.99-.3-7.96-1.36-11.79-.61-2.22-4.07-1.28-3.46,.95h0Z"/><path class="f" d="M61,115.65c-1.72-2.8-3.59-5.51-5.59-8.13-2.13-2.96-4.03-6.14-6.35-8.95-2.44-2.95-6.32-6.5-10.48-5.02-2.49,.89-3.39,3.51-2.63,5.92,.68,2.15,2.35,3.92,3.62,5.74,3.21,4.4,5.64,9.32,7.17,14.54,.6,2.22,4.06,1.28,3.46-.95-1.23-4.34-3.08-8.48-5.49-12.29-1.07-1.73-2.23-3.39-3.42-5.03-.58-.8-2.94-3.37-1.8-4.4,.44-.24,.94-.33,1.44-.25,.76,.09,1.47,.41,2.04,.92,1.41,1,2.67,2.21,3.73,3.58,1.98,2.45,3.62,5.24,5.46,7.8,2.05,2.68,3.96,5.46,5.73,8.32,1.15,2,4.25,.2,3.09-1.81h0Z"/><path class="f" d="M46.61,154.21c1.16-1.78,2.46-3.46,3.67-5.21,1.15-1.65,2.28-3.23,2.53-5.27,.37-2.93-.15-5.8-.46-8.71-.31-2.82-.56-5.64-.87-8.45-.2-2.62-.63-5.22-1.26-7.77-.64-2.21-4.1-1.27-3.46,.95,.51,1.96,.86,3.96,1.04,5.98,.32,2.7,.56,5.41,.84,8.11s.8,5.44,.72,8.18c-.02,.61-.07,1.22-.16,1.82-.02,.1-.05,.19-.08,.29,.12-.45-.03,.04-.1,.19-.45,.83-.95,1.62-1.49,2.39-1.31,1.92-2.74,3.75-4.01,5.7-1.27,1.94,1.84,3.73,3.09,1.81h0Z"/><path class="f" d="M.44,150.91c-1.58,17.58,1.18,35.45,6.74,52.14,2.48,7.45,5.56,15.61,12.5,20.03,3.14,2.08,6.89,3.03,10.64,2.7,3.49-.41,6.53-2.26,9.33-4.28,2.92-2.06,5.59-4.44,7.97-7.1,1.72-2.09,3.27-4.32,4.62-6.67,3.15-5.12,6.07-10.39,8.89-15.7,2.62-4.95,5.17-9.95,7.49-15.05,.81-1.78,1.61-3.58,2.28-5.43,.37-1.03,.86-2.27,.55-3.37-.45-1.58-2.2-2.72-3.45-3.61-2.02-1.4-4.11-2.69-6.27-3.87-5.08-2.88-10.3-5.53-15.5-8.2-1.02-.52-2.04-1.05-3.06-1.58-.86-.47-1.94-.19-2.45,.64-2.71,4.08-5.15,8.33-7.56,12.59-2.41,4.26-4.8,8.55-6.91,12.96-.47,.86-.19,1.94,.64,2.45,.86,.49,1.95,.2,2.45-.64,2.11-4.41,4.5-8.7,6.91-12.96,2.41-4.26,4.85-8.51,7.56-12.59l-2.45,.64c4.68,2.44,9.4,4.8,14.05,7.29,2.46,1.32,4.9,2.66,7.29,4.1,.96,.58,1.9,1.17,2.83,1.79,.39,.26,.77,.53,1.14,.81,.07,.06,.15,.11,.22,.17-.04-.03-.29-.23-.04-.03,.16,.13,.32,.26,.48,.4,.23,.21,.44,.43,.66,.65,.31,.3-.17-.25-.03-.04,.19,.27,.1,.29,.02-.06,.1,.4,0-.6-.03-.08,.03-.61,.02-.15-.06,.17-.15,.55-.33,1.09-.53,1.61-.13,.35-.27,.69-.4,1.04-.07,.17-.14,.34-.21,.51-.04,.09-.07,.18-.11,.26-.01,.04-.03,.08-.05,.12-1.95,4.55-4.17,8.99-6.43,13.38-2.71,5.27-5.53,10.48-8.51,15.59-1.32,2.26-2.67,4.5-4.08,6.7-1.49,2.32-3.27,4.44-5.29,6.32-2.38,2.26-5.02,4.24-7.86,5.89-2.63,1.61-5.81,2.06-8.79,1.24-7.24-1.97-11.07-9-13.52-15.54-5.86-15.63-9.03-32.53-8.48-49.24,.07-2.06,.2-4.11,.38-6.16,0-.99-.81-1.79-1.79-1.79-.98,.02-1.77,.81-1.79,1.79Z"/><path class="f" d="M72.91,73.53c.2,.6,.39,1.21,.57,1.83,.21,.64,.38,1.29,.49,1.95l-.06-.48c.01,.13,.01,.26,0,.38l.06-.48c-.01,.06-.02,.12-.04,.17l.18-.43c-.02,.05-.05,.1-.08,.15l.28-.36s-.05,.06-.08,.08l.36-.28c-.13,.1-.27,.18-.42,.24l.43-.18c-.14,.06-.29,.1-.45,.12l.48-.06c-.28,0-.57,0-.85-.05-.99,0-1.79,.8-1.79,1.79h0c.02,.98,.81,1.77,1.79,1.79,.23,.03,.47,.05,.7,.06,.6-.02,1.19-.19,1.72-.49,.63-.33,1.08-.92,1.24-1.61,.1-.57,.08-1.16-.07-1.72-.27-1.14-.61-2.27-.98-3.39-.13-.45-.43-.83-.82-1.07-.85-.5-1.95-.21-2.45,.64-.24,.42-.31,.92-.18,1.38h0Z"/><path class="f" d="M52.51,64.64c-.48,2,.21,6.49,3.95,6.64,4.91-.35,4.82-5.83,3-8.28-1.49-2.01-5.53-2.63-6.95,1.65Z"/><path class="f" d="M91.88,62.1c.73,1.92,.63,6.47-3.07,7.09-4.92,.29-5.53-5.15-4.04-7.83,1.22-2.19,5.15-3.32,7.11,.74Z"/><path class="f" d="M70.1,93.45c.68-.43,1.41-.8,2.16-1.11,.51-.19,1.03-.35,1.56-.48,.39-.1,.79-.17,1.19-.21,1.06-.09,2.12-.12,3.18-.09,.44,.01,.88,.04,1.32,.08,.11,.01,.22,.02,.34,.04-.21-.03-.21-.03-.01,0,.18,.03,.36,.06,.54,.1,.95,.26,1.94-.3,2.2-1.25,.26-.95-.3-1.94-1.25-2.2-2.15-.43-4.35-.51-6.52-.24-2.31,.25-4.53,1.02-6.5,2.26-.85,.5-1.14,1.6-.64,2.45,.5,.85,1.6,1.14,2.45,.64h0Z"/></g><path class="d" d="M158.3,33.66c-1.28-.27-1.38-.69-1.01-2.48,1.38-6.5,6.05-9.38,11-11.99,2.56-1.39,4.53-2.84,5-5.07,.66-3.12-1.51-5.78-6.35-6.81-4.21-.89-8.26,.65-10.84,2.77-.65,.53-1.11,.83-1.49,.75s-.7-.48-1.15-1.18l-2.01-3.09c-.45-.7-.63-1.13-.53-1.58,.08-.38,.42-.71,1.05-1.18,4.41-3.2,10.32-4.68,16.95-3.27,9.12,1.93,13.47,8.11,12.19,14.17-1.16,5.48-4.83,7.71-9.91,10.29-3.45,1.8-6.23,3.94-7.08,7.96-.32,1.53-.58,1.81-1.79,1.55l-4.02-.85Zm5.06,10.4c-.55,2.61-2.7,4.56-5.95,3.87-2.49-.53-4.03-2.65-3.51-5.14,.59-2.81,2.87-4.72,5.99-4.06,2.49,.53,4.02,2.72,3.47,5.33Z"/></g></g></g></svg>