<svg xmlns="http://www.w3.org/2000/svg" viewBox="0 0 201.87 250.41"><defs><style>.cls-1{fill:#fff;}.cls-2{fill:#f8d610;}</style></defs><g id="レイヤー_2" data-name="レイヤー 2"><g id="PC文字とイラスト"><g id="ビジネスマン_考えるポーズ" data-name="ビジネスマン　考えるポーズ"><path id="白地" class="cls-1" d="M48.57,33.42,46.73,44.69,46.12,56A36.36,36.36,0,0,0,45,62.83c0,2.57-1.22,6.25,0,13s1.6,10.29,2.33,12.62,1.35,3.31,1,3.68-2.33-.62-3.43-.37-3.48,1-3.32,1.69a14,14,0,0,0,2.75,3.77c.63.48,13.84,12.43,13.84,12.43s2.36,3.54,2.21,3.93a28.89,28.89,0,0,1-2.84,2.67l-6.29.48-16.43,3.94-2.31,1.91-10,20A353.73,353.73,0,0,0,7.19,185C1.34,206.09,1,212.41,1.45,215.93s2.93,11.59,6.21,14.4,11.61,5.47,14.88,7.19,23.27,4.87,23.27,4.87l4.72-1.28a13.24,13.24,0,0,0,4.57,2.34c2.23.47,4.81.82,5.16.24a41.43,41.43,0,0,0,1.17-4.92l3.28-.47,7.85,1.64s2.34,2.69,4.45,3.4,6.32.58,8.55.35a49.73,49.73,0,0,1,6.21,0s-.59,1.64,2,2.93,6.32,1.64,8.67.47,1.52-2.93,4.21-2.7,3,1.29,6,2,1.17,1.29,7.5,1.64,11.24.47,17.33-3,6.56-1.76,9.26-6.91a132.94,132.94,0,0,0,7.84-20.74c1.29-4.92,5.51-31,6.56-38.07s1.76-32.33,1.18-37.25-3.17-13.59-4.34-15.23a14.47,14.47,0,0,0-5-4c-1.52-.7-22.84-7.38-22.84-7.38l-7-4.22a77.06,77.06,0,0,1-6.91-4.45c-1.29-1.17-3-2.34-3.16-4.68s-1.64-.71,1.64-5.39,2.81-8.32,7.15-10.66,7.38-2.11,9.48-4.22,3.87-.12,3.52-7.26,1.76-7.38-1.41-9.49-8.31-2.58-11.24.24-1.29,4.45-4.57,5.38-3.75.12-4.22-2.22-.82-21.32-.82-21.32a39.53,39.53,0,0,1-7.61-4.22c-3-2.34-12.07-12.77-13.12-16.28s-2.23-2.23-2.23-2.23a72.83,72.83,0,0,1-12.65,7.5,67.48,67.48,0,0,1-9.84,3.63s4.8-10.42,4-11.24a2.1,2.1,0,0,0-2.57-.12c-.35.35-1.17,1-5.74,5.15S50.65,36.7,50.65,36.7Z"/><g id="塗り"><g id="スーツ"><path class="cls-1" d="M114.37,110.81l-4.89,4.83L91.93,142.13l-.12.93L95,149l2-1.25,3.21.3,4.89,7.69-5.93,3.43s-7.57,4.3-10.93,5.92-11.3,3.57-12.58,4-.88,1.81-.48,3.69a64.23,64.23,0,0,1,.58,7.15l-9.45,33.24,3.76,1.28a6.55,6.55,0,0,0,3.61,3.34c2.48.77,16.1-2.76,16.34-2.76S96,231.74,96,231.74l4.77,6.91a23.18,23.18,0,0,0,7.09,6.14c5.72,3.4,6.08,3.11,10.49,3.46a20.46,20.46,0,0,0,12.55-2.56c4.09-2.4,7.22-3.76,8-5.3a107.35,107.35,0,0,0,10.21-29.1c2.72-15,5.69-44.63,5.69-44.63s-.49-21.12-1.23-26.14a34.76,34.76,0,0,0-3.36-10.73c-.84-1.45-2.52-2.8-5.68-4.82s-12.73-3.82-12.73-3.82l-7.16-2.35-6-5.16Z"/><path class="cls-1" d="M59,114.53l-13.7,2.89-10.46,3.24-2.53,3.43s-3.43,4.51-3.43,5-9.91,20.92-9.91,20.92S7.39,183.6,4.69,194.24.9,204.52,1.44,212.81s.72,10.64,3.61,13.89,7,8.3,17.49,10.82,23.27,4.87,23.27,4.87L50,241s-1.8-2.35-.18-9.74S55,217.68,57.71,214.8s5-3.07,5-3.07-2.46-2.15-3.88-3.52a16.26,16.26,0,0,0-3.64-2.43l.66-17.46,4.87-46.41-9.36-9.36a6.3,6.3,0,0,1,0-5.65C53,124.17,59,114.53,59,114.53Z"/></g><path id="ネクタイ" class="cls-2" d="M66.17,151.94C53.78,178.51,56,186.43,55.08,204.62c-.66.51,1.92,1.6,3.61,3,1,3.11,6,6.78,5.28,2.75,2.23-20.41,7.32-29.76,5.29-47.85C68.67,157.24,68.62,159.73,66.17,151.94Z"/></g><g id="アウトライン"><path d="M157.75,125.75c-5.59-1.12,2.45,5.12,2.16,18.14,1.27,16.34.43,49.68-11.32,85.81-4.26,11.25-12.23,16.88-27.54,17-28-5.34-23.11-22.31-45.09-76,9.3-1,21.52-7.43,29.45-13.55,9.9,14.15,18,29.17,28.35,43,2.42,2.32,2.34,8,6.22,7.32,4.58-1.44-10.35-18.61-14.66-26.48-6.21-9.49-11.5-19.69-19.78-27.57-1.52-1.88-4.09-8.3-6.46-5.79-.64-1.39-1.51-1.55-2.93-.92-.87-1.66-1.69-3.31-2.44-5l.32.05c2.06.81,4.28-7.85,14-19.59.26-1.64,10.22-11.25,8.41-13.52C113.2,107.42,99,128.57,96.2,132.3c-.12-2.42-5.33-13.92-7.93-11-.08-1.39-.1-2.78-.06-4.2-1-4.31,8.25-9.93,13.41-14.93.47-.58.11-1.9-1.12-3,1.9-.34,5.29-2.27,8.67-4.65.08.49.19,1,.28,1.54q.47,2.67,1.12,5.29C106,105,101.8,108.76,97.31,112.4c-1.69,1.69-8.64,5-6.67,7.61a.42.42,0,0,0,.29.31,3.46,3.46,0,0,0,.54.41c4.91-2.24,13.91-10.86,19.72-17.25,1.23,2.21,2.4,4.34,4.45,4.12,3,3.37,6.51,3.55,9.59,6.87.49.06.92.09,1.3.1a1.33,1.33,0,0,0,1.25-.07c1.14-.22,1.08-.9.34-1.79a1.77,1.77,0,0,0,0-.21l-.41-.27a37.3,37.3,0,0,0-9.67-6.06c-1.64.26-2.65-2.18-3.88-4,1.69-2,3.8-6.49,7-10.08,5.22-9,12.39-7.37,15.07-15.82a20.48,20.48,0,0,0-.39-6.79c4-1.89,2.94-7.49,5-11,5.31-20.45.95-44.4-23.47-48.44-2.23-8.16-14-10.3-21.07-10C77.62-.66,54.82,11.5,47.45,29.48c-.48,2.85-2.57,7.68-1.24,9.77a63.74,63.74,0,0,0-1.59,16c-.77,4.72-3.78,25.71,1.76,36a14.38,14.38,0,0,0-3.7.11c-8.69,2.16,11.7,15.5,15.49,20.73,1.2,2.33-2.59,3.58-3.55,5.87-7.75,13-8.22,13,5.17,25.19,1,1.51,3,.95,3.9,1.59,1.94,2.53,4.75,3.47,6.4,4.76,1.25,3.07,1.1,7.13,3.55,8.77l.4,0c-3.44,1.11-3.22,1.22.36,9.57-3.57,2.09,1,5.81.2,9.05-2.42,8.7-6.22,18.88-8.18,28.47,0,.09,0,.18,0,.26-.46,1.52-.86,3.06-1.18,4.62a2,2,0,0,0,0,.59c-1.31-.3-2.2-.59-2-1.09-.09-1.21-2.54-2.62-6-4,0-.09,0-.17,0-.27,1.23-12.3-.55-21.17,2.75-32.11,1.28-6.92,5.71-15.33,7.92-23-.88-2.5-5.94,6.4-8.15,12.2l0-.23c.18-1.7.33-3.26.46-4.7.79-5.73,2.11-13.87-.35-12.38-.64.63-1.2,2.27-1.75,5.11-2.33,14.48-4.77,39.86-4.32,54.06-2.38-.84-5-1.66-7.53-2.42a143.56,143.56,0,0,0-.64-20.38c-.77-6.2-2.63-13.87-3.4-18.9,1.72-3,5.73-4.95,7.81-8.26.23-.77.28-1.11,0-1.61-3.46-.25-1.9-.49-5.92-2.23-4.13-1.31-.53,1,4.6-12.47.54-6.33-7.69,8.76-10.28,12.51-1,2.1,3.49,1.67,6.46,4.36-9.79,9.07-3.88-.88-1.84,46-5.41-1.55-10-2.72-10.76-3.07-3.28-.55-13.7-5.62-11.34,0,67.68,22.67,23.84.6,27.13,43C31.4,236,11.52,237.52,5,222.24c-6.44-18.07,14-64.83,15.37-70.37,4.46-13,15.76-28.08,13.44-29.92,5.34-.16,9.45-2.46,15-3.5,6.8-.58,8.24-4.32,4.36-4.48-5.61,1.37-22.13,4.08-19.94,7.54-2.8-1.41-9.23,13.7-13.29,21.65-8.77,21.45-19.51,48-20,72.26-.21,13,8.88,23.49,40,27.19,2.7.44,7.36,2.22,8.63-.07.23.59.09,1.16,1.66,1.43,13.11,3.18,11.91,1.23,12.4-5.16,1,2.44,6.27,2.29,8.92,2.39l.34.11a15.37,15.37,0,0,0,5.39,3.36c3.94.93,9.1.67,12.57.56,2.64,1.85,6,4,9,3.32,2.72.49,7.41-.9,8.06-2.93a34.54,34.54,0,0,0,18.36,4.77c7.66-1.72,7.61,0,16-5.52C156,250,174.54,138.72,157.75,125.75ZM99,148.08c-.75,2,3.17,5.25,3.17,6.83a4.18,4.18,0,0,1-.47.68l-.31.12c-7.1,5.6-14.45,8.23-23.18,11.25l-.12,0a3.18,3.18,0,0,1-.71,0c-.29-.38-.08-1.4-.29-1.74a18.77,18.77,0,0,1-2.17-4.94l.1,0C78.41,161.12,94.31,153.09,99,148.08Zm-4.36-12.77c-.45,1.14-1.52,2.75-2,4.09a56.57,56.57,0,0,1-4.3-16.71C91.15,126.88,92,131.9,94.63,135.31ZM50.18,90.77c-1.87-4.45-5.78-13.71-2-34.9v-.06a95.62,95.62,0,0,1,.49-10.51c.15-1.83.3-3.69.42-5.55,5.45-2.62,10.33-4.45,14-8.1,1-.76,7.48-8.22,6-5-2,6.62-8.7,12.57-1,11.25,6.57-3.3,13.3-5.4,19.11-9.92C88,26.73,90.49,25.18,90,27c3,10.44,10.89,17.13,20.33,22,.7,4.36.1,9.5.72,13.43-3.26,15.06,5.1,16.68,11.18,6.6,4.91-5.75,12.76-.38,10.76,6.91-2.4,4.88-8.6,8.28-13.2,8.19a6.28,6.28,0,0,0-.69.4c-.15-.86-.43-1.66-1.16-1.66s-1.65.88-3.28,2.48c-.93.91-2.08,2-3.5,3.29A34.08,34.08,0,0,1,103.87,94c-2.06,1.2-3.69,2.16-5,4.23-2.3-1-6-1.07-11.16,1.67-4.52,1.85-10.88,6.87-16.15,6.24-5.39-2.58-12.66-10.78-20.81-13.8C50.64,91.85,50.43,91.35,50.18,90.77ZM74.31,148.4c.28-1.38-1-1.18-1.87-2a79.5,79.5,0,0,1-19.87-15.68c-.41-1.52,6.56-14.63,9.74-16.56,1-5.25-12.68-14.9-17-19.17-6.17-4.34,5.61-.13,11.5,5.18,6.34,3,10,10.4,17.68,9.07,3.71.61,19.54-10.9,23.25-7.64-5,2.8-9.16,5.27-12.54,10.52-1,5.32-1.58,12.7.24,19.51.07.67,4.25,14.72,7.92,16.69A90.63,90.63,0,0,1,80,155.79a30.75,30.75,0,0,1-4.36,1.9C77.66,156,74.17,151.08,74.31,148.4Zm19.86,96.13c4.74-1.86,3.18-5-1.37-3.89-5.09,1.32-8.69,1.19-13.42.73-4.63-1.37-12.89-5.5-16.66-3.48a27.71,27.71,0,0,1,1.12-5.61c.48-5.84,7.09-12,5.82-13.92-5.47-4.3-12.35,18.77-10.71,23.54-2.07.12-5.66-.29-7.33-1.75-2.27-12.62,9.19-29.79,12.77-26.3,2.5,1,9.29,3.94,7.62-.57a6.89,6.89,0,0,0-3.5-1.77,2.85,2.85,0,0,0,.29-.94,19.46,19.46,0,0,1,.69-2.91c1.48-3,2.9-12.57,7.29-26.56,1.91,6.93,4.06,14.54,6.39,20.87-1.87,3.51-6,7.12-5.4,10.92,2.61,4,4.48-5,5.93-6.17.41-2.86,1.94,1.51,4.07,7.92-2-.94-7.14.77-9,.91-7.45-.26-9.16,3.26-1.27,3.17,3.78-.38,9.68-1.2,10.86-2.2,2.33,7,5.26,15.67,8.22,20.2a32.42,32.42,0,0,0,7.23,6.95C102.14,244.27,100.91,245.83,94.17,244.53Z"/><path d="M121,145.8a8,8,0,0,0,1.27-.36c2.58.63,1.89-1,2.72-3,1.92-9.73,2.63-16.74,2.14-25.25-3.29-3.13-2.72,20.26-5.77,25.81-14.21,2.77-17.35,2.53-1.24,15.65-2.24,1.25-8.09,5.12-3.62,6,3.35-.94,10.35-5.86,5.24-8.93-.94-1.62-8.53-6.17-8.14-7.44C116.1,147.25,118.73,146.76,121,145.8Z"/><path d="M127.75,178.93c1.67,0,1.68-1.9,1.84-2.73,2.38-11.73,5.39-23.43,10.94-34.61,2.21-4.74,7.09-7.69,9.28-11.49a2,2,0,0,0-.35-.08,1.36,1.36,0,0,0-.25-.2l-.43.13c-8.57-.22-17.89,22.78-20,33.45C128.66,166,123.21,178.5,127.75,178.93Z"/><path d="M33.45,144.52a.51.51,0,0,0-.31-.11c-.38,0-1.51,0-3.14,14.6a246.33,246.33,0,0,0-1.59,24.84c0,8.32.93,9.39,1.75,9.39a.84.84,0,0,0,.46-.15c1.28-.1,1.45-2.69,1.55-6.33,0-1,0-1.92.13-2.42v-.06a231.45,231.45,0,0,1,1.76-35.13C34.46,146.26,34.27,144.87,33.45,144.52Z"/><path d="M128.53,114.68c-2.31,2.68,14.53,7.12,23.06,9.83.29.11.59.2.87.28.62.21,1.19.4,1.68.58,6.17-2.65-6.61-6.17-10-6.93-1.09-.33-2.19-.66-3.29-1C137.15,116,131.71,113.43,128.53,114.68Z"/><path d="M66.37,85.74a7.93,7.93,0,0,0-1.29-.11c-2,0-3.7.75-4,1.74a1,1,0,0,0,.69,1.26l.06,0,.14,0a3.78,3.78,0,0,0,.6,0,9.06,9.06,0,0,0,1.48-.16,9.42,9.42,0,0,1,1.36-.15,2.19,2.19,0,0,1,.46,0,1.73,1.73,0,0,1,.93.45l.12.11.16,0a2.44,2.44,0,0,1,1.12.71,7.88,7.88,0,0,0,.78.64l.1.08.25,0a4,4,0,0,0,.66.06A1.34,1.34,0,0,0,71.27,90c.3-.51.12-1.17-.56-2A8.08,8.08,0,0,0,66.37,85.74Z"/><path d="M63.08,77.05h.1l.27,0h.35a3,3,0,0,0,.77-.09c1-.25,1-.78.91-1a1.07,1.07,0,0,0-.52-.55l0,0a4.88,4.88,0,0,0-.58-.31l-.4-.17a3.17,3.17,0,0,1-.41-.17,1.41,1.41,0,0,1-.49-.44.59.59,0,0,1-.11-.28,1.33,1.33,0,0,1,.27-.53c.16-.24.31-.5.46-.77a2,2,0,0,0,.39-1.9,1.22,1.22,0,0,0-1-.71h-.08a1,1,0,0,0-.86.49l-.6.73L61,72c-.13.17-.26.35-.39.55s-.19.28-.32.46a3.19,3.19,0,0,0-.58,1.08,2,2,0,0,0,.51,1.86,3.43,3.43,0,0,0,1.83,1A7.59,7.59,0,0,0,63.08,77.05Z"/><path d="M58.44,58.8a2.9,2.9,0,0,0-2.08-1.74,2.77,2.77,0,0,0-2.75.64,2.84,2.84,0,0,0-.4,2.89l0,.07,0,.06a4,4,0,0,0,2,1.29h0c1.41.36,2.64-.38,3.29-2l0-.07-.11-1.13Z"/><path d="M86.2,63.12A3.55,3.55,0,0,0,80.82,62a2.86,2.86,0,0,0-.45,3l0,.08,0,.06a4.45,4.45,0,0,0,2.19,1.35h0a3.09,3.09,0,0,0,3.67-2.06l0-.08-.12-1.19Z"/><path d="M87.77,58.17a3.13,3.13,0,0,0,2.94-.09c1.87-3.53-12.09-7-10.47-2.33C82.31,57.08,85.52,57.06,87.77,58.17Z"/><path d="M51.33,52.19a2.06,2.06,0,0,0,2.09,1c1.91-.36,4.23.63,6.07,0C61.87,49.24,50.89,48.27,51.33,52.19Z"/></g></g><g id="クエスチョンマーク"><path d="M168,57.68c3.12-3.55.53-9-3.46-7.35C160.32,52.72,162.39,60,168,57.68Z"/><path d="M197.18,39.75c18.21-14.37-22.35-33.51-24.28-18.44.73,5.32,6.71-.62,9.84.25,5,.42,12,4.37,12.79,8.66.23,9.32-14.55,5.83-19.11,7.27-4.47.93-11.61,7.82-6.92,10.9a2.42,2.42,0,0,0,3,.37C177.83,36.86,189.44,46.39,197.18,39.75Z"/></g></g></g></svg>