<?xml version="1.0" encoding="UTF-8"?><svg xmlns="http://www.w3.org/2000/svg" viewBox="0 0 217.33 232.62"><defs><style>.d{fill:#30ae35;}.d,.e,.f{stroke:#211815;stroke-linecap:round;stroke-linejoin:round;stroke-width:2.06px;}.e{fill:#fff;}.f{fill:rgba(48,174,53,.5);}</style></defs><g id="a"/><g id="b"><g id="c"><g><g><polygon class="d" points="152.42 11.64 152.42 164.17 173.92 185.33 173.92 32.8 152.42 11.64"/><polygon class="d" points="173.92 32.8 173.92 185.33 173.92 185.33 216.3 172.14 216.3 20.79 173.92 32.8"/><line class="f" x1="152.42" y1="124.73" x2="173.92" y2="145.88"/><line class="d" x1="173.92" y1="145.88" x2="216.3" y2="132.7"/><line class="f" x1="152.42" y1="85.28" x2="173.92" y2="106.44"/><line class="d" x1="173.92" y1="106.44" x2="216.3" y2="93.26"/><line class="f" x1="152.42" y1="45.84" x2="173.92" y2="67"/><line class="d" x1="173.92" y1="67" x2="216.3" y2="53.82"/><polygon class="e" points="216.3 20.79 173.92 32.8 152.42 11.64 193.86 1.03 216.3 20.79"/></g><g><polygon class="d" points="102.17 68.5 102.17 179.21 123.68 200.36 123.68 89.66 102.17 68.5"/><polygon class="d" points="123.68 89.66 123.68 200.36 123.68 200.36 166.06 187.18 166.06 77.65 123.68 89.66"/><line class="f" x1="102.17" y1="139.77" x2="123.68" y2="160.92"/><line class="d" x1="123.68" y1="160.92" x2="166.06" y2="147.74"/><line class="f" x1="102.17" y1="100.32" x2="123.68" y2="121.48"/><line class="d" x1="123.68" y1="121.48" x2="166.06" y2="108.3"/><polygon class="e" points="166.06 77.65 123.68 89.66 102.17 68.5 143.62 57.89 166.06 77.65"/></g><g><polygon class="d" points="51.93 121.75 51.93 194.25 73.43 215.4 73.43 142.9 51.93 121.75"/><polygon class="d" points="73.43 142.9 73.43 215.4 73.43 215.4 115.82 202.22 115.82 130.9 73.43 142.9"/><line class="f" x1="51.93" y1="154.8" x2="73.43" y2="175.96"/><line class="d" x1="73.43" y1="175.96" x2="115.82" y2="162.78"/><polygon class="e" points="115.82 130.9 73.43 142.9 51.93 121.75 93.38 111.14 115.82 130.9"/></g><g><polygon class="d" points="1.03 172.71 1.03 210.44 22.53 231.59 22.53 193.86 1.03 172.71"/><polygon class="d" points="22.53 193.86 22.53 231.59 22.53 231.59 64.91 218.41 64.91 181.86 22.53 193.86"/><polygon class="e" points="64.91 181.86 22.53 193.86 1.03 172.71 42.48 162.1 64.91 181.86"/></g></g></g></g></svg>