<svg xmlns="http://www.w3.org/2000/svg" viewBox="0 0 93.86 93.86"><defs><style>.cls-1{fill:#f8d610;}</style></defs><g id="レイヤー_2" data-name="レイヤー 2"><g id="PC文字とイラスト"><circle class="cls-1" cx="46.93" cy="46.93" r="46.93"/><path d="M39.18,58c-1.6,0-2,.12-2.59,1.47-.86,2-1.66,4.12-2.7,7.07-.55,1.47-.86,1.72-2.46,1.72h-4.3c-1,0-1.41-.13-1.41-.62a2.58,2.58,0,0,1,.37-1c1.9-4.3,3.25-7.37,4.54-10.39L39.42,35.4c1.11-2.64,2.4-5.59,3.69-8.91.55-1.47.86-1.72,2.46-1.72h2.64c1.6,0,1.9.25,2.46,1.72,1.29,3.32,2.51,6.27,3.62,8.85l8.85,20.77c1.35,3.2,2.7,6.27,4.61,10.51a2.75,2.75,0,0,1,.37,1c0,.49-.43.62-1.42.62H62c-1.6,0-1.9-.25-2.46-1.72-1-3-1.84-5-2.7-7.07-.55-1.35-.92-1.47-2.58-1.47Zm1.1-7.62a2.82,2.82,0,0,0-.24,1c0,.55.43.68,1.41.68H52c1,0,1.41-.13,1.41-.68a2.68,2.68,0,0,0-.25-1L47.41,36.33c-.25-.62-.43-1-.68-1s-.43.31-.67,1Z"/></g></g></svg>