<svg xmlns="http://www.w3.org/2000/svg" viewBox="0 0 93.86 93.86"><defs><style>.cls-1{fill:#fff;}</style></defs><g id="レイヤー_2" data-name="レイヤー 2"><g id="PC文字とイラスト"><circle class="cls-1" cx="46.93" cy="46.93" r="46.93"/><path d="M71.08,76.3c0,1.42-.25,1.72-1.72,1.79-.61.06-1.23.06-1.84.06C57.25,78.09,50,74.83,45.15,70A4.11,4.11,0,0,0,42,68.5c-11.91-1-18.74-10.81-18.74-21.57,0-13.58,9.16-22.43,21.94-22.43,13.4,0,21.08,10.08,21.08,21.57,0,10.2-5.29,17.33-12.66,20.65-.68.31-1,.49-1,.8s.3.55.86.92a23.92,23.92,0,0,0,13.21,3.5c.86,0,1.72,0,2.52-.06,1.59-.12,1.84.12,1.84,1.72ZM30.65,47c0,8.3,5,15.06,13.82,15.06,7.93,0,14.44-6,14.44-15.61,0-8.23-5.16-14.87-13.88-14.87S30.65,38.15,30.65,47Z"/></g></g></svg>