<svg xmlns="http://www.w3.org/2000/svg" xmlns:xlink="http://www.w3.org/1999/xlink" width="162.576" height="115.301" viewBox="0 0 162.576 115.301"><defs><clipPath id="a"><rect width="162.576" height="115.3" fill="#62a3c1"/></clipPath></defs><g clip-path="url(#a)"><path d="M162.468,111.98c-2.046-26.719-6.846-44.859-14.545-54.708-.681.547-1.371,1.076-2.092,1.565s-1.5.955-2.277,1.4a33.515,33.515,0,0,1-26.763,2.888c-.838-.262-1.653-.576-2.462-.9s-1.618-.7-2.4-1.095c-1.683,5.559-1.723,12.47-1.153,19.548L93.411,75.49a2.6,2.6,0,0,0-1.476,0L79.268,79.271l-17.338-6.5a2.585,2.585,0,0,0-1.561-.079l-.346.09a35.465,35.465,0,0,1-.716-3.83l29.714-6.229A2.576,2.576,0,0,0,91.067,60.2V2.579a2.582,2.582,0,0,0-.951-2,2.554,2.554,0,0,0-2.154-.52L2.049,18.066A2.577,2.577,0,0,0,0,20.588V78.205a2.58,2.58,0,0,0,2.579,2.579,2.362,2.362,0,0,0,.53-.059l32.907-6.894V79.1L25.974,81.745a2.577,2.577,0,0,0-.018,4.98l14.85,4.025-3.426,1.025a2.577,2.577,0,0,0,0,4.939l20.333,6.069a2.568,2.568,0,0,0,1.473,0l24.886-7.428a7.568,7.568,0,0,0,1.086,1.938c11.73,14.739,14.885,15.441,16.974,15.9a11.063,11.063,0,0,0,2.428.332c2.445,0,4.975-1.339,9.233-6.753a26.426,26.426,0,0,1-.092,5.536,2.575,2.575,0,0,0,2.543,2.986h43.695a.267.267,0,0,0,.061,0,2.576,2.576,0,0,0,2.576-2.576,2.512,2.512,0,0,0-.108-.742M5.158,22.68,85.916,5.754V58.1L58.9,63.769l-2.544.529-2.579.542-.038.009-7.955,1.667-2.564.535-2.576.542-2.057.431-2.576.542L5.158,75.033ZM55.01,74.1c.21.838.466,1.659.746,2.468a21.087,21.087,0,0,0,1,2.4c.1.19.175.393.273.579l-7.8,1.953-.064.015c-.108-.136-.195-.32-.3-.471l-.009-.018c-.116-.169-.23-.337-.337-.529a12.3,12.3,0,0,1-.582-1.2c-.076-.177-.157-.34-.23-.526a.811.811,0,0,1-.032-.076c-.23-.6-.437-1.251-.622-1.927-.021-.081-.035-.169-.059-.256s-.044-.193-.067-.285c-.136-.548-.264-1.106-.375-1.683-.046-.25-.088-.506-.131-.763-.09-.518-.172-1.036-.239-1.56-.02-.169-.041-.341-.061-.512l8.1-1.694a39.659,39.659,0,0,0,.78,4.087m-4.762,19.21,4.689-1.4L61.5,89.953l2.827-.844,7.594-2.264,4.29-1.28,6.957-2.079,2.515-.751,6.992-2.084L104,84.032l-8.007,2.387a7.7,7.7,0,0,0-12.1,3.616L58.451,97.625,47.129,94.243Zm53.084,1.531c-1.118-1.237-2.355-2.672-3.6-4.163L107.7,88.3c-1.572,2.44-3.076,4.7-4.363,6.538" transform="translate(0 0)" fill="#62a3c1"/><path d="M144.82,56.215c.8.4,1.624.753,2.468,1.071a26.5,26.5,0,0,0,20.461-.658,26.857,26.857,0,1,0-22.93-.413" transform="translate(-29.816 -1.224)" fill="#62a3c1"/></g></svg>