<svg xmlns="http://www.w3.org/2000/svg" xmlns:xlink="http://www.w3.org/1999/xlink" width="144.897" height="113.93" viewBox="0 0 144.897 113.93"><defs><clipPath id="a"><rect width="144.897" height="113.93" fill="#62a3c1"/></clipPath></defs><g clip-path="url(#a)"><path d="M2.294,113.93H142.6a2.294,2.294,0,0,0,2.294-2.294V2.294A2.294,2.294,0,0,0,142.6,0H2.294A2.294,2.294,0,0,0,0,2.294V111.636a2.294,2.294,0,0,0,2.294,2.294M140.31,15.484H4.588V4.588H140.31Zm0,93.858H4.588V20.072H140.31Z" transform="translate(0 0)" fill="#62a3c1"/><path d="M30.419,30.213a2.294,2.294,0,1,0-2.294-2.294,2.294,2.294,0,0,0,2.294,2.294" transform="translate(-19.523 -17.788)" fill="#62a3c1"/><path d="M58.769,30.213a2.294,2.294,0,1,0-2.294-2.294,2.295,2.295,0,0,0,2.294,2.294" transform="translate(-39.202 -17.788)" fill="#62a3c1"/><path d="M87.118,30.213a2.294,2.294,0,1,0-2.294-2.294,2.294,2.294,0,0,0,2.294,2.294" transform="translate(-58.88 -17.788)" fill="#62a3c1"/><path d="M118.4,31.184h97.873a1.529,1.529,0,0,0,0-3.059H118.4a1.529,1.529,0,0,0,0,3.059" transform="translate(-81.129 -19.523)" fill="#62a3c1"/><path d="M26.073,159.772a1.534,1.534,0,0,0,1.081.448H153.318a1.53,1.53,0,0,0,1.529-1.529V78.4a1.53,1.53,0,0,0-1.529-1.529H27.154A1.53,1.53,0,0,0,25.625,78.4V158.69a1.542,1.542,0,0,0,.448,1.081m2.61-79.838H151.789v77.228H28.684Z" transform="translate(-17.788 -53.363)" fill="#62a3c1"/><path d="M89.983,108.125h-32.5a1.53,1.53,0,0,0-1.529,1.529V143.3a1.53,1.53,0,0,0,1.529,1.529h32.5a1.53,1.53,0,0,0,1.529-1.529V109.654a1.53,1.53,0,0,0-1.529-1.529m-30.968,3.059H88.454v30.585H59.016Z" transform="translate(-38.842 -75.055)" fill="#62a3c1"/><path d="M197.154,116.184h66.14a1.529,1.529,0,1,0,0-3.059h-66.14a1.529,1.529,0,0,0,0,3.059" transform="translate(-135.793 -78.525)" fill="#62a3c1"/><path d="M263.295,141.47h-66.14a1.529,1.529,0,0,0,0,3.059h66.14a1.529,1.529,0,1,0,0-3.059" transform="translate(-135.793 -98.201)" fill="#62a3c1"/><path d="M263.295,169.815h-66.14a1.529,1.529,0,1,0,0,3.058h66.14a1.529,1.529,0,1,0,0-3.058" transform="translate(-135.793 -117.877)" fill="#62a3c1"/><path d="M263.295,198.159h-66.14a1.529,1.529,0,0,0,0,3.059h66.14a1.529,1.529,0,1,0,0-3.059" transform="translate(-135.793 -137.552)" fill="#62a3c1"/><path d="M263.295,226.5h-66.14a1.529,1.529,0,0,0,0,3.059h66.14a1.529,1.529,0,1,0,0-3.059" transform="translate(-135.793 -157.227)" fill="#62a3c1"/><path d="M263.295,254.849h-66.14a1.529,1.529,0,0,0,0,3.059h66.14a1.529,1.529,0,1,0,0-3.059" transform="translate(-135.793 -176.903)" fill="#62a3c1"/></g></svg>