<svg xmlns="http://www.w3.org/2000/svg" xmlns:xlink="http://www.w3.org/1999/xlink" width="379.68" height="189.805" viewBox="0 0 379.68 189.805"><defs><clipPath id="a"><rect width="330" height="99.676" fill="none"/></clipPath></defs><g transform="translate(-811.66 -12703.813)"><path d="M-148.68-46.68a29.281,29.281,0,0,1,5.4,7.5c.24.42.54.54.96.3l2.7-1.62a.638.638,0,0,0,.3-.96,28.254,28.254,0,0,0-5.1-6.96c-.3-.3-.54-.36-.84-.18Zm5.88-3.42a28.818,28.818,0,0,1,5.34,7.44.647.647,0,0,0,1.02.3l2.52-1.62a.727.727,0,0,0,.3-1.08,26.558,26.558,0,0,0-5.1-6.72c-.3-.3-.48-.42-.84-.18Zm-17.22,11.94c3.3,0,6.84.06,10.08.18.66,0,.78-.3.78-1.14a26.688,26.688,0,0,0,0-4.38c0-.78-.12-1.14-.72-1.14-3,.18-6.78.24-10.14.24h-11.04c-2.7,0-5.76-.06-9.96-.3.18,2.16.24,4.32.42,5.76.06.72.24,1.02,1.02,1.02,3.36-.12,5.76-.24,8.52-.24Zm8.88,13.92c4.14,0,8.28.12,11.4.24.54,0,.9-.24.9-1.02.06-.78.06-3.84,0-4.62,0-.84-.06-1.2-.66-1.2-3.54.24-7.02.36-11.7.36h-26.94c-3.48,0-6.84,0-10.2-.3a36.1,36.1,0,0,0,.48,5.76c.06.78.24,1.2.78,1.14,3.06-.18,6-.36,9-.36h11.4c-.24,5.7-.84,8.94-3.06,12.9-2.52,4.56-6.06,7.5-11.94,10.68a15.761,15.761,0,0,1,5.34,3.18,1.768,1.768,0,0,0,1.26.6,3.654,3.654,0,0,0,1.8-.72A30.224,30.224,0,0,0-162.72-8.94c2.34-4.56,3.18-8.58,3.54-15.3Zm53.88-8.88v-5.7a16.523,16.523,0,0,1,.48-5.28,3.211,3.211,0,0,0,.24-1.08c0-.48-.24-.78-1.08-.96a55.765,55.765,0,0,0-7.02-1.02,39.887,39.887,0,0,1,.54,8.22l-.06,5.88h-12.9v-4.38c0-4.08,0-4.68.42-5.76a4.076,4.076,0,0,0,.36-1.26c0-.42-.24-.72-.9-.84a58.251,58.251,0,0,0-7.32-.96,41.7,41.7,0,0,1,.72,8.82v4.38h-1.8c-4.62,0-8.52-.12-11.04-.3a53.836,53.836,0,0,0,.42,5.82c.06.78.24,1.14.72,1.14,1.86-.12,6.66-.3,9.9-.3h1.8v2.28c0,3.78-.12,6.72-.3,9.84-.06.66.3.78,1.08.84a37.022,37.022,0,0,0,5.16,0c.66-.06,1.08-.18,1.02-.84C-117-17.76-117-21-117-24.54V-26.7h12.78c-.24,7.32-1.2,11.46-3.54,15.3-3.06,4.92-7.68,7.98-16.2,10.62a13.847,13.847,0,0,1,4.98,3.6c.48.48.78.66,1.14.66a5.033,5.033,0,0,0,1.68-.54C-109.86.36-105-3.24-102-8.22c2.94-4.86,4.26-9.9,4.62-18.48h2.46c2.94,0,6.6.06,8.64.06.84.06.96-.18,1.02-.96a31.249,31.249,0,0,0,0-4.74c-.06-.66-.12-1.02-.84-.96-2.76.12-6.12.18-9.06.18Zm1.86-13.02a28.561,28.561,0,0,1,4.86,7.8.656.656,0,0,0,1.02.36l2.46-1.26c.48-.24.54-.48.36-.9a28,28,0,0,0-4.62-7.26.633.633,0,0,0-.84-.24Zm5.76-2.7a28.736,28.736,0,0,1,4.86,7.8c.18.36.42.54.96.3l2.4-1.2a.675.675,0,0,0,.36-1.02,25.363,25.363,0,0,0-4.62-7.02c-.3-.36-.48-.42-.84-.24Zm38.88,17.76a94.977,94.977,0,0,0,7.02-7.56,19.767,19.767,0,0,1,3.6-3.3,1.717,1.717,0,0,0,.84-1.32,1.061,1.061,0,0,0-.48-.9,53.38,53.38,0,0,0-6.66-4.2,17.391,17.391,0,0,1-3.78,6.18A97.347,97.347,0,0,1-63-29.64a96.316,96.316,0,0,1-18.9,12.3,22.458,22.458,0,0,1,5.16,3.54,1.672,1.672,0,0,0,1.26.6,1.693,1.693,0,0,0,.9-.24,103.8,103.8,0,0,0,16.5-11.52v13.98c0,4.08-.18,7.98-.24,12.3-.06.72.18.96.84.96a50.045,50.045,0,0,0,6,0c.66,0,.96-.24.9-1.02-.12-4.8-.18-8.34-.18-12.48Zm26.4-6.3A63.512,63.512,0,0,1-12.12-27.6c.3.3.54.48.78.48s.42-.18.72-.48c.84-.9,2.82-3.3,3.72-4.5a1.29,1.29,0,0,0,.36-.78c0-.24-.18-.48-.54-.84a62.565,62.565,0,0,0-11.46-8.52,1.6,1.6,0,0,0-.78-.3,1.124,1.124,0,0,0-.84.48C-21.3-40.86-23.04-39-24.36-37.38Zm1.32,29.94a41.573,41.573,0,0,0,4.8,6.66,1.555,1.555,0,0,0,1.02.66,1.659,1.659,0,0,0,1.08-.6,20.71,20.71,0,0,1,4.02-2.76A129.005,129.005,0,0,0,6-15.24,98.07,98.07,0,0,0,19.8-27.96c.66-.78.96-1.26.96-1.8a2.934,2.934,0,0,0-.3-1.14,26.781,26.781,0,0,1-1.68-7.02C13.68-31.38,9.66-27.54,2.34-21.6A88.936,88.936,0,0,1-14.94-10.44,36.145,36.145,0,0,1-23.04-7.44Zm59.4-23.22H33.9c-4.68,0-6.18-.12-6.54-.12-.6,0-.66.06-.66.66v4.26c0,.54.06.6.66.6.36,0,1.86-.12,6.54-.12h1.08A50.427,50.427,0,0,1,25.32-8.7a14.859,14.859,0,0,1,2.16,4.38c.24.72.48,1.02.72,1.02.3,0,.6-.36,1.08-.96a56.475,56.475,0,0,0,7.26-13.68c-.12,11.22-.42,21.12-.42,22.02,0,.6.06.66.66.66H41.7c.66,0,.72-.06.72-.66,0-.9-.42-11.64-.42-23.52a50.255,50.255,0,0,0,4.86,8.58c.42.6.72.9.96.9s.48-.36.84-1.08A18.3,18.3,0,0,1,51.06-15a53.483,53.483,0,0,1-8.1-10.38c4.32,0,5.76.12,6.12.12.6,0,.66-.06.66-.6v-4.26c0-.6-.06-.66-.66-.66-.36,0-1.86.12-6.48.12h-.48V-41.94c0-4.08.06-5.34.42-6.06a2.813,2.813,0,0,0,.36-1.26c0-.24-.36-.54-.96-.6-2.04-.24-3.84-.36-6.06-.42a55.977,55.977,0,0,1,.48,8.46ZM58.62-14.94c-5.22,1.02-7.2,1.2-7.8,1.32s-.66.12-.54.78l.78,4.74c.06.54.18.6.78.48s2.52-.54,7.74-1.56L67.8-10.8v4.44c0,6.66-.12,9.96-.12,10.32,0,.6.06.66.66.66h4.98c.6,0,.66-.06.66-.66,0-.3-.12-3.72-.12-10.38V-12c4.14-.84,5.76-1.08,6.18-1.2.66-.12.66-.18.6-.72l-.72-4.68c-.12-.66-.12-.72-.66-.6s-1.92.54-5.4,1.26V-40.92c0-4.44.06-5.94.36-6.66a3.387,3.387,0,0,0,.36-1.2c0-.36-.36-.6-.9-.66-2.1-.24-4.08-.36-6.36-.42a56.75,56.75,0,0,1,.48,9.12v24ZM51.84-29.4c-.3.3-.48.48-.48.66,0,.12.18.24.42.48A51.3,51.3,0,0,1,59.7-20.1c.42.48.54.48,1.2-.12l2.94-2.94c.6-.6.6-.72.18-1.26a42.98,42.98,0,0,0-8.28-7.68c-.3-.24-.42-.36-.6-.36-.12,0-.24.12-.54.42Zm1.74-13.8c-.6.54-.54.84-.12,1.14a43.351,43.351,0,0,1,8.16,7.86c.36.54.48.48,1.14-.18l2.88-2.82c.54-.48.54-.72.18-1.14a42.319,42.319,0,0,0-8.46-7.62c-.54-.36-.6-.24-1.14.24ZM43.26-34.86a16.5,16.5,0,0,1,2.4,1.02,3,3,0,0,0,1.2.54c.36,0,.54-.36.9-1.26a74.733,74.733,0,0,0,2.76-7.62,2.127,2.127,0,0,1,.72-1.32.6.6,0,0,0,.36-.6c0-.3-.18-.48-.66-.72a41.946,41.946,0,0,0-4.56-1.68,22.288,22.288,0,0,1-.36,2.58A56.183,56.183,0,0,1,43.26-34.86ZM28.08-44.88c-.78.3-.9.42-.66,1.08a45.243,45.243,0,0,1,3.06,10.02c.12.66.18.72,1.08.36l2.58-.96c.78-.3.9-.48.78-1.08a47.949,47.949,0,0,0-3.24-10.08c-.3-.6-.36-.66-1.08-.36Zm97.2,47.4c5.52,0,7.38.12,7.74.12.6,0,.66-.06.66-.6V-2.52c0-.6-.06-.66-.66-.66-.36,0-2.22.12-7.74.12H110.76V-16.14h12.48c5.7,0,7.68.12,8.04.12.66,0,.66.18.66-.66v-4.5c0-.6-.06-.66-.66-.66-.36,0-2.34.12-8.04.12H110.76v-5.52H114c5.22,0,7.02.06,7.44.06.6,0,.66-.06.66-.6v-3.6a67.376,67.376,0,0,0,9.6,4.56,5.567,5.567,0,0,0,1.44.42c.48,0,.66-.42,1.14-1.5a14.812,14.812,0,0,1,2.58-4.26c-9.9-2.76-18.24-7.32-25.32-15.66a1.255,1.255,0,0,0,.36-.24c.48-.36.6-.54.6-.84,0-.42-.48-.78-1.08-.96a35.462,35.462,0,0,0-6.48-1.26,14.573,14.573,0,0,1-2.4,3.96c-4.8,6.36-12.36,11.82-23.28,16.14a11.882,11.882,0,0,1,2.88,3.54c.54,1.02.78,1.38,1.2,1.38a3.944,3.944,0,0,0,1.44-.48,73.436,73.436,0,0,0,9.18-4.74v3.54c0,.54.06.6.66.6.36,0,2.16-.06,7.38-.06h2.34v5.52H92.88c-5.7,0-7.68-.12-8.04-.12-.66,0-.72.06-.72.66v4.5c0,.6.06.66.72.66.36,0,2.34-.12,8.04-.12h11.46V-3.06H90.66c-5.46,0-7.32-.12-7.68-.12-.66,0-.72.06-.72.66V2.04c0,.54.06.6.72.6.36,0,2.22-.12,7.68-.12ZM102-32.7c-2.88,0-4.68,0-5.82-.06a52.748,52.748,0,0,0,11.7-10.62,47.138,47.138,0,0,0,11.94,10.62c-1.14.06-2.94.06-5.82.06ZM114.72-5.46a18.449,18.449,0,0,1,3.54,1.5,4.126,4.126,0,0,0,1.38.48c.3,0,.54-.24.96-.78a52.225,52.225,0,0,0,3.18-5.34,5.944,5.944,0,0,1,1.38-1.92c.42-.3.72-.48.72-.96,0-.36-.36-.66-1.08-1.02a26.183,26.183,0,0,0-5.04-1.92,15.5,15.5,0,0,1-1.14,3.18A37.664,37.664,0,0,1,114.72-5.46ZM90.66-13.32c-.78.36-.9.48-.48,1.02a33.909,33.909,0,0,1,4.08,8.22c.24.6.3.6,1.2.24L99.18-5.7c.72-.36.78-.48.54-1.08a47.488,47.488,0,0,0-4.26-7.92c-.42-.6-.6-.6-1.38-.24Zm63.96-6.72c-4.68,4.14-12.24,7.74-19.26,9.54a13.66,13.66,0,0,1,2.52,3.36c.54,1.08.78,1.5,1.32,1.5A4.6,4.6,0,0,0,140.58-6a65.3,65.3,0,0,0,10.92-5.28v9.12l-1.92.24c-2.52.3-4.8.48-7.14.6a56.164,56.164,0,0,0,1.44,5.46c.18.66.54.84.96.84a1.6,1.6,0,0,0,.96-.36,6.039,6.039,0,0,1,2.28-.6c5.58-.96,12.54-2.34,19.92-4.26,1.86-.48,1.86-.48,1.92-2.34a16.917,16.917,0,0,1,.3-3.54c-4.5,1.2-8.58,2.16-12.66,2.94V-15.54a49.338,49.338,0,0,0,4.8-4.5h.72C166.62-9.54,174-1.44,185.46,3.42a6.3,6.3,0,0,0,1.44.42c.48,0,.72-.36,1.26-1.38a16.337,16.337,0,0,1,3.18-4.2,34.545,34.545,0,0,1-13.98-7.02,63.157,63.157,0,0,0,6-4.68,5.391,5.391,0,0,1,1.98-1.2c.54-.18.78-.42.78-.9a1.423,1.423,0,0,0-.6-.9,34.212,34.212,0,0,0-4.74-3.18,10.175,10.175,0,0,1-1.86,2.52,34.668,34.668,0,0,1-5.22,4.62,29.746,29.746,0,0,1-4.62-7.56h12.9c5.34,0,7.14.12,7.5.12.6,0,.6-.06.6-.66v-4.2c0-.6,0-.66-.6-.66-.36,0-2.16.12-7.5.12H165.84V-29.7h9c5.88,0,7.92.12,8.28.12.6,0,.66-.06.66-.66v-4.02c0-.6-.06-.66-.66-.66-.36,0-2.4.12-8.28.12h-9v-4.02h11.52c5.82,0,7.74.12,8.1.12.6,0,.66-.06.66-.66V-43.5c0-.6-.06-.66-.66-.66-.36,0-2.28.12-8.1.12H165.84v-.66c0-1.92.06-2.7.42-3.3a3.511,3.511,0,0,0,.3-1.32c0-.24-.3-.54-.9-.6-2.1-.24-4.44-.36-6.6-.42a25.547,25.547,0,0,1,.48,5.7v.6h-10.5c-5.76,0-7.68-.12-8.04-.12-.66,0-.72.06-.72.66v4.14c0,.6.06.66.72.66.36,0,2.28-.12,8.04-.12h10.5v4.02h-7.8c-5.82,0-7.86-.12-8.22-.12-.66,0-.72.06-.72.66v4.02c0,.6.06.66.72.66.36,0,2.4-.12,8.22-.12h7.8v4.38H144.42c-5.34,0-7.08-.12-7.5-.12-.54,0-.6.06-.6.66v4.2c0,.6.06.66.6.66.42,0,2.16-.12,7.5-.12Z" transform="translate(1000 12888.637)" fill="#575757"/><g transform="translate(835 12703.813)"><g transform="translate(0 0)" clip-path="url(#a)"><path d="M292.6,3H35.941a32.941,32.941,0,0,0,0,65.881H141.823l22.14,24.5,22.139-24.5H292.6A32.941,32.941,0,0,0,292.6,3Z" transform="translate(0.729 0.73)" fill="none" stroke="#575757" stroke-miterlimit="10" stroke-width="6"/><path d="M292.6,3H35.941a32.941,32.941,0,0,0,0,65.881H141.823l22.14,24.5,22.139-24.5H292.6A32.941,32.941,0,0,0,292.6,3" transform="translate(0.729 0.73)" fill="#fff"/><path d="M85.147,45.538H77.9V17.659H89.435q4.7,0,7.192,2.44a9.183,9.183,0,0,1,2.5,6.878,9.18,9.18,0,0,1-2.5,6.877q-2.5,2.441-7.192,2.44H85.147Zm0-15.086h2.4q3.992,0,3.993-3.476T87.551,23.5h-2.4Z" transform="translate(18.933 4.292)" fill="#fd0"/><path d="M85.147,45.538H77.9V17.659H89.435q4.7,0,7.192,2.44a9.183,9.183,0,0,1,2.5,6.878,9.18,9.18,0,0,1-2.5,6.877q-2.5,2.441-7.192,2.44H85.147Zm0-15.086h2.4q3.992,0,3.993-3.476T87.551,23.5h-2.4Z" transform="translate(18.933 4.292)" fill="none" stroke="#575757" stroke-miterlimit="10" stroke-width="2"/><path d="M127.2,45.537h-9.022l-6.914-10.723V45.537h-7.247V17.66h11.277a11.079,11.079,0,0,1,4.068.682,7.665,7.665,0,0,1,4.566,4.6,9.562,9.562,0,0,1,.572,3.329,8.179,8.179,0,0,1-1.534,5.159,7.729,7.729,0,0,1-4.528,2.68ZM111.264,30.119h1.369a5.291,5.291,0,0,0,3.29-.886,3.038,3.038,0,0,0,1.146-2.552,3.034,3.034,0,0,0-1.146-2.551,5.283,5.283,0,0,0-3.29-.888h-1.369Z" transform="translate(25.281 4.293)" fill="#fd0"/><path d="M127.2,45.537h-9.022l-6.914-10.723V45.537h-7.247V17.66h11.277a11.079,11.079,0,0,1,4.068.682,7.665,7.665,0,0,1,4.566,4.6,9.562,9.562,0,0,1,.572,3.329,8.179,8.179,0,0,1-1.534,5.159,7.729,7.729,0,0,1-4.528,2.68ZM111.264,30.119h1.369a5.291,5.291,0,0,0,3.29-.886,3.038,3.038,0,0,0,1.146-2.552,3.034,3.034,0,0,0-1.146-2.551,5.283,5.283,0,0,0-3.29-.888h-1.369Z" transform="translate(25.281 4.293)" fill="none" stroke="#575757" stroke-miterlimit="10" stroke-width="2"/><rect width="7.247" height="27.879" transform="translate(162.907 21.951)" fill="#fd0"/><rect width="7.247" height="27.879" transform="translate(162.907 21.951)" fill="none" stroke="#575757" stroke-miterlimit="10" stroke-width="2"/><path d="M167.855,27.129a7.738,7.738,0,0,0-6.213-3.069,7.581,7.581,0,0,0-3.013.592,7.353,7.353,0,0,0-2.385,1.609,7.428,7.428,0,0,0-1.571,2.421,7.957,7.957,0,0,0-.572,3.032,8.062,8.062,0,0,0,.572,3.069,7.4,7.4,0,0,0,6.935,4.658,8.391,8.391,0,0,0,6.248-2.957v8.578l-.74.259a21.29,21.29,0,0,1-3.106.869,15.128,15.128,0,0,1-2.848.278,14.563,14.563,0,0,1-10.186-4.16,15.278,15.278,0,0,1-3.234-4.695,14.314,14.314,0,0,1-1.221-5.936,14.227,14.227,0,0,1,1.2-5.9A14.729,14.729,0,0,1,161.2,17.034a15.328,15.328,0,0,1,3.273.352,19.94,19.94,0,0,1,3.384,1.09Z" transform="translate(35.611 4.141)" fill="#fd0"/><path d="M167.855,27.129a7.738,7.738,0,0,0-6.213-3.069,7.581,7.581,0,0,0-3.013.592,7.353,7.353,0,0,0-2.385,1.609,7.428,7.428,0,0,0-1.571,2.421,7.957,7.957,0,0,0-.572,3.032,8.062,8.062,0,0,0,.572,3.069,7.4,7.4,0,0,0,6.935,4.658,8.391,8.391,0,0,0,6.248-2.957v8.578l-.74.259a21.29,21.29,0,0,1-3.106.869,15.128,15.128,0,0,1-2.848.278,14.563,14.563,0,0,1-10.186-4.16,15.278,15.278,0,0,1-3.234-4.695,14.314,14.314,0,0,1-1.221-5.936,14.227,14.227,0,0,1,1.2-5.9A14.729,14.729,0,0,1,161.2,17.034a15.328,15.328,0,0,1,3.273.352,19.94,19.94,0,0,1,3.384,1.09Z" transform="translate(35.611 4.141)" fill="none" stroke="#575757" stroke-miterlimit="10" stroke-width="2"/><path d="M189.184,23.8h-8.616v4.659H188.7v6.138h-8.134V39.4h8.616v6.137H173.321V17.66h15.863Z" transform="translate(42.125 4.293)" fill="#fd0"/><path d="M189.184,23.8h-8.616v4.659H188.7v6.138h-8.134V39.4h8.616v6.137H173.321V17.66h15.863Z" transform="translate(42.125 4.293)" fill="none" stroke="#575757" stroke-miterlimit="10" stroke-width="2"/></g></g></g></svg>