<svg xmlns="http://www.w3.org/2000/svg" xmlns:xlink="http://www.w3.org/1999/xlink" width="397.5" height="179.073" viewBox="0 0 397.5 179.073"><defs><clipPath id="a"><rect width="330" height="99.676" fill="none"/></clipPath></defs><g transform="translate(-802.459 -9502.809)"><path d="M-173.22-34.08c0-3.12,0-5.76.12-7.56a7.4,7.4,0,0,1,.72-3.24,1.785,1.785,0,0,0,.3-.9c0-.48-.3-.84-.96-1.02a55.021,55.021,0,0,0-7.68-1.08,17.652,17.652,0,0,1,.84,5.46c.06,3.06.12,6.12.18,8.28.12,5.7.3,11.4,1.02,19.26a41.827,41.827,0,0,0-5.04-.18c-7.44,0-13.14,3.78-13.14,9.18,0,5.52,5.4,8.82,12.78,8.82,8.04,0,11.88-3.84,12.12-9a11.58,11.58,0,0,0,.06-1.38A56.153,56.153,0,0,1-158.58.12c.48.36.66.18,1.02-.18a26.909,26.909,0,0,0,3.18-5.04c.24-.48.18-.78-.24-1.02a70.442,70.442,0,0,0-17.4-7.74c-.6-5.7-.9-9-1.02-13.86a89.588,89.588,0,0,0,15.18-2.7c.36-.12.6-.24.48-.9a42.166,42.166,0,0,0-1.44-5.1.5.5,0,0,0-.72-.36A58.2,58.2,0,0,1-173.22-34.08ZM-178.5-8.22c.18,2.52-1.8,5.16-6.3,5.16-3.78,0-6.18-1.02-6.18-3.06,0-2.16,2.7-3.54,6.9-3.54a28.033,28.033,0,0,1,5.52.6Zm66.24-40.5a17.315,17.315,0,0,1-3.24,4.5c-5.16,5.64-10.14,10.62-15.24,16.14-1.86,1.98-2.94,3.3-2.94,5.28s.9,3.3,3.18,5.04A151.452,151.452,0,0,1-108.66,2.52c.3.36.48.54.72.54s.48-.18.84-.48c1.02-.9,2.76-2.64,4.14-4.14.3-.3.42-.48.42-.72a1.438,1.438,0,0,0-.42-.78,166.47,166.47,0,0,0-22.32-18.9c-.54-.42-.78-.72-.78-1.08,0-.3.24-.66.78-1.32,4.62-4.8,11.22-10.98,16.38-15.6a11.367,11.367,0,0,1,2.88-2.1,1.2,1.2,0,0,0,.84-1.14,1.47,1.47,0,0,0-.48-.96A47.768,47.768,0,0,0-112.26-48.72Zm45-.06a14.1,14.1,0,0,1,.24,2.7c0,1.68-.24,4.38-.48,6.54a91.487,91.487,0,0,1-11.64-.24c.12,1.68.12,3.24.3,4.56.06,1.02.42,1.32,1.08,1.38a23.863,23.863,0,0,0,3.42.12c1.02,0,2.64.06,6.18-.06-.12,2.28-.24,4.92-.3,7.5C-75.84-22.62-82.5-15.3-82.5-7.62c0,4.68,2.58,7.44,6.66,7.44,3.06,0,6.18-1.38,10.44-4.32a11.959,11.959,0,0,0,1.02,2.34c.36.6.6.6,1.2.3a19.086,19.086,0,0,0,3.6-2.1c.6-.42.84-.72.48-1.5a18.1,18.1,0,0,1-1.08-2.7A63.461,63.461,0,0,0-48.84-23.88c4.02,1.02,7.44,3.9,7.44,8.7,0,4.32-1.92,6.9-4.8,9A34.544,34.544,0,0,1-57.36-1.8a15.255,15.255,0,0,1,3.54,3.72c.66,1.32,1.32,1.5,2.64,1.14C-41.64.48-34.5-5.16-34.5-13.86c0-7.5-4.56-12.6-12.3-14.64a5.187,5.187,0,0,1,.78-1.2,1.037,1.037,0,0,0,.36-.72c0-.36-.36-.84-1.08-1.32a24.149,24.149,0,0,0-5.34-2.22,14.723,14.723,0,0,1-1.02,4.38,36.02,36.02,0,0,0-9.18,1.32c.06-2.1.18-3.54.42-6.06a127.3,127.3,0,0,0,17.04-2.52c.66-.12,1.26-.42,1.26-1.2a18.611,18.611,0,0,0-.6-4.08c-.12-.54-.3-.78-1.02-.6a115.348,115.348,0,0,1-15.6,2.52c.18-1.02.3-1.92.48-3a4.636,4.636,0,0,1,.84-2.16,1.322,1.322,0,0,0,.3-.96q0-.72-1.08-1.08A32.865,32.865,0,0,0-67.26-48.78Zm5.4,34.68a64.25,64.25,0,0,1-.72-9,28.157,28.157,0,0,1,7.68-1.38A55.062,55.062,0,0,1-61.86-14.1Zm-6.6-6.3a77.8,77.8,0,0,0,1.2,10.32c-3.06,2.4-5.28,3.48-6.96,3.48A2.047,2.047,0,0,1-76.2-8.88C-76.2-12.78-73.08-17.1-68.46-20.4Zm64.68-4.92C.78-29.7,4.8-33.9,9.18-38.16a9.683,9.683,0,0,1,2.64-1.92,1.587,1.587,0,0,0,1.02-1.44,2.083,2.083,0,0,0-.66-1.44A22.7,22.7,0,0,0,8.16-46.8a2.139,2.139,0,0,0-1.38-.48,3.1,3.1,0,0,0-1.14.48,15.92,15.92,0,0,1-3.3.9c-4.68.9-9.96,1.68-13.62,2.04a28.917,28.917,0,0,1-5.58-.12,28.728,28.728,0,0,0,2.1,6.48,1.365,1.365,0,0,0,1.32,1.02,4.4,4.4,0,0,0,1.2-.3,18.469,18.469,0,0,1,2.52-.72c3.72-.78,7.98-1.62,11.58-2.28-2.76,3.42-5.58,6.42-9.3,10.26A144.427,144.427,0,0,1-21.66-16.26c-.48.48-.66.9-.3,1.38a27.012,27.012,0,0,0,3.54,3.9,1.474,1.474,0,0,0,.9.54c.3,0,.6-.24,1.02-.66,1.8-1.8,3.48-3.54,5.22-5.1C-6.42-20.34-.9-22.56,4.08-22.56c5.58,0,9.42,3.6,9.42,9.06,0,4.56-1.92,7.2-6.12,9.12-1.5-5.76-5.64-8.76-11.28-8.76-4.68,0-8.46,3.3-8.46,7.32C-12.36-.24-7.8,3-.24,3,12.6,3,20.7-3.42,20.7-13.44c0-8.64-6.12-14.4-14.88-14.4a18.056,18.056,0,0,0-9.54,2.7ZM1.44-2.88a13.136,13.136,0,0,1-2.76.24c-3.6,0-5.22-1.26-5.22-3.12,0-1.26,1.14-2.28,2.88-2.28C-1.14-8.04.66-6.18,1.44-2.88Zm39.6-16.5c-2.28,3.54-3.18,6.12-3.18,8.58C37.86-3,44.64,1.32,58.5,1.32A95.232,95.232,0,0,0,76.08-.12c.72-.12,1.08-.36,1.02-.9a50.167,50.167,0,0,0-.96-5.88c-.12-.54-.42-.72-1.26-.54A76.333,76.333,0,0,1,58.62-5.7C48.3-5.7,44.4-7.56,44.4-11.34a9.86,9.86,0,0,1,1.56-4.56c.3-.48.24-.78-.3-1.08C44.1-17.82,42.6-18.6,41.04-19.38Zm1.32-22.68c-.12,2.16-.24,3.9-.24,5.34,0,.72.24.96.78,1.08a71.793,71.793,0,0,0,11.04,1.02,36.636,36.636,0,0,0,4.38-.18c-2.1,1.26-4.74,2.94-7.86,4.98a14.337,14.337,0,0,1,4.2,1.92,2.52,2.52,0,0,0,1.26.36,2.557,2.557,0,0,0,1.5-.54c4.86-3.12,9-5.1,14.7-5.94.72-.06,1.02-.42,1.02-1.26a35.023,35.023,0,0,0-.54-5.1c-.06-.48-.3-.72-.9-.66-3.84.3-8.1.54-12.48.54A75.693,75.693,0,0,1,42.36-42.06Zm30-2.88a29.771,29.771,0,0,1,6.06,6.96.627.627,0,0,0,1.02.18l2.52-1.86a.605.605,0,0,0,.18-.96,27.615,27.615,0,0,0-5.7-6.42c-.36-.3-.6-.36-.9-.12Zm5.52-3.96a28.384,28.384,0,0,1,6,6.9.615.615,0,0,0,1.02.18l2.4-1.86a.694.694,0,0,0,.18-1.08,25.057,25.057,0,0,0-5.7-6.18c-.36-.3-.54-.36-.9-.12Zm32.34,18.84c-.06-.66-.06-1.62-.06-2.94v-2.94c3.6.06,5.04.12,5.34.12.6,0,.66-.06.66-.66V-39.9c0-.66-.06-.72-.66-.72-.36,0-2.04.12-7.26.12H99.66v-2.7a90.333,90.333,0,0,0,13.08-1.62,8.464,8.464,0,0,1,2.28-.18c.6,0,.9-.36.9-.66a1.936,1.936,0,0,0-.6-1.14,20.193,20.193,0,0,0-3.24-3.48,8.3,8.3,0,0,1-2.82,1.02,60.085,60.085,0,0,1-10.08,1.62c-1.74-.36-3.42-.6-5.4-.84a28.832,28.832,0,0,1,.3,4.86c0,5.16-.78,9.48-4.92,13.08a16.034,16.034,0,0,1,3.72,2.82c.66.66,1.02,1.02,1.32,1.02.36,0,.6-.42,1.14-1.2a20.381,20.381,0,0,0,3.78-8.04h5.34V-33c0,1.32-.06,2.28-.06,2.94-4.2,0-5.88-.12-6.18-.12-.66,0-.72.06-.72.66,0,.42.12,2.16.12,6.12v11.94c0,3.96-.12,5.7-.12,6.06,0,.66.06.72.72.72.36,0,2.4-.12,8.22-.12a12.971,12.971,0,0,1-2.1,1.26A51.766,51.766,0,0,1,89.76.06,14.489,14.489,0,0,1,92.1,3.48c.6,1.2.78,1.5,1.44,1.5a7.33,7.33,0,0,0,1.32-.18A51.426,51.426,0,0,0,108.48.24a16.3,16.3,0,0,1,2.34-1.02c.66-.12.9-.42.9-.84,0-.24-.18-.48-.78-.9a28.027,28.027,0,0,0-3.6-2.28H126l-3.48,2.82c-.72.48-.78.54-.18.9a50.192,50.192,0,0,0,16.8,6,8.569,8.569,0,0,0,1.38.18c.6,0,.84-.42,1.38-1.56a20.015,20.015,0,0,1,2.22-3.6c-6.78-.66-12.54-2.1-17.34-4.74h1.02c5.82,0,7.92.12,8.34.12.6,0,.66-.06.66-.72,0-.36-.12-2.1-.12-6.06V-23.4c0-3.96.12-5.7.12-6.12,0-.6-.06-.66-.66-.66-.18,0-.66.06-1.44.06-.06-.66-.06-1.62-.06-2.94v-2.88h.24c5.82,0,7.86.12,8.22.12.54,0,.6-.06.6-.66V-39.9c0-.66-.06-.72-.6-.72-.36,0-2.4.12-8.22.12H124.26c0-.24.06-.48.06-.72v-2.04a95.432,95.432,0,0,0,13.74-1.68,11.77,11.77,0,0,1,2.4-.12c.54,0,.72-.3.72-.6a1.839,1.839,0,0,0-.54-1.14,22.393,22.393,0,0,0-3.18-3.48,19.53,19.53,0,0,1-2.82,1.02,78.573,78.573,0,0,1-10.74,1.62,43.634,43.634,0,0,0-5.4-.96,32.711,32.711,0,0,1,.24,5.28c0,4.68-.96,7.2-4.56,10.32a14.758,14.758,0,0,1,3.72,2.28,2.615,2.615,0,0,0,.9.66Zm20.4,20.88h-27v-3.06h27Zm-27-6.9v-2.88h27v2.88Zm27-9.54v2.82h-27v-2.82Zm-1.68-10.32v2.88c0,1.38-.06,2.34-.06,3h-9.36a3.226,3.226,0,0,0,1.08-1.02,14.881,14.881,0,0,0,2.82-4.86Zm71.46-3.78c0-5.1.12-7.62.12-7.98,0-.6-.06-.66-.66-.66-.36,0-1.98.12-6.6.12h-8.64c-4.68,0-6.24-.12-6.6-.12-.66,0-.72.06-.72.66,0,.42.12,1.86.12,5.46v8.76c0,3.6-.12,4.98-.12,5.4,0,.6.06.66.72.66.36,0,1.92-.12,6.6-.12h9.6V-4.38c0,1.8-.48,2.34-2.46,2.34a35.152,35.152,0,0,1-4.86-.3,16.821,16.821,0,0,1,1.38,4.44c.36,1.92.36,1.86,2.28,1.86,5.34,0,7.02-.42,8.34-1.62,1.38-1.26,1.74-2.64,1.74-5.52,0-2.94-.24-7.74-.24-11.94Zm-17.1,7.8V-36h10.92v4.08Zm10.92-11.76v3.54H183.3v-3.54ZM158.4-48.24c-4.38,0-6.6-.12-7.02-.12-.6,0-.66.06-.66.66,0,.42.12,4.62.12,12.9V-8.82c0,8.28-.12,12.36-.12,12.78,0,.6.06.66.66.66h5.1c.6,0,.66-.06.66-.66,0-.42-.12-4.5-.12-12.78V-27.54h9.6c3.9,0,5.64.12,6,.12.54,0,.6-.06.6-.66,0-.36-.12-2.16-.12-5.88v-7.8c0-3.78.12-5.58.12-5.94,0-.6-.06-.66-.6-.66-.36,0-2.1.12-6,.12Zm8.82,16.32h-10.2V-36h10.2Zm0-11.76v3.54h-10.2v-3.54Zm2.22,42.6c.66,0,.72,0,.72-.6V-4.92h10.38v1.98c0,.66.06.72.72.72h4.38c.6,0,.66-.06.66-.72,0-.36-.12-1.8-.12-9.36v-4.62c0-3.3.12-4.86.12-5.22,0-.6-.06-.66-.66-.66-.42,0-1.86.12-6.36.12h-7.86c-4.5,0-5.94-.12-6.36-.12-.6,0-.66.06-.66.66,0,.42.12,1.98.12,6.36v4.32c0,7.92-.12,9.42-.12,9.78,0,.6.06.6.66.6Zm.72-16.5h10.38v7.56H170.16Z" transform="translate(999.319 9676.782)" fill="#575757"/><g transform="translate(837.819 9502.809)"><g transform="translate(0 0)" clip-path="url(#a)"><path d="M292.6,3H35.941a32.941,32.941,0,0,0,0,65.881H141.823l22.14,24.5,22.139-24.5H292.6A32.941,32.941,0,0,0,292.6,3Z" transform="translate(0.729 0.73)" fill="none" stroke="#575757" stroke-miterlimit="10" stroke-width="6"/><path d="M292.6,3H35.941a32.941,32.941,0,0,0,0,65.881H141.823l22.14,24.5,22.139-24.5H292.6A32.941,32.941,0,0,0,292.6,3" transform="translate(0.729 0.73)" fill="#fff"/><path d="M86.571,31.705A14.367,14.367,0,0,1,95.76,18.116a17.726,17.726,0,0,1,12.442,0,14.737,14.737,0,0,1,4.9,3.125,14.3,14.3,0,0,1,3.2,4.678,14.556,14.556,0,0,1,1.146,5.786,14.94,14.94,0,0,1-.943,5.361,13.485,13.485,0,0,1-2.717,4.4l4.734,4.955-6.657,1.034-2.551-2.624A18.343,18.343,0,0,1,105.853,46a16.959,16.959,0,0,1-3.863.426,16.7,16.7,0,0,1-6.23-1.127A14.564,14.564,0,0,1,90.9,42.169a14.487,14.487,0,0,1-4.326-10.464m7.58,0a7.427,7.427,0,0,0,.628,3.069,7.75,7.75,0,0,0,1.7,2.44,7.665,7.665,0,0,0,2.5,1.609,8,8,0,0,0,3.013.573,8.535,8.535,0,0,0,1.923-.221l-4.142-4.363,6.839-.851,1.923,2.034a7.146,7.146,0,0,0,1.333-4.289,7.431,7.431,0,0,0-.629-3.069,7.641,7.641,0,0,0-1.719-2.44,8.131,8.131,0,0,0-8.541-1.609,7.682,7.682,0,0,0-4.2,4.049,7.431,7.431,0,0,0-.628,3.069" transform="translate(21.041 4.13)" fill="#fd0"/><path d="M86.571,31.705A14.367,14.367,0,0,1,95.76,18.116a17.726,17.726,0,0,1,12.442,0,14.737,14.737,0,0,1,4.9,3.125,14.3,14.3,0,0,1,3.2,4.678,14.556,14.556,0,0,1,1.146,5.786,14.94,14.94,0,0,1-.943,5.361,13.485,13.485,0,0,1-2.717,4.4l4.734,4.955-6.657,1.034-2.551-2.624A18.343,18.343,0,0,1,105.853,46a16.959,16.959,0,0,1-3.863.426,16.7,16.7,0,0,1-6.23-1.127A14.564,14.564,0,0,1,90.9,42.169a14.487,14.487,0,0,1-4.326-10.464Zm7.58,0a7.427,7.427,0,0,0,.628,3.069,7.75,7.75,0,0,0,1.7,2.44,7.665,7.665,0,0,0,2.5,1.609,8,8,0,0,0,3.013.573,8.535,8.535,0,0,0,1.923-.221l-4.142-4.363,6.839-.851,1.923,2.034a7.146,7.146,0,0,0,1.333-4.289,7.431,7.431,0,0,0-.629-3.069,7.641,7.641,0,0,0-1.719-2.44,8.131,8.131,0,0,0-8.541-1.609,7.682,7.682,0,0,0-4.2,4.049A7.431,7.431,0,0,0,94.151,31.705Z" transform="translate(21.041 4.13)" fill="none" stroke="#575757" stroke-miterlimit="10" stroke-width="2"/><path d="M144.653,45.725a35.777,35.777,0,0,1-3.031-2.92,12.729,12.729,0,0,1-8.872,3.364c-4.954,0-8.614-3.29-8.614-7.873,0-4.141,2.663-6.581,5.8-8.169v-.112a9.849,9.849,0,0,1-2.476-5.989,6.835,6.835,0,0,1,7.134-6.913,5.771,5.771,0,0,1,6.137,5.841c0,2.994-1.627,5.249-6.691,7.652v.111c3.033,3.512,6.174,6.875,7.875,8.5,1.221-1.589,2.144-3.955,2.884-8.428h2.736c-.814,4.916-2.146,8.28-4.031,10.239,1.627,1.59,3.254,3.217,4.807,4.695Zm-4.583-4.658C138.888,40,135.08,36,131.384,31.788c-1.627.851-4.326,2.7-4.326,6.062,0,3.55,2.7,5.952,6.358,5.952a9.213,9.213,0,0,0,6.654-2.735m-9.8-17.338c0,2.255,1.183,3.807,2.329,5.287,3.253-1.627,5.433-3.216,5.433-5.84,0-1.85-1.034-3.919-3.66-3.919-2.773,0-4.1,2.255-4.1,4.472" transform="translate(30.171 4.16)" fill="#fd0"/><path d="M144.653,45.725a35.777,35.777,0,0,1-3.031-2.92,12.729,12.729,0,0,1-8.872,3.364c-4.954,0-8.614-3.29-8.614-7.873,0-4.141,2.663-6.581,5.8-8.169v-.112a9.849,9.849,0,0,1-2.476-5.989,6.835,6.835,0,0,1,7.134-6.913,5.771,5.771,0,0,1,6.137,5.841c0,2.994-1.627,5.249-6.691,7.652v.111c3.033,3.512,6.174,6.875,7.875,8.5,1.221-1.589,2.144-3.955,2.884-8.428h2.736c-.814,4.916-2.146,8.28-4.031,10.239,1.627,1.59,3.254,3.217,4.807,4.695Zm-4.583-4.658C138.888,40,135.08,36,131.384,31.788c-1.627.851-4.326,2.7-4.326,6.062,0,3.55,2.7,5.952,6.358,5.952A9.213,9.213,0,0,0,140.07,41.068Zm-9.8-17.338c0,2.255,1.183,3.807,2.329,5.287,3.253-1.627,5.433-3.216,5.433-5.84,0-1.85-1.034-3.919-3.66-3.919C131.6,19.257,130.274,21.512,130.274,23.73Z" transform="translate(30.171 4.16)" fill="none" stroke="#575757" stroke-miterlimit="10" stroke-width="2"/><path d="M174.342,40.649H163.989l-1.664,4.843H154.6l10.612-27.879h7.912l10.613,27.879h-7.728Zm-1.923-5.509-3.253-9.282-3.253,9.282Z" transform="translate(37.574 4.281)" fill="#fd0"/><path d="M174.342,40.649H163.989l-1.664,4.843H154.6l10.612-27.879h7.912l10.613,27.879h-7.728Zm-1.923-5.509-3.253-9.282-3.253,9.282Z" transform="translate(37.574 4.281)" fill="none" stroke="#575757" stroke-miterlimit="10" stroke-width="2"/></g></g></g></svg>