<svg xmlns="http://www.w3.org/2000/svg" xmlns:xlink="http://www.w3.org/1999/xlink" width="764.04" height="182.414" viewBox="0 0 764.04 182.414"><defs><clipPath id="a"><rect width="330" height="99.676" fill="none"/></clipPath></defs><g transform="translate(-618.6 -14865.023)"><path d="M-371.76-27.54c-2.94,0-7.38-.06-11.64-.42a26.528,26.528,0,0,0,.6,5.46c.18.96.36,1.44,1.14,1.38,2.94-.24,7.38-.24,9.54-.24h10.68a24.75,24.75,0,0,1-2.64,9.96c-2.46,4.5-5.22,7.56-11.22,11.1a24.724,24.724,0,0,1,6.36,2.28,2.278,2.278,0,0,0,1.08.36,1.863,1.863,0,0,0,1.02-.42A28.544,28.544,0,0,0-357.3-9.3c1.68-3.36,2.52-6.96,3-12.06h7.38c4.38,0,7.86.06,11.64.18.72,0,.72-.24.78-1.08a42.661,42.661,0,0,0,0-4.8c-.06-.66-.06-.96-.66-.96-2.7.12-7.8.42-11.58.42h-7.44c0-2.04,0-3.42.06-4.74a5.782,5.782,0,0,1,.42-2.04,2.986,2.986,0,0,0,.36-1.02.889.889,0,0,0-.78-.84,17.785,17.785,0,0,0-3.9-.78c3.54-.72,7.2-1.62,10.86-2.64,1.26-.3,2.52-.84,3.78-1.02.96-.06,1.56-.18,1.56-.84a2.333,2.333,0,0,0-.78-1.68,29.171,29.171,0,0,0-4.92-4.2,17.192,17.192,0,0,1-5.16,2.7,74.571,74.571,0,0,1-9.9,2.58A113.387,113.387,0,0,1-380.4-39.9a16.274,16.274,0,0,1,3.06,4.14c.24.66.6,1.44,1.5,1.32a135.991,135.991,0,0,0,14.22-1.92c.18,1.2.24,1.98.3,2.76.06,1.74.12,4.14.12,6.06Zm74.22-11.7c3.66,0,6.48.12,8.46.12.9.06,1.08-.18,1.08-1.2A30.466,30.466,0,0,0-288-45c0-.66-.18-.96-.72-.96-2.34.12-5.52.3-9.42.3h-10.8a82.663,82.663,0,0,1-9.84-.42,52.3,52.3,0,0,0,.3,5.76c.06.96.24,1.32.84,1.32,2.52-.18,5.52-.24,8.22-.24Zm4.56,12.84c-4.32,11.58-14.1,19.86-25.2,25.02a17.589,17.589,0,0,1,5.58,3.12,1.958,1.958,0,0,0,1.32.72,2.882,2.882,0,0,0,1.2-.42C-298.5-4.2-291.6-11.7-285.6-24.48a6.872,6.872,0,0,1,2.04-2.82,1.447,1.447,0,0,0,.66-1.14,1.768,1.768,0,0,0-.6-1.26,35.415,35.415,0,0,0-4.02-3.72,1.544,1.544,0,0,0-.9-.42,1.29,1.29,0,0,0-.78.36,6.6,6.6,0,0,1-3.18.66h-20.58A106.183,106.183,0,0,1-324-33.3a45.48,45.48,0,0,0,.66,6.06c.12.78.36,1.14.9,1.14,3-.18,6-.24,9-.24Zm20.52.3a52.61,52.61,0,0,1,12.12,6.54,1.161,1.161,0,0,0,.72.36c.24,0,.48-.24.78-.6a24.432,24.432,0,0,0,2.64-4.56,1.78,1.78,0,0,0,.24-.66c0-.36-.24-.6-.66-.9a41.64,41.64,0,0,0-11.52-5.88c-.54-.12-.84.18-1.14.6C-270-30.24-270.96-28.5-272.46-26.1Zm7.26-14.1a58.028,58.028,0,0,1,11.64,7.38,1.544,1.544,0,0,0,.9.42.668.668,0,0,0,.6-.36,25.681,25.681,0,0,0,3.06-4.5,1.453,1.453,0,0,0,.24-.78.95.95,0,0,0-.48-.78,40.79,40.79,0,0,0-11.28-6.66c-.72-.36-1.08-.24-1.5.48C-263.04-43.44-264.18-41.76-265.2-40.2ZM-267.72-6A37.893,37.893,0,0,0-263.28.12a1.544,1.544,0,0,0,1.2.72,1.329,1.329,0,0,0,.96-.48,19.715,19.715,0,0,1,3.48-2.04A139.3,139.3,0,0,0-239.7-12.96a111.784,111.784,0,0,0,15.24-13.86,1.866,1.866,0,0,0,.66-1.38,2.934,2.934,0,0,0-.3-1.14,29.964,29.964,0,0,1-1.74-6.72,109.184,109.184,0,0,1-17.28,16.74A100.508,100.508,0,0,1-259.56-8.94,27.742,27.742,0,0,1-267.72-6Zm60.54-35.94h-3.84l.36-1.26a4.955,4.955,0,0,1,.6-1.74,1.862,1.862,0,0,0,.42-1.02c0-.36-.18-.54-.9-.72a48.973,48.973,0,0,0-5.22-1.14,14.934,14.934,0,0,1-.3,2.82,32.528,32.528,0,0,1-4.62,10.62,14.488,14.488,0,0,1,3.66,1.74,3.36,3.36,0,0,0,1.44.72c.42,0,.66-.42,1.08-1.32q.81-1.53,1.62-3.42h5.7v5.46h-5.04c-5.58,0-7.5-.12-7.86-.12-.6,0-.66.06-.66.66v4.26c0,.66.06.72.66.72.36,0,2.28-.12,7.86-.12h5.04v5.16h-2.88c-5.22,0-7.02-.12-7.44-.12-.6,0-.66.06-.66.66,0,.42.12,1.86.12,5.46v7.86c0,3.9-.12,5.52-.12,5.94,0,.6.06.66.66.66h4.8c.6,0,.66-.06.66-.66,0-.36-.12-2.04-.12-5.64v-8.88h4.98v7.98c0,7.38-.12,11.04-.12,11.46,0,.54.06.6.66.6h4.86c.6,0,.66-.06.66-.6,0-.36-.12-4.14-.12-11.52v-7.92h5.28v8.28c0,1.14-.42,1.5-1.38,1.5a24.261,24.261,0,0,1-2.64-.18,11.321,11.321,0,0,1,1.32,3.78c.3,1.74.3,1.8,2.16,1.8,2.34,0,4.02-.3,5.04-1.14,1.2-.96,1.38-2.16,1.38-3.84,0-1.62-.12-3.42-.12-6.78v-2.1c0-3.84.12-5.7.12-6.06,0-.6-.06-.66-.66-.66-.42,0-2.16.12-7.38.12h-3.12V-25.8h4.02c5.58,0,7.44.12,7.8.12.6,0,.66-.06.66-.72v-4.26c0-.6-.06-.66-.66-.66-.36,0-2.22.12-7.8.12h-4.02v-5.46h2.88c4.74,0,6.3.12,6.66.12.6,0,.66-.06.66-.66v-4.2c0-.6-.06-.66-.66-.66-.36,0-1.92.12-6.66.12h-2.88v-2.04a7.9,7.9,0,0,1,.36-3.3,3.758,3.758,0,0,0,.42-1.32c0-.36-.36-.6-.9-.6-1.92-.24-3.96-.36-6.24-.42a30.736,30.736,0,0,1,.42,5.7Zm38.64,1.08c0-4.08.06-5.34.36-6.06a2.854,2.854,0,0,0,.42-1.26c0-.3-.36-.6-1.02-.66a55.22,55.22,0,0,0-6.42-.36,49.072,49.072,0,0,1,.48,8.46v36.3c0,1.92-.6,2.34-2.58,2.34a46.4,46.4,0,0,1-5.76-.36,17.24,17.24,0,0,1,1.74,4.68c.42,1.92.42,1.92,2.22,1.92,5.28,0,6.9-.42,8.58-1.56,1.74-1.2,2.16-3.18,2.16-6.12,0-3-.18-7.8-.18-12Zm-17.52,21.42c0,5.1-.12,7.56-.12,7.92,0,.6.06.66.66.66h4.8c.66,0,.72-.06.72-.66,0-.36-.12-2.82-.12-7.92V-36c0-4.38,0-5.58.18-6.42a4.85,4.85,0,0,0,.42-1.32c0-.36-.3-.6-.9-.66-2.04-.24-3.96-.36-6.06-.42a63.224,63.224,0,0,1,.42,8.88Zm51.18-14.58V-5.28c0,6-.12,9-.12,9.36,0,.6.06.66.66.66h5.1c.6,0,.66-.06.66-.66,0-.3-.12-3.36-.12-9.36v-3.3h7.68c4.8,0,6.42.12,6.78.12.6,0,.66-.06.66-.72v-4.44c0-.54-.06-.6-.66-.6-.36,0-1.98.12-6.78.12h-7.68v-7.32h7.68c4.74,0,6.3.12,6.66.12.6,0,.66-.06.66-.66v-4.38c0-.6-.06-.66-.66-.66-.36,0-1.92.12-6.66.12h-7.68v-7.14h9.78c5.34,0,7.14.12,7.44.12.66,0,.72-.06.72-.72V-39c0-.66-.06-.72-.72-.72-.3,0-2.1.12-7.44.12h-15.66c.72-1.5,1.32-3,1.86-4.44a7.674,7.674,0,0,1,1.56-2.94,1.378,1.378,0,0,0,.54-1.14c0-.42-.42-.72-1.14-.9-1.86-.54-3.72-.9-5.94-1.32a22.139,22.139,0,0,1-.96,4.56,55.606,55.606,0,0,1-10.98,18.72,13.861,13.861,0,0,1,2.88,3.66c.48.84.78,1.2,1.14,1.2.3,0,.6-.3,1.14-.96a69.6,69.6,0,0,0,7.2-10.86ZM-157.44-5.1c0,5.88-.12,8.76-.12,9.12,0,.6.06.66.66.66h5.1c.6,0,.66-.06.66-.66,0-.3-.12-3.24-.12-9.12V-36.36a84.133,84.133,0,0,0,3.54-7.92c.6-1.68.9-2.16,1.32-2.52.48-.42.6-.66.6-1.08,0-.36-.24-.6-.96-.9-1.68-.66-3.66-1.14-5.82-1.74a21.686,21.686,0,0,1-1.08,4.32c-2.52,6.72-6.48,14.1-12.18,19.74a14.66,14.66,0,0,1,2.22,5.22c.18.72.42,1.02.78,1.02.24,0,.6-.24,1.02-.72a58.117,58.117,0,0,0,4.5-5.52c-.06,2.64-.12,5.34-.12,7.56Zm63.9-13.74c-4.38,2.52-7.2,4.14-9.78,5.58a22.154,22.154,0,0,1-5.52,2.1c.9,1.98,2.1,4.5,2.76,5.58a1.683,1.683,0,0,0,1.32.96,1.506,1.506,0,0,0,1.02-.42,10.875,10.875,0,0,1,1.92-1.32A36.891,36.891,0,0,1-93.3,1.32c.54.78.78,1.26,1.44,1.2a24.387,24.387,0,0,0,4.44-.72c1.02-.24.9-1.14.9-1.98,0-1.38-.3-5.16-.48-7.8-.12-2.64-.18-4.68-.24-7.2,6.18-3.18,10.32-4.08,13.74-4.08,4.2,0,6.6,2.16,6.6,6.06,0,4.26-3.12,6.18-6.48,6.18a22.381,22.381,0,0,1-7.5-1.08A10.484,10.484,0,0,1-79.08-3a1.609,1.609,0,0,0,1.32,1.8,23.254,23.254,0,0,0,4.92.54c8.1,0,13.02-4.5,13.02-12.18,0-7.2-5.34-11.94-12.78-12a37.868,37.868,0,0,0-14.76,3.3c.06-2.88.06-5.82.12-8.7a61.155,61.155,0,0,0,8.58-2.28c.6-.18.78-.36.78-.96a30.155,30.155,0,0,0-.36-4.68c-.06-.6-.48-.72-1.02-.54a58.836,58.836,0,0,1-7.68,2.22c.06-1.92.12-3.42.3-4.98a7.343,7.343,0,0,1,.84-2.34,2.128,2.128,0,0,0,.36-.96c0-.54-.48-.96-1.2-1.14a34,34,0,0,0-7.14-1.08,22.182,22.182,0,0,1,.42,4.86c0,2.58-.06,4.86-.06,6.84-2.52.24-5.1.48-7.62.48a30.652,30.652,0,0,1-4.68-.3c.24,2.1.48,4.08.66,5.22.12.9.42,1.26,1.44,1.26,4.02,0,7.08-.24,10.08-.48Zm.3,6.3c.12,1.98.24,4.74.36,6.3.06.54-.12.6-.6.48a61.532,61.532,0,0,1-5.64-2.7C-96.96-10.02-94.92-11.4-93.24-12.54ZM-73.2-35.28c4.8,1.62,9,3.84,12.18,7.38.18.3,1.02.24,1.2,0,.9-1.2,2.46-3.06,3.24-4.26a1.558,1.558,0,0,0,.24-.6c0-.18-.12-.36-.36-.6a28.521,28.521,0,0,0-12.72-7.32c-.42-.12-.6.06-1.02.72A36.808,36.808,0,0,0-73.2-35.28Zm70.5-4.44c0-5.1.12-7.62.12-7.98,0-.6-.06-.66-.66-.66-.36,0-1.98.12-6.6.12h-8.64c-4.68,0-6.24-.12-6.6-.12-.66,0-.72.06-.72.66,0,.42.12,1.86.12,5.46v8.76c0,3.6-.12,4.98-.12,5.4,0,.6.06.66.72.66.36,0,1.92-.12,6.6-.12h9.6V-4.38c0,1.8-.48,2.34-2.46,2.34a35.152,35.152,0,0,1-4.86-.3A16.821,16.821,0,0,1-14.82,2.1c.36,1.92.36,1.86,2.28,1.86,5.34,0,7.02-.42,8.34-1.62C-2.82,1.08-2.46-.3-2.46-3.18c0-2.94-.24-7.74-.24-11.94Zm-17.1,7.8V-36H-8.88v4.08ZM-8.88-43.68v3.54H-19.8v-3.54ZM-44.7-48.24c-4.38,0-6.6-.12-7.02-.12-.6,0-.66.06-.66.66,0,.42.12,4.62.12,12.9V-8.82c0,8.28-.12,12.36-.12,12.78,0,.6.06.66.66.66h5.1c.6,0,.66-.06.66-.66,0-.42-.12-4.5-.12-12.78V-27.54h9.6c3.9,0,5.64.12,6,.12.54,0,.6-.06.6-.66,0-.36-.12-2.16-.12-5.88v-7.8c0-3.78.12-5.58.12-5.94,0-.6-.06-.66-.6-.66-.36,0-2.1.12-6,.12Zm8.82,16.32h-10.2V-36h10.2Zm0-11.76v3.54h-10.2v-3.54Zm2.22,42.6c.66,0,.72,0,.72-.6V-4.92h10.38v1.98c0,.66.06.72.72.72h4.38c.6,0,.66-.06.66-.72,0-.36-.12-1.8-.12-9.36v-4.62c0-3.3.12-4.86.12-5.22,0-.6-.06-.66-.66-.66-.42,0-1.86.12-6.36.12h-7.86c-4.5,0-5.94-.12-6.36-.12-.6,0-.66.06-.66.66,0,.42.12,1.98.12,6.36v4.32c0,7.92-.12,9.42-.12,9.78,0,.6.06.6.66.6Zm.72-16.5h10.38v7.56H-32.94ZM15,4.5c.66,0,.72-.06.72-.66V1.56H39.78V3.54c0,.6.06.66.66.66h5.1c.66,0,.72-.06.72-.66,0-.3-.12-1.92-.12-10.56V-12.9c0-4.26.12-6,.12-6.36,0-.6-.06-.66-.72-.66-.36,0-2.46.12-8.22.12H18.12c-5.76,0-7.86-.12-8.22-.12-.6,0-.66.06-.66.66,0,.36.12,2.1.12,7.26v5.16c0,8.7-.12,10.32-.12,10.68,0,.6.06.66.66.66Zm.72-18.84H39.78V-3.9H15.72ZM15.6-26.16c0,.6.06.66.66.66.42,0,1.98-.12,6.78-.12h9.3c4.8,0,6.42.12,6.78.12.6,0,.66-.06.66-.66v-4.2a65.343,65.343,0,0,0,11.7,6.72,3.6,3.6,0,0,0,1.44.54c.48,0,.72-.42,1.08-1.56a15.951,15.951,0,0,1,2.52-4.56A54.143,54.143,0,0,1,30.9-47.52a1.617,1.617,0,0,1,.48-.42,1.023,1.023,0,0,0,.6-.9c0-.54-.36-.72-1.08-.96-1.74-.42-3.96-.78-6.3-1.14a18.772,18.772,0,0,1-2.34,4.26C17.34-39.54,10.2-33.3-.84-28.32A14.544,14.544,0,0,1,1.98-24.3c.48,1.08.72,1.5,1.14,1.5a4.353,4.353,0,0,0,1.38-.6,74,74,0,0,0,11.1-7.08Zm7.44-5.04c-4.08,0-5.76-.06-6.48-.12A59.313,59.313,0,0,0,27.48-42.66a53.659,53.659,0,0,0,11.04,11.4c-.84,0-2.64.06-6.18.06Zm52.92,2.34c1.44-2.1,2.34-3.24,3.18-4.32.9-1.02,1.02-1.26,1.02-1.68s-.24-.9-.96-1.86c-.54-.78-1.2-1.38-1.62-1.38a1.112,1.112,0,0,0-.42.12c-.18.06-.3.12-.48.18.12-2.58.24-3.96.3-5.4a10.2,10.2,0,0,1,.6-2.58c.42-1.08.18-1.74-1.08-2.1a45.617,45.617,0,0,0-6.96-1.02,21.76,21.76,0,0,1,.6,5.22c0,2.58,0,5.22-.12,7.8-4.62,1.26-6.96,1.8-8.52,2.16a29.182,29.182,0,0,1-4.08.6,51.026,51.026,0,0,0,2.4,5.28c.36.72.78,1.08,1.2,1.08.36,0,.96-.6,1.98-1.02,2.28-.84,5.1-1.68,6.84-2.22-.06,1.14-.06,2.76-.06,4.26-4.5,6.18-7.92,10.44-13.2,16.86a1.037,1.037,0,0,0-.36.72.829.829,0,0,0,.36.66,41.647,41.647,0,0,0,3.66,3.6,1.042,1.042,0,0,0,.66.36c.3,0,.54-.24.84-.6,2.22-3.18,5.22-7.56,8.1-11.88-.12,6.12-.24,12.42-.3,18.54-.06.6.12.84.66.84,1.98,0,4.68-.18,5.34-.24.48,0,.78-.24.78-.72-.12-8.1-.3-15.36-.36-23.04,5.88-5.04,10.56-7.68,16.08-7.68,5.76,0,8.94,3.66,8.94,9.3A11.585,11.585,0,0,1,96.9-9.96c-3.18,2.7-6.24,4.38-12.06,5.94A17.669,17.669,0,0,1,89.58-.06a1.968,1.968,0,0,0,1.56.84A2.286,2.286,0,0,0,92.16.54c10.32-3.72,15.96-10.08,15.96-19.32,0-9.06-5.88-15.24-14.94-15.24-6.3,0-11.82,2.58-17.22,7.02Zm47.88-1.86c-2.22.36-5.1.9-6.78,1.14a57.422,57.422,0,0,1-6.42.6,23.574,23.574,0,0,0,1.68,6c.36.78.78,1.02,1.56.66a17.516,17.516,0,0,1,2.7-.9c2.28-.48,4.2-.84,7.26-1.26,0,6.36.12,11.4.42,14.64C124.98-1.98,128.52.54,140.64.54a137.961,137.961,0,0,0,15.06-.9c.54-.06.78-.36.78-1.08a36.894,36.894,0,0,0-.36-5.04c-.12-.72-.3-.84-1.2-.78a111.287,111.287,0,0,1-15.54,1.2c-7.32,0-8.64-.96-9-5.88-.24-3.42-.18-7.02-.12-13.56,4.62-.72,9.84-1.32,14.64-1.68-.06,2.34-.18,4.5-.42,6.36-.3,2.1-1.2,2.58-2.82,2.58a18.878,18.878,0,0,1-5.1-.72,14.565,14.565,0,0,1,1.32,5.4c0,1.08.24,1.5,1.2,1.56a27.018,27.018,0,0,0,3.72.18c4.5,0,7.2-1.98,7.86-6.66a92.268,92.268,0,0,0,.72-9.24c3.96-.3,7.98-.48,11.94-.48.66,0,.78-.06.78-.84a44.862,44.862,0,0,0,0-4.92c0-.54-.24-.6-.72-.6-3.24.12-6.84.3-11.7.66.06-2.82.12-5.16.24-8.4a10.357,10.357,0,0,1,.6-2.7,2.842,2.842,0,0,0,.36-1.2c0-.6-.3-.9-1.14-1.14a41.9,41.9,0,0,0-7.26-1.2,26.611,26.611,0,0,1,.78,6.84c0,2.22,0,5.46-.06,8.46-4.32.48-10.68,1.14-14.82,1.68.06-2.04.06-4.32.12-5.76a8.046,8.046,0,0,1,.6-2.64,3.337,3.337,0,0,0,.36-1.26,1.523,1.523,0,0,0-1.26-1.26A52.378,52.378,0,0,0,123-43.5a24.03,24.03,0,0,1,.84,6.36Zm77.88,15.78a25.039,25.039,0,0,0-4.8-.48c-6.06,0-10.5,3.54-10.5,8.46,0,5.16,3.84,8.4,10.74,8.4,7.08,0,10.5-2.76,10.98-7.8a35.63,35.63,0,0,1,6.48,4.8.829.829,0,0,0,.54.3.726.726,0,0,0,.54-.36,32.414,32.414,0,0,0,2.76-4.62c.3-.66.24-.84-.3-1.2a39.266,39.266,0,0,0-9.96-5.76c-.3-5.16-.42-9.36-.42-16.08a67.612,67.612,0,0,0,9.24-1.26c.42-.06.66-.36.66-.9a23.986,23.986,0,0,0-.36-4.26c-.12-.66-.24-.9-.96-.72-2.58.42-5.7.84-8.52,1.08,0-2.76,0-4.32.12-6.36a6.769,6.769,0,0,1,.48-2.1,2.573,2.573,0,0,0,.36-1.02c0-.54-.42-.84-1.08-1.02a33.4,33.4,0,0,0-7.26-1.14,24.734,24.734,0,0,1,.78,5.88c0,2.22.06,4.14.06,6.3a86.8,86.8,0,0,1-13.68-.18,36.759,36.759,0,0,0,.42,5.46c.06.6.3.78,1.08.78a121.33,121.33,0,0,0,12.36.06C201.54-23.94,201.6-19.56,201.72-14.94Zm.12,5.7a8.451,8.451,0,0,1,.06,1.2c0,2.16-1.92,3.9-4.92,3.9-3.54,0-4.86-1.14-4.86-3s1.68-2.88,4.5-2.88A16.712,16.712,0,0,1,201.84-9.24ZM174-46.86a30.2,30.2,0,0,1-.42,7.08c-1.98,12.18-2.46,16.98-2.46,22.74,0,6.9.9,14.04,2.58,18.3.3.84.54.9,1.2.72A25.128,25.128,0,0,0,179.4.96c.54-.18.78-.36.72-.78A11.331,11.331,0,0,1,180.18-3c.24-1.74.96-4.38,3.06-9.12a1.741,1.741,0,0,0,.36-.96,1.3,1.3,0,0,0-.36-.84,15.955,15.955,0,0,1-2.1-3.78c-1.26,3-2.52,5.58-3.72,8.34-.18-2.52-.18-5.28-.18-7.68,0-4.38,1.02-12.78,3-21.84a12.177,12.177,0,0,1,1.08-3.3,3.063,3.063,0,0,0,.42-1.32c0-.48-.24-.84-.9-1.2A46.851,46.851,0,0,0,174-46.86Zm58.2,26.04c-2.28,3.54-3.18,6.12-3.18,8.58,0,7.8,6.9,12.12,20.34,12.12a90.478,90.478,0,0,0,17.88-1.44c.72-.12,1.08-.36,1.02-.9a50.164,50.164,0,0,0-.96-5.88c-.12-.54-.42-.72-1.26-.54a76.333,76.333,0,0,1-16.26,1.74c-10.32,0-14.22-1.86-14.22-5.64a9.86,9.86,0,0,1,1.56-4.56c.3-.48.24-.78-.3-1.08C235.26-19.26,233.76-20.04,232.2-20.82Zm1.32-22.68c-.12,2.16-.24,3.9-.24,5.34,0,.72.24.96.78,1.08a74.888,74.888,0,0,0,10.5,1.02,41.258,41.258,0,0,0,4.92-.18c-2.1,1.26-4.74,2.94-7.86,4.98a14.337,14.337,0,0,1,4.2,1.92,2.52,2.52,0,0,0,1.26.36,2.557,2.557,0,0,0,1.5-.54c4.86-3.12,9-5.1,14.7-5.94.72-.06,1.02-.42,1.02-1.26a39.509,39.509,0,0,0-.3-5.1c-.06-.48-.3-.72-.9-.66-3.84.24-8.34.54-12.72.54A75.692,75.692,0,0,1,233.52-43.5Zm58.98,6.06c-4.62.36-8.34.54-13.02.54.24,1.98.66,4.5.84,5.22a1.024,1.024,0,0,0,1.14.84c3.06,0,6.84-.3,10.08-.54-1.02,6-1.86,10.44-3.18,15.72-.24.9-.48,1.8-.78,2.82a4.093,4.093,0,0,0-.24,1.2c0,.54.36.78,1.32,1.2a16.865,16.865,0,0,0,4.5,1.32c.54.06.72-.18,1.14-.9.54-.78,1.14-1.5,1.68-2.28a19.951,19.951,0,0,1,15.78-7.44c4.56,0,6.84,2.58,6.84,5.7,0,3.78-2.22,6.54-6.84,8.46-4.8,1.98-8.46,2.76-17.22,3.3a11.45,11.45,0,0,1,3.24,4.26c.48,1.14.9,1.44,1.5,1.44A27.793,27.793,0,0,0,303.72,3c6.54-1.02,11.7-2.46,15.3-4.8,4.62-2.94,6.84-6.84,6.84-12.12,0-6.18-5.4-11.34-13.38-11.34a25.953,25.953,0,0,0-17.22,6.36c1.08-4.2,1.92-8.22,2.76-13.2,5.04-.66,8.28-1.32,13.44-2.46.54-.12.72-.3.72-.96a27.153,27.153,0,0,0-.42-4.44c-.12-.78-.42-.84-1.26-.6a109.724,109.724,0,0,1-11.28,2.22c.3-2.1.54-3.3.84-4.92a6.226,6.226,0,0,1,1.02-2.22,1.972,1.972,0,0,0,.42-.96c0-.48-.42-.84-1.2-1.08a39.27,39.27,0,0,0-7.2-1.26,19.907,19.907,0,0,1,.12,5.82C293.04-41.52,292.8-39.54,292.5-37.44Zm54.06-6.72a47.86,47.86,0,0,1,12.12,7.8c.3.3.48.42.72.42.18,0,.42-.18.66-.48a39.291,39.291,0,0,0,3.06-4.2,1.663,1.663,0,0,0,.3-.72c0-.24-.12-.42-.42-.66a39.356,39.356,0,0,0-11.76-7.14,1,1,0,0,0-1.14.3A32.864,32.864,0,0,0,346.56-44.16Zm-4.2,8.34a37.385,37.385,0,0,1-.54,5.4c-.72,5.34-1.5,12.42-1.86,19.38,0,.84.24.96.84,1.2a41.253,41.253,0,0,0,4.08,1.62c.78.18,1.02.18,1.38-.42a16.417,16.417,0,0,1,2.58-3.3c5.64-5.7,12-9.12,17.28-9.12,5.16,0,7.2,2.94,7.2,6.18,0,3.84-2.22,6.96-7.08,9.06-4.02,1.8-9.78,2.94-16.5,3.36a15.35,15.35,0,0,1,4.08,5.1c.54.9,1.08.96,2.4.78,5.16-.66,11.34-2.1,15.36-4.14,5.16-2.58,9.06-6.9,9.06-13.44,0-7.74-5.22-12.84-13.98-12.84-7.32,0-14.52,3.9-20.04,9.48a100.132,100.132,0,0,1,1.44-10.92,11.249,11.249,0,0,1,1.2-3.18,1.785,1.785,0,0,0,.3-.9c0-.48-.3-.84-.96-1.14A33.755,33.755,0,0,0,342.36-35.82Z" transform="translate(1002 15042.697)" fill="#575757"/><g transform="translate(837 14865.023)"><g transform="translate(0 0)" clip-path="url(#a)"><path d="M292.6,3H35.941a32.941,32.941,0,0,0,0,65.881H141.823l22.14,24.5,22.139-24.5H292.6A32.941,32.941,0,0,0,292.6,3Z" transform="translate(0.729 0.73)" fill="none" stroke="#575757" stroke-miterlimit="10" stroke-width="6"/><path d="M292.6,3H35.941a32.941,32.941,0,0,0,0,65.881H141.823l22.14,24.5,22.139-24.5H292.6A32.941,32.941,0,0,0,292.6,3" transform="translate(0.729 0.73)" fill="#fff"/><path d="M60.607,27.129a7.737,7.737,0,0,0-6.213-3.069,7.581,7.581,0,0,0-3.013.592,7.221,7.221,0,0,0-3.955,4.03,7.935,7.935,0,0,0-.573,3.032,8.039,8.039,0,0,0,.573,3.069A7.4,7.4,0,0,0,54.36,39.44a8.392,8.392,0,0,0,6.248-2.957v8.578l-.741.259a21.233,21.233,0,0,1-3.105.869,15.117,15.117,0,0,1-2.848.278,14.557,14.557,0,0,1-10.186-4.16,15.3,15.3,0,0,1-3.234-4.695,15.046,15.046,0,0,1-.017-11.833,14.724,14.724,0,0,1,13.476-8.745,15.324,15.324,0,0,1,3.272.352,19.939,19.939,0,0,1,3.384,1.09Z" transform="translate(9.545 4.141)" fill="#fd0"/><path d="M60.607,27.129a7.737,7.737,0,0,0-6.213-3.069,7.581,7.581,0,0,0-3.013.592,7.221,7.221,0,0,0-3.955,4.03,7.935,7.935,0,0,0-.573,3.032,8.039,8.039,0,0,0,.573,3.069A7.4,7.4,0,0,0,54.36,39.44a8.392,8.392,0,0,0,6.248-2.957v8.578l-.741.259a21.233,21.233,0,0,1-3.105.869,15.117,15.117,0,0,1-2.848.278,14.557,14.557,0,0,1-10.186-4.16,15.3,15.3,0,0,1-3.234-4.695,15.046,15.046,0,0,1-.017-11.833,14.724,14.724,0,0,1,13.476-8.745,15.324,15.324,0,0,1,3.272.352,19.939,19.939,0,0,1,3.384,1.09Z" transform="translate(9.545 4.141)" fill="none" stroke="#575757" stroke-miterlimit="10" stroke-width="2"/><path d="M65.062,31.75a14.367,14.367,0,0,1,9.189-13.589,17.726,17.726,0,0,1,12.442,0,14.737,14.737,0,0,1,4.9,3.125,14.3,14.3,0,0,1,3.2,4.678,15.18,15.18,0,0,1,0,11.573,14.3,14.3,0,0,1-3.2,4.678,14.737,14.737,0,0,1-4.9,3.125,17.726,17.726,0,0,1-12.442,0,14.564,14.564,0,0,1-4.863-3.125A14.487,14.487,0,0,1,65.062,31.75m7.58,0a7.427,7.427,0,0,0,.628,3.069,7.751,7.751,0,0,0,1.7,2.44,7.665,7.665,0,0,0,2.5,1.608,8.2,8.2,0,0,0,6.025,0,7.915,7.915,0,0,0,2.516-1.608,7.641,7.641,0,0,0,1.719-2.44,7.8,7.8,0,0,0,0-6.138,7.641,7.641,0,0,0-1.719-2.44,8.131,8.131,0,0,0-8.541-1.608,7.682,7.682,0,0,0-4.2,4.049,7.431,7.431,0,0,0-.628,3.069" transform="translate(15.813 4.141)" fill="#fd0"/><path d="M65.062,31.75a14.367,14.367,0,0,1,9.189-13.589,17.726,17.726,0,0,1,12.442,0,14.737,14.737,0,0,1,4.9,3.125,14.3,14.3,0,0,1,3.2,4.678,15.18,15.18,0,0,1,0,11.573,14.3,14.3,0,0,1-3.2,4.678,14.737,14.737,0,0,1-4.9,3.125,17.726,17.726,0,0,1-12.442,0,14.564,14.564,0,0,1-4.863-3.125A14.487,14.487,0,0,1,65.062,31.75Zm7.58,0a7.427,7.427,0,0,0,.628,3.069,7.751,7.751,0,0,0,1.7,2.44,7.665,7.665,0,0,0,2.5,1.608,8.2,8.2,0,0,0,6.025,0,7.915,7.915,0,0,0,2.516-1.608,7.641,7.641,0,0,0,1.719-2.44,7.8,7.8,0,0,0,0-6.138,7.641,7.641,0,0,0-1.719-2.44,8.131,8.131,0,0,0-8.541-1.608,7.682,7.682,0,0,0-4.2,4.049A7.431,7.431,0,0,0,72.642,31.75Z" transform="translate(15.813 4.141)" fill="none" stroke="#575757" stroke-miterlimit="10" stroke-width="2"/><path d="M99.536,45.538V17.659h7.247L120.168,34.7V17.659h7.21V45.538h-7.21L106.783,28.492V45.538Z" transform="translate(24.192 4.292)" fill="#fd0"/><path d="M99.536,45.538V17.659h7.247L120.168,34.7V17.659h7.21V45.538h-7.21L106.783,28.492V45.538Z" transform="translate(24.192 4.292)" fill="none" stroke="#575757" stroke-miterlimit="10" stroke-width="2"/><path d="M143.669,23.8V45.537h-7.246V23.8h-5.953V17.66h19.152V23.8Z" transform="translate(31.71 4.293)" fill="#fd0"/><path d="M143.669,23.8V45.537h-7.246V23.8h-5.953V17.66h19.152V23.8Z" transform="translate(31.71 4.293)" fill="none" stroke="#575757" stroke-miterlimit="10" stroke-width="2"/><path d="M172.018,40.7H161.665L160,45.538h-7.728l10.612-27.879H170.8L181.41,45.538h-7.728Zm-1.923-5.509L166.841,25.9l-3.253,9.282Z" transform="translate(37.009 4.292)" fill="#fd0"/><path d="M172.018,40.7H161.665L160,45.538h-7.728l10.612-27.879H170.8L181.41,45.538h-7.728Zm-1.923-5.509L166.841,25.9l-3.253,9.282Z" transform="translate(37.009 4.292)" fill="none" stroke="#575757" stroke-miterlimit="10" stroke-width="2"/><path d="M204.542,27.129a7.734,7.734,0,0,0-6.212-3.069,7.581,7.581,0,0,0-3.013.592,7.218,7.218,0,0,0-3.957,4.03,7.957,7.957,0,0,0-.572,3.032,8.062,8.062,0,0,0,.572,3.069,7.4,7.4,0,0,0,6.934,4.658,8.388,8.388,0,0,0,6.248-2.957v8.578l-.74.259a21.277,21.277,0,0,1-3.105.869,15.127,15.127,0,0,1-2.848.278,14.557,14.557,0,0,1-10.186-4.16,15.281,15.281,0,0,1-3.236-4.695,14.333,14.333,0,0,1-1.219-5.936,14.228,14.228,0,0,1,1.2-5.9,14.727,14.727,0,0,1,13.476-8.745,15.307,15.307,0,0,1,3.272.352,19.9,19.9,0,0,1,3.384,1.09Z" transform="translate(44.528 4.141)" fill="#fd0"/><path d="M204.542,27.129a7.734,7.734,0,0,0-6.212-3.069,7.581,7.581,0,0,0-3.013.592,7.218,7.218,0,0,0-3.957,4.03,7.957,7.957,0,0,0-.572,3.032,8.062,8.062,0,0,0,.572,3.069,7.4,7.4,0,0,0,6.934,4.658,8.388,8.388,0,0,0,6.248-2.957v8.578l-.74.259a21.277,21.277,0,0,1-3.105.869,15.127,15.127,0,0,1-2.848.278,14.557,14.557,0,0,1-10.186-4.16,15.281,15.281,0,0,1-3.236-4.695,14.333,14.333,0,0,1-1.219-5.936,14.228,14.228,0,0,1,1.2-5.9,14.727,14.727,0,0,1,13.476-8.745,15.307,15.307,0,0,1,3.272.352,19.9,19.9,0,0,1,3.384,1.09Z" transform="translate(44.528 4.141)" fill="none" stroke="#575757" stroke-miterlimit="10" stroke-width="2"/><path d="M221.1,23.8V45.537h-7.246V23.8H207.9V17.66h19.152V23.8Z" transform="translate(50.529 4.293)" fill="#fd0"/><path d="M221.1,23.8V45.537h-7.246V23.8H207.9V17.66h19.152V23.8Z" transform="translate(50.529 4.293)" fill="none" stroke="#575757" stroke-miterlimit="10" stroke-width="2"/></g></g></g></svg>