<svg xmlns="http://www.w3.org/2000/svg" viewBox="0 0 522.31 160.82"><defs><style>.cls-1{fill:#fff;}.cls-2{fill:none;stroke:#fff;stroke-miterlimit:10;stroke-width:2px;}</style></defs><g id="レイヤー_2" data-name="レイヤー 2"><g id="PC文字とイラスト"><path class="cls-1" d="M7.92,63.42c0,1,.07,2.33.07,3.31a3.06,3.06,0,0,1-.36,1.9,1.84,1.84,0,0,1-1.36.57c-.63,0-.63,0-.7-.6a2.72,2.72,0,0,0-.43-1.49,3.38,3.38,0,0,0,.53,0c.26,0,.36-.12.36-.62V58.86H5v11.4c0,2.52,0,3.74,0,3.86s0,.27-.27.27H3.12c-.26,0-.29,0-.29-.27s0-1.34,0-3.86V58.86H2v7.65c0,1.78,0,2.64,0,2.79s0,.24-.28.24H.26c-.24,0-.26,0-.26-.24s.05-1,.05-2.83V59.84C.05,58,0,57.13,0,57s0-.29.26-.29.7,0,2.31,0h.31v-.84a24.27,24.27,0,0,0-.17-3.44A22,22,0,0,1,5,52.64c.24,0,.35.12.35.24a2.87,2.87,0,0,1-.14.6A13,13,0,0,0,5,55.88v.87h.38c1.61,0,2.14,0,2.29,0S8,56.72,8,57s0,1.08,0,3Zm4-7.85c-2.21,0-2.95,0-3.1,0s-.29,0-.29-.27v-1.7c0-.27,0-.29.29-.29s.89,0,3.1,0h6c2.24,0,3,0,3.15,0s.26,0,.26.29v1.7c0,.24,0,.27-.26.27s-.91,0-3.15,0Zm-.7,18.55c0,.22,0,.24-.28.24H9.24c-.24,0-.26,0-.26-.24s0-.84,0-4.63V67.11C9,64.74,9,64,9,63.87s0-.26.26-.26.91,0,3.07,0h5.33c2.19,0,2.95,0,3.1,0s.26,0,.26.12-.05.89-.05,3.05v2.66c0,3.77.05,4.44.05,4.59s0,.26-.26.26H19c-.24,0-.27,0-.27-.26v-.82H11.23Zm5.6-17.23c2,0,2.64,0,2.78,0s.29,0,.29.27,0,.52,0,1.6v1.76c0,1.08,0,1.48,0,1.63s0,.24-.29.24-.79-.05-2.78-.05H13c-2,0-2.64.05-2.81.05s-.27,0-.27-.24.05-.55.05-1.63V58.71c0-1.08-.05-1.44-.05-1.6s0-.27.27-.27.84,0,2.81,0Zm-3,10.56V65.53H11.23v1.92Zm0,3.89v-2H11.23v2Zm3.82-12.7H12.17v1.9h5.45ZM16,65.53v1.92h2.73V65.53Zm2.73,5.81v-2H16v2Z"/><path class="cls-1" d="M27.77,60.61a40.44,40.44,0,0,1-.67,7.7,16.43,16.43,0,0,1-1.92,5.31c-.17.31-.27.46-.39.46s-.24-.12-.48-.39a7.91,7.91,0,0,0-1.61-1.34,13.33,13.33,0,0,0,2-5,36.51,36.51,0,0,0,.55-7.18c0-3,0-4.36,0-4.51s0-.26.26-.26,1,0,3.27,0h4.77v-1a9.6,9.6,0,0,0-.14-1.94c.91,0,1.7.07,2.54.14.24,0,.39.1.39.24a.84.84,0,0,1-.15.46,2.35,2.35,0,0,0-.17,1v1.11h4.88c2.28,0,3.07,0,3.21,0s.24,0,.24.26v1.83c0,.26,0,.28-.24.28s-.93,0-3.21,0H27.77ZM38.91,64.5c.31-.15.36-.17.5,0a57.4,57.4,0,0,1,4.61,8c.09.24.07.34-.22.48L42,74c-.29.14-.41.07-.51-.17-.31-.72-.62-1.44-1-2.16-3.1.55-7.25,1.18-11.18,1.61a2.3,2.3,0,0,0-.89.26.77.77,0,0,1-.39.15c-.16,0-.26-.1-.36-.36-.19-.68-.38-1.54-.57-2.5.86,0,1.65,0,2.73,0a68.16,68.16,0,0,0,3-9.5A12.49,12.49,0,0,0,33.22,59a24.5,24.5,0,0,1,2.66.72c.34.09.41.21.41.4a.68.68,0,0,1-.22.48,3.43,3.43,0,0,0-.6,1.35,76,76,0,0,1-2.85,8.52c2.35-.27,4.75-.58,6.89-1a41.29,41.29,0,0,0-2.36-3.87c-.12-.19-.09-.28.2-.43Z"/><path class="cls-1" d="M51.14,56.63c.22.09.39.26.39.43a2.11,2.11,0,0,1-.19.67,10.46,10.46,0,0,0-.22,2.35,30.47,30.47,0,0,0,.43,5.47c.34,1.9,1,3.53,2,3.53.77,0,1.37-.84,2.31-3.33a8.68,8.68,0,0,0,1.53,1.84.74.74,0,0,1,.17.89c-.91,2.45-2.4,3.75-4.08,3.75C51.58,72.23,49.61,70,49,66a43.92,43.92,0,0,1-.58-7,13,13,0,0,0-.28-3.15A10.52,10.52,0,0,1,51.14,56.63Zm11.14,1.51a.72.72,0,0,1,.26-.1.38.38,0,0,1,.27.15,15.84,15.84,0,0,1,4.7,8.2c.08.32-.07.41-.26.53a7.72,7.72,0,0,1-1.87,1c-.29.1-.46,0-.51-.26a16.14,16.14,0,0,0-4.49-8.38C61.3,58.67,61.9,58.33,62.28,58.14Z"/><path class="cls-1" d="M73.18,69.06c-2.12,0-2.86,0-3,0s-.27,0-.27-.27V67c0-.22,0-.24.27-.24s.88,0,3,0h.57V63.39c0-1.36,0-2,0-2.16s0-.26.28-.26,1,.05,3.29.05h3.07V57.83H75.43a21.32,21.32,0,0,1-2.81,3.43c-.24.26-.38.38-.5.38s-.24-.14-.48-.45a4.9,4.9,0,0,0-1.34-1.3,17.76,17.76,0,0,0,4.44-5.81,7.5,7.5,0,0,0,.62-1.75c.86.17,1.66.34,2.31.53.28.09.43.21.43.41s-.12.28-.29.45a2.4,2.4,0,0,0-.6.86l-.48,1h9.91c2.33,0,3.15,0,3.29,0s.26,0,.26.26v1.78c0,.24,0,.26-.26.26s-1,0-3.29,0H83V61h2.56c2.36,0,3.15-.05,3.29-.05s.24,0,.24.26V63c0,.24,0,.27-.24.27s-.93,0-3.29,0H83v3.5H88c2.12,0,2.86,0,3,0s.27,0,.27.24v1.89c0,.24,0,.27-.27.27s-.88,0-3,0H83v1.17c0,2.52,0,3.8,0,3.92s0,.26-.26.26H80.59c-.26,0-.28,0-.28-.26s0-1.4,0-3.92V69.06Zm7.17-2.31v-3.5h-4v3.5Z"/><path class="cls-1" d="M96.26,65.17c0-.79,0-1.75,0-2.69-.57.77-1.2,1.51-1.82,2.21-.19.22-.34.34-.46.34s-.24-.12-.31-.41a8,8,0,0,0-.91-2.14A22.59,22.59,0,0,0,98,54.2a10.29,10.29,0,0,0,.41-1.7,19.32,19.32,0,0,1,2.3.77c.27.11.38.19.38.35s-.07.27-.26.44a1.9,1.9,0,0,0-.48,1,30,30,0,0,1-1.56,3.5v12c0,2.33,0,3.5,0,3.62s0,.27-.29.27h-2c-.26,0-.28,0-.28-.27s0-1.29,0-3.62ZM111.1,59c2.18-.24,3-.38,3.26-.41s.27,0,.29.24l.14,1.85c0,.24,0,.27-.24.29l-3.28.36-3.6.41a21.43,21.43,0,0,0,1.53,5.54c1.11,2.6,2.26,3.8,2.86,3.8.38,0,.79-.94,1-3.39a5.07,5.07,0,0,0,1.56,1c.72.31.7.36.58,1.08-.46,3.07-1.4,4.44-2.86,4.44-2.23,0-4.18-2.69-5.47-5.81A26.09,26.09,0,0,1,105.19,62l-1.63.16c-2.18.22-3,.39-3.21.41s-.29,0-.32-.26l-.19-1.9c0-.26,0-.26.27-.29s1-.07,3.24-.28l1.56-.17c-.1-1.15-.2-2.31-.24-3.51a29.09,29.09,0,0,0-.27-3.4,21.78,21.78,0,0,1,2.57.14c.26,0,.41.14.41.29a1,1,0,0,1-.15.5,9,9,0,0,0-.07,2.4c0,1.11.1,2.21.22,3.29ZM110,53.48c.12-.1.19-.14.27-.14s.12,0,.21.14a17.12,17.12,0,0,1,2.64,2.83c.17.22.17.29-.12.53l-1.37,1a.73.73,0,0,1-.26.16c-.07,0-.12-.07-.19-.16a16.78,16.78,0,0,0-2.55-3,.33.33,0,0,1-.14-.22c0-.07.1-.14.24-.24Z"/><path class="cls-1" d="M129,57.8a30.49,30.49,0,0,1-3,10.35c-1,1.8-2.28,2.76-4.08,2.76-2.12,0-4.25-2.26-4.25-6.17a8.82,8.82,0,0,1,2.71-6.24,10.48,10.48,0,0,1,7.8-3.07c5.76,0,9.14,3.55,9.14,8.32,0,4.47-2.52,7.28-7.39,8.74-.5.14-.72.05-1-.43a5,5,0,0,0-1.68-1.51c4.06-1,7.25-2.64,7.25-7.18a5.45,5.45,0,0,0-5.38-5.57Zm-6.89,2.33a6.88,6.88,0,0,0-1.88,4.44c0,2.21.89,3.43,1.64,3.43s1.15-.31,1.8-1.46A27.69,27.69,0,0,0,126.24,58,7.15,7.15,0,0,0,122.14,60.13Z"/><path class="cls-1" d="M156.91,67.55c1.23,0,2.5,0,3.72,0,.46,0,.53.07.53.41a11.3,11.3,0,0,1,0,1.84c0,.39-.07.48-.41.46-1.36,0-2.85,0-4.27,0H145.15c-1.63,0-2.9.07-3.79.07-.41,0-.48-.07-.53-.45a21.11,21.11,0,0,1-.17-2.33c1.37.1,2.88.12,4.28.12h7.32l1.12-7.92h-5.25c-1.15,0-2.38.05-3.41.12-.24,0-.29-.14-.34-.48a21,21,0,0,1-.21-2.38c1.22.1,2.59.15,4.1.15h4.27a3.73,3.73,0,0,0,1.78-.24,1,1,0,0,1,.39-.15.49.49,0,0,1,.33.15,9.33,9.33,0,0,1,1.9,1.65.65.65,0,0,1,.21.44.67.67,0,0,1-.24.48,2.64,2.64,0,0,0-.64,1.58l-1,6.58Z"/><path class="cls-1" d="M169.25,65.1a19,19,0,0,0-3.53.29c-.29,0-.48-.15-.55-.51a24.64,24.64,0,0,1-.36-2.9,30.78,30.78,0,0,0,5.18.29h7.73c1.82,0,3.67-.05,5.52-.08.36,0,.43.05.43.34a17,17,0,0,1,0,2.26c0,.28-.09.38-.43.36-1.8,0-3.57-.05-5.35-.05Z"/><path class="cls-1" d="M203.79,59.27c1.17,0,2.52,0,3.62-.08.29,0,.31.12.34.39a14.9,14.9,0,0,1,0,1.89c0,.32-.08.41-.41.39-.82,0-2.28,0-3.46,0h-1c-.15,3.44-.67,5.45-1.85,7.4a11.27,11.27,0,0,1-5.67,4.46,2.06,2.06,0,0,1-.67.22c-.14,0-.26-.08-.45-.27a5.63,5.63,0,0,0-2-1.44c3.4-1,5.25-2.28,6.48-4.25.93-1.53,1.32-3.19,1.41-6.12h-5.11v.87c0,1.41,0,2.71.07,4,0,.27-.14.31-.41.34a14.16,14.16,0,0,1-2.06,0c-.31,0-.46-.07-.43-.34.07-1.25.12-2.42.12-3.93v-.92h-.72c-1.3,0-3.22.08-4,.12-.2,0-.27-.14-.29-.45a21.17,21.17,0,0,1-.17-2.33c1,.07,2.57.12,4.42.12h.72V57.54a16.66,16.66,0,0,0-.29-3.53,24.45,24.45,0,0,1,2.93.38c.26,0,.36.17.36.34a1.46,1.46,0,0,1-.15.5,6.38,6.38,0,0,0-.16,2.31v1.75h5.16l0-2.35a16,16,0,0,0-.22-3.29,22.28,22.28,0,0,1,2.81.41c.34.07.43.19.43.38a1.26,1.26,0,0,1-.09.43A6.61,6.61,0,0,0,203,57v2.28Zm1.2-5.81a.25.25,0,0,1,.33.09,11.12,11.12,0,0,1,1.85,2.91c.07.17.05.26-.14.36l-1,.5c-.19.1-.31,0-.41-.14a11.1,11.1,0,0,0-1.94-3.12Zm2.25-1c.15-.07.22,0,.34.1a10.34,10.34,0,0,1,1.85,2.81.27.27,0,0,1-.15.41l-1,.48c-.21.09-.31,0-.38-.12A11.49,11.49,0,0,0,206,53Z"/><path class="cls-1" d="M216.05,65.1a19,19,0,0,0-3.53.29c-.29,0-.48-.15-.55-.51a27,27,0,0,1-.36-2.9,30.78,30.78,0,0,0,5.18.29h7.73c1.83,0,3.67-.05,5.52-.08.36,0,.43.05.43.34a17,17,0,0,1,0,2.26c0,.28-.09.38-.43.36-1.8,0-3.57-.05-5.35-.05Z"/><path class="cls-1" d="M247.08,69.06c0,.26-.14.38-.46.43a12.57,12.57,0,0,1-1.7.12c-.21,0-.31-.14-.31-.38,0-.87,0-2.07,0-2.93-2.13,1.1-2.9,2-2.9,3.19s.81,1.66,3.34,1.66a41.62,41.62,0,0,0,6-.48c.22,0,.31,0,.34.26a10.7,10.7,0,0,1,.21,2c0,.29-.07.45-.26.45a41.67,41.67,0,0,1-6,.32c-3.94,0-6-1.18-6-4,0-2.31,1.44-4,5.07-5.86-.07-1.22-.36-1.7-1.44-1.66a5.79,5.79,0,0,0-3.31,1.73,32.17,32.17,0,0,0-2.41,2.62c-.12.14-.19.21-.28.21a.49.49,0,0,1-.27-.16A12.39,12.39,0,0,1,235.34,65a.38.38,0,0,1-.09-.21c0-.1.05-.17.17-.27a24.51,24.51,0,0,0,5-5.95c-1.13,0-2.42.07-3.84.07-.21,0-.29-.12-.33-.38s-.17-1.27-.24-2a53.51,53.51,0,0,0,5.52,0,19.41,19.41,0,0,0,.72-2.06,6.18,6.18,0,0,0,.17-1.47,16.23,16.23,0,0,1,2.73.67.44.44,0,0,1,.29.41.46.46,0,0,1-.17.36,2,2,0,0,0-.41.58c-.14.34-.26.65-.55,1.3a38,38,0,0,0,4.37-.75c.26-.05.34,0,.38.24a7.83,7.83,0,0,1,.24,1.73c0,.24-.07.34-.4.38-1.8.27-3.87.53-5.62.72a24.53,24.53,0,0,1-1.8,2.67l0,0a4.76,4.76,0,0,1,2.4-.75,2.65,2.65,0,0,1,2.93,2.59c.94-.43,2.31-1,3.53-1.68a7.19,7.19,0,0,0,1.82-1.29,14.06,14.06,0,0,1,1.68,2.11.93.93,0,0,1,.2.53c0,.19-.12.29-.36.33a9,9,0,0,0-1.47.36c-1.56.56-3.12,1.08-5.16,1.92Z"/><path class="cls-1" d="M265.8,58.55c.1-1.18.15-1.95.17-3.24a8.85,8.85,0,0,0-.17-1.9,19.59,19.59,0,0,1,3.12.5.51.51,0,0,1,.41.51,1.08,1.08,0,0,1-.12.45A2.22,2.22,0,0,0,268.9,56c-.07.77-.1,1.35-.22,2.52h3.65c1.1,0,2.23-.05,3.34-.05.38,0,.5.08.5.34s-.05,1.27-.1,2.54a41,41,0,0,1-.88,7.9c-.48,1.85-1.3,2.86-2.84,3.24a10.33,10.33,0,0,1-2.42.26.58.58,0,0,1-.58-.48A5,5,0,0,0,268,70.09a10,10,0,0,0,3.27-.21c.64-.22,1-.61,1.24-1.69a32.92,32.92,0,0,0,.72-7.2h-4.84a17.76,17.76,0,0,1-2.14,6.65,15.49,15.49,0,0,1-5.09,5,1.07,1.07,0,0,1-.55.19.62.62,0,0,1-.46-.24,6.12,6.12,0,0,0-2-1.39,13.46,13.46,0,0,0,5.64-4.9,14,14,0,0,0,1.72-5.18H263.3q-1.76,0-3.45.12c-.24,0-.34-.12-.36-.41a21.24,21.24,0,0,1-.19-2.33c1.51.1,2.59.1,4,.1Z"/><path class="cls-1" d="M285.55,61.52A11.87,11.87,0,0,0,286.63,58a23.1,23.1,0,0,1,3,1.22.41.41,0,0,1,.29.39.74.74,0,0,1-.24.48,4.38,4.38,0,0,0-.84,1.46,26.73,26.73,0,0,1-5.14,8.07A.91.91,0,0,1,283,70a.79.79,0,0,1-.55-.24,6.64,6.64,0,0,0-2.12-1A21.18,21.18,0,0,0,285.55,61.52Zm9-3.26a.56.56,0,0,1,.34-.15c.12,0,.21,0,.36.2a30.14,30.14,0,0,1,6,8.8.63.63,0,0,1,.1.34.48.48,0,0,1-.24.38,14.94,14.94,0,0,1-2,1.28c-.31.14-.48.09-.57-.22a31.38,31.38,0,0,0-5.93-9.34C293.47,59,294.12,58.52,294.53,58.26Zm2.81-2.88c.12-.1.21-.07.36,0A11,11,0,0,1,300,58a.26.26,0,0,1-.07.39l-1,.74a.25.25,0,0,1-.41-.07,11.93,11.93,0,0,0-2.42-2.78Zm2.13-1.56c.15-.1.22-.07.36,0a9.79,9.79,0,0,1,2.28,2.47.27.27,0,0,1-.07.43l-1,.74c-.19.15-.31.08-.41-.07a11.17,11.17,0,0,0-2.4-2.76Z"/><path class="cls-1" d="M309.65,65.1a19,19,0,0,0-3.53.29c-.29,0-.48-.15-.55-.51a24.64,24.64,0,0,1-.36-2.9,30.78,30.78,0,0,0,5.18.29h7.73c1.83,0,3.67-.05,5.52-.08.36,0,.43.05.43.34a17,17,0,0,1,0,2.26c0,.28-.09.38-.43.36-1.8,0-3.57-.05-5.35-.05Z"/><path class="cls-1" d="M328.49,68.34a.51.51,0,0,1,.36-.19.47.47,0,0,1,.31.14,17.78,17.78,0,0,1,4.78,4.39c.14.2.17.27.17.36s-.05.22-.24.39l-1.47,1.24c-.17.15-.26.22-.34.22s-.21,0-.33-.24a17.82,17.82,0,0,0-4.54-4.58c-.14-.1-.21-.17-.21-.24s0-.15.16-.29Z"/><path class="cls-1" d="M343.3,59.1a47.6,47.6,0,0,1-.6,8.73,20.28,20.28,0,0,1-2,5.76c-.17.32-.25.46-.37.46s-.21-.12-.45-.36a10.05,10.05,0,0,0-1.78-1.42,15.23,15.23,0,0,0,2-5.35,46.14,46.14,0,0,0,.58-7.85c0-3.45-.05-4.94-.05-5.08s0-.29.27-.29.95,0,3.24,0h12.07c2.28,0,3.07,0,3.21,0s.27,0,.27.29v1.87c0,.24,0,.26-.27.26s-.93,0-3.21,0h-13Zm3.07,14.09c-2.33,0-3.17,0-3.29,0s-.26,0-.26-.27V71.08c0-.25,0-.27.26-.27s1,0,3.29,0h3.72V64.67h-2c-2.31,0-3.07,0-3.22,0s-.26,0-.26-.26V62.58c0-.24,0-.27.26-.27s.91,0,3.22,0h2V60.15A16.21,16.21,0,0,0,349.9,57c1,0,1.85.08,2.66.17.22,0,.39.15.39.29a1.31,1.31,0,0,1-.15.5,8.14,8.14,0,0,0-.14,2.09v2.28h2.42c2.35,0,3.12,0,3.27,0s.26,0,.26.27v1.87c0,.24,0,.26-.26.26s-.92,0-3.27,0h-2.42v6.19h3.91c2.35,0,3.17,0,3.29,0s.26,0,.26.27V73c0,.24,0,.27-.26.27s-.94,0-3.29,0Z"/><path class="cls-1" d="M364,65.36c0-.84,0-1.92,0-3-.36.53-.72,1.08-1.13,1.61-.17.22-.31.36-.41.36s-.21-.14-.29-.41a7.16,7.16,0,0,0-.84-2A21.61,21.61,0,0,0,365.09,54a7,7,0,0,0,.29-1.68,16.54,16.54,0,0,1,2.3.65c.27.1.41.22.41.38s-.1.29-.27.46a2.43,2.43,0,0,0-.43,1A31,31,0,0,1,366.31,58v12.5c0,2.38.05,3.55.05,3.67s0,.27-.29.27h-1.89c-.22,0-.24,0-.24-.27s0-1.29,0-3.67Zm9.22,1.78v2.54c1.08-.21,2.23-.48,3.39-.76a7.08,7.08,0,0,0-.13,1.46c0,.65,0,.67-.76.86-2,.51-4.51,1.08-6.51,1.47a1.47,1.47,0,0,0-.74.29.49.49,0,0,1-.36.16c-.12,0-.22-.14-.29-.36a18.63,18.63,0,0,1-.55-2.23c.86,0,1.44-.12,2.28-.24.43,0,.89-.14,1.42-.22v-3h-.34c-1.75,0-2.26,0-2.4,0s-.26,0-.26-.27V65.24c0-.24,0-.26.26-.26s.65,0,2.4,0H371V65a15.15,15.15,0,0,0-.17-2.56,19.55,19.55,0,0,1,2.3.16q.36,0,.36.27a1.6,1.6,0,0,1-.09.41,4.94,4.94,0,0,0-.15,1.65V65h.17c1.7,0,2.25,0,2.4,0s.24,0,.24.26v1.68c0,.24,0,.27-.24.27s-.7,0-2.4,0Zm-.77-11a30.66,30.66,0,0,1-1.34,3.67c.86-.07,1.75-.19,2.59-.31-.24-.46-.48-.92-.74-1.35-.15-.19-.15-.31.17-.43l1.24-.46c.24-.09.29-.07.41.12a21.16,21.16,0,0,1,2.11,4.18c.1.24.08.34-.21.46l-1.32.6c-.29.12-.34.09-.41-.1l-.43-1.15c-1.73.31-3.58.57-5.26.79a2,2,0,0,0-.89.24.51.51,0,0,1-.33.12c-.1,0-.17-.12-.24-.34a16.46,16.46,0,0,1-.51-2.13c.53,0,1,0,1.47,0a30.75,30.75,0,0,0,1.37-3.88l-1.73,0c-.24,0-.27,0-.27-.26V54.25c0-.26,0-.29.27-.29s.67,0,2.42,0h2.86c1.75,0,2.28,0,2.4,0s.29,0,.29.29v1.68c0,.24,0,.26-.29.26s-.65,0-2.4,0Zm4.9,2.2a30.39,30.39,0,0,0-.14-3.57,22.54,22.54,0,0,1,2.28.17c.24,0,.33.12.33.24a2.21,2.21,0,0,1-.17.57,16.66,16.66,0,0,0-.07,2.57v6.46c0,2,.05,3,.05,3.14s0,.26-.26.26h-1.81c-.23,0-.26,0-.26-.26s.05-1.1.05-3.14Zm5.81,8c0,1.68.05,3.6.05,4.8s-.12,1.83-.84,2.33-1.32.63-3.27.63c-.74,0-.74,0-.89-.77a4.71,4.71,0,0,0-.72-1.85,19.43,19.43,0,0,0,2.4.17c.68,0,.92-.17.92-.94V56.24a24,24,0,0,0-.17-3.41c.89,0,1.68.08,2.45.17.21,0,.36.15.36.27a1.26,1.26,0,0,1-.15.5,7.55,7.55,0,0,0-.14,2.42Z"/><path class="cls-1" d="M391.8,56.27c1.7,0,2.26-.05,2.42-.05s.27,0,.27.26-.05,1-.05,3.31a17.37,17.37,0,0,0,3.07-5.42,11.77,11.77,0,0,0,.46-2,17.65,17.65,0,0,1,2.38.58c.31.09.5.21.5.38s0,.26-.24.48A3.16,3.16,0,0,0,400,55c-.17.46-.36.89-.55,1.32h4.49c1.73,0,2.28,0,2.42,0s.29,0,.29.28c-.05.68-.05,1.32-.05,2a79.13,79.13,0,0,1-.69,12.16c-.39,2.45-1.37,3.61-3.63,3.65-.53,0-1.2,0-1.82,0s-.7,0-.87-.82a9.51,9.51,0,0,0-.69-1.85,16.35,16.35,0,0,0,3.07.25c.86,0,1.27-.8,1.51-2.07a71.08,71.08,0,0,0,.6-11.3h-5.71a24.49,24.49,0,0,1-2,3c-.24.28-.38.43-.5.43s-.25-.15-.51-.43a7.39,7.39,0,0,0-.84-.75v5c0,5.59.05,6.65.05,6.79s0,.27-.27.27h-1.84c-.24,0-.27,0-.27-.27V71.41h-3.43v1.83c0,.26,0,.28-.29.28h-1.82c-.24,0-.27,0-.27-.28s.05-1.28.05-7.11V62c0-4.18-.05-5.33-.05-5.5s0-.26.27-.26.65.05,2,.05a24.82,24.82,0,0,0,.74-2.52,8.88,8.88,0,0,0,.19-1.37c.87.09,1.76.24,2.48.38.21.05.33.17.33.31s-.05.24-.21.39a1.22,1.22,0,0,0-.34.53c-.26.72-.53,1.53-.82,2.28Zm-3.12,2.13v4.25h3.43V58.4Zm3.43,10.85V64.81h-3.43v4.44Zm6.24-7.51a.6.6,0,0,1,.27-.12c.05,0,.09.05.19.14a20.06,20.06,0,0,1,2.95,4.44c.12.24.1.31-.19.51l-1.49,1c-.12.09-.19.14-.24.14s-.12-.07-.17-.21a21,21,0,0,0-2.8-4.64c-.15-.19-.12-.24.16-.43Z"/><path class="cls-1" d="M420.87,56.6c.21-.07.31-.07.36.19a12.51,12.51,0,0,1,.21,2c0,.21-.09.26-.29.29-1.29.26-2.47.43-4,.64A65.55,65.55,0,0,1,412.51,70c-.09.17-.17.24-.26.24a.71.71,0,0,1-.29-.12,12.3,12.3,0,0,1-1.66-1.22c-.12-.1-.16-.17-.16-.27a.44.44,0,0,1,.12-.29,48.15,48.15,0,0,0,4.15-8.37c-.91.05-1.66.05-2.4.05-.53,0-.72,0-1.32,0-.24,0-.29-.07-.34-.38a12.86,12.86,0,0,1-.24-2c1,.07,1.54.09,2.23.09a27.64,27.64,0,0,0,2.77-.12c.28-1,.45-1.82.62-2.68a9.62,9.62,0,0,0,.14-1.95,24.21,24.21,0,0,1,2.81.5c.24,0,.39.2.39.37a.59.59,0,0,1-.22.45,2.83,2.83,0,0,0-.39.89c-.16.58-.35,1.32-.57,2A25.87,25.87,0,0,0,420.87,56.6Zm.67,6.43a9.22,9.22,0,0,0-.19-1.7,12.88,12.88,0,0,1,2.61.46.36.36,0,0,1,.34.38,2.67,2.67,0,0,1-.15.5,2.53,2.53,0,0,0-.09,1,31.7,31.7,0,0,0,.26,4.08A18.35,18.35,0,0,1,428.64,70c.24.17.27.26.15.5a14.27,14.27,0,0,1-1.11,2c-.07.12-.14.17-.21.17s-.15,0-.24-.15a17.89,17.89,0,0,0-2.93-2c0,2.4-1.73,3.5-4.47,3.5s-4.41-1.34-4.41-3.41,1.73-3.5,4.44-3.5a12.19,12.19,0,0,1,1.89.14C421.61,65.63,421.56,64.16,421.54,63Zm-1.71,6c-1.2,0-2.13.48-2.13,1.39s.67,1.16,2,1.16,2.09-.7,2.09-1.71a2.28,2.28,0,0,0,0-.48A6.12,6.12,0,0,0,419.83,69.08Zm4.47-11.54c.14-.24.26-.27.5-.17a18.43,18.43,0,0,1,4.71,2.26c.14.09.21.16.21.26a.58.58,0,0,1-.09.29,14.9,14.9,0,0,1-1,1.77c-.07.12-.15.17-.22.17a.31.31,0,0,1-.21-.09,20.92,20.92,0,0,0-5-2.62C423.63,58.69,424,58,424.3,57.54Z"/><path class="cls-1" d="M437.42,57.49a16.51,16.51,0,0,0-.26-3.5,17.88,17.88,0,0,1,3,.5c.29.07.4.22.4.38a1,1,0,0,1-.09.36,5.5,5.5,0,0,0-.26,2.28v4.85c0,1.25,0,2.19.07,3,0,.36-.15.48-.53.48h-1.92c-.34,0-.48-.12-.46-.41,0-.84.07-2.23.07-3.27ZM448.73,62c0,3.55-.53,5.93-1.94,7.82a12.41,12.41,0,0,1-5.28,3.77,1.67,1.67,0,0,1-.51.12.75.75,0,0,1-.57-.29,8,8,0,0,0-2.05-1.46,11.67,11.67,0,0,0,5.86-3.51c1.11-1.36,1.61-3.36,1.61-6.4V57.49a18.06,18.06,0,0,0-.26-3.91,14.32,14.32,0,0,1,3.12.53.39.39,0,0,1,.33.4.8.8,0,0,1-.09.39,7.08,7.08,0,0,0-.22,2.61Z"/><path class="cls-1" d="M461.45,65.1a19,19,0,0,0-3.53.29c-.29,0-.48-.15-.55-.51A24.64,24.64,0,0,1,457,62a30.78,30.78,0,0,0,5.18.29h7.73c1.83,0,3.67-.05,5.52-.08.36,0,.43.05.43.34a17,17,0,0,1,0,2.26c0,.28-.09.38-.43.36-1.8,0-3.57-.05-5.35-.05Z"/><path class="cls-1" d="M488.93,61.5c0-.77,0-1.73-.05-2.43,0-.31-.05-.62-.12-1.1a53.68,53.68,0,0,1-5.69.77c-.36,0-.5-.27-.6-.53a6.57,6.57,0,0,0-1.22-1.66,45.29,45.29,0,0,0,7.13-.88,29.89,29.89,0,0,0,4-1,6.88,6.88,0,0,0,2.06-1.08,11.38,11.38,0,0,1,2,1.68,1,1,0,0,1,.31.68c0,.26-.24.31-.62.33s-1,.29-1.52.41c-1.46.41-2.92.77-4.34,1.06a6.58,6.58,0,0,1,1.56.31.36.36,0,0,1,.31.33,1.24,1.24,0,0,1-.14.41,2.4,2.4,0,0,0-.17.82c0,.53,0,1.08,0,1.89h3c1.52,0,3.56-.12,4.64-.16.24,0,.24.12.26.38a17.55,17.55,0,0,1,0,1.92c0,.34,0,.43-.31.43-1.51-.05-2.91-.07-4.66-.07h-2.95a13,13,0,0,1-1.2,4.82,11.39,11.39,0,0,1-3.82,4.49.7.7,0,0,1-.4.17,1,1,0,0,1-.44-.14,9.8,9.8,0,0,0-2.54-.92A10.64,10.64,0,0,0,487.78,68a9.82,9.82,0,0,0,1.05-4h-4.27c-.86,0-2.64,0-3.82.1-.31,0-.38-.17-.45-.56a10.55,10.55,0,0,1-.24-2.18c1.7.14,3.48.17,4.66.17Z"/><path class="cls-1" d="M513.53,60.2a21.34,21.34,0,0,1-1.2,5.79,14.51,14.51,0,0,1-7.25,7.84,2,2,0,0,1-.58.22c-.19,0-.31-.14-.57-.5a5.2,5.2,0,0,0-1.51-1.39c3.91-1.71,6.33-4,7.46-7.13a19,19,0,0,0,1-4.83h-3.75c-2.3,0-3.09,0-3.21,0s-.29,0-.29-.26V58c0-.24,0-.27.29-.27s.91,0,3.21,0H511c0-.69,0-1.39,0-2.09a20.6,20.6,0,0,0-.21-3.19,24.49,24.49,0,0,1,2.83.27c.36,0,.48.16.48.33a1,1,0,0,1-.22.6,6.86,6.86,0,0,0-.19,2c0,.65,0,1.35,0,2h5c2.33,0,3.12,0,3.29,0s.28,0,.28.29c0,.72,0,1.54,0,2.16a69.68,69.68,0,0,1-.75,10.54c-.43,2.3-1.61,3.14-4,3.17a18,18,0,0,1-2.3-.1c-.75-.07-.75-.1-.89-.86a5.85,5.85,0,0,0-.7-1.9,19.29,19.29,0,0,0,3.61.31c.88,0,1.51-.33,1.75-1.61a57.8,57.8,0,0,0,.62-9.55Z"/><path class="cls-1" d="M105.46,157.42c-2.4,0-7,.1-7.37.1-1.1,0-1.47-.36-1.47-1.46,0-.37.16-6.17.16-8.95V129.33c0-2.77-.16-8.79-.16-9.15,0-1.1.32-1.31,1.52-1.31h6.17c1.21,0,1.52.21,1.52,1.31,0,.36-.16,6.38-.16,9.15v18.52c0,1.3.26,1.57,1.57,1.57h3.56c2.46,0,7.74-.11,8.11-.11,1.09,0,1.3.31,1.3,1.52V156c0,1.2-.21,1.51-1.3,1.51-.37,0-5.65-.1-8.11-.1Z"/><path class="cls-1" d="M126.5,157.42c-1.21,0-1.52-.21-1.52-1.31,0-.36.15-6.38.15-9.15V129.33c0-2.77-.15-8.79-.15-9.15,0-1.1.31-1.31,1.52-1.31h6.17c1.2,0,1.51.21,1.51,1.31,0,.36-.15,6.38-.15,9.15V147c0,2.77.15,8.79.15,9.15,0,1.1-.31,1.31-1.51,1.31Z"/><path class="cls-1" d="M148.52,147c0,2.77.15,8.79.15,9.15,0,1.1-.31,1.31-1.51,1.31h-5.81c-1.2,0-1.52-.21-1.52-1.31,0-.36.16-6.38.16-9.15V129.33c0-2.77-.16-8.79-.16-9.15,0-1.1.32-1.31,1.52-1.31h3.45a2.65,2.65,0,0,1,2.57,1.2c1.93,2.36,3.76,4.45,5.65,6.59l10.88,12.4a1.13,1.13,0,0,0,.68.47c.21,0,.36-.26.36-.84v-9.36c0-2.77-.15-8.79-.15-9.15,0-1.1.31-1.31,1.51-1.31h5.81c1.2,0,1.51.21,1.51,1.31,0,.36-.15,6.38-.15,9.15V147c0,2.77.15,8.79.15,9.15,0,1.1-.31,1.31-1.51,1.31h-2.62a2.65,2.65,0,0,1-2.56-1.2c-1.88-2.2-3.61-4.14-5.75-6.54l-11.62-13c-.26-.31-.47-.42-.62-.42s-.42.27-.42.84Z"/><path class="cls-1" d="M193.3,149.42c2.46,0,7.74-.11,8.1-.11,1.1,0,1.31.31,1.31,1.52V156c0,1.2-.21,1.51-1.31,1.51-.36,0-5.64-.1-8.1-.1H188c-2.4,0-7,.1-7.37.1-1.1,0-1.47-.36-1.47-1.46,0-.37.16-6.17.16-8.95V129.17c0-2.77-.16-8.58-.16-8.94,0-1.1.37-1.47,1.47-1.47.36,0,5,.11,7.37.11h4.19c2.45,0,7.74-.11,8.1-.11,1.1,0,1.31.32,1.31,1.52v5.39c0,1.2-.21,1.52-1.31,1.52-.36,0-5.65-.11-8.1-.11h-2.57c-1.3,0-1.57.26-1.57,1.57v3.19c0,1.2.21,1.41,1.42,1.41h1.51c2.46,0,7.74-.1,8.11-.1,1.1,0,1.31.31,1.31,1.52v5c0,1.21-.21,1.52-1.31,1.52-.37,0-5.65-.1-8.11-.1h-1.51c-1.21,0-1.42.21-1.42,1.41v5.39c0,1.3.27,1.57,1.57,1.57Z"/><path class="cls-1" d="M244.4,119.08c2.36,0,4.76-.16,7.17-.16,1.41,0,1.52.52,1.52,2.15v2.82c0,1.73-.11,2.25-1.52,2.25-2.41,0-4.81-.16-7.17-.16H219.87a1.46,1.46,0,0,0-1.46,1.47v7.84A58.52,58.52,0,0,1,215.27,155a25.67,25.67,0,0,1-2.35,5,1.32,1.32,0,0,1-1.21.52c-1.41,0-5.65-1.77-5.65-3.4a9.14,9.14,0,0,1,.63-1.46c.1-.21.16-.37.21-.47,3-6.59,3.87-14,3.87-21.13v-7c0-1.88-.1-3.71-.1-5.49,0-2.25,1.36-2.67,3.29-2.67s4.08.16,6.07.16h5.23a1.45,1.45,0,0,0,1.46-1.57c0-1-.05-2.41-.15-3.35,0-.16-.06-.37-.06-.52,0-.68.58-.73,1.16-.73.36,0,.68,0,1.41,0,2.19.15,5.28.42,6.22.57.53.11.89.26.89.74s-.26.52-.57.78c-.53.52-.53,1.26-.53,2.62a1.45,1.45,0,0,0,1.47,1.41Zm-14.69,29.19a4.9,4.9,0,0,0-.37,1.46c0,.58.47.78,1,.78s7.8-.78,8.95-.89c.68-.05,1.78-.05,1.78-1,0-.52-3-5.18-3.51-6a2.38,2.38,0,0,1-.42-1c0-1,1.73-1.77,3.35-2.56.26-.16.58-.26.84-.42a4.14,4.14,0,0,1,1.83-.68,1.25,1.25,0,0,1,1.1.68c1.41,1.94,3.82,6.12,5.07,8.37.84,1.47,4.76,8.69,4.76,9.84s-5,3.5-6.17,3.5c-.79,0-1-.84-2.2-3.24-.42-.84-.78-1.31-1.78-1.31-.36.1-20.4,2.77-22.59,3a1.1,1.1,0,0,0-.74.63c-.26.42-.47.68-.89.68-.78,0-.94-.68-1.36-2.77-.15-.89-.88-4.08-.88-4.76,0-1,.52-.94,2.3-1.1,1.15-.11,1.57-.16,2-1.36,1.94-6,5.55-17.58,6.33-22.34.11-.62.21-1.2,1-1.2.42,0,4.29,1,6.38,1.67.89.27,2.09.63,2.09,1.21,0,.31-.26.47-.52.57-.73.26-1,.42-1.26,1.1C233.73,136.86,231.69,142.56,229.71,148.27Z"/><path class="cls-1" d="M276.63,119.29c.89,0,1.47-.63,1.47-1.68,0-1.78-.21-3.19-.21-3.66,0-.68.47-.78,1-.78,1,0,4.66.36,6.54.57.47.05,1.1.16,1.1.73,0,.32-.26.53-.58.84-.47.47-.47,1.26-.47,2.51a1.47,1.47,0,0,0,1.47,1.47h5.85c2,0,4.08-.16,6.12-.16,1.21,0,1.31.47,1.31,1.94v2.45c0,2.15-.05,2.36-1.78,2.36-1.09,0-2.82-.16-5.65-.16h-5.85a1.5,1.5,0,0,0-1.47,1.47V130a1.46,1.46,0,0,0,1.47,1.46h9.78c2.3,0,4.6-.1,6.9-.1,1.21,0,1.31.52,1.31,2v2.82c0,1.57-.1,2.09-1.31,2.09-2.3,0-4.6-.1-6.9-.1H266.64c-2.3,0-4.6.1-6.9.1-1.26,0-1.36-.63-1.36-2.35V134.3c0-2.56.05-3,1.41-3,.47,0,.94.05,1.36.05.21,0,.68-.05.68-.37s-.42-.41-.73-.57c-.74-.37-2.57-1.36-2.57-2a4.43,4.43,0,0,1,.79-1.36,47.52,47.52,0,0,0,6.17-12.76c.1-.42.21-.68.73-.68.68,0,4.08.94,5,1.15,1.36.31,2.77.68,2.77,1.46,0,.42-.26.52-.78.73a2.4,2.4,0,0,0-1.2,1.73.69.69,0,0,0,.73.63Zm-3,39a1,1,0,0,0-1.05,1v.42c0,1-.63,1.15-2.4,1.15h-3.4c-1.68,0-2.31-.11-2.31-1.15s.16-3,.16-4.87v-8.1c0-1.21-.1-2.41-.1-3.67,0-2,2-2.09,3.61-2.09s3.5.11,5.23.11h16.47c1.73,0,3.51-.11,5.23-.11,1.57,0,3.61.05,3.61,2.09,0,1.16-.1,2.31-.1,3.67v8.1c0,1.62.16,4.24.16,4.87,0,1-.63,1.15-2.41,1.15h-3.4c-1.62,0-2.3-.11-2.3-1.1v-.42a1,1,0,0,0-1.05-1Zm3-26.84A1.46,1.46,0,0,0,278.1,130v-2.77a1.5,1.5,0,0,0-1.47-1.47h-6.17c-1.67,0-2.15.79-3.14,2.46-.31.52-.73,1.25-1.15,1.93a1.8,1.8,0,0,0-.31.74c0,.42.47.57.83.57ZM289.29,152a1.46,1.46,0,0,0,1.46-1.47v-1.67a1.46,1.46,0,0,0-1.46-1.46H273.86a1.46,1.46,0,0,0-1.47,1.46v1.67a1.48,1.48,0,0,0,1.52,1.47Z"/><path class="cls-1" d="M322,116.25a37.42,37.42,0,0,1,4.24-.42c1.41,0,1.51.11,1.88,4a39.32,39.32,0,0,0,.89,6.33c.15.63.42,1.36,1.2,1.36,1,0,5.65-2.77,6.8-3.45.79-.47,3.45-2.09,4.13-2.09s1.68,1.62,2.41,2.82c.57.94,2.14,3.51,2.14,4.5,0,.58-.57.78-1.67,1.15a7.63,7.63,0,0,1-.73.26A90.05,90.05,0,0,0,326.8,139c-2.51,1.57-6.12,3.92-6.12,6.64,0,3.5,6.64,3.5,9.05,3.5a66.51,66.51,0,0,0,7.95-.41c1.1-.16,4.71-.74,5.55-1,.15,0,.36-.05.52-.05.52,0,.68.89.73,1.31a47.24,47.24,0,0,1,.21,4.76c0,1.57-.05,2-1.41,2.4-2.41.63-11.46.89-14.33.89-4.14,0-7.75-.26-11.41-2.35a10.25,10.25,0,0,1-5.23-8.95c0-5.17,3.72-9.52,7.85-12.18.78-.47,1.25-.74,1.25-1.62a4.27,4.27,0,0,0-.31-1.26c-.42-1.41-.79-2.88-1.15-4.39a77,77,0,0,0-2.2-8,2.83,2.83,0,0,1-.16-.62C317.59,117,318.22,116.72,322,116.25Z"/><path class="cls-1" d="M358.71,122.27c.47-1.68.94-3,1.36-4.71.11-.47.26-1,.79-1s6.64,2.72,7.58,3.14,1.26.73,1.26,1-.21.42-.47.52c-1.36.53-1.73,1.31-2.41,2.67-2,4-3.14,10.67-3.14,15.64,0,1.1,0,2.2.53,2.2s.57-.37.73-.68c.52-1.26.83-1.88,1.31-1.88.73,0,3.39,1.72,3.39,2.51,0,.94-2.92,6.69-2.92,10.25,0,.57.1,1.46.15,2.09a6.31,6.31,0,0,1,.05.94c0,1.41-1.62,2.2-2.77,2.67a9.13,9.13,0,0,1-2.66.68c-.95,0-1.42-.84-2-2-2.51-5.28-3.25-11-3.25-16.79A66.82,66.82,0,0,1,358.71,122.27Zm29.4-4.6c.26,0,.68.15.68.52a1.83,1.83,0,0,1-.42.94,8.21,8.21,0,0,0-.94,4.6c0,.74.36,1.26,1.15,1.26a32.85,32.85,0,0,0,3.87-.89,7.81,7.81,0,0,1,1.36-.31c.79,0,1,1,1.15,1.83a21.75,21.75,0,0,1,.63,4.34c0,1.31-.47,1.57-6.23,2.35-1.15.16-1.72.42-1.72,1.73,0,.68.31,7.79.36,8.52.11,1.26.58,1.36,1.89,2a30.31,30.31,0,0,1,5.59,4,3.11,3.11,0,0,1,1.21,2.2c0,1.46-2.57,4.81-4.13,4.81-.79,0-1.57-.68-2.67-1.73-.21-.21-.42-.36-.63-.57a1.57,1.57,0,0,0-1.05-.63c-.47,0-.62.26-1,.84-1.62,2.61-5.28,3.45-8.16,3.45-4.76,0-9.52-2.36-9.52-7.74,0-5.13,4.39-7.48,9-7.48h1.2a1.15,1.15,0,0,0,1.26-1.31c0-1.2-.27-3.66-.27-4.5,0-1.78-.21-2.61-1.36-2.61-.94,0-4.55.2-6.74.2h-.79c-1.2,0-2.25-.1-2.61-.52s-.47-4.92-.47-5.86c0-.68.15-1.41,1-1.41.31,0,1.93.16,2.41.21,2.14.21,4.28.31,6.38.31.83,0,1.51-.31,1.51-1.25,0-1.1-.57-6.28-.57-7.43,0-.63.21-.89.84-.89C381.41,116.67,386.8,117.46,388.11,117.67Zm-11.82,31.69c0,1,1.67,1.57,2.77,1.57s2.35-.42,2.35-1.83c0-1-1.62-1.1-2.4-1.1S376.29,148.21,376.29,149.36Z"/><path class="cls-1" d="M411,144.55c-.78,0-.88-.42-.88-1.62,0-4.81,3.13-7.74,6.32-10.36,1.68-1.36,3-2.56,3-4.18,0-2.15-1.83-3.35-4.81-3.35a10,10,0,0,0-7.59,4c-.42.52-.68.83-1,.83s-.58-.26-1.05-.73l-3.82-3.82c-.47-.47-.68-.78-.68-1.15s.21-.63.63-1.1A18,18,0,0,1,415.26,117c8.11,0,13.24,4.39,13.24,10.14,0,4.82-2.93,7.22-6.91,10.41-2,1.62-3.35,3.66-3.35,5.86,0,.94-.1,1.15-.94,1.15Zm8.53,7.43a5.11,5.11,0,0,1-5.44,5.39,4.57,4.57,0,0,1-4.81-4.61c0-3.08,1.88-5.59,5.33-5.59A4.73,4.73,0,0,1,419.55,152Z"/><path class="cls-1" d="M243.19,15.89c0,.21-.16.32-.51.48a10,10,0,0,1-3.89.74c-4.76,0-7.81-3.17-7.81-7.89S233.9.55,239.65.55a9.06,9.06,0,0,1,3.31.58c.34.13.5.25.5.46a1.28,1.28,0,0,1-.11.43l-.51,1.38c-.14.35-.21.49-.39.49a1.32,1.32,0,0,1-.46-.14,6.23,6.23,0,0,0-2.46-.53c-3.82,0-5.77,2.69-5.77,5.93s2,5.45,5.33,5.45a6,6,0,0,0,2.67-.57,1,1,0,0,1,.46-.16c.18,0,.28.13.41.48l.44,1.1A1.39,1.39,0,0,1,243.19,15.89Z"/><path class="cls-1" d="M248.32,13.29c0,1,0,2.94,0,3.11,0,.48-.13.57-.66.57h-1.34c-.53,0-.66-.09-.66-.57,0-.17,0-2.07,0-3.11V3.68c0-1,0-2.94,0-3.11,0-.48.13-.57.66-.57h1.34c.53,0,.66.09.66.57,0,.17,0,2.07,0,3.11v2c0,.32,0,.48.18.48a.91.91,0,0,0,.37-.18,5.15,5.15,0,0,1,3-.92,3.77,3.77,0,0,1,3.95,4.11v4.14c0,1,.05,2.94.05,3.11,0,.48-.14.57-.67.57h-1.33c-.53,0-.67-.09-.67-.57,0-.17.05-2.07.05-3.11V9.86A2.09,2.09,0,0,0,251,7.52a3.6,3.6,0,0,0-2.16.76,1.1,1.1,0,0,0-.5,1Z"/><path class="cls-1" d="M268.3,15.34a1.05,1.05,0,0,1,.14.43c0,.21-.14.33-.46.49a8.54,8.54,0,0,1-3.77.85c-4.09,0-5.79-2.69-5.79-5.8,0-3.56,2.25-6.27,5.81-6.27,2.95,0,4.65,2,4.65,5.56,0,1.17-.19,1.36-.78,1.36h-6.51c-.42,0-.58.07-.58.34a2.93,2.93,0,0,0,.49,1.29,3.18,3.18,0,0,0,2.94,1.31,5.51,5.51,0,0,0,2.57-.62,1.32,1.32,0,0,1,.46-.18c.19,0,.28.16.44.48Zm-1.91-5.82a2.5,2.5,0,0,0-.32-1.08,2,2,0,0,0-1.93-1.1,2.93,2.93,0,0,0-2.53,1.28,2.17,2.17,0,0,0-.41,1c0,.18.16.25.53.25h4.07C266.21,9.82,266.37,9.75,266.39,9.52Z"/><path class="cls-1" d="M279.8,16.05c0,.21-.16.32-.48.48a7.26,7.26,0,0,1-2.87.58c-4,0-5.59-2.74-5.59-5.59,0-3.68,2.23-6.46,6.32-6.46a6.77,6.77,0,0,1,2.3.39c.35.11.48.23.51.46a1.24,1.24,0,0,1-.1.41l-.41,1.13c-.14.37-.21.51-.39.51a1.26,1.26,0,0,1-.46-.14,3.77,3.77,0,0,0-1.38-.28,3.64,3.64,0,0,0-3.72,3.91,3.13,3.13,0,0,0,3.28,3.36,4.08,4.08,0,0,0,1.7-.37,1.32,1.32,0,0,1,.46-.14c.19,0,.26.14.4.51l.32.8A1.39,1.39,0,0,1,279.8,16.05Z"/><path class="cls-1" d="M285.37,12.85a.78.78,0,0,0-.21.67c0,.92,0,2.71,0,2.88,0,.48-.14.57-.67.57h-1.29c-.52,0-.66-.09-.66-.57,0-.17,0-2.07,0-3.11V3.68c0-1,0-2.94,0-3.11,0-.48.14-.57.66-.57h1.29c.53,0,.67.09.67.57,0,.17,0,2.07,0,3.11V9.24c0,.3,0,.44.14.44s.19-.09.35-.25l1.61-1.68c.64-.64,1.26-1.31,1.9-2a1.2,1.2,0,0,1,1.15-.53h1.77c.28,0,.42.1.42.21a.44.44,0,0,1-.14.28c-1,1-1.82,1.81-2.62,2.66l-.67.69c-.23.26-.34.39-.34.58a1.17,1.17,0,0,0,.2.53l1.84,3.08c.53.92,1.2,2,2,3.2a.9.9,0,0,1,.18.39c0,.13-.16.18-.5.18h-1.66c-.6,0-.74-.09-1-.6-.53-1-1.06-1.91-1.59-2.78l-1-1.66c-.13-.25-.25-.39-.39-.39s-.25.12-.43.3Z"/><polyline class="cls-2" points="2.38 89.99 250.05 89.99 260.87 101.28 271.18 89.99 520.8 89.99"/></g></g></svg>