<svg xmlns="http://www.w3.org/2000/svg" xmlns:xlink="http://www.w3.org/1999/xlink" width="777.72" height="176.462" viewBox="0 0 777.72 176.462"><defs><clipPath id="a"><rect width="386" height="96.806" fill="none"/></clipPath></defs><g transform="translate(-615.46 -2779.95)"><path d="M-354.3-34.92a50.5,50.5,0,0,1-10.14,17.1c-5.52,6.42-10.86,10.56-19.62,15a17.84,17.84,0,0,1,5.58,3.3,2.105,2.105,0,0,0,1.5.66A2.9,2.9,0,0,0-375.36.6a67.282,67.282,0,0,0,17.04-14.28,70.657,70.657,0,0,0,11.64-19.5,7.223,7.223,0,0,1,1.38-2.34,2.047,2.047,0,0,0,.84-1.5,1.506,1.506,0,0,0-.42-1.02A18.464,18.464,0,0,0-349.26-42a2.934,2.934,0,0,0-1.14-.3,1.693,1.693,0,0,0-.9.24,5.738,5.738,0,0,1-3.3.6h-21.42a104.99,104.99,0,0,1-11.52-.42c.12,1.74.36,4.86.54,6.06.12.84.36,1.26,1.14,1.2,2.58-.12,6-.3,9.9-.3Zm54.84,27.9v3.18c0,.84.06.96.78.96,1.8.06,3.72.06,5.52,0,.84,0,1.14-.18,1.14-1.02-.12-3.24-.3-6.18-.3-11.4V-29.64c0-3.54.06-6.78.06-9.72.06-.9-.12-1.2-.78-1.2-2.82.12-7.38.12-11.28.12H-318.6c-4.02,0-7.56,0-10.74-.18-.42,0-.66.24-.66.84.18,3.48.12,6.72.12,9.96v14.7c0,4.56-.12,8.82-.18,11.94-.06.72.24.84,1.26.9,1.5.06,3.24.06,4.74,0,1.08-.06,1.32-.18,1.32-1.2V-7.02Zm0-6.36H-322.8v-20.7h23.34Zm21.6-24a63.513,63.513,0,0,1,12.24,9.78c.3.3.54.48.78.48s.42-.18.72-.48c.84-.9,2.82-3.3,3.72-4.5a1.29,1.29,0,0,0,.36-.78c0-.24-.18-.48-.54-.84a62.566,62.566,0,0,0-11.46-8.52,1.6,1.6,0,0,0-.78-.3,1.124,1.124,0,0,0-.84.48C-274.8-40.86-276.54-39-277.86-37.38Zm1.32,29.94a41.572,41.572,0,0,0,4.8,6.66,1.555,1.555,0,0,0,1.02.66,1.659,1.659,0,0,0,1.08-.6,20.709,20.709,0,0,1,4.02-2.76A129,129,0,0,0-247.5-15.24a98.07,98.07,0,0,0,13.8-12.72c.66-.78.96-1.26.96-1.8a2.934,2.934,0,0,0-.3-1.14,26.782,26.782,0,0,1-1.68-7.02c-5.1,6.54-9.12,10.38-16.44,16.32a88.935,88.935,0,0,1-17.28,11.16A36.145,36.145,0,0,1-276.54-7.44Zm88.26-17.1c4.14,0,8.28.12,11.4.24.54,0,.9-.24.9-1.02.06-.78.06-3.84,0-4.62,0-.84-.06-1.2-.66-1.2-3.54.24-7.02.36-11.7.36h-26.94c-3.48,0-6.84,0-10.2-.3a36.1,36.1,0,0,0,.48,5.76c.06.78.24,1.2.78,1.14,3.06-.18,6-.36,9-.36h11.4c-.24,5.7-.84,8.94-3.06,12.9-2.52,4.56-6.06,7.5-11.94,10.68a15.761,15.761,0,0,1,5.34,3.18,1.768,1.768,0,0,0,1.26.6,3.654,3.654,0,0,0,1.8-.72A30.224,30.224,0,0,0-199.86-9.24c2.34-4.56,3.18-8.58,3.54-15.3Zm-6.48-13.92c3.3,0,6.84.06,10.08.18.66,0,.78-.3.78-1.14a26.691,26.691,0,0,0,0-4.38c0-.78-.12-1.14-.72-1.14-3,.18-6.78.24-10.14.24H-208.2c-2.7,0-5.76-.06-9.96-.3.18,2.16.24,4.32.42,5.76.06.72.24,1.02,1.02,1.02,3.36-.12,5.76-.24,8.52-.24Zm52.8,15.24c2.1-2.04,3.9-4.02,5.46-5.82a15.144,15.144,0,0,1,2.7-2.46,1.369,1.369,0,0,0,.9-1.14,1.655,1.655,0,0,0-.66-1.08,49.457,49.457,0,0,0-5.52-3.6,16.886,16.886,0,0,1-3.18,5.16,85.352,85.352,0,0,1-24.9,19.5,10.421,10.421,0,0,1,4.32,3,1.666,1.666,0,0,0,1.2.6,1.32,1.32,0,0,0,.78-.24,80.258,80.258,0,0,0,12.42-8.64V-7.68c0,3.18-.12,6.18-.18,9.6-.06.72.3,1.02.96,1.08a32.85,32.85,0,0,0,4.86,0c.72-.06,1.08-.36,1.02-1.08-.06-3.06-.18-6.9-.18-9.78Zm65.1-13.56c-3,4.32-5.94,6.9-10.74,10.5a13.836,13.836,0,0,1,4.98,2.46,2.346,2.346,0,0,0,1.44.6,1.727,1.727,0,0,0,1.26-.54A51.015,51.015,0,0,0-69.36-35.34a7.453,7.453,0,0,1,1.62-1.74,1.566,1.566,0,0,0,.84-1.26,1.74,1.74,0,0,0-.48-1.08,30.753,30.753,0,0,0-3.6-3.78,2.039,2.039,0,0,0-1.38-.84,4.388,4.388,0,0,0-1.14.42,12.639,12.639,0,0,1-4.14.36h-25.74c-4.8,0-8.1-.12-12.18-.42a56.135,56.135,0,0,0,1.08,6.48c.12.54.36.96,1.08.9,3.54-.24,7.2-.48,10.62-.48Zm-35.1,34.86a16.885,16.885,0,0,1,5.46,3.06,1.7,1.7,0,0,0,1.2.54,3.018,3.018,0,0,0,1.68-.6A31.231,31.231,0,0,0-92.7-10.86c2.76-5.34,3.36-10.68,3.54-16.5a5.487,5.487,0,0,1,.54-2.46,2.445,2.445,0,0,0,.3-1.08c0-.54-.24-.96-1.02-1.14a66.608,66.608,0,0,0-7.74-1.14,21.691,21.691,0,0,1,.6,5.64c0,5.82-.66,9.9-2.94,14.16C-102-8.58-105.42-5.34-111.96-1.92Zm79.14-34.86c8.04,0,13.44,6.78,13.44,13.92,0,11.34-7.98,15.54-18.12,17.94a12.725,12.725,0,0,1,4.2,3.78C-32.52.06-31.98.3-30.72-.06-18.54-3.72-12.24-10.74-12.24-21.9c0-11.94-8.46-20.82-22.86-20.82-8.1,0-14.46,2.64-19.5,7.68a22.106,22.106,0,0,0-6.78,15.6c0,9.78,5.34,15.42,10.62,15.42,4.5,0,7.62-2.4,10.2-6.9,3.6-6.3,6.12-15.66,7.5-25.86Zm-7.2.36c-1.02,7.98-3.72,16.62-6.36,21.48-1.62,2.88-2.94,3.66-4.5,3.66-1.86,0-4.08-3.06-4.08-8.58a17.277,17.277,0,0,1,4.68-11.1A18.07,18.07,0,0,1-40.02-36.42ZM30-13.02H9.42c-4.74,0-8.22-.12-11.04-.3a56.884,56.884,0,0,0,.3,6.24c.06.66.3.9.84.9,2.88-.06,6.06-.24,9.84-.24H30v2.4c0,.9.18.96,1.14,1.02a38.765,38.765,0,0,0,5.28,0c.84-.06,1.08-.24,1.08-.84-.06-1.68-.24-6.48-.24-10.86V-29.04c0-3.18.12-6.3.12-9.48.06-.78-.24-1.02-1.2-1.02-3.18.12-6.36.24-9.48.24H8.88a85.834,85.834,0,0,1-10.02-.42c0,1.98.12,4.8.3,6.42,0,.72.24,1.02.9,1.02a82.573,82.573,0,0,1,9-.36H30Zm55.2,0H64.62c-4.74,0-8.22-.12-11.04-.3a56.885,56.885,0,0,0,.3,6.24c.06.66.3.9.84.9,2.88-.06,6.06-.24,9.84-.24H85.2v2.4c0,.9.18.96,1.14,1.02a38.765,38.765,0,0,0,5.28,0c.84-.06,1.08-.24,1.08-.84-.06-1.68-.24-6.48-.24-10.86V-29.04c0-3.18.12-6.3.12-9.48.06-.78-.24-1.02-1.2-1.02-3.18.12-6.36.24-9.48.24H64.08a85.834,85.834,0,0,1-10.02-.42c0,1.98.12,4.8.3,6.42,0,.72.24,1.02.9,1.02a82.573,82.573,0,0,1,9-.36H85.2Zm56.76-30.24a29.772,29.772,0,0,1,6.06,6.96.627.627,0,0,0,1.02.18l2.52-1.86a.605.605,0,0,0,.18-.96,27.615,27.615,0,0,0-5.7-6.42c-.36-.3-.6-.36-.9-.12Zm5.52-3.96a28.384,28.384,0,0,1,6,6.9.615.615,0,0,0,1.02.18L156.9-42a.694.694,0,0,0,.18-1.08,25.057,25.057,0,0,0-5.7-6.18c-.36-.3-.54-.36-.9-.12ZM117.96-33.54c-2.34.36-4.56.66-7.08.9-2.64.24-5.28.42-7.92.42a54.817,54.817,0,0,0,1.86,6.18,1.315,1.315,0,0,0,1.92.78,17.631,17.631,0,0,1,3.3-.96c1.62-.3,3.54-.66,5.88-1.02A126.516,126.516,0,0,1,104.94-3.72a1.117,1.117,0,0,0-.24.66,1.234,1.234,0,0,0,.48.9A27.285,27.285,0,0,0,109.32.48a.984.984,0,0,0,1.56-.54c4.68-8.4,8.1-16.68,12.06-28.2a39.744,39.744,0,0,1,5.04-.42c2.64,0,3.42,1.32,3.42,5.52a46.339,46.339,0,0,1-2.34,14.94c-.96,2.46-1.86,3.18-3.84,3.18a15.967,15.967,0,0,1-6.9-1.56,17.145,17.145,0,0,1,1.14,5.58A1.6,1.6,0,0,0,120.54.66a15.9,15.9,0,0,0,6.24.9c3.48,0,6.36-1.8,8.1-5.64,2.04-4.32,3.24-12.3,3.24-18.78,0-7.68-3-11.58-8.58-11.58a45.848,45.848,0,0,0-4.8.24c.78-2.52,1.38-4.74,2.16-7.2a7.592,7.592,0,0,1,1.2-2.28,1.25,1.25,0,0,0,.42-.9,1.263,1.263,0,0,0-.96-1.2,43.914,43.914,0,0,0-7.2-1.98,40.84,40.84,0,0,1-.6,6.66C119.34-39.06,118.92-36.96,117.96-33.54Zm20.7-.48c4.32,4.08,7.44,9.24,9.84,15.54.18.72.78.78,1.38.48a24.485,24.485,0,0,0,4.5-3,.859.859,0,0,0,.24-1.2,40.154,40.154,0,0,0-9.96-14.58c-.42-.42-.72-.54-1.14-.3A50.878,50.878,0,0,0,138.66-34.02Zm41.88-.72H171c-3.06,0-6.72-.06-11.28-.42,0,1.98.18,4.68.24,5.76,0,.72.24,1.2.78,1.2,2.82-.24,6.96-.42,10.38-.42h9.42v20.7c0,1.56-.42,2.22-1.38,2.64-1.44.48-4.08.72-8.16.72a14.029,14.029,0,0,1,4.02,5.4c.36.9.72,1.26,1.44,1.26A18.629,18.629,0,0,0,184.14.12c2.46-1.26,3.54-3.24,3.54-6.18,0-4.68-.12-7.26-.12-10.44l-.06-12.12h7.08c4.08,0,8.64.18,12.36.3.6.06.78-.36.84-1.14a40.6,40.6,0,0,0,.06-4.68c0-.66-.24-1.02-.78-.96-2.94.12-7.02.36-12.24.36h-7.38v-3.18c0-3.6.06-4.98.6-6,.6-1.14.48-1.74-.72-1.98-1.5-.3-4.62-.66-7.44-.9a46.256,46.256,0,0,1,.66,9.24ZM166.32-23.82a13.3,13.3,0,0,1-1.62,4.86,40.07,40.07,0,0,1-7.26,9.9,17.5,17.5,0,0,1,5.1,2.52c.9.6,1.38.42,2.1-.36a46.218,46.218,0,0,0,6.66-10.02,5.633,5.633,0,0,1,1.5-2.04c1.08-.84.72-1.44-.24-2.1A27.951,27.951,0,0,0,166.32-23.82Zm27.3,3.84a58.183,58.183,0,0,1,9.12,12.6c.42.78.72.66,1.38.24a33.349,33.349,0,0,0,4.02-3c.66-.54.84-.96.3-1.86-2.76-4.56-5.64-8.46-8.58-10.98a1.043,1.043,0,0,0-1.68-.24C196.8-22.2,195.24-21.18,193.62-19.98Zm9.96-30.96a6.329,6.329,0,0,0-6.48,6.42,6.4,6.4,0,0,0,6.48,6.42,6.4,6.4,0,0,0,6.48-6.42A6.4,6.4,0,0,0,203.58-50.94Zm0,2.88a3.437,3.437,0,0,1,3.54,3.54,3.437,3.437,0,0,1-3.54,3.54,3.437,3.437,0,0,1-3.54-3.54A3.437,3.437,0,0,1,203.58-48.06Zm42.36,16.98a94.977,94.977,0,0,0,7.02-7.56,19.768,19.768,0,0,1,3.6-3.3,1.717,1.717,0,0,0,.84-1.32,1.061,1.061,0,0,0-.48-.9,53.381,53.381,0,0,0-6.66-4.2,17.391,17.391,0,0,1-3.78,6.18A97.348,97.348,0,0,1,233.7-29.64a96.317,96.317,0,0,1-18.9,12.3,22.458,22.458,0,0,1,5.16,3.54,1.672,1.672,0,0,0,1.26.6,1.693,1.693,0,0,0,.9-.24,103.8,103.8,0,0,0,16.5-11.52v13.98c0,4.08-.18,7.98-.24,12.3-.06.72.18.96.84.96a50.045,50.045,0,0,0,6,0c.66,0,.96-.24.9-1.02-.12-4.8-.18-8.34-.18-12.48Zm26.4-6.3a63.513,63.513,0,0,1,12.24,9.78c.3.3.54.48.78.48s.42-.18.72-.48c.84-.9,2.82-3.3,3.72-4.5a1.29,1.29,0,0,0,.36-.78c0-.24-.18-.48-.54-.84a62.565,62.565,0,0,0-11.46-8.52,1.6,1.6,0,0,0-.78-.3,1.124,1.124,0,0,0-.84.48C275.4-40.86,273.66-39,272.34-37.38Zm1.32,29.94a41.573,41.573,0,0,0,4.8,6.66,1.555,1.555,0,0,0,1.02.66,1.659,1.659,0,0,0,1.08-.6,20.709,20.709,0,0,1,4.02-2.76A129.006,129.006,0,0,0,302.7-15.24a98.072,98.072,0,0,0,13.8-12.72c.66-.78.96-1.26.96-1.8a2.934,2.934,0,0,0-.3-1.14,26.782,26.782,0,0,1-1.68-7.02c-5.1,6.54-9.12,10.38-16.44,16.32a88.935,88.935,0,0,1-17.28,11.16A36.145,36.145,0,0,1,273.66-7.44Zm73.86-31.98c0-3.36,0-4.86.42-5.64a3.157,3.157,0,0,0,.48-1.38c0-.48-.3-.84-1.14-1.02a44.287,44.287,0,0,0-7.5-.96,45.781,45.781,0,0,1,.6,8.88v29.52c0,3.84-.06,7.38-.24,11.82,0,.72.3.9,1.14.9a39.65,39.65,0,0,0,5.34,0c.84,0,1.14-.18,1.08-.9-.12-4.32-.24-7.86-.24-11.76V-23.22a66.453,66.453,0,0,1,15.78,7.68.92.92,0,0,0,.66.3c.3,0,.54-.24.78-.66a35.264,35.264,0,0,0,2.58-5.22c.3-.78,0-1.2-.66-1.56a84.634,84.634,0,0,0-19.08-8.16Zm42.66-7.02h-9.36l1.44,33.54h6.06Zm-.6,38.46h-8.52V.12h8.52Z" transform="translate(1003 2953.322)" fill="#575757"/><g transform="translate(811 2779.95)"><g transform="translate(0 0)" clip-path="url(#a)"><path d="M42.211,31.614S7.449,41.444,0,45.168L21.106,65.033,12.414,87.381l50.9-16.14" transform="translate(0 9.426)" fill="#575757"/><path d="M36.3,58.088,51.2,70.5V34.085Z" transform="translate(10.823 10.163)" fill="#575757"/><path d="M269.673,31.614s34.762,9.83,42.211,13.554L290.778,65.033l8.691,22.348-50.9-16.14" transform="translate(74.116 9.426)" fill="#575757"/><path d="M264.465,58.088,249.567,70.5V34.085Z" transform="translate(74.414 10.163)" fill="#575757"/><path d="M330.1,68.251a932.514,932.514,0,0,0-291.758,0Q33.9,40.217,29.457,12.179a989.352,989.352,0,0,1,309.519,0q-4.44,28.037-8.881,56.072" transform="translate(8.783 0)" fill="#575757"/><path d="M101.523,37.951l-7.89.672-6.847-8.861.8,9.378-6.339.54L79.168,15.3l9.864-.841a9.685,9.685,0,0,1,3.608.3,6.72,6.72,0,0,1,4.337,3.684,8.409,8.409,0,0,1,.749,2.868,7.186,7.186,0,0,1-.958,4.625,6.774,6.774,0,0,1-3.761,2.682Zm-15.087-12.3,1.2-.1a4.634,4.634,0,0,0,2.811-1.022,2.661,2.661,0,0,0,.813-2.316,2.665,2.665,0,0,0-1.193-2.147,4.644,4.644,0,0,0-2.944-.531l-1.2.1Z" transform="translate(23.606 4.296)" fill="#fd0"/><path d="M101.523,37.951l-7.89.672-6.847-8.861.8,9.378-6.339.54L79.168,15.3l9.864-.841a9.685,9.685,0,0,1,3.608.3,6.72,6.72,0,0,1,4.337,3.684,8.409,8.409,0,0,1,.749,2.868,7.186,7.186,0,0,1-.958,4.625,6.774,6.774,0,0,1-3.761,2.682Zm-15.087-12.3,1.2-.1a4.634,4.634,0,0,0,2.811-1.022,2.661,2.661,0,0,0,.813-2.316,2.665,2.665,0,0,0-1.193-2.147,4.644,4.644,0,0,0-2.944-.531l-1.2.1Z" transform="translate(23.606 4.296)" fill="none" stroke="#575757" stroke-miterlimit="10" stroke-width="2"/><path d="M116.429,18.069l-7.55.423.23,4.084,7.128-.4.3,5.38-7.128.4.236,4.213,7.55-.424.3,5.38-13.9.78-1.37-24.432,13.9-.781Z" transform="translate(30.481 3.783)" fill="#fd0"/><path d="M116.429,18.069l-7.55.423.23,4.084,7.128-.4.3,5.38-7.128.4.236,4.213,7.55-.424.3,5.38-13.9.78-1.37-24.432,13.9-.781Z" transform="translate(30.481 3.783)" fill="none" stroke="#575757" stroke-miterlimit="10" stroke-width="2"/><path d="M137.8,32.2l-9.085.231-1.351,4.288-6.782.171,8.69-24.7,6.943-.177,9.934,24.227-6.78.173Zm-1.81-4.792-3.062-8.071-2.648,8.216Z" transform="translate(35.953 3.582)" fill="#fd0"/><path d="M137.8,32.2l-9.085.231-1.351,4.288-6.782.171,8.69-24.7,6.943-.177,9.934,24.227-6.78.173Zm-1.81-4.792-3.062-8.071-2.648,8.216Z" transform="translate(35.953 3.582)" fill="none" stroke="#575757" stroke-miterlimit="10" stroke-width="2"/><path d="M161.11,18.316a7.867,7.867,0,0,0-2.069-1.263,5.532,5.532,0,0,0-2.01-.419,3.273,3.273,0,0,0-2.016.571,1.819,1.819,0,0,0-.788,1.52,1.511,1.511,0,0,0,.382,1.074,3.391,3.391,0,0,0,1.018.737,8.741,8.741,0,0,0,1.424.545q.794.232,1.571.5a9.812,9.812,0,0,1,4.542,2.8,6.845,6.845,0,0,1,1.414,4.537,8.809,8.809,0,0,1-.656,3.4,7.128,7.128,0,0,1-1.867,2.6,8.53,8.53,0,0,1-3,1.667,12.425,12.425,0,0,1-4.011.575,14.743,14.743,0,0,1-8.582-2.816l2.76-5.11a11.081,11.081,0,0,0,2.811,1.9,6.806,6.806,0,0,0,2.755.635,3.294,3.294,0,0,0,2.325-.7A2.211,2.211,0,0,0,157.7,28.5a2.076,2.076,0,0,0-.644-.752,5.277,5.277,0,0,0-1.18-.641q-.728-.3-1.766-.659-1.231-.4-2.412-.876a7.546,7.546,0,0,1-2.1-1.264,5.768,5.768,0,0,1-1.48-1.972,6.944,6.944,0,0,1-.549-3.007,8.675,8.675,0,0,1,.623-3.29,7.3,7.3,0,0,1,1.7-2.52,7.526,7.526,0,0,1,2.673-1.621,10.063,10.063,0,0,1,3.525-.562,15.549,15.549,0,0,1,3.795.528,16.892,16.892,0,0,1,3.787,1.5Z" transform="translate(43.672 3.38)" fill="#fd0"/><path d="M161.11,18.316a7.867,7.867,0,0,0-2.069-1.263,5.532,5.532,0,0,0-2.01-.419,3.273,3.273,0,0,0-2.016.571,1.819,1.819,0,0,0-.788,1.52,1.511,1.511,0,0,0,.382,1.074,3.391,3.391,0,0,0,1.018.737,8.741,8.741,0,0,0,1.424.545q.794.232,1.571.5a9.812,9.812,0,0,1,4.542,2.8,6.845,6.845,0,0,1,1.414,4.537,8.809,8.809,0,0,1-.656,3.4,7.128,7.128,0,0,1-1.867,2.6,8.53,8.53,0,0,1-3,1.667,12.425,12.425,0,0,1-4.011.575,14.743,14.743,0,0,1-8.582-2.816l2.76-5.11a11.081,11.081,0,0,0,2.811,1.9,6.806,6.806,0,0,0,2.755.635,3.294,3.294,0,0,0,2.325-.7A2.211,2.211,0,0,0,157.7,28.5a2.076,2.076,0,0,0-.644-.752,5.277,5.277,0,0,0-1.18-.641q-.728-.3-1.766-.659-1.231-.4-2.412-.876a7.546,7.546,0,0,1-2.1-1.264,5.768,5.768,0,0,1-1.48-1.972,6.944,6.944,0,0,1-.549-3.007,8.675,8.675,0,0,1,.623-3.29,7.3,7.3,0,0,1,1.7-2.52,7.526,7.526,0,0,1,2.673-1.621,10.063,10.063,0,0,1,3.525-.562,15.549,15.549,0,0,1,3.795.528,16.892,16.892,0,0,1,3.787,1.5Z" transform="translate(43.672 3.38)" fill="none" stroke="#575757" stroke-miterlimit="10" stroke-width="2"/><path d="M167.82,24.288a12.774,12.774,0,0,1,1.213-5.034,12.552,12.552,0,0,1,7.331-6.556,15.55,15.55,0,0,1,10.912.444,12.925,12.925,0,0,1,4.184,2.914,12.585,12.585,0,0,1,2.639,4.216,13.331,13.331,0,0,1-.413,10.15,12.558,12.558,0,0,1-2.973,3.988,12.89,12.89,0,0,1-4.407,2.564,15.55,15.55,0,0,1-10.912-.443,12.662,12.662,0,0,1-7.574-12.244m6.648.27a6.524,6.524,0,0,0,.441,2.714,6.737,6.737,0,0,0,3.536,3.7,7.08,7.08,0,0,0,7.548-1.106,6.662,6.662,0,0,0,1.6-2.08,6.852,6.852,0,0,0,.219-5.382,6.7,6.7,0,0,0-1.421-2.2,6.947,6.947,0,0,0-2.147-1.5,7.215,7.215,0,0,0-5.285-.214,6.734,6.734,0,0,0-3.826,3.4,6.507,6.507,0,0,0-.661,2.669" transform="translate(50.036 3.553)" fill="#fd0"/><path d="M167.82,24.288a12.774,12.774,0,0,1,1.213-5.034,12.552,12.552,0,0,1,7.331-6.556,15.55,15.55,0,0,1,10.912.444,12.925,12.925,0,0,1,4.184,2.914,12.585,12.585,0,0,1,2.639,4.216,13.331,13.331,0,0,1-.413,10.15,12.558,12.558,0,0,1-2.973,3.988,12.89,12.89,0,0,1-4.407,2.564,15.55,15.55,0,0,1-10.912-.443,12.662,12.662,0,0,1-7.574-12.244Zm6.648.27a6.524,6.524,0,0,0,.441,2.714,6.737,6.737,0,0,0,3.536,3.7,7.08,7.08,0,0,0,7.548-1.106,6.662,6.662,0,0,0,1.6-2.08,6.852,6.852,0,0,0,.219-5.382,6.7,6.7,0,0,0-1.421-2.2,6.947,6.947,0,0,0-2.147-1.5,7.215,7.215,0,0,0-5.285-.214,6.734,6.734,0,0,0-3.826,3.4A6.507,6.507,0,0,0,174.468,24.558Z" transform="translate(50.036 3.553)" fill="none" stroke="#575757" stroke-miterlimit="10" stroke-width="2"/><path d="M196.208,37.809l1.939-24.393,6.34.5,10.527,15.845L216.2,14.849l6.308.5-1.938,24.394-6.309-.5L203.735,23.4l-1.185,14.916Z" transform="translate(58.504 4)" fill="#fd0"/><path d="M196.208,37.809l1.939-24.393,6.34.5,10.527,15.845L216.2,14.849l6.308.5-1.938,24.394-6.309-.5L203.735,23.4l-1.185,14.916Z" transform="translate(58.504 4)" fill="none" stroke="#575757" stroke-miterlimit="10" stroke-width="2"/></g></g></g></svg>