<svg xmlns="http://www.w3.org/2000/svg" xmlns:xlink="http://www.w3.org/1999/xlink" width="840.344" height="199.646" viewBox="0 0 840.344 199.646"><defs><clipPath id="a"><rect width="784.044" height="48.786" transform="translate(0 0)" fill="#fff"/></clipPath><clipPath id="b"><rect width="246.849" height="98.154" fill="none" stroke="#fff" stroke-width="1"/></clipPath><clipPath id="d"><rect width="71.118" height="124.561" fill="none"/></clipPath></defs><g transform="translate(-607.978 -2479.096)"><g transform="translate(0 524.103)"><g transform="translate(607.978 2105.853)" clip-path="url(#a)"><path d="M11.8,48.629Q87,37.921,162.913,30.209,238.66,22.531,314.92,17.979q43.037-2.591,86.162-4.211L396.364.948q-34.54,13.129-69.082,26.26c-8.056,3.062-4.509,13.3,4.719,12.821q86.176-4.52,172.583-5.924,86.372-1.39,172.768.361,48.7.988,97.344,2.975c5.047.2,9.35-3.31,9.35-6.88,0-3.9-4.289-6.675-9.35-6.88q-86.263-3.511-172.687-3.9-86.394-.383-172.741,2.38Q380.6,23.713,332,26.269l4.721,12.82L405.8,12.829c8.149-3.1,4.449-13.167-4.721-12.82Q323.84,2.922,246.889,8.93q-77.408,6.059-154.3,15.214Q49.6,29.262,6.83,35.361C1.87,36.067-.964,40.44.3,43.823c1.425,3.816,6.529,5.513,11.5,4.805" transform="translate(0 0)" fill="#fff"/></g><path d="M-327.284-54.332a1.143,1.143,0,0,0,.68-1.02c0-.544-.408-.816-1.224-.952a56.811,56.811,0,0,0-7.276-1.5,17.346,17.346,0,0,1-2.516,4.828c-5.644,8.16-13.872,15.368-26.248,20.672a12.114,12.114,0,0,1,3.128,4.692c.476,1.156.748,1.632,1.224,1.632a3.887,3.887,0,0,0,1.564-.612,88.735,88.735,0,0,0,13.668-8.84v5.44c0,.68.068.748.816.748.408,0,2.04-.136,7.276-.136h9.452c5.3,0,6.936.136,7.344.136.68,0,.748-.068.748-.748v-5.236a72.453,72.453,0,0,0,14.28,8.432,4.074,4.074,0,0,0,1.632.612c.612,0,.816-.476,1.156-1.768a15.981,15.981,0,0,1,2.788-5.712c-11.356-3.944-21.556-10.064-29.036-20.264Zm-16.32,18.36a65.9,65.9,0,0,0,11.832-12.376,63.1,63.1,0,0,0,12.1,12.376c-.68,0-2.448.068-7.072.068h-9.452c-5.236,0-6.868-.068-7.276-.068Zm23.392,18.7A82.634,82.634,0,0,1-333.4,2.04q-.408.408-.408.612c0,.476.884.816,3.468,1.836a13.657,13.657,0,0,0,3.4,1.224c.34,0,.544-.2.816-.544a151.665,151.665,0,0,0,13.26-19.788,10.4,10.4,0,0,1,2.244-3.264c.68-.544.884-.816.884-1.5,0-.408-.136-.952-2.38-3.128-1.768-1.7-2.38-1.9-3.06-1.9a3.82,3.82,0,0,0-1.02.272,6.606,6.606,0,0,1-2.38.272h-24.48c-6.6,0-8.84-.136-9.248-.136-.68,0-.748.068-.748.748v5.3c0,.748.068.816.748.816.408,0,2.652-.136,9.248-.136Zm52.224,2.312c-3.2-.272-4.828-.272-6.528-.272-8.228,0-13.6,4.148-13.6,9.656,0,5.644,5.032,9.52,13.872,9.52,9.316,0,13.736-2.992,13.8-10.336A53.956,53.956,0,0,1-246.908,1.36a1.043,1.043,0,0,0,.748.34,1,1,0,0,0,.884-.544,20.456,20.456,0,0,0,2.992-5.032c.2-.816.2-1.02-.476-1.632a60.629,60.629,0,0,0-18.02-8.228c-.2-3.128-.34-6.46-.476-9.588a123.16,123.16,0,0,0,13.328-1.632c.748-.068,1.02-.272,1.02-.952,0-2.04-.136-4.284-.2-5.576-.068-.612-.272-.748-1.088-.544-4.9.748-8.16,1.428-13.328,1.768,0-2.448-.068-4.964-.068-7.684a139.109,139.109,0,0,0,15.708-1.768c.544-.068.748-.2.748-1.088a36.331,36.331,0,0,0-.34-4.964c-.068-.816-.34-1.02-1.156-.816a114.423,114.423,0,0,1-14.892,2.04c.068-2.04.068-2.992.136-4.352a8.739,8.739,0,0,1,1.02-3.264,1.386,1.386,0,0,0-.748-2.04,39.4,39.4,0,0,0-8.568-1.224,19.56,19.56,0,0,1,.816,4.556c.068,2.312.136,4.08.136,6.6a155.467,155.467,0,0,1-17.816-.68c.136,2.788.272,4.42.476,6.12.068.68.408.952,1.156.952a111.906,111.906,0,0,0,16.252.34c.068,2.584.068,5.236.136,7.82a95.676,95.676,0,0,1-15.3-.544,40.582,40.582,0,0,0,.408,5.78c.068.884.34,1.156,1.088,1.156a120.406,120.406,0,0,0,14.008.272C-268.26-20.74-268.124-17.952-267.988-14.96Zm.136,6.46c0,1.9-.2,3.06-.748,3.808-.952,1.224-3.468,2.04-6.188,2.04-4.692,0-6.732-1.292-6.732-3.06,0-2.176,2.38-3.6,7.344-3.6A29.328,29.328,0,0,1-267.852-8.5Zm73.1-32.164c-8.228,5.372-13.056,11.9-13.056,21.556,0,14.144,13.124,21.012,25.092,21.012.816,0,1.088-.408,1.292-1.428a24.189,24.189,0,0,0,.748-5.848c0-.748-.408-1.02-1.5-1.02C-194-7.14-200.26-11.9-200.26-20.672c0-8.16,5.78-16.116,17.34-20.06a30.341,30.341,0,0,1,8.3-1.5c.884,0,1.292-.2,1.292-1.02a38.849,38.849,0,0,0-.748-5.984c-.068-.476-.408-.884-1.428-.748-17.544,2.312-32.5,4.556-40.868,5.78a93.808,93.808,0,0,1-10.812,1.156,47.384,47.384,0,0,0,2.516,7.344,1.59,1.59,0,0,0,1.292,1.02,3.97,3.97,0,0,0,1.5-.544c1.02-.34,1.7-.476,4.284-1.088,7.276-1.5,14.552-2.924,22.848-4.488Zm9.86,9.724a33.741,33.741,0,0,1,6.868,7.888.71.71,0,0,0,1.156.2l2.856-2.108a.686.686,0,0,0,.2-1.088,31.3,31.3,0,0,0-6.46-7.276c-.408-.34-.68-.408-1.02-.136Zm6.256-4.488a32.169,32.169,0,0,1,6.8,7.82.7.7,0,0,0,1.156.2l2.72-2.108a.786.786,0,0,0,.2-1.224,28.4,28.4,0,0,0-6.46-7c-.408-.34-.612-.408-1.02-.136Zm50.66-6.256c9.112,0,15.232,7.684,15.232,15.776,0,12.852-9.044,17.612-20.536,20.332a14.422,14.422,0,0,1,4.76,4.284c.884,1.36,1.5,1.632,2.924,1.224,13.8-4.148,20.944-12.1,20.944-24.752,0-13.532-9.588-23.6-25.908-23.6-9.18,0-16.388,2.992-22.1,8.7a25.054,25.054,0,0,0-7.684,17.68c0,11.084,6.052,17.476,12.036,17.476,5.1,0,8.636-2.72,11.56-7.82,4.08-7.14,6.936-17.748,8.5-29.308Zm-8.16.408c-1.156,9.044-4.216,18.836-7.208,24.344-1.836,3.264-3.332,4.148-5.1,4.148-2.108,0-4.624-3.468-4.624-9.724,0-4.352,2.04-8.908,5.3-12.58A20.48,20.48,0,0,1-136.136-41.276Zm57.664,19.924c-4.964,2.856-8.16,4.692-11.084,6.324a25.108,25.108,0,0,1-6.256,2.38c1.02,2.244,2.38,5.1,3.128,6.324a1.907,1.907,0,0,0,1.5,1.088,1.707,1.707,0,0,0,1.156-.476,12.325,12.325,0,0,1,2.176-1.5A41.809,41.809,0,0,1-78.2,1.5c.612.884.884,1.428,1.632,1.36a27.638,27.638,0,0,0,5.032-.816c1.156-.272,1.02-1.292,1.02-2.244,0-1.564-.34-5.848-.544-8.84-.136-2.992-.2-5.3-.272-8.16,7-3.6,11.7-4.624,15.572-4.624,4.76,0,7.48,2.448,7.48,6.868,0,4.828-3.536,7-7.344,7a25.365,25.365,0,0,1-8.5-1.224,11.882,11.882,0,0,1,2.04,5.78,1.824,1.824,0,0,0,1.5,2.04,26.354,26.354,0,0,0,5.576.612c9.18,0,14.756-5.1,14.756-13.8,0-8.16-6.052-13.532-14.484-13.6a42.917,42.917,0,0,0-16.728,3.74c.068-3.264.068-6.6.136-9.86a69.309,69.309,0,0,0,9.724-2.584c.68-.2.884-.408.884-1.088a34.177,34.177,0,0,0-.408-5.3c-.068-.68-.544-.816-1.156-.612a66.68,66.68,0,0,1-8.7,2.516c.068-2.176.136-3.876.34-5.644A8.323,8.323,0,0,1-69.7-49.64a2.411,2.411,0,0,0,.408-1.088c0-.612-.544-1.088-1.36-1.292a38.538,38.538,0,0,0-8.092-1.224,25.14,25.14,0,0,1,.476,5.508c0,2.924-.068,5.508-.068,7.752-2.856.272-5.78.544-8.636.544a34.739,34.739,0,0,1-5.3-.34c.272,2.38.544,4.624.748,5.916.136,1.02.476,1.428,1.632,1.428,4.556,0,8.024-.272,11.424-.544Zm.34,7.14c.136,2.244.272,5.372.408,7.14.068.612-.136.68-.68.544A69.737,69.737,0,0,1-84.8-9.588C-82.348-11.356-80.036-12.92-78.132-14.212ZM-55.42-39.984c5.44,1.836,10.2,4.352,13.8,8.364.2.34,1.156.272,1.36,0,1.02-1.36,2.788-3.468,3.672-4.828a1.765,1.765,0,0,0,.272-.68c0-.2-.136-.408-.408-.68a32.324,32.324,0,0,0-14.416-8.3c-.476-.136-.68.068-1.156.816A41.718,41.718,0,0,0-55.42-39.984ZM21.828-4.352H-3.332v-16.8c0-5.236.068-6.664.408-7.48a3.234,3.234,0,0,0,.476-1.428c0-.34-.408-.68-1.088-.748-2.312-.272-4.148-.408-6.732-.476a60.145,60.145,0,0,1,.544,10.268V-4.624c0,5.916-.136,8.772-.136,9.18,0,.68.068.748.816.748H-4.08c.68,0,.748-.068.748-.748V1.7h25.16V4.352c0,.68.068.748.748.748H27.54c.748,0,.816-.068.816-.748,0-.408-.136-3.4-.136-9.316V-21.012c0-5.644.068-6.936.408-7.684a2.15,2.15,0,0,0,.408-1.156c0-.408-.408-.748-1.088-.816-2.312-.272-4.08-.408-6.6-.476a63.541,63.541,0,0,1,.476,10.2ZM-22.44-7.14c0,7.616-.136,11.492-.136,11.832,0,.748.068.816.748.816h5.508c.68,0,.748-.068.748-.816,0-.34-.136-4.216-.136-11.9V-46.716c0-4.964.136-6.664.476-7.548a3.345,3.345,0,0,0,.34-1.36c0-.34-.408-.612-1.088-.68-2.244-.272-4.42-.408-7-.476a62.464,62.464,0,0,1,.544,10.268Zm42.3-4.012c.68-.68.612-.884.2-1.428-1.9-2.448-4.012-4.9-6.256-7.276a46.008,46.008,0,0,0,2.856-6.256,8.128,8.128,0,0,1,1.564-2.924,1.868,1.868,0,0,0,.884-1.292c0-.476-.272-.884-1.02-1.156-1.36-.544-3.876-1.428-5.712-1.972A28.484,28.484,0,0,1,10.54-27.4c-.408,1.02-.816,2.04-1.292,2.992-1.9-1.7-3.808-3.264-5.848-4.76-.544-.34-.816-.408-1.36.136L-.612-26.724c-.816.68-.748.884-.2,1.292,2.312,1.9,4.692,4.012,7,6.324A40.722,40.722,0,0,1-2.72-9.792a12.473,12.473,0,0,1,3.4,2.72c.748.748,1.088,1.156,1.5,1.156s.816-.408,1.5-1.02a43.187,43.187,0,0,0,6.8-7.548c1.7,1.972,3.332,4.08,4.9,6.188.2.272.34.408.544.408a1.3,1.3,0,0,0,.816-.476ZM15.028-37.06a19.3,19.3,0,0,1,3.944,1.36,4.119,4.119,0,0,0,1.632.68c.476,0,.816-.408,1.36-1.428a132.891,132.891,0,0,0,6.052-12.784A7.162,7.162,0,0,1,29.172-51.2c.34-.408.748-.816.748-1.292s-.272-.68-.748-.952a52.3,52.3,0,0,0-6.528-2.312,24.386,24.386,0,0,1-.816,3.944A85.869,85.869,0,0,1,15.028-37.06ZM-9.044-51.884c-.816.272-.884.544-.544,1.156a60.841,60.841,0,0,1,5.712,13.26c.272.68.476.68,1.36.408L1.7-38.488c.884-.34.952-.476.748-1.224A65.243,65.243,0,0,0-3.6-52.836c-.408-.68-.612-.68-1.36-.408Zm12.512-3.4c-.884.272-.952.476-.612,1.156a62.88,62.88,0,0,1,5.1,13.4c.2.816.34.748,1.224.476L13.4-41.548c1.02-.34,1.088-.476.884-1.156A72.173,72.173,0,0,0,8.976-55.9c-.34-.68-.68-.748-1.5-.476ZM-28.356-42.7c-.952-.2-1.088-.2-1.088.476a57.688,57.688,0,0,1-2.176,13.94c-.2.68-.136,1.02.68,1.36l3.332,1.36c.748.34.884.408,1.088-.272a57.856,57.856,0,0,0,2.244-15.1c.068-.748-.068-.884-.884-1.088Zm14.416-.544c-.884.272-.952.408-.68,1.088a55.824,55.824,0,0,1,2.176,9.52c.136.748.34.748,1.224.476l2.856-.952c.884-.272.884-.476.748-1.224a43.5,43.5,0,0,0-2.652-9.248c-.272-.612-.476-.612-1.156-.408ZM78.4-25.364a56.386,56.386,0,0,0-13.192-3.4c2.04-4.9,3.944-10.2,5.712-14.824.544-1.292.816-2.584,1.836-3.536a1.75,1.75,0,0,0,.68-1.156,1.632,1.632,0,0,0-.612-1.156,22.726,22.726,0,0,0-4.624-3.74,1.561,1.561,0,0,0-.952-.272,1.5,1.5,0,0,0-.884.272,7.842,7.842,0,0,1-3.332,1.156,75.886,75.886,0,0,1-10.54.884,25.339,25.339,0,0,1-5.984-.408,41.216,41.216,0,0,0,1.972,7.412,1.1,1.1,0,0,0,1.088.748,3.579,3.579,0,0,0,1.224-.272,14.274,14.274,0,0,1,3.06-.748c2.244-.272,5.644-.68,9.384-1.088-1.7,5.712-3.4,10.472-5.644,16.116-11.356,0-20.06,6.6-20.06,15.028,0,6.6,4.148,9.316,8.092,9.316a11.163,11.163,0,0,0,8.7-3.74c2.72-2.72,4.692-6.12,8.3-13.6a45.979,45.979,0,0,1,13.464,4.148C73.508-11.356,69.36-5.712,60.86.2a14.012,14.012,0,0,1,5.916,2.788,1.858,1.858,0,0,0,1.02.476c.408,0,.748-.272,1.36-.748,6.6-5.1,10.268-10.064,13.736-17.884A55.26,55.26,0,0,1,91.8-8.772a1.3,1.3,0,0,0,.816.476c.2,0,.408-.136.612-.476a58.593,58.593,0,0,0,2.924-5.848c.2-.68.272-1.02-.408-1.428a78.687,78.687,0,0,0-10.608-6.528c.68-2.924,1.36-5.916,1.9-8.772A11.438,11.438,0,0,1,88.128-34a1.28,1.28,0,0,0-.476-1.836,29.325,29.325,0,0,0-7.888-2.924,21.279,21.279,0,0,1,.068,4.624A67.27,67.27,0,0,1,78.4-25.364ZM55.216-22.916a46.484,46.484,0,0,1-4.964,8.3c-1.36,1.7-2.652,2.584-3.944,2.584-1.632,0-2.38-.952-2.38-3.128C43.928-19.04,48.28-22.644,55.216-22.916Zm84.728,2.176c5.78-2.38,10.2-3.876,14.62-5.44a21.746,21.746,0,0,1,4.148-1.02c.68-.136,1.02-.408,1.02-.952a2.688,2.688,0,0,0-.544-1.5,41.889,41.889,0,0,0-4.76-5.984,20.451,20.451,0,0,1-5.168,3.672c-3.468,1.768-7.344,3.536-10,4.76-.68-5.3-3.808-7.344-8.3-7.344a13.53,13.53,0,0,0-6.8,2.108l-.068-.136a70.174,70.174,0,0,0,5.1-7.548c4.964-.544,10.812-1.292,15.912-2.04.952-.136,1.224-.408,1.156-1.088a22.928,22.928,0,0,0-.68-4.9c-.136-.612-.34-.816-1.088-.68a109.391,109.391,0,0,1-12.376,2.108c.816-1.836,1.156-2.72,1.564-3.672a5.3,5.3,0,0,1,1.156-1.632,1.313,1.313,0,0,0,.476-1.02A1.221,1.221,0,0,0,134.5-54.2a42.937,42.937,0,0,0-7.752-1.9,16.553,16.553,0,0,1-.476,4.148,52.4,52.4,0,0,1-2.04,5.848,149.991,149.991,0,0,1-15.64.068c.2,2.04.476,4.556.68,5.644.136.748.34,1.088.952,1.088,4.012,0,7.684-.068,10.88-.2A69.487,69.487,0,0,1,106.9-22.644c-.34.272-.476.476-.476.748a1.106,1.106,0,0,0,.272.612,32.344,32.344,0,0,0,3.876,4.488,1.356,1.356,0,0,0,.748.476c.272,0,.476-.2.816-.612a91.637,91.637,0,0,1,6.8-7.412c3.128-2.72,6.188-4.76,9.384-4.9,3.06-.136,3.876,1.224,4.08,4.692-10.268,5.3-14.348,10.064-14.348,16.592,0,7.888,5.916,11.22,17.068,11.22A120.948,120.948,0,0,0,151.98,2.38c.544,0,.816-.476.748-1.292a30.431,30.431,0,0,0-.612-5.576c-.068-.612-.34-.816-.952-.748a116.212,116.212,0,0,1-16.932,1.36c-7.14,0-9.452-1.836-9.452-4.692,0-3.264,2.176-5.916,8.228-9.044-.068,2.448-.068,5.848-.068,8.3,0,.68.272,1.088.884,1.088a36.786,36.786,0,0,0,4.828-.34c.884-.136,1.292-.476,1.292-1.224ZM196.52-31.756c0-4.964.136-7.48.136-7.888,0-.68-.068-.748-.816-.748-.408,0-1.836.136-5.848.136.884-1.5,1.768-3.2,2.652-5.032a5.955,5.955,0,0,1,1.36-1.9c.612-.476.748-.748.748-1.224,0-.408-.272-.884-1.7-1.972-1.5-1.224-1.9-1.428-2.244-1.428a1.7,1.7,0,0,0-.884.272,3.2,3.2,0,0,1-1.292.2h-6.664a7.158,7.158,0,0,1,1.428-2.312,1.42,1.42,0,0,0,.544-1.088c0-.408-.34-.748-1.088-.952a41.769,41.769,0,0,0-5.712-1.36,17.524,17.524,0,0,1-1.292,4.624,42.983,42.983,0,0,1-9.18,14.28,13.924,13.924,0,0,1,2.652,3.468c.476.884.748,1.36,1.088,1.36.272,0,.612-.34,1.156-.952l.544-.612v9.18c0,13.328-1.156,19.516-4.692,26.044a16.771,16.771,0,0,1,3.876,3.6c.408.476.68.748.952.748.34,0,.612-.408,1.088-1.292,2.108-4.216,3.4-8.908,4.012-16.388h13.6v9.452c0,1.632-.544,2.108-1.768,2.176-1.632,0-3.468-.068-5.848-.272a14.529,14.529,0,0,1,1.7,4.352c.476,2.108.476,2.04,2.584,2.04,4.42-.068,6.052-.408,7.344-1.428,1.428-1.36,1.7-3.128,1.7-5.644,0-2.72-.136-6.052-.136-9.112Zm-20.332-8.5a59.048,59.048,0,0,0,3.536-5.916h6.732a52.855,52.855,0,0,1-2.856,5.916Zm1.5,22.032c.068-1.768.136-3.808.136-5.916H181.7v5.916Zm9.384,0V-24.14h3.876v5.916ZM177.82-29.376v-5.712H181.7v5.712Zm13.124-5.712v5.712h-3.876v-5.712Zm20.6,9.724h-4.216l.136-.34a5.206,5.206,0,0,1,.884-2.108,1.094,1.094,0,0,0,.2-.748c0-.34-.34-.544-1.088-.816a48.086,48.086,0,0,0-5.1-1.428,17.773,17.773,0,0,1-.68,3.672,43.465,43.465,0,0,1-4.556,10.064,21.4,21.4,0,0,1,3.808,1.632,3.356,3.356,0,0,0,1.564.816c.408,0,.68-.476,1.224-1.5.476-1.088,1.02-2.176,1.5-3.4h6.324v6.324H207.6c-5.916,0-7.956-.136-8.364-.136-.68,0-.748.068-.748.748v4.692c0,.748.068.816.748.816.408,0,2.448-.136,8.364-.136h3.944v2.72c0,5.644-.136,8.364-.136,8.772,0,.68.068.748.816.748h5.032c.68,0,.748-.068.748-.748,0-.34-.136-3.128-.136-8.772v-2.72h3.06c5.916,0,7.888.136,8.3.136.68,0,.748-.068.748-.816V-12.58c0-.68-.068-.748-.748-.748-.408,0-2.38.136-8.3.136h-3.06v-6.324c6.732,0,9.112.136,9.52.136.68,0,.748-.068.748-.816v-4.556c0-.68-.068-.748-.748-.748-.408,0-2.788.136-9.52.136v-1.768a8.71,8.71,0,0,1,.34-2.992,3.261,3.261,0,0,0,.34-1.156c0-.408-.272-.612-.884-.68-1.9-.2-4.284-.34-6.528-.408a27.187,27.187,0,0,1,.408,5.236Zm-12.58-23.052c0,.68.068.748.748.748.34,0,2.108-.136,7.14-.136-1.02,5.508-3.672,8.636-9.656,11.56a13.239,13.239,0,0,1,3.332,3.4c.612.952.884,1.36,1.292,1.36.34,0,.748-.272,1.5-.748,5.848-3.672,8.908-8.16,10.2-15.572H221a28.318,28.318,0,0,1-.748,6.392c-.408,1.36-.952,1.7-2.924,1.7a26.859,26.859,0,0,1-4.828-.544,13.137,13.137,0,0,1,1.292,4.76c.136,1.564.34,1.564,2.176,1.768a35.068,35.068,0,0,0,3.6.136c2.856,0,5.372-1.088,6.392-3.4,1.156-2.652,1.428-5.916,1.7-12.444l.136-3.4c.068-.612-.136-.816-.816-.816-.408,0-2.312.136-7.888.136H207.6c-5.644,0-7.48-.136-7.888-.136-.68,0-.748.068-.748.748ZM265.4-20.6c-2.312,8.772-7.684,15.028-18.156,20.332a14.408,14.408,0,0,1,3.468,4.216c.612,1.088.884,1.564,1.36,1.564a4.073,4.073,0,0,0,1.7-.748c9.588-5.78,14.824-12.988,17.408-20.876C274.856-7.14,281.452-.68,290.5,4.556a5.081,5.081,0,0,0,1.632.68c.476,0,.748-.476,1.224-1.632a19.788,19.788,0,0,1,2.992-5.1C286.688-5.508,279.48-11.832,275.808-20.6h10.268c6.664,0,8.976.136,9.384.136.68,0,.748-.068.748-.748v-5.032c0-.748-.068-.816-.748-.816-.34,0-1.768.136-5.3.136V-38.42c0-3.876.136-5.576.136-5.984,0-.68-.068-.748-.748-.748-.408,0-2.584.136-8.908.136h-6.188V-49.98c0-2.312.136-3.4.476-4.08a3.513,3.513,0,0,0,.476-1.428c0-.408-.476-.68-1.156-.816-2.312-.272-5.032-.408-7.412-.544a48.145,48.145,0,0,1,.476,7.888v3.944h-3.264c-6.256,0-8.432-.136-8.772-.136-.68,0-.748.068-.748.748v5.168c0,.68.068.748.748.748.34,0,2.516-.136,8.772-.136h3.128a108.632,108.632,0,0,1-.68,11.7h-5.236c-6.732,0-9.044-.136-9.452-.136-.68,0-.748.068-.748.816v5.032c0,.68.068.748.748.748.408,0,2.72-.136,9.452-.136Zm8.3-6.324c.34-3.332.544-7.14.612-11.7h8.84v11.7ZM235.076.612a40.087,40.087,0,0,0,5.168,3.6,3.1,3.1,0,0,0,1.428.544c.408,0,.68-.408.816-.952a12.83,12.83,0,0,1,1.02-2.72c2.108-4.556,4.148-9.792,6.052-15.232a6.914,6.914,0,0,0,.34-1.5c0-.612-.34-.952-1.428-1.768a31.954,31.954,0,0,1-3.808-3.4A126.7,126.7,0,0,1,238.476-4.9,34.128,34.128,0,0,1,235.076.612Zm2.652-52.5c-.34.408-.476.612-.476.816,0,.136.136.272.476.476a60.067,60.067,0,0,1,10.064,7.956c.544.408.68.476,1.156-.2l3.128-4.284c.272-.408.408-.612.408-.816a.822.822,0,0,0-.408-.612,59.956,59.956,0,0,0-9.928-7.276c-.544-.34-.748-.34-1.292.272Zm-2.72,17.34a1.748,1.748,0,0,0-.476.816c0,.136.2.272.544.476a56.158,56.158,0,0,1,9.656,7.548q.408.408.612.408c.2,0,.34-.136.544-.476l3.06-4.352c.272-.408.408-.612.408-.816,0-.136-.136-.272-.408-.544a52.387,52.387,0,0,0-9.792-7.072c-.612-.34-.816-.34-1.36.34ZM336.736-53.856H326.128l1.9,40.46H334.9ZM326.536-6.8V2.38h9.656V-6.8Z" transform="translate(992.246 2130.282)" fill="#575757"/></g><g transform="translate(1123.849 2577.25) rotate(180)"><line y1="22.533" transform="translate(123.229 50.849)" fill="none" stroke="#fff" stroke-linecap="round" stroke-linejoin="round" stroke-width="3"/><g clip-path="url(#b)"><line y1="10.578" transform="translate(123.229 83.64)" fill="none" stroke="#fff" stroke-linecap="round" stroke-linejoin="round" stroke-width="3"/></g><line y1="21.906" x2="5.778" transform="translate(93.051 47.701)" fill="none" stroke="#fff" stroke-linecap="round" stroke-linejoin="round" stroke-width="3"/><line y1="19.665" x2="11.252" transform="translate(64.825 38.342)" fill="none" stroke="#fff" stroke-linecap="round" stroke-linejoin="round" stroke-width="3"/><line y1="16.08" x2="15.957" transform="translate(40.563 23.417)" fill="none" stroke="#fff" stroke-linecap="round" stroke-linejoin="round" stroke-width="3"/><line x1="16.08" y1="15.957" transform="translate(189.799 23.079)" fill="none" stroke="#fff" stroke-linecap="round" stroke-linejoin="round" stroke-width="3"/><line x1="11.404" y1="19.576" transform="translate(170.317 38.105)" fill="none" stroke="#fff" stroke-linecap="round" stroke-linejoin="round" stroke-width="3"/><line x1="5.949" y1="21.861" transform="translate(147.612 47.576)" fill="none" stroke="#fff" stroke-linecap="round" stroke-linejoin="round" stroke-width="3"/><g clip-path="url(#b)"><path d="M0,9.594,5.539,0" transform="translate(54.392 66.308)" fill="none" stroke="#fff" stroke-linecap="round" stroke-linejoin="round" stroke-width="3"/><path d="M5.537,9.594Q2.77,4.8,0,0" transform="translate(186.922 66.308)" fill="none" stroke="#fff" stroke-linecap="round" stroke-linejoin="round" stroke-width="3"/><path d="M0,11.829Q10.246,5.913,20.492,0" transform="translate(21.003 3.936)" fill="none" stroke="#fff" stroke-linecap="round" stroke-linejoin="round" stroke-width="3"/><path d="M0,5.044Q4.369,2.52,8.738,0" transform="translate(3.936 20.576)" fill="none" stroke="#fff" stroke-linecap="round" stroke-linejoin="round" stroke-width="3"/><path d="M20.492,11.829Q10.246,5.913,0,0" transform="translate(205.356 3.936)" fill="none" stroke="#fff" stroke-linecap="round" stroke-linejoin="round" stroke-width="3"/><path d="M8.738,5.044Q4.369,2.52,0,0" transform="translate(234.177 20.576)" fill="none" stroke="#fff" stroke-linecap="round" stroke-linejoin="round" stroke-width="3"/></g></g><g transform="translate(1382.383 2511.12) rotate(22)"><g transform="translate(0 0)" clip-path="url(#d)"><path d="M1.412,9.156a1.224,1.224,0,0,0,1-.3,3.543,3.543,0,0,0,.5-1.927A11.147,11.147,0,0,0,1.472,0,11.147,11.147,0,0,0,.034,6.931,3.543,3.543,0,0,0,.528,8.858a1.109,1.109,0,0,0,.883.3" transform="translate(34.087 59.635)" fill="#fff200"/><path d="M27.053,21.135A20.616,20.616,0,0,0,27.813,6.8a10.719,10.719,0,0,0-3.554-5.573A6.914,6.914,0,0,0,18.982.116a7.671,7.671,0,0,0-1.939.6c.069.093.137.188.2.285a14.473,14.473,0,0,1,2.029,9.083A6.393,6.393,0,0,1,17.917,14.1a4.444,4.444,0,0,1-3.607,1.469A4.5,4.5,0,0,1,10.834,14.1a6.393,6.393,0,0,1-1.356-4.016A14.473,14.473,0,0,1,11.507,1c.065-.1.132-.192.2-.285A7.661,7.661,0,0,0,9.77.116,7.78,7.78,0,0,0,8.432,0a6.622,6.622,0,0,0-3.94,1.224A10.743,10.743,0,0,0,.937,6.8,20.623,20.623,0,0,0,1.7,21.135c1.7,3.882,6.885,9.637,11.02,12.526h2.851c4.359-2.958,9.858-8.817,11.485-12.526" transform="translate(21.184 56.684)" fill="#fff200"/><path d="M53.342,8.722A31.291,31.291,0,0,0,30.034.038,31.98,31.98,0,0,0,0,31.07C-.2,44.748,8.325,57.911,20.331,62.519h4.091c-3.675-3.357-7.224-7.741-8.712-11.133a24.134,24.134,0,0,1-.89-16.779,14.063,14.063,0,0,1,4.8-7.313,10.394,10.394,0,0,1,7.928-1.737A11.015,11.015,0,0,1,31.561,27.1a11.015,11.015,0,0,1,4.013-1.537A10.381,10.381,0,0,1,43.5,27.3a14.066,14.066,0,0,1,4.8,7.313,24.124,24.124,0,0,1-.889,16.777c-1.436,3.272-5.183,7.714-9.064,11.133h4.443c11.8-4.53,20.33-17.485,20.33-30.957a31.29,31.29,0,0,0-9.78-22.841" transform="translate(3.998 27.826)" fill="#fff200"/><path d="M71.117,35.564A35.558,35.558,0,0,0,33.844.044C15.464.909.284,16.594,0,35.01-.224,49.959,8.937,64.381,21.967,69.877v20a4.784,4.784,0,0,0,4.78,4.779h1.426a7.456,7.456,0,0,0,7.438,6.075,7.2,7.2,0,0,0,7.4-6.075h1.363a4.785,4.785,0,0,0,4.78-4.779V69.876c12.8-5.411,21.965-19.6,21.965-34.312m-26.745,55.1H26.747a.783.783,0,0,1-.783-.781V85.969H45.155v3.914a.783.783,0,0,1-.783.781M22.881,53.994a20.631,20.631,0,0,1-.762-14.336,10.744,10.744,0,0,1,3.557-5.575,6.622,6.622,0,0,1,3.94-1.224,7.893,7.893,0,0,1,3.275.717c-.068.094-.136.189-.2.286a14.456,14.456,0,0,0-2.029,9.083,6.385,6.385,0,0,0,1.356,4.016,4.493,4.493,0,0,0,3.475,1.469A4.447,4.447,0,0,0,39.1,46.961a6.4,6.4,0,0,0,1.356-4.016,14.473,14.473,0,0,0-2.029-9.083c-.065-.1-.132-.192-.2-.286a7.712,7.712,0,0,1,1.938-.6,6.919,6.919,0,0,1,5.278,1.109A10.727,10.727,0,0,1,49,39.658a20.615,20.615,0,0,1-.759,14.336C46.609,57.7,41.11,63.562,36.751,66.52H33.9c-4.135-2.889-9.317-8.644-11.02-12.526M35.559,35.809A11.139,11.139,0,0,1,37,42.74a3.532,3.532,0,0,1-.494,1.927,1.226,1.226,0,0,1-1,.3,1.106,1.106,0,0,1-.883-.3,3.532,3.532,0,0,1-.494-1.927,11.138,11.138,0,0,1,1.437-6.931m9.6,38.672H25.964V70.518H45.155Zm0,8.021H25.964V77.948H45.155ZM46.789,66.52H42.346c3.881-3.42,7.627-7.861,9.064-11.133A24.124,24.124,0,0,0,52.3,38.61,14.067,14.067,0,0,0,47.5,31.3a10.377,10.377,0,0,0-7.928-1.738A11.006,11.006,0,0,0,35.559,31.1a11.013,11.013,0,0,0-4.014-1.537A10.389,10.389,0,0,0,23.617,31.3a14.071,14.071,0,0,0-4.8,7.313,24.142,24.142,0,0,0,.891,16.779c1.488,3.392,5.036,7.776,8.711,11.133H24.328C12.322,61.912,3.792,48.749,4,35.071A31.979,31.979,0,0,1,34.032,4.039,31.562,31.562,0,0,1,67.12,35.564c0,13.471-8.529,26.426-20.33,30.957M35.61,97.269a3.882,3.882,0,0,1-3.821-2.608h7.659a3.7,3.7,0,0,1-3.838,2.608" transform="translate(0.001 23.825)" fill="#575757"/><path d="M0,0V3.914A.783.783,0,0,0,.783,4.7H18.408a.783.783,0,0,0,.783-.781V0Z" transform="translate(25.964 109.794)" fill="#fff"/><rect width="19.191" height="4.554" transform="translate(25.964 101.773)" fill="#fff"/><rect width="19.191" height="3.963" transform="translate(25.964 94.343)" fill="#fff"/><path d="M1.807,18.578a1.808,1.808,0,0,0,1.809-1.809V1.807A1.808,1.808,0,0,0,0,1.807V16.769a1.807,1.807,0,0,0,1.807,1.809" transform="translate(33.752 0)" fill="#575757"/><path d="M10.027,16.031a1.808,1.808,0,1,0,2.913-2.144L3.265.735A1.808,1.808,0,1,0,.352,2.88Z" transform="translate(13.786 4.13)" fill="#575757"/><path d="M.736,16.417a1.81,1.81,0,0,0,2.529-.384L12.938,2.881A1.808,1.808,0,1,0,10.027.737L.352,13.889a1.807,1.807,0,0,0,.384,2.527" transform="translate(44.042 4.128)" fill="#575757"/></g></g></g></svg>