<svg xmlns="http://www.w3.org/2000/svg" viewBox="0 0 556.67 65.12"><defs><style>.cls-1{fill:#30ae35;}.cls-2{fill:#fff;}</style></defs><g id="レイヤー_2" data-name="レイヤー 2"><g id="PC文字とイラスト"><polygon class="cls-1" points="556.67 0 0 0 15.27 32.56 0 65.12 556.67 65.12 541.41 32.56 556.67 0"/><path class="cls-2" d="M106.69,47c-1.64,0-4.76.07-5,.07-.75,0-1-.25-1-1,0-.25.11-4.19.11-6.08V27.92c0-1.89-.11-6-.11-6.22,0-.75.22-.89,1-.89h4.2c.81,0,1,.14,1,.89,0,.25-.1,4.33-.1,6.22V40.49c0,.89.18,1.07,1.06,1.07h2.42c1.67,0,5.26-.08,5.51-.08.74,0,.88.22.88,1V46c0,.82-.14,1-.88,1-.25,0-3.84-.07-5.51-.07Z"/><path class="cls-2" d="M121.5,47c-.82,0-1-.14-1-.89,0-.25.1-4.33.1-6.21v-12c0-1.89-.1-6-.1-6.22,0-.75.21-.89,1-.89h4.19c.82,0,1,.14,1,.89,0,.25-.11,4.33-.11,6.22v12c0,1.88.11,6,.11,6.21,0,.75-.21.89-1,.89Z"/><path class="cls-2" d="M137,39.89c0,1.88.11,6,.11,6.21,0,.75-.21.89-1,.89h-3.94c-.82,0-1-.14-1-.89,0-.25.1-4.33.1-6.21v-12c0-1.89-.1-6-.1-6.22,0-.75.21-.89,1-.89h2.34a1.78,1.78,0,0,1,1.74.82c1.32,1.6,2.56,3,3.84,4.47l7.39,8.42a.71.71,0,0,0,.46.32c.14,0,.25-.18.25-.57V27.92c0-1.89-.11-6-.11-6.22,0-.75.22-.89,1-.89H153c.81,0,1,.14,1,.89,0,.25-.1,4.33-.1,6.22v12c0,1.88.1,6,.1,6.21,0,.75-.21.89-1,.89h-1.78a1.78,1.78,0,0,1-1.74-.82c-1.28-1.49-2.45-2.8-3.91-4.44l-7.89-8.84c-.17-.21-.32-.29-.42-.29s-.29.18-.29.57Z"/><path class="cls-2" d="M167.92,41.56c1.67,0,5.26-.08,5.51-.08.74,0,.89.22.89,1V46c0,.82-.15,1-.89,1-.25,0-3.84-.07-5.51-.07H164.3c-1.64,0-4.76.07-5,.07-.75,0-1-.25-1-1,0-.25.1-4.19.1-6.08V27.81c0-1.88-.1-5.83-.1-6.08,0-.74.24-1,1-1,.25,0,3.37.07,5,.07h2.84c1.67,0,5.26-.07,5.51-.07.74,0,.88.21.88,1v3.66c0,.82-.14,1-.88,1-.25,0-3.84-.07-5.51-.07H165.4c-.89,0-1.07.18-1.07,1.06v2.17c0,.82.15,1,1,1h1c1.67,0,5.26-.07,5.51-.07.75,0,.89.21.89,1v3.37c0,.82-.14,1-.89,1-.25,0-3.84-.07-5.51-.07h-1c-.81,0-1,.14-1,1v3.66c0,.89.18,1.07,1.07,1.07Z"/><path class="cls-2" d="M203.16,21c1.6,0,3.23-.1,4.86-.1,1,0,1,.35,1,1.45v1.92c0,1.17-.07,1.53-1,1.53-1.63,0-3.26-.11-4.86-.11H186.5a1,1,0,0,0-1,1V32a39.7,39.7,0,0,1-2.13,13.39,17.51,17.51,0,0,1-1.6,3.37.87.87,0,0,1-.81.36c-1,0-3.84-1.21-3.84-2.31a5.69,5.69,0,0,1,.43-1c.07-.14.1-.25.14-.32a34.84,34.84,0,0,0,2.63-14.35V26.39c0-1.28-.07-2.52-.07-3.73,0-1.53.92-1.81,2.23-1.81s2.77.1,4.12.1h3.56a1,1,0,0,0,1-1.06,21.24,21.24,0,0,0-.11-2.28c0-.1,0-.24,0-.35,0-.46.39-.5.78-.5s.46,0,1,0c1.49.1,3.59.28,4.23.39.35.07.6.18.6.5s-.18.35-.39.53c-.35.35-.35.85-.35,1.77a1,1,0,0,0,1,1Zm-10,19.82a3.34,3.34,0,0,0-.25,1c0,.39.32.53.67.53s5.29-.53,6.08-.6c.46,0,1.2,0,1.2-.68A34.29,34.29,0,0,0,198.5,37a1.65,1.65,0,0,1-.28-.67c0-.68,1.17-1.21,2.27-1.74.18-.11.39-.18.57-.29a2.85,2.85,0,0,1,1.24-.46.84.84,0,0,1,.75.46c1,1.32,2.59,4.16,3.45,5.69.57,1,3.23,5.89,3.23,6.68S206.32,49,205.54,49c-.53,0-.71-.57-1.49-2.21-.29-.57-.54-.88-1.21-.88-.25.07-13.86,1.88-15.35,2a.72.72,0,0,0-.49.43c-.18.28-.32.46-.61.46-.53,0-.64-.46-.92-1.88-.11-.61-.61-2.77-.61-3.24,0-.67.36-.64,1.57-.74.78-.07,1.06-.11,1.35-.93,1.31-4,3.76-11.93,4.29-15.16.08-.43.15-.82.68-.82.28,0,2.91.71,4.33,1.13.61.18,1.42.43,1.42.82,0,.21-.17.32-.35.39-.5.18-.68.29-.85.75Q195.21,35,193.18,40.77Z"/><path class="cls-2" d="M225.57,21.1c.6,0,1-.43,1-1.14,0-1.21-.14-2.17-.14-2.49s.32-.53.68-.53c.67,0,3.16.25,4.44.39.32,0,.74.11.74.5,0,.21-.17.35-.39.57s-.32.85-.32,1.7a1,1,0,0,0,1,1h4c1.38,0,2.77-.11,4.15-.11.82,0,.89.32.89,1.31V24c0,1.46,0,1.6-1.21,1.6-.74,0-1.92-.11-3.83-.11h-4a1,1,0,0,0-1,1v1.88a1,1,0,0,0,1,1h6.64c1.56,0,3.13-.07,4.69-.07.82,0,.89.35.89,1.34v1.92c0,1.07-.07,1.42-.89,1.42-1.56,0-3.13-.07-4.69-.07H218.78c-1.56,0-3.12.07-4.69.07-.85,0-.92-.42-.92-1.59V31.29c0-1.74,0-2,1-2,.32,0,.64,0,.92,0s.47,0,.47-.25-.29-.28-.5-.39c-.5-.25-1.74-.92-1.74-1.38a2.82,2.82,0,0,1,.53-.93A32.13,32.13,0,0,0,218,17.69c.07-.29.15-.47.5-.47s2.77.64,3.38.78c.92.22,1.88.47,1.88,1,0,.28-.18.36-.54.5a1.62,1.62,0,0,0-.81,1.17.47.47,0,0,0,.5.43Zm-2.06,26.46a.68.68,0,0,0-.71.67v.29c0,.71-.43.78-1.63.78h-2.31c-1.14,0-1.57-.07-1.57-.78s.11-2,.11-3.3V39.71c0-.82-.07-1.64-.07-2.49,0-1.38,1.38-1.42,2.45-1.42s2.38.07,3.55.07h11.19c1.17,0,2.38-.07,3.55-.07s2.45,0,2.45,1.42c0,.78-.07,1.57-.07,2.49v5.51c0,1.1.11,2.87.11,3.3,0,.71-.43.78-1.63.78h-2.31c-1.1,0-1.57-.07-1.57-.75v-.28a.67.67,0,0,0-.71-.71Zm2.06-18.22a1,1,0,0,0,1-1V26.46a1,1,0,0,0-1-1h-4.19c-1.14,0-1.46.54-2.13,1.67-.22.36-.5.86-.78,1.32a1.16,1.16,0,0,0-.22.5c0,.28.32.39.57.39Zm8.6,14a1,1,0,0,0,1-1V41.17a1,1,0,0,0-1-1H223.69a1,1,0,0,0-1,1V42.3a1,1,0,0,0,1,1Z"/><path class="cls-2" d="M274.69,24.36a12.5,12.5,0,0,1,3.77,9.13,13.33,13.33,0,0,1-7.14,11.8,13.78,13.78,0,0,1-4.23,1.59c-1.24,0-3.12-3.26-3.12-4.26,0-.32.32-.46,1.35-.71,4.12-1.06,7.49-3.66,7.49-8.2,0-5.58-4.26-7.78-5.33-7.78-.6,0-.67.64-.71,1.27-.39,4.94-1.81,11-5.08,14.89-1.31,1.6-3,2.95-5.15,2.95a6.34,6.34,0,0,1-5.4-3.66A12.12,12.12,0,0,1,250,36.05,15,15,0,0,1,265.1,20.74,13.18,13.18,0,0,1,274.69,24.36ZM255.26,36c0,.85.22,3.44,1.46,3.44.85,0,2.06-2.34,2.41-3.09a31.8,31.8,0,0,0,2.24-9.09c0-.28-.14-.53-.46-.53C259.88,26.71,255.26,30,255.26,36Z"/><path class="cls-2" d="M308.61,17a.94.94,0,0,1,.4.15c1.06.49,2.2.92,3.3,1.31.78.29,1.17.43,1.17.78s-.32.46-.64.57a1.23,1.23,0,0,0-.71.53,3,3,0,0,1-.18.29,5.8,5.8,0,0,0-.74,1.28c0,.32.28.46.57.46.64,0,1.28-.07,1.91-.07.79,0,.86.35.86,1.13v1.5c0,.92-.07,1.28-.86,1.28-1.24,0-2.45-.08-3.65-.08h-2.28a.47.47,0,0,0-.46.47v.17a.47.47,0,0,0,.46.46h1.64c1.1,0,2.2-.07,3.3-.07.85,0,.92.36.92,1.28v1.14c0,.78-.07,1.21-.85,1.21-1.14,0-2.24-.07-3.37-.07h-1.64a.47.47,0,0,0-.46.46v.21a.44.44,0,0,0,.46.46h2.81c1.21,0,2.41-.07,3.66-.07.78,0,.85.39.85,1.25v1.38c0,1-.07,1.28-.89,1.28-.28,0-.53,0-.82,0s-.49.07-.49.36a11.4,11.4,0,0,0,1.56,1.74c.18.18.6.6.6.89a.42.42,0,0,1-.42.39h-.21a.55.55,0,0,0-.25,0,.83.83,0,0,0-.57.22c-.11.07-.22.17-.36.28-.56.46-1.28,1-1.28,1.31s.22.43.39.57c.86.78,1.5,1.35,2.42,2.06.57.43.85.64.85,1,0,.89-2.41,2.91-3.27,2.91s-3.69-3.55-4.26-4.29c-.1-.15-.25-.32-.42-.32-.32,0-.36.32-.36.53,0,.5,0,1,0,1.49a4.33,4.33,0,0,1-.93,3.09c-1.24,1.28-3.66,1.46-5.32,1.46-.57,0-1.39,0-1.64-.57a9,9,0,0,1-.53-2.91c0-.57.21-1.1.89-1.1.42,0,1.17.17,1.91.17.54,0,.64-.17.64-1V36.58a1,1,0,0,0-1-1h-2.88c-.18,0-.39,0-.39.25s.18.21.32.28,1.78,1.21,1.78,1.6a6.1,6.1,0,0,1-.93,1.81c-.07.11-.18.21-.18.32a.17.17,0,0,0,.18.18,1,1,0,0,0,.43-.18,7.3,7.3,0,0,1,1-.53c.57,0,1.14,2,1.14,2.91,0,.6-.25.78-.86,1.17-.85.57-2.87,1.85-4.33,2.7-.25.14-.32.25-.36.68-.07.25-.17.57-.49.57s-.36-.22-.61-.57a24,24,0,0,1-1.52-3,2,2,0,0,1-.25-.78c0-.29.14-.32.35-.39.75-.25,2.24-.93,2.92-1.25.53-.24.88-.42.88-.71s-.1-.28-.35-.49a18,18,0,0,0-2.31-1.57c-.18-.1-.25-.17-.25-.32A10.49,10.49,0,0,1,295.76,36a.61.61,0,0,0,.07-.25c0-.25-.25-.07-.36-.53,0-.11-.07-.25-.14-.25s-.18.18-.18.25-.71,1.31-.89,1.63a.75.75,0,0,1-.64.53c-.35,0-.63-.53-.88-.88-.11-.15-.15-.22-.25-.22s-.22.22-.22.54v6.57c0,1.63.07,3.27.07,4.9,0,.82-.35.89-1.38.89H288.9c-1.06,0-1.39-.07-1.39-.93,0-1.63.08-3.26.08-4.86V40.81c0-.28,0-.43-.18-.43s-.43.54-.5.75c-.25.6-.82,2.2-1.46,2.2s-2.91-2.38-2.91-3.51c0-.32.14-.57.5-1.18a38.34,38.34,0,0,0,3-7.53,25.58,25.58,0,0,0,.71-2.8.54.54,0,0,0-.57-.5c-.6,0-1.21.07-1.81.07s-.82-.36-.82-1.31v-2.1c0-1,.07-1.39.82-1.39s1.42.08,2.13.08a1,1,0,0,0,1.07-1.11V19.92a13.06,13.06,0,0,0-.11-2.09v-.29c0-.42.28-.49.6-.49a5.22,5.22,0,0,1,.82.07c.57.07,1.1.1,1.56.14,1.6.11,2.53.18,2.53.67,0,.22-.18.36-.4.54s-.32.74-.32,1.59v2a1,1,0,0,0,1,1c.14,0,.64,0,1,0,.74,0,.82.32.82,1.35v2.14c0,.95-.08,1.31-.79,1.31-.46,0-1-.07-1.45-.07a.56.56,0,0,0-.54.57,1.8,1.8,0,0,0,.29,1,24.62,24.62,0,0,0,2.49,3.3c.07,0,.1.11.21.11s.14-.18.18-.29c0-.6.35-.71.88-.71,1.21,0,2.38.07,3.59.07h2a.43.43,0,0,0,.46-.46v-.21a.45.45,0,0,0-.46-.46h-1c-1.1,0-2.24.07-3.34.07-.82,0-.89-.39-.89-1.35v-1c0-1,.11-1.32.92-1.32,1.1,0,2.21.07,3.31.07h1a.45.45,0,0,0,.46-.46v-.17a.45.45,0,0,0-.46-.47h-1.53c-1.2,0-2.41.08-3.65.08-.82,0-.89-.36-.89-1.32V23.55c0-1,.1-1.28,1-1.28.28,0,.53,0,.81,0s.78-.14.78-.6a5.28,5.28,0,0,0-.67-1.46c-.07-.18-.57-1.17-.57-1.28,0-.81,3.59-1.74,3.91-1.74s.64.29,1.38,1.78l.18.36a10.51,10.51,0,0,1,.68,1.63c0,.42-.82.74-1.14.82-.14.07-.39.14-.39.32s.14.21.42.21h2.32c1.31,0,1.91-.32,3.48-4.62C308.19,17.08,308.26,17,308.61,17Zm-.1,18.62c-.29,0-.68.07-.68.42s.82,1.6,1.28,1.6a.93.93,0,0,0,.57-.32c.25-.21.85-.88.92-1a.62.62,0,0,0,.25-.39c0-.28-.21-.35-.6-.35Z"/><path class="cls-2" d="M342.89,26a4,4,0,0,0,1.56-.21,2.36,2.36,0,0,1,.68-.14c1.24,0,3.94,2.66,3.94,3.83,0,.32-.25.5-.46.68-1.78,1.31-6.71,7.49-8.56,9.63a1,1,0,0,0-.32.63,1.06,1.06,0,0,0,.39.72c.6.64,2.7,2.77,2.7,3.55s-2.77,3.59-3.62,3.59c-.36,0-.61-.36-.93-.79-.07-.1-.14-.17-.21-.28a40.75,40.75,0,0,0-5.47-5.68,39.74,39.74,0,0,0-4-2.85.81.81,0,0,1-.5-.67c0-.6,2.7-3.66,3.7-3.66a11.25,11.25,0,0,1,2.7,1.6c.78.57.89.67,1.13.67s.36-.17.5-.35c1-1.14,1.85-2.2,2.81-3.38a3.22,3.22,0,0,0,.74-1.17c0-.6-.74-.67-1.2-.67h-5.62a1.47,1.47,0,0,0-1.56.81,42.88,42.88,0,0,1-5.15,5.87c-.57.53-2.52,2.41-3.23,2.41s-1.53-1-2-1.49-1.6-1.74-1.6-2.35c0-.24.11-.32.57-.64s2.06-1.56,2.41-1.88a46,46,0,0,0,4.87-5.54A33.07,33.07,0,0,0,332.13,19c.07-.28.18-.74.71-.74a10.59,10.59,0,0,1,2.91,1.14c1.53.74,2.38,1.13,2.38,1.7s-.46.57-.82.68-.53.17-.67.6A22.37,22.37,0,0,1,335.43,25a1.38,1.38,0,0,0-.25.6c0,.39.43.39.75.39Z"/><path class="cls-2" d="M370.31,18.64c.43.11.82.25.82.47s-.25.35-.68.64a6.86,6.86,0,0,0-.63,2,1.67,1.67,0,0,0-.08.29c0,.11,0,.25,0,.39s.18.5.42.5a3.38,3.38,0,0,0,.79-.22,1.87,1.87,0,0,1,.6-.14c.32,0,.43.18.5.53a36.48,36.48,0,0,1,.35,3.7c0,.82-.49,1-3.27,1.45-1.24.22-1.27.47-1.7,1.6-.6,1.64-1.28,3.24-2,4.83-.92,2.1-1.88,4.23-3,6.26-.29.49-.64,1.06-.86,1.49a.74.74,0,0,1-.78.53c-1.2,0-4.61-1.49-4.61-2.41a5.91,5.91,0,0,1,.74-1.42c.71-1.21,4.58-8.28,4.58-9.17a.56.56,0,0,0-.6-.53c-.22,0-.92.07-1.17.1s-1.14.11-1.57.11c-.74,0-1.06-.32-1.31-3.34a11.91,11.91,0,0,1-.11-1.24c0-.5.29-.64.71-.64.61,0,1.46.07,2.24.07,3.23,0,3.7-.07,4.05-1a23.85,23.85,0,0,0,.89-5.51c0-.28,0-.57.25-.57C365.34,17.4,369.6,18.47,370.31,18.64Zm4.76,11.16c.61.14.93.39.93,1,0,.35-.07,1-.07,1.63,0,1.78.14,3.52.24,5.26,0,.85.22,1.07,1,1.39,1,.39,5.48,2.48,5.48,3.48,0,.78-2,3.69-3.13,3.69-.29,0-.78-.32-1.56-.92-.22-.18-.43-.36-.68-.54a.82.82,0,0,0-.57-.21.78.78,0,0,0-.78.61,6.21,6.21,0,0,1-1.21,1.66,6.15,6.15,0,0,1-4.3,1.35c-3.37,0-6.89-1.63-6.89-5.47,0-3.55,3.13-5.08,6.29-5.08h.28a.79.79,0,0,0,.86-.85c0-.6-.32-3.76-.43-4.83a13.43,13.43,0,0,1-.14-1.67c0-.74.28-1,1.06-1A21,21,0,0,1,375.07,29.8Zm-6.25,13a1.2,1.2,0,0,0,1.31,1.07c.82,0,1.11-.43,1.11-1.17,0-.46,0-.85-1.07-.85C369.57,41.81,368.82,42.05,368.82,42.76ZM381,25.57c.82.75,3,2.88,3,3.62,0,1.11-2.87,3.56-3.76,3.56-.43,0-.75-.54-1-.93a22.7,22.7,0,0,0-4.45-4.58c-.28-.21-.63-.46-.63-.75,0-.56,2.27-3.48,3.26-3.48C378.2,23,380.47,25,381,25.57Z"/><path class="cls-2" d="M416.67,21.24a15.6,15.6,0,0,1,3.12,1.42c.22.14.32.25.32.42a.43.43,0,0,1-.46.47h-.11a.67.67,0,0,0-.71.42c-.21.39-1,1.64-1.17,1.89a.56.56,0,0,0-.11.32c0,.14.07.21.18.21s.64-.21,1-.21.78.71,1.56,2.8a20.39,20.39,0,0,1,.93,2.88c0,.53-1.6.85-2,.85s-.42-.25-.53-.6a.89.89,0,0,0-.71-.61c-.07,0-.5.07-.68.11s-.39.07-.39.32.18.32.36.43,1.06.64,1.06.88a.63.63,0,0,1-.1.39.51.51,0,0,0-.11.25.49.49,0,0,0,.46.43c.43,0,.86,0,1.28,0,.71,0,.78.43.78,1.21v1.28c0,1-.07,1.28-.89,1.28S418.3,38,417.59,38c-.11,0-.36,0-.36.18s1.07.81,1.32,1,.74.42.74.78-.56.39-.67.42c-.57.07-.68.29-1,.75a13,13,0,0,1-1.27,1.6,1.2,1.2,0,0,0,.39,2.2c.64,0,.81-2.1.88-2.59s.08-.57.72-.57c1.1,0,2.62.57,2.62,1.85a9.48,9.48,0,0,1-1.2,4,2.66,2.66,0,0,1-2.38,1.63,5.51,5.51,0,0,1-4.16-2.34,1.07,1.07,0,0,0-.89-.43,1.23,1.23,0,0,0-.78.29c-1,.64-4.87,2.59-5.86,2.59-.75,0-1.78-2.17-1.78-3,0-.57.54-.67,1.14-.85,1-.29,5.26-1.81,5.26-3a1.94,1.94,0,0,0-.22-.78,25.28,25.28,0,0,1-.92-2.63c-.25-.89-.67-1.1-1.56-1.1h-2c-.28,0-1,0-1,.46a.75.75,0,0,0,.6.68,19.39,19.39,0,0,1,2.81,1.31c.68.39.78.5.78.89,0,1.35-1.38,3-2,3-.21,0-.39-.21-.67-.43s-1.28-1.1-1.71-1.1-.53.57-.6.86A22.12,22.12,0,0,1,402,48.31c-.32.6-.53.92-1.17.92s-3-.89-3-1.74a1.38,1.38,0,0,1,.28-.64,19,19,0,0,0,2.38-5.47,17.74,17.74,0,0,0,.46-2.7c0-.53-.21-.64-.7-.64-.65,0-.68-.46-.68-1.14v-.81c0-.11,0-.29-.18-.29s-.25.18-.28.29c-.14.32-.39.88-.78.88s-.89-.88-1-1.17c-.07-.14-.15-.28-.29-.28s-.21.28-.21.57v7.49c0,1.6.07,3.16.07,4.73,0,.85-.32.92-1.46.92h-1.88c-1.06,0-1.49-.07-1.49-.89,0-1.56.11-3.16.11-4.76V41.66c0-.28,0-.6-.22-.6s-.39.42-.5.71c-.42,1.1-.56,1.49-1.06,1.49-.78,0-2.42-2.56-2.42-3.44a2.11,2.11,0,0,1,.32-.93,27,27,0,0,0,2.53-6.53c.17-.71.88-3.77.88-4.37a.52.52,0,0,0-.53-.54c-.32,0-1.07.07-1.39.07-.67,0-.74-.42-.74-1.52V24c0-.85.07-1.32.74-1.32.4,0,1.11.08,1.43.08a1,1,0,0,0,1-1V19.32c0-.78-.15-1.46-.15-1.78s.32-.46.64-.46,3,.25,4.37.43c.29,0,.68.07.68.46s-.25.35-.5.53-.39.68-.39,1.56v1.75a1,1,0,0,0,1,1c1.67,0,1.77-.22,1.92-.5s.32-.5.49-.5a1.59,1.59,0,0,0,.32.07c.29,0,.43-.39.61-.74a25.43,25.43,0,0,0,1.45-3.45c.07-.25.15-.43.36-.43a14.36,14.36,0,0,1,2.59,1.07c.32.14.57.28.57.53s-.25.43-.53.43h-.11a.81.81,0,0,0-.78.42c-.46.86-1.1,2-1.49,2.6a4,4,0,0,0-.61,1.13.76.76,0,0,0,.57.64c.29,0,.36-.17,1-1.84.18-.43.21-.54.43-.54a14.63,14.63,0,0,1,2.13,1.07.87.87,0,0,0,.53.21c.32,0,.39-.35.39-.6,0-1.24-.07-2.49-.07-3.7V17.9c0-.57.21-.75.78-.75l3.16.25c.75.07,1,.14,1,.57s-.25.5-.57.67-.39.32-.39,1v1.67c0,.1,0,.25.11.28a2.74,2.74,0,0,0,.46.18c.07,0,.14-.07.25-.25a21.21,21.21,0,0,0,1.74-4c.1-.35.14-.46.35-.46a14.48,14.48,0,0,1,2.63,1.21c.36.18.53.32.53.6s-.31.39-.56.39H417c-.32,0-.36.18-.57.54-.46.81-1.32,2.27-1.82,3a.74.74,0,0,0-.14.46c0,.28.14.57.47.57s.56-.43,1.27-2C416.35,21.56,416.42,21.24,416.67,21.24ZM399.51,31.75c0-.14-.21-1.1-.21-1.42s.31-.32.49-.32a.8.8,0,0,0,.64-.35,9.25,9.25,0,0,0,1.21-2.31c0-.64-1.38-1.39-1.6-1.39s-.32.22-.32.43v.1c0,.57-.07,1-.71,1-.39,0-1.14-.1-1.56-.1a.63.63,0,0,0-.64.53c0,.92,2.24,4,2.56,4C399.47,32,399.51,31.86,399.51,31.75Zm7.78,2.6c.39,0,.81,0,.81-.54,0-.25-.07-.6-.39-.6a1.09,1.09,0,0,0-.35.07,4.32,4.32,0,0,1-1,.21c-.32,0-.39-.21-.46-.46s-.25-.5-.6-.5c-.08,0-3.88.54-4.16.57s-.36.07-.53.36-.15.21-.36.25A.33.33,0,0,0,400,34c0,.28.32.28.49.28,1.21,0,2.38.08,3.59.08Zm-2.56-4.94a3.81,3.81,0,0,0-.21-.68c0-.14-.15-.28-.29-.28s-.46.42-.71.78a.72.72,0,0,0-.14.28.28.28,0,0,0,.29.29C404.34,29.8,404.73,29.76,404.73,29.41Zm.21-2.28c0,.15.11.18.22.18l.32,0a3.81,3.81,0,0,1,.85-.22c.46,0,.89,1.25,1,1.64,0,.1.11.25.25.25s.14-.18.14-.29c0-1.06,0-2.95-.07-4.08a.51.51,0,0,0-.46-.54.77.77,0,0,0-.78.39C406.22,24.75,404.94,27.06,404.94,27.13Zm6.54.61c0,.67,0,1.6.39,1.6s1.42-1.78,1.42-2.14c0-.67-1.35-1.38-1.42-1.38-.39,0-.39.46-.39.75Zm2.81,6.61c.35,0,.56,0,.56-.25s-.17-.29-1-.75c-.15-.07-.32-.14-.32-.28s.28-.5.28-.71-.14-.22-.32-.22c-.53,0-1.74.11-1.74.86,0,1.06.28,1.35,1.14,1.35ZM413.72,38c-.32,0-.71.07-.71.46,0,.14.25,1.42.71,1.42S415,38.61,415,38.36s-.4-.39-.64-.39ZM416.13,29l.68-.07c.25,0,.46-.18.46-.43a2.16,2.16,0,0,0-.21-.6c-.07-.15-.18-.36-.39-.36s-.29.21-.54.57-.39.46-.39.57S415.92,29,416.13,29Z"/><path class="cls-2" d="M429.49,16.76c.14,0,2.87.68,3.27.78.92.22,1.88.39,1.88.86s-.43.49-.57.49a1.09,1.09,0,0,0-.78.64c0,.11-.14.29-.25.5a12.06,12.06,0,0,0-1.17,2.52c0,.39.39.5.71.5.81,0,1.95,0,1.95-.64a2.4,2.4,0,0,0-.39-1.07,1.37,1.37,0,0,1-.21-.53c0-.71,2.91-1.53,3.3-1.53s.5.25.68.47c.32.46,1.42,2.45,1.7,3a21,21,0,0,1,1.53,3.87c0,.92-2.77,1.84-3.48,1.84-.43,0-.47-.25-.68-.74s-.39-.68-.92-.68c-1.46.14-5.72.57-9.34.89a.87.87,0,0,0-.5.46.66.66,0,0,1-.61.43c-.49,0-.6-.57-1.06-2.27a21.78,21.78,0,0,1-.64-2.6c0-.49.43-.49,1.17-.53.18,0,.36,0,.57,0a1.44,1.44,0,0,0,1.56-1.13c.71-1.67,1.28-3.31,1.85-5C429.17,16.94,429.24,16.76,429.49,16.76Zm.42,28.38c0,1.25.07,2.31.07,3.13,0,.67-.32.75-1.31.75h-2.2c-.89,0-1.25-.08-1.25-.71,0-.86.07-2,.07-3.17V33.46c0-1-.07-2.06-.07-3,0-1.31.79-1.52,1.92-1.52s2.06.07,3.06.07h4c1,0,1.88-.07,2.84-.07,1.18,0,2.13.07,2.13,1.52,0,.93-.07,2-.07,3v9.87c0,4.94,0,5.65-5.65,5.65-1.49,0-2.16-.35-2.16-3.13v-.21c0-.64.07-1.24.89-1.24a4.3,4.3,0,0,1,.6,0,3.54,3.54,0,0,0,.85.11c.61,0,.86-.18.86-.82a.41.41,0,0,0-.43-.46h-3.16a.92.92,0,0,0-1,1Zm0-11.4a.56.56,0,0,0,.57.57h3.41a.56.56,0,0,0,.57-.57v-.11a.56.56,0,0,0-.57-.56h-3.41a.56.56,0,0,0-.57.56Zm0,5.12a.69.69,0,0,0,.68.71h3.19a.68.68,0,0,0,.68-.71v-.11a.66.66,0,0,0-.68-.68h-3.19a.7.7,0,0,0-.68.72Zm18,1.91c-.71.22-1.63.47-1.63,1.39v.36c0,.92,0,1.42,1.1,1.42h2.27c1,0,1.71-.15,2-2.53.07-.74.07-1.2,1-1.2a5.4,5.4,0,0,1,2.41.78c.61.32,1.14.67,1.14,1.42a14.19,14.19,0,0,1-1.39,4.65c-.74,1.28-2.27,1.49-3.65,1.49h-6.65c-2.17,0-3.34-.95-3.34-3.19,0-1,0-2,0-3.06V36.23c0-1.21-.11-2-.11-2.31s.29-.5.68-.5c.6,0,4,.25,4.69.32.39,0,.85.14.85.64s-.29.43-.61.6-.39.54-.39.93.08.82.54.82c.85,0,3.83-1.89,4.54-2.49.15-.14.39-.39.61-.39s.6.35,1.28,1.1c.24.32.6.71,1,1.14s1.49,1.49,1.49,1.88c0,.14-.1.43-.57.43a1,1,0,0,1-.56-.15c-.07,0-.11,0-.18,0a1.08,1.08,0,0,0-.5.18A36.94,36.94,0,0,1,447.92,40.77Zm-.74-16.05c-.47.14-.82.35-.82.89v.28c0,.92,0,1.46,1.1,1.46h2.38c1.1,0,1.49-.36,1.71-1.14a11.06,11.06,0,0,0,.24-1.46c.08-.56.18-.92,1-.92a5.55,5.55,0,0,1,2.41.57A1.57,1.57,0,0,1,456.31,26a10.25,10.25,0,0,1-1.53,4.62c-.85,1.39-2,1.56-3.52,1.56h-5.47c-3.09,0-4.55-.21-4.55-3.48,0-1,0-2,0-3V22c0-1.71-.11-3.66-.11-4s.25-.53.64-.53,4.16.25,4.73.32c.32.07.74.21.74.64s-.28.43-.53.53-.35.61-.35.89.14.68.56.68a14.61,14.61,0,0,0,4.55-2.67c.14-.1.43-.35.6-.35s.79.56,1.35,1.24a8.7,8.7,0,0,0,.79.92,2.83,2.83,0,0,0,.35.39c.5.54,1.21,1.35,1.21,1.64a.51.51,0,0,1-.53.46,1.53,1.53,0,0,1-.36-.07,2.13,2.13,0,0,0-.5-.11.84.84,0,0,0-.46.18A55,55,0,0,1,447.18,24.72Z"/></g></g></svg>