<svg xmlns="http://www.w3.org/2000/svg" xmlns:xlink="http://www.w3.org/1999/xlink" width="297.341" height="141.512" viewBox="0 0 297.341 141.512"><defs><clipPath id="a"><rect width="297.341" height="74.571" transform="translate(0 0)" fill="none"/></clipPath></defs><g transform="translate(-226 -3835.169)"><text transform="translate(375 3970.681)" fill="#575757" font-size="48" font-family="YuGo-Bold, YuGothic" font-weight="700"><tspan x="-96" y="0">制作事例</tspan></text><g transform="translate(226 3835.168)"><g clip-path="url(#a)"><path d="M32.516,31.614S5.738,39.186,0,42.055l16.258,15.3L9.563,74.572,48.774,62.139" fill="#575757"/><path d="M36.3,52.575l11.476,9.564V34.085Z" fill="#575757"/><path d="M264.825,31.614s26.778,7.572,32.516,10.441l-16.258,15.3,6.7,17.215L248.567,62.139" fill="#575757"/><path d="M261.043,52.575l-11.476,9.564V34.085Z" fill="#575757"/><path d="M261.043,52.575a718.329,718.329,0,0,0-224.745,0q-3.42-21.6-6.841-43.193a762.111,762.111,0,0,1,238.427,0q-3.42,21.6-6.841,43.193" fill="#575757"/></g><path d="M5.125-18.85,8.375-6.675l4-12.175h3.9l4,12.175,3.25-12.175H28.65L23.025,0h-5l-3.7-10.925L10.625,0h-5L0-18.85Z" transform="translate(85.504 33.333) rotate(-3.901)" fill="#fd0"/><g clip-path="url(#a)"><path d="M84.222,14.526,91.116,32.95l4.989-.34,2.948-11.151,4.435,10.647,4.988-.34,4.329-19.189-5.113.348-2.414,12.369L100.459,13.42l-3.891.264L93.406,26.1,89.335,14.177Z" fill="none" stroke="#575757" stroke-miterlimit="10" stroke-width="2"/></g><path d="M6.25-9.425A5.023,5.023,0,0,0,6.675-7.35,5.247,5.247,0,0,0,7.825-5.7,5.2,5.2,0,0,0,9.513-4.613a5.4,5.4,0,0,0,2.038.388,5.4,5.4,0,0,0,2.038-.388,5.344,5.344,0,0,0,1.7-1.088A5.149,5.149,0,0,0,16.45-7.35a5.023,5.023,0,0,0,.425-2.075A5.023,5.023,0,0,0,16.45-11.5a5.149,5.149,0,0,0-1.163-1.65,5.344,5.344,0,0,0-1.7-1.088,5.4,5.4,0,0,0-2.038-.387,5.4,5.4,0,0,0-2.038.387A5.2,5.2,0,0,0,7.825-13.15a5.247,5.247,0,0,0-1.15,1.65A5.023,5.023,0,0,0,6.25-9.425Zm-5.125,0A9.846,9.846,0,0,1,1.9-13.338,9.763,9.763,0,0,1,4.05-16.5a9.824,9.824,0,0,1,3.288-2.113,11.277,11.277,0,0,1,4.213-.763,11.3,11.3,0,0,1,4.2.763A9.935,9.935,0,0,1,19.063-16.5a9.668,9.668,0,0,1,2.163,3.163A9.846,9.846,0,0,1,22-9.425a9.846,9.846,0,0,1-.775,3.913A9.668,9.668,0,0,1,19.063-2.35,9.935,9.935,0,0,1,15.75-.238a11.3,11.3,0,0,1-4.2.763A11.277,11.277,0,0,1,7.338-.238,9.824,9.824,0,0,1,4.05-2.35,9.763,9.763,0,0,1,1.9-5.513,9.846,9.846,0,0,1,1.125-9.425Z" transform="translate(118.895 31.218) rotate(-1.453)" fill="#fd0"/><g clip-path="url(#a)"><path d="M120.654,25.659a9.668,9.668,0,0,0,5.57,5.135,11.975,11.975,0,0,0,8.409-.213,9.942,9.942,0,0,0,3.258-2.195,9.656,9.656,0,0,0,2.082-3.217,10.259,10.259,0,0,0-.2-7.822,9.671,9.671,0,0,0-2.242-3.107,9.948,9.948,0,0,0-3.365-2.028,12,12,0,0,0-8.41.213,9.982,9.982,0,0,0-5.1,13.234Zm4.622-6.107a5.194,5.194,0,0,1,2.767-2.808,5.549,5.549,0,0,1,4.074-.1,5.352,5.352,0,0,1,1.727,1.044,5.164,5.164,0,0,1,1.2,1.62,5.269,5.269,0,0,1,.1,4.148,5.155,5.155,0,0,1-1.12,1.679,5.324,5.324,0,0,1-1.672,1.131,5.556,5.556,0,0,1-4.074.1,5.18,5.18,0,0,1-1.714-1.043,5.239,5.239,0,0,1-1.192-1.621,5.283,5.283,0,0,1-.1-4.149Z" fill="none" stroke="#575757" stroke-miterlimit="10" stroke-width="2"/></g><path d="M6.875-10.425H7.8a3.573,3.573,0,0,0,2.225-.6A2.051,2.051,0,0,0,10.8-12.75a2.051,2.051,0,0,0-.775-1.725,3.573,3.573,0,0,0-2.225-.6H6.875ZM17.65,0h-6.1L6.875-7.25V0h-4.9V-18.85H9.6a7.484,7.484,0,0,1,2.75.463,5.321,5.321,0,0,1,1.938,1.262,5.323,5.323,0,0,1,1.15,1.85,6.447,6.447,0,0,1,.388,2.25,5.53,5.53,0,0,1-1.038,3.488,5.225,5.225,0,0,1-3.062,1.813Z" transform="matrix(1, 0.01, -0.01, 1, 146.854, 30.642)" fill="#fd0"/><g clip-path="url(#a)"><path d="M158.654,23.032a5.219,5.219,0,0,0,3.08-1.783,5.521,5.521,0,0,0,1.071-3.476,6.454,6.454,0,0,0-.365-2.254,5.176,5.176,0,0,0-3.057-3.143,7.5,7.5,0,0,0-2.745-.489l-7.625-.075-.184,18.849,4.9.048.071-7.25,4.6,7.3,6.1.06Zm-4.778-7.4.925.009a3.578,3.578,0,0,1,2.219.622A2.053,2.053,0,0,1,157.778,18a2.053,2.053,0,0,1-.792,1.718,3.576,3.576,0,0,1-2.231.578l-.924-.01Z" fill="none" stroke="#575757" stroke-miterlimit="10" stroke-width="2"/></g><path d="M6.875-11.075,12.85-18.85H18.9L11.425-9.925,19.6,0H13.25L6.875-8.175V0h-4.9V-18.85h4.9Z" transform="matrix(0.999, 0.043, -0.043, 0.999, 169.43, 30.927)" fill="#fd0"/><g clip-path="url(#a)"><path d="M177.1,12.388l-4.9-.21-.8,18.833,4.9.209.349-8.167,6.02,8.439,6.344.271L181.267,21.5l7.849-8.6-6.044-.258-6.3,7.513Z" fill="none" stroke="#575757" stroke-miterlimit="10" stroke-width="2"/></g><path d="M12.325-14.025a6.051,6.051,0,0,0-1.6-.963,4.249,4.249,0,0,0-1.55-.312,2.515,2.515,0,0,0-1.55.45,1.4,1.4,0,0,0-.6,1.175,1.169,1.169,0,0,0,.3.825,2.614,2.614,0,0,0,.788.563,6.74,6.74,0,0,0,1.1.412q.613.175,1.213.375a7.56,7.56,0,0,1,3.513,2.138A5.273,5.273,0,0,1,15.05-5.875a6.789,6.789,0,0,1-.488,2.625,5.477,5.477,0,0,1-1.425,2.013,6.575,6.575,0,0,1-2.3,1.3A9.579,9.579,0,0,1,7.75.525,11.355,11.355,0,0,1,1.125-1.6l2.1-3.95A8.519,8.519,0,0,0,5.4-4.1a5.228,5.228,0,0,0,2.125.475,2.536,2.536,0,0,0,1.788-.55A1.674,1.674,0,0,0,9.9-5.425a1.688,1.688,0,0,0-.15-.738,1.6,1.6,0,0,0-.5-.575,4.007,4.007,0,0,0-.913-.488q-.562-.225-1.362-.5-.95-.3-1.863-.663A5.861,5.861,0,0,1,3.488-9.35a4.473,4.473,0,0,1-1.15-1.513A5.349,5.349,0,0,1,1.9-13.175a6.681,6.681,0,0,1,.463-2.538,5.639,5.639,0,0,1,1.3-1.95,5.8,5.8,0,0,1,2.05-1.263,7.749,7.749,0,0,1,2.713-.45,11.873,11.873,0,0,1,2.925.387,12.9,12.9,0,0,1,2.925,1.138Z" transform="translate(194.079 32.085) rotate(4.267)" fill="#fd0"/><g clip-path="url(#a)"><path d="M209.643,15.347a12.914,12.914,0,0,0-2.832-1.352,11.828,11.828,0,0,0-2.888-.6,7.756,7.756,0,0,0-2.738.247,5.786,5.786,0,0,0-2.139,1.106,5.65,5.65,0,0,0-1.442,1.848,6.7,6.7,0,0,0-.649,2.5,5.337,5.337,0,0,0,.264,2.339,4.473,4.473,0,0,0,1.034,1.594A5.857,5.857,0,0,0,199.8,24.1q.884.429,1.808.8c.518.222.959.423,1.322.6a4.043,4.043,0,0,1,.873.555,1.593,1.593,0,0,1,.456.61,1.7,1.7,0,0,1,.1.747,1.674,1.674,0,0,1-.679,1.2,2.543,2.543,0,0,1-1.824.416,5.245,5.245,0,0,1-2.084-.632,8.558,8.558,0,0,1-2.061-1.609l-2.388,3.784a11.362,11.362,0,0,0,6.449,2.612,9.586,9.586,0,0,0,3.113-.232,6.569,6.569,0,0,0,2.391-1.126,5.479,5.479,0,0,0,1.571-1.9,6.8,6.8,0,0,0,.681-2.582,5.277,5.277,0,0,0-.85-3.561,7.569,7.569,0,0,0-3.344-2.392q-.583-.243-1.181-.464a6.647,6.647,0,0,1-1.066-.493,2.632,2.632,0,0,1-.744-.62,1.173,1.173,0,0,1-.238-.845,1.4,1.4,0,0,1,.687-1.127,2.515,2.515,0,0,1,1.579-.334,4.241,4.241,0,0,1,1.522.428,6.044,6.044,0,0,1,1.524,1.078Z" fill="none" stroke="#575757" stroke-miterlimit="10" stroke-width="2"/></g></g></g></svg>