<svg xmlns="http://www.w3.org/2000/svg" xmlns:xlink="http://www.w3.org/1999/xlink" width="453.9" height="193.85" viewBox="0 0 453.9 193.85"><defs><clipPath id="a"><rect width="220" height="66.451" fill="none"/></clipPath></defs><g transform="translate(-147.3 -12042.066)"><path d="M-102.8-22.95c-2.45,0-6.15-.05-9.7-.35a22.106,22.106,0,0,0,.5,4.55c.15.8.3,1.2.95,1.15,2.45-.2,6.15-.2,7.95-.2h8.9a20.625,20.625,0,0,1-2.2,8.3c-2.05,3.75-4.35,6.3-9.35,9.25a20.6,20.6,0,0,1,5.3,1.9,1.9,1.9,0,0,0,.9.3,1.552,1.552,0,0,0,.85-.35,23.786,23.786,0,0,0,7.95-9.35,27.133,27.133,0,0,0,2.5-10.05h6.15c3.65,0,6.55.05,9.7.15.6,0,.6-.2.65-.9a35.555,35.555,0,0,0,0-4c-.05-.55-.05-.8-.55-.8-2.25.1-6.5.35-9.65.35h-6.2c0-1.7,0-2.85.05-3.95a4.818,4.818,0,0,1,.35-1.7,2.489,2.489,0,0,0,.3-.85.741.741,0,0,0-.65-.7,14.821,14.821,0,0,0-3.25-.65c2.95-.6,6-1.35,9.05-2.2,1.05-.25,2.1-.7,3.15-.85.8-.05,1.3-.15,1.3-.7A1.944,1.944,0,0,0-78.5-36a24.308,24.308,0,0,0-4.1-3.5,14.327,14.327,0,0,1-4.3,2.25,62.14,62.14,0,0,1-8.25,2.15A94.488,94.488,0,0,1-110-33.25a13.562,13.562,0,0,1,2.55,3.45c.2.55.5,1.2,1.25,1.1a113.326,113.326,0,0,0,11.85-1.6c.15,1,.2,1.65.25,2.3.05,1.45.1,3.45.1,5.05Zm61.85-9.75c3.05,0,5.4.1,7.05.1.75.05.9-.15.9-1a25.387,25.387,0,0,0,0-3.9c0-.55-.15-.8-.6-.8-1.95.1-4.6.25-7.85.25h-9a68.886,68.886,0,0,1-8.2-.35,43.58,43.58,0,0,0,.25,4.8c.05.8.2,1.1.7,1.1,2.1-.15,4.6-.2,6.85-.2Zm3.8,10.7c-3.6,9.65-11.75,16.55-21,20.85a14.657,14.657,0,0,1,4.65,2.6,1.631,1.631,0,0,0,1.1.6,2.4,2.4,0,0,0,1-.35C-41.75-3.5-36-9.75-31-20.4a5.726,5.726,0,0,1,1.7-2.35,1.206,1.206,0,0,0,.55-.95,1.474,1.474,0,0,0-.5-1.05,29.511,29.511,0,0,0-3.35-3.1,1.287,1.287,0,0,0-.75-.35,1.075,1.075,0,0,0-.65.3,5.5,5.5,0,0,1-2.65.55H-53.8a88.485,88.485,0,0,1-9.2-.4,37.9,37.9,0,0,0,.55,5.05c.1.65.3.95.75.95,2.5-.15,5-.2,7.5-.2Zm17.1.25A43.842,43.842,0,0,1-9.95-16.3a.967.967,0,0,0,.6.3c.2,0,.4-.2.65-.5a20.359,20.359,0,0,0,2.2-3.8,1.483,1.483,0,0,0,.2-.55c0-.3-.2-.5-.55-.75a34.7,34.7,0,0,0-9.6-4.9c-.45-.1-.7.15-.95.5C-18-25.2-18.8-23.75-20.05-21.75ZM-14-33.5a48.357,48.357,0,0,1,9.7,6.15,1.287,1.287,0,0,0,.75.35.556.556,0,0,0,.5-.3A21.4,21.4,0,0,0-.5-31.05a1.211,1.211,0,0,0,.2-.65.792.792,0,0,0-.4-.65,33.992,33.992,0,0,0-9.4-5.55c-.6-.3-.9-.2-1.25.4C-12.2-36.2-13.15-34.8-14-33.5ZM-16.1-5A31.577,31.577,0,0,0-12.4.1a1.287,1.287,0,0,0,1,.6,1.108,1.108,0,0,0,.8-.4A16.429,16.429,0,0,1-7.7-1.4,116.08,116.08,0,0,0,7.25-10.8a93.154,93.154,0,0,0,12.7-11.55,1.555,1.555,0,0,0,.55-1.15,2.445,2.445,0,0,0-.25-.95,24.971,24.971,0,0,1-1.45-5.6A90.987,90.987,0,0,1,4.4-16.1,83.756,83.756,0,0,1-9.3-7.45,23.119,23.119,0,0,1-16.1-5ZM34.35-34.95h-3.2l.3-1.05a4.129,4.129,0,0,1,.5-1.45,1.552,1.552,0,0,0,.35-.85c0-.3-.15-.45-.75-.6a40.812,40.812,0,0,0-4.35-.95,12.446,12.446,0,0,1-.25,2.35,27.107,27.107,0,0,1-3.85,8.85,12.073,12.073,0,0,1,3.05,1.45,2.8,2.8,0,0,0,1.2.6c.35,0,.55-.35.9-1.1q.675-1.275,1.35-2.85h4.75V-26h-4.2c-4.65,0-6.25-.1-6.55-.1-.5,0-.55.05-.55.55V-22c0,.55.05.6.55.6.3,0,1.9-.1,6.55-.1h4.2v4.3h-2.4c-4.35,0-5.85-.1-6.2-.1-.5,0-.55.05-.55.55,0,.35.1,1.55.1,4.55v6.55c0,3.25-.1,4.6-.1,4.95,0,.5.05.55.55.55h4c.5,0,.55-.05.55-.55,0-.3-.1-1.7-.1-4.7v-7.4h4.15v6.65c0,6.15-.1,9.2-.1,9.55,0,.45.05.5.55.5h4.05c.5,0,.55-.05.55-.5,0-.3-.1-3.45-.1-9.6v-6.6h4.4v6.9c0,.95-.35,1.25-1.15,1.25a20.217,20.217,0,0,1-2.2-.15,9.434,9.434,0,0,1,1.1,3.15c.25,1.45.25,1.5,1.8,1.5,1.95,0,3.35-.25,4.2-.95,1-.8,1.15-1.8,1.15-3.2,0-1.35-.1-2.85-.1-5.65V-11.7c0-3.2.1-4.75.1-5.05,0-.5-.05-.55-.55-.55-.35,0-1.8.1-6.15.1H39.3v-4.3h3.35c4.65,0,6.2.1,6.5.1.5,0,.55-.05.55-.6v-3.55c0-.5-.05-.55-.55-.55-.3,0-1.85.1-6.5.1H39.3v-4.55h2.4c3.95,0,5.25.1,5.55.1.5,0,.55-.05.55-.55v-3.5c0-.5-.05-.55-.55-.55-.3,0-1.6.1-5.55.1H39.3v-1.7a6.583,6.583,0,0,1,.3-2.75,3.132,3.132,0,0,0,.35-1.1c0-.3-.3-.5-.75-.5-1.6-.2-3.3-.3-5.2-.35a25.612,25.612,0,0,1,.35,4.75Zm32.2.9c0-3.4.05-4.45.3-5.05a2.378,2.378,0,0,0,.35-1.05c0-.25-.3-.5-.85-.55A46.016,46.016,0,0,0,61-41a40.893,40.893,0,0,1,.4,7.05V-3.7c0,1.6-.5,1.95-2.15,1.95a38.662,38.662,0,0,1-4.8-.3,14.367,14.367,0,0,1,1.45,3.9c.35,1.6.35,1.6,1.85,1.6,4.4,0,5.75-.35,7.15-1.3,1.45-1,1.8-2.65,1.8-5.1,0-2.5-.15-6.5-.15-10ZM51.95-16.2c0,4.25-.1,6.3-.1,6.6,0,.5.05.55.55.55h4c.55,0,.6-.05.6-.55,0-.3-.1-2.35-.1-6.6V-30a34.12,34.12,0,0,1,.15-5.35,4.042,4.042,0,0,0,.35-1.1c0-.3-.25-.5-.75-.55-1.7-.2-3.3-.3-5.05-.35a52.687,52.687,0,0,1,.35,7.4ZM94.6-28.35V-4.4c0,5-.1,7.5-.1,7.8,0,.5.05.55.55.55H99.3c.5,0,.55-.05.55-.55,0-.25-.1-2.8-.1-7.8V-7.15h6.4c4,0,5.35.1,5.65.1.5,0,.55-.05.55-.6v-3.7c0-.45-.05-.5-.55-.5-.3,0-1.65.1-5.65.1h-6.4v-6.1h6.4c3.95,0,5.25.1,5.55.1.5,0,.55-.05.55-.55v-3.65c0-.5-.05-.55-.55-.55-.3,0-1.6.1-5.55.1h-6.4v-5.95h8.15c4.45,0,5.95.1,6.2.1.55,0,.6-.05.6-.6V-32.5c0-.55-.05-.6-.6-.6-.25,0-1.75.1-6.2.1H94.85c.6-1.25,1.1-2.5,1.55-3.7a6.4,6.4,0,0,1,1.3-2.45,1.149,1.149,0,0,0,.45-.95c0-.35-.35-.6-.95-.75-1.55-.45-3.1-.75-4.95-1.1a18.449,18.449,0,0,1-.8,3.8,46.338,46.338,0,0,1-9.15,15.6,11.551,11.551,0,0,1,2.4,3.05c.4.7.65,1,.95,1,.25,0,.5-.25.95-.8a58,58,0,0,0,6-9.05ZM75.8-4.25c0,4.9-.1,7.3-.1,7.6,0,.5.05.55.55.55H80.5c.5,0,.55-.05.55-.55,0-.25-.1-2.7-.1-7.6V-30.3a70.107,70.107,0,0,0,2.95-6.6c.5-1.4.75-1.8,1.1-2.1.4-.35.5-.55.5-.9,0-.3-.2-.5-.8-.75-1.4-.55-3.05-.95-4.85-1.45a18.071,18.071,0,0,1-.9,3.6A46.141,46.141,0,0,1,68.8-22.05a12.216,12.216,0,0,1,1.85,4.35c.15.6.35.85.65.85.2,0,.5-.2.85-.6a48.432,48.432,0,0,0,3.75-4.6c-.05,2.2-.1,4.45-.1,6.3ZM-215.95,44.3c-3.65,2.1-6,3.45-8.15,4.65a18.462,18.462,0,0,1-4.6,1.75c.75,1.65,1.75,3.75,2.3,4.65a1.4,1.4,0,0,0,1.1.8,1.255,1.255,0,0,0,.85-.35,9.063,9.063,0,0,1,1.6-1.1,30.742,30.742,0,0,1,7.1,6.4c.45.65.65,1.05,1.2,1a20.322,20.322,0,0,0,3.7-.6c.85-.2.75-.95.75-1.65,0-1.15-.25-4.3-.4-6.5-.1-2.2-.15-3.9-.2-6,5.15-2.65,8.6-3.4,11.45-3.4,3.5,0,5.5,1.8,5.5,5.05,0,3.55-2.6,5.15-5.4,5.15a18.651,18.651,0,0,1-6.25-.9,8.737,8.737,0,0,1,1.5,4.25,1.341,1.341,0,0,0,1.1,1.5,19.378,19.378,0,0,0,4.1.45c6.75,0,10.85-3.75,10.85-10.15,0-6-4.45-9.95-10.65-10a31.557,31.557,0,0,0-12.3,2.75c.05-2.4.05-4.85.1-7.25a50.963,50.963,0,0,0,7.15-1.9c.5-.15.65-.3.65-.8a25.13,25.13,0,0,0-.3-3.9c-.05-.5-.4-.6-.85-.45a49.029,49.029,0,0,1-6.4,1.85c.05-1.6.1-2.85.25-4.15a6.119,6.119,0,0,1,.7-1.95,1.773,1.773,0,0,0,.3-.8c0-.45-.4-.8-1-.95a28.337,28.337,0,0,0-5.95-.9,18.486,18.486,0,0,1,.35,4.05c0,2.15-.05,4.05-.05,5.7-2.1.2-4.25.4-6.35.4a25.544,25.544,0,0,1-3.9-.25c.2,1.75.4,3.4.55,4.35.1.75.35,1.05,1.2,1.05,3.35,0,5.9-.2,8.4-.4Zm.25,5.25c.1,1.65.2,3.95.3,5.25.05.45-.1.5-.5.4a51.277,51.277,0,0,1-4.7-2.25C-218.8,51.65-217.1,50.5-215.7,49.55ZM-199,30.6a23.081,23.081,0,0,1,10.15,6.15c.15.25.85.2,1,0,.75-1,2.05-2.55,2.7-3.55a1.3,1.3,0,0,0,.2-.5c0-.15-.1-.3-.3-.5a23.767,23.767,0,0,0-10.6-6.1c-.35-.1-.5.05-.85.6A30.673,30.673,0,0,0-199,30.6Zm58.75-3.7c0-4.25.1-6.35.1-6.65,0-.5-.05-.55-.55-.55-.3,0-1.65.1-5.5.1h-7.2c-3.9,0-5.2-.1-5.5-.1-.55,0-.6.05-.6.55,0,.35.1,1.55.1,4.55v7.3c0,3-.1,4.15-.1,4.5,0,.5.05.55.6.55.3,0,1.6-.1,5.5-.1h8v19.3c0,1.5-.4,1.95-2.05,1.95a29.293,29.293,0,0,1-4.05-.25,14.017,14.017,0,0,1,1.15,3.7c.3,1.6.3,1.55,1.9,1.55,4.45,0,5.85-.35,6.95-1.35,1.15-1.05,1.45-2.2,1.45-4.6,0-2.45-.2-6.45-.2-9.95Zm-14.25,6.5V30h9.1v3.4Zm9.1-9.8v2.95h-9.1V23.6Zm-29.85-3.8c-3.65,0-5.5-.1-5.85-.1-.5,0-.55.05-.55.55,0,.35.1,3.85.1,10.75V52.65c0,6.9-.1,10.3-.1,10.65,0,.5.05.55.55.55h4.25c.5,0,.55-.05.55-.55,0-.35-.1-3.75-.1-10.65V37.05h8c3.25,0,4.7.1,5,.1.45,0,.5-.05.5-.55,0-.3-.1-1.8-.1-4.9V25.2c0-3.15.1-4.65.1-4.95,0-.5-.05-.55-.5-.55-.3,0-1.75.1-5,.1Zm7.35,13.6h-8.5V30h8.5Zm0-9.8v2.95h-8.5V23.6Zm1.85,35.5c.55,0,.6,0,.6-.5V55.9h8.65v1.65c0,.55.05.6.6.6h3.65c.5,0,.55-.05.55-.6,0-.3-.1-1.5-.1-7.8V45.9c0-2.75.1-4.05.1-4.35,0-.5-.05-.55-.55-.55-.35,0-1.55.1-5.3.1h-6.55c-3.75,0-4.95-.1-5.3-.1-.5,0-.55.05-.55.55,0,.35.1,1.65.1,5.3v3.6c0,6.6-.1,7.85-.1,8.15,0,.5.05.5.55.5Zm.6-13.75h8.65v6.3h-8.65Zm31.3-20.1a26.8,26.8,0,0,1,.6,6.55,90.648,90.648,0,0,0,1.2,14.55C-131,54.8-126.9,59.4-123,59.4c3.5,0,6.6-2.7,8.5-7.8a1.531,1.531,0,0,0-.35-1.85,19.113,19.113,0,0,1-3.2-3.85c-1.95,5.2-3.2,6.95-4.8,6.95-2.1,0-3.4-3.4-4.1-7.35a62.969,62.969,0,0,1-.9-11.4,22.466,22.466,0,0,1,.45-4.9,4.354,4.354,0,0,0,.4-1.4c0-.35-.35-.7-.8-.9A21.641,21.641,0,0,0-134.15,25.25Zm25.6,7.1c5.1,5.1,7.65,10.3,9.35,17.45.1.6.45.75,1.05.55a16.968,16.968,0,0,0,3.9-2c.4-.25.7-.45.55-1.1a33.062,33.062,0,0,0-9.8-17.1.769.769,0,0,0-.55-.3,1.483,1.483,0,0,0-.55.2C-105.4,30.45-106.65,31.15-108.55,32.35Zm29.05,31.4c.55,0,.6-.05.6-.55V61.3h20.05v1.65c0,.5.05.55.55.55h4.25c.55,0,.6-.05.6-.55,0-.25-.1-1.6-.1-8.8v-4.9c0-3.55.1-5,.1-5.3,0-.5-.05-.55-.6-.55-.3,0-2.05.1-6.85.1h-16c-4.8,0-6.55-.1-6.85-.1-.5,0-.55.05-.55.55,0,.3.1,1.75.1,6.05v4.3c0,7.25-.1,8.6-.1,8.9,0,.5.05.55.55.55Zm.6-15.7h20.05v8.7H-78.9ZM-79,38.2c0,.5.05.55.55.55.35,0,1.65-.1,5.65-.1h7.75c4,0,5.35.1,5.65.1.5,0,.55-.05.55-.55V34.7a54.453,54.453,0,0,0,9.75,5.6,3,3,0,0,0,1.2.45c.4,0,.6-.35.9-1.3a13.293,13.293,0,0,1,2.1-3.8A45.119,45.119,0,0,1-66.25,20.4a1.348,1.348,0,0,1,.4-.35.852.852,0,0,0,.5-.75c0-.45-.3-.6-.9-.8-1.45-.35-3.3-.65-5.25-.95a15.644,15.644,0,0,1-1.95,3.55c-4.1,5.95-10.05,11.15-19.25,15.3a12.12,12.12,0,0,1,2.35,3.35c.4.9.6,1.25.95,1.25a3.627,3.627,0,0,0,1.15-.5A61.67,61.67,0,0,0-79,34.6Zm6.2-4.2c-3.4,0-4.8-.05-5.4-.1a49.428,49.428,0,0,0,9.1-9.45,44.716,44.716,0,0,0,9.2,9.5c-.7,0-2.2.05-5.15.05Zm44.1,1.95c1.2-1.75,1.95-2.7,2.65-3.6.75-.85.85-1.05.85-1.4s-.2-.75-.8-1.55c-.45-.65-1-1.15-1.35-1.15a.927.927,0,0,0-.35.1c-.15.05-.25.1-.4.15.1-2.15.2-3.3.25-4.5a8.5,8.5,0,0,1,.5-2.15c.35-.9.15-1.45-.9-1.75a38.014,38.014,0,0,0-5.8-.85,18.133,18.133,0,0,1,.5,4.35c0,2.15,0,4.35-.1,6.5-3.85,1.05-5.8,1.5-7.1,1.8a24.318,24.318,0,0,1-3.4.5,42.522,42.522,0,0,0,2,4.4c.3.6.65.9,1,.9.3,0,.8-.5,1.65-.85,1.9-.7,4.25-1.4,5.7-1.85-.05.95-.05,2.3-.05,3.55-3.75,5.15-6.6,8.7-11,14.05a.864.864,0,0,0-.3.6.691.691,0,0,0,.3.55,34.7,34.7,0,0,0,3.05,3,.869.869,0,0,0,.55.3c.25,0,.45-.2.7-.5,1.85-2.65,4.35-6.3,6.75-9.9-.1,5.1-.2,10.35-.25,15.45-.05.5.1.7.55.7,1.65,0,3.9-.15,4.45-.2.4,0,.65-.2.65-.6-.1-6.75-.25-12.8-.3-19.2,4.9-4.2,8.8-6.4,13.4-6.4,4.8,0,7.45,3.05,7.45,7.75a9.654,9.654,0,0,1-3.4,7.55c-2.65,2.25-5.2,3.65-10.05,4.95a14.724,14.724,0,0,1,3.95,3.3,1.64,1.64,0,0,0,1.3.7,1.9,1.9,0,0,0,.85-.2c8.6-3.1,13.3-8.4,13.3-16.1,0-7.55-4.9-12.7-12.45-12.7-5.25,0-9.85,2.15-14.35,5.85ZM11.2,34.4c-1.85.3-4.25.75-5.65.95a47.851,47.851,0,0,1-5.35.5,19.645,19.645,0,0,0,1.4,5c.3.65.65.85,1.3.55a14.6,14.6,0,0,1,2.25-.75c1.9-.4,3.5-.7,6.05-1.05,0,5.3.1,9.5.35,12.2.6,6.55,3.55,8.65,13.65,8.65a114.968,114.968,0,0,0,12.55-.75c.45-.05.65-.3.65-.9a30.746,30.746,0,0,0-.3-4.2c-.1-.6-.25-.7-1-.65a92.739,92.739,0,0,1-12.95,1c-6.1,0-7.2-.8-7.5-4.9-.2-2.85-.15-5.85-.1-11.3,3.85-.6,8.2-1.1,12.2-1.4-.05,1.95-.15,3.75-.35,5.3-.25,1.75-1,2.15-2.35,2.15a15.732,15.732,0,0,1-4.25-.6,12.137,12.137,0,0,1,1.1,4.5c0,.9.2,1.25,1,1.3a22.514,22.514,0,0,0,3.1.15c3.75,0,6-1.65,6.55-5.55a76.889,76.889,0,0,0,.6-7.7c3.3-.25,6.65-.4,9.95-.4.55,0,.65-.05.65-.7a37.384,37.384,0,0,0,0-4.1c0-.45-.2-.5-.6-.5-2.7.1-5.7.25-9.75.55.05-2.35.1-4.3.2-7a8.631,8.631,0,0,1,.5-2.25,2.368,2.368,0,0,0,.3-1c0-.5-.25-.75-.95-.95a34.918,34.918,0,0,0-6.05-1,22.176,22.176,0,0,1,.65,5.7c0,1.85,0,4.55-.05,7.05-3.6.4-8.9.95-12.35,1.4.05-1.7.05-3.6.1-4.8a6.7,6.7,0,0,1,.5-2.2,2.781,2.781,0,0,0,.3-1.05A1.269,1.269,0,0,0,16.5,24.6a43.649,43.649,0,0,0-6-.85,20.025,20.025,0,0,1,.7,5.3ZM76.1,47.55a20.866,20.866,0,0,0-4-.4c-5.05,0-8.75,2.95-8.75,7.05,0,4.3,3.2,7,8.95,7,5.9,0,8.75-2.3,9.15-6.5a29.692,29.692,0,0,1,5.4,4,.691.691,0,0,0,.45.25.6.6,0,0,0,.45-.3,27.011,27.011,0,0,0,2.3-3.85c.25-.55.2-.7-.25-1A32.722,32.722,0,0,0,81.5,49c-.25-4.3-.35-7.8-.35-13.4a56.343,56.343,0,0,0,7.7-1.05c.35-.05.55-.3.55-.75a19.989,19.989,0,0,0-.3-3.55c-.1-.55-.2-.75-.8-.6-2.15.35-4.75.7-7.1.9,0-2.3,0-3.6.1-5.3a5.64,5.64,0,0,1,.4-1.75,2.144,2.144,0,0,0,.3-.85c0-.45-.35-.7-.9-.85a27.834,27.834,0,0,0-6.05-.95,20.612,20.612,0,0,1,.65,4.9c0,1.85.05,3.45.05,5.25a72.331,72.331,0,0,1-11.4-.15,30.632,30.632,0,0,0,.35,4.55c.05.5.25.65.9.65a101.108,101.108,0,0,0,10.3.05C75.95,40.05,76,43.7,76.1,47.55Zm.1,4.75a7.042,7.042,0,0,1,.05,1c0,1.8-1.6,3.25-4.1,3.25-2.95,0-4.05-.95-4.05-2.5s1.4-2.4,3.75-2.4A13.927,13.927,0,0,1,76.2,52.3ZM53,20.95a25.161,25.161,0,0,1-.35,5.9C51,37,50.6,41,50.6,45.8c0,5.75.75,11.7,2.15,15.25.25.7.45.75,1,.6a20.94,20.94,0,0,0,3.75-.85c.45-.15.65-.3.6-.65a9.442,9.442,0,0,1,.05-2.65,29.636,29.636,0,0,1,2.55-7.6,1.451,1.451,0,0,0,.3-.8,1.08,1.08,0,0,0-.3-.7,13.3,13.3,0,0,1-1.75-3.15c-1.05,2.5-2.1,4.65-3.1,6.95-.15-2.1-.15-4.4-.15-6.4a99.286,99.286,0,0,1,2.5-18.2,10.147,10.147,0,0,1,.9-2.75,2.553,2.553,0,0,0,.35-1.1c0-.4-.2-.7-.75-1A39.042,39.042,0,0,0,53,20.95Zm48.5,21.7c-1.9,2.95-2.65,5.1-2.65,7.15,0,6.5,5.75,10.1,16.95,10.1a75.4,75.4,0,0,0,14.9-1.2c.6-.1.9-.3.85-.75a41.808,41.808,0,0,0-.8-4.9c-.1-.45-.35-.6-1.05-.45a63.611,63.611,0,0,1-13.55,1.45c-8.6,0-11.85-1.55-11.85-4.7a8.217,8.217,0,0,1,1.3-3.8c.25-.4.2-.65-.25-.9C104.05,43.95,102.8,43.3,101.5,42.65Zm1.1-18.9c-.1,1.8-.2,3.25-.2,4.45,0,.6.2.8.65.9a62.407,62.407,0,0,0,8.75.85,34.381,34.381,0,0,0,4.1-.15c-1.75,1.05-3.95,2.45-6.55,4.15a11.947,11.947,0,0,1,3.5,1.6,2.1,2.1,0,0,0,1.05.3,2.131,2.131,0,0,0,1.25-.45,29.13,29.13,0,0,1,12.25-4.95c.6-.05.85-.35.85-1.05a32.924,32.924,0,0,0-.25-4.25c-.05-.4-.25-.6-.75-.55-3.2.2-6.95.45-10.6.45A63.077,63.077,0,0,1,102.6,23.75Zm49.15,5.05c-3.85.3-6.95.45-10.85.45.2,1.65.55,3.75.7,4.35a.854.854,0,0,0,.95.7c2.55,0,5.7-.25,8.4-.45-.85,5-1.55,8.7-2.65,13.1-.2.75-.4,1.5-.65,2.35a3.411,3.411,0,0,0-.2,1c0,.45.3.65,1.1,1a14.054,14.054,0,0,0,3.75,1.1c.45.05.6-.15.95-.75.45-.65.95-1.25,1.4-1.9a16.626,16.626,0,0,1,13.15-6.2c3.8,0,5.7,2.15,5.7,4.75,0,3.15-1.85,5.45-5.7,7.05-4,1.65-7.05,2.3-14.35,2.75a9.542,9.542,0,0,1,2.7,3.55c.4.95.75,1.2,1.25,1.2a23.161,23.161,0,0,0,3.7-.35c5.45-.85,9.75-2.05,12.75-4a11.206,11.206,0,0,0,5.7-10.1c0-5.15-4.5-9.45-11.15-9.45a21.628,21.628,0,0,0-14.35,5.3c.9-3.5,1.6-6.85,2.3-11,4.2-.55,6.9-1.1,11.2-2.05.45-.1.6-.25.6-.8a22.627,22.627,0,0,0-.35-3.7c-.1-.65-.35-.7-1.05-.5a91.438,91.438,0,0,1-9.4,1.85c.25-1.75.45-2.75.7-4.1a5.188,5.188,0,0,1,.85-1.85,1.643,1.643,0,0,0,.35-.8c0-.4-.35-.7-1-.9a32.724,32.724,0,0,0-6-1.05,16.589,16.589,0,0,1,.1,4.85C152.2,25.4,152,27.05,151.75,28.8Zm45.05-5.6a39.882,39.882,0,0,1,10.1,6.5c.25.25.4.35.6.35.15,0,.35-.15.55-.4a32.744,32.744,0,0,0,2.55-3.5,1.386,1.386,0,0,0,.25-.6c0-.2-.1-.35-.35-.55a32.8,32.8,0,0,0-9.8-5.95.836.836,0,0,0-.95.25A27.385,27.385,0,0,0,196.8,23.2Zm-3.5,6.95a31.157,31.157,0,0,1-.45,4.5c-.6,4.45-1.25,10.35-1.55,16.15,0,.7.2.8.7,1a34.376,34.376,0,0,0,3.4,1.35c.65.15.85.15,1.15-.35a13.682,13.682,0,0,1,2.15-2.75c4.7-4.75,10-7.6,14.4-7.6,4.3,0,6,2.45,6,5.15,0,3.2-1.85,5.8-5.9,7.55-3.35,1.5-8.15,2.45-13.75,2.8a12.792,12.792,0,0,1,3.4,4.25c.45.75.9.8,2,.65,4.3-.55,9.45-1.75,12.8-3.45,4.3-2.15,7.55-5.75,7.55-11.2,0-6.45-4.35-10.7-11.65-10.7-6.1,0-12.1,3.25-16.7,7.9a83.446,83.446,0,0,1,1.2-9.1,9.374,9.374,0,0,1,1-2.65,1.488,1.488,0,0,0,.25-.75c0-.4-.25-.7-.8-.95A28.13,28.13,0,0,0,193.3,30.15Z" transform="translate(376 12172.066)" fill="#575757"/><g transform="translate(266 12042.066)"><g transform="translate(0 0)" clip-path="url(#a)"><path d="M196.067,3H24.96a21.96,21.96,0,1,0,0,43.921H95.549l14.76,16.335,14.759-16.335h71a21.96,21.96,0,0,0,0-43.921Z" transform="translate(-0.514 -0.514)" fill="none" stroke="#575757" stroke-miterlimit="10" stroke-width="6"/><path d="M196.067,3H24.96a21.96,21.96,0,1,0,0,43.921H95.549l14.76,16.335,14.759-16.335h71a21.96,21.96,0,0,0,0-43.921" transform="translate(-0.514 -0.514)" fill="#fff"/><path d="M53.5,23.764a5.158,5.158,0,0,0-4.142-2.046,5.054,5.054,0,0,0-2.009.394A4.814,4.814,0,0,0,44.708,24.8a5.29,5.29,0,0,0-.382,2.021,5.359,5.359,0,0,0,.382,2.046,4.93,4.93,0,0,0,4.622,3.105A5.594,5.594,0,0,0,53.5,30v5.719L53,35.891a14.155,14.155,0,0,1-2.07.579,10.078,10.078,0,0,1-1.9.186,9.7,9.7,0,0,1-6.79-2.774,10.2,10.2,0,0,1-2.156-3.13,10.031,10.031,0,0,1-.012-7.888,9.816,9.816,0,0,1,8.984-5.83,10.216,10.216,0,0,1,2.181.235A13.293,13.293,0,0,1,53.5,18Z" transform="translate(-6.728 -2.918)" fill="#fd0"/><path d="M53.5,23.764a5.158,5.158,0,0,0-4.142-2.046,5.054,5.054,0,0,0-2.009.394A4.814,4.814,0,0,0,44.708,24.8a5.29,5.29,0,0,0-.382,2.021,5.359,5.359,0,0,0,.382,2.046,4.93,4.93,0,0,0,4.622,3.105A5.594,5.594,0,0,0,53.5,30v5.719L53,35.891a14.155,14.155,0,0,1-2.07.579,10.078,10.078,0,0,1-1.9.186,9.7,9.7,0,0,1-6.79-2.774,10.2,10.2,0,0,1-2.156-3.13,10.031,10.031,0,0,1-.012-7.888,9.816,9.816,0,0,1,8.984-5.83,10.216,10.216,0,0,1,2.181.235A13.293,13.293,0,0,1,53.5,18Z" transform="translate(-6.728 -2.918)" fill="none" stroke="#575757" stroke-miterlimit="10" stroke-width="2"/><path d="M65.062,26.845a9.578,9.578,0,0,1,6.126-9.059,11.817,11.817,0,0,1,8.294,0,9.825,9.825,0,0,1,3.266,2.083,9.53,9.53,0,0,1,2.132,3.118,10.12,10.12,0,0,1,0,7.715,9.53,9.53,0,0,1-2.132,3.118A9.824,9.824,0,0,1,79.482,35.9a11.817,11.817,0,0,1-8.294,0,9.709,9.709,0,0,1-3.242-2.083,9.658,9.658,0,0,1-2.884-6.976m5.053,0a4.951,4.951,0,0,0,.418,2.046,5.167,5.167,0,0,0,1.134,1.627,5.11,5.11,0,0,0,1.664,1.072,5.47,5.47,0,0,0,4.017,0,5.277,5.277,0,0,0,1.677-1.072,5.094,5.094,0,0,0,1.146-1.627,5.2,5.2,0,0,0,0-4.092,5.094,5.094,0,0,0-1.146-1.627A5.421,5.421,0,0,0,73.332,22.1a5.121,5.121,0,0,0-2.8,2.7,4.954,4.954,0,0,0-.418,2.046" transform="translate(-11.145 -2.918)" fill="#fd0"/><path d="M65.062,26.845a9.578,9.578,0,0,1,6.126-9.059,11.817,11.817,0,0,1,8.294,0,9.825,9.825,0,0,1,3.266,2.083,9.53,9.53,0,0,1,2.132,3.118,10.12,10.12,0,0,1,0,7.715,9.53,9.53,0,0,1-2.132,3.118A9.824,9.824,0,0,1,79.482,35.9a11.817,11.817,0,0,1-8.294,0,9.709,9.709,0,0,1-3.242-2.083,9.658,9.658,0,0,1-2.884-6.976Zm5.053,0a4.951,4.951,0,0,0,.418,2.046,5.167,5.167,0,0,0,1.134,1.627,5.11,5.11,0,0,0,1.664,1.072,5.47,5.47,0,0,0,4.017,0,5.277,5.277,0,0,0,1.677-1.072,5.094,5.094,0,0,0,1.146-1.627,5.2,5.2,0,0,0,0-4.092,5.094,5.094,0,0,0-1.146-1.627A5.421,5.421,0,0,0,73.332,22.1a5.121,5.121,0,0,0-2.8,2.7A4.954,4.954,0,0,0,70.115,26.845Z" transform="translate(-11.145 -2.918)" fill="none" stroke="#575757" stroke-miterlimit="10" stroke-width="2"/><path d="M99.536,36.245V17.659h4.831l8.923,11.364V17.659H118.1V36.245h-4.806l-8.923-11.364V36.245Z" transform="translate(-17.051 -3.025)" fill="#fd0"/><path d="M99.536,36.245V17.659h4.831l8.923,11.364V17.659H118.1V36.245h-4.806l-8.923-11.364V36.245Z" transform="translate(-17.051 -3.025)" fill="none" stroke="#575757" stroke-miterlimit="10" stroke-width="2"/><path d="M139.27,21.751V36.245h-4.831V21.751h-3.969V17.66h12.768v4.091Z" transform="translate(-22.35 -3.025)" fill="#fd0"/><path d="M139.27,21.751V36.245h-4.831V21.751h-3.969V17.66h12.768v4.091Z" transform="translate(-22.35 -3.025)" fill="none" stroke="#575757" stroke-miterlimit="10" stroke-width="2"/><path d="M165.436,33.016h-6.9l-1.11,3.229h-5.152l7.075-18.586h5.275L171.7,36.245h-5.152Zm-1.282-3.673-2.169-6.188-2.169,6.188Z" transform="translate(-26.085 -3.025)" fill="#fd0"/><path d="M165.436,33.016h-6.9l-1.11,3.229h-5.152l7.075-18.586h5.275L171.7,36.245h-5.152Zm-1.282-3.673-2.169-6.188-2.169,6.188Z" transform="translate(-26.085 -3.025)" fill="none" stroke="#575757" stroke-miterlimit="10" stroke-width="2"/><path d="M197.431,23.764a5.156,5.156,0,0,0-4.141-2.046,5.054,5.054,0,0,0-2.009.394,4.812,4.812,0,0,0-2.638,2.687,5.3,5.3,0,0,0-.381,2.021,5.375,5.375,0,0,0,.381,2.046,4.932,4.932,0,0,0,4.622,3.105A5.592,5.592,0,0,0,197.431,30v5.719l-.493.172a14.184,14.184,0,0,1-2.07.579,10.085,10.085,0,0,1-1.9.186,9.7,9.7,0,0,1-6.79-2.774,10.187,10.187,0,0,1-2.157-3.13,10.04,10.04,0,0,1-.012-7.888,9.818,9.818,0,0,1,8.984-5.83,10.2,10.2,0,0,1,2.181.235,13.269,13.269,0,0,1,2.256.727Z" transform="translate(-31.384 -2.918)" fill="#fd0"/><path d="M197.431,23.764a5.156,5.156,0,0,0-4.141-2.046,5.054,5.054,0,0,0-2.009.394,4.812,4.812,0,0,0-2.638,2.687,5.3,5.3,0,0,0-.381,2.021,5.375,5.375,0,0,0,.381,2.046,4.932,4.932,0,0,0,4.622,3.105A5.592,5.592,0,0,0,197.431,30v5.719l-.493.172a14.184,14.184,0,0,1-2.07.579,10.085,10.085,0,0,1-1.9.186,9.7,9.7,0,0,1-6.79-2.774,10.187,10.187,0,0,1-2.157-3.13,10.04,10.04,0,0,1-.012-7.888,9.818,9.818,0,0,1,8.984-5.83,10.2,10.2,0,0,1,2.181.235,13.269,13.269,0,0,1,2.256.727Z" transform="translate(-31.384 -2.918)" fill="none" stroke="#575757" stroke-miterlimit="10" stroke-width="2"/><path d="M216.7,21.751V36.245h-4.83V21.751H207.9V17.66h12.768v4.091Z" transform="translate(-35.613 -3.025)" fill="#fd0"/><path d="M216.7,21.751V36.245h-4.83V21.751H207.9V17.66h12.768v4.091Z" transform="translate(-35.613 -3.025)" fill="none" stroke="#575757" stroke-miterlimit="10" stroke-width="2"/></g></g></g></svg>