<svg xmlns="http://www.w3.org/2000/svg" xmlns:xlink="http://www.w3.org/1999/xlink" width="608.837" height="226.396" viewBox="0 0 608.837 226.396"><defs><clipPath id="a"><rect width="330" height="99.676" fill="none"/></clipPath></defs><g transform="translate(-697.565 -11157)"><path d="M-255.72-27.54c-2.94,0-7.38-.06-11.64-.42a26.528,26.528,0,0,0,.6,5.46c.18.96.36,1.44,1.14,1.38,2.94-.24,7.38-.24,9.54-.24h10.68a24.751,24.751,0,0,1-2.64,9.96c-2.46,4.5-5.22,7.56-11.22,11.1a24.725,24.725,0,0,1,6.36,2.28,2.278,2.278,0,0,0,1.08.36,1.862,1.862,0,0,0,1.02-.42A28.544,28.544,0,0,0-241.26-9.3c1.68-3.36,2.52-6.96,3-12.06h7.38c4.38,0,7.86.06,11.64.18.72,0,.72-.24.78-1.08a42.668,42.668,0,0,0,0-4.8c-.06-.66-.06-.96-.66-.96-2.7.12-7.8.42-11.58.42h-7.44c0-2.04,0-3.42.06-4.74a5.782,5.782,0,0,1,.42-2.04,2.987,2.987,0,0,0,.36-1.02.889.889,0,0,0-.78-.84,17.785,17.785,0,0,0-3.9-.78c3.54-.72,7.2-1.62,10.86-2.64,1.26-.3,2.52-.84,3.78-1.02.96-.06,1.56-.18,1.56-.84a2.333,2.333,0,0,0-.78-1.68,29.169,29.169,0,0,0-4.92-4.2,17.192,17.192,0,0,1-5.16,2.7,74.569,74.569,0,0,1-9.9,2.58,113.386,113.386,0,0,1-17.82,2.22,16.274,16.274,0,0,1,3.06,4.14c.24.66.6,1.44,1.5,1.32a135.99,135.99,0,0,0,14.22-1.92c.18,1.2.24,1.98.3,2.76.06,1.74.12,4.14.12,6.06Zm77.52-11.7c3.66,0,6.48.12,8.46.12.9.06,1.08-.18,1.08-1.2a30.466,30.466,0,0,0,0-4.68c0-.66-.18-.96-.72-.96-2.34.12-5.52.3-9.42.3h-10.8a82.663,82.663,0,0,1-9.84-.42,52.3,52.3,0,0,0,.3,5.76c.06.96.24,1.32.84,1.32,2.52-.18,5.52-.24,8.22-.24Zm4.56,12.84c-4.32,11.58-14.1,19.86-25.2,25.02a17.589,17.589,0,0,1,5.58,3.12,1.958,1.958,0,0,0,1.32.72,2.882,2.882,0,0,0,1.2-.42c11.58-6.24,18.48-13.74,24.48-26.52a6.872,6.872,0,0,1,2.04-2.82,1.447,1.447,0,0,0,.66-1.14,1.768,1.768,0,0,0-.6-1.26,35.414,35.414,0,0,0-4.02-3.72,1.544,1.544,0,0,0-.9-.42,1.29,1.29,0,0,0-.78.36,6.6,6.6,0,0,1-3.18.66h-20.58a106.183,106.183,0,0,1-11.04-.48,45.483,45.483,0,0,0,.66,6.06c.12.78.36,1.14.9,1.14,3-.18,6-.24,9-.24Zm23.82.3a52.61,52.61,0,0,1,12.12,6.54,1.161,1.161,0,0,0,.72.36c.24,0,.48-.24.78-.6a24.431,24.431,0,0,0,2.64-4.56,1.78,1.78,0,0,0,.24-.66c0-.36-.24-.6-.66-.9A41.641,41.641,0,0,0-145.5-31.8c-.54-.12-.84.18-1.14.6C-147.36-30.24-148.32-28.5-149.82-26.1Zm7.26-14.1a58.027,58.027,0,0,1,11.64,7.38,1.544,1.544,0,0,0,.9.42.668.668,0,0,0,.6-.36,25.681,25.681,0,0,0,3.06-4.5,1.453,1.453,0,0,0,.24-.78.95.95,0,0,0-.48-.78,40.79,40.79,0,0,0-11.28-6.66c-.72-.36-1.08-.24-1.5.48C-140.4-43.44-141.54-41.76-142.56-40.2ZM-145.08-6A37.893,37.893,0,0,0-140.64.12a1.544,1.544,0,0,0,1.2.72,1.329,1.329,0,0,0,.96-.48A19.715,19.715,0,0,1-135-1.68a139.3,139.3,0,0,0,17.94-11.28,111.784,111.784,0,0,0,15.24-13.86,1.866,1.866,0,0,0,.66-1.38,2.934,2.934,0,0,0-.3-1.14,29.964,29.964,0,0,1-1.74-6.72,109.184,109.184,0,0,1-17.28,16.74A100.507,100.507,0,0,1-136.92-8.94,27.742,27.742,0,0,1-145.08-6Zm61.56-40.44h-8.16V.12h30V-6.42H-83.52Zm27.78,0V.12h8.1V-19.44h7.86c11.16,0,17.1-5.1,17.1-13.68S-27.84-46.44-39.3-46.44Zm8.1,6.06h7.92c6.18,0,8.88,2.7,8.88,7.32,0,4.74-3,7.56-9.18,7.56h-7.62ZM8.7-28.8a6.018,6.018,0,0,0-6,6,6.018,6.018,0,0,0,6,6,6.018,6.018,0,0,0,6-6A6.018,6.018,0,0,0,8.7-28.8ZM58.32-7.74h2.22c5.16,0,6.96.12,7.32.12.6,0,.66-.06.66-.6v-3.6c0-.6-.06-.66-.66-.66-.36,0-2.16.12-7.32.12H58.32v-2.58H60.9c5.04,0,6.78.12,7.2.12.6,0,.66-.06.66-.66,0-.36-.12-1.8-.12-4.98v-6.42c0-3.24.12-4.62.12-4.92,0-.6-.06-.66-.66-.66-.42,0-2.16.12-7.2.12H58.32v-2.64H61.8c5.34,0,7.32.12,7.68.12.54,0,.48-.06.48-.66v-3.54c0-.6-.06-.66-.6-.66-.36,0-2.22.12-7.56.12H58.32v-3.36c2.46-.3,4.86-.72,7.26-1.2a17.588,17.588,0,0,1,2.7-.42c.78,0,1.26-.24,1.26-.6a1.466,1.466,0,0,0-.48-1.08,26,26,0,0,0-3.42-3.3,21.811,21.811,0,0,1-3.3,1.02A115.074,115.074,0,0,1,41.1-46.26a12.065,12.065,0,0,1,1.86,3.24c.48,1.38.54,1.44,2.22,1.32,2.58-.12,5.16-.36,7.74-.6v2.7H48.48c-5.4,0-7.26-.12-7.62-.12-.6,0-.66.06-.66.66v3.54c0,.6.06.66.66.66.36,0,2.22-.12,7.62-.12h4.44v2.64h-2.4c-5.1,0-6.84-.12-7.2-.12-.66,0-.72.06-.72.66,0,.3.12,1.68.12,4.92v6.42c0,3.18-.12,4.56-.12,4.98,0,.6.06.66.72.66.36,0,2.1-.12,7.2-.12h2.4v2.58H49.38c-5.22,0-6.96-.12-7.32-.12-.6,0-.66.06-.66.66v3.6c0,.54.06.6.66.6.36,0,2.1-.12,7.32-.12h3.54v3.48c-2.4.24-4.68.36-6.78.48a54.762,54.762,0,0,1-6.3.06c.3,1.8.66,3.72,1.02,5.28.18.66.48,1.02.84,1.02a2.326,2.326,0,0,0,1.02-.36,9.647,9.647,0,0,1,2.22-.42c6.78-.72,14.58-1.86,20.94-3.12a4.689,4.689,0,0,0,1.14-.24C66.42-.9,65.76-.3,65.1.3a11.128,11.128,0,0,1,3.84,2.88c.54.54.84.84,1.14.84s.66-.3,1.26-.9a38.186,38.186,0,0,0,8.88-17.1A105.7,105.7,0,0,0,82.44-31.2h5.04c-.06,11.46-.54,19.56-1.5,25.38C85.56-3,84.54-2.04,82.74-2.04a32.2,32.2,0,0,1-4.98-.48,13.685,13.685,0,0,1,1.2,4.02c.18,1.98.18,1.98,1.56,2.1,1.02.06,2.04.12,3.3.12,4.62,0,6.84-2.1,7.62-6.6,1.14-7.08,1.68-15.96,1.74-27.48,0-1.92,0-3.66.12-5.7,0-.6-.12-.72-.72-.72-.36,0-1.92.12-6.54.12H82.62c.06-1.5.06-3,.06-4.62,0-3.66.12-5.52.36-6.12a4.606,4.606,0,0,0,.36-1.44c0-.36-.3-.6-.9-.66-2.1-.24-3.84-.36-6-.42a59.37,59.37,0,0,1,.42,8.46c0,1.68-.06,3.24-.06,4.8-3.72,0-5.1-.12-5.4-.12-.66,0-.72.06-.72.66v4.38c0,.6.06.66.72.66.3,0,1.62-.06,5.16-.12a82.369,82.369,0,0,1-1.98,15.3A33.868,33.868,0,0,1,67.8-2.46l.18-1.08a24.821,24.821,0,0,1,.54-2.76c-3.54.6-6.96,1.08-10.2,1.44Zm5.22-11.04H58.32v-3.18h5.22Zm0-9.78v3.12H58.32v-3.12Zm-15.6,9.78v-3.18h4.98v3.18Zm0-6.66v-3.12h4.98v3.12Zm74.88-16.74v5.88h-3.36c-5.34,0-7.14-.12-7.56-.12-.6,0-.66.06-.66.72,0,.36.12,2.22.12,6.48V-15.6c0,4.2-.12,6.12-.12,6.48,0,.6.06.66.66.66.42,0,2.22-.12,7.56-.12h12.6c5.4,0,7.2.12,7.56.12.66,0,.72-.06.72-.66,0-.36-.12-2.28-.12-6.48V-29.22c0-4.26.12-6.12.12-6.48,0-.66-.06-.72-.72-.72-.36,0-2.16.12-7.56.12H128.4v-5.88h15.36c5.46,0,7.26.12,7.62.12.6,0,.66-.06.66-.6v-4.62c0-.66-.06-.72-.66-.72-.36,0-2.16.12-7.62.12h-36c-5.4,0-7.26-.12-7.62-.12-.6,0-.66.06-.66.72v4.62c0,.54.06.6.66.6.36,0,2.22-.12,7.62-.12ZM134.76-13.5h-6.42v-6.9h6.42Zm-18,0v-6.9h6.12v6.9Zm18-17.88v6.36h-6.42v-6.36Zm-18,6.36v-6.36h6.12v6.36Zm28.2,20.88H106.68V-27.12c0-3.66.06-5.64.42-6.24a2.615,2.615,0,0,0,.42-1.26c0-.48-.42-.78-1.14-.9-1.92-.24-3.66-.36-6-.48a69.174,69.174,0,0,1,.36,8.46V-7.92c0,7.56-.12,11.4-.12,11.82,0,.6.06.66.66.66h4.74c.6,0,.66-.06.66-.66V1.5h38.28V3.9c0,.6.06.66.66.66h4.8c.6,0,.66-.06.66-.66,0-.36-.12-4.32-.12-11.94V-27.18c0-3.96.12-5.76.48-6.3a1.975,1.975,0,0,0,.36-1.14c0-.54-.42-.78-1.14-.9-1.92-.24-3.78-.36-6.06-.48a79.49,79.49,0,0,1,.36,8.76Zm25.32-37.8h-3.84l.36-1.26a4.955,4.955,0,0,1,.6-1.74,1.862,1.862,0,0,0,.42-1.02c0-.36-.18-.54-.9-.72a48.973,48.973,0,0,0-5.22-1.14,14.934,14.934,0,0,1-.3,2.82,32.528,32.528,0,0,1-4.62,10.62,14.488,14.488,0,0,1,3.66,1.74,3.36,3.36,0,0,0,1.44.72c.42,0,.66-.42,1.08-1.32q.81-1.53,1.62-3.42h5.7v5.46h-5.04c-5.58,0-7.5-.12-7.86-.12-.6,0-.66.06-.66.66v4.26c0,.66.06.72.66.72.36,0,2.28-.12,7.86-.12h5.04v5.16H167.4c-5.22,0-7.02-.12-7.44-.12-.6,0-.66.06-.66.66,0,.42.12,1.86.12,5.46v7.86c0,3.9-.12,5.52-.12,5.94,0,.6.06.66.66.66h4.8c.6,0,.66-.06.66-.66,0-.36-.12-2.04-.12-5.64v-8.88h4.98v7.98c0,7.38-.12,11.04-.12,11.46,0,.54.06.6.66.6h4.86c.6,0,.66-.06.66-.6,0-.36-.12-4.14-.12-11.52v-7.92h5.28v8.28c0,1.14-.42,1.5-1.38,1.5a24.261,24.261,0,0,1-2.64-.18,11.321,11.321,0,0,1,1.32,3.78c.3,1.74.3,1.8,2.16,1.8,2.34,0,4.02-.3,5.04-1.14,1.2-.96,1.38-2.16,1.38-3.84,0-1.62-.12-3.42-.12-6.78v-2.1c0-3.84.12-5.7.12-6.06,0-.6-.06-.66-.66-.66-.42,0-2.16.12-7.38.12h-3.12V-25.8h4.02c5.58,0,7.44.12,7.8.12.6,0,.66-.06.66-.72v-4.26c0-.6-.06-.66-.66-.66-.36,0-2.22.12-7.8.12h-4.02v-5.46h2.88c4.74,0,6.3.12,6.66.12.6,0,.66-.06.66-.66v-4.2c0-.6-.06-.66-.66-.66-.36,0-1.92.12-6.66.12h-2.88v-2.04a7.9,7.9,0,0,1,.36-3.3A3.758,3.758,0,0,0,177-48.6c0-.36-.36-.6-.9-.6-1.92-.24-3.96-.36-6.24-.42a30.736,30.736,0,0,1,.42,5.7Zm38.64,1.08c0-4.08.06-5.34.36-6.06a2.854,2.854,0,0,0,.42-1.26c0-.3-.36-.6-1.02-.66a55.22,55.22,0,0,0-6.42-.36,49.072,49.072,0,0,1,.48,8.46v36.3c0,1.92-.6,2.34-2.58,2.34a46.4,46.4,0,0,1-5.76-.36,17.24,17.24,0,0,1,1.74,4.68c.42,1.92.42,1.92,2.22,1.92,5.28,0,6.9-.42,8.58-1.56,1.74-1.2,2.16-3.18,2.16-6.12,0-3-.18-7.8-.18-12ZM191.4-19.44c0,5.1-.12,7.56-.12,7.92,0,.6.06.66.66.66h4.8c.66,0,.72-.06.72-.66,0-.36-.12-2.82-.12-7.92V-36c0-4.38,0-5.58.18-6.42a4.85,4.85,0,0,0,.42-1.32c0-.36-.3-.6-.9-.66-2.04-.24-3.96-.36-6.06-.42a63.224,63.224,0,0,1,.42,8.88Zm54.48-14.58V-5.28c0,6-.12,9-.12,9.36,0,.6.06.66.66.66h5.1c.6,0,.66-.06.66-.66,0-.3-.12-3.36-.12-9.36v-3.3h7.68c4.8,0,6.42.12,6.78.12.6,0,.66-.06.66-.72v-4.44c0-.54-.06-.6-.66-.6-.36,0-1.98.12-6.78.12h-7.68v-7.32h7.68c4.74,0,6.3.12,6.66.12.6,0,.66-.06.66-.66v-4.38c0-.6-.06-.66-.66-.66-.36,0-1.92.12-6.66.12h-7.68v-7.14h9.78c5.34,0,7.14.12,7.44.12.66,0,.72-.06.72-.72V-39c0-.66-.06-.72-.72-.72-.3,0-2.1.12-7.44.12H246.18c.72-1.5,1.32-3,1.86-4.44a7.675,7.675,0,0,1,1.56-2.94,1.378,1.378,0,0,0,.54-1.14c0-.42-.42-.72-1.14-.9-1.86-.54-3.72-.9-5.94-1.32a22.139,22.139,0,0,1-.96,4.56,55.606,55.606,0,0,1-10.98,18.72A13.861,13.861,0,0,1,234-23.4c.48.84.78,1.2,1.14,1.2.3,0,.6-.3,1.14-.96a69.6,69.6,0,0,0,7.2-10.86ZM223.32-5.1c0,5.88-.12,8.76-.12,9.12,0,.6.06.66.66.66h5.1c.6,0,.66-.06.66-.66,0-.3-.12-3.24-.12-9.12V-36.36a84.133,84.133,0,0,0,3.54-7.92c.6-1.68.9-2.16,1.32-2.52.48-.42.6-.66.6-1.08,0-.36-.24-.6-.96-.9-1.68-.66-3.66-1.14-5.82-1.74a21.686,21.686,0,0,1-1.08,4.32c-2.52,6.72-6.48,14.1-12.18,19.74a14.66,14.66,0,0,1,2.22,5.22c.18.72.42,1.02.78,1.02.24,0,.6-.24,1.02-.72a58.114,58.114,0,0,0,4.5-5.52c-.06,2.64-.12,5.34-.12,7.56Z" transform="translate(1002 11378.656)" fill="#575757"/><g transform="translate(837 11157)"><g transform="translate(0 0)" clip-path="url(#a)"><path d="M292.6,3H35.941a32.941,32.941,0,1,0,0,65.881H141.823l22.14,24.5,22.139-24.5H292.6A32.941,32.941,0,0,0,292.6,3Z" transform="translate(0.729 0.73)" fill="none" stroke="#575757" stroke-miterlimit="10" stroke-width="6"/><path d="M292.6,3H35.941a32.941,32.941,0,1,0,0,65.881H141.823l22.14,24.5,22.139-24.5H292.6A32.941,32.941,0,0,0,292.6,3" transform="translate(0.729 0.73)" fill="#fff"/><path d="M75.982,45.538l4.732-27.879h7.172l5.584,14.864,5.545-14.864h7.174l4.732,27.879h-7.208l-2.4-16.046L94.728,45.538H91.844L85.595,29.492l-2.4,16.046Z" transform="translate(18.467 4.292)" fill="#fd0"/><path d="M75.982,45.538l4.732-27.879h7.172l5.584,14.864,5.545-14.864h7.174l4.732,27.879h-7.208l-2.4-16.046L94.728,45.538H91.844L85.595,29.492l-2.4,16.046Z" transform="translate(18.467 4.292)" fill="none" stroke="#575757" stroke-miterlimit="10" stroke-width="2"/><path d="M112.716,31.75A14.367,14.367,0,0,1,121.9,18.161a17.726,17.726,0,0,1,12.442,0,14.738,14.738,0,0,1,4.9,3.125,14.3,14.3,0,0,1,3.2,4.678,15.181,15.181,0,0,1,0,11.573,14.3,14.3,0,0,1-3.2,4.678,14.738,14.738,0,0,1-4.9,3.125,17.726,17.726,0,0,1-12.442,0,14.564,14.564,0,0,1-4.863-3.125,14.487,14.487,0,0,1-4.326-10.464m7.58,0a7.426,7.426,0,0,0,.628,3.069,7.751,7.751,0,0,0,1.7,2.44,7.665,7.665,0,0,0,2.5,1.609,8.2,8.2,0,0,0,6.025,0,7.915,7.915,0,0,0,2.516-1.609,7.64,7.64,0,0,0,1.719-2.44,7.8,7.8,0,0,0,0-6.138,7.64,7.64,0,0,0-1.719-2.44,8.131,8.131,0,0,0-8.541-1.609,7.681,7.681,0,0,0-4.2,4.049,7.43,7.43,0,0,0-.628,3.069" transform="translate(27.395 4.141)" fill="#fd0"/><path d="M112.716,31.75A14.367,14.367,0,0,1,121.9,18.161a17.726,17.726,0,0,1,12.442,0,14.738,14.738,0,0,1,4.9,3.125,14.3,14.3,0,0,1,3.2,4.678,15.181,15.181,0,0,1,0,11.573,14.3,14.3,0,0,1-3.2,4.678,14.738,14.738,0,0,1-4.9,3.125,17.726,17.726,0,0,1-12.442,0,14.564,14.564,0,0,1-4.863-3.125,14.487,14.487,0,0,1-4.326-10.464Zm7.58,0a7.426,7.426,0,0,0,.628,3.069,7.751,7.751,0,0,0,1.7,2.44,7.665,7.665,0,0,0,2.5,1.609,8.2,8.2,0,0,0,6.025,0,7.915,7.915,0,0,0,2.516-1.609,7.64,7.64,0,0,0,1.719-2.44,7.8,7.8,0,0,0,0-6.138,7.64,7.64,0,0,0-1.719-2.44,8.131,8.131,0,0,0-8.541-1.609,7.681,7.681,0,0,0-4.2,4.049A7.43,7.43,0,0,0,120.3,31.75Z" transform="translate(27.395 4.141)" fill="none" stroke="#575757" stroke-miterlimit="10" stroke-width="2"/><path d="M170.373,45.538h-9.022l-6.914-10.723V45.538H147.19V17.66h11.277a11.079,11.079,0,0,1,4.069.684,7.666,7.666,0,0,1,4.566,4.6,9.55,9.55,0,0,1,.572,3.328,8.178,8.178,0,0,1-1.534,5.159,7.722,7.722,0,0,1-4.528,2.68ZM154.437,30.12h1.369a5.283,5.283,0,0,0,3.29-.888,3.037,3.037,0,0,0,1.146-2.552A3.036,3.036,0,0,0,159.1,24.13a5.283,5.283,0,0,0-3.29-.888h-1.369Z" transform="translate(35.774 4.293)" fill="#fd0"/><path d="M170.373,45.538h-9.022l-6.914-10.723V45.538H147.19V17.66h11.277a11.079,11.079,0,0,1,4.069.684,7.666,7.666,0,0,1,4.566,4.6,9.55,9.55,0,0,1,.572,3.328,8.178,8.178,0,0,1-1.534,5.159,7.722,7.722,0,0,1-4.528,2.68ZM154.437,30.12h1.369a5.283,5.283,0,0,0,3.29-.888,3.037,3.037,0,0,0,1.146-2.552A3.036,3.036,0,0,0,159.1,24.13a5.283,5.283,0,0,0-3.29-.888h-1.369Z" transform="translate(35.774 4.293)" fill="none" stroke="#575757" stroke-miterlimit="10" stroke-width="2"/><path d="M190.09,23.8h-8.616v4.659h8.135v6.138h-8.135V39.4h8.616v6.137H174.227V17.66H190.09Z" transform="translate(42.345 4.293)" fill="#fd0"/><path d="M190.09,23.8h-8.616v4.659h8.135v6.138h-8.135V39.4h8.616v6.137H174.227V17.66H190.09Z" transform="translate(42.345 4.293)" fill="none" stroke="#575757" stroke-miterlimit="10" stroke-width="2"/></g></g><g transform="translate(561.368 3538.463)"><path d="M-253.726-17.442c-1.862,0-4.674-.038-7.372-.266a16.8,16.8,0,0,0,.38,3.458c.114.608.228.912.722.874,1.862-.152,4.674-.152,6.042-.152h6.764a15.676,15.676,0,0,1-1.672,6.308c-1.558,2.85-3.306,4.788-7.106,7.03a15.659,15.659,0,0,1,4.028,1.444,1.443,1.443,0,0,0,.684.228,1.18,1.18,0,0,0,.646-.266,18.078,18.078,0,0,0,6.042-7.106,20.621,20.621,0,0,0,1.9-7.638h4.674c2.774,0,4.978.038,7.372.114.456,0,.456-.152.494-.684a27.019,27.019,0,0,0,0-3.04c-.038-.418-.038-.608-.418-.608-1.71.076-4.94.266-7.334.266h-4.712c0-1.292,0-2.166.038-3a3.662,3.662,0,0,1,.266-1.292,1.891,1.891,0,0,0,.228-.646.563.563,0,0,0-.494-.532,11.264,11.264,0,0,0-2.47-.494c2.242-.456,4.56-1.026,6.878-1.672.8-.19,1.6-.532,2.394-.646.608-.038.988-.114.988-.532a1.477,1.477,0,0,0-.494-1.064,18.473,18.473,0,0,0-3.116-2.66,10.888,10.888,0,0,1-3.268,1.71,47.228,47.228,0,0,1-6.27,1.634A71.811,71.811,0,0,1-259.2-25.27a10.307,10.307,0,0,1,1.938,2.622c.152.418.38.912.95.836a86.128,86.128,0,0,0,9.006-1.216c.114.76.152,1.254.19,1.748.038,1.1.076,2.622.076,3.838Zm49.818-7.41c2.318,0,4.1.076,5.358.076.57.038.684-.114.684-.76a19.3,19.3,0,0,0,0-2.964c0-.418-.114-.608-.456-.608-1.482.076-3.5.19-5.966.19h-6.84a52.354,52.354,0,0,1-6.232-.266,33.121,33.121,0,0,0,.19,3.648c.038.608.152.836.532.836,1.6-.114,3.5-.152,5.206-.152Zm2.888,8.132c-2.736,7.334-8.93,12.578-15.96,15.846A11.14,11.14,0,0,1-213.446,1.1a1.24,1.24,0,0,0,.836.456,1.825,1.825,0,0,0,.76-.266c7.334-3.952,11.7-8.7,15.5-16.8a4.352,4.352,0,0,1,1.292-1.786.916.916,0,0,0,.418-.722,1.12,1.12,0,0,0-.38-.8,22.428,22.428,0,0,0-2.546-2.356.978.978,0,0,0-.57-.266.817.817,0,0,0-.494.228,4.18,4.18,0,0,1-2.014.418h-13.034a67.249,67.249,0,0,1-6.992-.3,28.807,28.807,0,0,0,.418,3.838c.076.494.228.722.57.722,1.9-.114,3.8-.152,5.7-.152Zm15.808.19a33.32,33.32,0,0,1,7.676,4.142.735.735,0,0,0,.456.228c.152,0,.3-.152.494-.38a15.473,15.473,0,0,0,1.672-2.888,1.127,1.127,0,0,0,.152-.418c0-.228-.152-.38-.418-.57a26.372,26.372,0,0,0-7.3-3.724c-.342-.076-.532.114-.722.38C-183.654-19.152-184.262-18.05-185.212-16.53Zm4.6-8.93a36.751,36.751,0,0,1,7.372,4.674.978.978,0,0,0,.57.266.423.423,0,0,0,.38-.228,16.265,16.265,0,0,0,1.938-2.85.92.92,0,0,0,.152-.494.6.6,0,0,0-.3-.494A25.834,25.834,0,0,0-177.65-28.8c-.456-.228-.684-.152-.95.3C-179.246-27.512-179.968-26.448-180.614-25.46Zm-1.6,21.66A24,24,0,0,0-179.4.076a.978.978,0,0,0,.76.456.842.842,0,0,0,.608-.3,12.486,12.486,0,0,1,2.2-1.292,88.221,88.221,0,0,0,11.362-7.144,70.8,70.8,0,0,0,9.652-8.778,1.181,1.181,0,0,0,.418-.874,1.858,1.858,0,0,0-.19-.722,18.979,18.979,0,0,1-1.1-4.256,69.15,69.15,0,0,1-10.944,10.6,63.654,63.654,0,0,1-10.412,6.574A17.57,17.57,0,0,1-182.21-3.8Zm51.984-17.746v18.2c0,3.8-.076,5.7-.076,5.928,0,.38.038.418.418.418h3.23c.38,0,.418-.038.418-.418,0-.19-.076-2.128-.076-5.928v-2.09h4.864c3.04,0,4.066.076,4.294.076.38,0,.418-.038.418-.456V-8.626c0-.342-.038-.38-.418-.38-.228,0-1.254.076-4.294.076h-4.864v-4.636h4.864c3,0,3.99.076,4.218.076.38,0,.418-.038.418-.418v-2.774c0-.38-.038-.418-.418-.418-.228,0-1.216.076-4.218.076h-4.864v-4.522h6.194c3.382,0,4.522.076,4.712.076.418,0,.456-.038.456-.456V-24.7c0-.418-.038-.456-.456-.456-.19,0-1.33.076-4.712.076h-9.918c.456-.95.836-1.9,1.178-2.812a4.861,4.861,0,0,1,.988-1.862.873.873,0,0,0,.342-.722c0-.266-.266-.456-.722-.57-1.178-.342-2.356-.57-3.762-.836a14.021,14.021,0,0,1-.608,2.888,35.217,35.217,0,0,1-6.954,11.856,8.779,8.779,0,0,1,1.824,2.318c.3.532.494.76.722.76.19,0,.38-.19.722-.608a44.078,44.078,0,0,0,4.56-6.878ZM-144.514-3.23c0,3.724-.076,5.548-.076,5.776,0,.38.038.418.418.418h3.23c.38,0,.418-.038.418-.418,0-.19-.076-2.052-.076-5.776v-19.8a53.282,53.282,0,0,0,2.242-5.016c.38-1.064.57-1.368.836-1.6.3-.266.38-.418.38-.684,0-.228-.152-.38-.608-.57-1.064-.418-2.318-.722-3.686-1.1a13.735,13.735,0,0,1-.684,2.736,35.067,35.067,0,0,1-7.714,12.5,9.285,9.285,0,0,1,1.406,3.306c.114.456.266.646.494.646.152,0,.38-.152.646-.456a36.81,36.81,0,0,0,2.85-3.5c-.038,1.672-.076,3.382-.076,4.788Zm61.294-18.7c3.572,0,4.826.076,5.054.076.38,0,.418-.038.418-.418v-2.888c0-.418-.038-.456-.418-.456-.228,0-1.482.076-5.054.076h-5.7v-.912a13.731,13.731,0,0,1,.19-3.8,1.817,1.817,0,0,0,.19-.722c0-.228-.19-.418-.57-.456-1.368-.152-2.66-.19-4.1-.266a36.1,36.1,0,0,1,.3,5.358v.8h-10.108c-3.61,0-4.864-.076-5.092-.076-.418,0-.456.038-.456.456,0,.228.076,2.47.076,7.638a62.031,62.031,0,0,1-.532,9.2,20.28,20.28,0,0,1-2.964,8.4A11.924,11.924,0,0,1-109.63,2.2c.342.418.57.608.76.608s.38-.228.646-.722A28.461,28.461,0,0,0-105.26-6.8a49.3,49.3,0,0,0,.684-6.65h5.32a31.213,31.213,0,0,1-.57,6.118,1.611,1.611,0,0,1-1.824,1.368,17.377,17.377,0,0,1-3.116-.3,7.966,7.966,0,0,1,.912,2.736c.19,1.178.228,1.178,1.1,1.254a16.525,16.525,0,0,0,1.938.076,4.336,4.336,0,0,0,4.408-3.154,29.957,29.957,0,0,0,.874-7.068c.076-1.14.114-2.736.19-4.18,0-.418-.076-.494-.456-.494-.228,0-.912.076-3.23.076H-104.5v-4.9h11.7A46.078,46.078,0,0,0-90.022-7.372,30.121,30.121,0,0,1-98.838-.228,8.968,8.968,0,0,1-96.9,1.786c.38.57.57.8.8.8a2.412,2.412,0,0,0,.912-.418A29.88,29.88,0,0,0-88.312-3.5c1.9,3.534,4.408,5.966,7.03,5.966,2.318,0,3.686-1.862,4.294-5.928.19-1.178.19-1.178-.912-1.748a7.55,7.55,0,0,1-2.128-1.482c-.228,3.534-.684,4.674-1.558,4.674-.95,0-2.7-1.824-4.066-4.75a42.7,42.7,0,0,0,4.332-7.714,5.826,5.826,0,0,1,.95-1.862c.266-.3.532-.532.532-.8,0-.228-.19-.418-.57-.608a22.258,22.258,0,0,0-3.534-1.368,18.8,18.8,0,0,1-1.026,3.5,30.8,30.8,0,0,1-2.28,4.446,48.241,48.241,0,0,1-1.558-10.754Zm-2.888-8.17c-.19.152-.3.228-.3.342s.076.19.228.342a14.64,14.64,0,0,1,3.078,3.344c.114.152.19.266.3.266s.266-.114.494-.266l1.824-1.368c.418-.266.418-.418.19-.722a17.19,17.19,0,0,0-3.268-3.192c-.3-.228-.418-.228-.8.038Zm22.154-.038a17,17,0,0,1,.988,4.408,57.67,57.67,0,0,0,1.976,9.272c-4.446,2.812-7.22,5.586-7.22,9.8,0,4.94,3.8,7.3,10.982,7.3A81.2,81.2,0,0,0-45.9.076c.456-.038.722-.228.684-.646A33.554,33.554,0,0,0-45.6-4.1c-.076-.456-.266-.532-.684-.456a66.365,66.365,0,0,1-11.59.874c-4.37,0-6.042-.95-6.042-3.192,0-1.786,1.178-3.572,4.484-5.738a52.88,52.88,0,0,1,8.93-4.446,18.235,18.235,0,0,1,3.648-1.14c.532-.076.76-.38.76-.76a1.539,1.539,0,0,0-.266-.8,19.513,19.513,0,0,0-2.774-3.572,9.4,9.4,0,0,1-2.622,2.052c-2.128,1.14-3.5,1.862-5.4,2.888a53.43,53.43,0,0,1-1.216-6.536c-.076-.874-.19-1.786-.19-2.546,0-.532.266-1.064.266-1.6,0-.3-.228-.494-.684-.608A21.993,21.993,0,0,0-63.954-30.134ZM-25.384-18.7l-3.23.8a58.409,58.409,0,0,1-7.144,1.33,28.428,28.428,0,0,0,1.52,3.876c.19.418.342.608.608.608a1.576,1.576,0,0,0,.456-.152,40.561,40.561,0,0,1,5.358-1.634l2.432-.646V-6.84c0,5.13,2.242,6.688,9.5,6.688A74.592,74.592,0,0,0-6.8-.608c.57-.038.8-.19.8-.57A18.219,18.219,0,0,0-6.346-4.37c-.076-.57-.114-.836-.646-.76a56.992,56.992,0,0,1-9.2.836c-4.1,0-4.788-.646-4.788-2.66V-15.58l10.45-2.66a31.628,31.628,0,0,1-6.194,7.6A12.945,12.945,0,0,1-13.566-9.2a1.215,1.215,0,0,0,.722.266,1.5,1.5,0,0,0,.988-.57,39.963,39.963,0,0,0,6.042-8.208A4.956,4.956,0,0,1-4.636-19.19a1.034,1.034,0,0,0,.494-.76.985.985,0,0,0-.342-.684A14.882,14.882,0,0,0-7.3-23.1a.821.821,0,0,0-.532-.228.906.906,0,0,0-.532.228,5.343,5.343,0,0,1-2.7,1.1l-9.918,2.318V-23.6a6.828,6.828,0,0,1,.494-3.382,1.213,1.213,0,0,0,.228-.608c0-.342-.228-.57-.722-.684a27.253,27.253,0,0,0-4.9-.76,30.967,30.967,0,0,1,.494,6.688Zm32.224.8a22.462,22.462,0,0,1,3.572,6.118c.19.532.418.722.95.532a15.774,15.774,0,0,0,2.432-1.178c.3-.19.456-.3.456-.532a2.57,2.57,0,0,0-.152-.57,20.35,20.35,0,0,0-3.268-5.624.681.681,0,0,0-.988-.266C9.044-19.038,8.132-18.62,6.84-17.9Zm7.638-1.938a25.853,25.853,0,0,1,3.192,6.08c.19.532.342.722.76.57a15.693,15.693,0,0,0,2.622-1.178c.494-.266.57-.456.38-1.026a21.944,21.944,0,0,0-2.926-5.548.668.668,0,0,0-.988-.3C16.872-20.976,16-20.558,14.478-19.836Zm11.97-.912a13.69,13.69,0,0,1-.874,4.028,39.347,39.347,0,0,1-5.13,9.158c-2.28,2.964-4.56,4.9-9.12,7.9a8.578,8.578,0,0,1,3.23,1.6.87.87,0,0,0,.608.266,1.65,1.65,0,0,0,.912-.418A30.431,30.431,0,0,0,23.9-5.548,46.337,46.337,0,0,0,29.64-15.656a5.236,5.236,0,0,1,1.14-1.938c.3-.266.418-.456.418-.684s-.19-.418-.494-.646A18.07,18.07,0,0,0,26.448-20.748ZM55.4-24.966c0-2.128,0-3.078.266-3.572a2,2,0,0,0,.3-.874c0-.3-.19-.532-.722-.646a28.049,28.049,0,0,0-4.75-.608,29,29,0,0,1,.38,5.624v18.7c0,2.432-.038,4.674-.152,7.486,0,.456.19.57.722.57a25.112,25.112,0,0,0,3.382,0c.532,0,.722-.114.684-.57-.076-2.736-.152-4.978-.152-7.448v-8.4A42.087,42.087,0,0,1,65.36-9.842a.583.583,0,0,0,.418.19c.19,0,.342-.152.494-.418a22.335,22.335,0,0,0,1.634-3.306c.19-.494,0-.76-.418-.988A53.6,53.6,0,0,0,55.4-19.532Zm41.344,2.242c-4.6,3-7.3,6.65-7.3,12.046,0,7.9,7.334,11.742,14.022,11.742.456,0,.608-.228.722-.8A13.517,13.517,0,0,0,104.614-3c0-.418-.228-.57-.836-.57C97.166-3.99,93.67-6.65,93.67-11.552c0-4.56,3.23-9.006,9.69-11.21A16.955,16.955,0,0,1,108-23.6c.494,0,.722-.114.722-.57a21.709,21.709,0,0,0-.418-3.344c-.038-.266-.228-.494-.8-.418-9.8,1.292-18.164,2.546-22.838,3.23a52.422,52.422,0,0,1-6.042.646,26.48,26.48,0,0,0,1.406,4.1.888.888,0,0,0,.722.57,2.218,2.218,0,0,0,.836-.3c.57-.19.95-.266,2.394-.608,4.066-.836,8.132-1.634,12.768-2.508Zm5.51,5.434a18.855,18.855,0,0,1,3.838,4.408.4.4,0,0,0,.646.114l1.6-1.178a.383.383,0,0,0,.114-.608,17.49,17.49,0,0,0-3.61-4.066c-.228-.19-.38-.228-.57-.076Zm3.5-2.508a17.976,17.976,0,0,1,3.8,4.37.39.39,0,0,0,.646.114l1.52-1.178a.439.439,0,0,0,.114-.684,15.869,15.869,0,0,0-3.61-3.914c-.228-.19-.342-.228-.57-.076ZM125.4-11.932c-2.774,1.6-4.56,2.622-6.194,3.534a14.031,14.031,0,0,1-3.5,1.33c.57,1.254,1.33,2.85,1.748,3.534a1.066,1.066,0,0,0,.836.608.954.954,0,0,0,.646-.266,6.887,6.887,0,0,1,1.216-.836,23.364,23.364,0,0,1,5.4,4.864c.342.494.494.8.912.76a15.445,15.445,0,0,0,2.812-.456c.646-.152.57-.722.57-1.254,0-.874-.19-3.268-.3-4.94-.076-1.672-.114-2.964-.152-4.56,3.914-2.014,6.536-2.584,8.7-2.584,2.66,0,4.18,1.368,4.18,3.838,0,2.7-1.976,3.914-4.1,3.914a14.174,14.174,0,0,1-4.75-.684,6.64,6.64,0,0,1,1.14,3.23,1.019,1.019,0,0,0,.836,1.14,14.727,14.727,0,0,0,3.116.342c5.13,0,8.246-2.85,8.246-7.714,0-4.56-3.382-7.562-8.094-7.6a23.983,23.983,0,0,0-9.348,2.09c.038-1.824.038-3.686.076-5.51a38.731,38.731,0,0,0,5.434-1.444c.38-.114.494-.228.494-.608a19.1,19.1,0,0,0-.228-2.964c-.038-.38-.3-.456-.646-.342A37.263,37.263,0,0,1,129.58-23.1c.038-1.216.076-2.166.19-3.154a4.651,4.651,0,0,1,.532-1.482,1.348,1.348,0,0,0,.228-.608c0-.342-.3-.608-.76-.722a21.536,21.536,0,0,0-4.522-.684,14.048,14.048,0,0,1,.266,3.078c0,1.634-.038,3.078-.038,4.332-1.6.152-3.23.3-4.826.3a19.413,19.413,0,0,1-2.964-.19c.152,1.33.3,2.584.418,3.306.076.57.266.8.912.8,2.546,0,4.484-.152,6.384-.3Zm.19,3.99c.076,1.254.152,3,.228,3.99.038.342-.076.38-.38.3a38.969,38.969,0,0,1-3.572-1.71C123.234-6.346,124.526-7.22,125.59-7.942Zm12.692-14.4A17.542,17.542,0,0,1,146-17.67c.114.19.646.152.76,0,.57-.76,1.558-1.938,2.052-2.7a.986.986,0,0,0,.152-.38c0-.114-.076-.228-.228-.38a18.063,18.063,0,0,0-8.056-4.636c-.266-.076-.38.038-.646.456A23.313,23.313,0,0,0,138.282-22.344ZM169.86-24.89c-4.56.266-9.462.57-11.78.76a25.063,25.063,0,0,1-4.636.152,26.628,26.628,0,0,0,.95,3.838c.114.38.266.532.646.532.342,0,.95-.342,1.786-.456,3-.418,8.36-.874,13.148-1.14,0,1.254.038,2.546.038,3.876a4.657,4.657,0,0,0-2.888-.76,5.537,5.537,0,0,0-5.738,5.7c0,3.648,2.28,5.814,5.282,5.814a4.387,4.387,0,0,0,3.572-1.52C169.556-4.9,166.9-1.71,162.45.266a8.469,8.469,0,0,1,2.888,1.52,2.152,2.152,0,0,0,1.14.57,3.622,3.622,0,0,0,1.482-.722,14.189,14.189,0,0,0,6.764-12.274,11.838,11.838,0,0,0-.57-3.762c-.038-2.318-.038-4.75-.038-7.068,3.952-.038,7.638-.038,11.59.076.456.038.646-.076.646-.494.038-.95.038-1.938,0-2.888-.038-.494-.114-.57-.57-.57-3.648,0-7.562.038-11.666.19.038-1.444.038-1.938.076-2.432a3.973,3.973,0,0,1,.3-1.1,1.6,1.6,0,0,0,.342-.874c0-.342-.418-.608-1.064-.722a38.608,38.608,0,0,0-4.446-.532,12.075,12.075,0,0,1,.456,2.774C169.822-27.018,169.822-26.068,169.86-24.89Zm-2.432,9.766a2.277,2.277,0,0,1,2.508,2.432,2.441,2.441,0,0,1-2.584,2.622,2.357,2.357,0,0,1-2.432-2.584A2.418,2.418,0,0,1,167.428-15.124Zm40.2-9.766c-4.56.266-9.462.57-11.78.76a25.063,25.063,0,0,1-4.636.152,26.628,26.628,0,0,0,.95,3.838c.114.38.266.532.646.532.342,0,.95-.342,1.786-.456,3-.418,8.36-.874,13.148-1.14,0,1.254.038,2.546.038,3.876a4.657,4.657,0,0,0-2.888-.76,5.537,5.537,0,0,0-5.738,5.7c0,3.648,2.28,5.814,5.282,5.814a4.387,4.387,0,0,0,3.572-1.52c-.684,3.192-3.344,6.384-7.79,8.36a8.469,8.469,0,0,1,2.888,1.52,2.152,2.152,0,0,0,1.14.57,3.622,3.622,0,0,0,1.482-.722A14.189,14.189,0,0,0,212.5-10.64a11.838,11.838,0,0,0-.57-3.762c-.038-2.318-.038-4.75-.038-7.068,3.952-.038,7.638-.038,11.59.076.456.038.646-.076.646-.494.038-.95.038-1.938,0-2.888-.038-.494-.114-.57-.57-.57-3.648,0-7.562.038-11.666.19.038-1.444.038-1.938.076-2.432a3.973,3.973,0,0,1,.3-1.1,1.6,1.6,0,0,0,.342-.874c0-.342-.418-.608-1.064-.722a38.608,38.608,0,0,0-4.446-.532,12.075,12.075,0,0,1,.456,2.774C207.594-27.018,207.594-26.068,207.632-24.89ZM205.2-15.124a2.277,2.277,0,0,1,2.508,2.432,2.441,2.441,0,0,1-2.584,2.622,2.357,2.357,0,0,1-2.432-2.584A2.418,2.418,0,0,1,205.2-15.124Zm41.42-7.486a21.753,21.753,0,0,0-7.752,2.166c-.228-.912-.342-1.6-.532-2.7a12.367,12.367,0,0,1-.152-2.166c0-.684-.114-.95-.722-1.1a16.5,16.5,0,0,0-4.294-.608,17.2,17.2,0,0,1,1.14,3.572c.38,1.672.76,3.572,1.178,5.016-3.648,3.306-5.4,6.954-5.4,10.906,0,3.8,2.09,6.156,4.978,6.156,2.052,0,3.876-.988,6.346-3.61.418.494.722.8,1.026,1.1a.821.821,0,0,0,.532.228.908.908,0,0,0,.532-.19,10.885,10.885,0,0,0,2.356-2.318,13.413,13.413,0,0,1-1.634-1.938,68.415,68.415,0,0,0,5.548-11.1c4.18.418,6.84,3.344,6.84,7.182,0,6.612-6.194,8.968-11.362,10.032a7.771,7.771,0,0,1,2.47,2.508c.456.722.722.836,1.558.646,7.562-1.862,11.666-5.928,11.666-12.692,0-6.042-4.142-10.07-10.146-11.02.494-1.52.836-2.432,1.064-3.04a6.267,6.267,0,0,1,.76-1.406,1.3,1.3,0,0,0,.266-.646c0-.266-.19-.494-.608-.684a15.733,15.733,0,0,0-4.484-1.52,9.817,9.817,0,0,1-.076,2.584A28.914,28.914,0,0,1,246.62-22.61Zm-6.84,5.586a14.906,14.906,0,0,1,5.738-2.128,45.771,45.771,0,0,1-3.61,7.676A28.46,28.46,0,0,1,239.78-17.024Zm-3.116,2.508a39.273,39.273,0,0,0,2.622,6.156c-1.6,1.938-2.812,2.774-3.952,2.774-.8,0-1.33-1.026-1.33-2.318A10.636,10.636,0,0,1,236.664-14.516Z" transform="translate(437.532 7766.3)" fill="#575757"/><path d="M681.51,7698.45l-26.652,42.3" transform="translate(62.255 28.802)" fill="none" stroke="#707070" stroke-width="3"/><path d="M654.858,7698.45l24.127,42.3" transform="translate(-517.358 28.802)" fill="none" stroke="#707070" stroke-width="3"/></g></g></svg>