<svg xmlns="http://www.w3.org/2000/svg" xmlns:xlink="http://www.w3.org/1999/xlink" width="736.716" height="172.656" viewBox="0 0 736.716 172.656"><defs><clipPath id="a"><rect width="68.734" height="62.621" fill="#575757"/></clipPath></defs><g transform="translate(-611.978 -1682.408)"><path d="M8.933,22.017q56.916-4.848,114.366-8.34Q180.628,10.2,238.345,8.14q32.572-1.173,65.211-1.906l-3.571-5.8L247.7,12.318c-6.1,1.386-3.413,6.023,3.571,5.8q65.222-2.046,130.618-2.682,65.37-.629,130.758.163,36.856.448,73.674,1.347c3.82.093,7.077-1.5,7.077-3.115,0-1.764-3.246-3.022-7.077-3.115q-65.288-1.59-130.7-1.768-65.387-.173-130.737,1.078-36.834.7-73.615,1.862l3.573,5.8L307.129,5.808c6.168-1.4,3.367-5.961-3.573-5.8Q245.1,1.323,186.856,4.043,128.27,6.786,70.076,10.931,37.537,13.249,5.169,16.01c-3.754.32-5.9,2.3-4.943,3.831,1.079,1.728,4.941,2.5,8.706,2.176" transform="translate(689.814 1832.976)" fill="#d8d8d8"/><path d="M593.4,22.088h0Z" transform="translate(689.814 1832.976)" fill="#d8d8d8"/><path d="M-363.9-20.82c-2.28,3.54-3.18,6.12-3.18,8.58,0,7.8,6.9,12.12,20.34,12.12a90.478,90.478,0,0,0,17.88-1.44c.72-.12,1.08-.36,1.02-.9a50.164,50.164,0,0,0-.96-5.88c-.12-.54-.42-.72-1.26-.54a76.333,76.333,0,0,1-16.26,1.74c-10.32,0-14.22-1.86-14.22-5.64a9.86,9.86,0,0,1,1.56-4.56c.3-.48.24-.78-.3-1.08C-360.84-19.26-362.34-20.04-363.9-20.82Zm1.32-22.68c-.12,2.16-.24,3.9-.24,5.34,0,.72.24.96.78,1.08a74.888,74.888,0,0,0,10.5,1.02,41.257,41.257,0,0,0,4.92-.18c-2.1,1.26-4.74,2.94-7.86,4.98a14.337,14.337,0,0,1,4.2,1.92,2.52,2.52,0,0,0,1.26.36,2.557,2.557,0,0,0,1.5-.54c4.86-3.12,9-5.1,14.7-5.94.72-.06,1.02-.42,1.02-1.26a39.509,39.509,0,0,0-.3-5.1c-.06-.48-.3-.72-.9-.66-3.84.24-8.34.54-12.72.54A75.692,75.692,0,0,1-362.58-43.5Zm63.42,23.16c3.3-5.4,6.54-11.7,10.38-19.08A15.639,15.639,0,0,1-286.92-42a1.874,1.874,0,0,0,.66-1.2,1.566,1.566,0,0,0-.84-1.26,34.762,34.762,0,0,0-6.72-3.36,36,36,0,0,1-3,8.76c-3.3,7.5-8.82,18.96-17.58,36.12a1.787,1.787,0,0,0-.3.84,1.045,1.045,0,0,0,.54.78,19.387,19.387,0,0,0,4.62,2.58c.78.24,1.08.12,1.44-.72,2.34-5.52,4.86-10.44,7.02-13.32,2.4-3.18,4.98-5.1,7.56-5.1,2.1,0,3.42,1.74,3.96,7.74.78,8.46,3.36,11.64,9.42,11.64A14.988,14.988,0,0,0-269.1-3.54a32.451,32.451,0,0,0,5.16-7.44A2.12,2.12,0,0,0-263.7-12a1.646,1.646,0,0,0-.66-1.26,14.555,14.555,0,0,1-3.48-4.98,29.7,29.7,0,0,1-6.06,9.78c-1.68,1.8-3.48,2.88-5.64,2.88-2.28,0-3-1.98-3.48-6.36-.66-5.76-2.28-11.34-8.76-11.34a11.905,11.905,0,0,0-7.32,3.06Zm73.02,6.96a30.922,30.922,0,0,0-4.74-.36c-6.78,0-11.1,3.54-11.1,8.76,0,5.16,4.44,8.52,11.04,8.52,6.84,0,11.16-2.76,11.16-8.76a44.627,44.627,0,0,1,7.32,5.04c.24.24.42.36.6.36s.36-.12.54-.42a36.918,36.918,0,0,0,2.76-4.86c.3-.6.24-.84-.36-1.26a47.046,47.046,0,0,0-10.8-5.58,78.359,78.359,0,0,1-.66-10.2,6.235,6.235,0,0,1,.24-2.46,7.523,7.523,0,0,0,.36-1.26.922.922,0,0,0-.84-.96,32.434,32.434,0,0,0-6.54-1.14,21.072,21.072,0,0,1,.48,4.26C-226.62-20.88-226.5-17.22-226.14-13.38Zm.12,5.7a6.911,6.911,0,0,1,.06,1.2c0,2.52-1.98,4.26-5.22,4.26-3.42,0-5.1-.96-5.1-2.88,0-2.28,2.34-3.48,5.34-3.48A15.291,15.291,0,0,1-226.02-7.68Zm-9.78-30.78c.54-1.8,1.02-3.66,1.44-5.1a6.6,6.6,0,0,1,.96-2.22,1.478,1.478,0,0,0,.54-1.14c0-.42-.36-.78-.96-.9a55.485,55.485,0,0,0-7.02-1.26,23.222,23.222,0,0,1-.36,4.86c-.42,2.16-.84,4.2-1.56,6.72-2.76.24-4.56.3-6.9.3-1.74,0-3.12-.06-5.58-.24a31.347,31.347,0,0,0,.6,5.1c.12.78.24.96.84.96,1.5.06,1.98.06,3.3.06,1.86,0,3.72,0,6-.12A121.044,121.044,0,0,1-254.88-10.5a1.148,1.148,0,0,0-.3.72c0,.24.12.42.42.66a28.484,28.484,0,0,0,4.14,3.06,1.663,1.663,0,0,0,.72.3c.24,0,.42-.18.66-.6,4.32-7.32,7.86-15.6,11.7-25.74,3.72-.54,6.66-.96,9.9-1.62.48-.06.72-.18.72-.72a32.556,32.556,0,0,0-.54-4.86c-.12-.66-.36-.66-.9-.48A64.484,64.484,0,0,1-235.8-38.46Zm13.32,5.7a51.853,51.853,0,0,1,12.42,6.54.837.837,0,0,0,.54.24c.18,0,.36-.12.54-.42a36.494,36.494,0,0,0,2.52-4.44,1.431,1.431,0,0,0,.24-.72c0-.24-.18-.42-.54-.66a46.812,46.812,0,0,0-11.76-5.64.837.837,0,0,0-1.26.42C-220.56-36.36-221.46-34.56-222.48-32.76Zm38.64,13.92c-4.38,2.52-7.2,4.14-9.78,5.58a22.154,22.154,0,0,1-5.52,2.1c.9,1.98,2.1,4.5,2.76,5.58a1.683,1.683,0,0,0,1.32.96,1.506,1.506,0,0,0,1.02-.42,10.875,10.875,0,0,1,1.92-1.32,36.891,36.891,0,0,1,8.52,7.68c.54.78.78,1.26,1.44,1.2a24.387,24.387,0,0,0,4.44-.72c1.02-.24.9-1.14.9-1.98,0-1.38-.3-5.16-.48-7.8-.12-2.64-.18-4.68-.24-7.2,6.18-3.18,10.32-4.08,13.74-4.08,4.2,0,6.6,2.16,6.6,6.06,0,4.26-3.12,6.18-6.48,6.18a22.381,22.381,0,0,1-7.5-1.08,10.484,10.484,0,0,1,1.8,5.1,1.609,1.609,0,0,0,1.32,1.8,23.254,23.254,0,0,0,4.92.54c8.1,0,13.02-4.5,13.02-12.18,0-7.2-5.34-11.94-12.78-12a37.868,37.868,0,0,0-14.76,3.3c.06-2.88.06-5.82.12-8.7a61.155,61.155,0,0,0,8.58-2.28c.6-.18.78-.36.78-.96a30.155,30.155,0,0,0-.36-4.68c-.06-.6-.48-.72-1.02-.54a58.837,58.837,0,0,1-7.68,2.22c.06-1.92.12-3.42.3-4.98a7.343,7.343,0,0,1,.84-2.34,2.128,2.128,0,0,0,.36-.96c0-.54-.48-.96-1.2-1.14a34,34,0,0,0-7.14-1.08,22.182,22.182,0,0,1,.42,4.86c0,2.58-.06,4.86-.06,6.84-2.52.24-5.1.48-7.62.48a30.652,30.652,0,0,1-4.68-.3c.24,2.1.48,4.08.66,5.22.12.9.42,1.26,1.44,1.26,4.02,0,7.08-.24,10.08-.48Zm.3,6.3c.12,1.98.24,4.74.36,6.3.06.54-.12.6-.6.48a61.531,61.531,0,0,1-5.64-2.7C-187.26-10.02-185.22-11.4-183.54-12.54Zm20.04-22.74c4.8,1.62,9,3.84,12.18,7.38.18.3,1.02.24,1.2,0,.9-1.2,2.46-3.06,3.24-4.26a1.558,1.558,0,0,0,.24-.6c0-.18-.12-.36-.36-.6a28.521,28.521,0,0,0-12.72-7.32c-.42-.12-.6.06-1.02.72A36.809,36.809,0,0,0-163.5-35.28ZM-95.64-3.84h-22.2V-18.66c0-4.62.06-5.88.36-6.6a2.854,2.854,0,0,0,.42-1.26c0-.3-.36-.6-.96-.66-2.04-.24-3.66-.36-5.94-.42a53.069,53.069,0,0,1,.48,9.06V-4.08c0,5.22-.12,7.74-.12,8.1,0,.6.06.66.72.66h4.38c.6,0,.66-.06.66-.66V1.5h22.2V3.84c0,.6.06.66.66.66h4.38c.66,0,.72-.06.72-.66,0-.36-.12-3-.12-8.22V-18.54c0-4.98.06-6.12.36-6.78a1.9,1.9,0,0,0,.36-1.02c0-.36-.36-.66-.96-.72-2.04-.24-3.6-.36-5.82-.42a56.065,56.065,0,0,1,.42,9ZM-134.7-6.3c0,6.72-.12,10.14-.12,10.44,0,.66.06.72.66.72h4.86c.6,0,.66-.06.66-.72,0-.3-.12-3.72-.12-10.5V-41.22c0-4.38.12-5.88.42-6.66a2.951,2.951,0,0,0,.3-1.2c0-.3-.36-.54-.96-.6-1.98-.24-3.9-.36-6.18-.42a55.115,55.115,0,0,1,.48,9.06Zm37.32-3.54c.6-.6.54-.78.18-1.26-1.68-2.16-3.54-4.32-5.52-6.42a40.6,40.6,0,0,0,2.52-5.52,7.172,7.172,0,0,1,1.38-2.58,1.648,1.648,0,0,0,.78-1.14c0-.42-.24-.78-.9-1.02-1.2-.48-3.42-1.26-5.04-1.74a25.133,25.133,0,0,1-1.62,5.34c-.36.9-.72,1.8-1.14,2.64-1.68-1.5-3.36-2.88-5.16-4.2-.48-.3-.72-.36-1.2.12l-2.34,2.04c-.72.6-.66.78-.18,1.14,2.04,1.68,4.14,3.54,6.18,5.58a35.931,35.931,0,0,1-7.86,8.22,11.006,11.006,0,0,1,3,2.4c.66.66.96,1.02,1.32,1.02s.72-.36,1.32-.9a38.106,38.106,0,0,0,6-6.66c1.5,1.74,2.94,3.6,4.32,5.46.18.24.3.36.48.36a1.146,1.146,0,0,0,.72-.42Zm-4.26-22.86a17.029,17.029,0,0,1,3.48,1.2,3.634,3.634,0,0,0,1.44.6c.42,0,.72-.36,1.2-1.26a117.26,117.26,0,0,0,5.34-11.28,6.319,6.319,0,0,1,1.02-1.74c.3-.36.66-.72.66-1.14s-.24-.6-.66-.84a46.143,46.143,0,0,0-5.76-2.04,21.515,21.515,0,0,1-.72,3.48A75.767,75.767,0,0,1-101.64-32.7Zm-21.24-13.08c-.72.24-.78.48-.48,1.02a53.683,53.683,0,0,1,5.04,11.7c.24.6.42.6,1.2.36l3.72-1.26c.78-.3.84-.42.66-1.08a57.567,57.567,0,0,0-5.34-11.58c-.36-.6-.54-.6-1.2-.36Zm11.04-3c-.78.24-.84.42-.54,1.02a55.483,55.483,0,0,1,4.5,11.82c.18.72.3.66,1.08.42l3.72-1.14c.9-.3.96-.42.78-1.02a63.682,63.682,0,0,0-4.68-11.64c-.3-.6-.6-.66-1.32-.42Zm-28.08,11.1c-.84-.18-.96-.18-.96.42a50.9,50.9,0,0,1-1.92,12.3c-.18.6-.12.9.6,1.2l2.94,1.2c.66.3.78.36.96-.24a51.05,51.05,0,0,0,1.98-13.32c.06-.66-.06-.78-.78-.96Zm12.72-.48c-.78.24-.84.36-.6.96a49.257,49.257,0,0,1,1.92,8.4c.12.66.3.66,1.08.42l2.52-.84c.78-.24.78-.42.66-1.08a38.381,38.381,0,0,0-2.34-8.16c-.24-.54-.42-.54-1.02-.36Zm81.18,15.78a49.753,49.753,0,0,0-11.64-3c1.8-4.32,3.48-9,5.04-13.08A8.156,8.156,0,0,1-51-41.58a1.544,1.544,0,0,0,.6-1.02,1.44,1.44,0,0,0-.54-1.02,20.052,20.052,0,0,0-4.08-3.3,1.378,1.378,0,0,0-.84-.24,1.32,1.32,0,0,0-.78.24,6.92,6.92,0,0,1-2.94,1.02,66.959,66.959,0,0,1-9.3.78,22.358,22.358,0,0,1-5.28-.36,36.367,36.367,0,0,0,1.74,6.54.973.973,0,0,0,.96.66,3.158,3.158,0,0,0,1.08-.24,12.6,12.6,0,0,1,2.7-.66c1.98-.24,4.98-.6,8.28-.96-1.5,5.04-3,9.24-4.98,14.22-10.02,0-17.7,5.82-17.7,13.26,0,5.82,3.66,8.22,7.14,8.22a9.849,9.849,0,0,0,7.68-3.3c2.4-2.4,4.14-5.4,7.32-12a40.57,40.57,0,0,1,11.88,3.66C-50.34-10.02-54-5.04-61.5.18a12.364,12.364,0,0,1,5.22,2.46,1.64,1.64,0,0,0,.9.42c.36,0,.66-.24,1.2-.66,5.82-4.5,9.06-8.88,12.12-15.78A48.759,48.759,0,0,1-34.2-7.74a1.144,1.144,0,0,0,.72.42c.18,0,.36-.12.54-.42a51.7,51.7,0,0,0,2.58-5.16c.18-.6.24-.9-.36-1.26a69.429,69.429,0,0,0-9.36-5.76c.6-2.58,1.2-5.22,1.68-7.74A10.093,10.093,0,0,1-37.44-30a1.129,1.129,0,0,0-.42-1.62,25.875,25.875,0,0,0-6.96-2.58,18.775,18.775,0,0,1,.06,4.08A59.355,59.355,0,0,1-46.02-22.38Zm-20.46,2.16a41.015,41.015,0,0,1-4.38,7.32c-1.2,1.5-2.34,2.28-3.48,2.28-1.44,0-2.1-.84-2.1-2.76C-76.44-16.8-72.6-19.98-66.48-20.22ZM-7.26-48.78a14.1,14.1,0,0,1,.24,2.7c0,1.68-.24,4.38-.48,6.54a91.488,91.488,0,0,1-11.64-.24c.12,1.68.12,3.24.3,4.56.06,1.02.42,1.32,1.08,1.38a23.863,23.863,0,0,0,3.42.12c1.02,0,2.64.06,6.18-.06-.12,2.28-.24,4.92-.3,7.5C-15.84-22.62-22.5-15.3-22.5-7.62c0,4.68,2.58,7.44,6.66,7.44,3.06,0,6.18-1.38,10.44-4.32A11.959,11.959,0,0,0-4.38-2.16c.36.6.6.6,1.2.3a19.086,19.086,0,0,0,3.6-2.1c.6-.42.84-.72.48-1.5A18.1,18.1,0,0,1-.18-8.16,63.461,63.461,0,0,0,11.16-23.88c4.02,1.02,7.44,3.9,7.44,8.7,0,4.32-1.92,6.9-4.8,9A34.544,34.544,0,0,1,2.64-1.8,15.255,15.255,0,0,1,6.18,1.92c.66,1.32,1.32,1.5,2.64,1.14C18.36.48,25.5-5.16,25.5-13.86c0-7.5-4.56-12.6-12.3-14.64a5.187,5.187,0,0,1,.78-1.2,1.037,1.037,0,0,0,.36-.72c0-.36-.36-.84-1.08-1.32a24.149,24.149,0,0,0-5.34-2.22A14.723,14.723,0,0,1,6.9-29.58a36.02,36.02,0,0,0-9.18,1.32c.06-2.1.18-3.54.42-6.06a127.3,127.3,0,0,0,17.04-2.52c.66-.12,1.26-.42,1.26-1.2a18.611,18.611,0,0,0-.6-4.08c-.12-.54-.3-.78-1.02-.6A115.348,115.348,0,0,1-.78-40.2c.18-1.02.3-1.92.48-3a4.636,4.636,0,0,1,.84-2.16,1.322,1.322,0,0,0,.3-.96q0-.72-1.08-1.08A32.865,32.865,0,0,0-7.26-48.78Zm5.4,34.68a64.25,64.25,0,0,1-.72-9A28.157,28.157,0,0,1,5.1-24.48,55.062,55.062,0,0,1-1.86-14.1Zm-6.6-6.3a77.8,77.8,0,0,0,1.2,10.32c-3.06,2.4-5.28,3.48-6.96,3.48A2.047,2.047,0,0,1-16.2-8.88C-16.2-12.78-13.08-17.1-8.46-20.4ZM46.26-48a55.519,55.519,0,0,1-.48,6.84,126.822,126.822,0,0,0-1.44,14.94,38.387,38.387,0,0,0,1.8,12.18c.12.42.42.84.84.78,1.5-.18,4.08-.54,4.8-.72a.842.842,0,0,0,.78-.96,7.5,7.5,0,0,1,.3-1.8,49.122,49.122,0,0,1,3.54-7.68,2.827,2.827,0,0,0,.6-1.5,1.38,1.38,0,0,0-.36-.96,12.438,12.438,0,0,1-1.86-3.9c-1.62,3.06-2.88,5.34-4.2,7.68a60.613,60.613,0,0,1,.18-6.6c.36-3.12.84-7.38,1.68-11.46a6.924,6.924,0,0,1,1.08-2.82,1.374,1.374,0,0,0,.42-.96c0-.54-.36-.9-1.14-1.2A31.444,31.444,0,0,0,46.26-48Zm19.2.12a28.745,28.745,0,0,1,1.26,6.54c.42,3.84.72,10.08.72,14.34,0,9.48-1.56,14.4-5.04,19.14C60-4.68,57.06-2.52,52.2.18a13.922,13.922,0,0,1,5.1,2.76,1.739,1.739,0,0,0,1.26.66,2.079,2.079,0,0,0,1.2-.42,33.063,33.063,0,0,0,9.9-9.66c3.18-4.92,4.56-12.3,4.56-20.82,0-4.32-.42-9.78-.84-15.48a21.242,21.242,0,0,1,.12-2.76c.12-1.02,0-1.32-1.2-1.62A34.648,34.648,0,0,0,65.46-47.88ZM115.44-13.2c-2.82-.24-4.26-.24-5.76-.24-7.26,0-12,3.66-12,8.52,0,4.98,4.44,8.4,12.24,8.4,8.22,0,12.12-2.64,12.18-9.12A47.609,47.609,0,0,1,134.04,1.2a.92.92,0,0,0,.66.3.882.882,0,0,0,.78-.48,18.049,18.049,0,0,0,2.64-4.44c.18-.72.18-.9-.42-1.44a53.5,53.5,0,0,0-15.9-7.26c-.18-2.76-.3-5.7-.42-8.46a108.671,108.671,0,0,0,11.76-1.44c.66-.06.9-.24.9-.84,0-1.8-.12-3.78-.18-4.92-.06-.54-.24-.66-.96-.48-4.32.66-7.2,1.26-11.76,1.56,0-2.16-.06-4.38-.06-6.78a122.741,122.741,0,0,0,13.86-1.56c.48-.06.66-.18.66-.96a32.057,32.057,0,0,0-.3-4.38c-.06-.72-.3-.9-1.02-.72a100.962,100.962,0,0,1-13.14,1.8c.06-1.8.06-2.64.12-3.84a7.711,7.711,0,0,1,.9-2.88,1.223,1.223,0,0,0-.66-1.8,34.766,34.766,0,0,0-7.56-1.08,17.259,17.259,0,0,1,.72,4.02c.06,2.04.12,3.6.12,5.82a137.178,137.178,0,0,1-15.72-.6c.12,2.46.24,3.9.42,5.4.06.6.36.84,1.02.84a98.741,98.741,0,0,0,14.34.3c.06,2.28.06,4.62.12,6.9a84.42,84.42,0,0,1-13.5-.48,35.809,35.809,0,0,0,.36,5.1c.06.78.3,1.02.96,1.02a106.241,106.241,0,0,0,12.36.24C115.2-18.3,115.32-15.84,115.44-13.2Zm.12,5.7a5.758,5.758,0,0,1-.66,3.36c-.84,1.08-3.06,1.8-5.46,1.8-4.14,0-5.94-1.14-5.94-2.7,0-1.92,2.1-3.18,6.48-3.18A25.878,25.878,0,0,1,115.56-7.5Zm46.38-23.22c-2.22.36-5.1.9-6.78,1.14a57.422,57.422,0,0,1-6.42.6,23.574,23.574,0,0,0,1.68,6c.36.78.78,1.02,1.56.66a17.516,17.516,0,0,1,2.7-.9c2.28-.48,4.2-.84,7.26-1.26,0,6.36.12,11.4.42,14.64C163.08-1.98,166.62.54,178.74.54a137.961,137.961,0,0,0,15.06-.9c.54-.06.78-.36.78-1.08a36.894,36.894,0,0,0-.36-5.04c-.12-.72-.3-.84-1.2-.78a111.287,111.287,0,0,1-15.54,1.2c-7.32,0-8.64-.96-9-5.88-.24-3.42-.18-7.02-.12-13.56,4.62-.72,9.84-1.32,14.64-1.68-.06,2.34-.18,4.5-.42,6.36-.3,2.1-1.2,2.58-2.82,2.58a18.878,18.878,0,0,1-5.1-.72,14.565,14.565,0,0,1,1.32,5.4c0,1.08.24,1.5,1.2,1.56a27.018,27.018,0,0,0,3.72.18c4.5,0,7.2-1.98,7.86-6.66a92.268,92.268,0,0,0,.72-9.24c3.96-.3,7.98-.48,11.94-.48.66,0,.78-.06.78-.84a44.862,44.862,0,0,0,0-4.92c0-.54-.24-.6-.72-.6-3.24.12-6.84.3-11.7.66.06-2.82.12-5.16.24-8.4a10.357,10.357,0,0,1,.6-2.7,2.842,2.842,0,0,0,.36-1.2c0-.6-.3-.9-1.14-1.14a41.9,41.9,0,0,0-7.26-1.2,26.611,26.611,0,0,1,.78,6.84c0,2.22,0,5.46-.06,8.46-4.32.48-10.68,1.14-14.82,1.68.06-2.04.06-4.32.12-5.76a8.046,8.046,0,0,1,.6-2.64,3.337,3.337,0,0,0,.36-1.26,1.523,1.523,0,0,0-1.26-1.26,52.378,52.378,0,0,0-7.2-1.02,24.03,24.03,0,0,1,.84,6.36Zm59.7,10.38c3.3-5.4,6.54-11.7,10.38-19.08A15.639,15.639,0,0,1,233.88-42a1.874,1.874,0,0,0,.66-1.2,1.566,1.566,0,0,0-.84-1.26,34.762,34.762,0,0,0-6.72-3.36,36,36,0,0,1-3,8.76c-3.3,7.5-8.82,18.96-17.58,36.12a1.787,1.787,0,0,0-.3.84,1.045,1.045,0,0,0,.54.78,19.386,19.386,0,0,0,4.62,2.58c.78.24,1.08.12,1.44-.72,2.34-5.52,4.86-10.44,7.02-13.32,2.4-3.18,4.98-5.1,7.56-5.1,2.1,0,3.42,1.74,3.96,7.74.78,8.46,3.36,11.64,9.42,11.64A14.988,14.988,0,0,0,251.7-3.54a32.45,32.45,0,0,0,5.16-7.44A2.12,2.12,0,0,0,257.1-12a1.646,1.646,0,0,0-.66-1.26,14.555,14.555,0,0,1-3.48-4.98,29.7,29.7,0,0,1-6.06,9.78c-1.68,1.8-3.48,2.88-5.64,2.88-2.28,0-3-1.98-3.48-6.36-.66-5.76-2.28-11.34-8.76-11.34a11.905,11.905,0,0,0-7.32,3.06Zm57.9-13.2c-2.34.36-4.56.66-7.08.9-2.64.24-5.28.42-7.92.42a54.818,54.818,0,0,0,1.86,6.18,1.315,1.315,0,0,0,1.92.78,17.631,17.631,0,0,1,3.3-.96c1.62-.3,3.54-.66,5.88-1.02A126.515,126.515,0,0,1,266.52-3.72a1.117,1.117,0,0,0-.24.66,1.234,1.234,0,0,0,.48.9A27.286,27.286,0,0,0,270.9.48a.984.984,0,0,0,1.56-.54c4.68-8.4,8.1-16.68,12.06-28.2a39.745,39.745,0,0,1,5.04-.42c2.64,0,3.42,1.32,3.42,5.58a46.226,46.226,0,0,1-2.34,14.88c-.96,2.46-1.86,3.18-3.84,3.18a18,18,0,0,1-6.6-1.32,17.145,17.145,0,0,1,1.14,5.58A1.558,1.558,0,0,0,282.42.9a19.59,19.59,0,0,0,5.94.66c3.48,0,6.36-1.8,8.1-5.64,2.04-4.32,3.24-12.18,3.24-19.26,0-7.26-3.06-11.1-8.7-11.1a45.246,45.246,0,0,0-4.68.24c.78-2.52,1.38-4.74,2.16-7.2a7.591,7.591,0,0,1,1.2-2.28,1.25,1.25,0,0,0,.42-.9,1.263,1.263,0,0,0-.96-1.2,43.915,43.915,0,0,0-7.2-1.98,40.838,40.838,0,0,1-.6,6.66C280.92-39.06,280.5-36.96,279.54-33.54Zm21.36-.48c4.32,4.08,7.44,9.24,9.84,15.54.18.72.78.78,1.38.48a24.485,24.485,0,0,0,4.5-3,.859.859,0,0,0,.24-1.2,40.154,40.154,0,0,0-9.96-14.58c-.42-.42-.72-.54-1.14-.3A50.879,50.879,0,0,0,300.9-34.02Zm38.52.36c.36-5.46,3.36-8.64,8.1-8.64,4.44,0,7.26,2.58,7.26,6.66,0,3.06-1.14,5.16-5.46,9.48-4.26,4.26-5.52,6.96-5.52,12.9v1.44h6.18c.06-5.58.78-7.5,5.76-11.64,5.34-4.5,7.14-7.98,7.14-12.18,0-7.68-6.06-12.66-15.42-12.66-8.88,0-14.64,4.8-15.78,12.84ZM342.6-6V2.1h8.52V-6Z" transform="translate(985.814 1837.642)" fill="#575757"/><g transform="translate(611.978 1747.778) rotate(-72)"><g clip-path="url(#a)"><path d="M3.4,62.4a2.911,2.911,0,0,0,1.181-1.612,14.639,14.639,0,0,0-.044-2.152A5.751,5.751,0,0,1,8.082,53.7a4.131,4.131,0,0,1,5.268.979,7.535,7.535,0,0,0,3.922,2.249c1.654.414,2.931-.069,3.553-1.344a3.006,3.006,0,0,0-1.35-3.705,22.473,22.473,0,0,0-3.67-1.9,2.818,2.818,0,0,1-1.676-2.726c-.064-1.333.031-1.575,1.456-3.937.8,1.036,1.565,2.021,2.324,3A21.063,21.063,0,0,0,24.1,51.953a11.71,11.71,0,0,0,7.087,1.814,5.65,5.65,0,0,0,3.987-8.753,10.405,10.405,0,0,0-2.221-2.534c-4.182-3.458-8.762-5.916-14.235-6a7.8,7.8,0,0,1-1.492-.3c-1.3-4.462-.991-8.924.943-12.291a9.316,9.316,0,0,1,2.173-2.548,5.675,5.675,0,0,1,2.07-.634,7.148,7.148,0,0,1,.543,1.029C26.713,34.71,35.006,43.947,45.046,51.687a18.234,18.234,0,0,0,10.788,3.735c4.707.143,8.089-3.238,8.351-8.218.061-1.148.029-2.3.039-3.41a3.348,3.348,0,0,1,.513-.727c3.595-2.873,4.3-6.824,3.894-11.269a24.357,24.357,0,0,0-2.816-9.02A44.3,44.3,0,0,0,50.225,5.84,39.239,39.239,0,0,0,35.213.211C27.919-1.037,22.953,3.335,22.472,11.158c-.1,1.579-.167,3.159-.245,4.66a12.414,12.414,0,0,1-1.3.656c-4.347,1.515-6.584,4.938-7.684,9.43a20.625,20.625,0,0,0-.2,9.9,4.275,4.275,0,0,1-.725,4.05c-1.491,1.812-1.931,4.123-2.238,6.449-.108.82-.273,1.63-.414,2.446-.732.2-1.253.355-1.779.487C3.7,50.277,1.436,53.327.228,57.482a4.427,4.427,0,0,0,.919,4.431A1.786,1.786,0,0,0,3.4,62.4M31.275,46.848a2.411,2.411,0,0,1,.178,1.913,1.569,1.569,0,0,1-1.333.69,10.874,10.874,0,0,1-3.146-.642c-3.144-1.229-5.6-3.755-7.761-8.1a16.224,16.224,0,0,1,12.062,6.136m28.288,2.058a3.03,3.03,0,0,1-2.907,2.048,21.462,21.462,0,0,1-5.22-.846,18.176,18.176,0,0,1-4.776-2.439,55.21,55.21,0,0,1-16.7-18.219,26.481,26.481,0,0,1-3.321-8.679c.592-1.116,1.5-.919,2.213-.73a38.184,38.184,0,0,1,7.036,2.207A62.288,62.288,0,0,1,51.682,33.022c1.91,1.836,3.586,3.953,5.322,5.99a7.563,7.563,0,0,1,.743,1.789,7.2,7.2,0,0,1-2.183.087c-3.843-1.229-6.942-3.379-8.117-7.761-.148-.559-.293-1.12-.492-1.655a1.884,1.884,0,0,0-1.95-1.271,2.131,2.131,0,0,0-1.834,2.012,8.1,8.1,0,0,0,.41,2.539A15.338,15.338,0,0,0,56.139,45.179a19.8,19.8,0,0,0,3.2.051c1.161,1.256.769,2.5.225,3.677M26.748,8.938a6.06,6.06,0,0,1,5.747-4.711,13.65,13.65,0,0,1,3.277.174c12.2,2.441,21.356,9.325,27.11,21.069A16.661,16.661,0,0,1,64.8,34.687c-.2,1.857-.543,3.728-2.42,4.562-.245-.151-.4-.2-.475-.3-6.285-9.208-15.02-15.12-24.385-20.106a42.287,42.287,0,0,0-7.382-2.548c-1.155-.361-2.367-.519-3.661-.792a15.893,15.893,0,0,1,.275-6.561" transform="translate(0 0)" fill="#575757"/></g></g></g></svg>