<svg xmlns="http://www.w3.org/2000/svg" xmlns:xlink="http://www.w3.org/1999/xlink" viewBox="0 0 677.15 425.75"><defs><style>.cls-1,.cls-10,.cls-12,.cls-8{fill:#ffcd00;}.cls-1,.cls-12,.cls-15{stroke:#000;stroke-miterlimit:10;}.cls-1,.cls-15{stroke-width:3.24px;}.cls-2{fill:#77b5e2;}.cls-3{fill:#c2dbf1;}.cls-4{fill:#a6a6a6;}.cls-11,.cls-5{fill:#30ae35;}.cls-6,.cls-9{fill:#fff;}.cls-15,.cls-23,.cls-24,.cls-25,.cls-7{fill:none;}.cls-11,.cls-7,.cls-8,.cls-9{stroke:#211815;stroke-width:3.94px;}.cls-11,.cls-23,.cls-24,.cls-25,.cls-7,.cls-8,.cls-9{stroke-linecap:round;stroke-linejoin:round;}.cls-12{stroke-width:4px;}.cls-13{clip-path:url(#clip-path);}.cls-14{fill:#d3e6f4;}.cls-16{clip-path:url(#clip-path-2);}.cls-17{fill:#f1dfdb;}.cls-18{clip-path:url(#clip-path-3);}.cls-19{fill:#faf6d1;}.cls-20{clip-path:url(#clip-path-4);}.cls-21{fill:#eac7b4;}.cls-22{fill:#324a64;}.cls-23,.cls-24,.cls-25{stroke:#30ae35;stroke-width:4.08px;}.cls-24{stroke-dasharray:10.11 15.77;}.cls-25{stroke-dasharray:10.3 16.06;}</style><clipPath id="clip-path"><circle class="cls-1" cx="464.97" cy="204.51" r="47"/></clipPath><clipPath id="clip-path-2"><path class="cls-1" d="M258.19,203.55a47,47,0,1,1-47-47A46.94,46.94,0,0,1,258.19,203.55Z"/></clipPath><clipPath id="clip-path-3"><circle class="cls-1" cx="152.08" cy="321.33" r="47"/></clipPath><clipPath id="clip-path-4"><circle class="cls-1" cx="521.28" cy="321.33" r="47"/></clipPath></defs><g id="レイヤー_2" data-name="レイヤー 2"><g id="PC文字とイラスト"><path class="cls-2" d="M385.74,325.15c0,4.19-4.77,7.74-10.42,7.74s-10.41-3.55-10.41-7.74v-6.27a1.23,1.23,0,0,0,0-.27l-4.53-33.12h16.36l9,33.64Z"/><path class="cls-3" d="M356.38,285.49,361,319v6.14c0,4.19-4.76,7.74-10.41,7.74s-10.41-3.55-10.41-7.74v-6.29l-.2-33.37Z"/><path class="cls-2" d="M315.39,319l4.19-33.51H336l.2,33.4v6.26c0,4.19-4.77,7.74-10.41,7.74s-10.41-3.55-10.41-7.74Z"/><path class="cls-3" d="M315.45,286.73l-4,31.9a2,2,0,0,0,0,.25v6.27c0,4.19-4.77,7.74-10.41,7.74s-10.41-3.55-10.41-7.74v-6l8.61-33.63h16.37Z"/><path class="cls-2" d="M265.86,319.24l13.07-33.75h16.24l-8.42,32.9a2,2,0,0,0-.06.49v6.27c0,4.19-4.77,7.74-10.41,7.74s-10.42-3.55-10.42-7.74Z"/><polygon points="282.66 398.27 282.66 393.94 285.15 393.94 312.57 393.94 315.07 393.94 315.07 398.27 282.66 398.27"/><path class="cls-4" d="M310.61,390H287.12V361.72a11.45,11.45,0,0,1,11.43-11.43h.63a11.45,11.45,0,0,1,11.43,11.43Z"/><path class="cls-5" d="M352.22,393.73a10.26,10.26,0,0,1,18.72-5.82,2.2,2.2,0,0,0,.22.53,10,10,0,0,1,.38,9.83H353.28A10.19,10.19,0,0,1,352.22,393.73Z"/><path class="cls-5" d="M375.92,398.27a14.24,14.24,0,0,0,.78-4.54,14,14,0,0,0-1.49-6.28,10.16,10.16,0,0,1,8.11-4,10.25,10.25,0,0,1,9.2,14.81Z"/><path class="cls-6" d="M404.4,398.27h-7.66a13.94,13.94,0,0,0,.79-4.54,14.23,14.23,0,0,0-14.21-14.21,14,14,0,0,0-10.41,4.59,14.18,14.18,0,0,0-24.63,9.62,13.93,13.93,0,0,0,.78,4.54H319V392a2,2,0,0,0-2-2h-2.5V361.72a15.38,15.38,0,0,0-15.36-15.36h-.63a15.38,15.38,0,0,0-15.36,15.36V390h-2.5a2,2,0,0,0-2,2v6.29H271.5V336.15a17.25,17.25,0,0,0,4.78.68c5.28,0,9.89-2.34,12.38-5.81,2.49,3.47,7.1,5.81,12.38,5.81s9.89-2.34,12.38-5.81c2.49,3.47,7.1,5.81,12.38,5.81s9.89-2.34,12.38-5.81c2.49,3.47,7.1,5.81,12.38,5.81s9.89-2.34,12.38-5.81a15.21,15.21,0,0,0,12.38,5.81c5.28,0,9.89-2.34,12.38-5.81a15.21,15.21,0,0,0,12.39,5.81,17.31,17.31,0,0,0,4.31-.54Z"/><path class="cls-3" d="M410.5,325.15c0,4.19-4.77,7.74-10.41,7.74s-10.42-3.55-10.42-7.74v-6.27a2.1,2.1,0,0,0-.06-.51l-8.81-32.88H397l13.47,33.76Z"/><path class="cls-2" d="M422.39,384.91c-4.38,0-6.9-4.84-6.9-13.27,0-11.82,4.3-22.19,6.9-22.19s6.91,10.37,6.91,22.19C429.3,380.07,426.78,384.91,422.39,384.91Z"/><path class="cls-2" d="M440.14,384.91c-4.39,0-6.9-4.84-6.9-13.27,0-11.82,4.3-22.19,6.9-22.19s6.9,10.37,6.9,22.19C447,380.07,444.53,384.91,440.14,384.91Z"/><polyline class="cls-7" points="406.37 333.85 406.37 400.24 269.53 400.24 269.53 333.85"/><path class="cls-8" d="M298.55,348.33h.63a13.39,13.39,0,0,1,13.39,13.39V392a0,0,0,0,1,0,0H285.15a0,0,0,0,1,0,0V361.72a13.39,13.39,0,0,1,13.39-13.39Z"/><rect class="cls-9" x="280.69" y="391.98" width="36.35" height="8.27"/><line class="cls-7" x1="292.08" y1="369.62" x2="292.08" y2="375.75"/><rect class="cls-10" x="375.12" y="348.33" width="20.09" height="22.95"/><rect class="cls-10" x="351.68" y="348.33" width="20.09" height="22.95"/><rect class="cls-10" x="328.24" y="348.33" width="20.09" height="22.95"/><path class="cls-7" d="M372.84,400.24a12.24,12.24,0,1,0-20.71,0Z"/><path class="cls-7" d="M374.61,393.73a12.1,12.1,0,0,0-1.77-6.31,12.23,12.23,0,1,1,20.83,12.82H373a2.25,2.25,0,0,0-.12-.21A12.16,12.16,0,0,0,374.61,393.73Z"/><path class="cls-9" d="M288.66,318.88v6.27c0,5.34-5.57,9.71-12.38,9.71h0c-6.81,0-12.38-4.37-12.38-9.71v-6.27h0l13.69-35.36h20.13l-9,35.36Z"/><path class="cls-11" d="M288.66,318.88l9-35.36h20.13l-4.42,35.36h0v6.27c0,5.34-5.57,9.71-12.38,9.71h0c-6.81,0-12.38-4.37-12.38-9.71v-6.27Z"/><path class="cls-9" d="M313.42,318.88l4.42-35.36H338l.21,35.36h0v6.27c0,5.34-5.57,9.71-12.38,9.71h0c-6.81,0-12.38-4.37-12.38-9.71v-6.27Z"/><path class="cls-11" d="M338.18,318.88,338,283.52H358.1l4.84,35.36h0v6.27c0,5.34-5.57,9.71-12.38,9.71h0c-6.81,0-12.38-4.37-12.38-9.71v-6.27Z"/><path class="cls-9" d="M362.94,318.88l-4.84-35.36h20.13l9.47,35.36h0v6.27c0,5.34-5.58,9.71-12.39,9.71h0c-6.81,0-12.38-4.37-12.38-9.71v-6.27Z"/><path class="cls-11" d="M387.7,318.88l-9.47-35.36h20.13l14.11,35.36v6.27c0,5.34-5.57,9.71-12.38,9.71h0c-6.81,0-12.38-4.37-12.38-9.71v-6.27Z"/><path class="cls-11" d="M449,371.64c0,10.88-4,15.24-8.87,15.24s-8.87-4.36-8.87-15.24,4-24.16,8.87-24.16S449,360.76,449,371.64Z"/><line class="cls-7" x1="440.14" y1="400.24" x2="440.14" y2="386.88"/><path class="cls-11" d="M431.27,371.64c0,10.88-4,15.24-8.88,15.24s-8.87-4.36-8.87-15.24,4-24.16,8.87-24.16S431.27,360.76,431.27,371.64Z"/><line class="cls-7" x1="422.39" y1="400.24" x2="422.39" y2="386.88"/><rect class="cls-7" x="286.75" y="244.45" width="102.42" height="38.57"/><path d="M314.2,269.65c0,4.37-3.15,7-8.63,7a16.21,16.21,0,0,1-7.18-1.69c-.43-.25-.61-.41-.61-.68a1.66,1.66,0,0,1,.18-.62l1.39-3c.18-.4.31-.61.49-.61a1.45,1.45,0,0,1,.62.3,9.73,9.73,0,0,0,5.45,1.73c1.85,0,3-.71,3-1.88,0-1.35-1.88-2.16-4.41-3.11-2.89-1.11-6.25-2.8-6.25-6.78,0-4.34,3.42-6.81,8.69-6.81a15,15,0,0,1,6.13,1.33c.43.21.64.37.64.65a1.9,1.9,0,0,1-.15.58l-1.26,3.27c-.19.43-.31.64-.53.64a1.18,1.18,0,0,1-.58-.27,9.76,9.76,0,0,0-4.75-1.33c-2.12,0-2.89.8-2.89,1.73,0,1.14,1.63,1.88,3.54,2.61C310.38,264,314.2,265.58,314.2,269.65Z"/><path d="M321.86,270.23c0,1.64.09,5.18.09,5.39,0,.65-.18.77-.89.77h-3.63c-.71,0-.9-.12-.9-.77,0-.21.09-3.75.09-5.39V259.85c0-1.63-.09-5.17-.09-5.39,0-.65.19-.77.9-.77h3.63c.71,0,.89.12.89.77,0,.22-.09,3.76-.09,5.39V261c0,.77.16.93.93.93h7.39c.77,0,.93-.16.93-.93v-1.17c0-1.63-.1-5.17-.1-5.39,0-.65.19-.77.9-.77h3.63c.71,0,.9.12.9.77,0,.22-.1,3.76-.1,5.39v10.38c0,1.64.1,5.18.1,5.39,0,.65-.19.77-.9.77h-3.63c-.71,0-.9-.12-.9-.77,0-.21.1-3.75.1-5.39v-2.55c0-.77-.16-.93-.93-.93h-7.39c-.77,0-.93.16-.93.93Z"/><path d="M361.57,264.84c0,7.52-5.33,11.74-11.62,11.74-7.54,0-11.06-6.07-11.06-11.43,0-7.33,5.06-11.65,11.59-11.65C358.12,253.5,361.57,259.51,361.57,264.84Zm-17.32.34c0,3.14,1.67,6.5,5.92,6.5,3.42,0,6-2.46,6-6.5,0-3.05-1.7-6.5-5.92-6.5C346.69,258.68,344.25,261.3,344.25,265.18Z"/><path d="M364.92,276.39c-.71,0-.89-.12-.89-.77,0-.21.09-3.75.09-5.39V259.76c0-1.63-.09-5-.09-5.27,0-.65.21-.86.86-.86.21,0,2.93.06,4.34.06h4c4.71,0,7.61,2.34,7.61,7,0,5-2.93,8.41-9,8.41h-1.69c-.77,0-.93.16-.93.93,0,1.88.1,5.39.1,5.6,0,.65-.19.77-.9.77Zm4.34-12.6c0,.77.16.93.93.93h1.66c2.34,0,3.76-1.2,3.76-3.54,0-1.85-1-2.9-3.24-2.9h-2.18c-.77,0-.93.15-.93.92Z"/><line class="cls-12" x1="267.51" y1="274.55" x2="232.02" y2="239.06"/><line class="cls-12" x1="412.51" y1="273.55" x2="449.49" y2="227.6"/><circle class="cls-10" cx="464.97" cy="204.51" r="47"/><g class="cls-13"><g id="黒髪_セーター" data-name="黒髪×セーター"><path id="白" class="cls-6" d="M462.36,180c-2,5.1-14.38,13.36-18.39,15.54l.21,3.76c-4.9-3.31-8.59,4.87-4.32,8,2.34,1.42,5.16,1.37,6.15,4,1.42,4.49,4.27,7,7.05,10l-.83,2.93c-2.2-1.41-1.46.68-3.25,2.53-1.47,1.48-.85,1.54-2.53,2.32s-8.6,5.06-11.61,7-3.45,1.71-4.92,3.67c-5.11,7.74-4.4,24.14-7.75,32.42h85.38c0-5.39-3.57-21.88-6.08-29-1.64-4.71-.48-3.69-3.48-5.64s-9.5-5.67-12.09-7-3.72-1-4.27-2.56a45.76,45.76,0,0,0-2.05-4.44l-2.52,1.41-.42-3.87c7.11-4,5.45-10.13,8.81-12.13.69-.2,3.66-.54,4.68-2,1.88-1.92,2.19-5.92.34-7.51-.92-.68-5.56,0-5.56,0l.06-3.34s-4.57-6.7-5-7.62-3.55-8.4-3.55-8.4l-2.12.07c-1.34,2-9.57,7.52-11.47,7.75.4-.67,3.88-6.56,1.54-8Z"/><path id="セーター" class="cls-14" d="M500.47,251.77c-1.32-12.72-9.48-14.77-20.08-20.41-4.06,5.76-12.19,9.07-19,6.55-10.11-1.15-10.32-13-18.46-6.42-20.4,6.91-15.48,25.11-20.37,40.77h82S501.25,255,500.47,251.77Z"/><g id="アウトライン"><path d="M508.47,271a51,51,0,0,1-1.78-7.49c-1.07-5.27-1.29-10.69-2.71-15.88-1-3.57-2-7.15-4.7-10-1.56-1.61-3.63-2.26-5.37-3.46-3.47-2.39-7.34-4-11-6a1.38,1.38,0,0,0-.34-1,10,10,0,0,1-1.44-2.56c-.77-2-.77-2.39-2.93-1.15a22.78,22.78,0,0,1-.33-3.1,10.64,10.64,0,0,1-2,1.42,16.34,16.34,0,0,0,.41,3.05,33.76,33.76,0,0,1-5.74,3c-1.25.53-2.52,1-3.77,1.56-.85.37-1.64,1.64-1.27,2.09,1.32,1.6,2.68,3.17,4.06,4.72a.84.84,0,0,0,1.23.08.89.89,0,0,0,.15-1.23,7.49,7.49,0,0,0-.71-.89c-.84-1-1.7-1.92-2.71-3.05a44.48,44.48,0,0,0,11.61-6.24c.31.73.54,1.33.83,1.89l.28.5a.78.78,0,0,0-.32.39.67.67,0,0,0,.19.77,5.67,5.67,0,0,0,.84.7,69,69,0,0,0,7.84,4.37c2,1.07,3.7,2.64,5.81,3.51a9.85,9.85,0,0,1,5.32,5.4,35,35,0,0,1,2.74,9.4c.68,5.58,1.68,11.1,2.65,16.63a15.57,15.57,0,0,0,1.24,3.63,1.08,1.08,0,0,0,1.3.65,1.15,1.15,0,0,0,.83-1.26C508.58,271.34,508.54,271.14,508.47,271Z"/><path d="M449.94,227.77a14.16,14.16,0,0,0,.93-1.87c.13-.3.13-.67.55-.89a33.18,33.18,0,0,0,5.42,3.45c1.92.95,3.91,1.78,6,2.73-1.06,1.2-2,2.29-3,3.4-.43.5-.86,1.11-.22,1.68s1.19.1,1.63-.41c1.18-1.37,2.35-2.76,3.53-4.14a.73.73,0,0,0,.1-1,3.34,3.34,0,0,0-1.93-1.6,51.28,51.28,0,0,1-8.5-4,7.73,7.73,0,0,1-.83-.58,16.29,16.29,0,0,0,.32-2.76,9,9,0,0,1-1.95-1.54c-.07,1-.17,2-.32,2.95l-.11,0c-1.2-.54-1.44-.48-2,.76a15.72,15.72,0,0,1-1.81,3.38,1.75,1.75,0,0,0-.29.58c-.88.46-1.75.94-2.65,1.36-3.63,1.7-7,3.92-10.54,5.73a13.42,13.42,0,0,0-6.51,6.74,34.75,34.75,0,0,0-2.74,9.15c-.74,5.57-1.69,11.1-2.69,16.62-.22,1.23-.72,2.81-1.05,4a1.11,1.11,0,0,0,.75,1.11c.53.19,1.08-.41,1.35-.86a3.68,3.68,0,0,0,.52-1.05c1.16-3.88,1.64-8.31,2.3-12.29.85-5.1,1.32-10.25,3.31-15.11a10.18,10.18,0,0,1,4.26-5.42c2.39-1.3,4.62-2.83,7-4.16,2.81-1.58,5.83-2.83,8.43-4.79C449.61,228.61,450.12,228.3,449.94,227.77Z"/><path d="M497,251.06c0-1.29,0-2.59-.07-3.88,0-.4-.15-.83-.68-.84s-.64.33-.72.7a12.13,12.13,0,0,0-.28,1.67c-.6,7.45-.75,14.92-1.19,22.37-.06.85,0,1.75,1.13,1.79s1.23-.86,1.26-1.72q.31-8.72.62-17.42H497C497,252.83,497.05,252,497,251.06Z"/><path d="M435,257.45a90.51,90.51,0,0,0-.72-10c-.08-.53-.18-1.15-.88-1.08s-.61.67-.61,1.15c0,2.18,0,4.36,0,6.54h-.1q.32,8.54.61,17.07c0,.91.17,1.84,1.33,1.74s1.1-1,1.06-1.86C435.48,266.48,435.3,262,435,257.45Z"/><path d="M481.11,229.9a.76.76,0,0,0-1,.2c-.39.37-.73.77-1.1,1.15A22.91,22.91,0,0,1,467.13,238a9.52,9.52,0,0,1-4.5-.12,23.58,23.58,0,0,1-11.69-7.05c-.45-.49-.95-1.48-1.69-.84s.11,1.31.51,1.85a21.2,21.2,0,0,0,4.87,4.39,19.45,19.45,0,0,0,10.55,3.63,10.92,10.92,0,0,0,3.18-.31,24.07,24.07,0,0,0,10.59-5.9,12.29,12.29,0,0,0,2.24-2.69A.76.76,0,0,0,481.11,229.9Z"/><path d="M492.51,202.1a4.37,4.37,0,0,0-2.14-3.48l0-.2c.12-.92.21-1.84.35-2.75a47,47,0,0,0,.24-9.77,18.15,18.15,0,0,0-3.72-9.62c-2-2.76-4.52-4.9-8.1-5.33-.49-.06-.69-.39-.93-.71a9.57,9.57,0,0,0-2.94-2.83,17.17,17.17,0,0,0-6.91-2.17,26.18,26.18,0,0,0-17.72,4.8,28,28,0,0,0-9.91,13.08,23,23,0,0,0-1.19,14,3.12,3.12,0,0,0,.5,1.23c-1.8.55-2.82,2.26-2.87,5.24a6.43,6.43,0,0,0,3.05,4.9,10.67,10.67,0,0,0,3.55,1.4,1.41,1.41,0,0,1,1.18,1.13,18.87,18.87,0,0,0,2.24,5.13,23.83,23.83,0,0,0,12.56,9.51c2.36.79,4.72,1.53,7.36.84a30.83,30.83,0,0,0,8.06-3.31,20.11,20.11,0,0,0,9.09-10.87c.5-1.45,1-2.61,2.74-2.75a4.73,4.73,0,0,0,1.56-.59A6.7,6.7,0,0,0,492.51,202.1Zm-4.32,5a11.14,11.14,0,0,1-3.25,1.19,1.91,1.91,0,0,0-1.41,1.3,27.65,27.65,0,0,1-2.3,5.12,22.33,22.33,0,0,1-12,9.23c-1.62.54-3.28,1.2-5,.88-8-1.5-14.05-5.6-17.17-13.29-.8-2-1.67-3.4-4-3.81a4.72,4.72,0,0,1-3.77-3.63,3.48,3.48,0,0,1,.56-3.4,2.49,2.49,0,0,1,2.88-.53c.18.06.37.15.55.2a2.92,2.92,0,0,1,.06.44,7.65,7.65,0,0,0,.34,2.19c.24.71.6,1.54,1.61,1.36s1.17-1,1-1.88c-.25-1.61-.45-3.23-.69-4.84A2,2,0,0,1,447,195.3a43.3,43.3,0,0,0,15.22-11.5c.54-.62,1-1.3,1.52-2,.28,2.83-1.7,4.9-2.29,7.56,5.7-.85,9.87-4.21,13.74-8,.83.34.94,1.06,1.21,1.64,1.4,3,2.24,6.22,4.07,9,.94,1.41,2,2.75,3.06,4.09a2.82,2.82,0,0,1,.67,2.47c-.21,1-.36,2-.59,3.05a2.54,2.54,0,0,0,.44,2.1,1.4,1.4,0,0,0,1.22.65c.55,0,.67-.45.85-.88a16.84,16.84,0,0,0,.76-2.89,3.44,3.44,0,0,1,.11-.41,3.43,3.43,0,0,1,.38-.13,2.42,2.42,0,0,1,3.27,2.29A4.75,4.75,0,0,1,488.19,207.11Z"/><path d="M468.17,213.05a8.44,8.44,0,0,1-6.72,0c-.44-.16-.95-.68-1.3,0s.22,1.05.73,1.36a10.43,10.43,0,0,0,4.1,1,9,9,0,0,0,3.9-.91c.51-.31,1.1-.66.71-1.35S468.66,212.82,468.17,213.05Z"/><path d="M464.93,216.69c-.59,0-1.43-.15-1.45.73s.78.91,1.46,1,1.29-.06,1.33-.79S465.6,216.66,464.93,216.69Z"/><path d="M463.92,208.27a5.36,5.36,0,0,0,.69.06h.25a2,2,0,0,0,.69-.11c.33-.13.49-.31.44-.5a.66.66,0,0,0-.29-.28l0,0a2.72,2.72,0,0,0-.37-.2l-.26-.1a1.34,1.34,0,0,1-.32-.14,1,1,0,0,1-.43-.4.64.64,0,0,1-.13-.37,1.31,1.31,0,0,1,.18-.6,5,5,0,0,0,.27-.62,1.62,1.62,0,0,0,.19-1.27.62.62,0,0,0-.55-.38c-.25,0-.35.18-.44.33l-.37.62c-.11.17-.21.34-.31.52s-.15.29-.22.44-.13.25-.19.37l0,0a2.62,2.62,0,0,0-.32.79,1.45,1.45,0,0,0,.37,1.21A2,2,0,0,0,463.92,208.27Z"/><path d="M456.67,199.52a2.19,2.19,0,0,0-3.41.09,1.8,1.8,0,0,0,.17,1.91l0,0,0,0a2.68,2.68,0,0,0,1.52.5h0a1.92,1.92,0,0,0,1.91-1.79v-.06l-.25-.7Z"/><path d="M474.74,198.75a2,2,0,0,0-1.67.77l0,0-.24.7v.06a1.91,1.91,0,0,0,1.91,1.79h0a2.73,2.73,0,0,0,1.52-.5l0,0,0,0a1.81,1.81,0,0,0,.18-1.91A2,2,0,0,0,474.74,198.75Z"/><path d="M452.49,194.72a.78.78,0,0,0-.07.94.7.7,0,0,0,.83.3,3.44,3.44,0,0,1,2.68-.13c.58,0,.93-.18,1.07-.52a.79.79,0,0,0-.22-.92C455.9,193.51,453.21,193.71,452.49,194.72Z"/><path d="M477.06,194.53a3,3,0,0,0-2.09-.69,3.17,3.17,0,0,0-1.62.3c-.49.23-.82.58-.62,1.12a.91.91,0,0,0,1.22.53,3.15,3.15,0,0,1,2.28.1.8.8,0,0,0,1.11-.28A.8.8,0,0,0,477.06,194.53Z"/></g></g></g><circle class="cls-15" cx="464.97" cy="204.51" r="47"/><path class="cls-10" d="M258.19,203.55a47,47,0,1,1-47-47A46.94,46.94,0,0,1,258.19,203.55Z"/><g class="cls-16"><g id="ポニーテール_ブラウス" data-name="ポニーテール×ブラウス"><path id="白-2" data-name="白" class="cls-6" d="M210,173c-9.95-2.87-24.09,11.9-23.63,21.91.25,4.24-.71,6.71,0,8.39s1.14,1.6.42,2.2c-1.59,1.38-1.7,2.62-.81,4.82s3.9,2.06,3.88,2.91c-.14.38-.61.63.32,1.37.9,1,2.31.31,2.86.17.54,1.33,3.69,7.3,5.6,8.24a5.09,5.09,0,0,1,1.59,1.44s-.88,4.54-.86,4.46a3.82,3.82,0,0,0-1.29-.19c-.17.05-1.9,2.88-1.9,2.88-2.33.79-12,7-14.27,8.41a7,7,0,0,0-2.41,2.29c-3.14,6.59-5,24.24-5,29.81h73.17c-1.2-5.23-2.11-29.37-7.08-31.77-2.07-1.09-5.12-1.94-6-4.27-2.54-6.53,1.22-15.27-3.83-20.95.16,0,1.2-1.91.92-2.1,1-.52,4.17-1.57,4.5-3.32.07-1-.05-3.46-.74-4.19s-.65,0-.34-1.78c1.08-5.58-.07-16.86-4.34-21.45-.64-.95-3.15-5.08-6.24-6.64a30.35,30.35,0,0,0-8-2.75C214.13,172.5,211.38,173.34,210,173Z"/><path id="塗り" class="cls-17" d="M242.19,250.69c-.71-5.38-1.56-7.49-5.26-9.73-1.46-1.09-13.46-8.19-13.46-8.19l-1.5-2.46-.05.05a.63.63,0,0,0-1.08.24c-17,7.71-22.82-5.29-23.59.05l-1.31,2.29c-3.2,1.8-10.26,4.82-14,7-7.18,2.82-6.84,27-7.65,32.1H245S242.77,254.28,242.19,250.69Z"/><g id="アウトライン-2" data-name="アウトライン"><path d="M224.94,228.61c-.35-.82-.69-1.52-1.71-.92-.62-1.05-.57-2.22-.88-3.41-.41.23-.8.48-1.19.74a10.29,10.29,0,0,0,.66,3.9,19.94,19.94,0,0,1-21.72,0,13.86,13.86,0,0,0,.71-3.6,9.29,9.29,0,0,1-1.31-.95,12.85,12.85,0,0,1-.83,3.41c-.55-.3-1.09-.42-1.43.27-.45.9-.92,1.78-1.37,2.69-.23.49-.4,1.05.19,1.38s1.06,0,1.42-.53.43-1.28,1-1.76a22.6,22.6,0,0,0,12.62,4.11,23.08,23.08,0,0,0,12.51-4.14c.34.7.59,1.29.91,1.84a1,1,0,0,0,1.33.51c.62-.31.5-.86.25-1.36C225.7,230,225.26,229.34,224.94,228.61Z"/><path d="M247,257.73c-.72-4.85-1.34-9.73-3-14.38a6.27,6.27,0,0,0-.91-1.83c-.34-.4-.77-.68-1.26-.33s-.31.78-.07,1.18a8.61,8.61,0,0,1,.91,2.36,121.63,121.63,0,0,1,3,18.07c.29,2.88.63,5.76.95,8.63.08.67.35,1.22,1.13,1.12s.85-.65.83-1.27C248,266.76,247.66,262.22,247,257.73Z"/><path d="M180.13,241.19c-.69-.43-1.13.11-1.47.64a10.36,10.36,0,0,0-1.11,2.79c-2.53,8.67-3.13,17.64-4.14,26.66,0,.72.25,1.23.83,1.27.78.06,1-.46,1.14-1.12.06-.44.16-.87.2-1.31.55-6.09,1.15-12.18,2.21-18.21a39.56,39.56,0,0,1,2.32-9.34C180.32,242.1,180.74,241.57,180.13,241.19Z"/><path d="M221.85,233.56a6.48,6.48,0,0,0-.64.34,19,19,0,0,1-12.64,2.63,16.34,16.34,0,0,1-7.95-2.66c-.39-.27-.94-.77-1.37-.19s.21.86.54,1.19a8.28,8.28,0,0,0,3,1.92,18.42,18.42,0,0,0,8.09,1.38,19,19,0,0,0,8.89-1.7,7.86,7.86,0,0,0,2.7-2c.21-.24.42-.54.12-.86S222.12,233.43,221.85,233.56Z"/><path d="M240.56,239.38c-4-2.41-7.81-5.1-11.88-7.38-.31-.18-.65-.3-.92-.43-.37.06-.66.11-.76.42a.81.81,0,0,0,.3.86,20,20,0,0,0,3.41,2.47c2.9,1.9,5.82,3.74,8.75,5.59.53.33,1.16.54,1.6-.13S241.09,239.7,240.56,239.38Z"/><path d="M194.24,231.62a3,3,0,0,0-1,.37c-4.08,2.29-7.9,5-11.89,7.38-.54.32-.87.8-.51,1.41s1,.49,1.48.19c1.11-.65,2.21-1.32,3.29-2q4-2.64,8.06-5.31a2.73,2.73,0,0,0,1.27-1.37C194.93,231.79,194.65,231.56,194.24,231.62Z"/><path d="M185.57,254.17c0-2.18.19-4.77,0-7.36,0-.51-.1-1.13-.78-1.12s-.61.61-.65,1.07c-.11,1.41-.21,2.82-.32,4.23a84,84,0,0,0,0,16.09c.17,1.56.54,3.09.83,4.63.12.61.46,1.05,1.12,1s.87-.61.84-1.22a5.43,5.43,0,0,0-.08-.82A61.2,61.2,0,0,1,185.57,254.17Z"/><path d="M236.94,245.7c-.74,0-.73.69-.8,1.23,0,.2,0,.39,0,.59,0,2.83,0,5.65.16,8.47a53.77,53.77,0,0,1-.07,7.29c-.24,2.66-.57,5.3-1,7.93-.12.65,0,1.34.81,1.45s1-.52,1.18-1.18a64.6,64.6,0,0,0,1.2-12.76c-.24-3.63-.5-7.74-.78-11.85C237.56,246.39,237.65,245.7,236.94,245.7Z"/><path d="M208.25,240.39a21.28,21.28,0,0,0-.75,2.59c-.22.87-.41,1.75-.58,2.64s-.31,1.72-.43,2.58a15.54,15.54,0,0,0-.28,2.8c0,.75,1.19,1,1.37.18s.19-1.77.29-2.64.23-1.76.38-2.64.32-1.72.51-2.57.46-1.74.63-2.63A.59.59,0,0,0,208.25,240.39Z"/><path d="M214.72,246.32c-.13-.62-.28-1.25-.45-1.87a26,26,0,0,0-1.32-3.71c-.25-.53-1.1-.15-.94.4.35,1.21.69,2.43,1,3.67q.2.9.36,1.83c0,.3.1.61.14.92a1.5,1.5,0,0,0,.34,1,.67.67,0,0,0,1-.13,1.63,1.63,0,0,0,0-1.19C214.84,246.93,214.78,246.63,214.72,246.32Z"/><path d="M214.09,216.6a7.82,7.82,0,0,1-6.22,0c-.41-.15-.89-.62-1.21,0s.2,1,.68,1.26a9.78,9.78,0,0,0,3.79.89,8.29,8.29,0,0,0,3.62-.84c.47-.29,1-.61.65-1.26S214.55,216.39,214.09,216.6Z"/><path d="M211.09,220c-.55,0-1.33-.14-1.35.68s.73.84,1.36.88,1.19-.06,1.23-.74S211.71,219.94,211.09,220Z"/><path d="M210.76,209.15a1.18,1.18,0,0,0,.18-1.06.59.59,0,0,0-.52-.31.49.49,0,0,0-.43.27l-.36.5-.29.42-.21.36-.2.32a2,2,0,0,0-.31.66,1.08,1.08,0,0,0,.36,1,2.16,2.16,0,0,0,1.12.5c.22,0,.44,0,.66.05H211a2.06,2.06,0,0,0,.66-.09c.33-.1.48-.26.43-.43a.55.55,0,0,0-.28-.23l0,0a2.84,2.84,0,0,0-.36-.17l-.25-.08a1.33,1.33,0,0,1-.3-.11,1.11,1.11,0,0,1-.41-.32.48.48,0,0,1-.12-.29,1,1,0,0,1,.17-.47A4.66,4.66,0,0,0,210.76,209.15Z"/><path d="M220.17,203.27a1.91,1.91,0,0,0-1.56.71l0,0-.23.65v.06a1.78,1.78,0,0,0,1.78,1.65h0a2.49,2.49,0,0,0,1.41-.46l.05,0,0,0a1.62,1.62,0,0,0,.16-1.76A1.87,1.87,0,0,0,220.17,203.27Z"/><path d="M203.46,204a1.91,1.91,0,0,0-1.56-.71,1.87,1.87,0,0,0-1.63.8,1.62,1.62,0,0,0,.16,1.76l0,0,0,0a2.54,2.54,0,0,0,1.41.46h0a1.77,1.77,0,0,0,1.78-1.65v-.06l-.23-.65Z"/><path d="M203.27,198.71a5.84,5.84,0,0,0-.81-.17,5.11,5.11,0,0,0-2.9.5.81.81,0,0,0-.38.91.89.89,0,0,0,.67.73.59.59,0,0,0,.36-.07,4,4,0,0,1,2.29-.44,5.32,5.32,0,0,1,.67.14l.09,0a.57.57,0,0,0,.43-.12.74.74,0,0,0,.3-.52A1,1,0,0,0,203.27,198.71Z"/><path d="M222.52,199a5.11,5.11,0,0,0-2.9-.5,5.39,5.39,0,0,0-.8.16,1,1,0,0,0-.73,1,.74.74,0,0,0,.3.52.67.67,0,0,0,.43.12l.09,0a4.21,4.21,0,0,1,.67-.14,3.87,3.87,0,0,1,2.29.44.68.68,0,0,0,.36.07.89.89,0,0,0,.67-.73A.79.79,0,0,0,222.52,199Z"/><path d="M208.19,192.13a41.38,41.38,0,0,0,2.9-4.16c.73-1.13,1.47-2.3,2.3-3.39a21,21,0,0,1,1.46-1.73.88.88,0,0,0,.35-.73.52.52,0,0,0-.33-.39,1.16,1.16,0,0,0-.47-.09,1.2,1.2,0,0,0-.2,0,4.38,4.38,0,0,0-2.37,1.69,31,31,0,0,0-2.58,3.9c-.62,1.05-1.26,2.12-2,3.12-1.61,2.21-3.27,3.5-5.08,3.93l-.75.17a10.42,10.42,0,0,0-1.64.43,5.79,5.79,0,0,0-.68.29,7,7,0,0,0,.77-3c.05-.41.09-.76.15-1a34.33,34.33,0,0,1,1.68-5.11c.14-.38.29-.75.43-1.13a.87.87,0,0,0,0-.87.54.54,0,0,0-.42-.17.79.79,0,0,0-.3.08,1.46,1.46,0,0,0-.5.52,21.29,21.29,0,0,0-2.66,6.24c-.12.42-.24.83-.35,1.25a36.78,36.78,0,0,1-1.74,5.19,11.06,11.06,0,0,1-4.22,5.15l-.15.09a2.88,2.88,0,0,0-.89.7,1,1,0,0,0,0,1.25.75.75,0,0,0,.54.17,1.9,1.9,0,0,0,.87-.28,12.82,12.82,0,0,0,4-3.5,12.34,12.34,0,0,0,1.39-2.34,4.85,4.85,0,0,0,.32-1,4.17,4.17,0,0,1,.47-1.28,1,1,0,0,0,.31.51.94.94,0,0,0,.62.15h.2A12.2,12.2,0,0,0,208.19,192.13Z"/><path d="M234.43,226.86c.12-3.2.16-6.48-1.35-9.4a11.82,11.82,0,0,0-1.47-2.19,1.15,1.15,0,0,1-.14-.17,2.2,2.2,0,0,0,.47-.64,1.85,1.85,0,0,0,.17-.61,1.42,1.42,0,0,0,0-.29,15.25,15.25,0,0,0,2.09-.56,5.87,5.87,0,0,0,2.82-6.45,3.38,3.38,0,0,0-1.35-1.83,29.22,29.22,0,0,0-2.95-21.31,26.21,26.21,0,0,0-7.67-8A18.84,18.84,0,0,0,214.68,172a15.25,15.25,0,0,0-3.81.49,15,15,0,0,0-3.82-.5,18.68,18.68,0,0,0-11,3.93,27.55,27.55,0,0,0-7.76,9c-2.95,6-3.8,14-2.14,19.78a3.28,3.28,0,0,0-1.45,1.89,5.87,5.87,0,0,0,2.82,6.45,11.52,11.52,0,0,0,1.48.43,2.52,2.52,0,0,0,1.67,2.32,2.24,2.24,0,0,0,1.91-.32v0c.11.33.23.66.36,1a19.38,19.38,0,0,0,.85,1.86c.32.59.67,1.17,1,1.73a17.55,17.55,0,0,0,1.23,1.61,18.08,18.08,0,0,0,1.42,1.48,18.84,18.84,0,0,0,1.6,1.36c.57.44,1.17.85,1.78,1.24s1.29.76,2,1.1,1.41.69,2.13,1,1.54.6,2.32.86,1.64.51,2.48.73a4.56,4.56,0,0,1,.53.13,2.7,2.7,0,0,0,.57.08,1.92,1.92,0,0,0,.67-.11l.71-.19,1.25-.35c.8-.24,1.6-.51,2.38-.81s1.48-.59,2.2-.93,1.37-.68,2-1.06,1.25-.76,1.85-1.19a20.9,20.9,0,0,0,1.67-1.31,18.27,18.27,0,0,0,1.48-1.44,17.3,17.3,0,0,0,2.42-3.25,17.15,17.15,0,0,0,.93-1.81c.21-.48.4-1,.57-1.45l.07,0h0a2.84,2.84,0,0,0,.94.09h0l.3.36A10.79,10.79,0,0,1,231.6,218a11.2,11.2,0,0,1,1.08,4.21c.23,3.13-.29,6.25,0,9.37a11.79,11.79,0,0,0,1.43,5.1.89.89,0,0,0,1.54-.9C234.14,233,234.32,229.91,234.43,226.86Zm-42.86-12.35a1.23,1.23,0,0,1-.61-2.16C191.71,212.17,193.25,214.1,191.57,214.51Zm35.93.7a14.34,14.34,0,0,1-.84,2,15.37,15.37,0,0,1-1.13,1.86,18.16,18.16,0,0,1-1.41,1.74,19.15,19.15,0,0,1-1.65,1.6,23.53,23.53,0,0,1-1.87,1.46c-.67.47-1.36.91-2.07,1.31s-1.48.79-2.25,1.13-1.58.67-2.39,1c-.53.18-1,.34-1.58.53-.3.11-.59.18-.88.26a2.37,2.37,0,0,1-1.18-.06c-.68-.17-1.36-.39-2-.61s-1.61-.59-2.4-.93-1.53-.7-2.26-1.11-1.42-.82-2.1-1.27-1.29-.93-1.9-1.44a20.81,20.81,0,0,1-1.68-1.58,18.09,18.09,0,0,1-1.44-1.71,17,17,0,0,1-1.18-1.85,14.2,14.2,0,0,1-.88-1.95,13.38,13.38,0,0,1-.57-2.06l-.06-.33v0h0a.2.2,0,0,0,0-.07,2,2,0,0,0-.17-.61,2.32,2.32,0,0,0-.85-.95h0a1.91,1.91,0,0,0-.32-.17,3.74,3.74,0,0,0-.67-.25,3.45,3.45,0,0,0-.94.09h0a2,2,0,0,0-.34.12l-.18.08a1.74,1.74,0,0,0-.38.27,1.88,1.88,0,0,0-.25.24,3.49,3.49,0,0,1-.73-.35,3.62,3.62,0,0,1-2.37-4.06,2.38,2.38,0,0,1,1.09-1.55,1,1,0,0,0,.29-.14,2.51,2.51,0,0,1,1-.2,4.23,4.23,0,0,1,1.56.34,31.17,31.17,0,0,0,.79,4c.29,1.11,2.07.87,1.78-.25a32.67,32.67,0,0,1-.83-4.28.88.88,0,0,0-1.28-.66l-.15-.11a8,8,0,0,0-2.42-.43l-.4,0a16,16,0,0,1-.71-6.64,26.25,26.25,0,0,1,3.65-13.38,22.56,22.56,0,0,1,10.21-9.2,17,17,0,0,1,7.16-1.26c.86,0,1.73,0,2.57,0s1.72.05,2.58.05h.84c.34,0,.67,0,1,0a15.38,15.38,0,0,1,8.92,3.08,28,28,0,0,1,6.7,7c2.27,3.43,3.54,7.93,3.8,13.39a17.36,17.36,0,0,1-.68,7,4.41,4.41,0,0,0-.52,0,6.28,6.28,0,0,0-.94.08c-.13-.39-.74-.78-.88-.87a3.62,3.62,0,0,0-.49-.24,6.13,6.13,0,0,1-2.87-2.71,34.24,34.24,0,0,1-4.09-10.21c-1-3.91-2.69-6.36-4.91-7.28a1.88,1.88,0,0,0-.78-.18l-.33.06a1.52,1.52,0,0,0-.49.25l0,0c-.12.09-.31.22-.3.38v.05a.24.24,0,0,0,.05.21l0,0,.07,0a4.06,4.06,0,0,1,1.25.58,5.76,5.76,0,0,1,.81.55,7.24,7.24,0,0,1,1.74,2.7,40.39,40.39,0,0,1,1.79,5.38c.15.55.31,1.11.47,1.66a21.8,21.8,0,0,0,2.82,6.43c1.1,1.57,2.42,3.17,4,3.66a.14.14,0,0,0,0,.07,38.59,38.59,0,0,1-.9,4.75c-.31,1.24,1.48,1.48,1.78.25a38.09,38.09,0,0,0,.81-4.1,3.33,3.33,0,0,1,.86-.11,2.34,2.34,0,0,1,2.39,1.89,3.62,3.62,0,0,1-2.37,4.06,4.56,4.56,0,0,1-1.31.53,2.29,2.29,0,0,0-2.5-.89,2.51,2.51,0,0,0-1.62,2.9,2,2,0,0,0,.21.56C227.63,214.8,227.57,215,227.5,215.21Zm1.85-.68a1.23,1.23,0,0,1,.62-2.16C231.65,212.78,230.1,214.7,229.35,214.53Z"/></g></g></g><path class="cls-15" d="M258.19,203.55a47,47,0,1,1-47-47A46.94,46.94,0,0,1,258.19,203.55Z"/><line class="cls-12" x1="189.49" y1="326.72" x2="246.07" y2="326.72"/><line class="cls-12" x1="429.86" y1="327.72" x2="477.49" y2="327.72"/><circle class="cls-10" cx="152.08" cy="321.33" r="47"/><g class="cls-18"><g id="短髪_パーカー" data-name="短髪×パーカー"><path id="白-3" data-name="白" class="cls-6" d="M186.24,357.46c-2.81-3.06-10.43-7.21-12.13-9.9-1.86-4-3.71-8-8.23-10.66a30.61,30.61,0,0,0,3.94-5.4c1.06-2.23,2-4.2,3.1-4.6s4.12-2.07,4.12-2.07,2-2.48,1.89-3.69a5.87,5.87,0,0,0-1.53-3.83,1.14,1.14,0,0,1-.77-.49,3.28,3.28,0,0,1-.18-2.1c.45-5.25.13-10.77-1.88-15.7a20.31,20.31,0,0,0-1.8-3.5,19.78,19.78,0,0,0-2.67-3c-.47-.48-.93-1-1.41-1.45a11.67,11.67,0,0,0-1.58-1.22,16,16,0,0,0-3-1.93h-.08a11.25,11.25,0,0,0-2.77-1.33,2,2,0,0,1-1,.44,2.3,2.3,0,0,1-1.45-.42,2.88,2.88,0,0,1-1.09-2.14,1.84,1.84,0,0,0-.94-.22l-.47.22a17.7,17.7,0,0,1-3.16,1.67c-.62.17-1.39.19-1.45-.62,0-.35.37-1.31,0-1.53a.47.47,0,0,1-.11-.13,20.22,20.22,0,0,0-4.89,1.71l-.05,0c-.62.23-1.24.49-1.86.74l-.46.18-1.52.31a19.09,19.09,0,0,0-4,1.47,8,8,0,0,0-1.64,1,6.48,6.48,0,0,1-1,.73c-2.67,2.54-5.45,4.45-6.88,7.81a19.61,19.61,0,0,0-1,1.8,30.59,30.59,0,0,1-.76,4.41,32.67,32.67,0,0,0-.26,5.85,13.18,13.18,0,0,0,.14,2c.08.53.19,1.05.28,1.58a5.07,5.07,0,0,1,0,2.76,1.78,1.78,0,0,1-.48.68l0,.09c-2.54,1.39-2.71,7.29.55,8.69a20.17,20.17,0,0,0,4.2,1.41s1.61,3.89,2.27,5,3.79,4.8,3.79,4.8c-1.18,1.56-3.85,2.57-5.15,5.41-1.07,2-.81,3.28-2.33,4.95s.05,1.36-4,3.89-8.69,5.36-9.5,6.87c-2.06,4.53-6.48,31.23-6.86,33h83.71C192.4,386.06,189.72,361.33,186.24,357.46Z"/><g id="塗り-2" data-name="塗り"><path class="cls-14" d="M186.15,369c.18-14.92-13.8-14.63-16.51-25.16.38-.42-2.73-3.51-4.72-5.29a16.16,16.16,0,0,1-1.35,1.1c1.3,7.46,2.6,7.1-3.44,13a70,70,0,0,1-6.33,6c-1.59,1.69-3.2-.7-4-.74-3.56-4.5-15.62-9.44-10.6-18.39.08-.41-1.06-1.35-1.73-1.86-4.82,2.74-5.8,6.93-8.85,11-2,3-8.22,6-10,8-6.13,8.36-6,25.31-8.45,34.37h79.7Z"/><path class="cls-19" d="M176.1,311.09a31.27,31.27,0,0,0-1.89-7.81c-1.7-4.41-4.72-10-9.14-12.24l0,0c-.46-.31-.92-.6-1.4-.87A35.31,35.31,0,0,0,159,288c-1.14-.44-3.38-.74-4-1.93a1.37,1.37,0,0,0-1.88-.51,5.45,5.45,0,0,1-2.41,1,1.31,1.31,0,0,0-1.87-1.1c-2.93,1.45-6.24,1.73-9.24,3a15.91,15.91,0,0,0-6.87,6.06,27.77,27.77,0,0,0-4.4,9.11,43.34,43.34,0,0,0-.74,11.2,1.43,1.43,0,0,0,1,1.33l.89.36c.95.39,2-.76,1.66-1.71-.93-2.89,1.84-5.53,2.81-8,1.05-2.71,1.27-5.68,3.43-7.79,2-1.92,4.21-2.24,6.8-2.28,1.4,0,2.77-.35,4.17-.41,1.6-.06,2.32.7,3.62,1.45a3.92,3.92,0,0,0,3.1.4,6.34,6.34,0,0,1,1.77-.58,5,5,0,0,1,1.66.72c1.08.48,1.9.26,3,.45l.27.06c.88-.11,1.66-.65,2.58-.6a4.15,4.15,0,0,1,2.36,1.08,7,7,0,0,1,2.16,4.37,15.25,15.25,0,0,0,.11,1.66,2.83,2.83,0,0,0,.6,1.12,15.21,15.21,0,0,1,1.48,2.18,14.62,14.62,0,0,1,1.76,6.3,1.43,1.43,0,0,0,0,1c0,.19,0,.38,0,.57a.91.91,0,0,0,.18-.21,1.51,1.51,0,0,0,1.56.56C176.92,316.45,176.29,312.7,176.1,311.09Z"/></g><g id="アウトライン-3" data-name="アウトライン"><path d="M137.48,338.54c.31-.26,1.08-.42.68-1.05s-1-.3-1.5,0a5.27,5.27,0,0,0-.74.49,14.36,14.36,0,0,0-5.35,6.55,26.74,26.74,0,0,1-1.43,2.89,3.53,3.53,0,0,1-1.14,1.35c-2.27,1.55-4.55,3.09-6.78,4.69-2.42,1.74-4.87,3.48-5.75,6.58-.56,2-1.2,4-1.66,6-1.14,5-1.83,10.15-2.74,15.22-.53,2.92-1.26,5.8-1.72,8.73,0,.73.13,1.42,1,1.52s1-.59,1.17-1.24c1-5.47,2-10.93,3-16.42a93.81,93.81,0,0,1,2.69-12.4,9,9,0,0,1,2.8-4.44,83.2,83.2,0,0,1,6.78-4.89,12.34,12.34,0,0,0,5.23-6.15A16.76,16.76,0,0,1,137.48,338.54Z"/><path d="M194.7,389.44c-1-5.58-2.13-11.15-3.07-16.74A97.26,97.26,0,0,0,189,360.87a10.68,10.68,0,0,0-3.29-5.31,55.55,55.55,0,0,0-6.24-4.48c-2.67-1.69-5-3.63-6-6.75a13.92,13.92,0,0,0-.72-1.51c-1.11-2.46-3.25-3.91-5.33-5.4-.42-.31-1-.5-1.4,0s.27.76.56,1a17.15,17.15,0,0,1,5.69,7.55,19.61,19.61,0,0,0,1,2,6.93,6.93,0,0,0,2.32,2.64c2.29,1.58,4.53,3.25,6.83,4.83a12.09,12.09,0,0,1,5,7.18,120.74,120.74,0,0,1,2.68,13.53c.7,4.7,1.89,9.3,2.55,14,.1.65.34,1.32,1.14,1.27s1-.68,1-1.4C194.77,389.88,194.75,389.66,194.7,389.44Z"/><path d="M164.58,348.61a5.62,5.62,0,0,0,.85-4.36,38.83,38.83,0,0,1-1-4c-.08-.45-.21-.94-.79-.91s-.72.55-.74,1.06a8.38,8.38,0,0,0,.78,4.23c.64,1.21.19,2-.34,2.92a7.89,7.89,0,0,1-.7,1c-3.12,3.67-6.87,6.67-10.55,9.93A112.42,112.42,0,0,1,141.84,349a10.49,10.49,0,0,1-1.62-2.53,1.19,1.19,0,0,1,0-1.21,10.51,10.51,0,0,0,1-5c0-.44-.17-.83-.66-.91a.63.63,0,0,0-.75.52,49.92,49.92,0,0,0-1.2,5.19c-.26,2.06.85,3.71,2.12,5.21a98.51,98.51,0,0,0,10.53,10.1,1.09,1.09,0,0,0,1.6,0c3.14-2.67,6.18-5.46,9.06-8.42A16.8,16.8,0,0,0,164.58,348.61Z"/><path d="M122.84,364.62c-.7,0-.77.59-.79,1.12s0,1.33,0,2c0,3.38.38,6.75.07,10.13,0,2.07,0,4.15,0,6.23s0,3.93,0,5.9c0,.72.16,1.42,1,1.41s1-.67,1-1.35v-1c0-1.67,0-3.34,0-5,.1-6.13-.06-12.24-.54-18.35C123.54,365.21,123.46,364.64,122.84,364.62Z"/><path d="M182.1,365.74c0-.53-.09-1.14-.79-1.12s-.7.58-.74,1.08c-.09,1.29-.16,2.59-.25,3.88-.49,6.78-.23,13.58-.24,20.36,0,.71.07,1.44,1,1.47s1-.7,1.06-1.41c0-.26,0-.52,0-.78V378a48,48,0,0,1-.08-6.57A46.65,46.65,0,0,0,182.1,365.74Z"/><path d="M172.16,350.28c-.32-.19-.57,0-.79.2a5.57,5.57,0,0,0-.5.59A21.64,21.64,0,0,1,158,359.69a4.16,4.16,0,0,0-1.55.61.82.82,0,0,0-.38.95c.14.44.51.49.94.5.14,0,.33,0,.51-.07a22.54,22.54,0,0,0,13.21-7.87,9.81,9.81,0,0,0,1.6-2.65A.63.63,0,0,0,172.16,350.28Z"/><path d="M147.56,360.24a13.05,13.05,0,0,0-2.1-.73,21.43,21.43,0,0,1-12.05-8.26c-.18-.24-.36-.47-.56-.69s-.49-.5-.86-.28-.35.63-.17,1a12.23,12.23,0,0,0,1,1.84,21.41,21.41,0,0,0,9,7.08,32.21,32.21,0,0,0,5.18,1.58c.53,0,.9-.07,1-.51A.8.8,0,0,0,147.56,360.24Z"/><path d="M179.72,319.89a4.29,4.29,0,0,0-2.44-3.63c0-1.08.11-2.15.21-3.19a25.46,25.46,0,0,0,.17-3.59,24.63,24.63,0,0,0-2.35-11.93c-3.2-6.46-7.7-10.23-13.75-11.54a3.68,3.68,0,0,1-2.34-1.2.84.84,0,0,0-.67-.38.6.6,0,0,0-.22,0,.92.92,0,0,0-.66.8,1.47,1.47,0,0,0,.82,1.6,5.66,5.66,0,0,0,2.24.86c2.51.26,4.77,1.37,7.34,3.62a21.41,21.41,0,0,1,7.43,17.57c-.05,1.44-.13,2.9-.2,4.32-.05.89-.1,1.78-.14,2.67a5.67,5.67,0,0,0-.9.16h0c-.05-.67-.15-1.33-.24-2-.07-.44-.13-.89-.19-1.33a10.8,10.8,0,0,0-2.83-6.16,3.11,3.11,0,0,1-.86-2.06c-.18-2.56-1.48-4.77-4-6.75l0,0a1.47,1.47,0,0,0-1-.44,1.4,1.4,0,0,0-.57.14l-.09,0v.1a2.06,2.06,0,0,0,.81,1.47l.27.26a8.4,8.4,0,0,1,2.63,6.06,2.71,2.71,0,0,0,.87,2.06,8.94,8.94,0,0,1,2.61,4.93,31.79,31.79,0,0,1,.5,5.21v.05c0,.62,0,1.46,1,1.49h.06c.82,0,1-.64,1-1.17a2.22,2.22,0,0,1,.31-.1,2.41,2.41,0,0,1,3.26,2.29,4.71,4.71,0,0,1-2.4,4.72,11.06,11.06,0,0,1-3.25,1.2,1.91,1.91,0,0,0-1.41,1.3,26.88,26.88,0,0,1-2.29,5.11,22.3,22.3,0,0,1-12,9.24c-1.62.54-3.29,1.2-5,.87-8-1.49-14-5.59-17.17-13.29-.81-2-1.67-3.39-4-3.8a4.73,4.73,0,0,1-3.78-3.64,3.47,3.47,0,0,1,.57-3.39,2.46,2.46,0,0,1,2.87-.53l.08,0c0,.05,0,.1,0,.15.09.65.46,1,1,1h0a1,1,0,0,0,.74-.31,1.11,1.11,0,0,0,.25-.9,11.34,11.34,0,0,1,.15-2.54c.06-.5.13-1,.16-1.54a9.6,9.6,0,0,1,2.79-6.4,2.86,2.86,0,0,0,.89-2.16,8.13,8.13,0,0,1,2.54-5.86c.38-.42.66-.74.92-1s.44-.55.08-.92a.55.55,0,0,0-.42-.19,1.26,1.26,0,0,0-.53.16,3.8,3.8,0,0,0-.71.47c-2.43,2-3.65,4.16-3.83,6.72,0,.09,0,.18,0,.27a1.53,1.53,0,0,1-.34,1.14c-2.92,2.84-3.43,6.45-3.71,10.05a3.06,3.06,0,0,0-.51-.1l-.44,0c0-.42,0-.85,0-1.26v-.11l-.12-2.07c-.07-1.27-.15-2.58-.2-3.87a21,21,0,0,1,3.57-12.95c3.56-5.21,8.11-8.08,13.92-8.78a14.57,14.57,0,0,0,5.57-2c.69-.4.91-.87.65-1.41a.88.88,0,0,0-.84-.57,2.31,2.31,0,0,0-.81.21l-.2.09a22,22,0,0,1-4.94,1.68l-1.26.33a24.29,24.29,0,0,0-7.52,3c-6.9,4.74-10.26,11.45-10.29,20.51a29.37,29.37,0,0,0,.18,4.31c.09,1,.19,2.1.2,3.15-1.57.67-2.46,2.34-2.5,5.11a6.39,6.39,0,0,0,3,4.9,10.4,10.4,0,0,0,3.55,1.41,1.4,1.4,0,0,1,1.18,1.13,18.68,18.68,0,0,0,2.24,5.12A23.85,23.85,0,0,0,147,343.48c2.36.79,4.72,1.53,7.35.84a30.58,30.58,0,0,0,8.07-3.32,20.08,20.08,0,0,0,9.09-10.87c.49-1.45,1-2.61,2.74-2.75a4.7,4.7,0,0,0,1.56-.58A6.67,6.67,0,0,0,179.72,319.89Z"/><path d="M156.8,330.91c-.37-.67-.92-.3-1.42-.07a8.46,8.46,0,0,1-6.71,0c-.44-.16-.95-.67-1.31,0s.23,1,.74,1.35a10.23,10.23,0,0,0,4.1,1,9.12,9.12,0,0,0,3.9-.91C156.61,332,157.19,331.6,156.8,330.91Z"/><path d="M152.15,334.48c-.6,0-1.43-.15-1.46.73s.79.9,1.47.94,1.29-.06,1.32-.79S152.82,334.44,152.15,334.48Z"/><path d="M151.83,322.78a1.57,1.57,0,0,0,.18-1.27.61.61,0,0,0-.54-.37c-.25,0-.35.17-.45.33l-.37.61c-.1.18-.21.35-.3.52l-.23.44c-.06.13-.12.25-.19.37v0a2.68,2.68,0,0,0-.32.8,1.48,1.48,0,0,0,.36,1.21,2.12,2.12,0,0,0,1.17.61,5.51,5.51,0,0,0,.69.06h.25a2,2,0,0,0,.7-.1c.32-.13.48-.31.43-.51s-.15-.19-.28-.27l0,0a2.93,2.93,0,0,0-.38-.21l-.26-.1a1.79,1.79,0,0,1-.32-.13,1.37,1.37,0,0,1-.43-.4.86.86,0,0,1-.13-.38,1.28,1.28,0,0,1,.19-.59Q151.7,323.13,151.83,322.78Z"/><path d="M143.89,317.3a2,2,0,0,0-1.67-.77,2,2,0,0,0-1.75.86,1.82,1.82,0,0,0,.18,1.92l0,0,.05,0a2.75,2.75,0,0,0,1.52.5h0a1.91,1.91,0,0,0,1.9-1.8V318l-.24-.7Z"/><path d="M162,316.53a2,2,0,0,0-1.67.77l0,0-.25.7v.05a1.92,1.92,0,0,0,1.91,1.8h0a2.75,2.75,0,0,0,1.52-.5l0,0,0,0a1.85,1.85,0,0,0,.18-1.92A2,2,0,0,0,162,316.53Z"/><path d="M143.87,311.56a4.12,4.12,0,0,0-1.52-.35,4.5,4.5,0,0,0-1.27,0,4,4,0,0,0-1.22.38,2.57,2.57,0,0,0-1,.87.79.79,0,0,0,.12.95.82.82,0,0,0,.95.12,4.37,4.37,0,0,1,.43-.22l.08,0-.07,0a.78.78,0,0,1,.23-.08l.23-.06.17,0h.28a3,3,0,0,1,.52,0l.2,0h.11a5.91,5.91,0,0,0,1.24.24,1,1,0,0,0,.95-.72A1,1,0,0,0,143.87,311.56Z"/><path d="M164.88,313.4a.8.8,0,0,0,.12-.95,2.57,2.57,0,0,0-1-.87,4,4,0,0,0-1.22-.38,4.5,4.5,0,0,0-1.27,0,4.12,4.12,0,0,0-1.52.35,1,1,0,0,0-.45,1.11,1,1,0,0,0,.95.72,5.91,5.91,0,0,0,1.24-.24h.11l.2,0a3,3,0,0,1,.52,0h.28l.17,0,.23.06a.78.78,0,0,1,.23.08l-.07,0,.08,0a4.37,4.37,0,0,1,.43.22A.82.82,0,0,0,164.88,313.4Z"/><path d="M155.21,297.83c.38,0,.65-.28.74-.78V297l-.06-.16a1,1,0,0,0-.14-.32c-1.22-1.72-2.81-3.54-5.45-4.06a3.31,3.31,0,0,0-.66-.08,1,1,0,0,0-1.06.81.86.86,0,0,0,.11.7,1.68,1.68,0,0,0,1.12.54,5.65,5.65,0,0,1,2.94,1.61,16.73,16.73,0,0,0,1.87,1.61A1,1,0,0,0,155.21,297.83Z"/><path d="M147.26,297.61h.05a3,3,0,0,0,.48.05.82.82,0,0,0,.82-.44c.17-.32.22-.8-.45-1.27a6.06,6.06,0,0,0-3.59-1h0a4.5,4.5,0,0,0-3.13,1.09c-.36.33-.47.66-.31,1a.75.75,0,0,0,.71.42,1.45,1.45,0,0,0,.29,0,11.08,11.08,0,0,1,2.57-.35A5.7,5.7,0,0,1,147.26,297.61Z"/><path d="M151,286.42c.1.52.59.57,1.05.62h.11a8.46,8.46,0,0,0,5.05-2.62.84.84,0,0,0,0-1.25.83.83,0,0,0-.59-.25,1,1,0,0,0-.68.3,11.32,11.32,0,0,1-4.21,2.3C151.48,285.63,150.92,285.83,151,286.42Z"/><path d="M158.51,293.32a1.19,1.19,0,0,0-.25,0,.65.65,0,0,0-.54.23.64.64,0,0,0,0,.83c1.07,1.27,2,2.6,2.93,4a.77.77,0,0,0,.65.33,1,1,0,0,0,.4-.09.82.82,0,0,0,.51-.89C162.16,296.52,159.62,293.51,158.51,293.32Z"/></g></g></g><circle class="cls-15" cx="152.08" cy="321.33" r="47"/><circle class="cls-10" cx="521.28" cy="321.33" r="47"/><g class="cls-20"><g id="ミディアムヘア_エプロン" data-name="ミディアムヘア×エプロン"><path id="白-4" data-name="白" class="cls-6" d="M518.44,288.25c-14.43,2-19.71,10.53-21.3,24.54a79.78,79.78,0,0,1-2,9c-1.81,5.16-3.3,9.7-2,14.66,3,8.46,6.69,9.94,13.73,12.56a51.36,51.36,0,0,0-5.4,2.12A25.16,25.16,0,0,0,497,354a10.54,10.54,0,0,0-2.78,1.4c-5.47,2.45-5.9,12.34-6.61,15.49,0-.24-2.48,17.5-2.48,17.5h72.35l-3.18-20.81s-.46-6.27-2.07-8.74c-3.43-5.28-6.48-5.34-10.81-7.57-.39-.13-4.51-2.2-5.37-1.87l-1-.81a15.53,15.53,0,0,0,14-18.93c-1.44-8.41-2.69-12.77-4.09-20.55-.84-6.16-5-16.07-11.65-18.63C528.24,287.71,522.21,288.32,518.44,288.25Z"/><path id="塗り-3" data-name="塗り" class="cls-21" d="M496.84,353.68a7.88,7.88,0,0,1,2.47-2c1-.27,5.6-2,5.6-2L504,368.58s3.42-.09,3.55,0,31.14-.5,31.14-.5L537.42,350s3.38,1.31,3.9,1.54a10.93,10.93,0,0,1,1.86,2l2.53,34.95H493.9l1.6-22.11Z"/><g id="アウトライン-4" data-name="アウトライン"><path d="M544,351.6c-2.25-.86-4.18-2.57-6.78-2.52-.09,0-.19-.11-.27-.18-2-1.75-3.93-3.55-4.73-6.2a1.94,1.94,0,0,0-.72-1.05h-.24a1.82,1.82,0,0,0-.36,2c.63,2.59,2.34,4.41,4.31,6a1.63,1.63,0,0,0,1.84.21v3.23a53.18,53.18,0,0,1-31.47,0v-3.23a1.6,1.6,0,0,0,1.73-.15,11.34,11.34,0,0,0,4.45-6.22,1.73,1.73,0,0,0-.4-1.84h-.24a1.86,1.86,0,0,0-.64.82,12.08,12.08,0,0,1-4.5,6.07c-.25.19-.32.52-.81.54-2.61.14-4.66,1.77-7,2.74a.56.56,0,0,0-.31.69c.09.37.37.47.71.5a3,3,0,0,0,1.48-.37l4.11-1.78a2.61,2.61,0,0,1,0,.52c-1,5.41-1,10.89-1.21,16.36,0,.66-.08,1.37.76,1.48s1.07-.58,1.14-1.23a24.94,24.94,0,0,0,.12-2.59c.08-3.73.15-7.45.43-11a46.77,46.77,0,0,0,31.68,0c.24,3.79.39,7.72.41,11.66a6.75,6.75,0,0,0,.27,2.45.91.91,0,0,0,1,.7.87.87,0,0,0,.79-1c0-.79-.11-1.57-.12-2.36a96.11,96.11,0,0,0-.61-10.85c-.17-1.34-.34-2.68-.53-4.22,1,.46,1.84.83,2.67,1.18s1.6.7,2.42,1c.44.15,1,.22,1.25-.33S544.43,351.77,544,351.6Z"/><path d="M558.29,387.11c0-.36-.06-.95-.15-1.53-.71-4.67-1.43-9.86-2.14-14.53a60,60,0,0,0-2-10.29c-1-2.81-2.39-5.24-5.13-6.66-.54-.28-1.19-1.08-1.72-.25s.41,1.14.92,1.49a9,9,0,0,1,3.32,3.61,20.66,20.66,0,0,1,1.81,6.22c.76,7.32,2.3,14.53,3,21.86.08.78,0,1.9,1.23,1.78S558.27,388.13,558.29,387.11Z"/><path d="M495.21,355.33c.3-.3.54-.64.23-1s-.7-.28-1.07-.08a10.4,10.4,0,0,0-4.54,4.19,21.62,21.62,0,0,0-2.22,6.57c-.58,3.54-1,7.09-1.62,10.62-.66,3.88-1.38,7.75-1.69,11.68,0,.15,0,.31,0,.47-.07.7-.09,1.45.8,1.58s1.15-.61,1.23-1.36c.12-1.06.16-2.13.33-3.17,1-6.1,1.87-12.22,2.71-18.34.58-4.28,1.43-8.45,5.62-10.89A1.18,1.18,0,0,0,495.21,355.33Z"/><path d="M497.08,353a.65.65,0,0,0-.71.49c-.09.26-.15.53-.22.8a52.49,52.49,0,0,0-1,7.59c-.37,4-1.18,7.86-1.36,11.84-.16,3.3-.46,6.59-.67,9.89-.08,1.29-.11,2.59-.12,3.89,0,.67.21,1.34,1,1.34s1-.63,1-1.32,0-1.11,0-1.88a25.58,25.58,0,0,1,.26-3.66c.18-3.26.3-6.53.6-9.78.53-5.84,1.17-11.67,1.76-17.5a5.37,5.37,0,0,0,0-1.06A.61.61,0,0,0,497.08,353Z"/><path d="M547.49,361.91c-.38-2.65-.5-5.33-1.14-7.94-.11-.44-.2-1-.84-1s-.66.69-.61,1.19c.29,3.21.56,6.43.91,9.64.58,5.31,1.24,10.62,1.35,16,.06,2.6.52,5.17.43,7.78,0,.66.24,1.21,1,1.24s1-.55,1-1.19c0-.79,0-1.58,0-2.36C549.15,377.48,548.62,369.67,547.49,361.91Z"/><path class="cls-22" d="M536.63,367.88c-.35,0-.71,0-1.06,0H519.36l-13,0c-.51,0-1.16-.05-1.19.65s.62.8,1.19.83h29.33a6.16,6.16,0,0,0,1.06-.07.74.74,0,0,0,.68-.71C537.42,368.07,537.06,367.91,536.63,367.88Z"/><path d="M540.23,331.36c.12-.81.21-1.62.39-2.42a1.78,1.78,0,0,0-1.81,1.32,27.55,27.55,0,0,1-1.24,3,13.52,13.52,0,0,1-3.47,5c-3.59,2.93-7.79,4.63-12.16,6.05a1.67,1.67,0,0,1-1.08,0c-4.37-1.41-8.59-3.07-12.17-6a10.82,10.82,0,0,1-2.38-2.76,35.7,35.7,0,0,1-2.4-5.27,1.87,1.87,0,0,0-1.81-1.33H502c.19.86.4,1.72.6,2.58l0,.1a20.91,20.91,0,0,0,.88,2.14,13.74,13.74,0,0,0,3.17,5,28.73,28.73,0,0,0,6,4.14c2.63,1.32,5.44,2.17,8.16,3.26a1.65,1.65,0,0,0,1.32-.07c.44-.18.88-.37,1.34-.52a35.6,35.6,0,0,0,12-6.21,11.58,11.58,0,0,0,2.36-2.78,29.49,29.49,0,0,0,2.35-5C540.16,331.49,540.2,331.43,540.23,331.36Z"/><path d="M500,321.18a4.32,4.32,0,0,1,.7.06,2,2,0,0,1,1.17.59,1,1,0,0,0,.72.3,1.32,1.32,0,0,0,.63-.17.41.41,0,0,0,.23-.28.65.65,0,0,0-.21-.49,4.51,4.51,0,0,0-3.3-1.45,4.11,4.11,0,0,0-1.1.15,4,4,0,0,0-2.16,6.07,7.52,7.52,0,0,0,4.64,2.94l.29,0a.75.75,0,0,0,.82-.55.64.64,0,0,0-.15-.53.83.83,0,0,0-.58-.28,3.2,3.2,0,0,1-1.18-.42,4,4,0,0,0-.51-.25,4,4,0,0,1-2.41-3.41A2.28,2.28,0,0,1,500,321.18Z"/><path d="M540.81,327.54c-.46.15-.92.38-.78.92a.71.71,0,0,0,.75.47,1.1,1.1,0,0,0,.31,0,8.18,8.18,0,0,0,3.09-1.17,5.08,5.08,0,0,0,2.23-4.61,3.21,3.21,0,0,0-2.13-2.9,5.33,5.33,0,0,0-2.07-.52,4.1,4.1,0,0,0-2.76,1.27l0,0c-.29.26-.62.55-.26.91a.85.85,0,0,0,.59.24,1.24,1.24,0,0,0,.67-.22l.23-.19a1.54,1.54,0,0,1,.19-.17,2.84,2.84,0,0,1,1.52-.37,2.43,2.43,0,0,1,1.51.41,3.06,3.06,0,0,1,.3,3.8A6.22,6.22,0,0,1,540.81,327.54Z"/><path d="M526.22,333.49a.85.85,0,0,0,.34-.57.5.5,0,0,0-.19-.35.72.72,0,0,0-.49-.19,1.45,1.45,0,0,0-.62.19l-.36.2h0a12.1,12.1,0,0,1-2.16,1,4.77,4.77,0,0,1-1.38.24,4.83,4.83,0,0,1-1.39-.24,12.1,12.1,0,0,1-2.16-1l-.39-.21a1.41,1.41,0,0,0-.61-.19.72.72,0,0,0-.49.19.46.46,0,0,0-.19.35.81.81,0,0,0,.34.57A7.4,7.4,0,0,0,520,335.3a7.12,7.12,0,0,0,1.13.14h.36a7,7,0,0,0,1.12-.14A7.43,7.43,0,0,0,526.22,333.49Z"/><path d="M521.32,336.43h-.2a1.06,1.06,0,0,0-.78.19.56.56,0,0,0-.16.43c0,.55.58.55.82.55h.55c.24,0,.79,0,.85-.52a.51.51,0,0,0-.11-.43,1.22,1.22,0,0,0-.88-.23Z"/><path d="M522.08,327.11l0,0a3,3,0,0,0-.38-.17,2,2,0,0,0-.26-.09,1.73,1.73,0,0,1-.32-.11,1.17,1.17,0,0,1-.42-.34.56.56,0,0,1-.13-.3,1,1,0,0,1,.19-.48c.09-.17.18-.34.27-.53a1.2,1.2,0,0,0,.18-1.1.58.58,0,0,0-.54-.32.51.51,0,0,0-.45.28l-.37.52c-.1.14-.21.29-.3.44s-.15.24-.22.37-.13.21-.21.34a1.94,1.94,0,0,0-.32.68,1.14,1.14,0,0,0,.37,1,2.19,2.19,0,0,0,1.17.52c.22,0,.46,0,.68.05h.25a2.2,2.2,0,0,0,.68-.09c.34-.11.5-.27.44-.45S522.21,327.18,522.08,327.11Z"/><path d="M529.23,319.5l0,0-.24.68v.06a1.85,1.85,0,0,0,1.87,1.72h0a2.66,2.66,0,0,0,1.47-.47l0,0,0-.05a1.7,1.7,0,0,0,.17-1.84,2.17,2.17,0,0,0-3.34-.09Z"/><path d="M513.39,319.5a2.17,2.17,0,0,0-3.34.09,1.7,1.7,0,0,0,.17,1.84l0,.06.05,0a2.66,2.66,0,0,0,1.47.47h0a1.85,1.85,0,0,0,1.87-1.72v-.06l-.24-.68Z"/><path d="M502.9,346.39a11.62,11.62,0,0,1-6.43-5.32c-2.65-4.65-2.86-9.63-1.65-14.69.45-1.91,1-3.8,1.45-5.71a78.72,78.72,0,0,0,1.88-9.91A30.23,30.23,0,0,1,501.34,300c3.66-7.35,9.85-10.5,17.85-11,.52,0,1.21.11,1.24-.63s-.65-.86-1.23-.92a11.36,11.36,0,0,0-3.18.2c-6.09,1.11-11.26,3.59-14.73,8.9a31.74,31.74,0,0,0-5.13,14.75c-.39,4.47-1.74,8.72-2.81,13a26.42,26.42,0,0,0-1.06,8.14,17.3,17.3,0,0,0,2.2,9.06,13.69,13.69,0,0,0,7.64,6.61c.67.24,1.48.45,1.82-.4S503.55,346.62,502.9,346.39Z"/><path d="M549.52,325.91a49.33,49.33,0,0,1-1.49-5.83c-.44-2.32-1.41-4.53-1.58-6.91a35.71,35.71,0,0,0-4.12-14.71c-3.78-7-9.94-10.16-17.65-11.06a6.58,6.58,0,0,0-1.6,0c-.54.08-1.14.26-1.09.92s.66.62,1.15.6a21.76,21.76,0,0,1,7.45,1.47,17.15,17.15,0,0,1,9.32,7.47,29.22,29.22,0,0,1,4.45,13.37c.33,4.48,1.59,8.75,2.72,13a26.61,26.61,0,0,1,1,10.21c-.69,5.49-3.1,9.82-8.69,11.93-.63.23-1.22.54-.91,1.29s1,.67,1.6.43a13.85,13.85,0,0,0,4.94-2.86,17.35,17.35,0,0,0,5.15-13A18.18,18.18,0,0,0,549.52,325.91Z"/><path d="M505.18,316.91a20.34,20.34,0,0,0,3.38-10.17,1.22,1.22,0,0,0-.64-1.38l-.09,0-.08,0a1.11,1.11,0,0,0-.68,1l0,.19a34.05,34.05,0,0,1-2.18,7.2,7.31,7.31,0,0,1-3,3.71,1.26,1.26,0,0,0-.66.67.68.68,0,0,0,.1.56.81.81,0,0,0,.75.45,2.05,2.05,0,0,0,.78-.21A5.51,5.51,0,0,0,505.18,316.91Z"/><path d="M514.46,314.13a.9.9,0,0,0,.59-.4,1.19,1.19,0,0,0,0-1.05c-1.56-4-1.32-8.12-1.11-11.79a1.8,1.8,0,0,1,0-.22,1.08,1.08,0,0,0-.47-1.21l-.08-.06-.09,0a1.24,1.24,0,0,0-.82,1.08v.07a24.07,24.07,0,0,0,.7,12.6c.15.36.4,1,1,1Z"/><path d="M527.34,313.66a.89.89,0,0,0,.55.44,1.33,1.33,0,0,0,.38.07c.59,0,.84-.56,1-1l0-.06c.05-.12.1-.24.14-.36l0-.07c1.26-3.43,1.43-7.14.53-12.06l0-.09a1.18,1.18,0,0,0-.87-1.13l-.08,0-.07,0a1.05,1.05,0,0,0-.45,1.16,1.36,1.36,0,0,1,0,.2c0,.47,0,.94.05,1.41,0,.86.07,1.75.08,2.62a19.68,19.68,0,0,1-1.19,7.66A1.54,1.54,0,0,0,527.34,313.66Z"/><path d="M541.05,317.59l-.13-.06a8.64,8.64,0,0,1-4-3.95,27.77,27.77,0,0,1-2-4.66c0-.06,0-.12,0-.19a1,1,0,0,0-.88-.91l-.1,0-.08.07a1.82,1.82,0,0,0-.33,1.79,15.58,15.58,0,0,0,3.18,6.94,6.91,6.91,0,0,0,3.64,2.37l.21.06a2.36,2.36,0,0,0,.63.13.73.73,0,0,0,.69-.44.66.66,0,0,0,0-.53C541.71,317.88,541.33,317.71,541.05,317.59Z"/><path d="M520.31,308.8c0,1.21,0,2.45,0,3.67v.1a1.16,1.16,0,0,0,.25,1,.87.87,0,0,0,.63.21h0a.79.79,0,0,0,.78-.42,1.58,1.58,0,0,0,.1-.74v-2.19c0-2.63,0-5.36,0-8v-.19a5.22,5.22,0,0,0-.53-2.63l-.09-.16-.16.08a1.17,1.17,0,0,0-.75,1.17,1,1,0,0,0,0,.17A67.2,67.2,0,0,0,520.31,308.8Z"/></g></g></g><circle class="cls-15" cx="521.28" cy="321.33" r="47"/><path d="M122.28,86.45c-2,0-2.65,0-2.78,0s-.24,0-.24-.26V84.47c0-.25,0-.27.24-.27s.82,0,2.78,0h2.94l0-.47a13.91,13.91,0,0,0,0-2.88,20.48,20.48,0,0,1,2.44.22c.31,0,.42.18.42.29a.83.83,0,0,1-.22.52,7.56,7.56,0,0,0-.29,1.87,3.75,3.75,0,0,0,0,.45h8c2,0,2.64,0,2.77,0s.26,0,.26.27v1.76c0,.24,0,.26-.26.26s-.81,0-2.77,0h-8.25c-.11.81-.25,1.62-.4,2.39h6.58a1.83,1.83,0,0,0,.55-.08.74.74,0,0,1,.29-.09c.15,0,.3,0,1,.64s.7.7.7.85a.43.43,0,0,1-.18.38,1.74,1.74,0,0,0-.52.81,18.54,18.54,0,0,1-2.95,4.73A20.31,20.31,0,0,0,139,98.55a5.48,5.48,0,0,0-1,1.69c-.24.66-.26.66-.92.49a22.46,22.46,0,0,1-6.45-3,17.79,17.79,0,0,1-5.85,3.13,2.25,2.25,0,0,1-.53.13c-.2,0-.28-.13-.44-.53a4.47,4.47,0,0,0-1-1.41,16.76,16.76,0,0,0,6-2.81,13.09,13.09,0,0,1-2.86-4.1c-.07.18-.11.35-.18.51a19.06,19.06,0,0,1-5,7.44c-.26.22-.39.33-.5.33s-.24-.14-.44-.38a5.1,5.1,0,0,0-1.3-1.19,15.38,15.38,0,0,0,5-6.77A23,23,0,0,0,125,86.45Zm5.58,4.42a10.18,10.18,0,0,0,2.71,3.85A12.65,12.65,0,0,0,133,90.87Z"/><path d="M151.69,84.75c.24-.06.33,0,.35.22.07.49.14,1.12.16,1.59,0,.28,0,.35-.33.41a34.22,34.22,0,0,1-3.83.84c-1.5,4.88-2.62,8.25-4,11.9-.11.31-.24.29-.48.22s-1.3-.55-1.76-.81a.36.36,0,0,1-.18-.44,83.51,83.51,0,0,0,3.81-10.43c-1.28.13-2.82.24-3.85.24-.33,0-.42-.06-.46-.35-.09-.46-.2-1.21-.31-2a11.12,11.12,0,0,0,1.63.06A28.52,28.52,0,0,0,146,86c.22-.88.4-1.84.55-2.75a14.8,14.8,0,0,0,.13-2,13.35,13.35,0,0,1,2.77.61.38.38,0,0,1,.25.36.53.53,0,0,1-.11.35,4.13,4.13,0,0,0-.47.88c-.22.79-.37,1.54-.52,2.09C149.42,85.34,150.61,85.06,151.69,84.75Zm-.86,10.52c.22,0,.31.09.33.31.18,1.6,1.26,2.06,3.37,2.06a33.17,33.17,0,0,0,3.7-.3c.17,0,.24,0,.26.2a13.43,13.43,0,0,1,.18,1.91c0,.26,0,.33-.36.35a24.08,24.08,0,0,1-3.05.24c-2.82,0-4.32-.39-5.31-1.43a4.31,4.31,0,0,1-1-3A10.86,10.86,0,0,1,150.83,95.27Zm-.24-5.83c0-.31.07-.38.4-.44a22.57,22.57,0,0,1,4.29-.51,16.18,16.18,0,0,1,2.57.22c.31.05.38.07.38.33a17.09,17.09,0,0,1,0,1.76c0,.38-.11.46-.42.4a14.18,14.18,0,0,0-2.73-.27,24,24,0,0,0-4.42.51C150.63,90.67,150.59,89.88,150.59,89.44Zm5.08-6.27c.11-.09.2-.07.33,0a9.82,9.82,0,0,1,2.09,2.36.22.22,0,0,1-.06.35l-.93.68c-.15.11-.26.09-.37-.07A11,11,0,0,0,154.51,84Zm2-1.43c.13-.09.2-.07.33,0a9.08,9.08,0,0,1,2.09,2.27.25.25,0,0,1-.06.39l-.88.69a.23.23,0,0,1-.38-.07,10.33,10.33,0,0,0-2.2-2.53Z"/><path d="M166.5,83.5a7.6,7.6,0,0,0-.05-2.14,15.63,15.63,0,0,1,2.64.46c.29.09.44.23.44.4a.68.68,0,0,1-.15.35,2.28,2.28,0,0,0-.38.82c-.11.59-.19,1-.3,1.8a38.94,38.94,0,0,0,4.13-.81c.31-.09.42-.07.47.22a10.85,10.85,0,0,1,.15,1.63c0,.24-.07.3-.26.35a49.83,49.83,0,0,1-4.93.9c-.31,1.83-.62,3.3-1,4.84A9.51,9.51,0,0,1,173.56,90c2.93,0,4.91,1.89,4.91,4.16A4.94,4.94,0,0,1,176,98.59a14.6,14.6,0,0,1-5.61,1.76,10,10,0,0,1-1.63.16c-.22,0-.38-.11-.55-.53A4,4,0,0,0,167,98.42a17.4,17.4,0,0,0,6.32-1.21c1.69-.71,2.5-1.72,2.5-3.11C175.8,93,175,92,173.3,92a7.31,7.31,0,0,0-5.79,2.73c-.2.29-.42.55-.62.84s-.22.35-.42.33a6.39,6.39,0,0,1-1.65-.49c-.35-.15-.48-.24-.48-.44a1.39,1.39,0,0,1,.09-.44c.11-.37.2-.7.28-1,.49-1.94.8-3.57,1.17-5.77-1.19.09-2.57.2-3.7.2a.37.37,0,0,1-.41-.31c-.07-.26-.22-1.18-.31-1.91,1.71,0,3.08-.07,4.77-.2C166.34,84.75,166.43,84,166.5,83.5Z"/><path d="M185.5,85.76c-1.25,0-2.59.09-3.89.18-.26,0-.35-.13-.4-.33a22.71,22.71,0,0,1-.39-2.38c1.49.11,2.7.16,4.46.16h9.44a4.91,4.91,0,0,0,1.52-.13,1.45,1.45,0,0,1,.42-.16.75.75,0,0,1,.51.31,11.63,11.63,0,0,1,1.32,1.39.61.61,0,0,1,.17.39.56.56,0,0,1-.31.46,3,3,0,0,0-.59.64,18.84,18.84,0,0,1-3.87,4.25.65.65,0,0,1-.46.2.86.86,0,0,1-.53-.22,5.07,5.07,0,0,0-1.83-.91A15.56,15.56,0,0,0,195,85.76Zm1.24,8.58a10.21,10.21,0,0,0,1.07-5.19,7.83,7.83,0,0,0-.22-2.07,25,25,0,0,1,2.84.42c.29.07.38.22.38.42a1,1,0,0,1-.11.4,1.87,1.87,0,0,0-.2.9,13.55,13.55,0,0,1-1.3,6,11.54,11.54,0,0,1-4,4.38,1.14,1.14,0,0,1-.62.22.64.64,0,0,1-.44-.2,6.34,6.34,0,0,0-2-1.12A9.8,9.8,0,0,0,186.74,94.34Z"/><path d="M207.46,86.45c.09-1.08.13-1.79.16-3a8.56,8.56,0,0,0-.16-1.73,16.91,16.91,0,0,1,2.86.46.45.45,0,0,1,.38.46,1.09,1.09,0,0,1-.11.42,2,2,0,0,0-.29,1c-.07.71-.09,1.23-.2,2.31h3.35c1,0,2,0,3.05,0,.36,0,.47.07.47.31s-.05,1.16-.09,2.33a37.47,37.47,0,0,1-.82,7.24c-.44,1.69-1.18,2.62-2.59,3a9.46,9.46,0,0,1-2.22.24.53.53,0,0,1-.53-.44,4.62,4.62,0,0,0-1.28-2,9,9,0,0,0,3-.2c.6-.2.88-.55,1.15-1.54a31.45,31.45,0,0,0,.66-6.6h-4.45a16.23,16.23,0,0,1-2,6.09,14.18,14.18,0,0,1-4.66,4.54,1,1,0,0,1-.51.17.53.53,0,0,1-.41-.22A5.65,5.65,0,0,0,200.4,98a12.26,12.26,0,0,0,5.17-4.49,12.85,12.85,0,0,0,1.58-4.75h-2c-1.08,0-2.13,0-3.17.11-.22,0-.3-.11-.33-.38-.08-.53-.13-1.32-.17-2.13,1.38.09,2.37.09,3.65.09Z"/><path d="M233,85.21c1,0,1.36-.06,1.65-.24a.52.52,0,0,1,.3-.11.72.72,0,0,1,.49.22,9.88,9.88,0,0,1,1.47,1.37.47.47,0,0,1,.16.33.76.76,0,0,1-.22.48,2.37,2.37,0,0,0-.49,1.08,24.4,24.4,0,0,1-2.77,6.47,18.25,18.25,0,0,1-5.68,5.39.61.61,0,0,1-.35.13.84.84,0,0,1-.46-.22,7.38,7.38,0,0,0-2.2-1,16,16,0,0,0,6.29-5.48,18.2,18.2,0,0,0,2.55-6.14H224.2v1.85c0,.88.05,1.78.07,2.66,0,.35-.07.42-.35.42a17.19,17.19,0,0,1-2,0c-.28,0-.35-.07-.35-.33,0-1.12,0-1.85,0-2.73V87.59c0-.7,0-1.5,0-2.13,0-.2.11-.29.31-.29,1,0,2.24.07,3.34.07h2.25v-.86a11.84,11.84,0,0,0-.22-2.93,26.17,26.17,0,0,1,2.73.33c.44.09.57.33.39.68a4.58,4.58,0,0,0-.26,1.7v1Z"/><path d="M241.78,83.83a.42.42,0,0,1,.31-.18.62.62,0,0,1,.28.11,23.15,23.15,0,0,1,4.21,3.13c.13.13.2.22.2.3a.48.48,0,0,1-.14.29c-.33.44-1,1.32-1.36,1.65-.11.11-.18.18-.27.18s-.17-.07-.28-.18a23.68,23.68,0,0,0-4.49-3.59C240.72,85,241.36,84.27,241.78,83.83Zm1.91,11.59A32.21,32.21,0,0,0,250,91.33a32.9,32.9,0,0,0,6-6,9.57,9.57,0,0,0,.62,2.58,1.19,1.19,0,0,1,.11.42c0,.2-.11.37-.36.66a35.42,35.42,0,0,1-5.06,4.66A46,46,0,0,1,244.73,98a7.87,7.87,0,0,0-1.48,1,.44.44,0,0,1-.77,0,15.37,15.37,0,0,1-1.76-2.45A12.38,12.38,0,0,0,243.69,95.42Z"/><path d="M264.68,87.94a31.54,31.54,0,0,1,7,3c.24.14.35.29.24.58a13.62,13.62,0,0,1-.94,1.91c-.09.15-.18.24-.29.24a.32.32,0,0,1-.24-.11,24.42,24.42,0,0,0-5.79-2.81V95.6c0,1.43,0,2.73.09,4.31,0,.27-.09.33-.4.33a12.69,12.69,0,0,1-2,0c-.31,0-.42-.06-.42-.33.06-1.63.09-2.92.09-4.33V84.75a17,17,0,0,0-.22-3.25,15.35,15.35,0,0,1,2.75.35c.3.06.41.2.41.37a1.16,1.16,0,0,1-.17.51,5.49,5.49,0,0,0-.16,2.07Z"/><path d="M279.12,96a3.32,3.32,0,0,0,1.82,1.84,12.49,12.49,0,0,0,4.05.42c2.84,0,6.18-.17,9.46-.5a4.28,4.28,0,0,0-.59,1.73c-.11.71-.11.71-.82.75-2.79.13-5.41.2-7.7.2a14.12,14.12,0,0,1-5.13-.59,5.93,5.93,0,0,1-2.28-2c-.69.66-1.52,1.39-2.23,2a2.21,2.21,0,0,0-.44.44.38.38,0,0,1-.33.2.42.42,0,0,1-.3-.26,20.1,20.1,0,0,1-.91-2.07,10.94,10.94,0,0,0,1.3-.68A12.94,12.94,0,0,0,277,96V91.13h-1.08c-1.19,0-1.5.05-1.61.05s-.26,0-.26-.27V89.24c0-.22,0-.24.26-.24s.42,0,1.61,0h1.39c1.16,0,1.51,0,1.65,0s.24,0,.24.24,0,.75,0,2.09Zm-3.24-14.42c.13-.08.2-.13.26-.13a.41.41,0,0,1,.22.11,17,17,0,0,1,2.76,3.28c.13.18.1.22-.14.4l-1.25,1.05c-.13.11-.2.16-.27.16s-.13-.07-.19-.18a16.51,16.51,0,0,0-2.69-3.43c-.17-.16-.13-.22.11-.4Zm13.4,9.09c1.91,0,2.79,0,2.93,0s.24,0,.24.26-.05.66-.05,1.83v1.89c0,1.19.05,1.69.05,1.82s0,.25-.24.25-1-.05-2.93-.05H284.4c-1.94,0-2.95.05-3.08.05s-.25,0-.25-.25.05-1.09.05-3V86.49c0-1.94-.05-2.95-.05-3.08s0-.27.25-.27,1.09,0,3,0h.13a12.4,12.4,0,0,0,.68-1.41,4.08,4.08,0,0,0,.31-1.1,18.35,18.35,0,0,1,2.27.35c.17,0,.28.16.28.27a.35.35,0,0,1-.17.33,1.25,1.25,0,0,0-.4.46c-.15.33-.33.7-.55,1.1h1.78c1.79,0,2.62,0,2.75,0s.25,0,.25.27-.05.64-.05,1.78V87c0,1.15.05,1.67.05,1.81s0,.24-.25.24-1,0-2.75,0h-5.3v1.72Zm.11-5.63h-6v2h6Zm.79,7.5h-6.82v2.22h6.82Z"/><path d="M301.07,87.33a35.87,35.87,0,0,1-.9,6.38,16.76,16.76,0,0,1-2.95,6.36c-.2.24-.31.37-.42.37s-.2-.11-.37-.37A6.4,6.4,0,0,0,295,98.5,13.4,13.4,0,0,0,298,92.89a25.14,25.14,0,0,0,.81-5.56h-.28c-1.87,0-2.51,0-2.64,0s-.25,0-.25-.24V85.48c0-.22,0-.22.25-.22s.77,0,2.64,0h.35c0-.42,0-.86,0-1.34a25.49,25.49,0,0,0-.15-3.1c.79,0,1.58.06,2.37.13.22,0,.33.13.33.24a5.9,5.9,0,0,1-.15.61,11.29,11.29,0,0,0-.11,2.18c0,.44,0,.86,0,1.28h1.43c1.89,0,2.53,0,2.66,0s.26,0,.26.24c0,.75,0,1.39,0,2.09a72.2,72.2,0,0,1-.64,10.25,2.52,2.52,0,0,1-2.79,2.47,9.56,9.56,0,0,1-1.21,0c-.57,0-.57,0-.64-.74a6.08,6.08,0,0,0-.4-1.59,9.28,9.28,0,0,0,1.83.18c.61,0,.88-.24,1.06-1.37a76,76,0,0,0,.57-9.41Zm13.67,5.52c0,5.74,0,6.89,0,7s0,.26-.24.26h-1.85c-.2,0-.22,0-.22-.26v-1.5h-3.26V100c0,.25,0,.27-.26.27h-1.78c-.25,0-.27,0-.27-.27s.05-1.29.05-7.1v-4c0-4-.05-5.23-.05-5.39s0-.24.27-.24.68,0,2.28,0h2.8c1.6,0,2.16,0,2.29,0s.24,0,.24.24,0,1.34,0,4.75Zm-5.53-7.39V96.28h3.26V85.46Z"/><path d="M334.25,95.82c0,1,0,2,0,2.73a2,2,0,0,1-.75,1.87,5.73,5.73,0,0,1-2.92.48c-.66,0-.68,0-.84-.68a4.61,4.61,0,0,0-.68-1.65,15.43,15.43,0,0,0,2.35,0c.49,0,.62-.19.62-.68V93.57h-4.33c-2.09,0-2.8.05-2.93.05s-.24,0-.24-.24V92.25a2.62,2.62,0,0,1-.42.22c-.49.27-1,.51-1.54.77v3.68c0,2.51,0,3.76,0,3.87s0,.24-.26.24h-1.76c-.22,0-.24,0-.24-.24s0-1.36,0-3.85V94.26l-1.54.66a2.05,2.05,0,0,0-.73.44.5.5,0,0,1-.37.19c-.15,0-.24,0-.33-.24a22.34,22.34,0,0,1-.73-2.13,10.7,10.7,0,0,0,2-.6c.55-.17,1.1-.37,1.65-.59V87.48h-1.3a22.64,22.64,0,0,1-.5,2.53c-.09.37-.14.53-.27.53a1.42,1.42,0,0,1-.5-.22,8,8,0,0,0-1.21-.44,24.35,24.35,0,0,0,.92-5.77,11.07,11.07,0,0,0,0-1.4c.57.06,1.23.15,1.78.26.26.07.35.13.35.26a.72.72,0,0,1-.11.36,2.62,2.62,0,0,0-.11.74l-.09,1.08h1.06V84.18a22.17,22.17,0,0,0-.18-3.32c.84,0,1.5.06,2.27.15.22,0,.35.11.35.22a1.1,1.1,0,0,1-.13.46,9.19,9.19,0,0,0-.13,2.45v1.27c1.21,0,1.67,0,1.78,0s.27,0,.27.22v1.69c0,.13,0,.2-.07.22.17,0,.92,0,2.93,0h1.6V85.34h-.9c-2,0-2.6,0-2.73,0s-.26,0-.26-.24V83.59c0-.22,0-.25.26-.25s.77,0,2.73,0h.9a11.86,11.86,0,0,0-.2-2.51c.86,0,1.54.09,2.31.17.22,0,.36.09.36.22a1.12,1.12,0,0,1-.14.45,5.26,5.26,0,0,0-.15,1.67h1.54c2,0,2.64,0,2.77,0s.24,0,.24.25v1.56c0,.22,0,.24-.24.24s-.79,0-2.77,0H331.3v2.21h2.42c2.09,0,2.82,0,2.93,0s.24,0,.24.22v1.56c0,.22,0,.25-.24.25s-.84,0-2.93,0h-6.2c-2.12,0-2.84,0-3,0s-.24,0-.24-.25V87.72c0-.11,0-.15.05-.2l-1.74,0v3.59c.64-.31,1.32-.62,2-1,0,.41,0,1,.07,1.45h.11c.13,0,.84,0,2.93,0h4.33a8.27,8.27,0,0,0-.15-1.76,20.27,20.27,0,0,1,2.24.24c.22,0,.35.16.35.27a.66.66,0,0,1-.13.37,1.71,1.71,0,0,0-.13.88c1.63,0,2.24,0,2.35,0s.24,0,.24.24v1.61c0,.22,0,.24-.24.24l-2.35-.05Zm-7.15-1.54c.24-.13.31-.13.46,0a17.88,17.88,0,0,1,2.13,2.55c.14.2.11.24-.13.42l-1.32,1c-.13.08-.2.13-.26.13s-.11-.07-.16-.18a13.56,13.56,0,0,0-2-2.75c-.15-.2-.13-.24.11-.39Z"/><path d="M341.24,95.89c-1.91,0-2.57,0-2.7,0s-.22,0-.22-.24V94c0-.22,0-.24.22-.24s.66,0,2.06,0V86.86c0-1.67,0-2.5,0-2.66s0-.24.22-.24.9,0,3.06,0H345v-.63a11.3,11.3,0,0,0-.18-2.38c.81,0,1.47.06,2.22.15.2,0,.33.09.33.22a1.1,1.1,0,0,1-.13.46,4.77,4.77,0,0,0-.11,1.41V84h2.25v-.63a11.55,11.55,0,0,0-.16-2.38,21.94,21.94,0,0,1,2.22.15c.2,0,.33.09.33.22a1.1,1.1,0,0,1-.13.46,4.77,4.77,0,0,0-.11,1.41V84h1.34c2.14,0,2.91,0,3,0s.22,0,.22.24,0,1,0,2.66v6.93c1.32,0,1.84,0,1.95,0s.22,0,.22.24v1.7c0,.22,0,.24-.22.24s-.79,0-2.7,0ZM343.6,97a7.13,7.13,0,0,0,1-.93,14.3,14.3,0,0,1,1.79,1c.22.15.28.26.28.42s-.13.24-.35.31a3.67,3.67,0,0,0-1.06.66,16.7,16.7,0,0,1-4.66,2.37,2.13,2.13,0,0,1-.51.11c-.2,0-.28-.13-.5-.5a5.93,5.93,0,0,0-1.08-1.35A16.27,16.27,0,0,0,343.6,97ZM345,88.8V86h-2.2V88.8Zm0,5v-3.1h-2.2v3.1Zm4.38-5V86h-2.25V88.8Zm0,5v-3.1h-2.25v3.1Zm1.89,2.54c.13-.09.2-.14.24-.14s.11,0,.2.11A16.36,16.36,0,0,0,357.83,99a6.4,6.4,0,0,0-1.05,1.47c-.2.4-.29.55-.47.55a1.38,1.38,0,0,1-.48-.13,16.93,16.93,0,0,1-5.9-3.19c-.17-.18-.08-.24.11-.4ZM351.54,86V88.8h2.35V86Zm2.35,7.78v-3.1h-2.35v3.1Z"/><path d="M369.91,84.66c.2-.06.29-.06.33.18a11.68,11.68,0,0,1,.2,1.78c0,.2-.09.24-.27.27-1.18.24-2.26.39-3.63.59a59.7,59.7,0,0,1-4.29,9.44c-.09.15-.15.22-.24.22a.72.72,0,0,1-.26-.11,10.32,10.32,0,0,1-1.52-1.12c-.11-.09-.16-.16-.16-.24a.48.48,0,0,1,.11-.27A44.5,44.5,0,0,0,364,87.72c-.83,0-1.52,0-2.2,0-.48,0-.66,0-1.21,0-.22,0-.26-.06-.31-.35a12.18,12.18,0,0,1-.22-1.87c.9.07,1.41.09,2.05.09.86,0,1.52,0,2.53-.11.26-.92.42-1.67.57-2.46a8.78,8.78,0,0,0,.13-1.79,21.25,21.25,0,0,1,2.58.47c.22,0,.35.17.35.33a.54.54,0,0,1-.2.41,2.51,2.51,0,0,0-.35.82c-.15.52-.33,1.21-.53,1.87A23.7,23.7,0,0,0,369.91,84.66Zm.62,5.9a8.49,8.49,0,0,0-.18-1.56,11.9,11.9,0,0,1,2.4.42.33.33,0,0,1,.31.35,3,3,0,0,1-.14.46,2.29,2.29,0,0,0-.08.9,27.94,27.94,0,0,0,.24,3.74,17.63,17.63,0,0,1,4,2c.22.15.24.24.13.46a14.11,14.11,0,0,1-1,1.78c-.07.11-.13.16-.2.16s-.13,0-.22-.13a16.41,16.41,0,0,0-2.68-1.85c0,2.2-1.59,3.21-4.1,3.21s-4-1.23-4-3.12,1.59-3.22,4.08-3.22a11.23,11.23,0,0,1,1.73.13C370.59,92.94,370.55,91.59,370.53,90.56ZM369,96.1c-1.1,0-1.95.45-1.95,1.28s.61,1.06,1.87,1.06,1.91-.64,1.91-1.56a3,3,0,0,0,0-.45A5.78,5.78,0,0,0,369,96.1Zm4.1-10.58c.13-.22.24-.24.46-.15a17,17,0,0,1,4.31,2.07c.13.08.2.15.2.24a.5.5,0,0,1-.09.26,13.85,13.85,0,0,1-.92,1.63c-.07.11-.14.15-.2.15a.32.32,0,0,1-.2-.08,19.06,19.06,0,0,0-4.55-2.4C372.44,86.58,372.77,85.92,373.06,85.52Z"/><path d="M386.41,82.26c.26.07.4.18.4.36s-.16.61-.16.92.07,1,.11,1.48a30.25,30.25,0,0,0,.71,3.78l3.12-1.67a5.51,5.51,0,0,0,1.52-1.19,11.62,11.62,0,0,1,1.6,2.07.88.88,0,0,1,.16.46c0,.22-.13.4-.44.44a10.21,10.21,0,0,0-2.11.66,30,30,0,0,0-5.17,2.57c-1.92,1.26-2.6,2.29-2.6,3.33,0,1.27.9,1.84,3.65,1.84a39,39,0,0,0,6.56-.5c.24,0,.35,0,.39.26a18.65,18.65,0,0,1,.22,2.05c0,.24-.13.35-.39.37a46.1,46.1,0,0,1-6.56.33c-4.16,0-6.36-1.36-6.36-4.22,0-2.44,1.61-4,4.18-5.68a34,34,0,0,1-1.14-5.37,9.94,9.94,0,0,0-.57-2.55A13.22,13.22,0,0,1,386.41,82.26Zm7.19.27c.11-.09.2-.07.33,0a10.06,10.06,0,0,1,2.1,2.36.23.23,0,0,1-.07.35L395,86a.23.23,0,0,1-.37-.06,10.87,10.87,0,0,0-2.22-2.56Zm2-1.43c.14-.09.2-.07.33,0A9.08,9.08,0,0,1,398,83.41a.25.25,0,0,1-.06.39l-.88.69a.23.23,0,0,1-.38-.07,10.12,10.12,0,0,0-2.2-2.53Z"/><path d="M409.75,96.08c0,.25-.13.35-.42.4a12.45,12.45,0,0,1-1.56.11c-.2,0-.28-.13-.28-.35,0-.8,0-1.9,0-2.69-2,1-2.66,1.87-2.66,2.93s.74,1.52,3,1.52a37.79,37.79,0,0,0,5.48-.44c.2,0,.29,0,.31.24a9.82,9.82,0,0,1,.2,1.8c0,.27-.07.42-.24.42a39.58,39.58,0,0,1-5.46.29c-3.61,0-5.52-1.08-5.52-3.63,0-2.12,1.32-3.66,4.64-5.37-.07-1.12-.33-1.56-1.32-1.52a5.32,5.32,0,0,0-3,1.58c-.94.93-1.49,1.57-2.2,2.4-.11.13-.17.2-.26.2a.43.43,0,0,1-.24-.15A10.36,10.36,0,0,1,399,92.36a.35.35,0,0,1-.08-.19.31.31,0,0,1,.15-.25,22.48,22.48,0,0,0,4.6-5.45c-1,0-2.22.06-3.52.06-.2,0-.27-.11-.31-.35s-.16-1.16-.22-1.82a50.24,50.24,0,0,0,5.06,0,17,17,0,0,0,.66-1.89,5.27,5.27,0,0,0,.15-1.34,13.47,13.47,0,0,1,2.51.62.38.38,0,0,1,.27.37.44.44,0,0,1-.16.33,1.76,1.76,0,0,0-.37.53c-.13.31-.24.59-.51,1.19a36.52,36.52,0,0,0,4-.69c.24,0,.3,0,.35.22a7.33,7.33,0,0,1,.22,1.59c0,.22-.07.31-.38.35-1.65.24-3.54.48-5.14.66a23.29,23.29,0,0,1-1.65,2.44l0,.05a4.29,4.29,0,0,1,2.2-.69,2.43,2.43,0,0,1,2.68,2.38c.86-.4,2.11-1,3.24-1.54a6.64,6.64,0,0,0,1.67-1.19A13.6,13.6,0,0,1,416,89.66a.9.9,0,0,1,.18.48c0,.18-.11.27-.34.31a7.71,7.71,0,0,0-1.34.33c-1.43.51-2.86,1-4.73,1.76Z"/><path d="M422.38,88.34a36.52,36.52,0,0,1-.62,7.06,14.86,14.86,0,0,1-1.76,4.86c-.15.29-.24.42-.35.42s-.22-.11-.44-.35a7.52,7.52,0,0,0-1.47-1.23,12.21,12.21,0,0,0,1.8-4.6,33.87,33.87,0,0,0,.51-6.58c0-2.75-.05-4-.05-4.14s0-.24.24-.24.91,0,3,0h4.38v-1a8.74,8.74,0,0,0-.14-1.78c.84,0,1.57.06,2.34.13.22,0,.35.09.35.22a.89.89,0,0,1-.13.42,2,2,0,0,0-.16.94v1h4.47c2.09,0,2.82,0,2.95,0s.22,0,.22.24v1.68c0,.24,0,.26-.22.26s-.86,0-2.95,0h-12Zm10.21,3.56c.28-.13.33-.15.46,0a51.41,51.41,0,0,1,4.23,7.35c.08.22.06.3-.2.44l-1.63.85c-.26.14-.38.07-.46-.15-.29-.66-.57-1.32-.88-2-2.84.51-6.65,1.08-10.26,1.47a2.21,2.21,0,0,0-.81.25.76.76,0,0,1-.35.13c-.16,0-.24-.09-.33-.33-.18-.62-.35-1.41-.53-2.29a24.36,24.36,0,0,0,2.51,0,62.58,62.58,0,0,0,2.75-8.71,10.58,10.58,0,0,0,.28-2,21.35,21.35,0,0,1,2.45.66c.3.08.37.19.37.37a.68.68,0,0,1-.2.44,3,3,0,0,0-.55,1.23,68.86,68.86,0,0,1-2.62,7.81c2.16-.24,4.36-.52,6.32-.88A36.44,36.44,0,0,0,431,93c-.11-.18-.08-.26.18-.4Z"/><path d="M442.75,91c-2,0-2.64,0-2.77,0s-.24,0-.24-.25V89.15c0-.22,0-.24.24-.24s.81,0,2.77,0h5.61V86.23h-3.78a16.39,16.39,0,0,1-1.37,1.8c-.22.26-.35.42-.46.42s-.26-.13-.51-.38a6.69,6.69,0,0,0-1.42-1,14.33,14.33,0,0,0,2.94-4,8,8,0,0,0,.55-1.57c.69.2,1.41.46,1.94.66.31.11.46.22.46.38s-.11.24-.24.35a1.43,1.43,0,0,0-.37.59,7.36,7.36,0,0,1-.36.75h2.62v-.53a19,19,0,0,0-.13-2.83c.84,0,1.76.06,2.49.15.22,0,.35.11.35.24a1.29,1.29,0,0,1-.13.44,5.67,5.67,0,0,0-.14,1.65v.88h3.11c2.11,0,2.86,0,3,0s.22,0,.22.24V86c0,.22,0,.24-.22.24s-.88,0-3,0H450.8V89h5.31c2,0,2.64,0,2.77,0s.26,0,.26.24v1.67c0,.22,0,.25-.26.25s-.81,0-2.77,0Zm.2,10c-.22,0-.24,0-.24-.24s0-.69,0-3.64V95.44c0-1.67,0-2.24,0-2.39s0-.25.24-.25.9,0,3,0h7.11c2.13,0,2.88,0,3,0s.24,0,.24.25,0,.72,0,2.06V97c0,2.95,0,3.5,0,3.63s0,.22-.24.22h-1.9c-.22,0-.24,0-.24-.22v-.79h-8.89v.88c0,.22,0,.24-.26.24Zm2.13-3.13H454v-3h-8.89Z"/><path d="M471.48,86.05c-2.68.51-5,1-7.39,1.45-.83.2-1.06.24-1.39.35a1.17,1.17,0,0,1-.48.18.52.52,0,0,1-.42-.33,16.1,16.1,0,0,1-.81-2.38,29.9,29.9,0,0,0,3.5-.37c2.7-.4,7.54-1.12,13.22-1.87.33,0,.44.09.46.24a13.65,13.65,0,0,1,.25,1.94c0,.26-.14.33-.42.33a9.55,9.55,0,0,0-2.69.48c-3.74,1.28-5.61,3.85-5.61,6.49,0,2.84,2,4.38,5.86,4.62.35,0,.48.09.48.33a8,8,0,0,1-.24,1.9c-.07.33-.16.46-.42.46-3.87,0-8.12-2.23-8.12-6.8,0-3.13,1.56-5.24,4.22-7Zm4.36,2.38c.11-.09.2-.07.33,0a10.17,10.17,0,0,1,2.09,2.35.23.23,0,0,1-.06.36l-.93.68c-.15.11-.26.09-.37-.07a10.85,10.85,0,0,0-2.23-2.55Zm2-1.43c.13-.09.2-.07.33,0a9.27,9.27,0,0,1,2.09,2.27.25.25,0,0,1-.07.39l-.88.68c-.17.14-.28.07-.37-.06a10.33,10.33,0,0,0-2.2-2.53Z"/><path d="M484.66,83.52c-1.91,0-2.55,0-2.68,0s-.22,0-.22-.24V81.76c0-.22,0-.24.22-.24s.77,0,2.68,0h4.4c1.89,0,2.56,0,2.69,0s.24,0,.24.24v1.56c0,.22,0,.24-.24.24s-.8,0-2.69,0h-.17v2.11c1.54,0,2.09,0,2.24,0s.24,0,.24.22,0,1.14,0,4.16v4.09c0,5,0,6,0,6.16s0,.24-.24.24h-1.34c-.24,0-.27,0-.27-.24v-.73h-5.23v1.13c0,.22,0,.24-.22.24h-1.39c-.22,0-.24,0-.24-.24s0-1.15,0-6.32V90.56c0-3.59,0-4.62,0-4.75s0-.22.24-.22.71,0,2.25,0V83.52Zm1.83,3.85c0,.81,0,1.74-.09,2.46a9.89,9.89,0,0,1-.92,3.35c-.07.13-.16.2-.22.2s-.18-.09-.27-.29a2.72,2.72,0,0,0-.7-1v2.07h5.23V92.34h-.81c-.62,0-.88-.06-1.08-.24s-.33-.51-.33-1.25V87.37Zm-2.2,4.51a5.08,5.08,0,0,0,.79-2.62c0-.53,0-1.23,0-1.89h-.83Zm5.23,5.72V96h-5.23V97.6Zm-2.22-12V83.52h-.81v2.11Zm1.41,1.74v2.29c0,.5,0,.64.07.75s.19.15.41.15h.33V87.37Zm4.11-5.59c0-.22,0-.24.25-.24s.66,0,2.29,0h2.81c1.63,0,2.18,0,2.31,0s.27,0,.27.24-.05.79-.05,2.36v5c0,1.56.05,2.22.05,2.35s0,.24-.27.24h-1.76c-.22,0-.24,0-.24-.24v-.75h-3.43v6.38c0,.51,0,.82.19,1s.67.29,1.66.29,1.71-.09,2-.44.42-1.1.51-2.88a5.12,5.12,0,0,0,1.49.61c.69.2.69.2.64.88-.13,2-.55,2.69-1.08,3.17s-1.62.79-3.69.79-3-.15-3.44-.57a2.1,2.1,0,0,1-.55-1.76V91.31c0-1.59,0-2.38,0-2.51s0-.26.26-.26.78,0,2.1,0h3.34V83.72h-3.12c-1.63,0-2.16,0-2.29,0s-.25,0-.25-.22Z"/><path d="M505.12,89.64a21.54,21.54,0,0,1-1.3,1.76c-.15.19-.28.28-.39.28s-.18-.13-.25-.37a6.61,6.61,0,0,0-.7-1.89,21,21,0,0,0,3.81-7.09,7.3,7.3,0,0,0,.37-1.58,16.05,16.05,0,0,1,2,.59c.26.09.37.2.37.33a.65.65,0,0,1-.24.4,2.5,2.5,0,0,0-.44.92c-.31.88-.66,1.78-1.06,2.69v11.7c0,2.16.05,3.24.05,3.35s0,.24-.25.24H505.3c-.2,0-.22,0-.22-.24s0-1.19,0-3.35Zm6.67-2.8c-2.18,0-2.91,0-3,0s-.24,0-.24-.27V85.08c0-.24,0-.26.24-.26s.86,0,3,0h7.92c2.16,0,2.88,0,3,0s.27,0,.27.26v1.54c0,.24,0,.27-.27.27s-.85,0-3,0ZM510,100.9c-.22,0-.24,0-.24-.24s0-.66,0-2.93V96.24c0-1.3,0-1.83,0-2s0-.22.24-.22.86,0,2.88,0h5.26c2,0,2.71,0,2.84,0s.24,0,.24.22,0,.66,0,1.69v1.72c0,2.22,0,2.77,0,2.9s0,.22-.24.22h-1.83c-.22,0-.24,0-.24-.22v-.66h-6.89v.73c0,.22,0,.24-.24.24Zm3.19-17.25c-2,0-2.62,0-2.75,0s-.24,0-.24-.25V82c0-.22,0-.24.24-.24s.79,0,2.75,0H518c1.94,0,2.58,0,2.71,0s.26,0,.26.24v1.47c0,.22,0,.25-.26.25s-.77,0-2.71,0Zm0,6.21c-1.94,0-2.6,0-2.73,0s-.24,0-.24-.22V88.23c0-.22,0-.24.24-.24s.79,0,2.73,0h4.55c1.94,0,2.58,0,2.71,0s.24,0,.24.24v1.45c0,.2,0,.22-.24.22s-.77,0-2.71,0Zm0,3c-1.94,0-2.6,0-2.73,0s-.24,0-.24-.25V91.26c0-.22,0-.24.24-.24s.79,0,2.73,0h4.55c1.94,0,2.58,0,2.71,0s.24,0,.24.24v1.43c0,.22,0,.25-.24.25s-.77,0-2.71,0Zm-1.19,5.17h6.89V96h-6.89Z"/><path d="M529.3,82.29c.37.09.53.19.53.42a2.07,2.07,0,0,1-.22.72,13.15,13.15,0,0,0-.31,2.69c-.22,3.38-.33,5.63-.33,8.51,0,2.22.26,2.73,2,2.73,2,0,5-1.19,7.71-4a7.37,7.37,0,0,0,.5,2.09,1.48,1.48,0,0,1,.18.53c0,.2-.09.37-.44.68a12.57,12.57,0,0,1-8.34,3.3c-2.82,0-4.14-1.12-4.14-4.49,0-3.69.2-6.86.31-9.5a14.81,14.81,0,0,0-.22-4A21.91,21.91,0,0,1,529.3,82.29Z"/><path d="M548.71,85.94c-2.69.51-5,1-7.4,1.45-.83.2-1,.24-1.38.35a1.26,1.26,0,0,1-.49.18.52.52,0,0,1-.42-.33,16.1,16.1,0,0,1-.81-2.38,29.9,29.9,0,0,0,3.5-.37c2.7-.4,7.55-1.12,13.22-1.87.33,0,.44.09.46.24a13.65,13.65,0,0,1,.25,1.94c0,.26-.14.33-.42.33a9.55,9.55,0,0,0-2.69.48c-3.74,1.28-5.61,3.85-5.61,6.49,0,2.84,2,4.38,5.86,4.62.35,0,.48.09.48.33a8.11,8.11,0,0,1-.24,1.9c-.07.33-.16.46-.42.46-3.87,0-8.12-2.22-8.12-6.8,0-3.13,1.56-5.24,4.23-7Z"/><path d="M155,121.79a36.1,36.1,0,0,1-4.53-.09c-.24,0-.33-.08-.35-.37a12.77,12.77,0,0,1-.13-1.87,31.44,31.44,0,0,0,4.95.18c0-.84,0-1.7-.05-2.53a37.88,37.88,0,0,1-5.25-.11c-.25,0-.36-.09-.38-.31-.06-.55-.11-1.08-.15-2a50.25,50.25,0,0,0,5.76.22c0-.82,0-1.39,0-2.14a6,6,0,0,0-.27-1.47,12.88,12.88,0,0,1,2.78.4.45.45,0,0,1,.24.66,2.64,2.64,0,0,0-.33,1.05c0,.44,0,.75,0,1.41a36.82,36.82,0,0,0,4.81-.66c.27-.07.36,0,.38.26a11.49,11.49,0,0,1,.11,1.61c0,.29-.07.33-.24.35a43.42,43.42,0,0,1-5.09.57c0,.88,0,1.7,0,2.49,1.67-.11,2.72-.33,4.31-.57.26-.07.33,0,.35.17,0,.42.07,1.15.07,1.81,0,.22-.09.28-.33.31a40.36,40.36,0,0,1-4.32.52c.05,1,.09,2.09.16,3.11a19.5,19.5,0,0,1,5.83,2.66c.22.2.22.26.15.53a6.32,6.32,0,0,1-1,1.63.3.3,0,0,1-.28.17.31.31,0,0,1-.24-.11,18.1,18.1,0,0,0-4.38-2.51c0,2.38-1.45,3.35-4.47,3.35-2.86,0-4.49-1.26-4.49-3.08s1.74-3.13,4.4-3.13a21.06,21.06,0,0,1,2.12.09C155.1,123.44,155.06,122.54,155,121.79Zm-1.89,4.45c-1.6,0-2.37.46-2.37,1.16s.66,1,2.17,1a2.73,2.73,0,0,0,2-.66,2.14,2.14,0,0,0,.24-1.23A9.76,9.76,0,0,0,153.14,126.24Z"/><path d="M177,114.75c.24-.06.33,0,.35.22.07.49.13,1.12.16,1.59,0,.28,0,.35-.33.41a34.22,34.22,0,0,1-3.83.84c-1.5,4.88-2.62,8.25-4,11.9-.11.31-.24.29-.48.22s-1.3-.55-1.76-.81a.35.35,0,0,1-.18-.44,83.51,83.51,0,0,0,3.81-10.43c-1.28.13-2.82.24-3.85.24-.33,0-.42-.06-.47-.35-.08-.46-.19-1.21-.3-2a11,11,0,0,0,1.62.06,28.68,28.68,0,0,0,3.57-.22c.22-.88.39-1.84.55-2.75a14.8,14.8,0,0,0,.13-2,13.35,13.35,0,0,1,2.77.61.38.38,0,0,1,.25.36.5.5,0,0,1-.12.35,4.6,4.6,0,0,0-.46.88c-.22.79-.37,1.54-.53,2.09C174.7,115.34,175.89,115.06,177,114.75Zm-.86,10.52c.22,0,.31.09.33.31.18,1.6,1.26,2.06,3.37,2.06a33,33,0,0,0,3.69-.3c.18,0,.25,0,.27.2a13.42,13.42,0,0,1,.17,1.91c0,.26,0,.33-.35.35a24.4,24.4,0,0,1-3.06.24c-2.81,0-4.31-.39-5.3-1.43a4.27,4.27,0,0,1-1-3A10.7,10.7,0,0,1,176.11,125.27Zm-.24-5.83c0-.31.07-.38.4-.44a22.57,22.57,0,0,1,4.29-.51,16.28,16.28,0,0,1,2.57.22c.31.05.37.07.37.33a14.62,14.62,0,0,1,0,1.76c0,.38-.11.46-.42.4a14.18,14.18,0,0,0-2.73-.27,24,24,0,0,0-4.42.51C175.91,120.67,175.87,119.88,175.87,119.44Zm5.08-6.27c.11-.09.2-.07.33,0a10,10,0,0,1,2.09,2.36.22.22,0,0,1-.06.35l-.93.68c-.15.11-.26.09-.37-.07a11.26,11.26,0,0,0-2.22-2.55Zm2-1.43c.13-.09.2-.07.33,0a9.27,9.27,0,0,1,2.09,2.27.25.25,0,0,1-.07.39l-.88.69c-.17.13-.28.06-.37-.07a10.33,10.33,0,0,0-2.2-2.53Z"/><path d="M191.05,118a38.31,38.31,0,0,1-.49,7.08,17.44,17.44,0,0,1-1.76,5.07c-.15.28-.24.44-.35.44s-.22-.14-.44-.36a7.88,7.88,0,0,0-1.47-1.29,14.22,14.22,0,0,0,1.8-4.8,33.9,33.9,0,0,0,.46-6.58c0-2.77,0-4,0-4.16s0-.24.22-.24.88,0,3,0h4.18v-.72a9.13,9.13,0,0,0-.13-1.79c.81,0,1.58.07,2.33.14.22,0,.35.11.35.24a.72.72,0,0,1-.13.42,2,2,0,0,0-.15.94v.77h4.75c2.09,0,2.8,0,2.95,0s.22,0,.22.24v1.63c0,.22,0,.24-.22.24s-.86,0-2.95,0h-12.1Zm1.38,12.81c-.22,0-.24,0-.24-.25s.05-.66.05-3.52v-1.6c0-1.59-.05-2.14-.05-2.29s0-.24.24-.24.86,0,2.93,0h1.28v-4.44a19.28,19.28,0,0,0-.13-2.67,21.08,21.08,0,0,1,2.24.16c.22,0,.37.11.37.22a1,1,0,0,1-.13.48,5.12,5.12,0,0,0-.15,1.7v.13h3.67c2.07,0,2.8,0,2.93,0s.24,0,.24.25v1.62c0,.22,0,.25-.24.25s-.86,0-2.93,0h-3.67V123h2.4c2.09,0,2.81,0,2.94,0s.25,0,.25.24-.05.7-.05,2V127c0,2.81.05,3.36.05,3.49s0,.22-.25.22h-1.76c-.22,0-.24,0-.24-.22v-.55h-7.81v.66c0,.22,0,.25-.24.25Zm1.94-2.91h7.81v-3h-7.81Z"/><path d="M225.46,113.19a13.08,13.08,0,0,0-1.1-1.47c-.13-.16-.11-.2.13-.33l.92-.45c.22-.1.29-.1.44,0a11.51,11.51,0,0,1,1.24,1.49c.13.18.11.25-.14.38l-.61.33c.92,0,1.32,0,1.43,0s.26,0,.26.25v1.54c0,.22,0,.24-.26.24s-.79,0-2.77,0h-1.63v1.65h1.25c1.89,0,2.55,0,2.71,0s.24,0,.24.27,0,1.16,0,3.19v5c0,1.3,0,2.73,0,3.43a2,2,0,0,1-.51,1.65,2.83,2.83,0,0,1-1.82.42c-.66,0-.71,0-.77-.55a4.31,4.31,0,0,0-.44-1.49,9.87,9.87,0,0,0,1,.06c.4,0,.49,0,.49-.5v-2.47h-2.18v1.5c0,2,0,3.08,0,3.23s0,.22-.22.22h-1.56c-.24,0-.26,0-.26-.22s0-1.21,0-3.23v-1.5h-2v1.78c0,2,0,3,0,3.13s0,.22-.24.22h-1.54c-.24,0-.26,0-.26-.22s0-1.12,0-3.21V120c0-2,0-2.88,0-3s0-.27.26-.27.79,0,2.71,0h1v-1.65h-1.3c-2,0-2.66,0-2.79,0s-.25,0-.25-.24v-.33a4.79,4.79,0,0,0-.81,1.19c-.15.33-.22.5-.35.5s-.24-.11-.46-.28a13.9,13.9,0,0,1-2.6-2.67,17.49,17.49,0,0,1-3.85,4.21c-.2.15-.33.24-.44.24s-.18-.16-.29-.49a4.15,4.15,0,0,0-.66-1.43,13.25,13.25,0,0,0,3.79-4.22,4.82,4.82,0,0,0,.35-.86,17.26,17.26,0,0,1,2.07.46c.28.09.44.16.44.29s-.11.22-.29.28a10.75,10.75,0,0,0,3.1,2.6v-1c0-.22,0-.25.25-.25s.81,0,2.79,0h1.3a19,19,0,0,0-.18-2.4c.86,0,1.43.09,2.05.15.26,0,.35.11.35.23a1.19,1.19,0,0,1-.13.46,5,5,0,0,0-.13,1.56Zm-14.52,9.37c-1.7,0-2.27,0-2.4,0s-.24,0-.24-.25v-1.43c0-.22,0-.24.24-.24s.7,0,2.4,0h.85v-1.65h-.19c-1.43,0-1.76,0-1.9,0s-.26,0-.26-.24v-1.37c0-.24,0-.26.26-.26s.47,0,1.9,0h.19a10.66,10.66,0,0,0-.17-2.09c.77,0,1.52.09,2.09.16.22,0,.35.11.35.22a1.22,1.22,0,0,1-.13.46,2.76,2.76,0,0,0-.13,1.25h0c1.43,0,1.87,0,2,0s.24,0,.24.26v1.37c0,.22,0,.24-.24.24s-.57,0-2,0h0v1.65h.37c1.7,0,2.27,0,2.4,0s.22,0,.22.24v1.43c0,.22,0,.25-.22.25s-.7,0-2.4,0Zm.33,8.06c0,.19,0,.22-.25.22H209.4c-.22,0-.25,0-.25-.22s0-.62,0-3.22V126c0-1.32,0-1.85,0-2s0-.26.25-.26.61,0,2.11,0h2.26c1.5,0,2,0,2.12,0s.24,0,.24.26,0,.62,0,1.59v1.6c0,2.47,0,2.95,0,3.08s0,.25-.24.25H214.3c-.22,0-.24,0-.24-.25v-.61h-2.79Zm0-5v2.29h2.79v-2.29Zm10.14-5.2v-1.82h-2v1.82Zm0,3.63v-1.89h-2V124Zm2-5.45v1.82h2.18v-1.82Zm2.18,5.45v-1.89h-2.18V124Z"/><path d="M240.88,126.08c0,.25-.13.35-.42.4a12.45,12.45,0,0,1-1.56.11c-.2,0-.29-.13-.29-.35,0-.8,0-1.9,0-2.69-2,1-2.67,1.87-2.67,2.93S236.72,128,239,128a37.79,37.79,0,0,0,5.48-.44c.2,0,.29,0,.31.24a9.82,9.82,0,0,1,.2,1.8c0,.27-.07.42-.25.42a39.34,39.34,0,0,1-5.45.29c-3.61,0-5.53-1.08-5.53-3.63,0-2.12,1.33-3.66,4.65-5.37-.07-1.12-.33-1.56-1.32-1.52a5.27,5.27,0,0,0-3,1.58,30.2,30.2,0,0,0-2.2,2.4c-.11.13-.18.2-.26.2a.49.49,0,0,1-.25-.15,11,11,0,0,1-1.25-1.46.31.31,0,0,1-.09-.19c0-.09.05-.16.16-.25a22.23,22.23,0,0,0,4.59-5.45c-1,0-2.22.06-3.52.06-.19,0-.26-.11-.3-.35s-.16-1.16-.22-1.82a50.26,50.26,0,0,0,5.06,0,17,17,0,0,0,.66-1.89,5.77,5.77,0,0,0,.15-1.34,13.47,13.47,0,0,1,2.51.62.37.37,0,0,1,.26.37.42.42,0,0,1-.15.33,1.76,1.76,0,0,0-.37.53c-.14.31-.25.59-.51,1.19a36.35,36.35,0,0,0,4-.69c.25,0,.31,0,.36.22a8,8,0,0,1,.22,1.59c0,.22-.07.31-.38.35-1.65.24-3.54.48-5.15.66a21.83,21.83,0,0,1-1.65,2.44l0,.05a4.29,4.29,0,0,1,2.2-.69,2.43,2.43,0,0,1,2.68,2.38c.86-.4,2.11-1,3.23-1.54a6.67,6.67,0,0,0,1.68-1.19,14.38,14.38,0,0,1,1.54,1.94.87.87,0,0,1,.17.48c0,.18-.11.27-.33.31a7.71,7.71,0,0,0-1.34.33c-1.43.51-2.86,1-4.73,1.76Z"/><path d="M254.56,114.69c1.68,0,2.22,0,2.36,0s.24,0,.24.24v1.57c0,.24,0,.26-.24.26s-.68,0-2.36,0h-2.75c-1.67,0-2.22,0-2.35,0s-.22,0-.22-.26v-1.57c0-.22,0-.24.22-.24s.68,0,2.35,0Zm7.77,6.73c-.4,3.67-1.36,6.6-3.61,9-.22.24-.35.35-.46.35s-.22-.13-.44-.41a6.29,6.29,0,0,0-1.12-1.08c0,.64,0,.83,0,.9,0,.22,0,.24-.24.24h-1.56c-.22,0-.24,0-.24-.24v-.64h-2.32v1.06c0,.2,0,.22-.24.22h-1.56c-.24,0-.26,0-.26-.22s0-.66,0-3.26V126c0-1.38,0-1.91,0-2.07s0-.24.26-.24.59,0,2,0h1.89c1.44,0,1.87,0,2,0s.24,0,.24.24,0,.66,0,1.7V129c3-2.82,3.56-6.67,3.63-12.37l-2.31,0c-.22,0-.24,0-.24-.27v-1.65c0-.22,0-.24.24-.24s.81,0,2.84,0H262v-1.35a13,13,0,0,0-.15-2.33c.79,0,1.58.09,2.33.15.22,0,.37.14.37.25a1.1,1.1,0,0,1-.13.46,4.1,4.1,0,0,0-.15,1.47v1.35h1.87c2,0,2.73,0,2.86,0s.22,0,.22.24v1.65c0,.25,0,.27-.22.27s-.84,0-2.86,0h-3.59c0,1,0,1.83-.09,2.69h3.44c1.36,0,1.78,0,1.91,0s.26,0,.26.27c0,.53,0,1.14,0,1.67a39.86,39.86,0,0,1-.53,6.75c-.39,2-1.19,2.76-3.36,2.76-.33,0-.75,0-1.13,0s-.46,0-.52-.75a5.11,5.11,0,0,0-.53-1.63,11.61,11.61,0,0,0,2.07.2c.72,0,1.05-.39,1.23-1.16a27.84,27.84,0,0,0,.5-5.92Zm-7.63-9.73c1.4,0,1.84,0,2,0s.27,0,.27.24v1.45c0,.22,0,.25-.27.25s-.57,0-2,0h-2.07c-1.43,0-1.87,0-2,0s-.24,0-.24-.25v-1.45c0-.22,0-.24.24-.24s.58,0,2,0Zm-.27,6.1c1.34,0,1.72-.05,1.85-.05s.26,0,.26.25v1.43c0,.22,0,.24-.26.24s-.51,0-1.85,0h-1.72c-1.34,0-1.73,0-1.87,0s-.24,0-.24-.24V118c0-.22,0-.25.24-.25s.53.05,1.87.05Zm0,2.95c1.34,0,1.72,0,1.85,0s.26,0,.26.24v1.41c0,.22,0,.24-.26.24s-.51,0-1.85,0h-1.72c-1.34,0-1.73,0-1.87,0s-.24,0-.24-.24v-1.41c0-.22,0-.24.24-.24s.53,0,1.87,0Zm-2.05,4.79v2.23h2.32v-2.23Z"/><path d="M275.59,113.61a7.91,7.91,0,0,0-.22-2.14,12.46,12.46,0,0,1,2.51.42c.36.09.47.22.47.44a.92.92,0,0,1-.16.42,2.77,2.77,0,0,0-.2,1.08c0,.72-.06,1.19-.11,2.2a7,7,0,0,1,.84.48.4.4,0,0,1,.2.31.5.5,0,0,1-.11.24c-.42.68-.79,1.37-1.15,2.09v.11c.71-.79,1.19-1.3,2-2.13,1.74-1.65,3-2.16,4-2.16,1.65,0,2.64,1.1,2.64,2.93,0,.64,0,2-.17,4s-.22,3-.22,3.7c0,1.1.26,1.25.81,1.25a2.89,2.89,0,0,0,1.63-.79,5.82,5.82,0,0,0,1.32-1.85,5.5,5.5,0,0,0,.81,1.65.79.79,0,0,1,.24.51.62.62,0,0,1-.15.37,5.3,5.3,0,0,1-4.22,2.53c-1.9,0-2.82-1.07-2.82-3.36,0-.6.07-1.83.18-3.7s.15-2.66.15-3.61-.24-1.45-.68-1.45c-.64,0-1.39.46-2.47,1.43-.9.88-1.93,1.91-3.08,3.23,0,2.78.09,6,.09,8.34a.27.27,0,0,1-.31.31,14.77,14.77,0,0,1-1.71.09c-.22,0-.31-.11-.31-.37,0-2,0-4.32.07-6.3-.86,1.34-1.74,2.71-2.56,4-.09.16-.15.22-.24.22a.54.54,0,0,1-.26-.11,6.78,6.78,0,0,1-1.37-1.23.32.32,0,0,1-.13-.24.62.62,0,0,1,.2-.38c1.82-2.33,3-3.89,4.31-5.78,0-.55,0-1,0-1.5a21.48,21.48,0,0,0-2.64.88c-.2.09-.42.31-.64.31a.54.54,0,0,1-.44-.35,11.82,11.82,0,0,1-.85-2,9.7,9.7,0,0,0,1.6-.19c.75-.18,2-.49,3.1-.84Z"/><path d="M300.9,115.94c-2.69.51-5,1-7.4,1.45-.83.2-1.05.24-1.38.35a1.26,1.26,0,0,1-.49.18.52.52,0,0,1-.42-.33,16.1,16.1,0,0,1-.81-2.38,29.9,29.9,0,0,0,3.5-.37c2.71-.4,7.55-1.12,13.22-1.87.33,0,.44.09.46.24a12.35,12.35,0,0,1,.25,1.94c0,.26-.13.33-.42.33a9.55,9.55,0,0,0-2.69.48c-3.74,1.28-5.61,3.85-5.61,6.49,0,2.84,2,4.38,5.86,4.62.35,0,.48.09.48.33a8.11,8.11,0,0,1-.24,1.9c-.07.33-.16.46-.42.46-3.87,0-8.12-2.22-8.12-6.8,0-3.13,1.56-5.24,4.23-7Z"/><path d="M313.77,114.69c.19.08.35.24.35.39a2,2,0,0,1-.18.62,9.67,9.67,0,0,0-.2,2.15,27.94,27.94,0,0,0,.4,5c.31,1.74.88,3.23,1.8,3.23.71,0,1.26-.76,2.12-3a8.29,8.29,0,0,0,1.4,1.69.66.66,0,0,1,.16.81c-.84,2.25-2.2,3.44-3.74,3.44-1.72,0-3.52-2-4.12-5.75a40,40,0,0,1-.52-6.4A11.75,11.75,0,0,0,311,114,9.46,9.46,0,0,1,313.77,114.69Zm10.2,1.38a.76.76,0,0,1,.25-.09.36.36,0,0,1,.24.14,14.51,14.51,0,0,1,4.31,7.52c.07.29-.06.37-.24.48a7.23,7.23,0,0,1-1.72.89c-.26.08-.41,0-.46-.25a14.91,14.91,0,0,0-4.11-7.68C323.07,116.56,323.62,116.25,324,116.07Z"/><path d="M340.91,114.66c.2-.06.29-.06.33.18a11.68,11.68,0,0,1,.2,1.78c0,.2-.09.24-.26.27-1.19.24-2.27.39-3.63.59a61.56,61.56,0,0,1-4.29,9.44c-.09.15-.16.22-.24.22a.69.69,0,0,1-.27-.11,10.88,10.88,0,0,1-1.52-1.12c-.11-.09-.15-.16-.15-.24a.41.41,0,0,1,.11-.27,44.5,44.5,0,0,0,3.81-7.68c-.84,0-1.52,0-2.21,0-.48,0-.66,0-1.21,0-.21,0-.26-.06-.3-.35a11,11,0,0,1-.22-1.87c.9.07,1.4.09,2,.09.86,0,1.52,0,2.53-.11.27-.92.42-1.67.58-2.46a8.78,8.78,0,0,0,.13-1.79,21.42,21.42,0,0,1,2.57.47c.22,0,.35.17.35.33a.53.53,0,0,1-.19.41,2.48,2.48,0,0,0-.36.82c-.15.52-.33,1.21-.52,1.87A23.54,23.54,0,0,0,340.91,114.66Zm.62,5.9a7.05,7.05,0,0,0-.18-1.56,11.9,11.9,0,0,1,2.4.42.33.33,0,0,1,.31.35,2.46,2.46,0,0,1-.13.46,2.27,2.27,0,0,0-.09.9,29.71,29.71,0,0,0,.24,3.74,17.42,17.42,0,0,1,4,2c.22.15.24.24.14.46a13,13,0,0,1-1,1.78c-.06.11-.13.16-.19.16a.39.39,0,0,1-.23-.13,16,16,0,0,0-2.68-1.85c0,2.2-1.58,3.21-4.09,3.21s-4.05-1.23-4.05-3.12,1.58-3.22,4.07-3.22a11.35,11.35,0,0,1,1.74.13C341.6,122.94,341.55,121.59,341.53,120.56ZM340,126.1c-1.1,0-2,.45-2,1.28s.62,1.06,1.87,1.06,1.91-.64,1.91-1.56a3,3,0,0,0,0-.45A5.77,5.77,0,0,0,340,126.1Zm4.09-10.58c.13-.22.24-.24.46-.15a17,17,0,0,1,4.32,2.07c.13.08.19.15.19.24a.57.57,0,0,1-.08.26,12.63,12.63,0,0,1-.93,1.63c-.07.11-.13.15-.2.15a.35.35,0,0,1-.2-.08,18.88,18.88,0,0,0-4.55-2.4C343.45,116.58,343.77,115.92,344.06,115.52Z"/><path d="M354.86,114.69a.5.5,0,0,1,.35.39,1.94,1.94,0,0,1-.17.62,9.67,9.67,0,0,0-.2,2.15,27,27,0,0,0,.4,5c.3,1.74.88,3.23,1.8,3.23.7,0,1.25-.76,2.11-3a8.63,8.63,0,0,0,1.41,1.69.67.67,0,0,1,.15.81c-.83,2.25-2.2,3.44-3.74,3.44-1.71,0-3.52-2-4.11-5.75a40,40,0,0,1-.53-6.4,11.78,11.78,0,0,0-.26-2.88A9.47,9.47,0,0,1,354.86,114.69Zm10.21,1.38a.81.81,0,0,1,.24-.09.36.36,0,0,1,.25.14,14.51,14.51,0,0,1,4.31,7.52c.06.29-.07.37-.24.48a7.63,7.63,0,0,1-1.72.89c-.26.08-.42,0-.46-.25a14.86,14.86,0,0,0-4.12-7.68C364.17,116.56,364.72,116.25,365.07,116.07Z"/><path d="M387,124.7c1.12,0,2.28,0,3.41,0,.41,0,.48.07.48.38a11.92,11.92,0,0,1,0,1.69c0,.35-.07.44-.37.42-1.26,0-2.62,0-3.92,0H376.22c-1.49,0-2.66.07-3.47.07-.38,0-.44-.07-.49-.42a20.48,20.48,0,0,1-.15-2.13c1.25.09,2.64.11,3.92.11h6.71l1-7.26H379c-1.05,0-2.18,0-3.12.11-.22,0-.27-.13-.31-.44a18.16,18.16,0,0,1-.2-2.18c1.12.09,2.38.13,3.76.13H383a3.38,3.38,0,0,0,1.63-.22,1,1,0,0,1,.35-.13.47.47,0,0,1,.31.13,8.7,8.7,0,0,1,1.74,1.52.57.57,0,0,1,.2.4.64.64,0,0,1-.22.44,2.45,2.45,0,0,0-.6,1.45l-.9,6Z"/><path d="M397.19,122.45a17.43,17.43,0,0,0-3.24.27c-.26,0-.43-.14-.5-.47a24.19,24.19,0,0,1-.33-2.66,28.15,28.15,0,0,0,4.75.27H405c1.67,0,3.36,0,5.06-.07.33,0,.39,0,.39.31a14.3,14.3,0,0,1,0,2.07c0,.26-.09.35-.39.33-1.65,0-3.28,0-4.91,0Z"/><path d="M427.84,117.11c1.08,0,2.31,0,3.32-.07.26,0,.29.11.31.35a12.63,12.63,0,0,1,0,1.74c0,.29-.07.37-.38.35l-3.16,0H427c-.13,3.15-.61,5-1.69,6.78a10.41,10.41,0,0,1-5.19,4.09,2,2,0,0,1-.62.2c-.13,0-.24-.07-.42-.24a5,5,0,0,0-1.82-1.32c3.12-1,4.81-2.09,5.94-3.9.85-1.41,1.21-2.93,1.3-5.61h-4.69v.79c0,1.3,0,2.49.06,3.65,0,.25-.13.29-.37.31a11.93,11.93,0,0,1-1.89,0c-.29,0-.42-.06-.4-.31.07-1.14.11-2.22.11-3.6v-.84h-.66c-1.19,0-2.95.07-3.63.11-.17,0-.24-.13-.26-.42a20.4,20.4,0,0,1-.16-2.13c.93.06,2.36.11,4.05.11h.66v-1.61a15.21,15.21,0,0,0-.26-3.23,21.81,21.81,0,0,1,2.68.35c.24,0,.33.15.33.31a1.41,1.41,0,0,1-.13.46,5.64,5.64,0,0,0-.15,2.11v1.61h4.73l0-2.16a14.3,14.3,0,0,0-.2-3,21.76,21.76,0,0,1,2.58.37c.3.07.39.18.39.35a1.12,1.12,0,0,1-.09.4,6.25,6.25,0,0,0-.17,1.94v2.09Zm1.1-5.33a.24.24,0,0,1,.31.09,10.4,10.4,0,0,1,1.69,2.66c.07.16,0,.24-.13.33l-.9.46a.24.24,0,0,1-.38-.13,10.38,10.38,0,0,0-1.78-2.86Zm2.07-.94c.13-.07.19,0,.3.08a9.15,9.15,0,0,1,1.7,2.58.25.25,0,0,1-.13.37l-.88.44c-.2.09-.29,0-.36-.11a10.59,10.59,0,0,0-1.78-2.86Z"/><path d="M438.79,122.45a17.11,17.11,0,0,0-3.23.27c-.27,0-.44-.14-.51-.47a24.19,24.19,0,0,1-.33-2.66,28.15,28.15,0,0,0,4.75.27h7.09c1.67,0,3.37,0,5.06-.07.33,0,.4,0,.4.31a17.87,17.87,0,0,1,0,2.07c0,.26-.09.35-.4.33-1.65,0-3.28,0-4.91,0Z"/><path d="M455.82,120.08c.73-.58,2.31-1.94,3.94-3.41a2.76,2.76,0,0,1,1.91-.93,2.64,2.64,0,0,1,1.92.82c1.65,1.32,2.59,2.2,4.75,3.78a49.73,49.73,0,0,0,5.19,3.23c.22.09.33.27.22.47a9,9,0,0,1-1.08,2.06c-.11.16-.19.23-.28.23a.58.58,0,0,1-.31-.11c-1.06-.62-3.45-2.38-4.75-3.39-1.59-1.19-3.17-2.6-4.62-3.9a1.44,1.44,0,0,0-1-.5c-.24,0-.46.19-.75.46-1.08,1.08-2.66,2.59-3.7,3.63a5.38,5.38,0,0,0-.79,1,.47.47,0,0,1-.39.26.58.58,0,0,1-.42-.2,20.6,20.6,0,0,1-1.81-2.29A7.53,7.53,0,0,0,455.82,120.08Z"/><path d="M478.55,121c-2,0-2.64,0-2.78,0s-.24,0-.24-.25v-1.67c0-.22,0-.24.24-.24s.82,0,2.78,0h5.61v-2.72h-3.79A17.67,17.67,0,0,1,479,118c-.22.26-.35.42-.46.42s-.27-.13-.51-.38a6.74,6.74,0,0,0-1.43-1,14.37,14.37,0,0,0,2.95-4,8.7,8.7,0,0,0,.55-1.57c.68.2,1.41.46,1.93.66.31.11.47.22.47.38s-.11.24-.25.35a1.43,1.43,0,0,0-.37.59c-.11.25-.22.51-.35.75h2.62v-.53a17.67,17.67,0,0,0-.14-2.83c.84,0,1.76.06,2.49.15.22,0,.35.11.35.24a1.1,1.1,0,0,1-.13.44,5.82,5.82,0,0,0-.13,1.65v.88h3.1c2.11,0,2.86,0,3,0s.22,0,.22.24V116c0,.22,0,.24-.22.24s-.88,0-3,0h-3.1V119h5.3c2,0,2.64,0,2.77,0s.27,0,.27.24v1.67c0,.22,0,.25-.27.25s-.81,0-2.77,0Zm.19,10c-.22,0-.24,0-.24-.24s.05-.69.05-3.64v-1.65c0-1.67-.05-2.24-.05-2.39s0-.25.24-.25.91,0,3,0h7.11c2.13,0,2.88,0,3,0s.24,0,.24.25,0,.72,0,2.06V127c0,3,0,3.5,0,3.63s0,.22-.24.22H490c-.22,0-.24,0-.24-.22v-.79h-8.89v.88c0,.22,0,.24-.27.24Zm2.14-3.13h8.89v-3h-8.89Z"/><path d="M503,121.53a1.11,1.11,0,0,1,0,.28,12.08,12.08,0,0,0,4.07,4.78,6,6,0,0,0-1,1.61c-.13.3-.22.44-.33.44s-.24-.11-.46-.34a14.52,14.52,0,0,1-2.88-3.87,13.58,13.58,0,0,1-3.81,5.61c-.19.18-.33.27-.44.27s-.28-.16-.46-.42a3.86,3.86,0,0,0-1.19-1.25,10.28,10.28,0,0,0,4.21-6.28c.06-.26.11-.55.15-.83h-1.17c-1.87,0-2.5,0-2.64,0s-.26,0-.26-.26V119.7c0-.2,0-.22.26-.22s.77,0,2.64,0h1.41c.09-1,.11-2.18.13-3.37h-1.29c-.33.59-.69,1.19-1.06,1.74-.18.28-.29.42-.42.42s-.26-.11-.5-.33a4.35,4.35,0,0,0-1.26-.8,13,13,0,0,0,2.6-4.88,5.94,5.94,0,0,0,.24-1.41,15.77,15.77,0,0,1,2.05.46c.24.07.37.16.37.31s-.07.22-.2.38a1.72,1.72,0,0,0-.46.81c-.13.42-.29.86-.46,1.3h2.59c1.92,0,2.56,0,2.69,0s.26,0,.26.25V116c0,.22,0,.24-.26.24s-.77,0-2.69,0c0,1.14,0,2.27-.13,3.37h.53c1.89,0,2.53,0,2.66,0s.24,0,.24.22v1.61c0,.24,0,.26-.24.26s-.77,0-2.66,0Zm4.6,8.67c-.22,0-.24,0-.24-.24s0-1.35,0-6.63v-5.12c0-3.68,0-4.91,0-5.07s0-.21.24-.21.73,0,2.4,0h3.08c1.69,0,2.27,0,2.4,0s.26,0,.26.21,0,1.37,0,4.41v5.67c0,5.17,0,6.36,0,6.49s0,.25-.26.25H513.7c-.22,0-.24,0-.24-.25v-1.32h-3.78V130c0,.22,0,.24-.24.24Zm2.05-3.94h3.78V115.08h-3.78Z"/><path d="M523.74,124.92h-2.23l-.61-13.1h3.43Zm.41,2.13v3H521v-3Z"/><path d="M197.56,53.41a.81.81,0,0,0,.42.73,28.73,28.73,0,0,0,9,4c.38.12.81.27.81.77s-.7,3.14-1.86,3.14a5.12,5.12,0,0,1-1.35-.39,40.41,40.41,0,0,1-9.26-4.84,1.11,1.11,0,0,0-1.58,0,28.14,28.14,0,0,1-7.32,4.57,6.16,6.16,0,0,1-1.94.58c-1,0-2.13-1.93-2.13-2.59s.62-.7,1.36-1a29.43,29.43,0,0,0,7.28-4.18.88.88,0,0,0,.38-.74.93.93,0,0,0-.23-.65,23.11,23.11,0,0,1-3.64-6.43.41.41,0,0,0-.34-.27c-.2,0-.28.15-.35.27a35,35,0,0,1-9.14,13.24c-.27.23-.66.62-1,.62-.81,0-2.55-1.63-2.55-2.44,0-.46.46-.85.77-1.12a31.45,31.45,0,0,0,6.82-9.22,33.77,33.77,0,0,0,2.9-9.52v-.23c0-.58-.46-.77-.93-.77H179.4c-1.51,0-3,.07-4.57.07-.93,0-.89-.46-.89-2s0-1.94.93-1.94c1.51,0,3,.08,4.53.08h4.69a1,1,0,0,0,1.16-1.05c.07-.85.15-1.7.15-2.59,0-.46,0-.89,0-1.35,0-.62.31-.78.85-.78.93,0,1.86.08,2.79.16s1.63,0,1.63.54c0,.27-.23.46-.43.62-.5.42-.58,1-.62,2.05a13.23,13.23,0,0,0-.08,1.39c0,.7.28,1,1,1H202.2c1.55,0,3.06-.08,4.57-.08,1,0,.89.47.89,1.94s.08,2-.89,2c-1.51,0-3-.07-4.57-.07H190.05a1,1,0,0,0-1.2,1c-.12.74-.23,1.47-.39,2.17v.27c0,.54.39.74.89.74h8.13c1,0,1.93,0,2.86,0a2.57,2.57,0,0,1,2.36,1,1.79,1.79,0,0,1,.62,1.17,8.52,8.52,0,0,1-.81,2.2,38.62,38.62,0,0,1-4.68,7.24A1.18,1.18,0,0,0,197.56,53.41Zm-3.14-2.79a.91.91,0,0,0,.66-.35c.62-.77,2.86-3.75,2.86-4.64,0-.54-.34-.62-1-.62h-5.31c-.39,0-.77.15-.77.62a.75.75,0,0,0,.08.31,19.2,19.2,0,0,0,2.74,4.33A.94.94,0,0,0,194.42,50.62Z"/><path d="M229.73,28.52c.35.11,1.43.38,1.43.81,0,.19-.23.31-.35.39-.58.35-.62.5-.89,1.35-.11.43-.93,3.25-.93,3.45a.57.57,0,0,0,.58.58,27,27,0,0,0,4.49-1.43,2.1,2.1,0,0,1,.82-.2c.77,0,.77,2.36.77,2.94s-.08,1.2-.73,1.4a59.23,59.23,0,0,1-6.35,1.51c-1.12.23-1.24.42-1.59,1.51a121.06,121.06,0,0,1-7.2,17.07c-.5.93-.81,1.47-1.39,1.47s-3.29-1.24-3.29-2.09a2.89,2.89,0,0,1,.65-1.28c2.44-3.48,5.35-10.22,6.86-14.32a6.41,6.41,0,0,0,.31-1c0-.38-.31-.58-.7-.58s-2.25.2-3.45.2c-.77,0-1.39,0-1.62-.7a16.13,16.13,0,0,1-.31-2.83c0-.42.11-.69.58-.69s2,.15,3.64.15c2.47,0,3.06,0,3.4-.62a35.09,35.09,0,0,0,1.44-7c0-.58,0-1,.42-1S229.23,28.36,229.73,28.52Zm-.54,25c1.7,1.89,4.64,2.24,7,2.24a17.51,17.51,0,0,0,5.5-.77,1.36,1.36,0,0,1,.39-.08c.66,0,.66.89.66,2.44,0,.77,0,1.66-.43,1.93a37,37,0,0,1-6,.51c-2.55,0-6.12-.31-8.28-1.74-.62-.43-1.9-1.4-1.9-2.21,0-.58,1.78-2.87,2.4-2.87C228.76,52.94,229,53.29,229.19,53.49ZM233.91,41a27.59,27.59,0,0,1,7.78,1.09.72.72,0,0,1,.54.77,9.73,9.73,0,0,1-.73,2.71c-.16.35-.31.5-.7.5a3,3,0,0,1-.81-.19,16.68,16.68,0,0,0-6.16-1c-.5,0-1,0-1.47,0-.77,0-1-.19-1-.85C231.39,40.75,232.09,41,233.91,41Zm7.94-6.46c0,.58-1.44,1.7-1.9,1.7-.23,0-.39-.23-.54-.42a36.24,36.24,0,0,0-2.67-3.1c-.12-.12-.35-.35-.35-.54,0-.51,1.55-1.55,1.89-1.55S241.85,34.05,241.85,34.52Zm4-2.48c0,.58-1.43,1.74-1.9,1.74-.23,0-.42-.27-.58-.46a32.2,32.2,0,0,0-2.67-3.1c-.11-.12-.31-.31-.31-.5,0-.47,1.44-1.59,1.9-1.59S245.87,31.58,245.87,32Z"/><path d="M268.64,30.68a.74.74,0,0,1-.35.59,2.5,2.5,0,0,0-.81,1.58c-.08.24-.12.47-.24.78a4.78,4.78,0,0,0-.23,1,.6.6,0,0,0,.66.59,40.92,40.92,0,0,0,7.47-1.71,3.38,3.38,0,0,1,1.05-.27c.5,0,.58.54.73,1.09a11.88,11.88,0,0,1,.35,2.4c0,.61-.43.73-1.39.92-2.1.39-6.66,1.09-8.83,1.32-1.28.16-1.32.43-1.78,2.25-.12.54-.31,1.24-.54,2.09a2.09,2.09,0,0,0-.12.69c0,.24.12.35.39.35a.85.85,0,0,0,.42-.15,12.47,12.47,0,0,1,6.78-2.09c4.76,0,7.86,3.25,7.86,8s-3.33,7.86-7.82,9.06a35.49,35.49,0,0,1-8.09,1.08c-1.28,0-1.47-.19-1.71-1a12.2,12.2,0,0,1-.5-2.56.77.77,0,0,1,.81-.81c.51,0,1.67.27,3.14.27,4,0,10.18-1.16,10.18-6.27a3.77,3.77,0,0,0-3.83-4,12.73,12.73,0,0,0-9.37,4.84c-.27.35-.62.85-1.09.85-.89,0-3.09-1.08-3.09-2.17a5.61,5.61,0,0,1,.54-1.7,38.65,38.65,0,0,0,2.13-6.42,4.27,4.27,0,0,0,.19-1,.56.56,0,0,0-.62-.58c-.23,0-.58,0-.81,0-.89,0-3.91.38-4.68.38a.91.91,0,0,1-1-.77,12,12,0,0,1-.43-2.56c0-1,.62-1,.82-1,.54,0,2.82.15,4.37.15,2.75,0,3.18-.12,3.52-.93a37.66,37.66,0,0,0,.82-4.92c.07-.54,0-1.39.66-1.39C264.57,28.71,268.64,29.83,268.64,30.68Z"/><path d="M308.78,29.8c0,.23-.27.38-.46.46-.62.23-.78.42-1.28,1.32a2.63,2.63,0,0,0-.39.89c0,.27.2.38.43.38a28.12,28.12,0,0,0,4.49-1.08,2.86,2.86,0,0,1,1-.23c.66,0,.85.62,1,1.16a13,13,0,0,1,.31,2.09c0,.66-1.24.81-2.06,1-2.44.5-4.87.93-7.31,1.2a1.32,1.32,0,0,0-1.16.62A12.1,12.1,0,0,0,302,39.82a.29.29,0,0,0,.31.27,1.49,1.49,0,0,0,.7-.23,10.67,10.67,0,0,1,4.22-1c2.47,0,3.91,1,4.41,3.49.08.35.19.66.58.66a34.63,34.63,0,0,0,4.53-2.21,3.12,3.12,0,0,1,1-.39c.73,0,1.66,3,1.66,3.64,0,.47-.43.62-1.16.85-.16.08-.35.12-.54.2-1.55.58-3.06,1.23-4.57,1.89-.7.27-1,.51-1,1.28v.5c0,1.2,0,2.37,0,3.57,0,1.39-.19,1.54-1.66,1.54-1.67,0-2.37-.07-2.37-1.08,0-.85.08-1.7.08-2.52,0-.34-.11-.65-.5-.65-.19,0-4.18,1.7-4.18,4.1,0,2.59,3.75,2.82,5.61,2.82a28.19,28.19,0,0,0,7.2-1,4.67,4.67,0,0,1,.78-.08c.5,0,.77.43.77,2.63,0,1.16,0,1.47-.89,1.67a52.57,52.57,0,0,1-7.43.5,14.35,14.35,0,0,1-6.12-1,5.87,5.87,0,0,1-3.87-5.53c0-3.49,2.83-5.38,5.5-7a26.22,26.22,0,0,1,2.4-1.28c.38-.19.69-.42.69-.89a5.1,5.1,0,0,0-.19-1.08,1.61,1.61,0,0,0-1.7-1.32c-2.17,0-5.73,1.86-7.24,3.41a25,25,0,0,0-3.25,4.53.65.65,0,0,1-.55.38c-.69,0-3.29-1.54-3.29-2.24,0-.31.31-.62.51-.85.89-1,6.5-8.75,6.5-9.49,0-.35-.31-.46-.85-.46s-1.51.11-2.71.11c-.85,0-1-.19-1-2.16,0-1.55.16-1.78,1.13-1.78.65,0,1.66.07,2.78.07h1.12c1,0,2.06,0,2.41-.5a22,22,0,0,0,2.09-5c.07-.43.15-.82.54-.82S308.78,29.21,308.78,29.8Z"/><path d="M331.47,41.6c0-.73-.27-1-1-1.08-.54,0-1.7.07-2.09.07-.85,0-.81-.54-.81-1.89s0-1.94.81-1.94c.66,0,1.44.08,2.09.08s1-.35,1-1V31.23c0-.93,0-2-.08-2.48,0-.12,0-.31,0-.43,0-.42.27-.5.65-.5.55,0,2.87.19,3.53.23.27,0,.77.08.77.47s-.23.38-.58.62-.43.58-.43,2V35.8c0,.69.27,1,1,1s1.47-.08,2.09-.08c.85,0,.81.54.81,1.94s0,1.93-.81,1.89l-2-.07c-.78.07-1.05.35-1.05,1.08v8c0,.43.2.82.66.82a.71.71,0,0,0,.31-.08,25.33,25.33,0,0,1,2.6-.93c.77,0,.89,1.36.89,1.94,0,1-.16,1.54-.86,1.89-1.31.66-6.89,2.67-8.51,3.22-.89.27-.85.34-1.09.77a.51.51,0,0,1-.5.35c-.5,0-.66-.5-1-1.55-.15-.35-.31-.81-.5-1.32A4.17,4.17,0,0,1,327,53.6c0-.42.12-.42,1.7-.85.47-.11,1.09-.27,1.9-.5a1.18,1.18,0,0,0,.89-1.36Zm19.47-8.79a1.56,1.56,0,0,0,1.59-.77A35,35,0,0,0,354.85,28c.2-.51.27-.62.54-.62a21.7,21.7,0,0,1,2.21.73c1.36.54,1.78.7,1.78,1.09s-.31.34-.69.42-.43.12-.66.39c-.39.69-.82,1.31-1.24,2a.64.64,0,0,0-.12.35c0,.35.31.47.58.47h1.4c1.16,0,2.05.23,2.05,1.58,0,.74-.08,1.44-.08,2.25v5.22c0,.74.08,1.51.08,2.25,0,1.32-.89,1.59-2,1.59s-2.21-.08-3.3-.08h-9.94c-1.09,0-2.17.08-3.25.08s-2.06-.24-2.06-1.59c0-.74,0-1.51,0-2.25V36.61c0-.78,0-1.51,0-2.29,0-1.31.89-1.54,2-1.54h1.47c.35,0,.62-.16.62-.55a1,1,0,0,0-.08-.31,22,22,0,0,0-1.63-2.55,1.39,1.39,0,0,1-.31-.66c0-.58,2.21-1.32,3-1.32.43,0,.78.31,1.86,2.21a7.05,7.05,0,0,1,1,2.09c0,.47-.78.74-1.12.89-.12,0-.12.08-.12.12s0,.11.15.11Zm3.29,27.37h-7.82c-.46,0-.69.2-.73.7a.73.73,0,0,1,0,.31c0,.85-.51.81-2,.81s-1.93,0-1.93-.81,0-1.66,0-2.48V51.24c0-.77,0-1.55,0-2.32,0-1.09.62-1.4,1.58-1.4s1.75,0,2.64,0h8.55c.89,0,1.78,0,2.63,0s1.59.31,1.59,1.4c0,.77,0,1.55,0,2.32v7.51c0,.81,0,1.63,0,2.48s-.42.85-1.93.85c-1.2,0-2,0-2-.74,0-.15,0-.3,0-.46C354.89,60.38,354.7,60.18,354.23,60.18Zm-9.29-24.5a.9.9,0,0,0-.93.93v.31a.9.9,0,0,0,.93.93h2.75a.88.88,0,0,0,.93-.93v-.31a.88.88,0,0,0-.93-.93Zm3.68,5.81a.87.87,0,0,0-.93-.93h-2.75a.89.89,0,0,0-.93.93v.31a.89.89,0,0,0,.93.92h2.75a.87.87,0,0,0,.93-.92Zm5.42,11a.88.88,0,0,0,.93-.93v-.12a.9.9,0,0,0-.93-.93h-7.47a.9.9,0,0,0-.93.93v.12a.88.88,0,0,0,.93.93Zm-8.4,3.79a.9.9,0,0,0,.93.93H354a.9.9,0,0,0,.93-.93v-.19a.88.88,0,0,0-.93-.93h-7.47a.88.88,0,0,0-.93.93Zm6.58-19.39a.9.9,0,0,0,.93.93h2.75a.9.9,0,0,0,.93-.93v-.31a.9.9,0,0,0-.93-.93h-2.75a.9.9,0,0,0-.93.93Zm3.68,5.8a.89.89,0,0,0,.93-.92v-.31a.89.89,0,0,0-.93-.93h-2.75a.89.89,0,0,0-.93.93v.31a.89.89,0,0,0,.93.92Z"/><path d="M367.71,46.4c0-.42.39-.58.81-.81.85-.43,2.71-1.74,3.64-2.36.43-.27,1-.62,1-1.2,0-.85-2.29-4.42-2.91-5.23a1.14,1.14,0,0,1-.38-.73c0-.35.69-.58,1.86-1,.42-.16.92-.35,1.47-.54a5.72,5.72,0,0,1,1.27-.39c.27,0,.47.12.47.39a1.56,1.56,0,0,1-.08.42.75.75,0,0,0-.08.31,23.22,23.22,0,0,0,1.55,3.84c.23.42.43.73.93.73a1.88,1.88,0,0,0,.93-.35c3.64-2.17,7.59-4.26,11.92-4.26s7.44,2.33,7.44,6.78c0,5.23-4.69,7.7-9.14,8.83a11.39,11.39,0,0,1-1.51.27c-1,0-2.05-2.64-2.05-3.18s.73-.69,1.24-.77c2.67-.47,7.31-1.71,7.31-5.07,0-2.09-1.58-3.1-3.56-3.1-3.13,0-7.43,2.44-10.14,4.06-.39.24-.77.51-.77,1,0,1,5.84,10.57,6.81,12.08a5.34,5.34,0,0,1,.85,1.66c0,.74-2.67,2.1-3.41,2.1-.54,0-.81-.66-1.2-1.44-2-3.79-4.06-7.47-6-11.3-.19-.35-.46-.74-.92-.74s-3.57,2.48-4.15,3c-.19.12-.54.43-.73.43C369.41,49.81,367.71,47.18,367.71,46.4Zm16.06-14.59c.78.31,2.29.85,2.29,1.47,0,.39-.78,2.86-1.78,2.86a5.35,5.35,0,0,1-1.63-.54,29.42,29.42,0,0,0-4.1-1.39c-.43-.12-.93-.2-.93-.74s.89-3.13,1.74-3.13A32.55,32.55,0,0,1,383.77,31.81Z"/><path d="M417.69,31.15c.27,0,.77.19.77.54s-.23.39-.46.58c-1.36,1-1.71,13.28-1.71,15.49,0,3-.08,7.7,4.11,7.7a9.79,9.79,0,0,0,7.27-3.75A12.21,12.21,0,0,0,430,46c.12-.62.2-1.28.78-1.28.85,0,3.21,2,3.21,3.13a14.32,14.32,0,0,1-1.58,4.53,13.56,13.56,0,0,1-11.77,7.4,8.57,8.57,0,0,1-6.82-3c-1.74-2.33-1.93-6.08-1.93-8.91,0-3.06.11-6.11.35-9.17.11-1.78.46-5.5.46-7.09v-.42c0-.58,0-1,.58-1A33.42,33.42,0,0,1,417.69,31.15Z"/><path d="M459.69,28.52c.35.11,1.43.38,1.43.81,0,.19-.23.31-.34.39-.58.35-.62.5-.9,1.35-.11.43-.93,3.25-.93,3.45a.58.58,0,0,0,.59.58A27.64,27.64,0,0,0,464,33.67a2,2,0,0,1,.81-.2c.77,0,.77,2.36.77,2.94s-.07,1.2-.73,1.4a59.23,59.23,0,0,1-6.35,1.51c-1.12.23-1.24.42-1.59,1.51a119.9,119.9,0,0,1-7.2,17.07c-.5.93-.81,1.47-1.39,1.47s-3.29-1.24-3.29-2.09a2.81,2.81,0,0,1,.66-1.28c2.44-3.48,5.34-10.22,6.85-14.32a5.5,5.5,0,0,0,.31-1c0-.38-.31-.58-.7-.58-.54,0-2.24.2-3.44.2-.78,0-1.4,0-1.63-.7a16.13,16.13,0,0,1-.31-2.83c0-.42.12-.69.58-.69s2,.15,3.64.15c2.48,0,3.06,0,3.41-.62a35.81,35.81,0,0,0,1.43-7c0-.58,0-1,.42-1S459.19,28.36,459.69,28.52Zm-.54,25c1.7,1.89,4.64,2.24,7,2.24a17.44,17.44,0,0,0,5.49-.77,1.36,1.36,0,0,1,.39-.08c.66,0,.66.89.66,2.44,0,.77,0,1.66-.43,1.93a36.86,36.86,0,0,1-6,.51c-2.55,0-6.11-.31-8.28-1.74-.62-.43-1.9-1.4-1.9-2.21,0-.58,1.78-2.87,2.4-2.87C458.72,52.94,459,53.29,459.15,53.49ZM463.87,41a27.59,27.59,0,0,1,7.78,1.09.73.73,0,0,1,.55.77,9.76,9.76,0,0,1-.74,2.71c-.16.35-.31.5-.7.5a2,2,0,0,1-.81-.19,17.32,17.32,0,0,0-6.16-1c-.5,0-1,0-1.47,0-.77,0-1-.19-1-.85C461.36,40.75,462.05,41,463.87,41Z"/><path d="M489.08,35.18c.31.07.85.15.85.54,0,.23-.16.31-.39.5a2.86,2.86,0,0,0-.7,1.86,29.31,29.31,0,0,0-.31,4.1,22.24,22.24,0,0,0,1.24,8.09c.47,1.09,1.75,3.37,3.1,3.37,1.08,0,2.21-1.7,2.67-2.55.23-.39.54-1,1-1,.81,0,2.78,1.59,2.78,2.28s-1.74,2.75-2.28,3.37c-1.12,1.28-2.32,2.44-4.14,2.44-2.87,0-5.11-2.59-6.39-5-1.94-3.63-2.25-8.51-2.25-12.62,0-.62.12-5.53.2-5.88a.48.48,0,0,1,.54-.43C485.55,34.32,488.42,35.06,489.08,35.18Zm15.75-.78c.85,0,4.11,2.44,6,6a21,21,0,0,1,2.29,8.05c0,.74-.39.93-1.05,1.13a8.34,8.34,0,0,1-2.17.35c-1.24,0-1.2-.55-1.27-1.48-.47-4.52-2.06-8.2-5.73-11a.62.62,0,0,1-.35-.58C502.51,36.1,504.06,34.4,504.83,34.4Z"/><path d="M525.54,56.51a2.82,2.82,0,0,1-2.94,2.94A2.47,2.47,0,0,1,520,56.93a2.85,2.85,0,0,1,2.9-3.06A2.6,2.6,0,0,1,525.54,56.51ZM522.14,51c-1,0-1.16-.19-1.2-1.16l-.27-9.56c-.08-2.56-.28-6.86-.28-7.63s.24-.81,1.09-.81H524c.85,0,1.08.15,1.08.81s-.19,5.07-.27,7.9l-.23,9.29c0,1-.24,1.16-1.2,1.16Z"/><path d="M135.36,68.77l-10.08-44q-3.15,8.09-6.31,16.16Z"/><path d="M549.82,68.77l10.08-44q3.17,8.09,6.31,16.16Z"/><polyline class="cls-23" points="675.11 418.6 675.11 423.7 670 423.7"/><line class="cls-24" x1="654.23" y1="423.7" x2="15.03" y2="423.7"/><polyline class="cls-23" points="7.15 423.7 2.04 423.7 2.04 418.6"/><line class="cls-25" x1="2.04" y1="402.54" x2="2.04" y2="15.18"/><polyline class="cls-23" points="2.04 7.15 2.04 2.04 7.15 2.04"/><line class="cls-24" x1="22.92" y1="2.04" x2="662.11" y2="2.04"/><polyline class="cls-23" points="670 2.04 675.11 2.04 675.11 7.15"/><line class="cls-25" x1="675.1" y1="23.21" x2="675.1" y2="410.57"/></g></g></svg>