<?xml version="1.0" encoding="UTF-8"?><svg xmlns="http://www.w3.org/2000/svg" viewBox="0 0 1200 711.93"><defs><style>.d{fill:#fff;}.e{fill:#30ae35;}</style></defs><g id="a"/><g id="b"><g id="c"><rect class="d" y="0" width="1200" height="711.93" rx="34.11" ry="34.11"/><g><path d="M143.17,249.81c-4.13,0-12.03,.18-12.66,.18-1.89,0-2.51-.63-2.51-2.51,0-.63,.27-10.59,.27-15.35v-30.52c0-4.76-.27-15.08-.27-15.71,0-1.89,.54-2.24,2.6-2.24h10.59c2.07,0,2.6,.36,2.6,2.24,0,.63-.27,10.95-.27,15.71v31.78c0,2.24,.45,2.69,2.69,2.69h6.1c4.22,0,13.29-.18,13.91-.18,1.88,0,2.24,.54,2.24,2.6v8.89c0,2.06-.36,2.6-2.24,2.6-.63,0-9.7-.18-13.91-.18h-9.16Z"/><path d="M181.49,249.81c-2.06,0-2.6-.36-2.6-2.24,0-.63,.27-10.95,.27-15.71v-30.25c0-4.76-.27-15.08-.27-15.71,0-1.89,.54-2.24,2.6-2.24h10.59c2.06,0,2.6,.36,2.6,2.24,0,.63-.27,10.95-.27,15.71v30.25c0,4.76,.27,15.08,.27,15.71,0,1.89-.54,2.24-2.6,2.24h-10.59Z"/><path d="M221.53,231.86c0,4.76,.27,15.08,.27,15.71,0,1.89-.54,2.24-2.6,2.24h-9.96c-2.07,0-2.6-.36-2.6-2.24,0-.63,.27-10.95,.27-15.71v-30.25c0-4.76-.27-15.08-.27-15.71,0-1.89,.54-2.24,2.6-2.24h5.92c2.24,0,2.96,.36,4.4,2.06,3.32,4.04,6.46,7.63,9.69,11.31l18.67,21.27c.45,.54,.9,.81,1.17,.81,.36,0,.63-.45,.63-1.44v-16.07c0-4.76-.27-15.08-.27-15.71,0-1.89,.54-2.24,2.6-2.24h9.96c2.06,0,2.6,.36,2.6,2.24,0,.63-.27,10.95-.27,15.71v30.25c0,4.76,.27,15.08,.27,15.71,0,1.89-.54,2.24-2.6,2.24h-4.49c-2.24,0-2.96-.36-4.4-2.06-3.23-3.77-6.19-7.09-9.87-11.22l-19.93-22.35c-.45-.54-.81-.72-1.08-.72-.45,0-.72,.45-.72,1.44v16.97Z"/><path d="M300.61,236.08c4.22,0,13.29-.18,13.91-.18,1.88,0,2.24,.54,2.24,2.6v8.89c0,2.06-.36,2.6-2.24,2.6-.63,0-9.7-.18-13.91-.18h-9.16c-4.13,0-12.03,.18-12.66,.18-1.89,0-2.51-.63-2.51-2.51,0-.63,.27-10.59,.27-15.35v-30.79c0-4.76-.27-14.72-.27-15.35,0-1.89,.63-2.51,2.51-2.51,.63,0,8.53,.18,12.66,.18h7.18c4.22,0,13.29-.18,13.91-.18,1.89,0,2.24,.54,2.24,2.6v9.25c0,2.06-.36,2.6-2.24,2.6-.63,0-9.69-.18-13.91-.18h-4.4c-2.24,0-2.69,.45-2.69,2.69v5.48c0,2.06,.36,2.42,2.42,2.42h2.6c4.22,0,13.29-.18,13.91-.18,1.89,0,2.24,.54,2.24,2.6v8.53c0,2.06-.36,2.6-2.24,2.6-.63,0-9.69-.18-13.91-.18h-2.6c-2.07,0-2.42,.36-2.42,2.42v9.25c0,2.24,.45,2.69,2.69,2.69h6.37Z"/><path d="M335.44,233.11v-13.02c0-1.53-1.26-2.24-2.6-2.24-1.08,0-2.16,.18-3.32,.18-2.15,0-2.33-1.08-2.33-3.59v-5.21c0-2.51,.27-3.5,2.33-3.5,1.26,0,3.41,.18,5.3,.18h2.33c1.88,0,3.68-.18,5.39-.18,2.96,0,5.39,.99,5.39,4.31,0,2.15-.18,4.67-.18,7.99v13.91c0,3.95,.18,7.27,4.04,8.89,3.41,1.44,8.62,1.35,12.39,1.44,4.22,.09,8.53,.09,12.84,.09,7.18,0,14.36-.09,21.54-.45,1.35-.09,5.83-.45,6.64-.45,2.15,0,2.24,1.53,2.24,3.68,0,8.53-2.33,8.71-8.26,8.71h-19.84c-12.3,0-24.51-.27-29.89-1.89-2.87-.9-4.4-1.71-6.46-3.86-.45-.54-1.08-.99-1.8-.99-.9,0-2.42,1.08-4.13,2.42-.81,.63-1.62,1.17-2.42,1.71-1.79,1.17-1.88,1.26-2.06,2.42-.09,.63-.81,1.17-1.53,1.17-.99,0-1.26-.54-1.53-1.35-1.08-3.32-2.24-6.55-3.41-9.78-.36-.9-.81-2.15-.81-3.14,0-1.08,1.08-1.44,2.42-1.8,.36-.09,.72-.18,1.17-.36,5.21-1.71,6.55-2.42,6.55-5.3Zm2.87-56.55c1.71,1.8,3.86,4.22,6.01,6.64,1.17,1.26,5.39,6.55,5.39,8.08,0,1.62-5.66,6.1-8.08,6.1-.72,0-1.17-.54-1.8-1.44-3.05-4.31-6.55-8.8-10.41-12.75-.63-.63-1.08-.99-1.08-1.62,0-1.71,6.1-6.55,7.81-6.55,.72,0,1.08,.36,2.15,1.53Zm27.02,19.48c-2.78,0-5.66,.09-8.44,.09-1.71,0-1.8-.45-1.8-3.86,0-1.08-.45-1.08-1.71-1.08-1.35,0-2.15-.36-2.15-1.8,0-.9,.18-2.33,.18-3.59v-2.6c0-1.98-.18-3.32-.18-4.31,0-2.78,2.15-2.96,5.03-2.96,2.42,0,4.76,.18,7.18,.18h30.79c2.42,0,4.85-.18,7.18-.18,2.6,0,5.03,0,5.03,2.87,0,.99-.09,2.6-.09,4.4v2.6c0,1.44,.18,2.69,.18,3.59,0,1.62-.9,1.8-2.69,1.8-1.26,0-1.98,.45-1.98,1.8v.54c0,1.97-.18,2.6-1.79,2.6-2.78,0-5.57-.09-8.44-.09h-6.1c-.63,0-1.08,.54-1.08,1.17v.27c0,.63,.45,1.17,1.08,1.17h4.31c2.51,0,4.94-.18,7.36-.18,2.69,0,4.31,.63,4.31,3.68,0,1.97-.18,4.13-.18,6.28v5.39c0,2.15,.18,4.31,.18,6.28,0,2.87-1.53,3.68-4.22,3.68-2.42,0-4.94-.18-7.45-.18h-4.4c-.54,0-.99,.45-.99,.99v.54c0,.54,.45,.99,.99,.99h11.13c2.87,0,5.75-.18,8.53-.18,1.62,0,1.71,.9,1.71,2.96v2.15c0,1.79-.09,2.78-1.62,2.78-2.87,0-5.75-.18-8.62-.18h-9.43c-1.35,0-2.51,1.08-2.51,2.51v2.42c0,2.06-.9,2.24-3.59,2.24h-5.12c-2.51,0-3.59-.18-3.59-2.15v-2.51c0-1.44-1.08-2.51-2.51-2.51h-9.78c-2.87,0-5.66,.18-8.53,.18-1.62,0-1.71-.9-1.71-2.78v-2.42c0-1.8,.09-2.69,1.71-2.69,2.87,0,5.66,.18,8.53,.18h11.49c.54,0,.99-.45,.99-.99v-.54c0-.54-.45-.99-.99-.99h-4.13c-2.51,0-4.94,.18-7.36,.18-2.69,0-4.31-.63-4.31-3.68,0-1.98,.18-4.13,.18-6.28v-5.39c0-2.15-.18-4.31-.18-6.28,0-2.96,1.53-3.68,4.22-3.68,2.42,0,4.94,.18,7.45,.18h3.95c.63,0,1.17-.54,1.17-1.17v-.27c0-.72-.45-1.17-1.17-1.17h-6.01Zm-1.62-11.22c-.54,0-1.08,.36-1.08,1.17,0,2.51,.09,2.69,2.06,2.69h6.64c.81,0,1.08-.36,1.08-1.17,0-1.88-.36-2.69-1.53-2.69h-7.18Zm4.58,20.74c-.63,0-1.17,.54-1.17,1.17v.18c0,.63,.54,1.17,1.17,1.17h3.05c.63,0,1.17-.54,1.17-1.17v-.18c0-.72-.45-1.17-1.17-1.17h-3.05Zm3.05,11.13c.72,0,1.17-.45,1.17-1.17v-.27c0-.63-.54-1.08-1.17-1.08h-3.05c-.63,0-1.17,.45-1.17,1.08v.27c0,.63,.54,1.17,1.17,1.17h3.05Zm14.18-11.13c-.63,0-1.08,.45-1.08,1.17v.18c0,.63,.45,1.17,1.08,1.17h3.41c.63,0,1.17-.54,1.17-1.17v-.18c0-.63-.54-1.17-1.17-1.17h-3.41Zm3.41,11.13c.63,0,1.17-.54,1.17-1.17v-.27c0-.63-.54-1.08-1.17-1.08h-3.41c-.63,0-1.08,.45-1.08,1.08v.27c0,.72,.45,1.17,1.08,1.17h3.41Zm-1.62-31.87c-.99,0-1.17,.09-1.17,.81-.09,.45-.45,.81-.81,1.08-.36,.27-.63,.72-.63,1.17,0,.54,.36,.81,.9,.81h7.63c1.17,0,1.44-.18,1.44-2.6,0-.81-.18-1.17-.99-1.26h-6.37Z"/><path d="M439.21,228.98c-3.05,0-3.86,1.53-4.31,4.22-1.17,6.46-3.41,13.55-6.91,19.03-.81,1.26-1.97,3.05-3.68,3.05-1.97,0-9.07-4.67-9.07-7.09,0-.54,.27-1.08,.9-1.98,2.06-3.23,4.13-8.53,5.12-12.3,2.24-8.26,2.33-19.21,2.33-27.92v-14.99c0-3.23-.27-6.37-.27-9.6,0-3.5,1.35-4.94,4.94-4.94,2.96,0,5.92,.18,8.89,.18h41.74c2.87,0,5.83-.18,8.71-.18,3.59,0,5.03,1.26,5.03,4.94,0,3.14-.18,6.37-.18,9.6v45.51c0,2.42,.09,4.94,.09,7.36,0,4.04-.72,7.45-4.58,9.6-3.05,1.71-7,1.98-10.5,1.98-3.14,0-4.4-.81-5.48-3.77-.72-1.98-1.08-4.13-1.08-6.28,0-1.62,.27-2.87,2.15-2.87,.54,0,.99,0,1.53,.09,.81,.09,1.35,.09,2.15,.09,2.6,0,2.78-.81,2.78-3.23v-7.99c0-1.35-1.08-2.51-2.51-2.51h-11.13c-1.44,0-2.51,1.17-2.51,2.51v5.39c0,4.76,.27,9.43,.27,14.09,0,2.24-1.08,2.42-4.13,2.42h-5.57c-3.14,0-4.13-.18-4.13-2.51,0-4.67,.27-9.34,.27-14v-5.39c0-1.44-.99-2.51-2.51-2.51h-8.35Zm.18-19.93c-2.78,0-3.14,1.44-3.14,3.86v1.98c0,1.26,.99,2.51,2.96,2.51h8.35c1.44,0,2.51-1.17,2.51-2.51v-3.32c0-1.35-.99-2.51-2.51-2.51h-8.17Zm8.17-11.85c1.53,0,2.51-1.08,2.51-2.51v-3.23c0-1.44-1.08-2.51-2.51-2.51h-8.62c-1.35,0-2.51,1.08-2.51,2.51v3.23c0,1.44,1.17,2.51,2.51,2.51h8.62Zm29.44,0c1.44,0,2.51-1.08,2.51-2.51v-3.23c0-1.44-1.08-2.51-2.51-2.51h-11.13c-1.44,0-2.51,1.08-2.51,2.51v3.23c0,1.44,.99,2.51,2.51,2.51h11.13Zm-11.13,11.85c-1.53,0-2.51,1.17-2.51,2.51v3.32c0,1.35,1.08,2.51,2.51,2.51h11.13c1.44,0,2.51-1.17,2.51-2.51v-3.32c0-1.35-1.08-2.51-2.51-2.51h-11.13Z"/><path d="M545.31,178.89c.45,.09,1.26,.18,1.26,.9,0,.45-.27,.99-.63,1.53-1.17,1.8-1.44,3.59-1.44,5.66,0,1.17,.81,2.06,1.98,2.06,1.62,0,10.32-1.98,12.66-2.51,1.44-.36,2.96-.72,3.68-.72,1.26,0,1.71,1.8,1.89,2.78,.45,2.24,.99,5.39,.99,7.63s-1.08,2.51-3.95,3.05c-4.49,.81-9.16,1.53-13.73,2.15-2.15,.27-3.14,.54-3.14,2.42,0,1.26,.63,2.24,1.97,2.24,1.26,0,7.99-1.44,9.52-1.89,.72-.18,1.62-.36,2.24-.36,.72,0,1.17,.72,1.53,1.89,.63,1.88,.63,6.19,.63,8.62,0,2.87-2.78,3.23-11.04,4.13-3.59,.36-4.31,.81-4.31,2.42,0,4.94,.09,5.66,2.87,6.55,3.77,1.26,15.8,6.37,15.8,10.59,0,1.98-3.77,8.71-6.64,8.71-1.26,0-3.59-1.8-6.73-4.13-.81-.63-2.87-2.15-3.95-2.15-1.26,0-1.62,.99-2.06,1.98-2.87,7-10.05,8.98-17.06,8.98-3.41,0-7.81-.63-10.95-2.78-3.59-2.42-5.66-6.46-5.66-10.59,0-3.86,1.97-7.63,5.12-9.87,3.86-2.78,9.25-3.68,13.91-3.68h.99c1.26,0,1.88-.81,1.88-1.98,0-1.79-1.17-2.42-2.06-2.42-1.62,0-7.18,.45-11.13,.45-3.41,0-4.31-.09-4.85-2.51-.54-2.24-1.26-5.21-1.26-8.35,0-1.35,.18-2.6,1.8-2.6,2.6,0,6.46,.45,10.77,.45h2.42c2.24,0,3.95-.18,3.95-2.15,0-1.26-.72-2.24-2.15-2.24-3.05,0-8.53,.36-12.75,.36h-2.69c-3.59,0-6.46-.09-7-1.35-.9-2.24-.99-6.82-.99-9.43,0-1.26,.09-2.78,1.79-2.78s11.13,.81,17.06,.81h1.97c2.15,0,3.77-.18,3.77-2.06,0-.81-.45-5.83-.72-7.45-.18-.81-.27-1.71-.27-2.51,0-1.08,.63-1.35,1.71-1.35,1.71,0,10.77,1.17,13.02,1.53Zm-22.53,59.34c0,2.15,3.32,2.24,4.85,2.24,2.42,0,5.39-.63,5.39-3.68,0-1.26-1.08-1.35-2.78-1.35-1.8,0-7.45,.18-7.45,2.78Z"/><path d="M580.95,192.18c0-2.78,.99-2.87,10.86-3.41,1.79-.09,3.86-.18,6.37-.36,11.31-.72,37.34-3.68,48.29-5.75,.36-.09,.63-.09,.9-.09,1.62,0,1.88,1.26,2.24,2.96,.54,2.33,1.17,7.63,1.17,9.96,0,1.71-.99,1.71-4.85,1.8-4.76,.09-8.26,0-12.84,1.62-11.04,3.95-18.58,14.36-18.58,26.21,0,8.53,4.49,10.86,12.39,10.86,2.24,0,5.21-.27,6.46-.27,1.71,0,2.33,.27,2.33,1.98,0,2.6-.63,8.17-1.53,10.5-.72,1.8-1.97,2.06-3.86,2.06-16.61,0-30.52-4.31-30.52-23.7,0-8.98,2.69-15.62,7.72-22.89,.27-.45,.54-.81,.54-1.35,0-.81-.63-1.35-1.62-1.35-1.17,0-3.59,.54-4.85,.81-4.76,.9-10.95,2.24-15.62,3.59-.36,.09-.9,.18-1.26,.18-1.88,0-2.51-4.04-2.96-6.82-.45-3.05-.81-4.76-.81-6.55Zm59.61,14.9c1.17,1.35,6.1,7.45,6.1,8.8,0,1.8-4.85,4.58-5.75,4.58-.45,0-.63-.27-1.79-2.06-1.71-2.6-3.5-4.94-5.48-7.45-.36-.45-.45-.72-.45-.99,0-1.26,5.03-3.95,6.01-3.95,.45,0,.99,.63,1.35,1.08Zm17.86,3.32c0,1.79-4.76,4.67-5.75,4.67-.63,0-1.08-.81-1.35-1.26-1.71-2.78-3.68-5.3-5.75-7.81-.27-.36-.72-.9-.72-1.35,0-1.17,4.94-3.95,6.01-3.95,.99,0,7.54,8.53,7.54,9.7Z"/><path class="e" d="M743.32,234.82c0,4.88,.29,10.34,.29,12.21,0,2.73-1.01,3.16-4.17,3.16h-15.37c-3.16,0-4.17-.43-4.17-3.16,0-1.87,.29-7.33,.29-12.21,0-3.59-.72-4.31-4.31-4.31h-21.54c-9.62,0-24.13,.29-25.14,.29-3.02,0-3.59-.86-3.59-4.17v-5.89c0-3.3,.43-5.31,2.01-8.33,3.16-6.32,6.32-12.93,9.34-19.1l10.49-22.12c2.87-6.18,6.46-13.79,10.2-22.84,1.58-3.45,2.3-4.02,6.03-4.02h18.96c2.15,0,3.16,.29,3.16,1.29,0,.57-.29,1.44-.86,2.59-5.6,10.63-9.19,17.81-12.64,24.99l-15.94,33.18c-.57,1.15-.72,1.87-.72,2.44,0,1.15,.86,1.44,3.16,1.44h18.38c2.59,0,3.02-.43,3.02-3.02v-3.3c0-7.04-.29-19.82-.29-20.83,0-3.02,.86-3.59,4.17-3.59h15.37c3.3,0,4.17,.57,4.17,3.59,0,1.01-.29,13.79-.29,20.83v2.01c0,3.59,.72,4.31,4.31,4.31,4.88,0,8.91-.14,10.77-.14,2.87,0,3.45,.72,3.45,4.02v12.5c0,3.3-.58,4.02-3.45,4.02-1.87,0-5.89-.14-10.77-.14-3.59,0-4.31,.72-4.31,4.31Z"/><path d="M820.12,186.43c1.79,0,4.4,0,6.19-.27,.63-.09,1.62-.18,2.24-.18,2.78,0,7.72,6.73,7.72,7.99,0,.45-.72,1.71-1.35,2.78-1.71,3.05-7,12.39-12.48,19.39-.45,.54-.72,.99-.72,1.71,0,.9,.45,1.44,1.26,1.88,5.48,3.77,11.31,8.35,16.34,12.75,.9,.81,4.04,3.59,4.67,4.4,.36,.27,.54,.63,.54,1.08,0,2.51-7.54,10.41-10.05,10.41-1.35,0-2.51-1.44-3.5-2.6-.09-.27-.27-.45-.45-.63-4.58-5.48-10.14-10.14-15.8-14.45-.9-.63-2.15-1.53-2.96-1.53-.9,0-1.62,.45-2.24,1.08-4.31,3.95-9.16,7.63-14.09,10.77-1.98,1.26-10.68,6.37-12.48,6.37-1.62,0-4.94-4.94-5.92-6.37-.72-1.08-2.25-3.68-2.25-4.85,0-1.35,1.26-1.89,2.33-2.24,13.91-4.94,28.82-17.06,36.89-29.44,.45-.63,1.26-1.89,1.26-2.69,0-1.53-1.53-1.71-3.05-1.71h-13.64c-4.04,0-8.17,.18-12.3,.18-2.24,0-2.42-1.08-2.42-4.31v-6.01c0-3.14,.18-3.77,2.33-3.77,4.13,0,8.26,.27,12.39,.27h21.54Z"/><path d="M909.71,204.57c4.13,0,8.44-.18,12.57-.18,2.51,0,2.69,.81,2.69,4.94v3.41c0,4.31-.63,5.21-2.87,5.21-4.13,0-8.26-.18-12.39-.18h-9.61c-2.06,0-2.6,1.35-2.87,3.14-1.35,7.54-4.67,15.89-10.05,21.45-5.39,5.39-16.43,11.13-19.21,11.13-2.6,0-9.78-8.89-9.78-10.68,0-1.08,1.53-1.35,2.87-1.71,10.86-3.05,17.68-7,21.19-18.4,.18-.54,.72-2.33,.72-2.87,0-1.26-.9-2.06-2.06-2.06h-15.35c-3.68,0-9.42,.27-11.76,.27s-2.78-1.35-2.78-5.57v-3.32c0-4.58,.63-4.85,2.78-4.85,2.51,0,7.81,.27,11.76,.27h44.17Zm-12.93-22.8c4.22,0,8.35-.18,12.48-.18,2.51,0,2.78,.9,2.78,5.03v4.13c0,3.41-.09,4.4-2.96,4.4-4.04,0-7.99-.18-11.94-.18h-19.84c-4.04,0-8.08,.18-12.12,.18-2.69,0-2.87-.81-2.87-5.39v-3.14c0-3.86,.27-5.03,2.78-5.03,3.77,0,7.45,.18,11.04,.18h20.65Z"/><path d="M954.5,215.52c.45,.9,.72,1.62,.72,1.97,0,2.24-7.9,5.75-9.25,5.75-.99,0-1.53-1.08-1.88-1.8-2.16-4.13-4.49-8.08-7.09-11.85-.36-.54-.81-1.17-.81-1.8,0-1.89,7.36-5.21,8.98-5.21,.45,0,1.17,.45,1.79,1.26,2.87,3.41,5.3,7.63,7.54,11.67Zm33.3-13.82c2.69,.9,5.3,1.71,5.3,3.05,0,.45-.45,.9-1.17,1.44-.81,.63-.99,.63-1.44,2.24-3.05,10.05-5.3,16.88-12.21,25.13-7.18,8.53-14.9,12.84-25.31,16.34-.72,.27-2.24,.81-2.96,.81-1.44,0-3.77-3.32-4.67-4.58-.09-.18-.27-.36-.45-.63-.72-1.08-1.8-2.69-1.8-3.68,0-1.17,.63-1.53,1.62-1.8,4.58-1.08,10.5-3.77,14.63-6.1,5.48-3.23,9.96-7.18,13.2-12.66,3.68-6.19,5.66-12.84,6.64-20.02,.18-.81,.45-1.97,1.35-1.97s6.1,1.97,7.27,2.42Zm-23.61-3.05c2.87,3.32,5.66,8.26,7.81,12.12,.36,.72,.54,1.35,.54,1.71,0,2.15-7.81,5.66-9.16,5.66-.99,0-1.53-.99-1.98-1.8-2.15-4.31-4.49-8.17-7.27-12.12-.36-.45-.63-.9-.63-1.53,0-1.71,7.36-5.12,9.07-5.12,.45,0,1.08,.45,1.62,1.08Z"/><path d="M1044.45,187.06c2.78,0,6.73-.18,8.53-.18,1.97,0,4.22,2.42,5.57,3.86l.72,.72c1.44,1.53,3.95,4.13,3.95,5.48,0,.54-.63,2.24-.81,2.96-.36,1.53-.63,2.78-.99,4.31-3.86,19.03-14.18,31.42-30.88,40.75-2.69,1.44-10.86,5.66-13.55,5.66-1.97,0-3.59-2.87-4.49-4.4-.81-1.35-2.96-5.21-2.96-6.73,0-.99,.9-1.26,1.71-1.44,8.71-1.97,19.93-8.44,25.94-14.99,5.57-6.01,9.7-15.62,9.7-20.47,0-1.62-1.62-1.8-3.05-1.8h-28.55c-3.86,0-7.63,.09-11.49,.09-3.05,0-3.5-.36-3.5-3.86v-5.83c0-3.77,.45-4.31,3.05-4.31,4.04,0,8.17,.18,12.21,.18h28.91Zm32.77-5.39c0,5.21-4.13,9.43-9.34,9.43s-9.34-4.22-9.34-9.43,4.13-9.34,9.34-9.34,9.34,4.22,9.34,9.34Zm-14.09,0c0,2.69,2.06,4.76,4.76,4.76s4.76-2.06,4.76-4.76-2.16-4.76-4.76-4.76-4.76,2.15-4.76,4.76Z"/></g><g><path class="e" d="M314.13,436.93l17.41,17.41c2.38,2.38,2.38,6.24,0,8.61l-17.41,17.41c-3.84,3.84-10.4,1.12-10.4-4.31v-34.82c0-5.43,6.56-8.14,10.4-4.31Z"/><path class="e" d="M595.6,436.93l17.41,17.41c2.38,2.38,2.38,6.24,0,8.61l-17.41,17.41c-3.84,3.84-10.4,1.12-10.4-4.31v-34.82c0-5.43,6.56-8.14,10.4-4.31Z"/><path class="e" d="M877.08,436.93l17.41,17.41c2.38,2.38,2.38,6.24,0,8.61l-17.41,17.41c-3.84,3.84-10.4,1.12-10.4-4.31v-34.82c0-5.43,6.56-8.14,10.4-4.31Z"/><g><g><path class="e" d="M141.9,318.4c0,5.23-3.76,8.33-10.32,8.33-3.13,0-6.38-.85-8.59-2.03-.52-.29-.74-.48-.74-.81,0-.18,.07-.41,.22-.74l1.66-3.57c.22-.48,.37-.74,.59-.74,.18,0,.41,.15,.74,.37,1.88,1.36,4.46,2.06,6.52,2.06,2.21,0,3.57-.85,3.57-2.25,0-1.62-2.25-2.58-5.27-3.72-3.46-1.33-7.48-3.35-7.48-8.11,0-5.2,4.09-8.14,10.39-8.14,2.65,0,5.42,.66,7.33,1.58,.52,.26,.77,.44,.77,.77,0,.18-.07,.41-.18,.7l-1.51,3.91c-.22,.52-.37,.77-.63,.77-.18,0-.37-.11-.7-.33-1.58-.96-3.79-1.58-5.67-1.58-2.54,0-3.46,.96-3.46,2.06,0,1.36,1.95,2.25,4.24,3.13,3.94,1.55,8.51,3.46,8.51,8.33Z"/><path class="e" d="M158.6,319.1c0,1.95,.11,6.19,.11,6.45,0,.77-.22,.92-1.07,.92h-4.35c-.85,0-1.07-.15-1.07-.92,0-.26,.11-4.5,.11-6.45v-12.86c0-.92-.18-1.11-1.11-1.11h-.77c-1.33,0-4.72,.07-4.97,.07-.77,0-.92-.22-.92-1.07v-3.83c0-.85,.15-1.07,.92-1.07,.26,0,3.98,.07,5.71,.07h8.55c1.73,0,5.45-.07,5.71-.07,.77,0,.92,.22,.92,1.07v3.83c0,.85-.15,1.07-.92,1.07-.26,0-3.65-.07-4.97-.07h-.77c-.92,0-1.11,.18-1.11,1.11v12.86Z"/><path class="e" d="M180.08,320.83c1.73,0,5.45-.07,5.71-.07,.77,0,.92,.22,.92,1.07v3.65c0,.85-.15,1.07-.92,1.07-.26,0-3.98-.07-5.71-.07h-3.76c-1.7,0-4.94,.07-5.2,.07-.77,0-1.03-.26-1.03-1.03,0-.26,.11-4.35,.11-6.3v-12.64c0-1.95-.11-6.04-.11-6.3,0-.77,.26-1.03,1.03-1.03,.26,0,3.5,.07,5.2,.07h2.95c1.73,0,5.45-.07,5.71-.07,.77,0,.92,.22,.92,1.07v3.8c0,.85-.15,1.07-.92,1.07-.26,0-3.98-.07-5.71-.07h-1.81c-.92,0-1.11,.18-1.11,1.11v2.25c0,.85,.15,1,.99,1h1.07c1.73,0,5.45-.07,5.71-.07,.77,0,.92,.22,.92,1.07v3.5c0,.85-.15,1.07-.92,1.07-.26,0-3.98-.07-5.71-.07h-1.07c-.85,0-.99,.15-.99,.99v3.8c0,.92,.18,1.11,1.11,1.11h2.62Z"/><path class="e" d="M192.31,326.47c-.85,0-1.07-.15-1.07-.92,0-.26,.11-4.5,.11-6.45v-12.53c0-1.95-.11-6.04-.11-6.3,0-.77,.26-1.03,1.03-1.03,.26,0,3.5,.07,5.2,.07h4.83c5.64,0,9.1,2.8,9.1,8.36,0,5.97-3.5,10.06-10.76,10.06h-2.03c-.92,0-1.11,.18-1.11,1.11,0,2.25,.11,6.45,.11,6.71,0,.77-.22,.92-1.07,.92h-4.24Zm5.2-15.07c0,.92,.18,1.11,1.11,1.11h1.99c2.8,0,4.5-1.44,4.5-4.24,0-2.21-1.14-3.46-3.87-3.46h-2.62c-.92,0-1.11,.18-1.11,1.11v5.49Z"/><path class="e" d="M227.1,319.1c0,1.95,.11,6.19,.11,6.45,0,.77-.22,.92-1.07,.92h-4.27c-.85,0-1.07-.15-1.07-.92,0-.26,.11-4.5,.11-6.45v-11.79c0-.66-.11-.92-.44-.92-.15,0-.29,.04-.59,.15-1.25,.44-2.36,.88-3.35,1.33-.29,.15-.52,.22-.7,.22-.33,0-.48-.26-.66-.81l-1.29-3.65c-.11-.29-.15-.52-.15-.7,0-.33,.22-.48,.85-.66,2.21-.66,4.75-1.55,6.96-2.51,.77-.33,1.33-.44,2.17-.44h2.43c.85,0,1.07,.15,1.07,.92,0,.26-.11,4.5-.11,6.45v12.42Z"/></g><rect class="e" x="70.77" y="345.09" width="214.03" height="214.03" rx="28.39" ry="28.39"/><g><path class="d" d="M88.35,446.12c-2.08,.17-4.21,.33-7,.33-.71,0-.92-.25-1-.87-.12-.79-.29-2.17-.46-3.62,1.08,.17,2.17,.21,3.25,.21,1.75,0,3.54-.17,5.29-.33,0-1.37,.04-2.96,.04-4.75,0-1.08-.04-2.29-.29-3.37,2.08,.12,3.83,.42,4.96,.75,.5,.12,.83,.42,.83,.79,0,.17-.08,.38-.25,.67-.29,.54-.5,1.08-.58,1.62-.12,1.08-.17,2.12-.21,3.46,1.83-.38,3.54-.92,5.33-1.54,.38-.12,.67-.04,.71,.37,.17,1.04,.25,2.17,.25,3.25,0,.42-.12,.54-.54,.67-2.75,.87-3.46,1.08-5.96,1.58-.04,2-.04,4.04-.08,6.04,3.91-1.67,7.58-2.33,10.24-2.29,5.16,.04,8.87,3.33,8.87,8.33,0,5.33-3.42,8.45-9.04,8.45-1.21,0-2.54-.17-3.42-.38-.67-.17-.92-.58-.92-1.25-.08-.92-.38-2.33-1.25-3.54,2,.67,3.66,.75,5.21,.75,2.33,0,4.5-1.33,4.5-4.29,0-2.71-1.67-4.21-4.58-4.21-2.37,0-5.25,.62-9.54,2.83,.04,1.75,.08,3.16,.17,5,.12,1.83,.33,4.46,.33,5.41,0,.58,.08,1.21-.62,1.37-.92,.25-2.25,.46-3.08,.5-.46,.04-.62-.29-1-.83-1.12-1.54-3.29-3.54-5.91-5.33-.46,.25-.96,.58-1.33,.92-.21,.21-.5,.29-.71,.29-.33,0-.67-.25-.92-.67-.46-.75-1.29-2.5-1.92-3.87,1.08-.25,2.46-.71,3.83-1.46,1.79-1,3.75-2.12,6.79-3.87v-7.12Zm-3.87,14.32c1.17,.62,2.58,1.33,3.91,1.87,.33,.08,.46,.04,.42-.33-.08-1.08-.17-3-.25-4.37-1.17,.79-2.58,1.75-4.08,2.83Zm19.9-21.86c.29-.46,.42-.58,.71-.5,3.83,1.12,6.66,2.87,8.83,5.08,.17,.17,.25,.29,.25,.42s-.08,.25-.17,.42c-.54,.83-1.62,2.12-2.25,2.96-.12,.17-.71,.21-.83,0-2.21-2.46-5.12-4-8.45-5.12,.54-1.12,1.21-2.21,1.92-3.25Z"/><path class="d" d="M134.78,436.5c0-2.29-.08-3.58-.33-5.08,1.58,.04,3.17,.12,4.58,.29,.38,.04,.67,.21,.67,.42,0,.33-.08,.58-.21,.87-.21,.54-.29,1.46-.29,3.41v1.37h7.33c4.04,0,5.46-.08,5.71-.08,.42,0,.46,.04,.46,.46,0,.25-.08,1.79-.08,6.41v6.08c0,7.75,.08,9.2,.08,9.45,0,.42-.04,.46-.46,.46h-3.5c-.42,0-.46-.04-.46-.46v-1.42h-9.08v2.71c0,4.96,.04,7.5,.04,7.7,0,.42-.04,.46-.42,.46h-3.71c-.38,0-.42-.04-.42-.46,0-.25,.08-2.75,.08-7.66v-2.75h-8.79v1.58c0,.42-.04,.46-.46,.46h-3.5c-.42,0-.46-.04-.46-.46,0-.25,.08-1.71,.08-9.49v-5.41c0-5.41-.08-6.91-.08-7.2,0-.42,.04-.46,.46-.46,.29,0,1.71,.08,5.71,.08h7.04v-1.29Zm-8.79,9.74h8.79v-4.66h-8.79v4.66Zm8.79,8.66v-4.96h-8.79v4.96h8.79Zm4.41-13.33v4.66h9.08v-4.66h-9.08Zm9.08,13.33v-4.96h-9.08v4.96h9.08Z"/><path class="d" d="M167.51,434.21c.71,.17,1,.38,1,.79,0,.46-.25,.96-.42,1.37-.21,.58-.38,1.87-.58,5.08-.42,6.41-.62,10.66-.62,16.12,0,4.21,.5,5.16,3.83,5.16,3.71,0,9.5-2.25,14.58-7.66,.17,1.58,.54,2.96,.96,3.96,.21,.46,.33,.75,.33,1,0,.37-.17,.71-.83,1.29-4.5,4.12-10.37,6.25-15.78,6.25s-7.83-2.12-7.83-8.49c0-7,.38-12.99,.58-17.99,.08-2.46,.21-5.12-.42-7.62,1.92,.21,3.91,.42,5.21,.75Z"/><path class="d" d="M202.66,460.31c.87,1.71,1.71,2.75,3.42,3.46,1.46,.58,4.08,.83,7.7,.83,5.37,0,11.7-.29,17.91-.92-.58,.87-.96,2-1.12,3.25q-.21,1.33-1.54,1.42c-5.29,.29-10.24,.42-14.58,.42s-7.75-.38-9.74-1.21c-1.92-.79-3.04-1.96-4.08-3.71-1.29,1.25-2.75,2.5-4.29,3.66-.42,.33-.67,.58-.83,.83-.21,.29-.38,.42-.62,.42-.17,0-.42-.21-.58-.54-.58-1.08-1.12-2.42-1.71-3.91,1.08-.5,1.67-.79,2.46-1.29,1.21-.75,2.42-1.71,3.5-2.67v-9.2h-2.04c-2.25,0-2.83,.08-3.04,.08-.46,0-.5-.04-.5-.5v-3.21c0-.42,.04-.46,.5-.46,.21,0,.79,.08,3.04,.08h2.67c2.21,0,2.87-.08,3.12-.08,.42,0,.46,.04,.46,.46,0,.25-.08,1.42-.08,3.96v8.83Zm-2.58-18.66c-.29,.21-.42,.29-.54,.29s-.21-.08-.33-.29c-1.54-2.5-3.25-4.75-5.12-6.5-.33-.29-.25-.42,.21-.71l2.33-1.54c.46-.29,.54-.33,.88-.04,1.92,1.79,3.71,3.83,5.21,6.2,.25,.38,.25,.46-.21,.79l-2.42,1.79Zm14.74-8c1.92,0,3.25-.08,3.79-.08,.29,0,.42,.21,.42,.46,0,.96-.04,3.29,.5,6.12,1.21,6.91,5.29,13.49,11.7,17.57-.71,.79-1.62,2.04-2.21,3.25-.33,.62-.5,.92-.75,.92-.21,0-.5-.17-.92-.54-5.08-4.08-8.5-9.58-10.12-15.82-1.58,6.33-4.66,11.28-9.49,15.49-.46,.38-.71,.58-.92,.58s-.42-.25-.87-.79c-.88-1.17-1.75-1.92-2.58-2.46,6.66-4.66,10.41-11.16,11.37-20.65h-3.62c-2.58,0-3.33,.08-3.58,.08-.46,0-.5-.04-.5-.5v-3.25c0-.42,.04-.46,.5-.46,.25,0,1,.08,3.58,.08h3.71Z"/><path class="d" d="M264.21,445.41c.08-.92,.08-1.71-.04-2.83,2.17,.54,3.83,1.17,4.83,1.79,.38,.21,.58,.75,.29,1.12-.25,.54-.54,1-.67,1.62-.33,1.75-.75,3.58-1.17,5.37,2.37,1.21,4.96,2.83,6.5,4,.42,.25,.37,.46,.25,.87-.42,1-1.29,2.75-1.79,3.58-.12,.21-.25,.29-.38,.29-.17,0-.33-.12-.5-.29-1.83-1.58-3.5-2.79-5.46-3.91-2.12,4.79-4.37,7.83-8.41,10.95-.38,.29-.58,.46-.83,.46-.17,0-.33-.08-.62-.29-1.12-.92-2.17-1.33-3.62-1.71,5.21-3.62,7.75-7.08,9.33-11.28-2.29-1.17-5.25-2.08-8.25-2.54-2.21,4.58-3.42,6.66-5.08,8.33-1.54,1.62-3.21,2.29-5.33,2.29-2.42,0-4.96-1.67-4.96-5.7,0-5.16,5.33-9.2,12.28-9.2,1.37-3.46,2.42-6.37,3.46-9.87-2.29,.25-4.37,.5-5.75,.67-.58,.08-1.21,.21-1.87,.46-.21,.08-.5,.17-.75,.17-.33,0-.54-.17-.67-.46-.37-.83-.79-2.46-1.21-4.54,1.25,.25,2.42,.29,3.66,.25,2,0,4.08-.21,6.46-.54,1.04-.17,1.5-.38,2.04-.71,.17-.12,.38-.17,.54-.17,.21,0,.42,.04,.58,.17,1.04,.62,2.04,1.46,2.83,2.29,.25,.25,.38,.46,.38,.71s-.17,.46-.42,.71c-.62,.58-.79,1.37-1.12,2.17-1.08,2.83-2.25,6.08-3.5,9.08,2.62,.33,5.08,.96,8.08,2.08,.42-1.92,.71-3.5,.88-5.37Zm-21.99,11.62c0,1.33,.46,1.92,1.46,1.92,.79,0,1.58-.54,2.42-1.58,.96-1.21,1.96-2.87,3.04-5.08-4.25,.17-6.91,2.37-6.91,4.75Z"/></g></g><g><g><path class="e" d="M420.97,318.4c0,5.23-3.76,8.33-10.32,8.33-3.13,0-6.38-.85-8.59-2.03-.52-.29-.74-.48-.74-.81,0-.18,.07-.41,.22-.74l1.66-3.57c.22-.48,.37-.74,.59-.74,.18,0,.41,.15,.74,.37,1.88,1.36,4.46,2.06,6.52,2.06,2.21,0,3.57-.85,3.57-2.25,0-1.62-2.25-2.58-5.27-3.72-3.46-1.33-7.48-3.35-7.48-8.11,0-5.2,4.09-8.14,10.39-8.14,2.65,0,5.42,.66,7.33,1.58,.52,.26,.77,.44,.77,.77,0,.18-.07,.41-.18,.7l-1.51,3.91c-.22,.52-.37,.77-.63,.77-.18,0-.37-.11-.7-.33-1.58-.96-3.79-1.58-5.67-1.58-2.54,0-3.46,.96-3.46,2.06,0,1.36,1.95,2.25,4.24,3.13,3.94,1.55,8.51,3.46,8.51,8.33Z"/><path class="e" d="M437.67,319.1c0,1.95,.11,6.19,.11,6.45,0,.77-.22,.92-1.07,.92h-4.35c-.85,0-1.07-.15-1.07-.92,0-.26,.11-4.5,.11-6.45v-12.86c0-.92-.18-1.11-1.11-1.11h-.77c-1.33,0-4.72,.07-4.97,.07-.77,0-.92-.22-.92-1.07v-3.83c0-.85,.15-1.07,.92-1.07,.26,0,3.98,.07,5.71,.07h8.55c1.73,0,5.45-.07,5.71-.07,.77,0,.92,.22,.92,1.07v3.83c0,.85-.15,1.07-.92,1.07-.26,0-3.65-.07-4.97-.07h-.77c-.92,0-1.11,.18-1.11,1.11v12.86Z"/><path class="e" d="M459.15,320.83c1.73,0,5.45-.07,5.71-.07,.77,0,.92,.22,.92,1.07v3.65c0,.85-.15,1.07-.92,1.07-.26,0-3.98-.07-5.71-.07h-3.76c-1.7,0-4.94,.07-5.2,.07-.77,0-1.03-.26-1.03-1.03,0-.26,.11-4.35,.11-6.3v-12.64c0-1.95-.11-6.04-.11-6.3,0-.77,.26-1.03,1.03-1.03,.26,0,3.5,.07,5.2,.07h2.95c1.73,0,5.45-.07,5.71-.07,.77,0,.92,.22,.92,1.07v3.8c0,.85-.15,1.07-.92,1.07-.26,0-3.98-.07-5.71-.07h-1.81c-.92,0-1.11,.18-1.11,1.11v2.25c0,.85,.15,1,.99,1h1.07c1.73,0,5.45-.07,5.71-.07,.77,0,.92,.22,.92,1.07v3.5c0,.85-.15,1.07-.92,1.07-.26,0-3.98-.07-5.71-.07h-1.07c-.85,0-.99,.15-.99,.99v3.8c0,.92,.18,1.11,1.11,1.11h2.62Z"/><path class="e" d="M471.39,326.47c-.85,0-1.07-.15-1.07-.92,0-.26,.11-4.5,.11-6.45v-12.53c0-1.95-.11-6.04-.11-6.3,0-.77,.26-1.03,1.03-1.03,.26,0,3.5,.07,5.2,.07h4.83c5.64,0,9.1,2.8,9.1,8.36,0,5.97-3.5,10.06-10.76,10.06h-2.03c-.92,0-1.11,.18-1.11,1.11,0,2.25,.11,6.45,.11,6.71,0,.77-.22,.92-1.07,.92h-4.24Zm5.2-15.07c0,.92,.18,1.11,1.11,1.11h1.99c2.8,0,4.5-1.44,4.5-4.24,0-2.21-1.14-3.46-3.87-3.46h-2.62c-.92,0-1.11,.18-1.11,1.11v5.49Z"/><path class="e" d="M506.25,321.17c1.92,0,5.9-.07,6.15-.07,.77,0,.92,.22,.92,1.07v3.24c0,.85-.15,1.07-.92,1.07-.26,0-4.24-.07-6.15-.07h-5.27c-1.95,0-6.26,.07-6.52,.07-.77,0-.92-.22-.92-1.07v-1.58c0-.96,.11-1.22,.92-1.73,.74-.52,1.33-.96,2.03-1.55,7.04-5.97,10.21-9.18,10.21-12.2,0-2.03-1.33-3.43-3.98-3.43-2.1,0-4.02,1.18-5.23,2.58-.33,.37-.52,.55-.74,.55s-.41-.18-.74-.52l-2.73-2.91c-.29-.33-.44-.55-.44-.81,0-.22,.15-.44,.48-.77,2.36-2.4,5.97-4.02,9.88-4.02,6.34,0,9.95,3.61,9.95,8.33s-3.79,8.99-8.59,13.12c-.29,.26-.41,.41-.41,.52s.22,.18,.66,.18h1.44Z"/></g><rect class="e" x="352.25" y="345.09" width="214.03" height="214.03" rx="28.39" ry="28.39"/><g><path class="d" d="M376.19,447.41c3.67-1.17,7.04-2.5,10.37-4.04,2.25-1.08,3.29-1.75,4.46-3,1.46,1.21,2.83,2.92,3.46,3.75,.5,.58,.46,1.29-.38,1.5-1.17,.29-2.33,.87-3.46,1.37-4.12,1.87-9,3.58-14.49,5.16v5.54c0,1.96,.29,2.62,1.37,2.96,1.08,.29,2.71,.46,5.25,.46,3.91,0,7.41-.29,11.74-.96,.62-.08,.71,.08,.75,.58,.12,1.17,.25,2.75,.25,3.62,0,.54-.25,.71-.88,.75-4.71,.58-7.12,.75-12.37,.75-3.71,0-6.16-.38-7.91-1.12-2.08-.87-2.96-2.83-2.96-6.25v-15.37c0-3.96-.08-5.54-.42-7.62,1.96,.21,3.92,.46,5.25,.83,.92,.21,.75,.92,.38,1.54-.33,.67-.42,1.79-.42,3.75v5.79Z"/><path class="d" d="M412.88,441.29c-2.37,0-4.91,.17-7.37,.33-.5,.04-.67-.25-.75-.62-.33-1.17-.58-3.25-.75-4.5,2.83,.21,5.12,.29,8.45,.29h17.86c1.75,0,2.46-.08,2.87-.25,.21-.08,.58-.29,.79-.29,.33,0,.67,.25,.96,.58,.92,.79,1.71,1.67,2.5,2.62,.21,.25,.33,.5,.33,.75,0,.33-.21,.62-.58,.87-.46,.33-.79,.75-1.12,1.21-1.96,2.96-4.54,5.83-7.33,8.04-.25,.25-.54,.37-.87,.37s-.71-.17-1-.42c-1.04-.83-2.08-1.29-3.46-1.71,3.33-2.5,5.37-4.29,7.45-7.29h-17.99Zm2.33,16.24c1.58-2.96,2.04-5.79,2.04-9.83,0-1.54-.08-2.5-.42-3.91,2.04,.21,4.21,.5,5.37,.79,.54,.12,.71,.42,.71,.79,0,.25-.08,.5-.21,.75-.29,.58-.33,1-.37,1.71-.12,4.04-.54,7.75-2.46,11.45-1.62,3.12-4.12,6.08-7.58,8.29-.37,.25-.75,.42-1.17,.42-.29,0-.58-.12-.83-.38-1-.87-2.21-1.54-3.79-2.12,4.54-2.37,6.91-4.62,8.7-7.95Z"/><path class="d" d="M447.94,440.75c0-2.87-.12-4.46-.46-6.08,1.75,.21,3.96,.46,5.16,.87,.5,.12,.71,.37,.71,.67,0,.21-.08,.42-.17,.62-.38,.79-.46,1.83-.46,3.96v8.41c0,2.17,.08,3.79,.12,5.25,0,.62-.25,.83-.92,.83h-3.33c-.58,0-.83-.21-.79-.71,0-1.46,.12-3.87,.12-5.66v-8.16Zm19.61,7.79c0,6.16-.92,10.29-3.37,13.57-2.04,2.71-5.66,5.25-9.16,6.54-.33,.12-.62,.21-.87,.21-.33,0-.62-.12-1-.5-1-1-2.08-1.79-3.54-2.54,4.46-1.37,7.95-3.33,10.16-6.08,1.92-2.37,2.79-5.83,2.79-11.12v-7.87c0-3.58-.08-4.91-.46-6.79,2,.17,4,.46,5.41,.92,.42,.12,.58,.38,.58,.71,0,.21-.04,.46-.17,.67-.38,.87-.38,1.96-.38,4.54v7.75Z"/><path class="d" d="M481.05,437.63c.17-.21,.37-.33,.58-.33,.17,0,.33,.08,.54,.21,2.12,1.12,5.58,3.66,7.95,5.91,.25,.25,.38,.42,.38,.58s-.08,.33-.25,.54c-.62,.83-2,2.5-2.58,3.12-.21,.21-.33,.33-.5,.33s-.33-.12-.54-.33c-2.5-2.58-5.5-4.96-8.5-6.79,.92-1.12,2.12-2.42,2.92-3.25Zm3.62,21.94c5.08-2.62,7.79-4.37,11.99-7.75,5.08-4.12,7.87-6.79,11.41-11.33,.25,2.08,.62,3.5,1.17,4.87,.12,.29,.21,.54,.21,.79,0,.37-.21,.71-.67,1.25-2.21,2.58-5.79,5.91-9.58,8.83-3.46,2.71-6.95,5.04-12.58,8.16-1.87,1.12-2.42,1.54-2.79,1.92-.25,.25-.5,.42-.75,.42-.21,0-.46-.17-.71-.46-1.04-1.17-2.33-2.87-3.33-4.62,2.12-.58,3.41-.96,5.62-2.08Z"/><path class="d" d="M540.06,440.42c1.08-.04,1.62-.21,2.08-.5,.17-.12,.33-.17,.54-.17s.42,.08,.67,.25c1.04,.67,2,1.46,2.83,2.25,.37,.33,.54,.67,.54,.96,0,.33-.21,.62-.5,.87-.58,.46-1,1.04-1.37,1.79-2.79,5.66-5.46,9.7-8.25,12.87-3.58,4.04-8.54,8.08-12.66,10.37-.25,.17-.46,.21-.67,.21-.33,0-.62-.17-.96-.46-1.04-.83-2.33-1.46-3.96-1.92,6.5-3.58,9.79-6.2,13.87-10.62,3.29-3.66,5.21-6.5,7.7-11.83l-10.08,.29c-3.42,4.21-5.5,6.58-7.87,8.54-.29,.29-.58,.46-.87,.46-.21,0-.42-.08-.62-.25-1.04-.75-2.58-1.5-4-1.79,5.41-4.41,8.62-8.29,11.2-12.37,1.37-2.33,2-3.62,2.46-5.62,2.37,.83,3.96,1.54,4.87,2.21,.29,.21,.42,.46,.42,.71s-.12,.5-.46,.71c-.42,.25-.71,.71-1.04,1.12-.46,.71-.87,1.33-1.37,2.08l7.5-.17Zm5.16-5.62c.21-.17,.38-.12,.62,.08,1.29,1,2.79,2.67,3.96,4.46,.17,.25,.17,.46-.12,.67l-1.75,1.29c-.29,.21-.5,.17-.71-.12-1.25-1.92-2.58-3.5-4.21-4.83l2.21-1.54Zm3.71-2.71c.25-.17,.38-.12,.62,.08,1.54,1.17,3.04,2.83,3.96,4.29,.17,.25,.21,.5-.12,.75l-1.67,1.29c-.33,.25-.54,.12-.71-.12-1.12-1.79-2.46-3.37-4.16-4.79l2.08-1.5Z"/></g></g><g><g><path class="e" d="M704.06,318.4c0,5.23-3.76,8.33-10.32,8.33-3.13,0-6.38-.85-8.59-2.03-.52-.29-.74-.48-.74-.81,0-.18,.07-.41,.22-.74l1.66-3.57c.22-.48,.37-.74,.59-.74,.18,0,.41,.15,.74,.37,1.88,1.36,4.46,2.06,6.52,2.06,2.21,0,3.57-.85,3.57-2.25,0-1.62-2.25-2.58-5.27-3.72-3.46-1.33-7.48-3.35-7.48-8.11,0-5.2,4.09-8.14,10.39-8.14,2.65,0,5.42,.66,7.33,1.58,.52,.26,.77,.44,.77,.77,0,.18-.07,.41-.18,.7l-1.51,3.91c-.22,.52-.37,.77-.63,.77-.18,0-.37-.11-.7-.33-1.58-.96-3.79-1.58-5.67-1.58-2.54,0-3.46,.96-3.46,2.06,0,1.36,1.95,2.25,4.24,3.13,3.94,1.55,8.51,3.46,8.51,8.33Z"/><path class="e" d="M720.76,319.1c0,1.95,.11,6.19,.11,6.45,0,.77-.22,.92-1.07,.92h-4.35c-.85,0-1.07-.15-1.07-.92,0-.26,.11-4.5,.11-6.45v-12.86c0-.92-.18-1.11-1.11-1.11h-.77c-1.33,0-4.72,.07-4.97,.07-.77,0-.92-.22-.92-1.07v-3.83c0-.85,.15-1.07,.92-1.07,.26,0,3.98,.07,5.71,.07h8.55c1.73,0,5.45-.07,5.71-.07,.77,0,.92,.22,.92,1.07v3.83c0,.85-.15,1.07-.92,1.07-.26,0-3.65-.07-4.97-.07h-.77c-.92,0-1.11,.18-1.11,1.11v12.86Z"/><path class="e" d="M742.24,320.83c1.73,0,5.45-.07,5.71-.07,.77,0,.92,.22,.92,1.07v3.65c0,.85-.15,1.07-.92,1.07-.26,0-3.98-.07-5.71-.07h-3.76c-1.7,0-4.94,.07-5.2,.07-.77,0-1.03-.26-1.03-1.03,0-.26,.11-4.35,.11-6.3v-12.64c0-1.95-.11-6.04-.11-6.3,0-.77,.26-1.03,1.03-1.03,.26,0,3.5,.07,5.2,.07h2.95c1.73,0,5.45-.07,5.71-.07,.77,0,.92,.22,.92,1.07v3.8c0,.85-.15,1.07-.92,1.07-.26,0-3.98-.07-5.71-.07h-1.81c-.92,0-1.11,.18-1.11,1.11v2.25c0,.85,.15,1,.99,1h1.07c1.73,0,5.45-.07,5.71-.07,.77,0,.92,.22,.92,1.07v3.5c0,.85-.15,1.07-.92,1.07-.26,0-3.98-.07-5.71-.07h-1.07c-.85,0-.99,.15-.99,.99v3.8c0,.92,.18,1.11,1.11,1.11h2.62Z"/><path class="e" d="M754.47,326.47c-.85,0-1.07-.15-1.07-.92,0-.26,.11-4.5,.11-6.45v-12.53c0-1.95-.11-6.04-.11-6.3,0-.77,.26-1.03,1.03-1.03,.26,0,3.5,.07,5.2,.07h4.83c5.64,0,9.1,2.8,9.1,8.36,0,5.97-3.5,10.06-10.76,10.06h-2.03c-.92,0-1.11,.18-1.11,1.11,0,2.25,.11,6.45,.11,6.71,0,.77-.22,.92-1.07,.92h-4.24Zm5.2-15.07c0,.92,.18,1.11,1.11,1.11h1.99c2.8,0,4.5-1.44,4.5-4.24,0-2.21-1.14-3.46-3.87-3.46h-2.62c-.92,0-1.11,.18-1.11,1.11v5.49Z"/><path class="e" d="M792.28,311.81c0,.15,.11,.22,.55,.37,2.84,.96,4.09,3.24,4.09,5.86,0,4.09-3.17,8.73-12.16,8.73-2.98,0-6.08-.59-8.07-1.62-.55-.26-.77-.48-.77-.85,0-.18,.04-.37,.15-.66l1.18-3.35c.18-.52,.33-.77,.59-.77,.18,0,.37,.11,.7,.33,1.51,.92,3.72,1.62,6.34,1.62,3.46,0,5.68-1.51,5.68-3.57,0-2.32-2.03-3.06-6.38-3.06-1.03,0-2.47,.07-2.95,.07-.77,0-.88-.22-.88-1.11v-2.98c0-.88,.11-1.11,.88-1.11,.48,0,1.66,.07,2.54,.07,3.94,0,5.64-.85,5.64-2.76,0-1.51-1.58-2.43-4.16-2.43-1.95,0-3.91,.59-5.38,1.51-.33,.22-.55,.33-.74,.33-.26,0-.44-.22-.66-.74l-1.51-3.17c-.15-.33-.22-.55-.22-.74,0-.33,.22-.52,.74-.77,2.36-1.29,5.45-1.99,8.48-1.99,7,0,9.76,3.35,9.76,6.74,0,2.17-.96,4.39-2.95,5.64-.29,.18-.48,.29-.48,.41Z"/></g><rect class="e" x="633.72" y="345.09" width="214.03" height="214.03" rx="28.39" ry="28.39"/><g><path class="d" d="M654.29,419.52c-2.37,0-4.91,.17-7.37,.33-.5,.04-.67-.25-.75-.62-.33-1.17-.58-3.25-.75-4.5,2.83,.21,5.12,.29,8.45,.29h17.86c1.75,0,2.46-.08,2.87-.25,.21-.08,.58-.29,.79-.29,.33,0,.67,.25,.96,.58,.92,.79,1.71,1.67,2.5,2.62,.21,.25,.33,.5,.33,.75,0,.33-.21,.62-.58,.87-.46,.33-.79,.75-1.12,1.21-1.96,2.96-4.54,5.83-7.33,8.04-.25,.25-.54,.37-.87,.37s-.71-.17-1-.42c-1.04-.83-2.08-1.29-3.46-1.71,3.33-2.5,5.37-4.29,7.45-7.29h-17.99Zm2.33,16.24c1.58-2.96,2.04-5.79,2.04-9.83,0-1.54-.08-2.5-.42-3.91,2.04,.21,4.21,.5,5.37,.79,.54,.12,.71,.42,.71,.79,0,.25-.08,.5-.21,.75-.29,.58-.33,1-.37,1.71-.12,4.04-.54,7.75-2.46,11.45-1.62,3.12-4.12,6.08-7.58,8.29-.37,.25-.75,.42-1.17,.42-.29,0-.58-.12-.83-.38-1-.87-2.21-1.54-3.79-2.12,4.54-2.37,6.91-4.62,8.7-7.95Z"/><path class="d" d="M699.72,420.82c.17-2.04,.25-3.37,.29-5.62,0-1.08-.04-1.96-.29-3.29,2.21,.21,4.08,.5,5.41,.87,.54,.17,.71,.5,.71,.87,0,.25-.08,.54-.21,.79-.38,.62-.46,1.04-.54,1.96-.12,1.33-.17,2.33-.38,4.37h6.33c1.92,0,3.87-.08,5.79-.08,.67,0,.87,.12,.87,.58,0,.54-.08,2.21-.17,4.41-.17,5.12-.75,10.91-1.54,13.7-.83,3.21-2.25,4.96-4.91,5.62-.96,.25-2.46,.46-4.21,.46-.5,0-.83-.29-1-.83-.54-1.54-1.21-2.67-2.42-3.79,3.08,.12,4.62-.04,5.66-.38,1.12-.37,1.67-1.04,2.17-2.92,.75-3.16,1.12-6.7,1.25-12.49h-8.41c-.83,5.04-1.96,8.79-3.71,11.53-1.92,3.12-5,6.25-8.83,8.58-.33,.21-.67,.33-.96,.33-.25,0-.54-.12-.79-.42-.83-.92-2.08-1.79-3.5-2.42,4.79-2.42,7.54-5.04,9.79-8.49,1.29-2.08,2.33-4.91,3-8.99h-3.75c-2.04,0-4.04,.08-6,.21-.42,.04-.58-.21-.62-.71-.17-1-.25-2.5-.33-4.04,2.62,.17,4.5,.17,6.91,.17h4.37Z"/><path class="d" d="M752.86,418.48c1.96,0,2.58-.12,3.12-.46,.17-.12,.38-.21,.58-.21,.33,0,.67,.17,.92,.42,.83,.62,2.04,1.71,2.79,2.58,.21,.21,.29,.42,.29,.62,0,.33-.17,.62-.42,.92-.54,.54-.71,1.33-.92,2.04-1.29,4.29-2.79,8.49-5.25,12.24-2.42,3.75-6.54,7.7-10.74,10.2-.25,.17-.46,.25-.67,.25-.29,0-.54-.17-.87-.42-1.29-.87-2.5-1.37-4.16-1.87,5.87-3.25,9.12-6.12,11.91-10.37,2.33-3.54,3.79-7.16,4.83-11.62h-18.11v3.5c0,1.67,.08,3.37,.12,5.04,0,.67-.12,.79-.67,.79-1.25,.08-2.58,.08-3.83,0-.54,0-.67-.12-.67-.62,.04-2.12,.08-3.5,.08-5.16v-3.37c0-1.33,0-2.83-.08-4.04-.04-.38,.21-.54,.58-.54,1.96,.08,4.25,.12,6.33,.12h4.25v-1.62c0-2.21,0-3.91-.42-5.54,2.04,.17,4,.38,5.16,.62,.83,.17,1.08,.62,.75,1.29-.21,.58-.5,1.46-.5,3.21v2h5.58Z"/><path class="d" d="M774.31,415.86c.17-.21,.37-.33,.58-.33,.17,0,.33,.08,.54,.21,2.12,1.12,5.58,3.66,7.95,5.91,.25,.25,.38,.42,.38,.58s-.08,.33-.25,.54c-.62,.83-2,2.5-2.58,3.12-.21,.21-.33,.33-.5,.33s-.33-.12-.54-.33c-2.5-2.58-5.5-4.96-8.5-6.79,.92-1.12,2.12-2.42,2.92-3.25Zm3.62,21.94c5.08-2.62,7.79-4.37,11.99-7.75,5.08-4.12,7.87-6.79,11.41-11.33,.25,2.08,.62,3.5,1.17,4.87,.12,.29,.21,.54,.21,.79,0,.37-.21,.71-.67,1.25-2.21,2.58-5.79,5.91-9.58,8.83-3.46,2.71-6.95,5.04-12.58,8.16-1.87,1.12-2.42,1.54-2.79,1.92-.25,.25-.5,.42-.75,.42-.21,0-.46-.17-.71-.46-1.04-1.17-2.33-2.87-3.33-4.62,2.12-.58,3.41-.96,5.62-2.08Z"/><path class="d" d="M820.45,423.65c5.08,1.58,9.12,3.21,13.24,5.66,.46,.25,.67,.54,.46,1.08-.54,1.37-1.21,2.67-1.79,3.62-.17,.29-.33,.46-.54,.46-.12,0-.29-.04-.46-.21-3.83-2.46-7.58-4.29-10.95-5.33v9.2c0,2.71,.08,5.16,.17,8.16,.04,.5-.17,.62-.75,.62-1.21,.08-2.5,.08-3.71,0-.58,0-.79-.12-.79-.62,.12-3.08,.17-5.54,.17-8.2v-20.49c0-3.12-.12-4.5-.42-6.16,1.92,.12,4,.33,5.21,.67,.58,.12,.79,.37,.79,.71,0,.25-.12,.58-.33,.96-.29,.54-.29,1.58-.29,3.91v5.95Z"/><path class="d" d="M707.45,483.04c0-1.54,.04-3.41,.08-5.25-.96,1.37-2.04,2.62-3.12,3.83-.29,.33-.54,.5-.71,.5-.25,0-.42-.21-.54-.71-.33-1.46-.96-2.87-1.54-3.62,3.96-3.91,6.7-9.04,8.45-13.7,.38-.96,.58-2,.75-3,1.5,.42,2.87,.75,4.04,1.21,.5,.21,.67,.38,.67,.62,0,.29-.08,.46-.42,.75-.29,.25-.5,.58-.92,1.75-.71,1.83-1.54,3.71-2.46,5.5v21.69c0,4.08,.08,6.12,.08,6.33,0,.42-.04,.46-.46,.46h-3.54c-.42,0-.46-.04-.46-.46,0-.25,.08-2.25,.08-6.33v-9.58Zm13.99-10.49c-1.46,2.67-3.17,5.33-5,7.54-.38,.46-.58,.67-.79,.67-.25,0-.46-.25-.79-.83-.62-1.12-1.37-2-2-2.54,3.33-3.54,6.29-8.95,7.62-12.99,.33-1.04,.58-2.21,.67-3.16,1.54,.29,2.83,.54,4.12,.92,.5,.12,.79,.33,.79,.62s-.08,.54-.38,.79c-.29,.25-.71,.96-1.08,2.04-.38,1-.79,2.04-1.29,3.08h10.87c3.71,0,4.96-.08,5.16-.08,.46,0,.5,.04,.5,.5v3.04c0,.46-.04,.5-.5,.5-.21,0-1.46-.08-5.16-.08h-6.79v4.96h5.33c3.29,0,4.37-.08,4.62-.08,.42,0,.46,.04,.46,.46v3.04c0,.42-.04,.46-.46,.46-.25,0-1.33-.08-4.62-.08h-5.33v5.08h5.33c3.33,0,4.46-.08,4.71-.08,.42,0,.46,.04,.46,.42v3.08c0,.46-.04,.5-.46,.5-.25,0-1.37-.08-4.71-.08h-5.33v2.29c0,4.16,.08,6.29,.08,6.5,0,.42-.04,.46-.46,.46h-3.54c-.42,0-.46-.04-.46-.46,0-.25,.08-2.33,.08-6.5v-19.95h-1.67Z"/><path class="d" d="M768.75,472.13c.21,4.66,.79,8.45,1.71,11.78,1-1.62,1.83-3.25,2.5-4.87,.46-1.21,.87-2.42,1.12-3.83,1.46,.42,2.96,1.04,3.87,1.5,.42,.21,.62,.42,.62,.67,0,.29-.29,.54-.58,.87-.29,.29-.54,.79-1.04,2.04-1.29,2.96-2.87,5.83-4.75,8.45,1.5,3.21,3.42,5.21,4.46,5.21,.96,0,1.46-1.25,1.71-5.12,.54,.62,1.46,1.17,2.33,1.62q1.21,.62,1,1.92c-.67,4.46-2.17,6.5-4.71,6.5-2.87,0-5.62-2.67-7.7-6.54-2.21,2.42-4.71,4.54-7.54,6.2-.5,.29-.79,.46-1,.46-.25,0-.46-.25-.87-.87-.67-.96-1.42-1.67-2.12-2.21,3.79-2,7.04-4.75,9.66-7.83-1.75-4.46-2.67-9.41-3.04-15.95h-12.83v5.37h6c2.54,0,3.29-.08,3.54-.08,.42,0,.5,.08,.5,.54-.08,1.58-.12,3.33-.21,4.58-.21,3.54-.33,5.79-.96,7.75-.75,2.17-2.33,3.46-4.83,3.46-.75,0-1.37,0-2.12-.08-.96-.08-1-.08-1.21-1.37-.21-1.21-.54-2.25-1-3,1.5,.25,2.37,.33,3.42,.33,.96,0,1.67-.25,2-1.5,.33-1.08,.5-3.37,.62-6.7h-5.83c-.12,2.87-.37,5.21-.75,7.29-.54,3.08-1.42,6.37-3.25,9.74-.29,.54-.5,.79-.71,.79s-.46-.21-.83-.67c-.79-.92-1.79-1.83-2.58-2.33,1.92-2.79,2.75-6.08,3.25-9.2,.38-2.58,.58-5.5,.58-10.08,0-5.66-.08-8.12-.08-8.37,0-.46,.04-.5,.5-.5,.25,0,1.62,.08,5.58,.08h11.08v-.87c-.04-2.79-.04-3.79-.33-5.87,1.58,.08,3,.12,4.5,.29,.42,.04,.62,.25,.62,.5,0,.33-.12,.58-.21,.79-.17,.5-.25,1.37-.21,4.16v1h6.25c3.92,0,5.29-.08,5.54-.08,.42,0,.46,.04,.46,.5v3.16c0,.42-.04,.46-.46,.46-.25,0-1.62-.08-5.54-.08h-6.12Zm4.87-10.29c.42-.29,.54-.29,.88-.04,1.21,.92,2.5,2.08,3.58,3.5,.25,.33,.25,.5-.21,.79l-2,1.5c-.25,.17-.42,.29-.54,.29s-.21-.12-.33-.29c-1-1.54-2.21-2.71-3.37-3.66-.17-.17-.25-.25-.25-.37s.12-.21,.33-.38l1.92-1.33Z"/></g></g><g><g><path class="e" d="M984.09,318.4c0,5.23-3.76,8.33-10.32,8.33-3.13,0-6.38-.85-8.59-2.03-.52-.29-.74-.48-.74-.81,0-.18,.07-.41,.22-.74l1.66-3.57c.22-.48,.37-.74,.59-.74,.18,0,.41,.15,.74,.37,1.88,1.36,4.46,2.06,6.52,2.06,2.21,0,3.57-.85,3.57-2.25,0-1.62-2.25-2.58-5.27-3.72-3.46-1.33-7.48-3.35-7.48-8.11,0-5.2,4.09-8.14,10.39-8.14,2.65,0,5.42,.66,7.33,1.58,.52,.26,.77,.44,.77,.77,0,.18-.07,.41-.18,.7l-1.51,3.91c-.22,.52-.37,.77-.63,.77-.18,0-.37-.11-.7-.33-1.58-.96-3.79-1.58-5.67-1.58-2.54,0-3.46,.96-3.46,2.06,0,1.36,1.95,2.25,4.24,3.13,3.94,1.55,8.51,3.46,8.51,8.33Z"/><path class="e" d="M1000.78,319.1c0,1.95,.11,6.19,.11,6.45,0,.77-.22,.92-1.07,.92h-4.35c-.85,0-1.07-.15-1.07-.92,0-.26,.11-4.5,.11-6.45v-12.86c0-.92-.18-1.11-1.11-1.11h-.77c-1.33,0-4.72,.07-4.97,.07-.77,0-.92-.22-.92-1.07v-3.83c0-.85,.15-1.07,.92-1.07,.26,0,3.98,.07,5.71,.07h8.55c1.73,0,5.45-.07,5.71-.07,.77,0,.92,.22,.92,1.07v3.83c0,.85-.15,1.07-.92,1.07-.26,0-3.65-.07-4.97-.07h-.77c-.92,0-1.11,.18-1.11,1.11v12.86Z"/><path class="e" d="M1022.27,320.83c1.73,0,5.45-.07,5.71-.07,.77,0,.92,.22,.92,1.07v3.65c0,.85-.15,1.07-.92,1.07-.26,0-3.98-.07-5.71-.07h-3.76c-1.7,0-4.94,.07-5.2,.07-.77,0-1.03-.26-1.03-1.03,0-.26,.11-4.35,.11-6.3v-12.64c0-1.95-.11-6.04-.11-6.3,0-.77,.26-1.03,1.03-1.03,.26,0,3.5,.07,5.2,.07h2.95c1.73,0,5.45-.07,5.71-.07,.77,0,.92,.22,.92,1.07v3.8c0,.85-.15,1.07-.92,1.07-.26,0-3.98-.07-5.71-.07h-1.81c-.92,0-1.11,.18-1.11,1.11v2.25c0,.85,.15,1,.99,1h1.07c1.73,0,5.45-.07,5.71-.07,.77,0,.92,.22,.92,1.07v3.5c0,.85-.15,1.07-.92,1.07-.26,0-3.98-.07-5.71-.07h-1.07c-.85,0-.99,.15-.99,.99v3.8c0,.92,.18,1.11,1.11,1.11h2.62Z"/><path class="e" d="M1034.5,326.47c-.85,0-1.07-.15-1.07-.92,0-.26,.11-4.5,.11-6.45v-12.53c0-1.95-.11-6.04-.11-6.3,0-.77,.26-1.03,1.03-1.03,.26,0,3.5,.07,5.2,.07h4.83c5.64,0,9.1,2.8,9.1,8.36,0,5.97-3.5,10.06-10.76,10.06h-2.03c-.92,0-1.11,.18-1.11,1.11,0,2.25,.11,6.45,.11,6.71,0,.77-.22,.92-1.07,.92h-4.24Zm5.2-15.07c0,.92,.18,1.11,1.11,1.11h1.99c2.8,0,4.5-1.44,4.5-4.24,0-2.21-1.14-3.46-3.87-3.46h-2.62c-.92,0-1.11,.18-1.11,1.11v5.49Z"/><path class="e" d="M1074.34,322.53c0,1.25,.07,2.65,.07,3.13,0,.7-.26,.81-1.07,.81h-3.94c-.81,0-1.07-.11-1.07-.81,0-.48,.07-1.88,.07-3.13,0-.92-.18-1.11-1.11-1.11h-5.53c-2.47,0-6.19,.07-6.45,.07-.77,0-.92-.22-.92-1.07v-1.51c0-.85,.11-1.36,.52-2.14,.81-1.62,1.62-3.32,2.4-4.9l2.69-5.68c.74-1.58,1.66-3.54,2.62-5.86,.41-.88,.59-1.03,1.55-1.03h4.86c.55,0,.81,.07,.81,.33,0,.15-.07,.37-.22,.66-1.44,2.73-2.36,4.57-3.24,6.41l-4.09,8.51c-.15,.29-.18,.48-.18,.63,0,.29,.22,.37,.81,.37h4.72c.66,0,.77-.11,.77-.77v-.85c0-1.81-.07-5.08-.07-5.34,0-.77,.22-.92,1.07-.92h3.94c.85,0,1.07,.15,1.07,.92,0,.26-.07,3.54-.07,5.34v.52c0,.92,.18,1.11,1.11,1.11,1.25,0,2.29-.04,2.76-.04,.74,0,.88,.18,.88,1.03v3.21c0,.85-.15,1.03-.88,1.03-.48,0-1.51-.04-2.76-.04-.92,0-1.11,.18-1.11,1.11Z"/></g><rect class="e" x="915.2" y="345.09" width="214.03" height="214.03" rx="28.39" ry="28.39"/><g><path class="d" d="M950.9,460.94c.92,1.71,1.92,2.54,3.67,3.25,1.5,.54,4.83,.83,8.45,.83,5.41,0,11.08-.21,17.28-.75-.58,.79-.96,1.71-1.08,2.67-.25,1.33-.25,1.37-1.58,1.46-5.21,.25-9.79,.38-14.12,.38-4.75,0-8.2-.42-10.2-1.25-1.92-.79-3.08-1.83-4.29-3.62-1.21,1.17-2.54,2.25-4.04,3.46-.46,.33-.79,.67-.96,.87-.21,.25-.42,.42-.58,.42-.29,0-.46-.29-.62-.58-.58-1.12-1.04-2.21-1.62-3.71,1.04-.5,1.62-.79,2.5-1.33,1.17-.71,2.17-1.58,3.17-2.54v-9.37h-1.79c-2.17,0-2.75,.08-2.96,.08-.46,0-.5-.04-.5-.5v-3.17c0-.42,.04-.46,.5-.46,.21,0,.79,.08,2.96,.08h2.42c2.17,0,2.83-.08,3.04-.08,.42,0,.46,.04,.46,.46,0,.25-.08,1.46-.08,4.08v9.33Zm-5.87-28.07c.25-.21,.42-.29,.54-.29s.21,.08,.38,.25c1.92,1.79,3.71,3.83,5.25,6.16,.21,.33,.21,.46-.25,.83l-2.33,1.87c-.25,.21-.38,.29-.5,.29s-.21-.12-.37-.33c-1.5-2.5-3.29-4.71-5.12-6.5-.29-.29-.25-.38,.21-.71l2.21-1.58Zm13.53,27.94c-4.04,0-5.46,.08-5.71,.08-.42,0-.46-.04-.46-.46v-2.37c0-.42,.04-.46,.46-.46,.25,0,1.67,.08,5.71,.08h4.62v-1.83h-2.83c-3.79,0-5.12,.08-5.41,.08-.37,0-.42-.04-.42-.46,0-.25,.04-1.21,.04-3.46v-4.21c0-2.29-.04-3.21-.04-3.46,0-.42,.04-.46,.42-.46,.29,0,1.62,.08,5.41,.08h2.83v-1.87h-3.29c-2.5,0-3.75,.08-4,.08-.42,0-.46-.04-.46-.46v-1.12h-3c-.42,0-.46-.04-.46-.42,0-.25,.08-.75,.08-3.83v-1.04c0-1.08-.08-1.67-.08-1.92,0-.46,.04-.5,.46-.5,.29,0,1.75,.08,5.79,.08h14.03c4.08,0,5.54-.08,5.79-.08,.42,0,.46,.04,.46,.5,0,.25-.08,.83-.08,1.67v1.29c0,3.08,.08,3.58,.08,3.83,0,.37-.04,.42-.46,.42h-3.12v1.12c0,.42-.04,.46-.46,.46-.25,0-1.5-.08-4-.08h-3.54v1.87h3.04c3.79,0,5.12-.08,5.37-.08,.42,0,.46,.04,.46,.46,0,.21-.08,1.17-.08,3.46v4.21c0,2.25,.08,3.21,.08,3.46,0,.42-.04,.46-.46,.46-.25,0-1.58-.08-5.37-.08h-3.04v1.83h5.16c4.08,0,5.5-.08,5.75-.08,.42,0,.46,.04,.46,.46v2.37c0,.42-.04,.46-.46,.46-.25,0-1.67-.08-5.75-.08h-5.16c0,1.83,.08,2.67,.08,2.92,0,.37-.08,.46-.46,.46h-3c-.38,0-.46-.08-.46-.46,0-.25,.04-1.08,.08-2.92h-4.62Zm-2.67-24.53v2.87c.25,0,1.5,.08,4,.08h3.25c-.04-.75-.12-1.5-.25-2.17,1.54,.04,2.37,.08,3.87,.25,.38,.04,.62,.12,.62,.38,0,.21-.08,.42-.21,.71-.12,.21-.21,.42-.25,.83h3.54c2.5,0,3.75-.08,4-.08v-2.87h-18.57Zm7.29,12.37v-2.08h-4.96v2.08h4.96Zm0,4.58v-2.12h-4.96v2.12h4.96Zm3.75-6.66v2.08h5.08v-2.08h-5.08Zm5.08,4.54h-5.08v2.12h5.08v-2.12Z"/><path class="d" d="M1018.53,459.02c0,1.92,.08,4.04,.08,5.75,0,1.54-.42,2.58-1.37,3.37-.79,.71-2.04,1.08-5.5,1.08q-1.29,0-1.54-1.21c-.29-1.33-.67-2.29-1.17-3.17,1.71,.12,2.5,.17,3.87,.17,.96,0,1.33-.42,1.33-1.37v-6.91h-9.79v4.96c0,4.04,.08,5.91,.08,6.16,0,.42-.04,.46-.46,.46h-3.58c-.42,0-.46-.04-.46-.46,0-.29,.08-2.12,.08-6.16v-4.96h-9.49c-.58,5.16-1.71,8.37-3.62,11.53-.33,.58-.54,.83-.75,.83s-.42-.21-.88-.67c-1-1-1.96-1.62-2.96-2.12,3.04-3.91,4.29-8.87,4.29-18.91v-6.83c0-4.33-.08-6.58-.08-6.83,0-.46,.04-.5,.5-.5,.25,0,1.71,.08,5.71,.08h19.57c4.04,0,5.46-.08,5.75-.08,.42,0,.46,.04,.46,.5,0,.25-.08,2.5-.08,6.83v18.45Zm-18.41-6.16v-5.87h-9.08v.46c0,2-.04,3.79-.12,5.41h9.2Zm0-9.74v-5.79h-9.08v5.79h9.08Zm4.33-5.79v5.79h9.79v-5.79h-9.79Zm9.79,15.53v-5.87h-9.79v5.87h9.79Z"/><path class="d" d="M1037.44,432.58c2.75,0,3.96-.08,4.21-.08,.38,0,.42,.04,.42,.46,0,.29-.08,1.46-.08,4v4.91c0,2.54,.08,3.71,.08,3.96,0,.42-.04,.46-.42,.46-.25,0-1.46-.08-4.21-.08h-6.83v13.91c0,5.83,.08,8.7,.08,8.99,0,.42-.04,.46-.46,.46h-3.54c-.42,0-.46-.04-.46-.46,0-.29,.08-3.17,.08-8.99v-18.07c0-5.83-.08-8.79-.08-9.08,0-.42,.04-.46,.46-.46,.29,0,1.87,.08,4.96,.08h5.79Zm-6.83,3.08v2.37h7.29v-2.37h-7.29Zm7.29,5.16h-7.29v2.42h7.29v-2.42Zm3.46,18.57c-.08,.67-.17,1.25-.29,1.79-.58,2.71-1.96,5.08-3.96,7-.42,.37-.62,.58-.79,.58-.25,0-.46-.25-.96-.75-.67-.67-1.67-1.33-2.46-1.75,2.29-1.46,3.79-3.41,4.46-6.12l.08-.75c-3.16,.04-4.33,.08-4.54,.08-.42,0-.46-.04-.46-.5v-2.5c0-.42,.04-.46,.46-.46,.21,0,1.42,.08,4.75,.08,.04-1.04,.08-2.33,.08-3.79-2.5,.04-3.46,.08-3.67,.08-.46,0-.5-.04-.5-.46v-2.54c0-.42,.04-.46,.5-.46,.25,0,1.5,.08,5.21,.08h8.91c3.71,0,4.96-.08,5.21-.08,.42,0,.46,.04,.46,.46v2.54c0,.42-.04,.46-.46,.46-.21,0-1.25-.04-3.83-.08v3.79c3.29,0,4.54-.08,4.75-.08,.42,0,.46,.04,.46,.46v2.5c0,.46-.04,.5-.46,.5-.21,0-1.46-.08-4.75-.08v3.87c0,2.87,.08,4.25,.08,4.5,0,.46-.04,.5-.46,.5h-3.08c-.42,0-.46-.04-.46-.5,0-.25,.08-1.62,.08-4.5v-3.87h-4.37Zm4.37-3.29v-3.79h-4.04c0,1.42-.04,2.71-.08,3.79h4.12Zm15.41,.42c0,2.92,.17,5.58,.17,7.62s-.25,3-1.21,3.83c-.96,.83-2.17,1.12-5.5,1.12-1.29,0-1.33,0-1.54-1.29-.21-1.25-.54-2.21-.96-3.04,1.17,.17,2.12,.21,3.04,.21,1.38,0,1.71-.38,1.71-1.62v-17.16h-6.83c-3.25,0-4.33,.08-4.58,.08-.46,0-.5-.04-.5-.46,0-.25,.08-1.17,.08-3.62v-5.58c0-2.42-.08-3.37-.08-3.66,0-.42,.04-.46,.5-.46,.25,0,1.33,.08,4.58,.08h6.12c3.25,0,4.37-.08,4.62-.08,.42,0,.46,.04,.46,.46,0,.29-.08,2.04-.08,5.7v17.86Zm-12.03-20.86v2.37h7.75v-2.37h-7.75Zm7.75,5.16h-7.75v2.42h7.75v-2.42Z"/><path class="d" d="M1066.59,440.41c0-.37,.04-.42,.42-.42,.21,0,1.17,.08,3.83,.08,.25-1.5,.46-3,.62-4.5,.12-1.08,.21-2.42,.17-3.87,1.29,.08,2.96,.25,4.16,.5,.42,.08,.62,.25,.62,.5s-.08,.5-.33,.87c-.25,.37-.38,.87-.5,1.92-.21,1.58-.42,3.08-.67,4.58h1.83c3.04,0,4.04-.08,4.29-.08,.42,0,.54,.12,.54,.5-.17,1.17-.25,2.25-.29,3.04-.38,5.41-1.29,9.79-2.83,13.49,1.25,.96,2.46,2,3.71,3.12,.17,.12,.25,.25,.25,.38s-.08,.29-.25,.5l-1.54,2.33c-.33,.5-.46,.5-.75,.25-1.17-1.08-2.21-2.04-3.29-2.92-1.71,2.75-3.91,5.12-6.7,7.29-.46,.33-.71,.54-.96,.54s-.46-.29-.88-.96c-.58-.87-1.21-1.58-1.87-2.17,3.08-2,5.41-4.25,7.16-7.08-.79-.54-1.67-1.08-2.62-1.62l-.21,.58c-.17,.5-.25,.67-1,.42l-2.25-.79c-.67-.21-.67-.29-.46-.83,1.54-4.16,2.62-8.25,3.42-12.28-2.17,.04-3,.08-3.21,.08-.37,0-.42-.04-.42-.46v-3Zm7.62,3.37c-.62,3.16-1.37,6.2-2.29,9.16,1.08,.58,2.17,1.17,3.21,1.79,1.17-3,1.87-6.54,2.25-10.95h-3.17Zm23.61-5.54c.46-.21,.54-.21,.79,.12,2.58,3.41,4.33,6.62,5.95,10.54,.17,.42,.12,.5-.42,.79l-2.46,1.17c-.58,.29-.71,.29-.87-.12-.38-.96-.79-1.92-1.21-2.83-4.62,.75-9.87,1.33-14.57,1.79-.92,.08-1.17,.25-1.42,.37-.21,.12-.42,.25-.67,.25-.17,0-.42-.21-.54-.67-.29-1.25-.54-2.79-.75-4.12,1.17,.08,2.17,.08,3.08,.04,1.62-3.62,2.87-7.12,3.83-10.54,.38-1.17,.54-2.08,.62-3.12,1.62,.21,2.96,.46,4.29,.83,.46,.17,.67,.33,.67,.62,0,.33-.17,.54-.42,.79-.25,.29-.58,.87-.83,1.62-1.25,3.75-2.37,6.75-3.62,9.49,2.92-.25,5.87-.54,8.58-.92-.79-1.46-1.67-2.87-2.67-4.33-.25-.42-.21-.5,.33-.75l2.29-1.04Zm-9.7,30.77c0,.38-.04,.42-.46,.42h-3.33c-.42,0-.46-.04-.46-.42,0-.29,.08-1.37,.08-7.33v-3.46c0-3.5-.08-4.66-.08-4.96,0-.42,.04-.46,.46-.46,.29,0,1.46,.08,4.96,.08h7.16c3.5,0,4.71-.08,4.96-.08,.46,0,.5,.04,.5,.46,0,.25-.08,1.46-.08,4.33v4c0,5.91,.08,7.04,.08,7.29,0,.38-.04,.42-.5,.42h-3.42c-.42,0-.46-.04-.46-.42v-1.58h-9.41v1.71Zm0-12.33v6.87h9.41v-6.87h-9.41Z"/></g></g></g><g><path d="M746.67,118.4c-.3,.03-.6-.03-.89-.18-.73-.41-.99-1.33-.59-2.06l30.55-54.75c.41-.73,1.33-.99,2.06-.59,.73,.41,1,1.33,.59,2.06l-30.55,54.75c-.25,.45-.7,.72-1.18,.77Z"/><path d="M758.36,125.78c-.49,.05-.99-.14-1.33-.55-.53-.65-.43-1.61,.22-2.13l29.89-24.24c.65-.53,1.6-.43,2.13,.22,.53,.65,.43,1.61-.22,2.13l-29.89,24.24c-.24,.19-.52,.3-.81,.33Z"/><path d="M763.88,138.63c-.67,.07-1.33-.33-1.57-.99-.29-.79,.12-1.66,.9-1.95l52.31-19.14c.79-.29,1.66,.12,1.94,.9,.29,.79-.12,1.66-.9,1.95l-52.31,19.14c-.12,.05-.25,.07-.37,.09Z"/><path d="M732.87,114.27s-.1,0-.14,0c-.84,0-1.52-.67-1.52-1.51l-.12-32.26c0-.84,.69-1.52,1.51-1.52,.84,0,1.52,.67,1.52,1.51l.12,32.26c0,.79-.6,1.44-1.37,1.52Z"/><path d="M718.4,115.7c-.67,.07-1.33-.33-1.57-.99l-16.62-45.25c-.29-.79,.11-1.66,.9-1.95,.79-.28,1.66,.11,1.95,.9l16.62,45.25c.29,.79-.11,1.66-.9,1.95-.13,.05-.25,.07-.38,.09Z"/><path d="M804.1,152.35c-.07,0-.14,0-.22,0l-35.37-1.59c-.84-.04-1.49-.75-1.45-1.58,.04-.84,.74-1.48,1.58-1.45l35.37,1.59c.84,.04,1.49,.75,1.45,1.58-.03,.76-.63,1.37-1.37,1.44Z"/></g></g></g></svg>