<svg xmlns="http://www.w3.org/2000/svg" xmlns:xlink="http://www.w3.org/1999/xlink" width="390.72" height="181.197" viewBox="0 0 390.72 181.197"><defs><clipPath id="a"><rect width="330" height="99.676" fill="none"/></clipPath></defs><g transform="translate(-808.12 -7436.308)"><path d="M-191.7-20.82c-2.28,3.54-3.18,6.12-3.18,8.58,0,7.8,6.9,12.12,20.34,12.12a90.478,90.478,0,0,0,17.88-1.44c.72-.12,1.08-.36,1.02-.9a50.17,50.17,0,0,0-.96-5.88c-.12-.54-.42-.72-1.26-.54a76.333,76.333,0,0,1-16.26,1.74c-10.32,0-14.22-1.86-14.22-5.64a9.86,9.86,0,0,1,1.56-4.56c.3-.48.24-.78-.3-1.08C-188.64-19.26-190.14-20.04-191.7-20.82Zm1.32-22.68c-.12,2.16-.24,3.9-.24,5.34,0,.72.24.96.78,1.08a74.888,74.888,0,0,0,10.5,1.02,41.258,41.258,0,0,0,4.92-.18c-2.1,1.26-4.74,2.94-7.86,4.98a14.337,14.337,0,0,1,4.2,1.92,2.52,2.52,0,0,0,1.26.36,2.557,2.557,0,0,0,1.5-.54c4.86-3.12,9-5.1,14.7-5.94.72-.06,1.02-.42,1.02-1.26a39.509,39.509,0,0,0-.3-5.1c-.06-.48-.3-.72-.9-.66-3.84.24-8.34.54-12.72.54A75.692,75.692,0,0,1-190.38-43.5Zm63.72,23.16c3.3-5.4,6.54-11.7,10.38-19.08A15.638,15.638,0,0,1-114.42-42a1.874,1.874,0,0,0,.66-1.2,1.566,1.566,0,0,0-.84-1.26,34.762,34.762,0,0,0-6.72-3.36,36,36,0,0,1-3,8.76c-3.3,7.5-8.82,18.96-17.58,36.12a1.787,1.787,0,0,0-.3.84,1.045,1.045,0,0,0,.54.78,19.386,19.386,0,0,0,4.62,2.58c.78.24,1.08.12,1.44-.72,2.34-5.52,4.86-10.44,7.02-13.32,2.4-3.18,4.98-5.1,7.56-5.1,2.1,0,3.42,1.74,3.96,7.74.78,8.46,3.36,11.64,9.42,11.64A14.988,14.988,0,0,0-96.6-3.54a32.45,32.45,0,0,0,5.16-7.44A2.12,2.12,0,0,0-91.2-12a1.646,1.646,0,0,0-.66-1.26,14.555,14.555,0,0,1-3.48-4.98,29.7,29.7,0,0,1-6.06,9.78c-1.68,1.8-3.48,2.88-5.64,2.88-2.28,0-3-1.98-3.48-6.36-.66-5.76-2.28-11.34-8.76-11.34a11.905,11.905,0,0,0-7.32,3.06Zm73.32,6.96a30.922,30.922,0,0,0-4.74-.36c-6.78,0-11.1,3.54-11.1,8.76,0,5.16,4.44,8.52,11.04,8.52,6.84,0,11.16-2.76,11.16-8.76A44.627,44.627,0,0,1-39.66-.18c.24.24.42.36.6.36s.36-.12.54-.42A36.917,36.917,0,0,0-35.76-5.1c.3-.6.24-.84-.36-1.26a47.046,47.046,0,0,0-10.8-5.58,78.358,78.358,0,0,1-.66-10.2,6.235,6.235,0,0,1,.24-2.46,7.522,7.522,0,0,0,.36-1.26.922.922,0,0,0-.84-.96,32.434,32.434,0,0,0-6.54-1.14,21.072,21.072,0,0,1,.48,4.26C-53.82-20.88-53.7-17.22-53.34-13.38Zm.12,5.7a6.911,6.911,0,0,1,.06,1.2c0,2.52-1.98,4.26-5.22,4.26-3.42,0-5.1-.96-5.1-2.88,0-2.28,2.34-3.48,5.34-3.48A15.291,15.291,0,0,1-53.22-7.68ZM-63-38.46c.54-1.8,1.02-3.66,1.44-5.1a6.6,6.6,0,0,1,.96-2.22,1.478,1.478,0,0,0,.54-1.14c0-.42-.36-.78-.96-.9a55.485,55.485,0,0,0-7.02-1.26,23.221,23.221,0,0,1-.36,4.86c-.42,2.16-.84,4.2-1.56,6.72-2.76.24-4.56.3-6.9.3-1.74,0-3.12-.06-5.58-.24a31.348,31.348,0,0,0,.6,5.1c.12.78.24.96.84.96,1.5.06,1.98.06,3.3.06,1.86,0,3.72,0,6-.12A121.044,121.044,0,0,1-82.08-10.5a1.148,1.148,0,0,0-.3.72c0,.24.12.42.42.66a28.483,28.483,0,0,0,4.14,3.06,1.663,1.663,0,0,0,.72.3c.24,0,.42-.18.66-.6,4.32-7.32,7.86-15.6,11.7-25.74,3.72-.54,6.66-.96,9.9-1.62.48-.06.72-.18.72-.72a32.557,32.557,0,0,0-.54-4.86c-.12-.66-.36-.66-.9-.48A64.484,64.484,0,0,1-63-38.46Zm13.32,5.7a51.853,51.853,0,0,1,12.42,6.54.836.836,0,0,0,.54.24c.18,0,.36-.12.54-.42a36.494,36.494,0,0,0,2.52-4.44,1.431,1.431,0,0,0,.24-.72c0-.24-.18-.42-.54-.66a46.812,46.812,0,0,0-11.76-5.64.837.837,0,0,0-1.26.42C-47.76-36.36-48.66-34.56-49.68-32.76ZM19.56-13.8C19.08-7.74,18.48-5.04,18-3.48c-.54,1.68-1.02,1.86-2.34,1.86a32.435,32.435,0,0,1-5.46-.36,20.178,20.178,0,0,1,1.56,3.96c.48,1.86.48,1.86,1.86,1.98a25.587,25.587,0,0,0,3.06.12c3.66,0,5.58-1.44,6.78-4.62,1.02-2.7,1.56-6.36,1.86-11.52l.42-6.06c.06-.66-.12-.78-.78-.78-.36,0-2.1.12-7.2.12H2.1a2.919,2.919,0,0,1,.96-1.08.8.8,0,0,0,.48-.78c0-.24-.3-.6-.84-.78L.72-21.9h18c5.82,0,7.86.12,8.16.12.6,0,.66-.06.66-.72v-3.9c0-.6-.06-.66-.66-.66-.3,0-2.34.12-8.16.12H-1.38c-5.82,0-7.8-.12-8.16-.12-.6,0-.66.06-.66.66v3.9c0,.66.06.72.66.72.3,0,2.16-.12,7.08-.12a12.366,12.366,0,0,1-1.26,2.52,30.659,30.659,0,0,1-11.1,9.84,12.6,12.6,0,0,1,2.88,2.52c.6.72.9,1.08,1.26,1.08s.72-.3,1.5-.78A32.9,32.9,0,0,0-1.26-13.8H2.52A34.276,34.276,0,0,1-10.86-3.06,10.674,10.674,0,0,1-8.34-.96C-7.62-.18-7.32.18-6.84.18a3.594,3.594,0,0,0,1.5-.66A39.995,39.995,0,0,0,8.64-13.8h3.24C9.12-7.92,4.5-3.12-2.88.84A11.4,11.4,0,0,1-.24,3.12C.48,3.9.84,4.26,1.26,4.26c.36,0,.72-.24,1.44-.66A38.481,38.481,0,0,0,17.46-13.8ZM2.76-48.12c-5.22,0-6.9-.12-7.32-.12-.6,0-.66.06-.66.66,0,.36.12,1.8.12,5.1v7.26c0,3.42-.12,4.74-.12,5.16,0,.6.06.66.66.66.42,0,2.1-.12,7.32-.12H14.04c5.16,0,6.84.12,7.26.12.6,0,.66-.06.66-.66,0-.36-.12-1.74-.12-5.16v-7.26c0-3.3.12-4.74.12-5.1,0-.6-.06-.66-.66-.66-.42,0-2.1.12-7.26.12ZM16.14-33.84H.42v-2.94H16.14Zm0-9.78v2.88H.42v-2.88Zm-30.6,14.16c3.24,0,4.38.12,4.74.12.6,0,.66-.06.66-.66v-4.56c0-.6-.06-.66-.66-.66-.36,0-1.5.12-4.74.12v-5.34c0-4.38.06-5.88.36-6.66a3.064,3.064,0,0,0,.36-1.2c0-.3-.36-.6-.96-.66-1.98-.18-3.78-.3-6.12-.36a55.532,55.532,0,0,1,.48,9.06v5.16h-.48c-3.96,0-5.16-.12-5.52-.12-.54,0-.6.06-.6.66V-30c0,.6.06.66.6.66.36,0,1.56-.12,5.52-.12h.48v14.88c-.48.18-.96.3-1.38.48a41.039,41.039,0,0,1-5.94,1.5,38.692,38.692,0,0,0,1.62,5.34c.3.6.54.78.9.78a1.85,1.85,0,0,0,1.08-.54,9.157,9.157,0,0,1,1.92-.84A84.4,84.4,0,0,0-11.1-13.02c1.56-.84,1.56-.84,1.56-2.76,0-1.32,0-2.7.06-3.72-1.68.9-3.36,1.68-4.98,2.46ZM45.9,4.5c.66,0,.72-.06.72-.66V1.56H70.68V3.54c0,.6.06.66.66.66h5.1c.66,0,.72-.06.72-.66,0-.3-.12-1.92-.12-10.56V-12.9c0-4.26.12-6,.12-6.36,0-.6-.06-.66-.72-.66-.36,0-2.46.12-8.22.12H49.02c-5.76,0-7.86-.12-8.22-.12-.6,0-.66.06-.66.66,0,.36.12,2.1.12,7.26v5.16c0,8.7-.12,10.32-.12,10.68,0,.6.06.66.66.66Zm.72-18.84H70.68V-3.9H46.62ZM46.5-26.16c0,.6.06.66.66.66.42,0,1.98-.12,6.78-.12h9.3c4.8,0,6.42.12,6.78.12.6,0,.66-.06.66-.66v-4.2a65.343,65.343,0,0,0,11.7,6.72,3.6,3.6,0,0,0,1.44.54c.48,0,.72-.42,1.08-1.56a15.951,15.951,0,0,1,2.52-4.56A54.143,54.143,0,0,1,61.8-47.52a1.617,1.617,0,0,1,.48-.42,1.023,1.023,0,0,0,.6-.9c0-.54-.36-.72-1.08-.96-1.74-.42-3.96-.78-6.3-1.14a18.772,18.772,0,0,1-2.34,4.26C48.24-39.54,41.1-33.3,30.06-28.32a14.544,14.544,0,0,1,2.82,4.02c.48,1.08.72,1.5,1.14,1.5a4.353,4.353,0,0,0,1.38-.6,74,74,0,0,0,11.1-7.08Zm7.44-5.04c-4.08,0-5.76-.06-6.48-.12A59.313,59.313,0,0,0,58.38-42.66a53.659,53.659,0,0,0,11.04,11.4c-.84,0-2.64.06-6.18.06Zm44.1-14.52a48.409,48.409,0,0,1-1.08,8.94A114.541,114.541,0,0,0,94.92-17.1C94.92-11.04,96-3.42,97.68.78c.12.42.36.72.78.66a29.782,29.782,0,0,0,4.92-.96c.54-.12.78-.36.78-.78,0-.48-.12-.96-.12-1.68a6.813,6.813,0,0,1,.18-1.86,58.657,58.657,0,0,1,3.42-9.06,1.66,1.66,0,0,0,.3-.96,2.39,2.39,0,0,0-.42-.9,15.575,15.575,0,0,1-2.1-3.78c-1.74,4.2-2.82,6.18-4.08,8.94a57.86,57.86,0,0,1-.36-7.02A97.222,97.222,0,0,1,103.5-36a14.174,14.174,0,0,1,1.44-4.26c.78-1.2.9-1.38.9-1.8,0-.54-.36-.9-1.38-1.44A26.554,26.554,0,0,0,98.04-45.72Zm13.8,30.96c0,2.82.6,5.88,2.1,7.8,2.58,3.54,6.72,4.98,15.6,4.98a80.559,80.559,0,0,0,9.78-.66c1.02-.12,1.02-.18,1.02-.9a44.452,44.452,0,0,0-.36-5.16c-.12-.78-.24-.84-.84-.78a86.008,86.008,0,0,1-11.46.78c-6.54,0-9.42-1.5-9.78-5.64,0-.66-.12-.96-.6-.9Zm1.92-17.04a73.352,73.352,0,0,1,13.62-1.38c3.06,0,6.18.12,9.78.36.54.06.72-.18.78-.72.12-1.68.12-3.3.12-5.1,0-.6-.12-.72-1.38-.78-2.52-.24-5.28-.36-8.88-.36a95.8,95.8,0,0,0-13.02,1.08c-.6.12-.78.3-.84,1.02C113.82-36.66,113.82-35.16,113.76-31.8Zm56.46,16.2c3.06.06,6.18.06,9.18-.18.6,0,.78-.24.84-.96a40.435,40.435,0,0,0,.3-4.5c0-.54-.18-.78-.96-.66-2.88.18-5.34.24-8.52.18.36-2.4.96-6.48,1.32-8.58a59.156,59.156,0,0,0,7.98-.3c.72-.06.96-.24.96-.9a28.013,28.013,0,0,0,.12-4.5c0-.42-.18-.72-.6-.72a34.2,34.2,0,0,1-7.38.36c.3-2.22.66-4.26.96-5.64a5.882,5.882,0,0,1,1.08-2.58,1.755,1.755,0,0,0,.48-1.14c0-.54-.48-1.08-1.32-1.38a35.667,35.667,0,0,0-7.2-1.68,28.217,28.217,0,0,1,.06,5.04c-.12,1.8-.3,3.42-.78,6.9a48.773,48.773,0,0,1-10.86-2.28c0,2.16.12,4.14.18,5.58,0,.54.24.84.96,1.02a41.958,41.958,0,0,0,8.64,1.68c-.24,2.46-.72,6.36-1.02,8.58a37.519,37.519,0,0,1-9.72-2.34,34.678,34.678,0,0,0,.12,5.58c.06.72.24,1.02.66,1.14a47.267,47.267,0,0,0,8.16,1.8c-.24,2.7-.42,4.38-.42,5.64,0,8.76,4.5,13.56,15.12,13.56,10.32,0,17.28-5.52,17.28-14.04a15.64,15.64,0,0,0-5.1-11.28,1.373,1.373,0,0,0-1.26-.24,19.138,19.138,0,0,1-6.12.36c4.56,4.8,5.4,7.56,5.4,10.92,0,5.4-3.9,8.1-10.92,8.1-5.58,0-7.98-2.16-7.98-7.68A36.964,36.964,0,0,1,170.22-15.6Z" transform="translate(1003 7613.005)" fill="#575757"/><g transform="translate(839 7436.309)"><g transform="translate(0 0)" clip-path="url(#a)"><path d="M292.6,3H35.941a32.941,32.941,0,1,0,0,65.881H141.823l22.14,24.5,22.139-24.5H292.6A32.941,32.941,0,0,0,292.6,3Z" transform="translate(0.729 0.73)" fill="none" stroke="#575757" stroke-miterlimit="10" stroke-width="6"/><path d="M292.6,3H35.941a32.941,32.941,0,1,0,0,65.881H141.823l22.14,24.5,22.139-24.5H292.6A32.941,32.941,0,0,0,292.6,3" transform="translate(0.729 0.73)" fill="#fff"/><path d="M86.713,24.947a9.013,9.013,0,0,0-2.366-1.425,6.283,6.283,0,0,0-2.293-.462,3.718,3.718,0,0,0-2.292.666,2.077,2.077,0,0,0-.888,1.738,1.724,1.724,0,0,0,.444,1.219,3.867,3.867,0,0,0,1.165.833,9.93,9.93,0,0,0,1.627.61c.6.172,1.2.358,1.792.554a11.184,11.184,0,0,1,5.2,3.161A7.8,7.8,0,0,1,90.743,37a10.025,10.025,0,0,1-.721,3.882,8.088,8.088,0,0,1-2.107,2.977,9.688,9.688,0,0,1-3.4,1.923,14.16,14.16,0,0,1-4.566.685,16.787,16.787,0,0,1-9.8-3.144l3.105-5.842a12.607,12.607,0,0,0,3.217,2.145,7.719,7.719,0,0,0,3.142.7,3.753,3.753,0,0,0,2.644-.813,2.475,2.475,0,0,0,.869-1.85,2.5,2.5,0,0,0-.221-1.09,2.389,2.389,0,0,0-.74-.85A6.009,6.009,0,0,0,80.816,35q-.832-.332-2.015-.74-1.406-.442-2.755-.98a8.646,8.646,0,0,1-2.4-1.423,6.624,6.624,0,0,1-1.7-2.236A7.914,7.914,0,0,1,71.3,26.2a9.877,9.877,0,0,1,.682-3.753A8.362,8.362,0,0,1,73.9,19.567,8.543,8.543,0,0,1,76.934,17.7a11.457,11.457,0,0,1,4.011-.666,17.523,17.523,0,0,1,4.326.574A19.085,19.085,0,0,1,89.6,19.289Z" transform="translate(17.049 4.141)" fill="#fd0"/><path d="M86.713,24.947a9.013,9.013,0,0,0-2.366-1.425,6.283,6.283,0,0,0-2.293-.462,3.718,3.718,0,0,0-2.292.666,2.077,2.077,0,0,0-.888,1.738,1.724,1.724,0,0,0,.444,1.219,3.867,3.867,0,0,0,1.165.833,9.93,9.93,0,0,0,1.627.61c.6.172,1.2.358,1.792.554a11.184,11.184,0,0,1,5.2,3.161A7.8,7.8,0,0,1,90.743,37a10.025,10.025,0,0,1-.721,3.882,8.088,8.088,0,0,1-2.107,2.977,9.688,9.688,0,0,1-3.4,1.923,14.16,14.16,0,0,1-4.566.685,16.787,16.787,0,0,1-9.8-3.144l3.105-5.842a12.607,12.607,0,0,0,3.217,2.145,7.719,7.719,0,0,0,3.142.7,3.753,3.753,0,0,0,2.644-.813,2.475,2.475,0,0,0,.869-1.85,2.5,2.5,0,0,0-.221-1.09,2.389,2.389,0,0,0-.74-.85A6.009,6.009,0,0,0,80.816,35q-.832-.332-2.015-.74-1.406-.442-2.755-.98a8.646,8.646,0,0,1-2.4-1.423,6.624,6.624,0,0,1-1.7-2.236A7.914,7.914,0,0,1,71.3,26.2a9.877,9.877,0,0,1,.682-3.753A8.362,8.362,0,0,1,73.9,19.567,8.543,8.543,0,0,1,76.934,17.7a11.457,11.457,0,0,1,4.011-.666,17.523,17.523,0,0,1,4.326.574A19.085,19.085,0,0,1,89.6,19.289Z" transform="translate(17.049 4.141)" fill="none" stroke="#575757" stroke-miterlimit="10" stroke-width="2"/><path d="M116.646,27.129a7.736,7.736,0,0,0-6.212-3.069,7.587,7.587,0,0,0-3.014.592,7.218,7.218,0,0,0-3.957,4.03,7.957,7.957,0,0,0-.572,3.032,8.062,8.062,0,0,0,.572,3.069A7.4,7.4,0,0,0,110.4,39.44a8.389,8.389,0,0,0,6.248-2.957v8.578l-.74.259a21.32,21.32,0,0,1-3.105.869,15.151,15.151,0,0,1-2.849.278,14.563,14.563,0,0,1-10.186-4.16,15.278,15.278,0,0,1-3.234-4.695,14.333,14.333,0,0,1-1.219-5.936,14.208,14.208,0,0,1,1.2-5.9,14.727,14.727,0,0,1,13.475-8.745,15.327,15.327,0,0,1,3.273.352,19.938,19.938,0,0,1,3.384,1.09Z" transform="translate(23.165 4.141)" fill="#fd0"/><path d="M116.646,27.129a7.736,7.736,0,0,0-6.212-3.069,7.587,7.587,0,0,0-3.014.592,7.218,7.218,0,0,0-3.957,4.03,7.957,7.957,0,0,0-.572,3.032,8.062,8.062,0,0,0,.572,3.069A7.4,7.4,0,0,0,110.4,39.44a8.389,8.389,0,0,0,6.248-2.957v8.578l-.74.259a21.32,21.32,0,0,1-3.105.869,15.151,15.151,0,0,1-2.849.278,14.563,14.563,0,0,1-10.186-4.16,15.278,15.278,0,0,1-3.234-4.695,14.333,14.333,0,0,1-1.219-5.936,14.208,14.208,0,0,1,1.2-5.9,14.727,14.727,0,0,1,13.475-8.745,15.327,15.327,0,0,1,3.273.352,19.938,19.938,0,0,1,3.384,1.09Z" transform="translate(23.165 4.141)" fill="none" stroke="#575757" stroke-miterlimit="10" stroke-width="2"/><path d="M137.975,23.8h-8.616v4.659h8.135v6.138h-8.135V39.4h8.616v6.137H122.112V17.66h15.863Z" transform="translate(29.679 4.293)" fill="#fd0"/><path d="M137.975,23.8h-8.616v4.659h8.135v6.138h-8.135V39.4h8.616v6.137H122.112V17.66h15.863Z" transform="translate(29.679 4.293)" fill="none" stroke="#575757" stroke-miterlimit="10" stroke-width="2"/><path d="M145.015,45.538V17.659h7.247L165.647,34.7V17.659h7.21V45.538h-7.21L152.262,28.492V45.538Z" transform="translate(35.245 4.292)" fill="#fd0"/><path d="M145.015,45.538V17.659h7.247L165.647,34.7V17.659h7.21V45.538h-7.21L152.262,28.492V45.538Z" transform="translate(35.245 4.292)" fill="none" stroke="#575757" stroke-miterlimit="10" stroke-width="2"/><path d="M193.924,23.8h-8.616v4.659h8.135v6.138h-8.135V39.4h8.616v6.137H178.061V17.66h15.863Z" transform="translate(43.277 4.293)" fill="#fd0"/><path d="M193.924,23.8h-8.616v4.659h8.135v6.138h-8.135V39.4h8.616v6.137H178.061V17.66h15.863Z" transform="translate(43.277 4.293)" fill="none" stroke="#575757" stroke-miterlimit="10" stroke-width="2"/></g></g></g></svg>