<svg xmlns="http://www.w3.org/2000/svg" xmlns:xlink="http://www.w3.org/1999/xlink" viewBox="0 0 622.44 425.58"><defs><style>.cls-1,.cls-11,.cls-13,.cls-15{fill:#ffcd00;}.cls-1,.cls-15,.cls-18{stroke:#000;stroke-miterlimit:10;}.cls-1,.cls-18{stroke-width:3.24px;}.cls-10,.cls-18,.cls-2,.cls-3,.cls-4{fill:none;}.cls-2,.cls-3,.cls-4{stroke:#30ae35;stroke-width:3.91px;}.cls-10,.cls-11,.cls-12,.cls-14,.cls-2,.cls-3,.cls-4{stroke-linecap:round;stroke-linejoin:round;}.cls-3{stroke-dasharray:9.66 15.07;}.cls-4{stroke-dasharray:9.69 15.11;}.cls-5{fill:#77b5e2;}.cls-6{fill:#c2dbf1;}.cls-7{fill:#a6a6a6;}.cls-14,.cls-8{fill:#30ae35;}.cls-12,.cls-9{fill:#fff;}.cls-10,.cls-11,.cls-12,.cls-14{stroke:#211815;stroke-width:3.94px;}.cls-15{stroke-width:4px;}.cls-16{clip-path:url(#clip-path);}.cls-17{fill:#d3e6f4;}.cls-19{clip-path:url(#clip-path-2);}.cls-20{fill:#f1dfdb;}.cls-21{clip-path:url(#clip-path-3);}.cls-22{fill:#faf6d1;}.cls-23{clip-path:url(#clip-path-4);}.cls-24{fill:#eac7b4;}.cls-25{fill:#324a64;}</style><clipPath id="clip-path"><circle class="cls-1" cx="438.7" cy="208.37" r="47"/></clipPath><clipPath id="clip-path-2"><path class="cls-1" d="M231.92,207.41a47,47,0,1,1-47-47A46.92,46.92,0,0,1,231.92,207.41Z"/></clipPath><clipPath id="clip-path-3"><circle class="cls-1" cx="125.8" cy="325.19" r="47"/></clipPath><clipPath id="clip-path-4"><circle class="cls-1" cx="495.01" cy="325.19" r="47"/></clipPath></defs><g id="レイヤー_2" data-name="レイヤー 2"><g id="SP文字とイラスト"><path d="M95.56,93.85c-2,0-2.64,0-2.77,0s-.24,0-.24-.26V91.87c0-.25,0-.27.24-.27s.81.05,2.77.05h3l0-.47a14.65,14.65,0,0,0,0-2.88,20.48,20.48,0,0,1,2.44.22c.31,0,.42.18.42.29a.88.88,0,0,1-.22.53,7.47,7.47,0,0,0-.29,1.87,3.42,3.42,0,0,0,0,.44h8c2,0,2.65-.05,2.78-.05s.26,0,.26.27v1.76c0,.24,0,.26-.26.26s-.82,0-2.78,0h-8.25c-.11.81-.24,1.63-.39,2.4h6.58a1.84,1.84,0,0,0,.55-.09.7.7,0,0,1,.28-.09c.16,0,.31,0,1,.64s.71.7.71.86a.42.42,0,0,1-.18.37,2,2,0,0,0-.53.81,18,18,0,0,1-2.95,4.73,20.28,20.28,0,0,0,6.63,2.47,5.48,5.48,0,0,0-1,1.69c-.24.66-.26.66-.92.49a22.33,22.33,0,0,1-6.45-3,17.61,17.61,0,0,1-5.85,3.13,1.91,1.91,0,0,1-.53.13c-.2,0-.29-.13-.44-.53a4.75,4.75,0,0,0-1-1.41,16.76,16.76,0,0,0,6-2.81,13.09,13.09,0,0,1-2.86-4.1c-.07.18-.11.36-.18.51a19.06,19.06,0,0,1-5,7.44c-.26.22-.39.33-.5.33s-.25-.13-.44-.38a4.87,4.87,0,0,0-1.3-1.18,15.37,15.37,0,0,0,5-6.78,22.77,22.77,0,0,0,1.39-5.61Zm5.59,4.42a10.18,10.18,0,0,0,2.71,3.85,12.69,12.69,0,0,0,2.37-3.85Z"/><path d="M125,92.15c.24-.06.33,0,.35.22.07.49.13,1.13.16,1.59,0,.28,0,.35-.33.42a36.52,36.52,0,0,1-3.83.83c-1.5,4.89-2.62,8.25-4,11.91-.11.3-.24.28-.48.22s-1.3-.56-1.76-.82a.35.35,0,0,1-.18-.44,82.93,82.93,0,0,0,3.81-10.43c-1.28.13-2.82.24-3.85.24-.33,0-.42-.06-.47-.35-.08-.46-.19-1.21-.3-2a9.47,9.47,0,0,0,1.62.07,30.74,30.74,0,0,0,3.57-.22c.22-.88.39-1.85.55-2.76a14.8,14.8,0,0,0,.13-2,12.66,12.66,0,0,1,2.77.62.35.35,0,0,1,.24.35.52.52,0,0,1-.11.35,4.6,4.6,0,0,0-.46.88c-.22.79-.37,1.54-.53,2.09C122.71,92.75,123.9,92.46,125,92.15Zm-.86,10.52c.22,0,.31.09.33.31.18,1.6,1.25,2.07,3.37,2.07a32.77,32.77,0,0,0,3.69-.31c.18,0,.25,0,.27.2a13.42,13.42,0,0,1,.17,1.91c0,.27,0,.33-.35.35a24.27,24.27,0,0,1-3.06.25c-2.81,0-4.31-.4-5.3-1.44a4.27,4.27,0,0,1-1-3A10.7,10.7,0,0,1,124.12,102.67Zm-.24-5.83c0-.31.06-.37.39-.44a22.76,22.76,0,0,1,4.3-.51,16.28,16.28,0,0,1,2.57.22c.31,0,.37.07.37.33a14.62,14.62,0,0,1,0,1.76c0,.38-.11.47-.42.4a15.07,15.07,0,0,0-2.73-.26,24.84,24.84,0,0,0-4.42.5C123.92,98.07,123.88,97.28,123.88,96.84ZM129,90.57c.11-.09.2-.07.33,0A10,10,0,0,1,131.38,93a.22.22,0,0,1-.06.35l-.93.68a.23.23,0,0,1-.37-.06,11.1,11.1,0,0,0-2.22-2.56Zm2-1.43c.13-.09.2-.07.33,0a9.27,9.27,0,0,1,2.09,2.27.25.25,0,0,1-.07.39l-.88.69c-.17.13-.28.06-.37-.07a10.33,10.33,0,0,0-2.2-2.53Z"/><path d="M139.78,90.9a7.3,7.3,0,0,0,0-2.14,14.63,14.63,0,0,1,2.64.47c.29.08.44.22.44.39a.73.73,0,0,1-.15.35,2.36,2.36,0,0,0-.38.82c-.11.59-.2,1-.31,1.8a39.1,39.1,0,0,0,4.14-.81c.31-.09.42-.07.46.22a9.79,9.79,0,0,1,.16,1.63c0,.24-.07.31-.27.35a49.3,49.3,0,0,1-4.93.9c-.3,1.83-.61,3.3-1,4.84a9.56,9.56,0,0,1,6.32-2.33c2.92,0,4.9,1.89,4.9,4.16a4.93,4.93,0,0,1-2.5,4.44,14.59,14.59,0,0,1-5.62,1.76,9.88,9.88,0,0,1-1.62.16c-.22,0-.38-.11-.55-.53a4.33,4.33,0,0,0-1.19-1.56,17.29,17.29,0,0,0,6.31-1.21c1.7-.71,2.51-1.72,2.51-3.11,0-1.14-.83-2.09-2.51-2.09a7.3,7.3,0,0,0-5.78,2.73c-.2.29-.42.55-.62.84s-.22.35-.42.33a6.39,6.39,0,0,1-1.65-.49c-.35-.15-.48-.24-.48-.44a1.45,1.45,0,0,1,.09-.44c.11-.37.19-.7.28-1,.49-1.94.79-3.56,1.17-5.76-1.19.08-2.58.19-3.7.19a.38.38,0,0,1-.42-.3c-.06-.27-.22-1.19-.3-1.92,1.71,0,3.08-.07,4.77-.2C139.63,92.15,139.72,91.43,139.78,90.9Z"/><path d="M158.79,93.17c-1.25,0-2.59.08-3.89.17-.27,0-.35-.13-.4-.33a18.18,18.18,0,0,1-.39-2.38c1.49.11,2.7.16,4.46.16H168a4.91,4.91,0,0,0,1.52-.13,1.45,1.45,0,0,1,.42-.16.73.73,0,0,1,.5.31,10.23,10.23,0,0,1,1.32,1.39.63.63,0,0,1,.18.39.56.56,0,0,1-.31.46,2.76,2.76,0,0,0-.59.64,18.86,18.86,0,0,1-3.87,4.25.67.67,0,0,1-.47.2.91.91,0,0,1-.53-.22,5,5,0,0,0-1.82-.9,15.73,15.73,0,0,0,3.94-3.85Zm1.23,8.58a10.17,10.17,0,0,0,1.08-5.2,7.71,7.71,0,0,0-.22-2.06,25.72,25.72,0,0,1,2.84.41c.29.07.37.22.37.42a.86.86,0,0,1-.11.4,2,2,0,0,0-.19.9,13.55,13.55,0,0,1-1.3,6,11.49,11.49,0,0,1-4,4.38,1.08,1.08,0,0,1-.61.22.62.62,0,0,1-.44-.2,6.34,6.34,0,0,0-2-1.12A9.76,9.76,0,0,0,160,101.75Z"/><path d="M180.75,93.85c.09-1.08.13-1.78.15-3a8.52,8.52,0,0,0-.15-1.74,17.08,17.08,0,0,1,2.86.46.44.44,0,0,1,.37.46.94.94,0,0,1-.11.42,2.09,2.09,0,0,0-.28,1c-.07.71-.09,1.24-.2,2.32h3.34c1,0,2.05,0,3.06,0,.35,0,.46.07.46.31s0,1.17-.08,2.33a37.38,37.38,0,0,1-.82,7.24c-.44,1.69-1.19,2.62-2.59,3a9.48,9.48,0,0,1-2.23.24.52.52,0,0,1-.52-.44,4.62,4.62,0,0,0-1.28-2,8.72,8.72,0,0,0,3-.2c.6-.2.88-.55,1.15-1.54a31.45,31.45,0,0,0,.66-6.6h-4.45a16.35,16.35,0,0,1-2,6.1,14.16,14.16,0,0,1-4.66,4.53,1,1,0,0,1-.51.18.6.6,0,0,1-.42-.22,5.58,5.58,0,0,0-1.84-1.28,12.26,12.26,0,0,0,5.17-4.49,12.85,12.85,0,0,0,1.58-4.75h-2c-1.08,0-2.13,0-3.17.11-.22,0-.31-.11-.33-.38a20.68,20.68,0,0,1-.17-2.13c1.38.09,2.37.09,3.65.09Z"/><path d="M206.31,92.62c1,0,1.37-.07,1.65-.25a.58.58,0,0,1,.31-.11.74.74,0,0,1,.49.22,11,11,0,0,1,1.47,1.37.45.45,0,0,1,.15.33.71.71,0,0,1-.22.48,2.51,2.51,0,0,0-.48,1.08,24.26,24.26,0,0,1-2.77,6.47,18.36,18.36,0,0,1-5.68,5.39.61.61,0,0,1-.35.13.78.78,0,0,1-.46-.22,7.49,7.49,0,0,0-2.2-1,16,16,0,0,0,6.29-5.48,18.2,18.2,0,0,0,2.55-6.14h-9.57v1.85c0,.88,0,1.78.07,2.66,0,.36-.07.42-.36.42a13.62,13.62,0,0,1-2,0c-.29,0-.35-.06-.35-.33,0-1.12,0-1.85,0-2.73V95c0-.7,0-1.49,0-2.13,0-.2.11-.29.31-.29,1,.05,2.24.07,3.34.07h2.24v-.86a12.39,12.39,0,0,0-.21-2.93,25.93,25.93,0,0,1,2.72.33c.44.09.58.33.4.68a4.58,4.58,0,0,0-.26,1.7v1.06Z"/><path d="M215.07,91.23a.42.42,0,0,1,.31-.18.67.67,0,0,1,.28.11,23.11,23.11,0,0,1,4.2,3.13c.14.13.2.22.2.31a.46.46,0,0,1-.13.28c-.33.44-1.06,1.32-1.36,1.65-.11.11-.18.18-.27.18s-.17-.07-.28-.18A23.24,23.24,0,0,0,213.53,93C214,92.35,214.65,91.67,215.07,91.23ZM217,102.82a32.21,32.21,0,0,0,6.34-4.09,33.18,33.18,0,0,0,6-6,9.91,9.91,0,0,0,.61,2.57,1,1,0,0,1,.11.42c0,.2-.11.37-.35.66a36,36,0,0,1-5.06,4.66,46.83,46.83,0,0,1-6.64,4.32,7.56,7.56,0,0,0-1.48,1,.61.61,0,0,1-.39.22.59.59,0,0,1-.38-.24,15.37,15.37,0,0,1-1.76-2.45A12.54,12.54,0,0,0,217,102.82Z"/><path d="M238,95.34a31.09,31.09,0,0,1,7,3c.24.13.35.28.24.57a13.05,13.05,0,0,1-1,1.91c-.08.16-.17.24-.28.24a.31.31,0,0,1-.24-.11A24.81,24.81,0,0,0,238,98.14V103c0,1.43,0,2.73.09,4.31,0,.27-.09.33-.4.33a12.82,12.82,0,0,1-2,0c-.3,0-.42-.06-.42-.33.07-1.63.09-2.92.09-4.33V92.15a16.25,16.25,0,0,0-.22-3.25,15.1,15.1,0,0,1,2.75.35c.31.06.42.2.42.37a1.16,1.16,0,0,1-.17.51A5.49,5.49,0,0,0,238,92.2Z"/><path d="M252.4,103.4a3.34,3.34,0,0,0,1.83,1.84,12.49,12.49,0,0,0,4,.42c2.84,0,6.18-.17,9.46-.5a4.28,4.28,0,0,0-.6,1.74c-.11.7-.11.7-.81.74-2.79.14-5.41.2-7.7.2s-4.23-.13-5.13-.59a6,6,0,0,1-2.29-2c-.68.67-1.51,1.39-2.22,2a2.21,2.21,0,0,0-.44.44.38.38,0,0,1-.33.2.43.43,0,0,1-.31-.26,21.53,21.53,0,0,1-.9-2.07,11.78,11.78,0,0,0,1.3-.68,12.94,12.94,0,0,0,1.94-1.43V98.53h-1.08c-1.19,0-1.5,0-1.61,0s-.26,0-.26-.27V96.64c0-.22,0-.24.26-.24s.42,0,1.61,0h1.38c1.17,0,1.52,0,1.65,0s.25,0,.25.24,0,.75,0,2.09ZM249.17,89c.13-.08.2-.13.26-.13s.13.05.22.11a17,17,0,0,1,2.75,3.28c.13.18.11.22-.13.4l-1.25,1c-.14.11-.2.16-.27.16s-.13-.07-.2-.18a16.81,16.81,0,0,0-2.68-3.43c-.18-.16-.13-.22.11-.4Zm13.4,9.09c1.91,0,2.79,0,2.92,0s.25,0,.25.26-.05.66-.05,1.83V102c0,1.19.05,1.69.05,1.83s0,.24-.25.24-1,0-2.92,0h-4.89c-1.93,0-3,0-3.08,0s-.24,0-.24-.24,0-1.1,0-3V93.89c0-1.94,0-3,0-3.08s0-.26.24-.26,1.1,0,3,0h.13a12.4,12.4,0,0,0,.68-1.41,4.36,4.36,0,0,0,.31-1.1,18.65,18.65,0,0,1,2.27.35c.17,0,.28.16.28.27a.35.35,0,0,1-.17.33,1.25,1.25,0,0,0-.4.46c-.15.33-.33.7-.55,1.1H262c1.78,0,2.62,0,2.75,0s.24,0,.24.26,0,.64,0,1.78v1.76c0,1.15,0,1.68,0,1.81s0,.24-.24.24-1,0-2.75,0h-5.3v1.71Zm.11-5.63h-6v2h6Zm.79,7.5h-6.82v2.22h6.82Z"/><path d="M274.36,94.73a36.67,36.67,0,0,1-.9,6.38,16.92,16.92,0,0,1-2.95,6.36c-.2.24-.31.37-.42.37s-.2-.11-.37-.37a6.35,6.35,0,0,0-1.39-1.56,13.44,13.44,0,0,0,2.93-5.62,25.05,25.05,0,0,0,.81-5.56h-.29c-1.87,0-2.5,0-2.64,0s-.24,0-.24-.24V92.88c0-.22,0-.22.24-.22s.77,0,2.64,0h.36c0-.42,0-.86,0-1.34a25.3,25.3,0,0,0-.16-3.1c.8,0,1.59.06,2.38.13.22,0,.33.13.33.24a6,6,0,0,1-.15.62,11.14,11.14,0,0,0-.11,2.18c0,.43,0,.85,0,1.27h1.43c1.9,0,2.54,0,2.67,0s.26,0,.26.24c0,.75,0,1.39,0,2.09a73.62,73.62,0,0,1-.64,10.25,2.53,2.53,0,0,1-2.8,2.47,12,12,0,0,1-1.21,0c-.57,0-.57,0-.63-.75a6.08,6.08,0,0,0-.4-1.59,8.58,8.58,0,0,0,1.83.18c.61,0,.88-.24,1.05-1.37a72.19,72.19,0,0,0,.57-9.41ZM288,100.25c0,5.74.05,6.89.05,7s0,.26-.25.26H286c-.2,0-.22,0-.22-.26v-1.5H282.5v1.68c0,.24,0,.26-.26.26h-1.79c-.24,0-.26,0-.26-.26s0-1.3,0-7.11v-4c0-4,0-5.23,0-5.39s0-.24.26-.24.69,0,2.29,0h2.8c1.6,0,2.15,0,2.28,0s.25,0,.25.24S288,92.28,288,95.7Zm-5.52-7.39v10.82h3.26V92.86Z"/><path d="M307.54,103.22c0,1,0,2,0,2.73a2,2,0,0,1-.75,1.87,5.73,5.73,0,0,1-2.92.48c-.66,0-.69,0-.84-.68a4.8,4.8,0,0,0-.68-1.65,15.41,15.41,0,0,0,2.35,0c.49,0,.62-.19.62-.68V101H301c-2.09,0-2.79,0-2.92,0s-.25,0-.25-.24V99.66a4.38,4.38,0,0,1-.41.22c-.49.26-1,.5-1.54.77v3.67c0,2.51,0,3.76,0,3.87s0,.25-.26.25h-1.76c-.22,0-.25,0-.25-.25s.05-1.36.05-3.85v-2.68l-1.54.66a2.21,2.21,0,0,0-.73.44.53.53,0,0,1-.37.2c-.16,0-.24,0-.33-.25a19.14,19.14,0,0,1-.73-2.13,11.41,11.41,0,0,0,2.05-.59q.82-.27,1.65-.6V94.88h-1.3a22.65,22.65,0,0,1-.51,2.53c-.08.38-.13.53-.26.53a1.53,1.53,0,0,1-.51-.22,8.3,8.3,0,0,0-1.21-.44,23.73,23.73,0,0,0,.93-5.77,11.07,11.07,0,0,0,0-1.4c.57.06,1.23.15,1.78.26.26.07.35.13.35.26a.72.72,0,0,1-.11.36,2.32,2.32,0,0,0-.11.75l-.09,1.07h1.06V91.58a23.6,23.6,0,0,0-.18-3.32c.84,0,1.5.06,2.27.15.22,0,.35.11.35.22a1.27,1.27,0,0,1-.13.46,9.19,9.19,0,0,0-.13,2.45v1.27c1.21,0,1.67,0,1.78,0s.26,0,.26.22v1.69c0,.14,0,.2-.06.22.17,0,.92,0,2.92,0h1.61v-2.2h-.9c-2,0-2.6,0-2.73,0s-.27,0-.27-.24V91c0-.22,0-.25.27-.25s.77.05,2.73.05h.9a12.58,12.58,0,0,0-.2-2.51c.86,0,1.54.09,2.31.18.22,0,.35.08.35.22a1.1,1.1,0,0,1-.13.44,5,5,0,0,0-.15,1.67h1.54c2,0,2.64-.05,2.77-.05s.24,0,.24.25v1.56c0,.22,0,.24-.24.24s-.79,0-2.77,0h-1.54V95H307c2.09,0,2.81,0,2.92,0s.25,0,.25.22v1.57c0,.22,0,.24-.25.24s-.83-.05-2.92-.05H300.8c-2.11,0-2.84.05-3,.05s-.24,0-.24-.24V95.12c0-.11,0-.15,0-.19-.15,0-.61,0-1.73-.05v3.59c.63-.31,1.32-.62,2-1,0,.42,0,1,.07,1.45h.11c.13,0,.83,0,2.92,0h4.34a8.14,8.14,0,0,0-.16-1.76,20,20,0,0,1,2.25.25c.22,0,.35.15.35.26a.75.75,0,0,1-.13.37,1.74,1.74,0,0,0-.13.88c1.62,0,2.24,0,2.35,0s.24,0,.24.24v1.61c0,.22,0,.24-.24.24l-2.35,0Zm-7.15-1.54c.24-.13.3-.13.46,0a17.88,17.88,0,0,1,2.13,2.55c.13.2.11.25-.13.42l-1.32,1a.53.53,0,0,1-.27.13c-.06,0-.1-.07-.15-.18a14.25,14.25,0,0,0-2-2.75c-.16-.19-.14-.24.11-.39Z"/><path d="M314.53,103.29c-1.91,0-2.57,0-2.71,0s-.22,0-.22-.24v-1.7c0-.22,0-.24.22-.24s.66,0,2.07,0V94.27c0-1.68,0-2.51,0-2.67s0-.24.22-.24.9,0,3.06,0h1.18v-.64a11.42,11.42,0,0,0-.17-2.38c.81,0,1.47.07,2.22.15.2,0,.33.09.33.22a1.19,1.19,0,0,1-.13.47,4.65,4.65,0,0,0-.11,1.4v.78h2.24v-.64a11.68,11.68,0,0,0-.15-2.38c.81,0,1.47.07,2.22.15.2,0,.33.09.33.22a1.19,1.19,0,0,1-.13.47,4.65,4.65,0,0,0-.11,1.4v.78h1.34c2.14,0,2.91,0,3,0s.22,0,.22.24-.05,1-.05,2.67v6.93c1.32,0,1.85,0,2,0s.22,0,.22.24v1.7c0,.22,0,.24-.22.24s-.79,0-2.7,0Zm2.35,1.14a7.22,7.22,0,0,0,1.06-.92,12.44,12.44,0,0,1,1.78,1c.22.15.29.26.29.42s-.13.24-.35.31a3.55,3.55,0,0,0-1.06.66,16.7,16.7,0,0,1-4.66,2.37,2.23,2.23,0,0,1-.51.11c-.2,0-.29-.13-.51-.5a5.39,5.39,0,0,0-1.07-1.34A16.36,16.36,0,0,0,316.88,104.43Zm1.43-8.23V93.41h-2.2V96.2Zm0,5V98.09h-2.2v3.11Zm4.38-5V93.41h-2.24V96.2Zm0,5V98.09h-2.24v3.11Zm1.9,2.53c.13-.09.19-.14.24-.14s.11,0,.2.11a16.2,16.2,0,0,0,6.09,2.67,6.43,6.43,0,0,0-1.06,1.47c-.19.4-.28.55-.46.55a1.38,1.38,0,0,1-.48-.13,16.93,16.93,0,0,1-5.9-3.19c-.17-.18-.09-.24.11-.4Zm.24-10.32V96.2h2.35V93.41Zm2.35,7.79V98.09h-2.35v3.11Z"/><path d="M343.2,92.07c.2-.07.28-.07.33.17a13.1,13.1,0,0,1,.2,1.78c0,.2-.09.25-.27.27-1.19.24-2.26.39-3.63.59a61.12,61.12,0,0,1-4.29,9.44c-.09.15-.15.22-.24.22a.56.56,0,0,1-.27-.11,10.76,10.76,0,0,1-1.51-1.12c-.11-.09-.16-.16-.16-.24a.41.41,0,0,1,.11-.27,44.5,44.5,0,0,0,3.81-7.68c-.84,0-1.52,0-2.2,0-.49,0-.66,0-1.21,0-.22,0-.27-.07-.31-.36a10.91,10.91,0,0,1-.22-1.87c.9.07,1.41.09,2.05.09.85,0,1.51,0,2.53-.11.26-.92.42-1.67.57-2.46a8.68,8.68,0,0,0,.13-1.79,21.62,21.62,0,0,1,2.58.47c.22,0,.35.17.35.33a.54.54,0,0,1-.2.41,2.51,2.51,0,0,0-.35.82c-.16.53-.33,1.21-.53,1.87A26,26,0,0,0,343.2,92.07Zm.61,5.89a7.75,7.75,0,0,0-.17-1.56,11.9,11.9,0,0,1,2.4.42.33.33,0,0,1,.3.35,2.46,2.46,0,0,1-.13.46,2.29,2.29,0,0,0-.09.9,28,28,0,0,0,.25,3.74,17.63,17.63,0,0,1,4,2c.22.15.24.24.13.46a14.27,14.27,0,0,1-1,1.79c-.07.11-.14.15-.2.15s-.13,0-.22-.13a16,16,0,0,0-2.69-1.85c0,2.2-1.58,3.21-4.09,3.21s-4.05-1.23-4.05-3.12,1.59-3.22,4.07-3.22a11.49,11.49,0,0,1,1.74.14C343.88,100.34,343.84,99,343.81,98Zm-1.56,5.55c-1.1,0-2,.44-2,1.27s.62,1.06,1.87,1.06,1.92-.64,1.92-1.56a2.76,2.76,0,0,0,0-.44A5.56,5.56,0,0,0,342.25,103.51Zm4.09-10.59a.31.31,0,0,1,.47-.15,17.15,17.15,0,0,1,4.31,2.07c.13.09.2.15.2.24a.57.57,0,0,1-.09.26A12.63,12.63,0,0,1,350.3,97c-.06.11-.13.16-.19.16s-.11,0-.2-.09a19,19,0,0,0-4.56-2.4C345.73,94,346.06,93.32,346.34,92.92Z"/><path d="M359.7,89.67c.26.06.39.17.39.35s-.15.61-.15.92.07,1,.11,1.48a32.37,32.37,0,0,0,.7,3.78l3.13-1.67a5.47,5.47,0,0,0,1.52-1.19,11.62,11.62,0,0,1,1.6,2.07.88.88,0,0,1,.16.46.44.44,0,0,1-.44.44,11.16,11.16,0,0,0-2.12.66,30.78,30.78,0,0,0-5.17,2.58c-1.91,1.25-2.59,2.28-2.59,3.32,0,1.27.9,1.85,3.65,1.85a39,39,0,0,0,6.56-.51c.24,0,.35,0,.39.26a18.65,18.65,0,0,1,.22,2c0,.24-.13.35-.39.38a47.81,47.81,0,0,1-6.56.33c-4.16,0-6.36-1.37-6.36-4.23,0-2.44,1.61-4,4.18-5.68A33,33,0,0,1,357.39,92a9.88,9.88,0,0,0-.58-2.55A12.68,12.68,0,0,1,359.7,89.67Zm7.19.26c.11-.09.2-.07.33,0a10,10,0,0,1,2.09,2.36.22.22,0,0,1-.06.35l-.93.68a.23.23,0,0,1-.37-.06,11.1,11.1,0,0,0-2.22-2.56Zm2-1.43c.13-.09.2-.07.33,0a9.27,9.27,0,0,1,2.09,2.27.26.26,0,0,1-.07.4l-.88.68c-.17.13-.28.06-.37-.07a10.51,10.51,0,0,0-2.2-2.53Z"/><path d="M383,103.48c0,.25-.13.36-.42.4a12.45,12.45,0,0,1-1.56.11c-.2,0-.29-.13-.29-.35,0-.79,0-1.89,0-2.69-2,1-2.67,1.87-2.67,2.93s.75,1.52,3.06,1.52a37.79,37.79,0,0,0,5.48-.44c.2,0,.29,0,.31.24a9.93,9.93,0,0,1,.2,1.81c0,.26-.07.41-.25.41a37.85,37.85,0,0,1-5.45.29c-3.61,0-5.52-1.08-5.52-3.63,0-2.11,1.32-3.65,4.64-5.37-.07-1.12-.33-1.56-1.32-1.52a5.35,5.35,0,0,0-3,1.59,30.36,30.36,0,0,0-2.2,2.39c-.11.14-.18.2-.26.2a.43.43,0,0,1-.25-.15,11.58,11.58,0,0,1-1.25-1.45.36.36,0,0,1-.09-.2c0-.09.05-.16.16-.24a22.73,22.73,0,0,0,4.6-5.46c-1,0-2.23.07-3.52.07-.2,0-.27-.11-.31-.36s-.16-1.16-.22-1.82c1.67.08,3.39.06,5.06,0a18,18,0,0,0,.66-1.9,5.27,5.27,0,0,0,.15-1.34,13.47,13.47,0,0,1,2.51.62.38.38,0,0,1,.26.37.42.42,0,0,1-.15.33,1.76,1.76,0,0,0-.37.53c-.14.31-.25.59-.51,1.19a36.35,36.35,0,0,0,4-.69c.25,0,.31,0,.36.22a8,8,0,0,1,.22,1.59c0,.22-.07.31-.38.35-1.65.24-3.54.49-5.15.66a21,21,0,0,1-1.65,2.44l0,0a4.36,4.36,0,0,1,2.2-.68,2.43,2.43,0,0,1,2.68,2.37c.86-.39,2.11-1,3.23-1.54a6.42,6.42,0,0,0,1.68-1.19,14.38,14.38,0,0,1,1.54,1.94.87.87,0,0,1,.17.48c0,.18-.11.27-.33.31a7.71,7.71,0,0,0-1.34.33c-1.43.51-2.86,1-4.73,1.76Z"/><path d="M395.67,95.74a36.45,36.45,0,0,1-.62,7.06,15,15,0,0,1-1.76,4.87c-.15.28-.24.41-.35.41s-.22-.11-.44-.35A7.62,7.62,0,0,0,391,106.5a12.22,12.22,0,0,0,1.81-4.6,33.87,33.87,0,0,0,.51-6.58c0-2.75,0-4,0-4.14s0-.24.24-.24.9,0,3,0h4.37V90a8.79,8.79,0,0,0-.13-1.78c.84,0,1.56.06,2.33.13.22,0,.36.09.36.22a.81.81,0,0,1-.14.42,2.19,2.19,0,0,0-.15.94v1h4.47c2.09,0,2.81,0,2.95,0s.21,0,.21.24v1.68c0,.24,0,.26-.21.26s-.86,0-2.95,0h-12Zm10.21,3.56c.28-.13.33-.15.46,0a52.29,52.29,0,0,1,4.22,7.35c.09.22.07.31-.19.44l-1.63.86c-.27.13-.38.06-.47-.16-.28-.66-.57-1.32-.88-2-2.83.51-6.64,1.08-10.25,1.48a2,2,0,0,0-.81.24.69.69,0,0,1-.36.13c-.15,0-.24-.09-.33-.33-.17-.62-.35-1.41-.52-2.29.79,0,1.52,0,2.51,0a62.69,62.69,0,0,0,2.75-8.72,10.58,10.58,0,0,0,.28-2,21.15,21.15,0,0,1,2.44.66c.31.09.38.2.38.37a.66.66,0,0,1-.2.44,3,3,0,0,0-.55,1.23,68.86,68.86,0,0,1-2.62,7.81c2.16-.24,4.36-.52,6.32-.88a38.53,38.53,0,0,0-2.16-3.54c-.11-.17-.09-.26.18-.39Z"/><path d="M416,98.42c-2,0-2.64,0-2.77,0s-.25,0-.25-.24V96.55c0-.22,0-.24.25-.24s.81,0,2.77,0h5.61V93.63h-3.79a15.43,15.43,0,0,1-1.36,1.8c-.22.27-.35.42-.46.42s-.27-.13-.51-.37a7.19,7.19,0,0,0-1.43-1,14.37,14.37,0,0,0,2.95-4,8.7,8.7,0,0,0,.55-1.57c.68.2,1.41.47,1.94.66.3.11.46.22.46.38s-.11.24-.24.35a1.34,1.34,0,0,0-.38.59c-.11.25-.22.51-.35.75h2.62v-.53a19.08,19.08,0,0,0-.13-2.83c.83,0,1.76.06,2.48.15.22,0,.36.11.36.24a1.13,1.13,0,0,1-.14.44,6.25,6.25,0,0,0-.13,1.65v.88h3.1c2.12,0,2.86,0,3,0s.22,0,.22.24v1.63c0,.22,0,.24-.22.24s-.88,0-3,0h-3.1v2.73h5.3c2,0,2.65,0,2.78,0s.26,0,.26.24v1.68c0,.22,0,.24-.26.24s-.82,0-2.78,0Zm.2,10c-.22,0-.25,0-.25-.24s.05-.68.05-3.63v-1.65c0-1.68-.05-2.25-.05-2.4s0-.24.25-.24.9,0,3,0h7.11c2.13,0,2.88,0,3,0s.25,0,.25.24-.05.72-.05,2.07v1.89c0,3,.05,3.5.05,3.63s0,.22-.25.22H427.5c-.22,0-.24,0-.24-.22v-.79h-8.89v.88c0,.22,0,.24-.26.24Zm2.13-3.13h8.89v-3h-8.89Z"/><path d="M444.77,93.45c-2.68.51-5,1-7.39,1.45-.84.2-1.06.25-1.39.36a1.38,1.38,0,0,1-.48.17.51.51,0,0,1-.42-.33,14.06,14.06,0,0,1-.81-2.38,29.56,29.56,0,0,0,3.49-.37c2.71-.4,7.55-1.12,13.23-1.87.33,0,.44.09.46.24a12.39,12.39,0,0,1,.24,1.94c0,.26-.13.33-.41.33a9.92,9.92,0,0,0-2.69.48C444.86,94.75,443,97.32,443,100c0,2.84,2,4.38,5.85,4.62.35,0,.49.09.49.33a7.56,7.56,0,0,1-.25,1.9c-.06.33-.15.46-.41.46-3.88,0-8.12-2.22-8.12-6.8,0-3.12,1.56-5.24,4.22-7Zm4.36,2.38c.11-.09.2-.07.33,0a10.26,10.26,0,0,1,2.09,2.36.22.22,0,0,1-.07.35l-.92.68c-.16.11-.26.09-.38-.07A11,11,0,0,0,448,96.64Zm2-1.43c.13-.09.2-.07.33,0a9.47,9.47,0,0,1,2.09,2.27.25.25,0,0,1-.07.39l-.88.69a.22.22,0,0,1-.37-.07,10.54,10.54,0,0,0-2.2-2.53Z"/><path d="M458,90.92c-1.92,0-2.55,0-2.69,0s-.21,0-.21-.24V89.16c0-.22,0-.24.21-.24s.77,0,2.69,0h4.4c1.89,0,2.55,0,2.68,0s.25,0,.25.24v1.56c0,.22,0,.24-.25.24s-.79,0-2.68,0h-.18V93c1.54,0,2.09,0,2.25,0s.24,0,.24.22,0,1.14,0,4.16v4.09c0,5,0,6,0,6.16s0,.24-.24.24h-1.34c-.25,0-.27,0-.27-.24v-.72h-5.23V108c0,.22,0,.24-.23.24H456c-.22,0-.24,0-.24-.24s0-1.15,0-6.32V98c0-3.58,0-4.62,0-4.75s0-.22.24-.22.7,0,2.24,0V90.92Zm1.83,3.85c0,.82,0,1.74-.09,2.47a9.91,9.91,0,0,1-.93,3.34c-.06.13-.15.2-.22.2s-.17-.09-.26-.29a2.72,2.72,0,0,0-.7-1v2.07h5.23V99.74H462c-.62,0-.88-.06-1.08-.24s-.33-.5-.33-1.25V94.77Zm-2.2,4.51a5.11,5.11,0,0,0,.79-2.62c0-.52,0-1.23,0-1.89h-.83Zm5.23,5.72v-1.58h-5.23V105Zm-2.22-12V90.92h-.81V93ZM462,94.77v2.29c0,.51,0,.64.06.75s.2.15.42.15h.33V94.77Zm4.11-5.59c0-.22,0-.24.24-.24s.66,0,2.29,0h2.82c1.63,0,2.18,0,2.31,0s.26,0,.26.24,0,.79,0,2.36v4.95c0,1.56,0,2.22,0,2.35s0,.24-.26.24H472c-.22,0-.24,0-.24-.24v-.75h-3.44v6.38c0,.51,0,.82.2,1s.66.28,1.65.28,1.72-.09,2.05-.44.42-1.1.51-2.88a5,5,0,0,0,1.49.61c.68.2.68.2.64.88-.13,2-.55,2.69-1.08,3.17s-1.63.8-3.7.8-3-.16-3.43-.58a2.1,2.1,0,0,1-.55-1.76V98.71c0-1.58,0-2.38,0-2.51s0-.26.26-.26.77,0,2.09,0h3.35V91.12h-3.13c-1.63,0-2.15,0-2.29,0s-.24,0-.24-.22Z"/><path d="M478.41,97c-.4.61-.84,1.19-1.3,1.76-.15.2-.29.28-.4.28s-.17-.13-.24-.37a6.74,6.74,0,0,0-.7-1.89,21,21,0,0,0,3.8-7.09,7.84,7.84,0,0,0,.38-1.58,18.32,18.32,0,0,1,2,.59c.27.09.38.2.38.33a.6.6,0,0,1-.25.4,2.38,2.38,0,0,0-.43.92c-.31.88-.66,1.79-1.06,2.69v11.7c0,2.16,0,3.24,0,3.35s0,.24-.24.24h-1.83c-.19,0-.22,0-.22-.24s.05-1.19.05-3.35Zm6.67-2.8c-2.18,0-2.91.05-3,.05s-.24,0-.24-.27V92.48c0-.24,0-.26.24-.26s.86,0,3,0H493c2.15,0,2.88,0,3,0s.27,0,.27.26V94c0,.25,0,.27-.27.27s-.86-.05-3-.05Zm-1.76,14.06c-.23,0-.25,0-.25-.24s.05-.66.05-2.92v-1.5c0-1.3-.05-1.83-.05-2s0-.22.25-.22.85,0,2.88,0h5.26c2,0,2.7,0,2.84,0s.24,0,.24.22-.05.66-.05,1.69v1.72c0,2.22.05,2.77.05,2.91s0,.22-.24.22h-1.83c-.22,0-.24,0-.24-.22v-.66h-6.89v.72c0,.22,0,.24-.24.24Zm3.19-17.25c-2,0-2.62,0-2.75,0s-.25,0-.25-.25V89.38c0-.22,0-.24.25-.24s.79,0,2.75,0h4.75c1.93,0,2.57,0,2.71,0s.26,0,.26.24v1.47c0,.22,0,.25-.26.25s-.78,0-2.71,0Zm0,6.21c-1.94,0-2.6,0-2.73,0s-.24,0-.24-.22V95.63c0-.22,0-.24.24-.24s.79,0,2.73,0h4.55c1.94,0,2.58,0,2.71,0s.24,0,.24.24v1.45c0,.2,0,.22-.24.22s-.77,0-2.71,0Zm0,3c-1.94,0-2.6,0-2.73,0s-.24,0-.24-.24V98.67c0-.22,0-.25.24-.25s.79,0,2.73,0h4.55c1.94,0,2.58,0,2.71,0s.24,0,.24.25v1.43c0,.22,0,.24-.24.24s-.77,0-2.71,0Zm-1.19,5.18h6.89v-2.1h-6.89Z"/><path d="M502.59,89.69c.37.09.53.2.53.42a2.31,2.31,0,0,1-.22.72,13.15,13.15,0,0,0-.31,2.69c-.22,3.39-.33,5.63-.33,8.51,0,2.22.26,2.73,2,2.73,2,0,5-1.19,7.7-4.05a7.69,7.69,0,0,0,.51,2.09,1.48,1.48,0,0,1,.18.53c0,.2-.09.37-.45.68a12.53,12.53,0,0,1-8.33,3.3c-2.82,0-4.14-1.12-4.14-4.49,0-3.69.2-6.86.31-9.5a14.81,14.81,0,0,0-.22-4A21.91,21.91,0,0,1,502.59,89.69Z"/><path d="M522,93.34c-2.68.51-5,1-7.39,1.45-.84.2-1.06.25-1.39.36a1.31,1.31,0,0,1-.48.17.52.52,0,0,1-.42-.33,15.2,15.2,0,0,1-.81-2.37,32.73,32.73,0,0,0,3.5-.38c2.7-.4,7.54-1.12,13.22-1.87.33,0,.44.09.46.24a12.39,12.39,0,0,1,.24,1.94c0,.26-.13.33-.41.33a9.92,9.92,0,0,0-2.69.48c-3.74,1.28-5.61,3.85-5.61,6.49,0,2.84,2,4.38,5.85,4.62.36,0,.49.09.49.33a8,8,0,0,1-.24,1.9c-.07.33-.16.46-.42.46-3.88,0-8.12-2.22-8.12-6.8,0-3.12,1.56-5.24,4.22-7Z"/><path d="M128.32,129.19a38.05,38.05,0,0,1-4.53-.08c-.24,0-.33-.09-.35-.38a12.77,12.77,0,0,1-.13-1.87,31.39,31.39,0,0,0,4.95.18c0-.84,0-1.7,0-2.53a38.07,38.07,0,0,1-5.26-.11c-.24,0-.35-.09-.37-.31-.07-.55-.11-1.08-.15-2a50.16,50.16,0,0,0,5.76.22c0-.82,0-1.39,0-2.14a6.47,6.47,0,0,0-.27-1.47,13,13,0,0,1,2.78.4.45.45,0,0,1,.24.66,2.64,2.64,0,0,0-.33,1c0,.44,0,.75,0,1.41a37,37,0,0,0,4.82-.66c.27-.07.35,0,.38.26a13.26,13.26,0,0,1,.11,1.61c0,.29-.07.33-.25.35a45.25,45.25,0,0,1-5.08.58c0,.88,0,1.69,0,2.48,1.68-.11,2.73-.33,4.32-.57.26-.07.33,0,.35.18,0,.41.06,1.14.06,1.8,0,.22-.08.29-.33.31a42.29,42.29,0,0,1-4.31.53c0,1,.09,2.09.15,3.1a19.44,19.44,0,0,1,5.84,2.66c.22.2.22.27.15.53a6.61,6.61,0,0,1-1,1.63.31.31,0,0,1-.28.17.34.34,0,0,1-.25-.11,17.85,17.85,0,0,0-4.37-2.51c0,2.38-1.46,3.35-4.47,3.35s-4.49-1.25-4.49-3.08,1.74-3.13,4.4-3.13a20.79,20.79,0,0,1,2.11.09C128.39,130.84,128.34,129.94,128.32,129.19Zm-1.89,4.45c-1.61,0-2.38.46-2.38,1.16s.66,1,2.18,1a2.72,2.72,0,0,0,2-.66,2.11,2.11,0,0,0,.25-1.24A9.76,9.76,0,0,0,126.43,133.64Z"/><path d="M150.26,122.15c.24-.06.33,0,.35.22.07.49.13,1.13.15,1.59,0,.28,0,.35-.33.42a35.46,35.46,0,0,1-3.83.83c-1.49,4.89-2.61,8.25-4,11.91-.11.3-.24.28-.49.22s-1.29-.56-1.76-.82a.35.35,0,0,1-.17-.44,81.29,81.29,0,0,0,3.8-10.43c-1.27.13-2.81.24-3.85.24-.33,0-.41-.06-.46-.35-.09-.46-.2-1.21-.31-2a9.67,9.67,0,0,0,1.63.07,30.74,30.74,0,0,0,3.57-.22c.22-.88.39-1.85.55-2.76a16.59,16.59,0,0,0,.13-2,12.8,12.8,0,0,1,2.77.62.35.35,0,0,1,.24.35.52.52,0,0,1-.11.35,4.6,4.6,0,0,0-.46.88c-.22.79-.37,1.54-.53,2.09C148,122.75,149.18,122.46,150.26,122.15Zm-.86,10.52c.22,0,.31.09.33.31.18,1.6,1.25,2.07,3.37,2.07a32.77,32.77,0,0,0,3.69-.31c.18,0,.24,0,.27.2a15.06,15.06,0,0,1,.17,1.91c0,.27,0,.33-.35.35a24.27,24.27,0,0,1-3.06.25c-2.81,0-4.31-.4-5.3-1.44a4.22,4.22,0,0,1-1-3A10.7,10.7,0,0,1,149.4,132.67Zm-.24-5.83c0-.31.06-.37.39-.44a22.76,22.76,0,0,1,4.29-.51,16.31,16.31,0,0,1,2.58.22c.31,0,.37.07.37.33a12.85,12.85,0,0,1,0,1.76c0,.38-.11.47-.41.4a15.16,15.16,0,0,0-2.73-.26,25.05,25.05,0,0,0-4.43.5C149.2,128.07,149.16,127.28,149.16,126.84Zm5.08-6.27c.11-.09.2-.07.33,0a10.26,10.26,0,0,1,2.09,2.36.22.22,0,0,1-.07.35l-.92.68a.23.23,0,0,1-.37-.06,10.9,10.9,0,0,0-2.23-2.56Zm2-1.43c.13-.09.2-.07.33,0a9.47,9.47,0,0,1,2.09,2.27.25.25,0,0,1-.07.39l-.88.69c-.17.13-.28.06-.37-.07a10.54,10.54,0,0,0-2.2-2.53Z"/><path d="M164.34,125.43a39.41,39.41,0,0,1-.49,7.09,17.37,17.37,0,0,1-1.76,5.06c-.15.28-.24.44-.35.44s-.22-.13-.44-.35a8.33,8.33,0,0,0-1.47-1.3,14.43,14.43,0,0,0,1.8-4.8,33.9,33.9,0,0,0,.46-6.58c0-2.77,0-4,0-4.16s0-.24.22-.24.88,0,3,0h4.18v-.72a9,9,0,0,0-.13-1.78c.81,0,1.58.06,2.33.13.22,0,.35.11.35.24a.72.72,0,0,1-.13.42,2,2,0,0,0-.15.94v.77h4.75c2.09,0,2.79,0,2.95,0s.22,0,.22.24v1.63c0,.22,0,.24-.22.24s-.86,0-2.95,0h-12.1Zm1.38,12.81c-.22,0-.24,0-.24-.24s0-.66,0-3.53v-1.6c0-1.59,0-2.14,0-2.29s0-.24.24-.24.86,0,2.93,0h1.28v-4.44a19,19,0,0,0-.14-2.66,18.89,18.89,0,0,1,2.25.15c.22,0,.37.11.37.22a1,1,0,0,1-.13.48,5.12,5.12,0,0,0-.15,1.7V126h3.67c2.07,0,2.79,0,2.93,0s.24,0,.24.24v1.63c0,.22,0,.24-.24.24s-.86,0-2.93,0h-3.67v2.4h2.39c2.09,0,2.82,0,2.95,0s.24,0,.24.24,0,.7,0,2v1.83c0,2.81,0,3.36,0,3.5s0,.22-.24.22h-1.76c-.22,0-.24,0-.24-.22v-.55h-7.81V138c0,.22,0,.24-.24.24Zm1.94-2.91h7.81v-3h-7.81Z"/><path d="M198.75,120.59a16.07,16.07,0,0,0-1.1-1.47c-.14-.16-.11-.2.13-.33l.92-.44c.22-.11.29-.11.44,0a10.29,10.29,0,0,1,1.23,1.5c.14.17.11.24-.13.37l-.61.33c.92,0,1.32,0,1.43,0s.26,0,.26.24v1.54c0,.22,0,.24-.26.24s-.8,0-2.78,0h-1.62v1.65h1.25c1.89,0,2.55-.05,2.71-.05s.24,0,.24.27-.05,1.16-.05,3.19v5c0,1.3.05,2.73.05,3.43a2,2,0,0,1-.51,1.66,2.83,2.83,0,0,1-1.82.41c-.66,0-.71,0-.77-.55a4.54,4.54,0,0,0-.44-1.49,9.72,9.72,0,0,0,1,.06c.4,0,.48,0,.48-.5v-2.47h-2.17v1.5c0,2,0,3.08,0,3.23s0,.22-.22.22h-1.56c-.24,0-.27,0-.27-.22s0-1.21,0-3.23v-1.5h-2v1.78c0,2,0,3,0,3.13s0,.22-.24.22H191c-.24,0-.27,0-.27-.22s0-1.12,0-3.21v-7.42c0-2,0-2.88,0-3s0-.27.27-.27.79.05,2.71.05h1v-1.65h-1.3c-2,0-2.66,0-2.8,0s-.24,0-.24-.24V122a4.79,4.79,0,0,0-.81,1.19c-.16.33-.22.5-.35.5a1.18,1.18,0,0,1-.47-.28,13.85,13.85,0,0,1-2.59-2.67,17.49,17.49,0,0,1-3.85,4.21c-.2.15-.33.24-.44.24s-.18-.15-.29-.48a4.25,4.25,0,0,0-.66-1.43,13.51,13.51,0,0,0,3.79-4.23,4.82,4.82,0,0,0,.35-.86,17.71,17.71,0,0,1,2.07.46c.28.09.44.16.44.29s-.11.22-.29.29a10.74,10.74,0,0,0,3.1,2.59v-1c0-.22,0-.24.24-.24s.82,0,2.8,0h1.3a19,19,0,0,0-.18-2.4c.86,0,1.43.09,2,.16.26,0,.35.11.35.22a1.39,1.39,0,0,1-.13.46,5,5,0,0,0-.13,1.56ZM184.22,130c-1.69,0-2.26,0-2.39,0s-.25,0-.25-.24v-1.43c0-.22,0-.25.25-.25s.7,0,2.39,0h.86v-1.65h-.2c-1.43,0-1.76,0-1.89,0s-.26,0-.26-.24v-1.36c0-.25,0-.27.26-.27s.46,0,1.89,0h.2a10.53,10.53,0,0,0-.17-2.09c.77,0,1.51.08,2.09.15.22,0,.35.11.35.22a1.17,1.17,0,0,1-.13.46,2.62,2.62,0,0,0-.14,1.26h0c1.43,0,1.87,0,2,0s.24,0,.24.27v1.36c0,.22,0,.24-.24.24s-.57,0-2,0h0v1.65h.38c1.69,0,2.26,0,2.4,0s.22,0,.22.25v1.43c0,.22,0,.24-.22.24s-.71,0-2.4,0Zm.33,8.06c0,.2,0,.22-.24.22h-1.63c-.22,0-.24,0-.24-.22s.05-.62.05-3.22v-1.45c0-1.32-.05-1.85-.05-2s0-.26.24-.26.62,0,2.12,0h2.26c1.5,0,2,0,2.11,0s.25,0,.25.26,0,.62,0,1.59v1.6c0,2.47,0,2.95,0,3.09s0,.24-.25.24h-1.58c-.22,0-.24,0-.24-.24v-.62h-2.8Zm0-5v2.29h2.8V133Zm10.15-5.19V126h-2v1.83Zm0,3.63v-1.9h-2v1.9Zm2-5.46v1.83h2.17V126Zm2.17,5.46v-1.9h-2.17v1.9Z"/><path d="M214.17,133.48c0,.25-.13.36-.42.4a12.77,12.77,0,0,1-1.56.11c-.2,0-.29-.13-.29-.35,0-.79,0-1.89,0-2.69-2,1-2.66,1.87-2.66,2.93s.75,1.52,3.06,1.52a38,38,0,0,0,5.48-.44c.2,0,.28,0,.31.24a9.92,9.92,0,0,1,.19,1.81c0,.26-.06.41-.24.41a37.85,37.85,0,0,1-5.45.29c-3.61,0-5.53-1.08-5.53-3.63,0-2.11,1.32-3.65,4.64-5.37-.06-1.12-.33-1.56-1.32-1.52a5.35,5.35,0,0,0-3,1.59,28.54,28.54,0,0,0-2.2,2.39c-.11.14-.18.2-.27.2a.44.44,0,0,1-.24-.15,10.13,10.13,0,0,1-1.25-1.45.36.36,0,0,1-.09-.2.29.29,0,0,1,.15-.24,22.28,22.28,0,0,0,4.6-5.46c-1,0-2.22.07-3.52.07-.2,0-.26-.11-.31-.36s-.15-1.16-.22-1.82c1.68.08,3.39.06,5.06,0a16,16,0,0,0,.66-1.9,5.21,5.21,0,0,0,.16-1.34,13.68,13.68,0,0,1,2.51.62.39.39,0,0,1,.26.37.42.42,0,0,1-.15.33,1.77,1.77,0,0,0-.38.53c-.13.31-.24.59-.5,1.19a36.35,36.35,0,0,0,4-.69c.24,0,.31,0,.35.22a7.33,7.33,0,0,1,.22,1.59c0,.22-.06.31-.37.35-1.65.24-3.54.49-5.15.66a22.29,22.29,0,0,1-1.65,2.44l0,0a4.42,4.42,0,0,1,2.2-.68,2.43,2.43,0,0,1,2.69,2.37c.86-.39,2.11-1,3.23-1.54a6.39,6.39,0,0,0,1.67-1.19,12.9,12.9,0,0,1,1.54,1.94.82.82,0,0,1,.18.48c0,.18-.11.27-.33.31a7.71,7.71,0,0,0-1.34.33c-1.43.51-2.86,1-4.73,1.76Z"/><path d="M227.85,122.09c1.67,0,2.22,0,2.35,0s.25,0,.25.24v1.57c0,.24,0,.26-.25.26s-.68,0-2.35,0H225.1c-1.67,0-2.22,0-2.35,0s-.22,0-.22-.26v-1.57c0-.21,0-.24.22-.24s.68,0,2.35,0Zm7.77,6.73c-.4,3.67-1.37,6.6-3.61,9-.22.25-.35.36-.46.36s-.22-.14-.44-.42a6.36,6.36,0,0,0-1.13-1.08c0,.64.05.84.05.9,0,.22,0,.24-.24.24h-1.57c-.22,0-.24,0-.24-.24V137h-2.31V138c0,.2,0,.22-.24.22h-1.56c-.24,0-.27,0-.27-.22s.05-.66.05-3.26v-1.41c0-1.38-.05-1.91-.05-2.06s0-.25.27-.25.59.05,2,.05h1.89c1.43,0,1.87-.05,2-.05s.24,0,.24.25S230,132,230,133v3.41c3-2.82,3.57-6.67,3.64-12.36l-2.32,0c-.21,0-.24,0-.24-.26v-1.65c0-.23,0-.25.24-.25s.82,0,2.84,0h1.17v-1.35a13,13,0,0,0-.15-2.33c.79,0,1.58.09,2.33.16.22,0,.37.13.37.24a1.06,1.06,0,0,1-.13.46,4.1,4.1,0,0,0-.15,1.47V122h1.87c2,0,2.72,0,2.86,0s.22,0,.22.25v1.65c0,.24,0,.26-.22.26s-.84,0-2.86,0h-3.59c0,.94,0,1.82-.09,2.68h3.43c1.37,0,1.79,0,1.92,0s.26,0,.26.26c0,.53,0,1.14,0,1.67a41.24,41.24,0,0,1-.53,6.76c-.4,2-1.19,2.75-3.37,2.75-.33,0-.74,0-1.12,0s-.46,0-.53-.74a5,5,0,0,0-.52-1.63,12.64,12.64,0,0,0,2.06.2c.73,0,1.06-.4,1.24-1.17a27.84,27.84,0,0,0,.5-5.92ZM228,119.09c1.41,0,1.85,0,2,0s.27,0,.27.24v1.45c0,.22,0,.25-.27.25s-.57,0-2,0h-2.07c-1.43,0-1.87,0-2,0s-.24,0-.24-.25v-1.45c0-.22,0-.24.24-.24s.57,0,2,0Zm-.26,6.1c1.34,0,1.71,0,1.85,0s.26,0,.26.24v1.43c0,.22,0,.24-.26.24s-.51,0-1.85,0H226c-1.34,0-1.74,0-1.87,0s-.24,0-.24-.24v-1.43c0-.22,0-.24.24-.24s.53,0,1.87,0Zm0,2.95c1.34,0,1.71,0,1.85,0s.26,0,.26.25v1.4c0,.22,0,.25-.26.25s-.51-.05-1.85-.05H226c-1.34,0-1.74.05-1.87.05s-.24,0-.24-.25v-1.4c0-.22,0-.25.24-.25s.53,0,1.87,0Zm-2.05,4.79v2.23H228v-2.23Z"/><path d="M248.88,121a7.91,7.91,0,0,0-.22-2.14,12.46,12.46,0,0,1,2.51.42c.35.09.46.22.46.44a.86.86,0,0,1-.15.42,2.59,2.59,0,0,0-.2,1.08c0,.72-.06,1.19-.11,2.2a7,7,0,0,1,.84.48.4.4,0,0,1,.2.31.42.42,0,0,1-.12.24c-.41.69-.79,1.37-1.14,2.09v.11c.71-.79,1.19-1.29,2.05-2.13,1.74-1.65,2.95-2.16,4-2.16,1.65,0,2.64,1.1,2.64,2.93,0,.64,0,2-.18,4s-.22,3-.22,3.7c0,1.1.27,1.25.82,1.25a2.89,2.89,0,0,0,1.63-.79,5.69,5.69,0,0,0,1.32-1.85,5.27,5.27,0,0,0,.81,1.65.85.85,0,0,1,.24.51.62.62,0,0,1-.15.37,5.33,5.33,0,0,1-4.23,2.54c-1.89,0-2.81-1.08-2.81-3.37,0-.6.06-1.83.17-3.7s.16-2.66.16-3.61-.24-1.45-.68-1.45c-.64,0-1.39.46-2.47,1.43-.9.88-1.94,1.92-3.08,3.24,0,2.77.09,5.94.09,8.34,0,.19-.09.3-.31.3A14.83,14.83,0,0,1,249,138c-.22,0-.3-.11-.3-.37,0-2,0-4.32.06-6.3-.86,1.35-1.74,2.71-2.55,4-.09.16-.15.23-.24.23a.6.6,0,0,1-.27-.12,6.7,6.7,0,0,1-1.36-1.23.32.32,0,0,1-.13-.24.57.57,0,0,1,.2-.37c1.82-2.34,3-3.9,4.31-5.79,0-.55,0-1,0-1.5a20.94,20.94,0,0,0-2.64.88c-.2.09-.42.31-.64.31a.54.54,0,0,1-.44-.35,12,12,0,0,1-.86-2,11.07,11.07,0,0,0,1.61-.2c.75-.18,2-.49,3.1-.84Z"/><path d="M274.18,123.34c-2.68.51-5,1-7.39,1.45-.84.2-1.06.25-1.39.36a1.31,1.31,0,0,1-.48.17.52.52,0,0,1-.42-.33,15.2,15.2,0,0,1-.81-2.37,32.73,32.73,0,0,0,3.5-.38c2.7-.4,7.54-1.12,13.22-1.87.33,0,.44.09.46.24a12.39,12.39,0,0,1,.24,1.94c0,.26-.13.33-.41.33a9.92,9.92,0,0,0-2.69.48c-3.74,1.28-5.61,3.85-5.61,6.49,0,2.84,2,4.38,5.85,4.62.36,0,.49.09.49.33a8,8,0,0,1-.24,1.9c-.07.33-.16.46-.42.46-3.87,0-8.12-2.22-8.12-6.8,0-3.12,1.56-5.24,4.22-7Z"/><path d="M287.05,122.09c.2.09.36.24.36.39a1.88,1.88,0,0,1-.18.62,9.7,9.7,0,0,0-.2,2.16,27,27,0,0,0,.4,5c.31,1.74.88,3.24,1.8,3.24.71,0,1.26-.77,2.11-3.06a8.63,8.63,0,0,0,1.41,1.69.67.67,0,0,1,.16.82c-.84,2.24-2.2,3.43-3.74,3.43-1.72,0-3.53-2-4.12-5.74a40.16,40.16,0,0,1-.53-6.41,11.78,11.78,0,0,0-.26-2.88A9.47,9.47,0,0,1,287.05,122.09Zm10.21,1.38a.74.74,0,0,1,.24-.08.34.34,0,0,1,.25.13,14.55,14.55,0,0,1,4.31,7.52c.07.29-.07.38-.24.49a7.57,7.57,0,0,1-1.72.88c-.26.08-.42,0-.46-.25a14.79,14.79,0,0,0-4.12-7.67C296.36,124,296.91,123.65,297.26,123.47Z"/><path d="M314.2,122.07c.2-.07.29-.07.33.17a11.68,11.68,0,0,1,.2,1.78c0,.2-.09.25-.26.27-1.19.24-2.27.39-3.63.59a61.12,61.12,0,0,1-4.29,9.44c-.09.15-.16.22-.25.22a.58.58,0,0,1-.26-.11,10.32,10.32,0,0,1-1.52-1.12c-.11-.09-.15-.16-.15-.24a.41.41,0,0,1,.11-.27,44.42,44.42,0,0,0,3.8-7.68c-.83,0-1.52,0-2.2,0-.48,0-.66,0-1.21,0-.22,0-.26-.07-.31-.36a12,12,0,0,1-.22-1.87c.91.07,1.41.09,2.05.09.86,0,1.52,0,2.53-.11a24.24,24.24,0,0,0,.57-2.46,8.07,8.07,0,0,0,.14-1.79,21.42,21.42,0,0,1,2.57.47c.22,0,.35.17.35.33a.51.51,0,0,1-.2.41,2.51,2.51,0,0,0-.35.82c-.15.53-.33,1.21-.53,1.87A26,26,0,0,0,314.2,122.07Zm.62,5.89a7.78,7.78,0,0,0-.18-1.56,11.9,11.9,0,0,1,2.4.42.33.33,0,0,1,.31.35,3.85,3.85,0,0,1-.13.46,2.29,2.29,0,0,0-.09.9,27.94,27.94,0,0,0,.24,3.74,17.63,17.63,0,0,1,4,2c.22.15.24.24.13.46a14.27,14.27,0,0,1-1,1.79c-.06.11-.13.15-.2.15a.35.35,0,0,1-.22-.13,16.41,16.41,0,0,0-2.68-1.85c0,2.2-1.59,3.21-4.09,3.21s-4.05-1.23-4.05-3.12,1.58-3.22,4.07-3.22a11.58,11.58,0,0,1,1.74.14C314.88,130.34,314.84,129,314.82,128Zm-1.56,5.55c-1.1,0-2,.44-2,1.27s.61,1.06,1.87,1.06,1.91-.64,1.91-1.56a2.76,2.76,0,0,0,0-.44A5.5,5.5,0,0,0,313.26,133.51Zm4.09-10.59c.13-.22.24-.24.46-.15a16.83,16.83,0,0,1,4.31,2.07c.14.09.2.15.2.24a.47.47,0,0,1-.09.26,12.56,12.56,0,0,1-.92,1.63c-.07.11-.13.16-.2.16a.37.37,0,0,1-.2-.09,19.06,19.06,0,0,0-4.55-2.4C316.73,124,317.06,123.32,317.35,122.92Z"/><path d="M328.15,122.09c.2.09.35.24.35.39a2.08,2.08,0,0,1-.17.62,9.7,9.7,0,0,0-.2,2.16,27.78,27.78,0,0,0,.39,5c.31,1.74.88,3.24,1.81,3.24.7,0,1.25-.77,2.11-3.06a8.3,8.3,0,0,0,1.41,1.69.69.69,0,0,1,.15.82c-.83,2.24-2.2,3.43-3.74,3.43-1.71,0-3.52-2-4.11-5.74a40.16,40.16,0,0,1-.53-6.41,11.75,11.75,0,0,0-.27-2.88A9.46,9.46,0,0,1,328.15,122.09Zm10.21,1.38a.67.67,0,0,1,.24-.08.32.32,0,0,1,.24.13,14.64,14.64,0,0,1,4.32,7.52c.06.29-.07.38-.25.49a7.72,7.72,0,0,1-1.71.88c-.27.08-.42,0-.47-.25a14.77,14.77,0,0,0-4.11-7.67C337.46,124,338,123.65,338.36,123.47Z"/><path d="M360.29,132.1c1.13,0,2.29,0,3.41,0,.42,0,.49.07.49.38a11.92,11.92,0,0,1,0,1.69c0,.35-.07.44-.38.42-1.25,0-2.61,0-3.91,0H349.51c-1.5,0-2.66.06-3.48.06-.37,0-.44-.06-.48-.42a18.05,18.05,0,0,1-.15-2.13c1.25.09,2.64.11,3.91.11H356l1-7.26h-4.82c-1.06,0-2.18,0-3.12.11-.22,0-.27-.13-.31-.44a16.1,16.1,0,0,1-.2-2.18c1.12.09,2.38.13,3.76.13h3.92a3.38,3.38,0,0,0,1.63-.22,1,1,0,0,1,.35-.13.52.52,0,0,1,.31.13,8.7,8.7,0,0,1,1.73,1.52.55.55,0,0,1,.2.4.6.6,0,0,1-.22.44,2.45,2.45,0,0,0-.59,1.45l-.9,6Z"/><path d="M370.48,129.85a17.3,17.3,0,0,0-3.24.27.48.48,0,0,1-.5-.46,22.16,22.16,0,0,1-.33-2.67,28.15,28.15,0,0,0,4.75.27h7.08c1.68,0,3.37-.05,5.06-.07.34,0,.4,0,.4.31a14.3,14.3,0,0,1,0,2.07c0,.26-.09.35-.4.33-1.65,0-3.27-.05-4.9-.05Z"/><path d="M401.13,124.51c1.07,0,2.31,0,3.32-.07.26,0,.28.11.31.35a12.63,12.63,0,0,1,0,1.74c0,.29-.07.38-.38.35l-3.17,0h-.9a13.15,13.15,0,0,1-1.69,6.78,10.38,10.38,0,0,1-5.2,4.09,1.85,1.85,0,0,1-.61.2c-.13,0-.24-.07-.42-.24a5.1,5.1,0,0,0-1.83-1.32c3.13-1,4.82-2.09,5.94-3.9.86-1.41,1.21-2.92,1.3-5.61h-4.68v.79c0,1.3,0,2.49.06,3.66,0,.24-.13.28-.37.3a11.93,11.93,0,0,1-1.89,0c-.29,0-.42-.06-.4-.3.07-1.15.11-2.23.11-3.61v-.84H390c-1.19,0-3,.07-3.63.11-.18,0-.24-.13-.27-.42-.08-.46-.1-1.23-.15-2.13.92.07,2.36.11,4.05.11h.66v-1.61a15.21,15.21,0,0,0-.26-3.23,21.81,21.81,0,0,1,2.68.35c.24,0,.33.15.33.31a1.72,1.72,0,0,1-.13.46,5.33,5.33,0,0,0-.16,2.11v1.61h4.73l0-2.16a15,15,0,0,0-.2-3,21.87,21.87,0,0,1,2.57.37c.31.07.4.18.4.35a1.12,1.12,0,0,1-.09.4,6.17,6.17,0,0,0-.18,1.94v2.09Zm1.09-5.33a.24.24,0,0,1,.31.09,10.15,10.15,0,0,1,1.7,2.66c.06.16,0,.25-.13.33l-.91.46c-.17.09-.28,0-.37-.13a10.38,10.38,0,0,0-1.78-2.86Zm2.07-.94c.14-.07.2,0,.31.08a9.37,9.37,0,0,1,1.7,2.58.25.25,0,0,1-.14.37l-.88.44c-.19.09-.28,0-.35-.11a10.59,10.59,0,0,0-1.78-2.86Z"/><path d="M412.08,129.85a17.43,17.43,0,0,0-3.24.27c-.26,0-.43-.13-.5-.46A24.44,24.44,0,0,1,408,127a28.15,28.15,0,0,0,4.75.27h7.09c1.67,0,3.36-.05,5.06-.07.33,0,.39,0,.39.31a14.3,14.3,0,0,1,0,2.07c0,.26-.08.35-.39.33-1.65,0-3.28-.05-4.91-.05Z"/><path d="M429.11,127.48c.72-.57,2.31-1.94,3.94-3.41a2.76,2.76,0,0,1,1.91-.93,2.6,2.6,0,0,1,1.91.82c1.65,1.32,2.6,2.2,4.76,3.78a50.59,50.59,0,0,0,5.19,3.24c.22.08.33.26.22.46a9.28,9.28,0,0,1-1.08,2.07c-.11.15-.2.22-.28.22a.58.58,0,0,1-.31-.11c-1.06-.62-3.46-2.38-4.76-3.39-1.58-1.19-3.16-2.6-4.62-3.9a1.4,1.4,0,0,0-1-.5c-.25,0-.47.2-.75.46-1.08,1.08-2.66,2.6-3.7,3.63a5.38,5.38,0,0,0-.79,1,.48.48,0,0,1-.4.26.57.57,0,0,1-.42-.2,20.42,20.42,0,0,1-1.8-2.28A7.88,7.88,0,0,0,429.11,127.48Z"/><path d="M451.83,128.42c-1.95,0-2.64.05-2.77.05s-.24,0-.24-.24v-1.68c0-.22,0-.24.24-.24s.82,0,2.77,0h5.61v-2.73h-3.78a16.63,16.63,0,0,1-1.36,1.8c-.22.27-.36.42-.47.42s-.26-.13-.5-.37a7.49,7.49,0,0,0-1.43-1,14.33,14.33,0,0,0,2.94-4,8.77,8.77,0,0,0,.56-1.57c.68.2,1.4.47,1.93.66.31.11.46.22.46.38s-.11.24-.24.35a1.43,1.43,0,0,0-.37.59c-.11.25-.22.51-.35.75h2.61v-.53a19.08,19.08,0,0,0-.13-2.83c.84,0,1.76.06,2.49.15.22,0,.35.11.35.24a1.29,1.29,0,0,1-.13.44,5.82,5.82,0,0,0-.13,1.65v.88H463c2.11,0,2.86,0,3,0s.22,0,.22.24v1.63c0,.22,0,.24-.22.24s-.88,0-3,0h-3.1v2.73h5.3c2,0,2.64,0,2.77,0s.27,0,.27.24v1.68c0,.22,0,.24-.27.24s-.81-.05-2.77-.05Zm.2,10c-.22,0-.24,0-.24-.24s0-.68,0-3.63v-1.65c0-1.68,0-2.25,0-2.4s0-.24.24-.24.9,0,3,0h7.1c2.14,0,2.89,0,3,0s.24,0,.24.24,0,.72,0,2.07v1.89c0,3,0,3.5,0,3.63s0,.22-.24.22H463.3c-.22,0-.25,0-.25-.22v-.79h-8.88v.88c0,.22,0,.24-.27.24Zm2.14-3.13h8.88v-3h-8.88Z"/><path d="M476.32,128.93a1.27,1.27,0,0,1,0,.29,12,12,0,0,0,4.07,4.77,6,6,0,0,0-1,1.61c-.13.31-.22.44-.33.44s-.24-.11-.46-.33a14.57,14.57,0,0,1-2.88-3.88,13.7,13.7,0,0,1-3.81,5.62c-.2.17-.33.26-.44.26s-.29-.15-.46-.42a4,4,0,0,0-1.19-1.25,10.23,10.23,0,0,0,4.2-6.27c.07-.27.11-.55.16-.84h-1.17c-1.87,0-2.51,0-2.64,0s-.26,0-.26-.26V127.1c0-.19,0-.22.26-.22s.77.05,2.64.05h1.41c.09-1,.11-2.18.13-3.37h-1.3c-.33.6-.68,1.19-1.05,1.74-.18.29-.29.42-.42.42s-.27-.11-.51-.33a4.18,4.18,0,0,0-1.25-.79,13.1,13.1,0,0,0,2.6-4.89,6.39,6.39,0,0,0,.24-1.41,16,16,0,0,1,2,.46c.25.07.38.16.38.31s-.07.22-.2.38a1.72,1.72,0,0,0-.46.81c-.13.42-.29.86-.46,1.3h2.59c1.92,0,2.55,0,2.69,0s.26,0,.26.25v1.6c0,.22,0,.25-.26.25s-.77,0-2.69,0c0,1.15,0,2.27-.13,3.37h.53c1.89,0,2.53-.05,2.66-.05s.24,0,.24.22v1.61c0,.24,0,.26-.24.26s-.77,0-2.66,0Zm4.6,8.67c-.22,0-.24,0-.24-.24s0-1.35,0-6.63v-5.12c0-3.68,0-4.91,0-5.06s0-.22.24-.22.72,0,2.4,0h3.08c1.69,0,2.26,0,2.4,0s.26,0,.26.22,0,1.36,0,4.4v5.67c0,5.18,0,6.36,0,6.5s0,.24-.26.24H487c-.22,0-.24,0-.24-.24V135.8H483v1.56c0,.22,0,.24-.25.24Zm2.05-3.94h3.78V122.48H483Z"/><path d="M497,132.32H494.8l-.62-13.09h3.44Zm.42,2.13v3h-3.12v-3Z"/><path d="M168.44,55.81a.84.84,0,0,0,.42.74,28.93,28.93,0,0,0,8.95,4c.38.12.81.27.81.78s-.7,3.13-1.86,3.13a5.12,5.12,0,0,1-1.35-.39,40.77,40.77,0,0,1-9.26-4.83,1.32,1.32,0,0,0-.77-.31,1.38,1.38,0,0,0-.81.34,28,28,0,0,1-7.32,4.57,6.16,6.16,0,0,1-1.94.58c-1,0-2.13-1.93-2.13-2.59s.62-.7,1.36-1a29.11,29.11,0,0,0,7.28-4.18.86.86,0,0,0,.38-.73,1,1,0,0,0-.23-.66,23.11,23.11,0,0,1-3.64-6.43.41.41,0,0,0-.34-.27c-.2,0-.28.16-.35.27a34.91,34.91,0,0,1-9.14,13.24c-.27.23-.66.62-1,.62-.81,0-2.55-1.62-2.55-2.44,0-.46.46-.85.77-1.12a31.53,31.53,0,0,0,6.82-9.21,33.94,33.94,0,0,0,2.9-9.53v-.23c0-.58-.46-.77-.93-.77h-4.22c-1.51,0-3,.07-4.57.07-.93,0-.89-.46-.89-2s0-1.94.93-1.94c1.51,0,3,.08,4.53.08H155a1,1,0,0,0,1.16-1c.07-.86.15-1.71.15-2.6,0-.46,0-.89,0-1.35,0-.62.31-.78.85-.78.93,0,1.86.08,2.79.16s1.63,0,1.63.54a.86.86,0,0,1-.43.62c-.5.43-.58,1-.62,2.05a13.57,13.57,0,0,0-.07,1.4c0,.69.27,1,1,1h11.73c1.55,0,3.06-.08,4.57-.08,1,0,.89.47.89,1.94s.08,2-.89,2c-1.51,0-3-.07-4.57-.07H160.93a1,1,0,0,0-1.2,1c-.12.74-.24,1.47-.39,2.17v.27c0,.54.39.74.89.74h8.13c1,0,1.94,0,2.86,0a2.58,2.58,0,0,1,2.37,1,1.81,1.81,0,0,1,.62,1.16,8.56,8.56,0,0,1-.82,2.2,38.62,38.62,0,0,1-4.68,7.24A1.2,1.2,0,0,0,168.44,55.81ZM165.3,53a.93.93,0,0,0,.66-.34c.62-.78,2.86-3.76,2.86-4.65,0-.54-.34-.62-1-.62h-5.31c-.38,0-.77.16-.77.62a.71.71,0,0,0,.08.31,19.49,19.49,0,0,0,2.74,4.34A1,1,0,0,0,165.3,53Z"/><path d="M199.29,30.92c.35.12,1.44.39,1.44.81,0,.2-.24.31-.35.39-.58.35-.62.5-.89,1.35-.12.43-.93,3.26-.93,3.45a.57.57,0,0,0,.58.58,27.33,27.33,0,0,0,4.49-1.43,2,2,0,0,1,.81-.2c.78,0,.78,2.37.78,3s-.08,1.2-.74,1.39a58.66,58.66,0,0,1-6.35,1.51c-1.12.23-1.24.43-1.59,1.51a119.42,119.42,0,0,1-7.2,17.07c-.5.93-.81,1.47-1.39,1.47s-3.29-1.24-3.29-2.09a2.91,2.91,0,0,1,.66-1.28c2.44-3.48,5.34-10.22,6.85-14.32a5.5,5.5,0,0,0,.31-1c0-.38-.31-.58-.7-.58-.54,0-2.24.2-3.44.2-.78,0-1.4,0-1.63-.7a17,17,0,0,1-.31-2.83c0-.42.12-.69.58-.69s2,.15,3.64.15c2.48,0,3.06,0,3.41-.62a35.81,35.81,0,0,0,1.43-7c0-.58,0-1,.43-1S198.79,30.76,199.29,30.92Zm-.54,25c1.7,1.89,4.65,2.24,7,2.24a17.55,17.55,0,0,0,5.5-.77,1.29,1.29,0,0,1,.38-.08c.66,0,.66.89.66,2.44,0,.77,0,1.67-.43,1.94a36.87,36.87,0,0,1-6,.5c-2.56,0-6.12-.31-8.29-1.74-.62-.43-1.9-1.4-1.9-2.21,0-.58,1.78-2.86,2.4-2.86C198.33,55.35,198.6,55.69,198.75,55.89Zm4.72-12.51a27.66,27.66,0,0,1,7.79,1.09.73.73,0,0,1,.54.77,9.76,9.76,0,0,1-.74,2.71.67.67,0,0,1-.7.51,3,3,0,0,1-.81-.2,16.6,16.6,0,0,0-6.15-1c-.51,0-1,0-1.47,0-.78,0-1-.19-1-.85C201,43.15,201.65,43.38,203.47,43.38Zm7.94-6.46c0,.58-1.43,1.7-1.9,1.7-.23,0-.38-.23-.54-.42a33,33,0,0,0-2.67-3.1c-.12-.12-.35-.35-.35-.54,0-.51,1.55-1.55,1.9-1.55S211.41,36.45,211.41,36.92Zm4-2.48c0,.58-1.44,1.74-1.9,1.74-.23,0-.43-.27-.58-.46a33.46,33.46,0,0,0-2.67-3.1.83.83,0,0,1-.31-.5c0-.47,1.43-1.59,1.89-1.59S215.44,34,215.44,34.44Z"/><path d="M235,33.09a.74.74,0,0,1-.35.58,2.5,2.5,0,0,0-.81,1.58c-.08.24-.12.47-.23.78a4.3,4.3,0,0,0-.24,1,.6.6,0,0,0,.66.58,40.92,40.92,0,0,0,7.47-1.71,3.38,3.38,0,0,1,1.05-.27c.5,0,.58.55.73,1.09a12,12,0,0,1,.35,2.4c0,.62-.42.73-1.39.93-2.09.38-6.66,1.08-8.83,1.31-1.28.16-1.31.43-1.78,2.25-.11.54-.31,1.24-.54,2.09a2.1,2.1,0,0,0-.12.7c0,.23.12.34.39.34a.8.8,0,0,0,.43-.15,12.42,12.42,0,0,1,6.77-2.09c4.76,0,7.86,3.25,7.86,8s-3.33,7.86-7.82,9.06a35.34,35.34,0,0,1-8.09,1.08c-1.28,0-1.47-.19-1.7-1a11.61,11.61,0,0,1-.51-2.56.77.77,0,0,1,.81-.81c.51,0,1.67.27,3.14.27,4,0,10.18-1.16,10.18-6.27a3.78,3.78,0,0,0-3.83-4,12.74,12.74,0,0,0-9.37,4.84c-.27.35-.62.85-1.08.85-.89,0-3.1-1.08-3.1-2.16a5.58,5.58,0,0,1,.54-1.71,38.65,38.65,0,0,0,2.13-6.42,4.19,4.19,0,0,0,.2-1,.56.56,0,0,0-.62-.58c-.24,0-.59,0-.82,0-.89,0-3.91.38-4.68.38a.91.91,0,0,1-1-.77,11.9,11.9,0,0,1-.42-2.56c0-1,.62-1,.81-1,.54,0,2.82.15,4.37.15,2.75,0,3.18-.11,3.53-.93a37.54,37.54,0,0,0,.81-4.91c.08-.55,0-1.4.66-1.4C230.88,31.11,235,32.24,235,33.09Z"/><path d="M271.19,32.2c0,.23-.28.38-.47.46-.62.23-.77.43-1.28,1.32a2.69,2.69,0,0,0-.38.89.37.37,0,0,0,.42.38A27.87,27.87,0,0,0,274,34.17a2.86,2.86,0,0,1,1-.23c.66,0,.85.62,1,1.16a13,13,0,0,1,.31,2.09c0,.66-1.24.81-2.05,1-2.44.5-4.88.93-7.32,1.2a1.36,1.36,0,0,0-1.16.62,12.68,12.68,0,0,0-1.32,2.24.3.3,0,0,0,.31.27,1.45,1.45,0,0,0,.7-.23,10.74,10.74,0,0,1,4.22-1c2.48,0,3.91,1,4.41,3.48.08.35.2.66.58.66a34,34,0,0,0,4.53-2.21,3.12,3.12,0,0,1,1-.39c.73,0,1.66,3,1.66,3.64,0,.47-.42.62-1.16.85-.15.08-.35.12-.54.2-1.55.58-3.06,1.24-4.57,1.89-.7.28-1,.51-1,1.28v.51c0,1.2,0,2.36,0,3.56,0,1.39-.19,1.55-1.66,1.55-1.67,0-2.36-.08-2.36-1.09,0-.85.08-1.7.08-2.51,0-.35-.12-.66-.51-.66-.19,0-4.18,1.7-4.18,4.1,0,2.59,3.76,2.83,5.61,2.83a28.2,28.2,0,0,0,7.2-1,4.79,4.79,0,0,1,.78-.08c.5,0,.77.43.77,2.63,0,1.16,0,1.47-.89,1.67a51.12,51.12,0,0,1-7.43.5,14.23,14.23,0,0,1-6.12-1A5.87,5.87,0,0,1,262,56.16c0-3.48,2.83-5.38,5.5-7,.77-.46,1.59-.89,2.4-1.28.39-.19.7-.42.7-.89a5.13,5.13,0,0,0-.2-1.08,1.61,1.61,0,0,0-1.7-1.32c-2.17,0-5.73,1.86-7.24,3.41a25.39,25.39,0,0,0-3.25,4.53.66.66,0,0,1-.54.39c-.7,0-3.29-1.55-3.29-2.25,0-.31.31-.62.5-.85.89-1,6.5-8.75,6.5-9.49,0-.34-.31-.46-.85-.46S259,40,257.79,40c-.85,0-1-.2-1-2.17,0-1.55.15-1.78,1.12-1.78.66,0,1.66.08,2.79.08h1.12c1,0,2.05,0,2.4-.51a21.11,21.11,0,0,0,2.09-5c.08-.43.15-.81.54-.81S271.19,31.62,271.19,32.2Z"/><path d="M292.05,44c0-.73-.27-1-1-1.08-.54,0-1.71.08-2.09.08-.85,0-.82-.54-.82-1.9s0-1.94.82-1.94c.66,0,1.43.08,2.09.08s1-.35,1-1V33.63c0-.93,0-2-.07-2.48,0-.11,0-.31,0-.42,0-.43.27-.51.66-.51s2.86.2,3.52.23c.27,0,.77.08.77.47s-.23.39-.58.62-.42.58-.42,2V38.2c0,.69.27,1,1,1s1.47-.08,2.09-.08c.86,0,.82.55.82,1.94s0,1.94-.82,1.9l-2.05-.08c-.77.08-1,.35-1,1.08v8.06c0,.42.19.81.65.81a.67.67,0,0,0,.31-.08c.39-.15,2.37-.93,2.6-.93.77,0,.89,1.36.89,1.94,0,1-.16,1.55-.85,1.89-1.32.66-6.89,2.68-8.52,3.22-.89.27-.85.35-1.08.77a.52.52,0,0,1-.51.35c-.5,0-.66-.5-1-1.55-.16-.35-.31-.81-.51-1.31a4.61,4.61,0,0,1-.31-1.17c0-.42.12-.42,1.71-.85.46-.11,1.08-.27,1.89-.5a1.18,1.18,0,0,0,.89-1.36Zm19.48-8.78a1.56,1.56,0,0,0,1.58-.78,36.62,36.62,0,0,0,2.33-4.06c.19-.51.27-.62.54-.62a21.6,21.6,0,0,1,2.2.73c1.36.55,1.79.7,1.79,1.09s-.31.35-.7.42-.43.12-.66.39c-.39.7-.81,1.32-1.24,2a.62.62,0,0,0-.11.35c0,.35.31.47.58.47h1.39c1.16,0,2,.23,2,1.58,0,.74-.08,1.44-.08,2.25v5.23c0,.73.08,1.51.08,2.24,0,1.32-.89,1.59-2,1.59S317.06,48,316,48H306c-1.08,0-2.17.08-3.25.08s-2-.23-2-1.59c0-.73,0-1.51,0-2.24V39c0-.77,0-1.51,0-2.28,0-1.32.89-1.55,2-1.55h1.47c.35,0,.62-.16.62-.54a.84.84,0,0,0-.08-.31,22.57,22.57,0,0,0-1.62-2.56,1.27,1.27,0,0,1-.31-.66c0-.58,2.2-1.31,3-1.31.42,0,.77.31,1.86,2.2a7,7,0,0,1,1,2.09c0,.47-.77.74-1.12.89-.12,0-.12.08-.12.12s0,.12.16.12Zm3.29,27.37H307a.64.64,0,0,0-.74.69.75.75,0,0,1,0,.31c0,.85-.5.81-2,.81s-1.94,0-1.94-.81,0-1.66,0-2.48V53.64c0-.77,0-1.55,0-2.32,0-1.08.62-1.39,1.59-1.39s1.74,0,2.63,0h8.56c.89,0,1.78,0,2.63,0s1.59.31,1.59,1.39c0,.77,0,1.55,0,2.32v7.51c0,.82,0,1.63,0,2.48s-.43.85-1.94.85c-1.2,0-2,0-2-.73,0-.16,0-.31,0-.47C315.47,62.78,315.28,62.59,314.82,62.59Zm-9.29-24.51a.89.89,0,0,0-.93.93v.31a.89.89,0,0,0,.93.93h2.74a.87.87,0,0,0,.93-.93V39a.87.87,0,0,0-.93-.93Zm3.67,5.81a.87.87,0,0,0-.93-.93h-2.74a.89.89,0,0,0-.93.93v.31a.89.89,0,0,0,.93.93h2.74a.87.87,0,0,0,.93-.93Zm5.42,11a.87.87,0,0,0,.93-.93v-.12a.88.88,0,0,0-.93-.92h-7.47a.89.89,0,0,0-.93.92V54a.88.88,0,0,0,.93.93Zm-8.4,3.79a.89.89,0,0,0,.93.93h7.47a.89.89,0,0,0,.93-.93v-.19a.87.87,0,0,0-.93-.93h-7.47a.88.88,0,0,0-.93.93Zm6.58-19.39a.9.9,0,0,0,.93.93h2.75a.9.9,0,0,0,.93-.93V39a.9.9,0,0,0-.93-.93h-2.75a.9.9,0,0,0-.93.93Zm3.68,5.81a.9.9,0,0,0,.93-.93v-.31a.9.9,0,0,0-.93-.93h-2.75a.9.9,0,0,0-.93.93v.31a.9.9,0,0,0,.93.93Z"/><path d="M327.67,48.8c0-.42.39-.58.82-.81.85-.42,2.71-1.74,3.63-2.36.43-.27,1-.62,1-1.2,0-.85-2.28-4.41-2.9-5.23a1.15,1.15,0,0,1-.39-.73c0-.35.7-.58,1.86-1l1.47-.54a5.8,5.8,0,0,1,1.28-.39c.27,0,.46.12.46.39a1.94,1.94,0,0,1-.07.42.75.75,0,0,0-.08.32,23.49,23.49,0,0,0,1.55,3.83c.23.42.42.73.93.73a2,2,0,0,0,.93-.35c3.63-2.16,7.58-4.25,11.92-4.25s7.43,2.32,7.43,6.77c0,5.23-4.68,7.7-9.14,8.83a11.25,11.25,0,0,1-1.5.27c-1,0-2.06-2.63-2.06-3.18s.74-.69,1.24-.77c2.67-.47,7.32-1.7,7.32-5.07,0-2.09-1.59-3.1-3.56-3.1-3.14,0-7.44,2.44-10.14,4.07-.39.23-.78.5-.78,1,0,1.05,5.85,10.57,6.81,12.08a5.12,5.12,0,0,1,.86,1.67c0,.73-2.68,2.09-3.41,2.09-.54,0-.81-.66-1.2-1.44-2-3.79-4.07-7.47-6-11.3-.2-.35-.47-.74-.93-.74s-3.56,2.48-4.14,3c-.2.12-.55.43-.74.43C329.38,52.21,327.67,49.58,327.67,48.8Zm16.07-14.59c.77.31,2.28.85,2.28,1.47,0,.39-.77,2.87-1.78,2.87a5.09,5.09,0,0,1-1.62-.55,30.94,30.94,0,0,0-4.11-1.39c-.42-.12-.93-.19-.93-.74s.89-3.13,1.75-3.13A33,33,0,0,1,343.74,34.21Z"/><path d="M374.25,33.55c.27,0,.77.19.77.54s-.23.39-.47.58c-1.35,1-1.7,13.28-1.7,15.49,0,3-.08,7.7,4.1,7.7a9.79,9.79,0,0,0,7.28-3.75,12.31,12.31,0,0,0,2.36-5.73c.12-.62.2-1.28.78-1.28.85,0,3.21,2,3.21,3.14A14.27,14.27,0,0,1,389,54.77a13.55,13.55,0,0,1-11.76,7.39,8.57,8.57,0,0,1-6.82-3c-1.74-2.32-1.93-6.08-1.93-8.91,0-3.05.11-6.11.35-9.17.11-1.78.46-5.5.46-7.08v-.43c0-.58,0-1,.58-1A33.42,33.42,0,0,1,374.25,33.55Z"/><path d="M411.68,30.92c.35.12,1.43.39,1.43.81,0,.2-.23.31-.35.39-.58.35-.61.5-.88,1.35-.12.43-.93,3.26-.93,3.45a.57.57,0,0,0,.58.58A27.64,27.64,0,0,0,416,36.07a2,2,0,0,1,.81-.2c.77,0,.77,2.37.77,3s-.07,1.2-.73,1.39a59.23,59.23,0,0,1-6.35,1.51c-1.12.23-1.24.43-1.59,1.51a119.42,119.42,0,0,1-7.2,17.07c-.5.93-.81,1.47-1.39,1.47s-3.29-1.24-3.29-2.09a2.81,2.81,0,0,1,.66-1.28c2.44-3.48,5.34-10.22,6.85-14.32a5.5,5.5,0,0,0,.31-1c0-.38-.31-.58-.7-.58-.54,0-2.24.2-3.44.2-.78,0-1.4,0-1.63-.7a17,17,0,0,1-.31-2.83c0-.42.12-.69.58-.69s2,.15,3.64.15c2.48,0,3.06,0,3.41-.62a35.81,35.81,0,0,0,1.43-7c0-.58,0-1,.42-1S411.18,30.76,411.68,30.92Zm-.54,25c1.7,1.89,4.64,2.24,7,2.24a17.44,17.44,0,0,0,5.49-.77,1.36,1.36,0,0,1,.39-.08c.66,0,.66.89.66,2.44,0,.77,0,1.67-.43,1.94a36.9,36.9,0,0,1-6,.5c-2.55,0-6.11-.31-8.28-1.74-.62-.43-1.9-1.4-1.9-2.21,0-.58,1.78-2.86,2.4-2.86C410.71,55.35,411,55.69,411.14,55.89Zm4.72-12.51a27.59,27.59,0,0,1,7.78,1.09.72.72,0,0,1,.54.77,9.73,9.73,0,0,1-.73,2.71.67.67,0,0,1-.7.51,2,2,0,0,1-.81-.2,17.51,17.51,0,0,0-6.16-1c-.5,0-1,0-1.47,0-.77,0-1-.19-1-.85C413.35,43.15,414,43.38,415.86,43.38Z"/><path d="M438.9,37.58c.31.08.85.15.85.54,0,.23-.16.31-.39.5a2.8,2.8,0,0,0-.69,1.86,28,28,0,0,0-.32,4.1,22.29,22.29,0,0,0,1.24,8.1c.47,1.08,1.75,3.36,3.1,3.36,1.08,0,2.21-1.7,2.67-2.55.23-.39.54-1,1.05-1,.81,0,2.78,1.59,2.78,2.28s-1.74,2.75-2.28,3.37c-1.12,1.28-2.32,2.44-4.14,2.44-2.87,0-5.11-2.59-6.39-5-1.93-3.64-2.24-8.52-2.24-12.62,0-.62.11-5.54.19-5.89a.48.48,0,0,1,.54-.42C435.37,36.73,438.24,37.46,438.9,37.58Zm15.75-.78c.85,0,4.11,2.44,6,6a21.06,21.06,0,0,1,2.29,8.06c0,.73-.39.92-1,1.12a8.34,8.34,0,0,1-2.17.35c-1.23,0-1.19-.55-1.27-1.47-.47-4.53-2.05-8.21-5.73-11a.64.64,0,0,1-.35-.58C452.33,38.51,453.88,36.8,454.65,36.8Z"/><path d="M474.9,59.18a2.85,2.85,0,0,1-3,3,2.51,2.51,0,0,1-2.67-2.56,2.89,2.89,0,0,1,3-3.09A2.59,2.59,0,0,1,474.9,59.18Zm-3.48-5.69c-1,0-1.16-.2-1.2-1.16l-.27-9.8c-.08-2.32-.35-7.51-.35-8.28s.23-.81,1.08-.81h2.71c.85,0,1.08.15,1.08.81s-.27,6-.34,8.51l-.24,9.57c0,1-.23,1.16-1.2,1.16Z"/><path d="M125.67,67.17l-10.08-44-6.3,16.17Z"/><path d="M495.14,67.17l10.08-44,6.3,16.17Z"/><polyline class="cls-2" points="620.48 418.73 620.48 423.62 615.59 423.62"/><line class="cls-3" x1="600.52" y1="423.62" x2="14.39" y2="423.62"/><polyline class="cls-2" points="6.85 423.62 1.96 423.62 1.96 418.73"/><line class="cls-4" x1="1.96" y1="403.61" x2="1.96" y2="14.41"/><polyline class="cls-2" points="1.96 6.85 1.96 1.96 6.85 1.96"/><line class="cls-3" x1="21.92" y1="1.96" x2="608.05" y2="1.96"/><polyline class="cls-2" points="615.59 1.96 620.48 1.96 620.48 6.85"/><line class="cls-4" x1="620.48" y1="21.96" x2="620.48" y2="411.17"/><path class="cls-5" d="M359.46,329c0,4.2-4.77,7.74-10.41,7.74s-10.41-3.54-10.41-7.74v-6.27a2.45,2.45,0,0,0,0-.27l-4.54-33.12h16.36l9,33.65Z"/><path class="cls-6" d="M330.11,289.35l4.59,33.52V329c0,4.2-4.77,7.74-10.41,7.74s-10.42-3.54-10.42-7.74v-6.27h0l-.19-33.38Z"/><path class="cls-5" d="M289.11,322.86l4.19-33.51h16.44l.2,33.4V329c0,4.2-4.77,7.74-10.42,7.74s-10.41-3.54-10.41-7.74Z"/><path class="cls-6" d="M289.18,290.59l-4,31.9a2.09,2.09,0,0,0,0,.25V329c0,4.2-4.77,7.74-10.42,7.74s-10.41-3.54-10.41-7.74v-6L273,289.35h16.37Z"/><path class="cls-5" d="M239.59,323.11l13.06-33.76H268.9l-8.43,32.9a2,2,0,0,0-.06.49V329c0,4.2-4.76,7.74-10.41,7.74s-10.41-3.54-10.41-7.74Z"/><polygon points="256.38 402.14 256.38 397.81 258.88 397.81 286.3 397.81 288.79 397.81 288.79 402.14 256.38 402.14"/><path class="cls-7" d="M284.33,393.87H260.85V365.58a11.43,11.43,0,0,1,11.42-11.42h.63a11.44,11.44,0,0,1,11.43,11.42Z"/><path class="cls-8" d="M325.94,397.6a10.27,10.27,0,0,1,18.73-5.83,2,2,0,0,0,.21.53,10,10,0,0,1,.38,9.84H327A10.23,10.23,0,0,1,325.94,397.6Z"/><path class="cls-8" d="M349.64,402.14a13.89,13.89,0,0,0-.7-10.83,10.17,10.17,0,0,1,8.1-4,10.27,10.27,0,0,1,9.21,14.82Z"/><path class="cls-9" d="M378.13,402.14h-7.66a14,14,0,0,0,.78-4.54A14.22,14.22,0,0,0,357,383.39a14,14,0,0,0-10.4,4.58A14.2,14.2,0,0,0,322,397.6a14,14,0,0,0,.79,4.54H292.73v-6.3a2,2,0,0,0-2-2h-2.49V365.58a15.39,15.39,0,0,0-15.37-15.36h-.63a15.38,15.38,0,0,0-15.36,15.36v28.29h-2.5a2,2,0,0,0-2,2v6.3h-7.22V340a17.31,17.31,0,0,0,4.78.68c5.28,0,9.89-2.34,12.38-5.81,2.49,3.47,7.1,5.81,12.38,5.81s9.89-2.34,12.38-5.81a16.11,16.11,0,0,0,24.77,0c2.49,3.47,7.1,5.81,12.38,5.81s9.89-2.34,12.38-5.81c2.49,3.47,7.1,5.81,12.38,5.81s9.89-2.34,12.38-5.81c2.49,3.47,7.1,5.81,12.38,5.81a17.45,17.45,0,0,0,4.32-.54Z"/><path class="cls-6" d="M384.22,329c0,4.2-4.76,7.74-10.41,7.74S363.4,333.21,363.4,329v-6.27a2.16,2.16,0,0,0-.07-.51l-8.81-32.88h16.23l13.47,33.77Z"/><path class="cls-5" d="M396.12,388.77c-4.39,0-6.91-4.84-6.91-13.27,0-11.82,4.31-22.19,6.91-22.19s6.9,10.37,6.9,22.19C403,383.93,400.51,388.77,396.12,388.77Z"/><path class="cls-5" d="M413.86,388.77c-4.38,0-6.9-4.84-6.9-13.27,0-11.82,4.3-22.19,6.9-22.19s6.91,10.37,6.91,22.19C420.77,383.93,418.25,388.77,413.86,388.77Z"/><polyline class="cls-10" points="380.09 337.71 380.09 404.11 243.25 404.11 243.25 337.71"/><path class="cls-11" d="M272.27,352.19h.63a13.39,13.39,0,0,1,13.39,13.39v30.26a0,0,0,0,1,0,0H258.88a0,0,0,0,1,0,0V365.58a13.39,13.39,0,0,1,13.39-13.39Z"/><rect class="cls-12" x="254.41" y="395.84" width="36.35" height="8.27"/><line class="cls-10" x1="265.8" y1="373.48" x2="265.8" y2="379.61"/><rect class="cls-13" x="348.84" y="352.19" width="20.09" height="22.95"/><rect class="cls-13" x="325.4" y="352.19" width="20.09" height="22.95"/><rect class="cls-13" x="301.96" y="352.19" width="20.09" height="22.95"/><path class="cls-10" d="M346.57,404.11a12.25,12.25,0,1,0-20.71,0Z"/><path class="cls-10" d="M348.34,397.6a12.23,12.23,0,0,0-1.77-6.32,12.23,12.23,0,1,1,20.83,12.83H346.69a2.39,2.39,0,0,1-.12-.22A12.15,12.15,0,0,0,348.34,397.6Z"/><path class="cls-12" d="M262.38,322.74V329c0,5.34-5.57,9.71-12.38,9.71h0c-6.81,0-12.38-4.37-12.38-9.71v-6.27h0l13.69-35.36h20.13l-9.06,35.36Z"/><path class="cls-14" d="M262.38,322.74l9.06-35.36h20.13l-4.43,35.36h0V329c0,5.34-5.57,9.71-12.38,9.71h0c-6.81,0-12.38-4.37-12.38-9.71v-6.27Z"/><path class="cls-12" d="M287.14,322.74l4.43-35.36H311.7l.21,35.36h0V329c0,5.34-5.58,9.71-12.39,9.71h0c-6.8,0-12.38-4.37-12.38-9.71v-6.27Z"/><path class="cls-14" d="M311.91,322.74l-.21-35.36h20.13l4.84,35.36h0V329c0,5.34-5.57,9.71-12.38,9.71h0c-6.81,0-12.38-4.37-12.38-9.71v-6.27Z"/><path class="cls-12" d="M336.67,322.74l-4.84-35.36H352l9.47,35.36h0V329c0,5.34-5.57,9.71-12.38,9.71h0c-6.81,0-12.38-4.37-12.38-9.71v-6.27Z"/><path class="cls-14" d="M361.43,322.74,352,287.38h20.12l14.11,35.36V329c0,5.34-5.57,9.71-12.38,9.71h0c-6.81,0-12.38-4.37-12.38-9.71v-6.27Z"/><path class="cls-14" d="M422.74,375.5c0,10.88-4,15.24-8.88,15.24S405,386.38,405,375.5s4-24.16,8.87-24.16S422.74,364.62,422.74,375.5Z"/><line class="cls-10" x1="413.86" y1="404.11" x2="413.86" y2="390.74"/><path class="cls-14" d="M405,375.5c0,10.88-4,15.24-8.87,15.24s-8.87-4.36-8.87-15.24,4-24.16,8.87-24.16S405,364.62,405,375.5Z"/><line class="cls-10" x1="396.12" y1="404.11" x2="396.12" y2="390.74"/><rect class="cls-10" x="260.48" y="248.31" width="102.42" height="38.57"/><path d="M287.92,273.51c0,4.37-3.14,7-8.63,7a16.2,16.2,0,0,1-7.17-1.69c-.44-.25-.62-.4-.62-.68a1.72,1.72,0,0,1,.18-.62l1.39-3c.19-.4.31-.61.49-.61a1.34,1.34,0,0,1,.62.31,9.82,9.82,0,0,0,5.45,1.72c1.85,0,3-.71,3-1.88,0-1.35-1.88-2.15-4.4-3.11-2.9-1.11-6.26-2.8-6.26-6.78,0-4.34,3.42-6.8,8.69-6.8a15,15,0,0,1,6.13,1.32c.43.22.65.37.65.65a1.65,1.65,0,0,1-.16.58L286,263.16c-.18.43-.31.64-.52.64a1.2,1.2,0,0,1-.59-.27,9.8,9.8,0,0,0-4.74-1.33c-2.13,0-2.9.8-2.9,1.73,0,1.14,1.63,1.88,3.54,2.62C284.1,267.84,287.92,269.44,287.92,273.51Z"/><path d="M295.59,274.09c0,1.64.09,5.18.09,5.4,0,.64-.19.77-.89.77h-3.64c-.71,0-.89-.13-.89-.77,0-.22.09-3.76.09-5.4V263.71c0-1.63-.09-5.17-.09-5.39,0-.65.18-.77.89-.77h3.64c.7,0,.89.12.89.77,0,.22-.09,3.76-.09,5.39v1.17c0,.77.15.93.92.93h7.4c.77,0,.92-.16.92-.93v-1.17c0-1.63-.09-5.17-.09-5.39,0-.65.18-.77.89-.77h3.64c.7,0,.89.12.89.77,0,.22-.09,3.76-.09,5.39v10.38c0,1.64.09,5.18.09,5.4,0,.64-.19.77-.89.77h-3.64c-.71,0-.89-.13-.89-.77,0-.22.09-3.76.09-5.4v-2.55c0-.77-.15-.93-.92-.93h-7.4c-.77,0-.92.16-.92.93Z"/><path d="M335.29,268.7c0,7.52-5.33,11.74-11.61,11.74-7.55,0-11.06-6.07-11.06-11.43,0-7.33,5.05-11.64,11.58-11.64C331.84,257.37,335.29,263.37,335.29,268.7ZM318,269c0,3.14,1.66,6.5,5.91,6.5,3.42,0,6-2.46,6-6.5,0-3.05-1.69-6.5-5.91-6.5C320.41,262.54,318,265.16,318,269Z"/><path d="M338.64,280.26c-.7,0-.89-.13-.89-.77,0-.22.09-3.76.09-5.4V263.62c0-1.63-.09-5.05-.09-5.27,0-.65.22-.86.86-.86.22,0,2.93.06,4.35.06h4c4.72,0,7.61,2.34,7.61,7,0,5-2.92,8.41-9,8.41h-1.7c-.77,0-.92.16-.92.93,0,1.88.09,5.39.09,5.61,0,.64-.18.77-.89.77Zm4.35-12.6c0,.77.15.92.92.92h1.67c2.34,0,3.75-1.2,3.75-3.54,0-1.85-.95-2.9-3.23-2.9h-2.19c-.77,0-.92.16-.92.93Z"/><line class="cls-15" x1="241.23" y1="278.41" x2="205.75" y2="242.92"/><line class="cls-15" x1="386.23" y1="277.41" x2="423.21" y2="231.46"/><circle class="cls-13" cx="438.7" cy="208.37" r="47"/><g class="cls-16"><g id="黒髪_セーター" data-name="黒髪×セーター"><path id="白" class="cls-9" d="M436.09,183.9c-2,5.11-14.39,13.36-18.4,15.54l.22,3.76c-4.9-3.31-8.59,4.87-4.32,8,2.34,1.41,5.15,1.36,6.14,4,1.43,4.49,4.27,7,7.06,10l-.84,2.93c-2.19-1.41-1.45.69-3.25,2.53-1.46,1.48-.85,1.54-2.52,2.32s-8.61,5.06-11.61,7-3.45,1.71-4.92,3.67c-5.12,7.74-4.4,24.14-7.75,32.43h85.38c0-5.39-3.57-21.88-6.08-29-1.64-4.71-.48-3.69-3.49-5.64s-9.49-5.66-12.09-7-3.72-1-4.27-2.56a45.22,45.22,0,0,0-2-4.44L450.79,229l-.42-3.88c7.11-4,5.45-10.12,8.81-12.13.68-.2,3.65-.54,4.68-2,1.87-1.91,2.18-5.92.34-7.51-.92-.68-5.57,0-5.57,0l.07-3.34s-4.58-6.7-5-7.62-3.55-8.4-3.55-8.4l-2.12.07c-1.35,2-9.57,7.52-11.48,7.75.4-.67,3.88-6.56,1.54-8Z"/><path id="セーター" class="cls-17" d="M474.19,255.63c-1.31-12.71-9.47-14.76-20.08-20.41-4.05,5.76-12.19,9.07-19,6.55-10.1-1.15-10.31-13-18.45-6.42-20.4,6.91-15.49,25.11-20.38,40.78h82S475,258.84,474.19,255.63Z"/><g id="アウトライン"><path d="M482.19,274.81a50.63,50.63,0,0,1-1.77-7.49c-1.08-5.27-1.29-10.68-2.71-15.88-1-3.57-2-7.15-4.71-10-1.56-1.61-3.62-2.25-5.36-3.46-3.47-2.39-7.34-4-11-6a1.36,1.36,0,0,0-.35-1,9.76,9.76,0,0,1-1.43-2.56c-.77-2-.78-2.38-2.94-1.14a23.1,23.1,0,0,1-.33-3.11,9.74,9.74,0,0,1-2,1.42,15.65,15.65,0,0,0,.41,3.06,34.44,34.44,0,0,1-5.74,3c-1.26.53-2.53,1-3.78,1.57-.85.36-1.64,1.63-1.27,2.08q2,2.4,4.07,4.72a.83.83,0,0,0,1.23.08.89.89,0,0,0,.14-1.23,7.4,7.4,0,0,0-.7-.89L441.19,235a44.42,44.42,0,0,0,11.6-6.24c.32.73.54,1.33.84,1.89l.27.5a1,1,0,0,0-.32.39.67.67,0,0,0,.19.77,6.93,6.93,0,0,0,.84.7,69,69,0,0,0,7.84,4.37c2,1.07,3.7,2.64,5.81,3.51a9.78,9.78,0,0,1,5.32,5.4,35,35,0,0,1,2.74,9.4c.69,5.58,1.68,11.1,2.66,16.63a15.1,15.1,0,0,0,1.23,3.63,1.08,1.08,0,0,0,1.3.65,1.14,1.14,0,0,0,.83-1.26C482.3,275.2,482.26,275,482.19,274.81Z"/><path d="M423.67,231.64a15.64,15.64,0,0,0,.93-1.88c.13-.29.13-.67.54-.89a33.18,33.18,0,0,0,5.42,3.45c1.92,1,3.91,1.78,6,2.73-1.06,1.2-2,2.29-3,3.4-.44.51-.86,1.11-.23,1.69s1.19.09,1.63-.42c1.18-1.37,2.35-2.76,3.53-4.13a.75.75,0,0,0,.11-1,3.4,3.4,0,0,0-1.93-1.6,50.49,50.49,0,0,1-8.5-4,9.38,9.38,0,0,1-.83-.57,18.92,18.92,0,0,0,.32-2.77,9,9,0,0,1-2-1.54c-.07,1-.17,2-.32,3l-.11-.05c-1.19-.54-1.44-.48-1.95.76a15.72,15.72,0,0,1-1.81,3.38,1.44,1.44,0,0,0-.29.58c-.88.47-1.76.94-2.65,1.36-3.63,1.7-7,3.92-10.54,5.74a13.46,13.46,0,0,0-6.52,6.73,35.13,35.13,0,0,0-2.74,9.15c-.74,5.57-1.69,11.1-2.68,16.62-.22,1.23-.73,2.81-1.05,4a1.08,1.08,0,0,0,.74,1.11c.54.19,1.08-.41,1.35-.86a3.28,3.28,0,0,0,.52-1c1.16-3.89,1.64-8.32,2.3-12.3.85-5.09,1.33-10.25,3.32-15.11a10.17,10.17,0,0,1,4.26-5.42c2.38-1.3,4.61-2.83,7-4.16,2.82-1.58,5.83-2.83,8.44-4.79C423.34,232.47,423.85,232.16,423.67,231.64Z"/><path d="M470.77,254.92c0-1.29,0-2.59-.08-3.88,0-.4-.14-.83-.68-.84s-.64.34-.72.71a13.53,13.53,0,0,0-.28,1.67c-.59,7.44-.75,14.91-1.19,22.36-.05.85.05,1.76,1.13,1.79s1.23-.85,1.26-1.72q.32-8.7.62-17.42h-.06C470.77,256.7,470.78,255.81,470.77,254.92Z"/><path d="M408.75,261.32a95.64,95.64,0,0,0-.72-10c-.09-.52-.19-1.15-.89-1.08s-.61.68-.61,1.15q0,3.27,0,6.54h-.09q.3,8.52.61,17.06c0,.91.16,1.84,1.32,1.74s1.11-1,1.07-1.86C409.21,270.34,409,265.83,408.75,261.32Z"/><path d="M454.84,233.77a.76.76,0,0,0-1,.19c-.38.37-.73.77-1.09,1.15a23,23,0,0,1-11.86,6.74,9.69,9.69,0,0,1-4.51-.12,23.52,23.52,0,0,1-11.68-7.06c-.46-.48-.95-1.47-1.7-.84s.11,1.31.52,1.85a20.58,20.58,0,0,0,4.87,4.39,19.4,19.4,0,0,0,10.55,3.63,10.55,10.55,0,0,0,3.17-.31,24.1,24.1,0,0,0,10.6-5.9,12,12,0,0,0,2.23-2.69C455.1,234.46,455.2,234,454.84,233.77Z"/><path d="M466.23,206a4.35,4.35,0,0,0-2.14-3.49,1.2,1.2,0,0,0,0-.2c.13-.92.22-1.84.36-2.75a48.36,48.36,0,0,0,.24-9.77,18.32,18.32,0,0,0-3.72-9.62c-2-2.76-4.53-4.9-8.11-5.33-.49-.06-.69-.39-.93-.71a9.46,9.46,0,0,0-2.94-2.83,17.13,17.13,0,0,0-6.9-2.17,26.17,26.17,0,0,0-17.72,4.8A28,28,0,0,0,414.49,187a23,23,0,0,0-1.2,14,3.45,3.45,0,0,0,.5,1.23c-1.8.56-2.82,2.26-2.87,5.24a6.43,6.43,0,0,0,3.06,4.9,10.85,10.85,0,0,0,3.54,1.41,1.4,1.4,0,0,1,1.19,1.12A18.74,18.74,0,0,0,421,220a23.83,23.83,0,0,0,12.56,9.51c2.36.79,4.72,1.54,7.35.84a31,31,0,0,0,8.07-3.31A20.13,20.13,0,0,0,458,216.21c.49-1.45,1-2.61,2.73-2.75a4.78,4.78,0,0,0,1.57-.59A6.67,6.67,0,0,0,466.23,206Zm-4.32,5a11.35,11.35,0,0,1-3.25,1.2,1.9,1.9,0,0,0-1.41,1.29,26.73,26.73,0,0,1-2.3,5.12,22.3,22.3,0,0,1-12,9.23c-1.63.54-3.29,1.2-5,.88-8-1.5-14-5.6-17.17-13.29-.8-2-1.67-3.4-4-3.81A4.71,4.71,0,0,1,413,208a3.48,3.48,0,0,1,.56-3.39,2.48,2.48,0,0,1,2.88-.53c.18.06.37.14.56.19a2.89,2.89,0,0,1,.06.45,8,8,0,0,0,.33,2.18c.25.71.6,1.54,1.61,1.36s1.17-1,1-1.88c-.25-1.61-.44-3.23-.69-4.84a2,2,0,0,1,1.35-2.33,43.27,43.27,0,0,0,15.22-11.51c.54-.62,1-1.3,1.53-1.95.27,2.83-1.71,4.89-2.29,7.55,5.69-.85,9.87-4.21,13.74-8,.83.34.93,1.06,1.2,1.64,1.4,3,2.24,6.22,4.08,9,.94,1.42,2,2.75,3.06,4.09a2.85,2.85,0,0,1,.67,2.47c-.22,1-.37,2-.6,3a2.58,2.58,0,0,0,.44,2.1,1.41,1.41,0,0,0,1.22.65c.56,0,.67-.45.85-.88a15.19,15.19,0,0,0,.76-2.89,3.44,3.44,0,0,1,.11-.41c.14-.05.27-.1.39-.13a2.41,2.41,0,0,1,3.26,2.29A4.72,4.72,0,0,1,461.91,211Z"/><path d="M441.89,216.92a8.46,8.46,0,0,1-6.71,0c-.45-.16-.95-.67-1.31,0s.23,1.05.73,1.36a10.47,10.47,0,0,0,4.1,1,8.83,8.83,0,0,0,3.9-.91c.51-.3,1.1-.65.71-1.35S442.39,216.68,441.89,216.92Z"/><path d="M438.66,220.55c-.6,0-1.44-.15-1.46.73s.79.91,1.46.95,1.3-.06,1.33-.79S439.32,220.52,438.66,220.55Z"/><path d="M437.64,212.13a4.11,4.11,0,0,0,.69.06h.25a1.75,1.75,0,0,0,.69-.11c.33-.12.49-.31.44-.5a.68.68,0,0,0-.28-.28l0,0a3.56,3.56,0,0,0-.38-.2l-.26-.1-.32-.13a1.3,1.3,0,0,1-.43-.41.72.72,0,0,1-.13-.37,1.32,1.32,0,0,1,.19-.6c.09-.19.18-.39.27-.62a1.61,1.61,0,0,0,.18-1.27.61.61,0,0,0-.54-.38.52.52,0,0,0-.45.33l-.37.62c-.1.17-.21.34-.31.52s-.15.29-.22.44-.12.25-.19.37v0a2.36,2.36,0,0,0-.32.8,1.43,1.43,0,0,0,.36,1.2A2,2,0,0,0,437.64,212.13Z"/><path d="M430.4,203.38a2.2,2.2,0,0,0-3.42.09,1.8,1.8,0,0,0,.18,1.92l0,0,0,0a2.81,2.81,0,0,0,1.52.5h0a1.92,1.92,0,0,0,1.91-1.8v-.06l-.25-.7Z"/><path d="M448.47,202.61a2,2,0,0,0-1.67.77l0,0-.25.7v.06a1.93,1.93,0,0,0,1.91,1.8h0a2.75,2.75,0,0,0,1.52-.5l0,0,0,0a1.82,1.82,0,0,0,.17-1.92A2,2,0,0,0,448.47,202.61Z"/><path d="M426.21,198.58a.77.77,0,0,0-.06.94.7.7,0,0,0,.83.3,3.44,3.44,0,0,1,2.68-.12c.58,0,.93-.19,1.06-.53a.8.8,0,0,0-.21-.92C429.63,197.37,426.94,197.58,426.21,198.58Z"/><path d="M450.79,198.39a3.06,3.06,0,0,0-2.1-.69,3.19,3.19,0,0,0-1.62.3c-.49.23-.81.59-.62,1.13a.91.91,0,0,0,1.22.52,3.23,3.23,0,0,1,2.29.1.8.8,0,0,0,1.11-.28A.81.81,0,0,0,450.79,198.39Z"/></g></g></g><circle class="cls-18" cx="438.7" cy="208.37" r="47"/><path class="cls-13" d="M231.92,207.41a47,47,0,1,1-47-47A46.92,46.92,0,0,1,231.92,207.41Z"/><g class="cls-19"><g id="ポニーテール_ブラウス" data-name="ポニーテール×ブラウス"><path id="白-2" data-name="白" class="cls-9" d="M183.73,176.83c-10-2.86-24.1,11.9-23.63,21.91.24,4.25-.72,6.71,0,8.39s1.15,1.6.42,2.21c-1.59,1.37-1.69,2.61-.81,4.81s3.91,2.06,3.89,2.91c-.15.38-.61.63.32,1.37.9,1,2.3.31,2.86.17.53,1.33,3.68,7.31,5.6,8.24a5.12,5.12,0,0,1,1.58,1.44s-.88,4.54-.85,4.46a3.86,3.86,0,0,0-1.29-.19,32.52,32.52,0,0,0-1.91,2.88c-2.32.79-12,7-14.27,8.41a7,7,0,0,0-2.41,2.29c-3.14,6.59-5,24.25-5,29.81h73.17c-1.2-5.23-2.12-29.36-7.09-31.77-2.06-1.09-5.11-1.93-6-4.27-2.54-6.53,1.22-15.26-3.83-21,.16,0,1.2-1.91.92-2.1,1-.52,4.17-1.57,4.51-3.32.07-1-.06-3.46-.74-4.19s-.65,0-.35-1.77c1.09-5.59-.06-16.86-4.34-21.46-.64-1-3.15-5.08-6.23-6.64a29.9,29.9,0,0,0-8-2.74C187.86,176.37,185.1,177.2,183.73,176.83Z"/><path id="塗り" class="cls-20" d="M215.92,254.55c-.72-5.38-1.56-7.49-5.27-9.73-1.46-1.09-13.45-8.19-13.45-8.19l-1.51-2.46,0,.06a.63.63,0,0,0-1.09.24c-17,7.7-22.81-5.3-23.58,0l-1.32,2.29c-3.2,1.8-10.25,4.82-14,7-7.17,2.82-6.84,27-7.64,32.1h70.73S216.49,258.14,215.92,254.55Z"/><g id="アウトライン-2" data-name="アウトライン"><path d="M198.67,232.47c-.36-.81-.7-1.52-1.72-.92a12.29,12.29,0,0,1-.87-3.41c-.41.23-.81.48-1.2.74a10.7,10.7,0,0,0,.66,3.9,19.94,19.94,0,0,1-21.72,0,13.79,13.79,0,0,0,.71-3.6,9.81,9.81,0,0,1-1.3-.95,13.24,13.24,0,0,1-.83,3.41c-.56-.3-1.09-.42-1.43.27-.45.9-.93,1.78-1.37,2.69-.24.49-.41,1.05.19,1.38s1.05,0,1.42-.53.42-1.28.94-1.76a22.63,22.63,0,0,0,12.62,4.11c4.63,0,8.69-1.69,12.51-4.13.34.69.59,1.28.92,1.83a1,1,0,0,0,1.32.51c.62-.31.5-.86.26-1.36C199.43,233.89,199,233.2,198.67,232.47Z"/><path d="M220.71,261.59c-.73-4.84-1.35-9.73-3.06-14.38a5.87,5.87,0,0,0-.91-1.82c-.34-.41-.77-.68-1.26-.34s-.3.78-.06,1.18a8.94,8.94,0,0,1,.91,2.36,121.61,121.61,0,0,1,3,18.07c.3,2.88.63,5.76,1,8.64.07.67.35,1.21,1.12,1.11s.86-.65.84-1.27C221.73,270.62,221.38,266.08,220.71,261.59Z"/><path d="M153.85,245.05c-.69-.43-1.13.12-1.46.64a10.43,10.43,0,0,0-1.11,2.8c-2.53,8.66-3.13,17.63-4.15,26.66,0,.71.25,1.22.83,1.27.78.06,1-.47,1.14-1.13.07-.44.16-.87.2-1.31.56-6.09,1.16-12.18,2.21-18.21a39.56,39.56,0,0,1,2.32-9.34C154,246,154.46,245.43,153.85,245.05Z"/><path d="M195.57,237.42c-.21.11-.43.21-.64.34a18.9,18.9,0,0,1-12.64,2.64,16.48,16.48,0,0,1-7.94-2.66c-.39-.28-.94-.78-1.38-.2s.22.86.54,1.19a8.19,8.19,0,0,0,3.05,1.92,18.38,18.38,0,0,0,8.08,1.38,18.89,18.89,0,0,0,8.9-1.7,7.73,7.73,0,0,0,2.69-2c.21-.24.43-.53.13-.85A.62.62,0,0,0,195.57,237.42Z"/><path d="M214.29,243.24c-4-2.41-7.82-5.09-11.89-7.38-.31-.18-.65-.3-.92-.43-.37.06-.65.11-.76.43a.82.82,0,0,0,.3.86,20.8,20.8,0,0,0,3.42,2.47c2.89,1.89,5.82,3.73,8.74,5.58.54.34,1.17.54,1.6-.12S214.82,243.56,214.29,243.24Z"/><path d="M168,235.48a3.1,3.1,0,0,0-1,.37c-4.07,2.29-7.89,5-11.89,7.38-.53.32-.87.8-.51,1.41s1,.49,1.49.19c1.11-.65,2.21-1.32,3.29-2q4-2.64,8.06-5.31a2.73,2.73,0,0,0,1.27-1.37C168.65,235.65,168.37,235.42,168,235.48Z"/><path d="M159.29,258c0-2.18.19-4.77,0-7.36,0-.5-.11-1.13-.79-1.12s-.61.61-.65,1.07c-.11,1.41-.21,2.82-.32,4.23a84.8,84.8,0,0,0,0,16.09c.18,1.56.54,3.09.84,4.63.11.61.45,1.05,1.12.95s.86-.61.84-1.22a5.56,5.56,0,0,0-.09-.82A61.57,61.57,0,0,1,159.29,258Z"/><path d="M210.66,249.56c-.73,0-.72.7-.79,1.23a4,4,0,0,0,0,.59c0,2.83,0,5.65.16,8.48a52.07,52.07,0,0,1-.08,7.28c-.23,2.66-.56,5.3-1,7.93-.11.65,0,1.34.82,1.45s1-.52,1.18-1.18a65.34,65.34,0,0,0,1.2-12.75c-.24-3.64-.51-7.75-.79-11.85C211.29,250.25,211.37,249.56,210.66,249.56Z"/><path d="M182,244.25a21.28,21.28,0,0,0-.75,2.59c-.22.88-.41,1.75-.58,2.64s-.3,1.72-.42,2.58a14.7,14.7,0,0,0-.29,2.8c0,.75,1.2,1,1.37.18a25.37,25.37,0,0,0,.29-2.64c.11-.88.24-1.76.39-2.63s.32-1.72.51-2.58.46-1.74.62-2.63A.59.59,0,0,0,182,244.25Z"/><path d="M188.44,250.19c-.13-.63-.28-1.26-.45-1.88a23.29,23.29,0,0,0-1.32-3.7c-.24-.54-1.1-.16-.94.39.35,1.21.69,2.44,1,3.67q.21.9.36,1.83c.05.31.1.61.14.92a1.48,1.48,0,0,0,.34,1,.68.68,0,0,0,1.05-.13,1.63,1.63,0,0,0,0-1.19Z"/><path d="M187.81,220.46a7.82,7.82,0,0,1-6.22,0c-.41-.15-.88-.63-1.21,0s.21,1,.68,1.26a9.65,9.65,0,0,0,3.8.89,8.25,8.25,0,0,0,3.61-.84c.48-.29,1-.61.66-1.25S188.27,220.25,187.81,220.46Z"/><path d="M184.82,223.83c-.56,0-1.33-.13-1.35.68s.72.84,1.35.88,1.2-.06,1.23-.73S185.43,223.8,184.82,223.83Z"/><path d="M184.49,213a1.17,1.17,0,0,0,.17-1.06.61.61,0,0,0-.52-.31.47.47,0,0,0-.42.27l-.36.5c-.1.14-.2.28-.29.43s-.15.23-.22.35l-.19.33a2,2,0,0,0-.31.65,1.1,1.1,0,0,0,.35,1,2,2,0,0,0,1.12.5c.22,0,.44,0,.66.05h.24a2.09,2.09,0,0,0,.66-.08c.32-.11.48-.26.42-.44s-.15-.16-.28-.23l0,0a2.76,2.76,0,0,0-.37-.16l-.24-.09a2.26,2.26,0,0,1-.31-.1,1.13,1.13,0,0,1-.41-.33.64.64,0,0,1-.12-.29,1,1,0,0,1,.18-.46C184.32,213.36,184.41,213.19,184.49,213Z"/><path d="M193.89,207.13a1.91,1.91,0,0,0-1.56.71l0,0-.23.65v.06a1.79,1.79,0,0,0,1.79,1.65h0a2.61,2.61,0,0,0,1.41-.45l.05,0,0-.05a1.64,1.64,0,0,0,.16-1.76A1.89,1.89,0,0,0,193.89,207.13Z"/><path d="M177.19,207.84a2.08,2.08,0,0,0-3.2.09,1.64,1.64,0,0,0,.16,1.76l0,.05,0,0a2.61,2.61,0,0,0,1.41.45h0a1.79,1.79,0,0,0,1.79-1.65v-.06l-.23-.65Z"/><path d="M177,202.57a4.36,4.36,0,0,0-.8-.16,5,5,0,0,0-2.9.5.77.77,0,0,0-.38.9.9.9,0,0,0,.66.74.68.68,0,0,0,.36-.08,3.91,3.91,0,0,1,2.3-.43,3.85,3.85,0,0,1,.66.13l.1,0a.55.55,0,0,0,.42-.12.75.75,0,0,0,.31-.52A1,1,0,0,0,177,202.57Z"/><path d="M196.24,202.82a5.09,5.09,0,0,0-2.89-.5,5.29,5.29,0,0,0-.81.17,1,1,0,0,0-.73,1,.75.75,0,0,0,.31.52.55.55,0,0,0,.42.12l.1,0a3.88,3.88,0,0,1,.66-.14,4,4,0,0,1,2.3.44.59.59,0,0,0,.36.07.89.89,0,0,0,.66-.73A.78.78,0,0,0,196.24,202.82Z"/><path d="M181.92,196a43,43,0,0,0,2.9-4.15c.72-1.14,1.47-2.31,2.29-3.4a20.71,20.71,0,0,1,1.46-1.72.92.92,0,0,0,.36-.74.53.53,0,0,0-.34-.39,1,1,0,0,0-.47-.08l-.2,0a4.35,4.35,0,0,0-2.36,1.69,33,33,0,0,0-2.59,3.9c-.62,1-1.26,2.13-2,3.12-1.61,2.21-3.28,3.5-5.08,3.94l-.76.16a12,12,0,0,0-1.64.43,5.65,5.65,0,0,0-.67.29,7.3,7.3,0,0,0,.77-3c0-.41.09-.76.14-1a35.4,35.4,0,0,1,1.68-5.1l.44-1.14c.1-.28.2-.63,0-.87a.48.48,0,0,0-.41-.16.73.73,0,0,0-.3.07,1.58,1.58,0,0,0-.51.52,21.56,21.56,0,0,0-2.66,6.24c-.12.42-.23.84-.35,1.26A36.31,36.31,0,0,1,169.9,201a11.09,11.09,0,0,1-4.22,5.14l-.15.09a2.77,2.77,0,0,0-.89.7.94.94,0,0,0,0,1.25.84.84,0,0,0,.54.18,2,2,0,0,0,.87-.29,12.55,12.55,0,0,0,4-3.49,13,13,0,0,0,1.4-2.35,6.39,6.39,0,0,0,.32-1,4.43,4.43,0,0,1,.46-1.28,1,1,0,0,0,.32.51,1,1,0,0,0,.61.16l.2,0A12.24,12.24,0,0,0,181.92,196Z"/><path d="M208.16,230.72c.12-3.2.15-6.47-1.35-9.39a12.59,12.59,0,0,0-1.47-2.2l-.15-.16a2.34,2.34,0,0,0,.47-.64,2,2,0,0,0,.17-.62,1.36,1.36,0,0,0,0-.29,14.14,14.14,0,0,0,2.08-.56,5.85,5.85,0,0,0,2.82-6.45,3.33,3.33,0,0,0-1.35-1.83,29.11,29.11,0,0,0-2.95-21.31,26.14,26.14,0,0,0-7.66-8,18.8,18.8,0,0,0-10.39-3.42,15.27,15.27,0,0,0-3.82.49,14.94,14.94,0,0,0-3.82-.49,18.61,18.61,0,0,0-11,3.92,27.43,27.43,0,0,0-7.76,9c-3,6-3.8,14-2.14,19.78a3.31,3.31,0,0,0-1.45,1.89,5.84,5.84,0,0,0,2.81,6.45,11.67,11.67,0,0,0,1.49.43,2.49,2.49,0,0,0,1.67,2.32,2.22,2.22,0,0,0,1.9-.32l0,.05c.11.33.22.66.35,1a18.4,18.4,0,0,0,.86,1.86,16.87,16.87,0,0,0,1,1.73,19.64,19.64,0,0,0,1.24,1.61,19.86,19.86,0,0,0,1.41,1.49,20.4,20.4,0,0,0,1.6,1.35c.58.44,1.17.85,1.78,1.24s1.3.76,2,1.11,1.42.68,2.14,1,1.53.59,2.31.85,1.65.51,2.48.73a5.29,5.29,0,0,1,.54.13,2.05,2.05,0,0,0,1.23,0l.72-.18,1.25-.36c.8-.24,1.59-.51,2.38-.81s1.48-.59,2.2-.93,1.36-.68,2-1.06a20.82,20.82,0,0,0,1.85-1.19,19.25,19.25,0,0,0,1.67-1.31,20.12,20.12,0,0,0,1.49-1.43,19.13,19.13,0,0,0,2.42-3.26,19.28,19.28,0,0,0,.93-1.81c.21-.47.39-1,.56-1.45l.08,0h0a3.11,3.11,0,0,0,.94.08h0c.1.12.21.23.31.36a10.52,10.52,0,0,1,1.16,1.86,11.41,11.41,0,0,1,1.09,4.22c.23,3.12-.3,6.24,0,9.36a12.07,12.07,0,0,0,1.43,5.1.9.9,0,0,0,1.55-.9C207.86,236.9,208.05,233.77,208.16,230.72ZM165.3,218.37a1.23,1.23,0,0,1-.62-2.16C165.43,216,167,218,165.3,218.37Zm35.92.7a13.21,13.21,0,0,1-.84,2,14.63,14.63,0,0,1-1.13,1.86,18.06,18.06,0,0,1-1.4,1.74,21,21,0,0,1-1.66,1.61,22.29,22.29,0,0,1-1.87,1.46c-.67.46-1.36.9-2.07,1.3s-1.48.79-2.24,1.13-1.58.68-2.39,1c-.53.19-1.06.35-1.58.53-.31.11-.59.18-.89.26a2.32,2.32,0,0,1-1.17-.06c-.69-.17-1.36-.38-2-.61s-1.62-.58-2.41-.93a24.87,24.87,0,0,1-2.26-1.11c-.72-.39-1.41-.81-2.09-1.27s-1.29-.93-1.9-1.44a19.27,19.27,0,0,1-1.68-1.58,16.7,16.7,0,0,1-1.44-1.71,15.52,15.52,0,0,1-1.18-1.84,15.7,15.7,0,0,1-.89-2,14.61,14.61,0,0,1-.57-2.06l-.06-.33v0l0,0v-.06a2,2,0,0,0-.18-.62,2.16,2.16,0,0,0-.85-.94h0a2,2,0,0,0-.32-.18,3.19,3.19,0,0,0-.68-.24,3.14,3.14,0,0,0-.94.08h0l-.34.12-.17.09a2,2,0,0,0-.39.26,1.36,1.36,0,0,0-.24.24,4.12,4.12,0,0,1-.74-.34,3.66,3.66,0,0,1-2.37-4.07,2.41,2.41,0,0,1,1.09-1.55.87.87,0,0,0,.29-.14,2.56,2.56,0,0,1,1-.2,4.27,4.27,0,0,1,1.56.34,33,33,0,0,0,.78,4c.29,1.11,2.08.87,1.78-.24a33.14,33.14,0,0,1-.83-4.29.87.87,0,0,0-1.27-.66l-.16-.11a8,8,0,0,0-2.41-.43l-.4,0a15.77,15.77,0,0,1-.71-6.63A26.31,26.31,0,0,1,164.58,188a22.55,22.55,0,0,1,10.22-9.21,16.94,16.94,0,0,1,7.16-1.26c.85,0,1.72,0,2.57.05s1.72.05,2.57.05H188c.33,0,.67,0,1,0a15.37,15.37,0,0,1,8.92,3.07,28,28,0,0,1,6.7,7c2.26,3.43,3.54,7.93,3.8,13.39a17.36,17.36,0,0,1-.69,7,4.36,4.36,0,0,0-.51,0,6.17,6.17,0,0,0-.94.08c-.14-.39-.75-.78-.89-.87a2.29,2.29,0,0,0-.48-.23,6.17,6.17,0,0,1-2.88-2.72A34,34,0,0,1,197.9,194c-1-3.91-2.69-6.36-4.91-7.28a1.75,1.75,0,0,0-.78-.17,1.27,1.27,0,0,0-.34.05,1.63,1.63,0,0,0-.49.25l0,0c-.13.09-.32.22-.31.38v.05c0,.07,0,.16.05.21l0,0,.06,0a4.22,4.22,0,0,1,1.26.58,6.64,6.64,0,0,1,.8.55,7.24,7.24,0,0,1,1.74,2.7,39,39,0,0,1,1.79,5.38c.16.56.31,1.11.47,1.66a22,22,0,0,0,2.82,6.43c1.1,1.57,2.42,3.17,4,3.66,0,0,0,0,0,.07a42.31,42.31,0,0,1-.9,4.75c-.31,1.24,1.47,1.48,1.78.25a40.66,40.66,0,0,0,.8-4.1,3.84,3.84,0,0,1,.87-.11,2.34,2.34,0,0,1,2.38,1.89,3.64,3.64,0,0,1-2.37,4.07,4.91,4.91,0,0,1-1.3.52,2.3,2.3,0,0,0-2.51-.89,2.5,2.5,0,0,0-1.61,2.9,2.27,2.27,0,0,0,.2.57C201.35,218.66,201.29,218.87,201.22,219.07Zm1.86-.68a1.23,1.23,0,0,1,.61-2.16C205.37,216.64,203.83,218.56,203.08,218.39Z"/></g></g></g><path class="cls-18" d="M231.92,207.41a47,47,0,1,1-47-47A46.92,46.92,0,0,1,231.92,207.41Z"/><line class="cls-15" x1="163.21" y1="330.58" x2="219.8" y2="330.58"/><line class="cls-15" x1="403.58" y1="331.58" x2="451.21" y2="331.58"/><circle class="cls-13" cx="125.8" cy="325.19" r="47"/><g class="cls-21"><g id="短髪_パーカー" data-name="短髪×パーカー"><path id="白-3" data-name="白" class="cls-9" d="M160,361.33c-2.81-3.07-10.43-7.22-12.12-9.91-1.86-4-3.71-8-8.23-10.66a30.75,30.75,0,0,0,3.93-5.4c1.06-2.23,2-4.2,3.1-4.6a43.41,43.41,0,0,0,4.13-2.07s2-2.47,1.89-3.69a5.87,5.87,0,0,0-1.53-3.83,1.14,1.14,0,0,1-.77-.48,3.38,3.38,0,0,1-.19-2.11,34.06,34.06,0,0,0-1.87-15.7,21.09,21.09,0,0,0-1.81-3.5,19.72,19.72,0,0,0-2.66-3c-.48-.48-.94-1-1.42-1.44a10.9,10.9,0,0,0-1.57-1.23,16,16,0,0,0-3-1.92h-.07a11.32,11.32,0,0,0-2.78-1.33,2,2,0,0,1-1,.44,2.32,2.32,0,0,1-1.45-.41,3,3,0,0,1-1.1-2.14,1.82,1.82,0,0,0-.94-.23,5,5,0,0,0-.46.22,17.78,17.78,0,0,1-3.17,1.67c-.61.17-1.38.2-1.45-.62,0-.35.37-1.31,0-1.53a.24.24,0,0,1-.11-.13,20.15,20.15,0,0,0-4.9,1.71l-.05,0-1.86.75-.46.18c-.51.09-1,.19-1.51.31a18.33,18.33,0,0,0-4,1.46,8.34,8.34,0,0,0-1.65,1,5.67,5.67,0,0,1-1,.73c-2.67,2.54-5.46,4.45-6.89,7.81q-.52.89-1,1.8a31.8,31.8,0,0,1-.77,4.41,32.71,32.71,0,0,0-.26,5.85,16.47,16.47,0,0,0,.14,2c.09.53.2,1.05.29,1.58a5.17,5.17,0,0,1,0,2.76,1.92,1.92,0,0,1-.49.68l0,.09c-2.53,1.39-2.71,7.29.56,8.69A20,20,0,0,0,105.7,331s1.62,3.89,2.27,5,3.79,4.79,3.79,4.79c-1.17,1.56-3.85,2.57-5.15,5.41-1.06,2-.81,3.29-2.32,4.95s0,1.37-4,3.89-8.69,5.36-9.5,6.87c-2.07,4.53-6.48,31.23-6.86,33h83.71C166.12,389.92,163.44,365.19,160,361.33Z"/><g id="塗り-2" data-name="塗り"><path class="cls-17" d="M159.88,372.82c.18-14.93-13.81-14.64-16.52-25.16.39-.43-2.73-3.52-4.71-5.3-.43.39-.88.75-1.35,1.1,1.29,7.46,2.6,7.1-3.44,13a68.77,68.77,0,0,1-6.34,6c-1.59,1.69-3.2-.69-4-.74-3.57-4.5-15.62-9.44-10.6-18.39.08-.41-1.06-1.35-1.74-1.86-4.81,2.74-5.79,6.94-8.84,11-2,3-8.23,6-10,8.05-6.14,8.36-6,25.32-8.45,34.38h79.7Z"/><path class="cls-22" d="M149.83,315a31.82,31.82,0,0,0-1.89-7.81c-1.71-4.41-4.72-10-9.15-12.24l0,0c-.45-.3-.92-.59-1.39-.86a34.21,34.21,0,0,0-4.6-2.13c-1.14-.44-3.38-.73-4-1.93a1.37,1.37,0,0,0-1.88-.51,5.59,5.59,0,0,1-2.41,1,1.31,1.31,0,0,0-1.86-1.11c-2.94,1.45-6.25,1.74-9.25,3a16,16,0,0,0-6.87,6.06,27.73,27.73,0,0,0-4.4,9.12,43.67,43.67,0,0,0-.74,11.19,1.45,1.45,0,0,0,1,1.34l.88.35c1,.39,2-.76,1.67-1.7-.94-2.9,1.83-5.54,2.81-8.06,1-2.7,1.27-5.68,3.43-7.79,2-1.91,4.2-2.24,6.79-2.27,1.41,0,2.77-.36,4.17-.41,1.61-.07,2.32.69,3.63,1.44a3.88,3.88,0,0,0,3.1.4,5.94,5.94,0,0,1,1.76-.57,4.9,4.9,0,0,1,1.67.71c1.07.48,1.89.26,3,.45a1.34,1.34,0,0,1,.27.07c.88-.11,1.66-.66,2.58-.6a4,4,0,0,1,2.36,1.08,6.88,6.88,0,0,1,2.16,4.36c.07.55,0,1.12.12,1.66a2.63,2.63,0,0,0,.59,1.12,14.82,14.82,0,0,1,1.49,2.19,14.53,14.53,0,0,1,1.75,6.3,1.44,1.44,0,0,0,0,1c0,.19,0,.38,0,.56a1.29,1.29,0,0,0,.19-.21,1.5,1.5,0,0,0,1.56.56C150.64,320.31,150,316.56,149.83,315Z"/></g><g id="アウトライン-3" data-name="アウトライン"><path d="M111.2,342.4c.31-.26,1.08-.42.68-1s-1-.3-1.5,0a5.92,5.92,0,0,0-.74.49,14.4,14.4,0,0,0-5.34,6.55,26.74,26.74,0,0,1-1.43,2.89,3.56,3.56,0,0,1-1.15,1.35c-2.27,1.55-4.54,3.09-6.78,4.7-2.42,1.74-4.87,3.47-5.74,6.57-.57,2-1.21,4-1.67,6-1.13,5-1.83,10.15-2.74,15.22-.52,2.92-1.26,5.8-1.71,8.73,0,.74.13,1.42,1,1.52s1-.59,1.16-1.24c1-5.47,2-10.93,3-16.42a96.6,96.6,0,0,1,2.69-12.39,8.92,8.92,0,0,1,2.81-4.44,83.16,83.16,0,0,1,6.77-4.9,12.31,12.31,0,0,0,5.24-6.15A16.66,16.66,0,0,1,111.2,342.4Z"/><path d="M168.43,393.3c-1-5.58-2.13-11.15-3.08-16.74a97.22,97.22,0,0,0-2.65-11.83,10.7,10.7,0,0,0-3.3-5.31,55.91,55.91,0,0,0-6.24-4.48c-2.67-1.69-5-3.63-6-6.75a14.79,14.79,0,0,0-.71-1.51c-1.12-2.45-3.25-3.91-5.33-5.4-.42-.3-1-.5-1.41.05s.27.75.57,1a17.3,17.3,0,0,1,5.69,7.55,19.53,19.53,0,0,0,1,2,7,7,0,0,0,2.33,2.64c2.29,1.58,4.52,3.25,6.82,4.83a12.1,12.1,0,0,1,5,7.18,118.5,118.5,0,0,1,2.67,13.53c.7,4.7,1.9,9.3,2.56,14,.09.65.33,1.33,1.14,1.27s1-.67,1-1.4C168.5,393.74,168.47,393.52,168.43,393.3Z"/><path d="M138.3,352.47a5.57,5.57,0,0,0,.85-4.36,38.83,38.83,0,0,1-1-4c-.07-.44-.21-.94-.79-.91s-.72.55-.74,1.06a8.38,8.38,0,0,0,.78,4.23c.65,1.21.19,2-.34,2.92a6.28,6.28,0,0,1-.7,1c-3.11,3.67-6.86,6.67-10.54,9.93a112.56,112.56,0,0,1-10.25-9.53A10.45,10.45,0,0,1,114,350.3a1.19,1.19,0,0,1,0-1.21,10.27,10.27,0,0,0,1-5c0-.44-.16-.83-.66-.91a.63.63,0,0,0-.74.52,49.92,49.92,0,0,0-1.2,5.19c-.27,2.06.85,3.72,2.11,5.21A98.6,98.6,0,0,0,125,364.23a1.08,1.08,0,0,0,1.59,0c3.14-2.68,6.18-5.47,9.07-8.42A16.45,16.45,0,0,0,138.3,352.47Z"/><path d="M96.57,368.49c-.71,0-.77.58-.8,1.11s0,1.33,0,2c0,3.38.37,6.75.07,10.13V388c0,2,0,3.93,0,5.9,0,.72.15,1.42,1,1.41s1-.67,1-1.35c0-.33,0-.67,0-1,0-1.67,0-3.34,0-5,.1-6.13-.06-12.24-.54-18.35C97.26,369.07,97.18,368.51,96.57,368.49Z"/><path d="M155.83,369.6c0-.53-.1-1.14-.8-1.11s-.7.58-.74,1.07c-.09,1.29-.16,2.59-.25,3.88-.48,6.79-.23,13.58-.24,20.37,0,.7.07,1.44,1,1.46s1-.7,1.06-1.41c0-.26,0-.52,0-.78V381.84a48,48,0,0,1-.09-6.57A44.71,44.71,0,0,0,155.83,369.6Z"/><path d="M145.89,354.14c-.33-.19-.57,0-.79.2s-.35.39-.51.59a21.67,21.67,0,0,1-12.83,8.63,3.88,3.88,0,0,0-1.54.6.81.81,0,0,0-.39.95c.15.44.51.5.94.5.14,0,.33,0,.51-.07a22.57,22.57,0,0,0,13.22-7.86,10,10,0,0,0,1.59-2.66C146.23,354.68,146.25,354.36,145.89,354.14Z"/><path d="M121.28,364.1a12.94,12.94,0,0,0-2.09-.73,21.35,21.35,0,0,1-12-8.26q-.27-.36-.57-.69c-.23-.25-.49-.5-.86-.27s-.35.62-.16,1a12.18,12.18,0,0,0,1,1.84,21.57,21.57,0,0,0,9,7.09,33.3,33.3,0,0,0,5.19,1.57c.52,0,.9-.07,1-.51A.8.8,0,0,0,121.28,364.1Z"/><path d="M153.45,323.75a4.29,4.29,0,0,0-2.44-3.63c0-1.08.11-2.15.2-3.19a22.7,22.7,0,0,0,.17-3.58A24.53,24.53,0,0,0,149,301.41c-3.19-6.46-7.69-10.23-13.75-11.54a3.65,3.65,0,0,1-2.33-1.2.8.8,0,0,0-.89-.34.92.92,0,0,0-.66.81,1.48,1.48,0,0,0,.81,1.6,6,6,0,0,0,2.24.86c2.51.25,4.78,1.37,7.34,3.62a21.38,21.38,0,0,1,7.44,17.56c0,1.44-.13,2.91-.21,4.32-.05.89-.09,1.78-.14,2.68a5,5,0,0,0-.9.15h0c-.06-.67-.15-1.33-.25-2-.06-.44-.13-.89-.18-1.33a10.81,10.81,0,0,0-2.84-6.16,3.15,3.15,0,0,1-.86-2.05c-.18-2.57-1.48-4.78-4-6.76l0,0a1.51,1.51,0,0,0-1-.44,1.41,1.41,0,0,0-.58.14l-.09,0v.1A2,2,0,0,0,139,303l.26.26a8.36,8.36,0,0,1,2.63,6.06,2.72,2.72,0,0,0,.88,2.06,8.92,8.92,0,0,1,2.6,4.93,30.73,30.73,0,0,1,.5,5.21v0c0,.62,0,1.46,1,1.5h.06c.82,0,1-.65,1-1.18a2.22,2.22,0,0,1,.31-.1,2.41,2.41,0,0,1,3.27,2.29,4.75,4.75,0,0,1-2.4,4.73,11.44,11.44,0,0,1-3.25,1.19,1.91,1.91,0,0,0-1.41,1.3,27.3,27.3,0,0,1-2.3,5.12,22.29,22.29,0,0,1-12,9.23c-1.62.54-3.28,1.2-5,.87-8-1.49-14-5.59-17.17-13.28-.8-2-1.67-3.4-4-3.81a4.72,4.72,0,0,1-3.77-3.63,3.48,3.48,0,0,1,.56-3.4,2.47,2.47,0,0,1,2.88-.53l.07,0s0,.1,0,.15c.09.65.46,1,1,1h0a1,1,0,0,0,.74-.31,1.18,1.18,0,0,0,.25-.9,11.34,11.34,0,0,1,.14-2.54,15.44,15.44,0,0,0,.16-1.54,9.65,9.65,0,0,1,2.79-6.4,2.87,2.87,0,0,0,.9-2.16,8.11,8.11,0,0,1,2.53-5.86c.38-.41.67-.74.92-1.05a.64.64,0,0,0,.09-.92.57.57,0,0,0-.43-.19,1.14,1.14,0,0,0-.52.17,3.7,3.7,0,0,0-.72.46c-2.43,2-3.65,4.16-3.83,6.72,0,.09,0,.18,0,.28a1.52,1.52,0,0,1-.35,1.13c-2.91,2.84-3.42,6.45-3.71,10.06a3,3,0,0,0-.5-.11l-.44,0c0-.42,0-.84-.05-1.25v-.11l-.12-2.08c-.08-1.27-.16-2.58-.21-3.87A21,21,0,0,1,106,299.58c3.55-5.2,8.11-8.08,13.92-8.78a14.6,14.6,0,0,0,5.57-1.95c.68-.4.9-.88.64-1.42a.89.89,0,0,0-.83-.56,2.3,2.3,0,0,0-.82.2l-.2.09a21.91,21.91,0,0,1-4.93,1.68l-1.26.33a24.34,24.34,0,0,0-7.53,3c-6.89,4.74-10.26,11.45-10.29,20.51a30.75,30.75,0,0,0,.19,4.31c.09,1,.18,2.1.2,3.16-1.58.66-2.46,2.33-2.51,5.11a6.42,6.42,0,0,0,3,4.89,10.48,10.48,0,0,0,3.55,1.41,1.41,1.41,0,0,1,1.18,1.13,18.87,18.87,0,0,0,2.24,5.13,23.88,23.88,0,0,0,12.56,9.51c2.36.79,4.72,1.53,7.36.84a30.83,30.83,0,0,0,8.06-3.31A20.11,20.11,0,0,0,145.23,334c.5-1.46,1-2.62,2.74-2.75a5,5,0,0,0,1.56-.59A6.7,6.7,0,0,0,153.45,323.75Z"/><path d="M130.53,334.77c-.38-.66-.93-.3-1.42-.07a8.48,8.48,0,0,1-6.72.05c-.44-.17-1-.68-1.3,0s.22,1.05.73,1.35a10.31,10.31,0,0,0,4.1,1,9,9,0,0,0,3.9-.91C130.33,335.81,130.92,335.46,130.53,334.77Z"/><path d="M125.88,338.34c-.6,0-1.44-.15-1.46.73s.78.91,1.46.95,1.29-.06,1.33-.79S126.54,338.31,125.88,338.34Z"/><path d="M125.55,326.64a1.62,1.62,0,0,0,.19-1.27.63.63,0,0,0-.55-.37c-.24,0-.35.18-.44.33l-.37.61-.31.53c-.08.14-.15.29-.22.44s-.13.24-.19.36l0,0a2.79,2.79,0,0,0-.32.8,1.45,1.45,0,0,0,.37,1.21,2.09,2.09,0,0,0,1.17.61,5.36,5.36,0,0,0,.69.06h.25a2,2,0,0,0,.69-.11c.33-.13.49-.31.44-.5a.68.68,0,0,0-.28-.28l0,0a2.72,2.72,0,0,0-.37-.2l-.26-.1a1.55,1.55,0,0,1-.32-.14,1.19,1.19,0,0,1-.43-.4.67.67,0,0,1-.13-.38,1.27,1.27,0,0,1,.18-.59A4.59,4.59,0,0,0,125.55,326.64Z"/><path d="M117.61,321.16a2,2,0,0,0-1.67-.77,2,2,0,0,0-1.74.87,1.8,1.8,0,0,0,.17,1.91l0,0,0,0a2.75,2.75,0,0,0,1.52.5h0a1.92,1.92,0,0,0,1.91-1.79v-.06l-.25-.7Z"/><path d="M135.68,320.39a2,2,0,0,0-1.67.77v0l-.25.7V322a1.91,1.91,0,0,0,1.91,1.79h0a2.81,2.81,0,0,0,1.52-.5l0,0,0,0a1.79,1.79,0,0,0,.18-1.91A2,2,0,0,0,135.68,320.39Z"/><path d="M117.6,315.42a4.21,4.21,0,0,0-1.52-.35,5,5,0,0,0-1.28,0,4.06,4.06,0,0,0-1.21.38,2.57,2.57,0,0,0-1,.87.79.79,0,0,0,.12.95.82.82,0,0,0,1,.12c.13-.08.28-.15.42-.22l.09,0-.08,0s.18-.06.23-.08l.24-.06.16,0H115a4.47,4.47,0,0,1,.52,0l.2,0,.11,0a7.87,7.87,0,0,0,1.25.24,1,1,0,0,0,.5-1.84Z"/><path d="M138.6,317.26a.79.79,0,0,0,.12-.95,2.57,2.57,0,0,0-1-.87,4,4,0,0,0-1.22-.38,4.91,4.91,0,0,0-1.27,0,4.21,4.21,0,0,0-1.52.35,1,1,0,0,0,.5,1.84,7.87,7.87,0,0,0,1.25-.24l.1,0,.2,0a4.69,4.69,0,0,1,.53,0h.28l.16,0,.24.06s.19,0,.23.08l-.08,0,.08,0,.43.22A.82.82,0,0,0,138.6,317.26Z"/><path d="M128.94,301.7c.37,0,.64-.29.74-.79v0l0,0a1,1,0,0,1,0-.16,1.33,1.33,0,0,0-.15-.32,8.8,8.8,0,0,0-5.45-4.06,3.22,3.22,0,0,0-.66-.08,1,1,0,0,0-1.06.82.87.87,0,0,0,.11.7,1.68,1.68,0,0,0,1.13.53,5.71,5.71,0,0,1,2.94,1.62,16.54,16.54,0,0,0,1.86,1.6A1.11,1.11,0,0,0,128.94,301.7Z"/><path d="M121,301.47h0a2.3,2.3,0,0,0,.48,0,.85.85,0,0,0,.83-.44c.16-.32.22-.8-.46-1.27a6,6,0,0,0-3.58-1h-.06a4.52,4.52,0,0,0-3.12,1.09c-.37.33-.47.66-.31,1a.74.74,0,0,0,.71.42.9.9,0,0,0,.28,0,11.16,11.16,0,0,1,2.58-.35A5.76,5.76,0,0,1,121,301.47Z"/><path d="M124.76,290.28c.11.52.59.57,1.06.63h.1a8.48,8.48,0,0,0,5.06-2.62.85.85,0,0,0,0-1.25.89.89,0,0,0-.6-.25,1,1,0,0,0-.68.3,11.2,11.2,0,0,1-4.2,2.3C125.21,289.49,124.65,289.69,124.76,290.28Z"/><path d="M132.24,297.18l-.26,0a.66.66,0,0,0-.54.23.64.64,0,0,0,0,.84,49.08,49.08,0,0,1,2.92,3.95.8.8,0,0,0,.66.33,1.09,1.09,0,0,0,.39-.08.85.85,0,0,0,.52-.89C135.88,300.38,133.35,297.37,132.24,297.18Z"/></g></g></g><circle class="cls-18" cx="125.8" cy="325.19" r="47"/><circle class="cls-13" cx="495.01" cy="325.19" r="47"/><g class="cls-23"><g id="ミディアムヘア_エプロン" data-name="ミディアムヘア×エプロン"><path id="白-4" data-name="白" class="cls-9" d="M492.17,292.11c-14.43,2-19.72,10.53-21.31,24.54a79.86,79.86,0,0,1-2,9c-1.8,5.15-3.3,9.69-2,14.65,3,8.47,6.7,9.94,13.74,12.56a51.88,51.88,0,0,0-5.4,2.12,26,26,0,0,0-4.5,2.93,10.43,10.43,0,0,0-2.77,1.4c-5.47,2.45-5.91,12.34-6.62,15.49,0-.23-2.47,17.5-2.47,17.5h72.34l-3.18-20.81s-.45-6.26-2.07-8.74c-3.42-5.28-6.48-5.34-10.8-7.57-.39-.12-4.52-2.2-5.37-1.87l-1-.81a15.52,15.52,0,0,0,14-18.93c-1.44-8.41-2.69-12.76-4.09-20.55-.84-6.16-5-16.07-11.65-18.62C502,291.58,495.94,292.18,492.17,292.11Z"/><path id="塗り-3" data-name="塗り" class="cls-24" d="M470.56,357.54a7.88,7.88,0,0,1,2.47-2c1-.27,5.61-2.05,5.61-2.05l-.87,18.92s3.41-.09,3.54,0,31.15-.51,31.15-.51l-1.32-18.11s3.39,1.31,3.91,1.54a10.93,10.93,0,0,1,1.86,2l2.53,35H467.62l1.6-22.11Z"/><g id="アウトライン-4" data-name="アウトライン"><path d="M517.7,355.46c-2.25-.86-4.19-2.57-6.78-2.51-.09,0-.19-.11-.28-.19-2-1.75-3.92-3.55-4.73-6.2a2,2,0,0,0-.71-1.05H505a1.78,1.78,0,0,0-.36,2c.63,2.59,2.33,4.41,4.31,6a1.61,1.61,0,0,0,1.83.2v3.23a53.15,53.15,0,0,1-31.46,0v-3.23a1.6,1.6,0,0,0,1.73-.15,11.34,11.34,0,0,0,4.44-6.21,1.73,1.73,0,0,0-.39-1.85h-.24a1.84,1.84,0,0,0-.64.82,12.14,12.14,0,0,1-4.5,6.07c-.25.19-.32.52-.81.54-2.61.14-4.67,1.77-7,2.74a.56.56,0,0,0-.31.69c.08.38.37.47.71.51a3,3,0,0,0,1.47-.38c1.36-.57,2.7-1.17,4.11-1.78a2.93,2.93,0,0,1,.06.52c-1,5.41-1,10.89-1.22,16.36,0,.66-.08,1.37.76,1.48s1.08-.58,1.15-1.23c.09-.86.1-1.73.12-2.59.07-3.73.15-7.45.42-11a46.8,46.8,0,0,0,31.69,0c.24,3.79.39,7.73.4,11.67a6.8,6.8,0,0,0,.27,2.45.92.92,0,0,0,1,.69.88.88,0,0,0,.8-1c0-.78-.12-1.57-.13-2.36a93.53,93.53,0,0,0-.61-10.84c-.16-1.35-.33-2.69-.53-4.22l2.68,1.18c.8.33,1.59.69,2.41,1,.44.15,1,.22,1.25-.33S518.15,355.63,517.7,355.46Z"/><path d="M532,391c0-.37-.06-1-.15-1.54-.7-4.67-1.43-9.86-2.13-14.53a59.1,59.1,0,0,0-2-10.29c-.94-2.81-2.38-5.24-5.13-6.66-.54-.28-1.18-1.08-1.72-.25s.42,1.14.92,1.49a9,9,0,0,1,3.32,3.61A20.66,20.66,0,0,1,526.9,369c.77,7.32,2.3,14.53,3,21.86.08.78,0,1.9,1.22,1.78S532,392,532,391Z"/><path d="M468.94,359.19c.3-.29.53-.64.22-1s-.69-.27-1.07-.08a10.43,10.43,0,0,0-4.53,4.19,21.37,21.37,0,0,0-2.23,6.57c-.57,3.54-1,7.09-1.62,10.62-.66,3.88-1.38,7.75-1.68,11.68,0,.15,0,.31,0,.47-.07.7-.09,1.46.79,1.59s1.16-.62,1.24-1.37c.11-1.06.16-2.12.33-3.17q1.45-9.15,2.7-18.34c.59-4.27,1.44-8.45,5.62-10.89A1.22,1.22,0,0,0,468.94,359.19Z"/><path d="M470.81,356.88a.64.64,0,0,0-.72.48c-.08.26-.15.53-.21.8a51.13,51.13,0,0,0-1.05,7.59c-.38,4-1.19,7.86-1.37,11.84-.15,3.3-.45,6.59-.66,9.89-.08,1.3-.12,2.6-.12,3.89,0,.67.21,1.34,1,1.34s1-.63,1-1.32,0-1.11,0-1.88a24.38,24.38,0,0,1,.26-3.66c.17-3.26.3-6.53.59-9.78.53-5.84,1.18-11.66,1.77-17.5a7.37,7.37,0,0,0,0-1.05A.6.6,0,0,0,470.81,356.88Z"/><path d="M521.22,365.77c-.39-2.64-.51-5.33-1.14-7.94-.11-.44-.2-1-.85-.95s-.65.69-.61,1.19c.29,3.21.56,6.43.91,9.64.58,5.32,1.24,10.62,1.36,16,.05,2.59.52,5.16.42,7.77,0,.66.25,1.22,1,1.24s1-.55,1-1.19,0-1.57,0-2.36C522.88,381.34,522.34,373.53,521.22,365.77Z"/><path class="cls-25" d="M510.36,371.74c-.36,0-.71,0-1.07,0H495.1v0h-2c-4.34,0-8.68,0-13,0-.5,0-1.15-.06-1.18.65s.61.79,1.18.82h29.34a6.29,6.29,0,0,0,1.06-.07.72.72,0,0,0,.67-.7C511.15,371.93,510.78,371.77,510.36,371.74Z"/><path d="M514,335.22c.11-.81.2-1.62.38-2.42a1.8,1.8,0,0,0-1.81,1.32,25.61,25.61,0,0,1-1.23,3,13.66,13.66,0,0,1-3.48,5c-3.59,2.93-7.79,4.64-12.16,6.06a1.7,1.7,0,0,1-1.07,0c-4.37-1.42-8.6-3.08-12.17-6A10.63,10.63,0,0,1,480,339.4a35.23,35.23,0,0,1-2.4-5.27,1.88,1.88,0,0,0-1.82-1.33h-.14c.19.86.39,1.72.59,2.58a1,1,0,0,0,0,.1,19.74,19.74,0,0,0,.87,2.15,14,14,0,0,0,3.17,5,28.79,28.79,0,0,0,6,4.14c2.62,1.33,5.44,2.17,8.15,3.27a1.69,1.69,0,0,0,1.32-.08c.44-.18.89-.36,1.34-.51a35.53,35.53,0,0,0,12-6.22,11.58,11.58,0,0,0,2.36-2.78,29,29,0,0,0,2.36-5A1.47,1.47,0,0,1,514,335.22Z"/><path d="M473.72,325a3.56,3.56,0,0,1,.71.07,1.87,1.87,0,0,1,1.16.58,1,1,0,0,0,.72.3,1.28,1.28,0,0,0,.63-.16.45.45,0,0,0,.23-.29.56.56,0,0,0-.21-.48,4.47,4.47,0,0,0-3.29-1.46,4.06,4.06,0,0,0-1.1.15,4,4,0,0,0-2.16,6.07,7.45,7.45,0,0,0,4.64,2.94,1.43,1.43,0,0,0,.29,0,.73.73,0,0,0,.81-.55.64.64,0,0,0-.14-.53.87.87,0,0,0-.59-.28,3,3,0,0,1-1.17-.42c-.17-.09-.34-.18-.51-.25a4,4,0,0,1-2.41-3.41A2.27,2.27,0,0,1,473.72,325Z"/><path d="M514.54,331.4c-.47.15-.92.38-.78.92a.69.69,0,0,0,.75.47,1,1,0,0,0,.3,0,8.27,8.27,0,0,0,3.09-1.16,5.06,5.06,0,0,0,2.23-4.62,3.22,3.22,0,0,0-2.12-2.9,5.41,5.41,0,0,0-2.08-.52,4.14,4.14,0,0,0-2.76,1.27l0,0c-.28.25-.61.54-.25.9a.81.81,0,0,0,.59.24,1.21,1.21,0,0,0,.66-.22,2.33,2.33,0,0,0,.23-.19l.2-.16a2.71,2.71,0,0,1,1.51-.38,2.49,2.49,0,0,1,1.52.41,3.08,3.08,0,0,1,.3,3.8A6.18,6.18,0,0,1,514.54,331.4Z"/><path d="M499.94,337.36a.83.83,0,0,0,.34-.58.46.46,0,0,0-.19-.35.72.72,0,0,0-.49-.19,1.41,1.41,0,0,0-.61.19l-.36.2h0a12.1,12.1,0,0,1-2.16,1,4.83,4.83,0,0,1-1.38.24,4.77,4.77,0,0,1-1.39-.24,12.1,12.1,0,0,1-2.16-1l-.39-.21a1.41,1.41,0,0,0-.62-.19.72.72,0,0,0-.49.19.45.45,0,0,0-.18.35.82.82,0,0,0,.33.58,7.42,7.42,0,0,0,3.59,1.8,7.14,7.14,0,0,0,1.12.14h.36a7.12,7.12,0,0,0,1.13-.14A7.39,7.39,0,0,0,499.94,337.36Z"/><path d="M495,340.29h-.2a1.07,1.07,0,0,0-.78.19.56.56,0,0,0-.15.44c0,.55.58.55.82.55h.55c.23,0,.79,0,.85-.52a.52.52,0,0,0-.12-.43c-.19-.22-.56-.22-.87-.23Z"/><path d="M495.8,331l0,0a3,3,0,0,0-.38-.17l-.25-.09a1.51,1.51,0,0,1-.32-.11,1.09,1.09,0,0,1-.42-.34.5.5,0,0,1-.13-.3.92.92,0,0,1,.18-.48,4.39,4.39,0,0,0,.27-.53,1.2,1.2,0,0,0,.18-1.1.62.62,0,0,0-.54-.32.51.51,0,0,0-.44.28l-.37.52c-.11.14-.21.29-.31.44s-.15.24-.22.37l-.2.34a1.85,1.85,0,0,0-.32.68,1.14,1.14,0,0,0,.36,1,2.22,2.22,0,0,0,1.17.52c.23,0,.46,0,.69.05H495a2,2,0,0,0,.69-.09c.34-.11.5-.27.44-.45A.6.6,0,0,0,495.8,331Z"/><path d="M503,323.36l0,0-.24.68v.07a1.87,1.87,0,0,0,1.87,1.72h0a2.65,2.65,0,0,0,1.47-.48l.06,0,0-.06a1.7,1.7,0,0,0,.16-1.84,2,2,0,0,0-1.7-.83A2,2,0,0,0,503,323.36Z"/><path d="M487.11,323.36a2.17,2.17,0,0,0-3.34.09,1.72,1.72,0,0,0,.17,1.84l0,.06.06,0a2.65,2.65,0,0,0,1.47.48h0a1.87,1.87,0,0,0,1.87-1.72v-.07l-.24-.68Z"/><path d="M476.63,350.26a11.62,11.62,0,0,1-6.44-5.33c-2.65-4.65-2.86-9.63-1.65-14.69.46-1.91,1-3.79,1.46-5.71a76.94,76.94,0,0,0,1.87-9.91,30.5,30.5,0,0,1,3.19-10.78c3.66-7.35,9.86-10.5,17.86-11,.51,0,1.21.11,1.24-.63s-.65-.86-1.23-.92a11.41,11.41,0,0,0-3.19.2c-6.09,1.11-11.26,3.59-14.72,8.9a31.75,31.75,0,0,0-5.14,14.76c-.39,4.47-1.74,8.72-2.81,13a26.79,26.79,0,0,0-1.06,8.15,17.38,17.38,0,0,0,2.2,9.05,13.76,13.76,0,0,0,7.65,6.62c.66.23,1.47.44,1.81-.41S477.27,350.48,476.63,350.26Z"/><path d="M523.24,329.77a49.33,49.33,0,0,1-1.49-5.83c-.44-2.32-1.41-4.53-1.58-6.91a35.55,35.55,0,0,0-4.11-14.71c-3.79-7-9.94-10.16-17.66-11.06a6.61,6.61,0,0,0-1.6.05c-.53.07-1.13.25-1.08.91s.65.62,1.14.61a21.51,21.51,0,0,1,7.45,1.46,17.11,17.11,0,0,1,9.32,7.47,29,29,0,0,1,4.45,13.37c.34,4.48,1.6,8.76,2.73,13a26.61,26.61,0,0,1,1,10.21c-.7,5.49-3.11,9.82-8.7,11.93-.62.23-1.21.54-.9,1.29s1,.67,1.6.44a14,14,0,0,0,4.93-2.87,17.27,17.27,0,0,0,5.15-13A18,18,0,0,0,523.24,329.77Z"/><path d="M478.91,320.77a20.34,20.34,0,0,0,3.37-10.17,1.22,1.22,0,0,0-.64-1.38l-.08,0-.08,0a1.11,1.11,0,0,0-.69,1l0,.18a33.88,33.88,0,0,1-2.18,7.2,7.29,7.29,0,0,1-3,3.71,1.28,1.28,0,0,0-.67.67.75.75,0,0,0,.1.57.85.85,0,0,0,.75.44,2.15,2.15,0,0,0,.79-.21A5.5,5.5,0,0,0,478.91,320.77Z"/><path d="M488.19,318a.9.9,0,0,0,.59-.4,1.26,1.26,0,0,0,0-1c-1.57-4-1.33-8.12-1.12-11.79a1.49,1.49,0,0,1,0-.21,1.08,1.08,0,0,0-.46-1.22l-.08-.05-.09,0a1.21,1.21,0,0,0-.82,1.09l0,.07a22.54,22.54,0,0,0-.38,2.34,20.73,20.73,0,0,0,1.08,10.25c.15.37.4,1,1,1Z"/><path d="M501.07,317.53a.86.86,0,0,0,.54.43,1.4,1.4,0,0,0,.38.07c.6,0,.84-.56,1-1l0-.06a1.92,1.92,0,0,0,.14-.36l0-.07c1.27-3.42,1.43-7.14.53-12.06v-.08a1.18,1.18,0,0,0-.88-1.13l-.08,0-.07.05a1,1,0,0,0-.44,1.15c0,.07,0,.14,0,.2,0,.47,0,.94.05,1.42,0,.85.07,1.74.09,2.61a19.65,19.65,0,0,1-1.19,7.66A1.47,1.47,0,0,0,501.07,317.53Z"/><path d="M514.77,321.45l-.13-.06a8.68,8.68,0,0,1-4-3.95,29.51,29.51,0,0,1-2-4.66s0-.11-.05-.19a1,1,0,0,0-.88-.91l-.1,0-.07.07a1.78,1.78,0,0,0-.33,1.79,15.37,15.37,0,0,0,3.18,6.94,6.84,6.84,0,0,0,3.64,2.37l.21.06a2.21,2.21,0,0,0,.63.13.7.7,0,0,0,.68-.44.63.63,0,0,0,0-.53C515.43,321.74,515.05,321.57,514.77,321.45Z"/><path d="M494,312.67c0,1.2,0,2.44,0,3.67v.09a1.27,1.27,0,0,0,.25,1,.93.93,0,0,0,.63.2h0a.77.77,0,0,0,.78-.42,1.89,1.89,0,0,0,.1-.74v-2.19c0-2.63,0-5.36,0-8V306a5.12,5.12,0,0,0-.53-2.63l-.08-.16-.17.08a1.18,1.18,0,0,0-.75,1.17.91.91,0,0,1,0,.17A65.3,65.3,0,0,0,494,312.67Z"/></g></g></g><circle class="cls-18" cx="495.01" cy="325.19" r="47"/></g></g></svg>