<svg xmlns="http://www.w3.org/2000/svg" viewBox="0 0 1143.62 260.1"><defs><style>.cls-1{fill:#30ae35;}.cls-2{fill:#f8d610;}</style></defs><g id="レイヤー_2" data-name="レイヤー 2"><g id="PC文字とイラスト"><path class="cls-1" d="M274.53,137.91l17.41,17.41a6.08,6.08,0,0,1,0,8.61l-17.41,17.41a6.09,6.09,0,0,1-10.4-4.3V142.22A6.09,6.09,0,0,1,274.53,137.91Z"/><path class="cls-1" d="M568.41,137.91l17.41,17.41a6.1,6.1,0,0,1,0,8.61l-17.41,17.41A6.09,6.09,0,0,1,558,177V142.22A6.09,6.09,0,0,1,568.41,137.91Z"/><path class="cls-1" d="M865.29,137.91l17.4,17.41a6.08,6.08,0,0,1,0,8.61l-17.4,17.41a6.09,6.09,0,0,1-10.4-4.3V142.22A6.09,6.09,0,0,1,865.29,137.91Z"/><rect class="cls-2" x="893.62" y="46.07" width="250" height="214.03" rx="30.69"/><rect class="cls-2" y="46.07" width="255.97" height="214.03" rx="31.05"/><rect class="cls-2" x="299.87" y="46.07" width="250" height="214.03" rx="30.69"/><rect class="cls-2" x="596.74" y="46.07" width="250" height="214.03" rx="30.69"/><path d="M964.22,152.59a51.55,51.55,0,0,1-.87,9.95,21.13,21.13,0,0,1-2.48,6.86c-.22.4-.34.59-.5.59s-.31-.16-.62-.5a11.09,11.09,0,0,0-2.07-1.74,17.21,17.21,0,0,0,2.54-6.48,47.86,47.86,0,0,0,.71-9.27c0-3.87-.06-5.64-.06-5.83s0-.34.34-.34,1.27.06,4.22.06h6.17v-1.33a12,12,0,0,0-.19-2.51c1.18,0,2.2.09,3.29.19.31,0,.49.12.49.31a1.09,1.09,0,0,1-.18.58,2.9,2.9,0,0,0-.22,1.34v1.42h6.29c2.95,0,4-.06,4.16-.06s.31,0,.31.34v2.36c0,.34,0,.37-.31.37s-1.21-.06-4.16-.06H964.22Zm14.38,5c.41-.19.47-.22.66.06a73.14,73.14,0,0,1,6,10.35c.12.31.09.44-.28.62l-2.3,1.21c-.37.19-.52.1-.65-.22-.4-.93-.8-1.85-1.24-2.79-4,.72-9.36,1.52-14.45,2.08a3,3,0,0,0-1.14.34,1,1,0,0,1-.5.19c-.22,0-.34-.13-.46-.47-.25-.87-.5-2-.75-3.22,1.12,0,2.14,0,3.54-.06a87.68,87.68,0,0,0,3.87-12.28,15.45,15.45,0,0,0,.41-2.89,32.79,32.79,0,0,1,3.44.94c.43.12.52.27.52.52a.9.9,0,0,1-.28.62,4.32,4.32,0,0,0-.77,1.74,96.8,96.8,0,0,1-3.69,11c3-.34,6.14-.75,8.9-1.24a52.12,52.12,0,0,0-3-5c-.15-.24-.12-.37.25-.55Z"/><path d="M993.7,156.38c-2.76,0-3.72.06-3.91.06s-.34,0-.34-.34v-2.36c0-.31,0-.34.34-.34s1.15.06,3.91.06h7.9v-3.84h-5.33a24.49,24.49,0,0,1-1.92,2.54c-.31.37-.5.59-.65.59s-.37-.19-.72-.53a9.63,9.63,0,0,0-2-1.43,20.32,20.32,0,0,0,4.15-5.67,11.67,11.67,0,0,0,.78-2.2c1,.28,2,.65,2.73.93.43.15.65.31.65.53s-.16.34-.34.49a2,2,0,0,0-.53.84c-.15.34-.31.71-.5,1h3.69V146a27.46,27.46,0,0,0-.18-4c1.18,0,2.48.09,3.5.22.31,0,.5.15.5.34a1.89,1.89,0,0,1-.19.62,8.48,8.48,0,0,0-.18,2.32v1.24h4.37c3,0,4-.06,4.21-.06s.31,0,.31.34v2.3c0,.31,0,.34-.31.34s-1.24-.06-4.21-.06h-4.37v3.84h7.47c2.76,0,3.72-.06,3.91-.06.34,0,.37,0,.37.34v2.36c0,.31,0,.34-.37.34-.19,0-1.15-.06-3.91-.06Zm.28,14c-.31,0-.34,0-.34-.34s.06-1,.06-5.12v-2.32c0-2.36-.06-3.17-.06-3.38s0-.34.34-.34,1.27.06,4.24.06h10c3,0,4.06-.06,4.28-.06s.34,0,.34.34-.06,1-.06,2.91v2.67c0,4.15.06,4.93.06,5.11s0,.31-.34.31h-2.67c-.31,0-.34,0-.34-.31v-1.11H997v1.24c0,.31,0,.34-.37.34Zm3-4.4h12.53v-4.22H997Z"/><path d="M1024.45,145.8c-2.7,0-3.6.06-3.78.06s-.31,0-.31-.34v-2.2c0-.31,0-.34.31-.34s1.08.06,3.78.06h6.2c2.67,0,3.6-.06,3.78-.06s.35,0,.35.34v2.2c0,.31,0,.34-.35.34s-1.11-.06-3.78-.06h-.25v3c2.17,0,2.95-.06,3.17-.06s.34,0,.34.31-.07,1.61-.07,5.86v5.76c0,7.1.07,8.5.07,8.68s0,.35-.34.35h-1.9c-.34,0-.37,0-.37-.35v-1h-7.38v1.58c0,.31,0,.34-.31.34h-2c-.31,0-.34,0-.34-.34s.06-1.61.06-8.9v-5.27c0-5.05-.06-6.51-.06-6.69s0-.31.34-.31c.15,0,1,.06,3.16.06v-3Zm2.57,5.43c0,1.15,0,2.45-.12,3.47a13.86,13.86,0,0,1-1.3,4.71c-.1.19-.22.28-.31.28s-.25-.12-.38-.4a3.73,3.73,0,0,0-1-1.37v2.92h7.38v-2.61h-1.15c-.86,0-1.24-.09-1.51-.34s-.47-.71-.47-1.76v-4.9Zm-3.1,6.35a7,7,0,0,0,1.12-3.69c.06-.74.06-1.73.06-2.66h-1.18Zm7.38,8.06v-2.23h-7.38v2.23Zm-3.13-16.86v-3H1027v3Zm2,2.45v3.22c0,.72,0,.9.1,1.06s.28.21.59.21h.46v-4.49Zm5.8-7.88c0-.31,0-.34.34-.34s.93.06,3.23.06h4c2.29,0,3.07-.06,3.25-.06.34,0,.37,0,.37.34s-.06,1.12-.06,3.32v7c0,2.2.06,3.13.06,3.31s0,.34-.37.34h-2.48c-.31,0-.34,0-.34-.34v-1.05h-4.84v9c0,.71,0,1.15.28,1.4s.93.4,2.33.4,2.42-.12,2.88-.62.59-1.55.72-4.06a7.24,7.24,0,0,0,2.1.87c1,.27,1,.27.9,1.24-.18,2.82-.77,3.78-1.52,4.46s-2.29,1.12-5.2,1.12-4.19-.22-4.84-.81a2.93,2.93,0,0,1-.78-2.48v-9.64c0-2.24-.06-3.35-.06-3.54,0-.34,0-.37.37-.37s1.09.06,3,.06h4.71v-6.85h-4.4c-2.3,0-3,.06-3.23.06s-.34,0-.34-.31Z"/><path d="M1054.05,154.42a25.87,25.87,0,0,1-1.82,2.48c-.22.28-.41.4-.56.4s-.25-.18-.34-.52a9.07,9.07,0,0,0-1-2.67,29.52,29.52,0,0,0,5.37-10,11.44,11.44,0,0,0,.53-2.24,25.14,25.14,0,0,1,2.85.84c.37.13.53.28.53.47s-.19.4-.35.56a3.48,3.48,0,0,0-.62,1.3c-.43,1.24-.93,2.51-1.49,3.78v16.5c0,3,.07,4.55.07,4.71s0,.34-.34.34h-2.58c-.28,0-.31,0-.31-.34s.06-1.68.06-4.71Zm9.4-3.94c-3.07,0-4.09.06-4.28.06s-.34,0-.34-.37V148c0-.34,0-.37.34-.37s1.21.06,4.28.06h11.16c3,0,4.06-.06,4.25-.06.34,0,.37,0,.37.37v2.17c0,.34,0,.37-.37.37-.19,0-1.21-.06-4.25-.06ZM1061,170.3c-.31,0-.34,0-.34-.34,0-.16.06-.93.06-4.13v-2.11c0-1.83-.06-2.57-.06-2.76s0-.31.34-.31,1.21.06,4.06.06h7.41c2.82,0,3.81-.06,4-.06s.34,0,.34.31-.06.93-.06,2.39v2.42c0,3.13.06,3.91.06,4.09s0,.31-.34.31h-2.57c-.31,0-.34,0-.34-.31v-.93h-9.71v1c0,.31,0,.34-.34.34Zm4.49-24.31c-2.76,0-3.68.06-3.87.06s-.34,0-.34-.34v-2.08c0-.31,0-.34.34-.34s1.11.06,3.87.06h6.7c2.73,0,3.63-.06,3.82-.06s.37,0,.37.34v2.08c0,.31,0,.34-.37.34s-1.09-.06-3.82-.06Zm0,8.74c-2.73,0-3.66.06-3.85.06s-.34,0-.34-.31v-2c0-.31,0-.34.34-.34s1.12.06,3.85.06h6.41c2.73,0,3.63-.06,3.82-.06s.34,0,.34.34v2c0,.28,0,.31-.34.31s-1.09-.06-3.82-.06Zm0,4.28c-2.73,0-3.66.06-3.85.06s-.34,0-.34-.34v-2c0-.3,0-.33.34-.33s1.12.06,3.85.06h6.41c2.73,0,3.63-.06,3.82-.06s.34,0,.34.33v2c0,.31,0,.34-.34.34s-1.09-.06-3.82-.06Zm-1.68,7.29h9.71v-3h-9.71Z"/><path d="M104.58,109.55a51.59,51.59,0,0,1-.86,10,21.21,21.21,0,0,1-2.48,6.86c-.22.4-.34.58-.5.58s-.31-.15-.62-.49A10.45,10.45,0,0,0,98,124.71a17.05,17.05,0,0,0,2.54-6.48,47,47,0,0,0,.72-9.27c0-3.88-.06-5.64-.06-5.83s0-.34.34-.34,1.27.06,4.21.06H112v-1.33a12.75,12.75,0,0,0-.18-2.51c1.18,0,2.2.09,3.28.18.31,0,.5.13.5.31a1,1,0,0,1-.19.59,3.05,3.05,0,0,0-.21,1.34v1.42h6.29c3,0,4-.06,4.16-.06s.31,0,.31.34v2.36c0,.34,0,.37-.31.37s-1.21-.06-4.16-.06H104.58Zm14.39,5c.4-.18.47-.21.65.06A71.87,71.87,0,0,1,125.57,125c.13.31.1.43-.27.62l-2.3,1.21c-.37.19-.52.09-.65-.22-.4-.93-.81-1.86-1.24-2.79-4,.72-9.36,1.52-14.45,2.08a3.08,3.08,0,0,0-1.15.34.92.92,0,0,1-.49.19c-.22,0-.34-.13-.47-.47-.24-.87-.49-2-.74-3.22,1.12,0,2.14,0,3.53-.06a86.87,86.87,0,0,0,3.88-12.28,14.71,14.71,0,0,0,.4-2.89,32.24,32.24,0,0,1,3.44.93c.44.13.53.28.53.53a.92.92,0,0,1-.28.62,4.19,4.19,0,0,0-.77,1.74,98.66,98.66,0,0,1-3.69,11c3-.34,6.14-.74,8.9-1.24a55.45,55.45,0,0,0-3-5c-.16-.25-.13-.37.25-.56Z"/><path d="M134.07,113.33c-2.76,0-3.73.06-3.91.06s-.34,0-.34-.34V110.7c0-.31,0-.34.34-.34s1.15.06,3.91.06H142v-3.85h-5.33a23.6,23.6,0,0,1-1.92,2.55c-.31.37-.5.59-.65.59s-.38-.19-.72-.53a9.63,9.63,0,0,0-2-1.43,20.32,20.32,0,0,0,4.15-5.67,12.42,12.42,0,0,0,.78-2.2c1,.27,2,.65,2.72.93.44.15.66.31.66.52s-.16.34-.34.5a1.87,1.87,0,0,0-.53.84c-.16.34-.31.71-.5,1H142V103a27.46,27.46,0,0,0-.18-4c1.17,0,2.48.09,3.5.21.31,0,.5.16.5.35a1.77,1.77,0,0,1-.19.61,8.46,8.46,0,0,0-.19,2.33v1.24h4.37c3,0,4-.06,4.22-.06s.31,0,.31.34v2.29c0,.31,0,.34-.31.34s-1.24-.06-4.22-.06h-4.37v3.85h7.48c2.76,0,3.72-.06,3.9-.06.34,0,.37,0,.37.34v2.35c0,.31,0,.34-.37.34-.18,0-1.14-.06-3.9-.06Zm.27,14c-.31,0-.34,0-.34-.34s.07-1,.07-5.12v-2.33c0-2.35-.07-3.16-.07-3.37s0-.35.34-.35,1.28.07,4.25.07h10c3,0,4.06-.07,4.28-.07s.34,0,.34.35-.07,1-.07,2.91v2.67c0,4.15.07,4.93.07,5.11s0,.31-.34.31h-2.67c-.31,0-.34,0-.34-.31v-1.11H137.35V127c0,.31,0,.34-.37.34Zm3-4.41h12.53v-4.21H137.35Z"/><path d="M60.47,147.92c-1.77,0-3.66.13-5.49.25-.37,0-.49-.19-.55-.46a27.87,27.87,0,0,1-.56-3.35c2.11.15,3.81.21,6.29.21h13.3a6.71,6.71,0,0,0,2.14-.18,2.51,2.51,0,0,1,.59-.22,1.05,1.05,0,0,1,.71.43,15.12,15.12,0,0,1,1.87,2,.9.9,0,0,1,.24.56.82.82,0,0,1-.43.65,4,4,0,0,0-.84.9,26.32,26.32,0,0,1-5.46,6,.86.86,0,0,1-.65.28,1.26,1.26,0,0,1-.74-.31,7.2,7.2,0,0,0-2.57-1.27,22.1,22.1,0,0,0,5.55-5.43ZM62.21,160a14.28,14.28,0,0,0,1.52-7.31,11.18,11.18,0,0,0-.31-2.92,34.88,34.88,0,0,1,4,.59c.4.09.52.31.52.59a1.3,1.3,0,0,1-.15.56,2.76,2.76,0,0,0-.28,1.27,18.87,18.87,0,0,1-1.83,8.53A16.25,16.25,0,0,1,60,167.49a1.62,1.62,0,0,1-.87.31.89.89,0,0,1-.62-.28,8.6,8.6,0,0,0-2.82-1.58C59.11,164.17,60.87,162.49,62.21,160Z"/><path d="M94.29,148.88c.13-1.52.19-2.51.22-4.18a11.64,11.64,0,0,0-.22-2.45,23.52,23.52,0,0,1,4,.65.63.63,0,0,1,.53.65,1.43,1.43,0,0,1-.15.59,2.93,2.93,0,0,0-.41,1.46c-.09,1-.12,1.73-.28,3.25h4.72c1.42,0,2.88-.06,4.31-.06.49,0,.65.09.65.43s-.06,1.65-.13,3.29a52.6,52.6,0,0,1-1.14,10.2c-.62,2.39-1.68,3.69-3.66,4.19a13.48,13.48,0,0,1-3.13.34.76.76,0,0,1-.75-.62,6.4,6.4,0,0,0-1.8-2.82,12.67,12.67,0,0,0,4.22-.28c.84-.28,1.24-.78,1.61-2.17a43.12,43.12,0,0,0,.93-9.3H97.58c-.62,3.75-1.46,6.54-2.76,8.58A19.94,19.94,0,0,1,88.25,167a1.39,1.39,0,0,1-.72.25.8.8,0,0,1-.59-.31,7.93,7.93,0,0,0-2.6-1.8,17.31,17.31,0,0,0,7.29-6.32,18.17,18.17,0,0,0,2.23-6.7H91.07c-1.52,0-3,.06-4.47.15-.31,0-.43-.15-.46-.52a29.3,29.3,0,0,1-.25-3c2,.12,3.35.12,5.15.12Z"/><path d="M133.85,147.15a4.35,4.35,0,0,0,2.33-.34.69.69,0,0,1,.43-.16,1,1,0,0,1,.68.31,15.47,15.47,0,0,1,2.08,1.92.64.64,0,0,1,.22.47,1.09,1.09,0,0,1-.31.68,3.35,3.35,0,0,0-.69,1.52,34.44,34.44,0,0,1-3.9,9.12,25.78,25.78,0,0,1-8,7.59.87.87,0,0,1-.5.19,1.2,1.2,0,0,1-.65-.31,10.73,10.73,0,0,0-3.1-1.4c4.37-2.42,6.79-4.55,8.87-7.72a25.6,25.6,0,0,0,3.59-8.65H121.42V153c0,1.24.06,2.51.09,3.75,0,.49-.09.59-.5.59a22.59,22.59,0,0,1-2.85,0c-.4,0-.49-.1-.49-.47,0-1.58.06-2.6.06-3.84V150.5c0-1,0-2.11-.06-3,0-.28.15-.41.43-.41,1.46.07,3.16.1,4.71.1H126V146a16.6,16.6,0,0,0-.31-4.12,33.76,33.76,0,0,1,3.84.46c.62.12.81.47.56,1a6.35,6.35,0,0,0-.37,2.39v1.49Z"/><path d="M149.81,145.19a.6.6,0,0,1,.44-.24.87.87,0,0,1,.4.15,32.42,32.42,0,0,1,5.92,4.4c.19.19.28.31.28.44a.67.67,0,0,1-.18.4c-.47.62-1.49,1.86-1.93,2.33-.15.15-.25.24-.37.24a.65.65,0,0,1-.4-.24,32.57,32.57,0,0,0-6.33-5.06C148.32,146.78,149.22,145.81,149.81,145.19Zm2.7,16.34a45.88,45.88,0,0,0,8.93-5.76,46.87,46.87,0,0,0,8.5-8.44,13.74,13.74,0,0,0,.86,3.63,1.42,1.42,0,0,1,.16.59c0,.28-.16.53-.5.93a50.68,50.68,0,0,1-7.13,6.57,66.71,66.71,0,0,1-9.36,6.08,10.65,10.65,0,0,0-2.08,1.43.89.89,0,0,1-.56.31.82.82,0,0,1-.52-.34,21.39,21.39,0,0,1-2.49-3.45A18.17,18.17,0,0,0,152.51,161.53Z"/><path d="M189,151a43.85,43.85,0,0,1,9.86,4.22.57.57,0,0,1,.34.8,17.89,17.89,0,0,1-1.33,2.7c-.13.22-.25.34-.41.34a.5.5,0,0,1-.34-.15,34.47,34.47,0,0,0-8.15-4v6.85c0,2,.06,3.85.12,6.08,0,.37-.12.46-.56.46a18.16,18.16,0,0,1-2.76,0c-.43,0-.59-.09-.59-.46.1-2.3.13-4.13.13-6.11V146.5a23.4,23.4,0,0,0-.31-4.59,22.48,22.48,0,0,1,3.87.49c.44.1.59.28.59.53a1.55,1.55,0,0,1-.25.71,8.38,8.38,0,0,0-.21,2.92Z"/><path d="M107.84,183.81c2,0,3-.06,3.13-.06s.31,0,.31.34-.06,1.09-.06,3v3.66c0,1.89.06,2.76.06,2.94s0,.35-.31.35-1.08-.07-3.13-.07h-5.09v10.36c0,4.34.07,6.48.07,6.7s0,.34-.34.34H99.84c-.31,0-.34,0-.34-.34s.06-2.36.06-6.7V190.85c0-4.34-.06-6.54-.06-6.76s0-.34.34-.34,1.4.06,3.69.06Zm-5.09,2.3v1.77h5.43v-1.77Zm5.43,3.84h-5.43v1.8h5.43Zm2.57,13.83c-.06.5-.12.93-.21,1.34a10.12,10.12,0,0,1-3,5.2c-.31.28-.46.44-.59.44s-.34-.19-.71-.56a8.15,8.15,0,0,0-1.83-1.3,7.24,7.24,0,0,0,3.32-4.56l.06-.56c-2.36,0-3.22.06-3.38.06s-.34,0-.34-.37v-1.86c0-.31,0-.34.34-.34s1.05.06,3.53.06c0-.77.07-1.73.07-2.82-1.86,0-2.58.06-2.73.06-.34,0-.37,0-.37-.34v-1.89c0-.31,0-.34.37-.34.18,0,1.11.06,3.87.06h6.64c2.76,0,3.69-.06,3.88-.06s.34,0,.34.34v1.89c0,.31,0,.34-.34.34-.16,0-.94,0-2.86-.06v2.82c2.45,0,3.38-.06,3.54-.06s.34,0,.34.34v1.86c0,.34,0,.37-.34.37s-1.09-.06-3.54-.06v2.89c0,2.13.06,3.16.06,3.34,0,.35,0,.38-.34.38h-2.29c-.31,0-.34,0-.34-.38,0-.18.06-1.21.06-3.34v-2.89Zm3.26-2.45v-2.82h-3c0,1.05,0,2-.06,2.82Zm11.47.31c0,2.17.13,4.16.13,5.68s-.19,2.23-.9,2.85-1.62.84-4.1.84c-1,0-1,0-1.14-1a8,8,0,0,0-.72-2.26,14.8,14.8,0,0,0,2.27.16c1,0,1.27-.28,1.27-1.21V194H117.2c-2.41,0-3.22.07-3.41.07-.34,0-.37,0-.37-.35s.06-.86.06-2.69v-4.16c0-1.8-.06-2.51-.06-2.73s0-.34.37-.34c.19,0,1,.06,3.41.06h4.56c2.42,0,3.26-.06,3.44-.06s.34,0,.34.34-.06,1.52-.06,4.25Zm-9-15.53v1.77h5.77v-1.77Zm5.77,3.84h-5.77v1.8h5.77Z"/><path d="M137.23,188.43c2.35,0,3.13-.06,3.32-.06s.34,0,.34.34v2.2c0,.35,0,.38-.34.38s-1-.07-3.32-.07h-4c-2.36,0-3.13.07-3.29.07-.31,0-.34,0-.34-.38v-2.2c0-.31,0-.34.34-.34.16,0,.93.06,3.29.06Zm15.5,7.6a1.68,1.68,0,0,0,.68-.12,1,1,0,0,1,.47-.16c.21,0,.59.28,1.18.87.71.74,1,1.09,1,1.3a.58.58,0,0,1-.34.56,2.09,2.09,0,0,0-.75,1,22.51,22.51,0,0,1-3.69,5.77,20.57,20.57,0,0,0,6.73,3,9.92,9.92,0,0,0-1.33,2.18c-.28.58-.37.83-.62.83a2.63,2.63,0,0,1-.72-.22,23.17,23.17,0,0,1-6.29-3.59,23.35,23.35,0,0,1-6.33,3.75,1.78,1.78,0,0,1-.71.22c-.25,0-.37-.22-.65-.78a6,6,0,0,0-1.46-1.83c0,1.24.07,1.65.07,1.77,0,.31,0,.34-.35.34h-2.2c-.31,0-.34,0-.34-.34v-1h-3.35v1.61c0,.31,0,.34-.34.34h-2.2c-.34,0-.37,0-.37-.34s.06-.93.06-4.68v-2c0-2-.06-2.69-.06-2.91s0-.34.37-.34c.19,0,.84.06,2.82.06h2.76c2,0,2.64-.06,2.85-.06s.35,0,.35.34-.07.93-.07,2.39v4.8a21.09,21.09,0,0,0,6.92-3.47,19.33,19.33,0,0,1-3.66-6.45c-.9,0-1.3,0-1.4,0-.31,0-.34,0-.34-.37v-2.17c0-.28,0-.31.34-.31s1.09.06,3.79.06Zm-15.87-11.84c2,0,2.6-.07,2.79-.07.34,0,.37,0,.37.34v2.08c0,.31,0,.34-.37.34-.19,0-.78-.06-2.79-.06H134c-2,0-2.63.06-2.82.06s-.34,0-.34-.34v-2.08c0-.31,0-.34.34-.34s.81.07,2.82.07Zm-.25,8.68c1.89,0,2.45-.06,2.6-.06.34,0,.37,0,.37.31v2c0,.31,0,.34-.37.34-.15,0-.71-.06-2.6-.06h-2.45c-1.89,0-2.45.06-2.64.06s-.34,0-.34-.34v-2c0-.28,0-.31.34-.31s.75.06,2.64.06Zm0,4.15c1.89,0,2.45-.06,2.6-.06.34,0,.37,0,.37.34v2c0,.31,0,.34-.37.34-.15,0-.71-.07-2.6-.07h-2.45c-1.89,0-2.45.07-2.64.07s-.34,0-.34-.34v-2c0-.31,0-.34.34-.34s.75.06,2.64.06Zm-2.92,6.79v3.1H137v-3.1Zm13.09-16.9c-.06,3.91-1.18,6.14-3,7.91-.34.34-.56.5-.75.5s-.4-.19-.74-.59a6.37,6.37,0,0,0-1.7-1.37c2.07-1.42,3.22-3.25,3.22-6.76,0-1.39-.06-2.1-.06-2.29s0-.34.37-.34c.19,0,.74.06,2.73.06h3.1c2,0,2.6-.06,2.79-.06s.34,0,.34.34-.06.93-.06,2.51v3.23a1.55,1.55,0,0,0,.22,1c.15.16.37.19.86.19a.88.88,0,0,0,.84-.44,7.93,7.93,0,0,0,.31-2.79,9.24,9.24,0,0,0,1.83.84c.78.25.74.31.71,1.12-.09,1.86-.4,2.72-1.11,3.31-.53.5-1.52.72-3.16.72a5.37,5.37,0,0,1-2.64-.44,2.28,2.28,0,0,1-.84-2.14v-4.56Zm-.62,11.85a14.58,14.58,0,0,0,2.82,4.49,15.19,15.19,0,0,0,2.91-4.49Z"/><path d="M342.34,122.55a2.82,2.82,0,0,0,1.55-.38.63.63,0,0,1,.4-.12.87.87,0,0,1,.5.19,13.61,13.61,0,0,1,2.11,1.67,1,1,0,0,1,.4.71.87.87,0,0,1-.37.65,3.65,3.65,0,0,0-1,1.34,43.09,43.09,0,0,1-6.14,9.58,39.51,39.51,0,0,1-9.43,7.72.87.87,0,0,1-.5.15,1.09,1.09,0,0,1-.71-.34,8.06,8.06,0,0,0-2.94-1.42,35.82,35.82,0,0,0,10.32-7.91,31.6,31.6,0,0,0,5.74-8.81l-7.51.22a43.19,43.19,0,0,1-5.86,6.36.93.93,0,0,1-.65.34.71.71,0,0,1-.46-.19,8.52,8.52,0,0,0-3-1.33,36.78,36.78,0,0,0,8.34-9.21,13.23,13.23,0,0,0,1.83-4.19,15.38,15.38,0,0,1,3.63,1.65.63.63,0,0,1,.31.53.6.6,0,0,1-.34.52,3.51,3.51,0,0,0-.78.84c-.34.53-.65,1-1,1.55Z"/><path d="M358.83,123.07a21,21,0,0,0-.34-4.52,22.45,22.45,0,0,1,3.84.65c.38.09.53.28.53.49a1.36,1.36,0,0,1-.12.47,7.1,7.1,0,0,0-.34,2.94v6.27c0,1.61.06,2.82.09,3.9,0,.47-.19.62-.68.62h-2.48c-.44,0-.62-.15-.59-.52,0-1.09.09-2.89.09-4.22Zm14.6,5.8c0,4.59-.68,7.66-2.51,10.11a15.92,15.92,0,0,1-6.82,4.87,2,2,0,0,1-.65.15,1,1,0,0,1-.74-.37,10.43,10.43,0,0,0-2.64-1.89c3.32-1,5.92-2.48,7.57-4.53,1.42-1.77,2.07-4.34,2.07-8.28v-5.86a22.74,22.74,0,0,0-.34-5,19.14,19.14,0,0,1,4,.68.53.53,0,0,1,.44.53.9.9,0,0,1-.13.49,9.35,9.35,0,0,0-.28,3.38Z"/><path d="M397.24,136.22h4.43c2.08,0,4.16-.06,6.27-.12.34,0,.49.12.49.49,0,.81,0,1.68,0,2.48,0,.41-.09.56-.46.56-1.49-.06-4.25-.12-6.26-.12H389.24c-1.27,0-3.29.09-5.7.12-.5,0-.56-.09-.65-.62a17.35,17.35,0,0,1-.22-2.91c2.23.12,4.59.15,6.57.15h4.22v-10.6H391c-2.23,0-3.54.06-4.81.12-.37,0-.43-.19-.52-.65a16.55,16.55,0,0,1-.25-2.88c1.55.15,2.79.12,5.36.12h8.78c1.89,0,3.59,0,5.42-.09.31,0,.41.15.41.49,0,.78,0,1.65,0,2.42,0,.4-.1.59-.44.59-2.08-.09-3.59-.12-5.33-.12h-2.42Z"/><path d="M428.58,136.68c0,2.14,0,4,.09,6.45,0,.41-.12.53-.46.53a26.72,26.72,0,0,1-3.1,0c-.34,0-.47-.12-.44-.49,0-2.24.13-4.25.13-6.36v-7.23a53.31,53.31,0,0,1-8.53,6,.88.88,0,0,1-.46.12.84.84,0,0,1-.65-.31,12,12,0,0,0-2.67-1.83,52.37,52.37,0,0,0,16.37-12.83,8.91,8.91,0,0,0,1.95-3.2,28.4,28.4,0,0,1,3.45,2.17.56.56,0,0,1,.24.47.86.86,0,0,1-.43.68,10.21,10.21,0,0,0-1.86,1.71,50.62,50.62,0,0,1-3.63,3.9Z"/><path d="M456.76,129.8a17.79,17.79,0,0,1-1.83,7.91,15.58,15.58,0,0,1-5.46,5.86,1.85,1.85,0,0,1-.93.37.92.92,0,0,1-.65-.31,8,8,0,0,0-2.76-1.64c3-1.65,4.87-3.17,6.17-5.52,1.15-2.05,1.46-3.72,1.58-6.67H447c-1.55,0-3.07.09-4.65.19-.28,0-.37-.19-.4-.59a18.15,18.15,0,0,1-.25-3c1.74.16,3.47.16,5.27.16h13.92c2.42,0,4.22-.07,6.05-.19.31,0,.34.19.34.62s0,2,0,2.39-.19.53-.46.53c-1.62-.07-3.76-.13-5.9-.13Zm-6.14-7.19c-1.43,0-2.67.06-4.4.12-.4,0-.5-.15-.53-.52-.09-.75-.12-1.87-.22-3,2.17.12,3.76.15,5.15.15h6.95c1.73,0,3.69,0,5.24-.12.31,0,.37.19.37.59a14.21,14.21,0,0,1,0,2.26c0,.44-.06.59-.4.59-1.68-.06-3.51-.09-5.21-.09Z"/><path d="M486.71,138.42c0,1.49.06,3.47.09,5.06,0,.37-.16.52-.53.55a15,15,0,0,1-2.51,0c-.34,0-.53-.18-.5-.55,0-1.77.1-3.32.1-5v-5.3a41.78,41.78,0,0,1-6.42,4.47.69.69,0,0,1-.4.12.83.83,0,0,1-.62-.31,5.42,5.42,0,0,0-2.24-1.55,44,44,0,0,0,12.87-10.08,8.65,8.65,0,0,0,1.64-2.66,24.76,24.76,0,0,1,2.86,1.86.86.86,0,0,1,.34.56.73.73,0,0,1-.47.59,7.66,7.66,0,0,0-1.39,1.27c-.81.93-1.74,2-2.82,3Z"/><path d="M507.38,125.09c-2,0-3.78.09-5.11.15-.41,0-.53-.18-.59-.62-.1-.62-.22-2.23-.28-3.13a52.75,52.75,0,0,0,6,.22h11.07a3,3,0,0,0,1.71-.31.88.88,0,0,1,.46-.12,1.56,1.56,0,0,1,.59.15,9.44,9.44,0,0,1,2.26,2,.74.74,0,0,1,.22.52,1.09,1.09,0,0,1-.43.78,3.74,3.74,0,0,0-.72,1.21,36.46,36.46,0,0,1-6,10.07,34.69,34.69,0,0,1-8.81,7.38,1.47,1.47,0,0,1-.83.28,1.09,1.09,0,0,1-.78-.34,9.18,9.18,0,0,0-2.88-1.7,30.14,30.14,0,0,0,10.13-7.75,26.1,26.1,0,0,0,5.24-8.84Zm15.13-7.32c.16-.12.28-.09.47.06a14.3,14.3,0,0,1,2.94,3.32.31.31,0,0,1-.09.5l-1.15.83a.31.31,0,0,1-.52-.09,15.49,15.49,0,0,0-3.14-3.6Zm2.55-1.89c.18-.12.27-.09.46.06a13,13,0,0,1,3,3.2c.12.18.15.34-.1.55l-1,.84a.4.4,0,0,1-.25.13.35.35,0,0,1-.28-.22,14.75,14.75,0,0,0-3.1-3.57Z"/><path d="M358.74,170.28a15.55,15.55,0,0,0,1.39-4.59,32.13,32.13,0,0,1,3.85,1.58.55.55,0,0,1,.37.5.93.93,0,0,1-.31.62,6.08,6.08,0,0,0-1.09,1.89,34.2,34.2,0,0,1-6.63,10.42,1.18,1.18,0,0,1-.87.47,1.05,1.05,0,0,1-.71-.31,8.57,8.57,0,0,0-2.73-1.34A27.53,27.53,0,0,0,358.74,170.28Zm11.59-4.21a.72.72,0,0,1,.44-.19.61.61,0,0,1,.46.25A38.78,38.78,0,0,1,379,177.51a.72.72,0,0,1,.13.43.62.62,0,0,1-.31.5,19.22,19.22,0,0,1-2.58,1.64c-.4.19-.62.12-.74-.28a40.47,40.47,0,0,0-7.66-12.06C369,167,369.81,166.41,370.33,166.07Zm3.63-3.73c.15-.12.28-.09.46.07a14.06,14.06,0,0,1,2.95,3.31.32.32,0,0,1-.09.5l-1.3,1a.32.32,0,0,1-.53-.09,15.26,15.26,0,0,0-3.13-3.6Zm2.76-2c.18-.12.28-.09.46.06a13,13,0,0,1,2.95,3.19.37.37,0,0,1-.09.56l-1.24,1a.32.32,0,0,1-.53-.09,14.71,14.71,0,0,0-3.1-3.56Z"/><path d="M402.23,167.65c1.74,0,3.78,0,5.4-.07.43,0,.55,0,.59.56a16.29,16.29,0,0,1,0,2.42c0,.5-.13.59-.59.59-1.12,0-3.48-.12-5.21-.12H398c-.31,4.49-.77,6.26-2.1,8.46a17.26,17.26,0,0,1-6.61,6.11,1.31,1.31,0,0,1-.71.22.93.93,0,0,1-.68-.31,8.63,8.63,0,0,0-2.61-1.71c3.51-1.67,5.55-3.32,7-5.61,1.21-1.86,1.74-3.88,1.89-7.16h-6c-1.52,0-3.29.12-4.47.15-.4,0-.49-.12-.55-.59-.1-.62-.16-1.92-.22-3.07,2,.16,3.75.16,5.27.16h6.11c0-1.55,0-3.23,0-4.59A13.91,13.91,0,0,0,394,160a23.1,23.1,0,0,1,4.13.43c.34.09.46.22.46.44a2,2,0,0,1-.21.68,5.62,5.62,0,0,0-.25,1.89c0,1.46,0,2.48,0,4.25Z"/><path d="M418.54,174.9a25,25,0,0,0-4.56.37c-.37,0-.62-.18-.72-.65a34.07,34.07,0,0,1-.46-3.75,39.88,39.88,0,0,0,6.7.37h10c2.36,0,4.74-.06,7.13-.09.47,0,.56.06.56.43a23.71,23.71,0,0,1,0,2.92c0,.37-.12.5-.56.46-2.32,0-4.62-.06-6.91-.06Z"/><path d="M444.45,174.72c0-1.15,0-2.55.06-3.91a31,31,0,0,1-2.32,2.85c-.22.25-.41.37-.53.37s-.31-.15-.4-.52a7.67,7.67,0,0,0-1.15-2.7,28.71,28.71,0,0,0,6.29-10.2,10.88,10.88,0,0,0,.56-2.23,29.86,29.86,0,0,1,3,.9c.37.15.5.27.5.46s-.07.34-.32.56-.37.43-.68,1.3a40,40,0,0,1-1.83,4.09v16.16c0,3,.07,4.56.07,4.71,0,.31,0,.34-.35.34h-2.63c-.31,0-.34,0-.34-.34s.06-1.67.06-4.71Zm10.42-7.82a36.16,36.16,0,0,1-3.72,5.61c-.28.35-.44.5-.59.5s-.34-.18-.59-.62a7.06,7.06,0,0,0-1.49-1.89,28.79,28.79,0,0,0,5.67-9.67,11.34,11.34,0,0,0,.5-2.36c1.15.22,2.11.4,3.07.68.37.09.59.25.59.47a.72.72,0,0,1-.28.59,3.87,3.87,0,0,0-.81,1.51c-.28.75-.58,1.52-1,2.3h8.1c2.75,0,3.69-.06,3.84-.06.34,0,.37,0,.37.37v2.26c0,.34,0,.37-.37.37-.15,0-1.09-.06-3.84-.06H459.3v3.69h4c2.45,0,3.26-.06,3.44-.06s.34,0,.34.34v2.26c0,.32,0,.35-.34.35s-1-.07-3.44-.07h-4v3.79h4c2.48,0,3.32-.07,3.5-.07s.34,0,.34.31v2.3c0,.34,0,.37-.34.37s-1-.06-3.5-.06h-4v1.7c0,3.11.06,4.69.06,4.84,0,.31,0,.34-.34.34h-2.63c-.31,0-.34,0-.34-.34s.06-1.73.06-4.84V166.9Z"/><path d="M488.53,166.59a39.14,39.14,0,0,0,1.28,8.78,26,26,0,0,0,1.86-3.63,15,15,0,0,0,.83-2.85,18.53,18.53,0,0,1,2.89,1.11c.31.16.46.31.46.5s-.21.4-.43.65a4.88,4.88,0,0,0-.78,1.52,35,35,0,0,1-3.53,6.29c1.11,2.39,2.54,3.88,3.32,3.88s1.08-.93,1.27-3.81a6.39,6.39,0,0,0,1.73,1.21c.9.46.9.46.75,1.42-.5,3.32-1.61,4.84-3.51,4.84-2.14,0-4.18-2-5.73-4.87a24.64,24.64,0,0,1-5.61,4.62,1.94,1.94,0,0,1-.75.34c-.18,0-.34-.18-.65-.65a7.32,7.32,0,0,0-1.58-1.64,24.64,24.64,0,0,0,7.19-5.83,37.73,37.73,0,0,1-2.26-11.88h-9.55v4h4.46c1.9,0,2.45-.06,2.64-.06s.37.06.37.4c-.06,1.18-.09,2.48-.15,3.41a24.4,24.4,0,0,1-.72,5.77,3.52,3.52,0,0,1-3.59,2.57,13.82,13.82,0,0,1-1.58-.06c-.72-.06-.75-.06-.9-1a6.54,6.54,0,0,0-.75-2.23,14.86,14.86,0,0,0,2.55.25,1.31,1.31,0,0,0,1.48-1.12,25.77,25.77,0,0,0,.47-5h-4.34a41.08,41.08,0,0,1-.56,5.42,23,23,0,0,1-2.42,7.26c-.22.4-.37.59-.53.59s-.34-.16-.62-.5a10.08,10.08,0,0,0-1.92-1.74,16.4,16.4,0,0,0,2.42-6.85,50.52,50.52,0,0,0,.43-7.5c0-4.22-.06-6.05-.06-6.23,0-.34,0-.38.37-.38s1.21.07,4.16.07h8.25V163a31.88,31.88,0,0,0-.25-4.38c1.18.07,2.23.1,3.35.22.31,0,.46.19.46.37a1.49,1.49,0,0,1-.15.59,10.88,10.88,0,0,0-.16,3.1v.75h4.65c2.92,0,3.94-.07,4.13-.07s.34,0,.34.38v2.35c0,.31,0,.34-.34.34s-1.21-.06-4.13-.06Zm3.63-7.66c.31-.21.41-.21.65,0a13.93,13.93,0,0,1,2.67,2.61c.19.25.19.37-.16.59l-1.48,1.11c-.19.13-.31.22-.41.22s-.15-.09-.24-.22a12.38,12.38,0,0,0-2.52-2.73c-.12-.12-.18-.18-.18-.27s.09-.16.25-.28Z"/><path d="M665.57,145.8c-2.69,0-3.59.06-3.78.06s-.31,0-.31-.34v-2.2c0-.31,0-.34.31-.34s1.09.06,3.78.06h6.2c2.67,0,3.6-.06,3.79-.06s.34,0,.34.34v2.2c0,.31,0,.34-.34.34s-1.12-.06-3.79-.06h-.24v3c2.17,0,2.94-.06,3.16-.06s.34,0,.34.31-.06,1.61-.06,5.86v5.76c0,7.1.06,8.5.06,8.68s0,.35-.34.35H672.8c-.34,0-.37,0-.37-.35v-1h-7.38v1.58c0,.31,0,.34-.31.34h-2c-.31,0-.34,0-.34-.34s.06-1.61.06-8.9v-5.27c0-5.05-.06-6.51-.06-6.69s0-.31.34-.31,1,.06,3.16.06v-3Zm2.58,5.43c0,1.15,0,2.45-.13,3.47a13.64,13.64,0,0,1-1.3,4.71c-.09.19-.22.28-.31.28s-.25-.12-.37-.4a3.84,3.84,0,0,0-1-1.37v2.92h7.38v-2.61h-1.15c-.87,0-1.24-.09-1.52-.34s-.47-.71-.47-1.76v-4.9Zm-3.1,6.35a7.13,7.13,0,0,0,1.11-3.69c.06-.74.06-1.73.06-2.66h-1.17Zm7.38,8.06v-2.23h-7.38v2.23Zm-3.14-16.86v-3h-1.14v3Zm2,2.45v3.22c0,.72,0,.9.09,1.06s.28.21.59.21h.47v-4.49Zm5.8-7.88c0-.31,0-.34.34-.34s.93.06,3.22.06h4c2.29,0,3.07-.06,3.26-.06s.37,0,.37.34-.06,1.12-.06,3.32v7c0,2.2.06,3.13.06,3.31s0,.34-.37.34h-2.48c-.31,0-.35,0-.35-.34v-1.05h-4.83v9c0,.71,0,1.15.28,1.4s.93.4,2.32.4,2.42-.12,2.89-.62.58-1.55.71-4.06a7.31,7.31,0,0,0,2.11.87c1,.27,1,.27.9,1.24-.19,2.82-.78,3.78-1.52,4.46s-2.3,1.12-5.21,1.12-4.19-.22-4.84-.81-.77-1.11-.77-2.48v-9.64c0-2.24-.07-3.35-.07-3.54,0-.34,0-.37.38-.37.18,0,1.08.06,2.94.06H685v-6.85h-4.4c-2.29,0-3,.06-3.22.06s-.34,0-.34-.31Z"/><path d="M695.18,154.42a27.8,27.8,0,0,1-1.83,2.48c-.22.28-.41.4-.56.4s-.25-.18-.34-.52a9.4,9.4,0,0,0-1-2.67,29.5,29.5,0,0,0,5.36-10,10.77,10.77,0,0,0,.53-2.24,24.54,24.54,0,0,1,2.85.84c.37.13.53.28.53.47s-.19.4-.34.56a3.32,3.32,0,0,0-.62,1.3c-.44,1.24-.93,2.51-1.49,3.78v16.5c0,3,.06,4.55.06,4.71s0,.34-.34.34h-2.57c-.28,0-.31,0-.31-.34s.06-1.68.06-4.71Zm9.39-3.94c-3.07,0-4.09.06-4.28.06s-.34,0-.34-.37V148c0-.34,0-.37.34-.37s1.21.06,4.28.06h11.16c3,0,4.07-.06,4.25-.06.34,0,.37,0,.37.37v2.17c0,.34,0,.37-.37.37-.18,0-1.21-.06-4.25-.06Zm-2.48,19.82c-.31,0-.34,0-.34-.34,0-.16.06-.93.06-4.13v-2.11c0-1.83-.06-2.57-.06-2.76s0-.31.34-.31,1.21.06,4.06.06h7.41c2.83,0,3.82-.06,4-.06s.34,0,.34.31-.06.93-.06,2.39v2.42c0,3.13.06,3.91.06,4.09s0,.31-.34.31H715c-.31,0-.34,0-.34-.31v-.93h-9.71v1c0,.31,0,.34-.34.34Zm4.5-24.31c-2.76,0-3.69.06-3.88.06s-.34,0-.34-.34v-2.08c0-.31,0-.34.34-.34s1.12.06,3.88.06h6.69c2.73,0,3.63-.06,3.82-.06s.37,0,.37.34v2.08c0,.31,0,.34-.37.34S716,146,713.28,146Zm0,8.74c-2.73,0-3.66.06-3.85.06s-.34,0-.34-.31v-2c0-.31,0-.34.34-.34s1.12.06,3.85.06H713c2.73,0,3.62-.06,3.81-.06s.34,0,.34.34v2c0,.28,0,.31-.34.31s-1.08-.06-3.81-.06Zm0,4.28c-2.73,0-3.66.06-3.85.06s-.34,0-.34-.34v-2c0-.3,0-.33.34-.33s1.12.06,3.85.06H713c2.73,0,3.62-.06,3.81-.06s.34,0,.34.33v2c0,.31,0,.34-.34.34S715.77,159,713,159Zm-1.68,7.29h9.71v-3h-9.71Z"/><path d="M731,147.48c2.36,0,3.13-.07,3.32-.07s.34,0,.34.34V150c0,.34,0,.37-.34.37s-1-.06-3.32-.06h-4c-2.35,0-3.13.06-3.28.06-.31,0-.35,0-.35-.37v-2.21c0-.3,0-.34.35-.34.15,0,.93.07,3.28.07Zm15.51,7.59a1.72,1.72,0,0,0,.68-.12,1,1,0,0,1,.46-.16c.22,0,.59.28,1.18.87.72.75,1,1.09,1,1.3a.56.56,0,0,1-.34.56,2.2,2.2,0,0,0-.74,1,22.51,22.51,0,0,1-3.69,5.77,20.79,20.79,0,0,0,6.73,3,9.89,9.89,0,0,0-1.34,2.17c-.28.59-.37.83-.62.83a2.86,2.86,0,0,1-.71-.21,22.9,22.9,0,0,1-6.29-3.6,23.35,23.35,0,0,1-6.33,3.75,1.83,1.83,0,0,1-.71.22c-.25,0-.37-.22-.65-.78a6,6,0,0,0-1.46-1.82c0,1.24.06,1.64.06,1.76,0,.31,0,.34-.34.34h-2.2c-.31,0-.34,0-.34-.34v-1h-3.35v1.61c0,.31,0,.34-.34.34h-2.2c-.34,0-.38,0-.38-.34s.07-.93.07-4.68v-2c0-1.95-.07-2.69-.07-2.91s0-.34.38-.34c.18,0,.83.06,2.82.06h2.76c2,0,2.63-.06,2.85-.06s.34,0,.34.34-.06.93-.06,2.39v4.8a21,21,0,0,0,6.91-3.47,19.23,19.23,0,0,1-3.66-6.45c-.89,0-1.3,0-1.39,0-.31,0-.34,0-.34-.37v-2.17c0-.28,0-.31.34-.31s1.08.06,3.78.06Zm-15.88-11.84c2,0,2.61-.06,2.79-.06.34,0,.37,0,.37.34v2.07c0,.31,0,.35-.37.35-.18,0-.77-.07-2.79-.07h-2.82c-2,0-2.64.07-2.82.07s-.34,0-.34-.35v-2.07c0-.31,0-.34.34-.34s.81.06,2.82.06Zm-.25,8.68c1.89,0,2.45-.06,2.61-.06.34,0,.37,0,.37.31v2c0,.31,0,.34-.37.34-.16,0-.72-.06-2.61-.06h-2.45c-1.89,0-2.45.06-2.63.06s-.34,0-.34-.34v-2c0-.28,0-.31.34-.31s.74.06,2.63.06Zm0,4.15c1.89,0,2.45-.06,2.61-.06.34,0,.37,0,.37.34v2c0,.31,0,.34-.37.34-.16,0-.72-.06-2.61-.06h-2.45c-1.89,0-2.45.06-2.63.06s-.34,0-.34-.34v-2c0-.31,0-.34.34-.34s.74.06,2.63.06Zm-2.91,6.8V166h3.35v-3.1ZM740.53,146c-.06,3.9-1.17,6.14-3,7.9-.34.34-.55.5-.74.5s-.4-.19-.74-.59a6.36,6.36,0,0,0-1.71-1.36c2.08-1.43,3.23-3.26,3.23-6.76,0-1.4-.07-2.11-.07-2.3s0-.34.38-.34c.18,0,.74.06,2.72.06h3.1c2,0,2.61-.06,2.8-.06s.34,0,.34.34-.07.93-.07,2.51v3.23a1.59,1.59,0,0,0,.22,1c.16.16.37.19.87.19a.9.9,0,0,0,.84-.44,8.5,8.5,0,0,0,.31-2.79,9,9,0,0,0,1.83.84c.77.25.74.31.71,1.12-.09,1.86-.4,2.73-1.12,3.32-.52.49-1.52.71-3.16.71a5.32,5.32,0,0,1-2.63-.44,2.28,2.28,0,0,1-.84-2.14V146Zm-.62,11.84a15,15,0,0,0,2.82,4.5,15.2,15.2,0,0,0,2.92-4.5Z"/><path d="M764,154c-3,0-4,.06-4.19.06s-.37,0-.37-.34v-2.26c0-.31,0-.35.37-.35s1.18.07,4.19.07h8.74c3,0,4-.07,4.19-.07s.34,0,.34.35v2.26c0,.31,0,.34-.34.34s-1.21-.06-4.19-.06h-2.63v4.12h3.78c2.54,0,3.38-.06,3.56-.06.35,0,.38,0,.38.34v2.26c0,.28,0,.31-.38.31-.18,0-1-.06-3.56-.06h-3.78v5.3a51.27,51.27,0,0,0,6,.28c1.77,0,4-.12,6-.28a8.44,8.44,0,0,0-.59,2.24c-.13,1-.16,1-1.12,1.05-1.18.06-2.42.09-3.66.09-11.1,0-13.27-1.7-15.72-5.39a17.74,17.74,0,0,1-3.78,5.3c-.31.34-.5.53-.68.53s-.31-.19-.62-.59a6.78,6.78,0,0,0-1.8-1.61,14.71,14.71,0,0,0,5.58-9.8,15.17,15.17,0,0,0,.18-2c1,.16,2,.38,3,.59.43.1.59.22.59.44a1,1,0,0,1-.28.59,2.53,2.53,0,0,0-.4,1c-.16.87-.34,1.67-.56,2.45,1.12,2.17,2.23,3.59,4.65,4.43V154Zm13-8.81c2.88,0,3.91-.06,4.09-.06s.34,0,.34.31-.06.75-.06,1.61v1.34c0,2.76.06,3.22.06,3.41s0,.34-.34.34h-2.54c-.31,0-.34,0-.34-.34v-3.76H758.51v3.76c0,.31,0,.34-.37.34h-2.51c-.31,0-.34,0-.34-.34s.06-.65.06-3.41v-1.06c0-1.14-.06-1.67-.06-1.89s0-.31.34-.31,1.21.06,4.12.06h6.64v-.28a12.19,12.19,0,0,0-.22-2.94c1.15,0,2.26.06,3.32.15.28,0,.46.13.46.31a1.49,1.49,0,0,1-.18.59,5.3,5.3,0,0,0-.13,1.86v.31Z"/><path class="cls-1" d="M980.46,19.38c0,5.24-3.76,8.33-10.32,8.33a19.33,19.33,0,0,1-8.59-2c-.51-.29-.73-.47-.73-.81a1.89,1.89,0,0,1,.22-.73l1.66-3.58c.22-.48.37-.74.59-.74a1.69,1.69,0,0,1,.73.37,11.72,11.72,0,0,0,6.53,2.07c2.21,0,3.57-.85,3.57-2.25,0-1.62-2.25-2.58-5.27-3.72-3.46-1.33-7.48-3.36-7.48-8.11C961.37,3,965.46,0,971.76,0a17.91,17.91,0,0,1,7.33,1.58c.52.26.78.44.78.77a2.17,2.17,0,0,1-.19.7L978.17,7c-.22.52-.37.78-.62.78s-.37-.12-.7-.34a11.85,11.85,0,0,0-5.68-1.58c-2.54,0-3.46,1-3.46,2.06,0,1.37,1.95,2.25,4.24,3.13C975.89,12.6,980.46,14.52,980.46,19.38Z"/><path class="cls-1" d="M997.15,20.08c0,2,.11,6.19.11,6.45,0,.77-.22.92-1.07.92h-4.34c-.85,0-1.07-.15-1.07-.92,0-.26.11-4.49.11-6.45V7.22c0-.92-.19-1.1-1.11-1.1H989c-1.33,0-4.72.07-5,.07-.77,0-.92-.22-.92-1.07V1.29c0-.85.15-1.07.92-1.07.26,0,4,.07,5.72.07h8.54c1.74,0,5.46-.07,5.72-.07.77,0,.92.22.92,1.07V5.12c0,.85-.15,1.07-.92,1.07-.26,0-3.65-.07-5-.07h-.77c-.92,0-1.11.18-1.11,1.1Z"/><path class="cls-1" d="M1018.64,21.81c1.73,0,5.45-.07,5.71-.07.77,0,.92.22.92,1.07v3.65c0,.84-.15,1.07-.92,1.07-.26,0-4-.08-5.71-.08h-3.76c-1.7,0-4.94.08-5.2.08-.77,0-1-.26-1-1,0-.25.11-4.34.11-6.3V7.55c0-1.95-.11-6-.11-6.3,0-.77.26-1,1-1,.26,0,3.5.07,5.2.07h3c1.73,0,5.45-.07,5.71-.07.77,0,.92.22.92,1.07V5.08c0,.85-.15,1.07-.92,1.07-.26,0-4-.07-5.71-.07H1016c-.92,0-1.11.18-1.11,1.11V9.43c0,.85.15,1,1,1H1017c1.73,0,5.45-.08,5.71-.08.77,0,.92.23.92,1.07v3.5c0,.85-.15,1.07-.92,1.07-.26,0-4-.07-5.71-.07h-1.07c-.85,0-1,.15-1,1v3.8c0,.92.19,1.1,1.11,1.1Z"/><path class="cls-1" d="M1030.87,27.45c-.85,0-1.07-.15-1.07-.92,0-.26.11-4.49.11-6.45V7.55c0-1.95-.11-6-.11-6.3,0-.77.26-1,1-1,.26,0,3.5.07,5.2.07h4.83c5.63,0,9.1,2.8,9.1,8.37,0,6-3.5,10.06-10.76,10.06h-2c-.92,0-1.1.18-1.1,1.1,0,2.25.11,6.45.11,6.71,0,.77-.22.92-1.07.92Zm5.2-15.07c0,.92.18,1.11,1.1,1.11h2c2.8,0,4.5-1.44,4.5-4.24,0-2.21-1.14-3.46-3.87-3.46h-2.62c-.92,0-1.1.18-1.1,1.1Z"/><path class="cls-1" d="M1070.71,23.51c0,1.25.07,2.65.07,3.13,0,.7-.26.81-1.07.81h-3.94c-.81,0-1.07-.11-1.07-.81,0-.48.07-1.88.07-3.13,0-.92-.18-1.11-1.1-1.11h-5.53c-2.47,0-6.19.08-6.45.08-.77,0-.92-.22-.92-1.07V19.9a4,4,0,0,1,.52-2.14c.81-1.62,1.62-3.31,2.39-4.9l2.69-5.67c.74-1.59,1.66-3.54,2.62-5.86.4-.89.59-1,1.55-1h4.86c.55,0,.81.08.81.34a1.7,1.7,0,0,1-.22.66c-1.44,2.73-2.36,4.57-3.24,6.41l-4.09,8.51a1.39,1.39,0,0,0-.19.63c0,.29.22.37.81.37H1064c.66,0,.77-.11.77-.78v-.84c0-1.81-.07-5.09-.07-5.35,0-.77.22-.92,1.07-.92h3.94c.85,0,1.07.15,1.07.92,0,.26-.07,3.54-.07,5.35v.51c0,.92.18,1.11,1.1,1.11,1.26,0,2.29,0,2.77,0,.73,0,.88.19.88,1v3.21c0,.85-.15,1-.88,1-.48,0-1.51,0-2.77,0C1070.89,22.4,1070.71,22.59,1070.71,23.51Z"/><path class="cls-1" d="M92.79,19.38c0,5.24-3.76,8.33-10.32,8.33a19.25,19.25,0,0,1-8.58-2c-.52-.29-.74-.47-.74-.81a1.89,1.89,0,0,1,.22-.73L75,20.56c.22-.48.37-.74.59-.74a1.76,1.76,0,0,1,.74.37,11.69,11.69,0,0,0,6.52,2.07c2.21,0,3.57-.85,3.57-2.25,0-1.62-2.25-2.58-5.27-3.72C77.72,15,73.7,12.93,73.7,8.18,73.7,3,77.79,0,84.09,0a18,18,0,0,1,7.34,1.58c.51.26.77.44.77.77a2.11,2.11,0,0,1-.18.7L90.51,7c-.23.52-.37.78-.63.78a1.48,1.48,0,0,1-.7-.34A11.82,11.82,0,0,0,83.5,5.86C81,5.86,80,6.82,80,7.92c0,1.37,1.95,2.25,4.24,3.13C88.22,12.6,92.79,14.52,92.79,19.38Z"/><path class="cls-1" d="M109.48,20.08c0,2,.12,6.19.12,6.45,0,.77-.23.92-1.07.92h-4.35c-.85,0-1.07-.15-1.07-.92,0-.26.11-4.49.11-6.45V7.22c0-.92-.18-1.1-1.11-1.1h-.77c-1.33,0-4.72.07-5,.07-.78,0-.93-.22-.93-1.07V1.29c0-.85.15-1.07.93-1.07.25,0,4,.07,5.71.07h8.55c1.73,0,5.45-.07,5.71-.07.77,0,.92.22.92,1.07V5.12c0,.85-.15,1.07-.92,1.07-.26,0-3.65-.07-5-.07h-.77c-.92,0-1.11.18-1.11,1.1Z"/><path class="cls-1" d="M131,21.81c1.73,0,5.45-.07,5.71-.07.77,0,.92.22.92,1.07v3.65c0,.84-.15,1.07-.92,1.07-.26,0-4-.08-5.71-.08h-3.76c-1.69,0-4.94.08-5.2.08-.77,0-1-.26-1-1,0-.25.11-4.34.11-6.3V7.55c0-1.95-.11-6-.11-6.3,0-.77.26-1,1-1,.26,0,3.51.07,5.2.07h3c1.73,0,5.45-.07,5.71-.07.77,0,.92.22.92,1.07V5.08c0,.85-.15,1.07-.92,1.07-.26,0-4-.07-5.71-.07h-1.81c-.92,0-1.1.18-1.1,1.11V9.43c0,.85.15,1,1,1h1.07c1.73,0,5.45-.08,5.71-.08.78,0,.92.23.92,1.07v3.5c0,.85-.14,1.07-.92,1.07-.26,0-4-.07-5.71-.07h-1.07c-.84,0-1,.15-1,1v3.8c0,.92.18,1.1,1.1,1.1Z"/><path class="cls-1" d="M143.2,27.45c-.84,0-1.06-.15-1.06-.92,0-.26.11-4.49.11-6.45V7.55c0-1.95-.11-6-.11-6.3,0-.77.25-1,1-1,.25,0,3.5.07,5.19.07h4.83c5.64,0,9.1,2.8,9.1,8.37,0,6-3.5,10.06-10.76,10.06h-2c-.93,0-1.11.18-1.11,1.1,0,2.25.11,6.45.11,6.71,0,.77-.22.92-1.07.92Zm5.2-15.07c0,.92.18,1.11,1.11,1.11h2c2.81,0,4.5-1.44,4.5-4.24,0-2.21-1.14-3.46-3.87-3.46h-2.61c-.93,0-1.11.18-1.11,1.1Z"/><path class="cls-1" d="M178,20.08c0,2,.11,6.19.11,6.45,0,.77-.22.92-1.07.92h-4.27c-.85,0-1.07-.15-1.07-.92,0-.26.11-4.49.11-6.45V8.29c0-.66-.11-.92-.44-.92a1.66,1.66,0,0,0-.59.15c-1.25.44-2.36.88-3.35,1.32a1.65,1.65,0,0,1-.7.22c-.34,0-.48-.25-.67-.81l-1.29-3.64a2,2,0,0,1-.15-.7c0-.34.23-.48.85-.67a64.77,64.77,0,0,0,7-2.5A4.75,4.75,0,0,1,174.6.29H177c.85,0,1.07.15,1.07.93,0,.25-.11,4.49-.11,6.44Z"/><path class="cls-1" d="M387.22,19.38c0,5.24-3.76,8.33-10.32,8.33a19.25,19.25,0,0,1-8.58-2c-.52-.29-.74-.47-.74-.81a1.89,1.89,0,0,1,.22-.73l1.66-3.58c.22-.48.37-.74.59-.74a1.69,1.69,0,0,1,.73.37,11.72,11.72,0,0,0,6.53,2.07c2.21,0,3.57-.85,3.57-2.25,0-1.62-2.25-2.58-5.27-3.72-3.46-1.33-7.48-3.36-7.48-8.11C368.13,3,372.22,0,378.52,0a18,18,0,0,1,7.34,1.58c.51.26.77.44.77.77a1.94,1.94,0,0,1-.19.7L384.93,7c-.22.52-.36.78-.62.78s-.37-.12-.7-.34a11.85,11.85,0,0,0-5.68-1.58c-2.54,0-3.46,1-3.46,2.06,0,1.37,1.95,2.25,4.24,3.13C382.65,12.6,387.22,14.52,387.22,19.38Z"/><path class="cls-1" d="M403.91,20.08c0,2,.11,6.19.11,6.45,0,.77-.22.92-1.07.92h-4.34c-.85,0-1.07-.15-1.07-.92,0-.26.11-4.49.11-6.45V7.22c0-.92-.19-1.1-1.11-1.1h-.77c-1.33,0-4.72.07-5,.07-.77,0-.92-.22-.92-1.07V1.29c0-.85.15-1.07.92-1.07.26,0,4,.07,5.72.07h8.55c1.73,0,5.45-.07,5.71-.07.77,0,.92.22.92,1.07V5.12c0,.85-.15,1.07-.92,1.07-.26,0-3.65-.07-5-.07H405c-.92,0-1.11.18-1.11,1.1Z"/><path class="cls-1" d="M425.4,21.81c1.73,0,5.45-.07,5.71-.07.77,0,.92.22.92,1.07v3.65c0,.84-.15,1.07-.92,1.07-.26,0-4-.08-5.71-.08h-3.76c-1.7,0-4.94.08-5.2.08-.77,0-1-.26-1-1,0-.25.11-4.34.11-6.3V7.55c0-1.95-.11-6-.11-6.3,0-.77.26-1,1-1,.26,0,3.5.07,5.2.07h2.95c1.73,0,5.45-.07,5.71-.07.77,0,.92.22.92,1.07V5.08c0,.85-.15,1.07-.92,1.07-.26,0-4-.07-5.71-.07h-1.81c-.92,0-1.1.18-1.1,1.11V9.43c0,.85.14,1,1,1h1.07c1.73,0,5.45-.08,5.71-.08.77,0,.92.23.92,1.07v3.5c0,.85-.15,1.07-.92,1.07-.26,0-4-.07-5.71-.07h-1.07c-.85,0-1,.15-1,1v3.8c0,.92.18,1.1,1.1,1.1Z"/><path class="cls-1" d="M437.63,27.45c-.85,0-1.07-.15-1.07-.92,0-.26.11-4.49.11-6.45V7.55c0-1.95-.11-6-.11-6.3,0-.77.26-1,1-1,.26,0,3.51.07,5.2.07h4.83c5.64,0,9.1,2.8,9.1,8.37,0,6-3.5,10.06-10.76,10.06h-2c-.92,0-1.1.18-1.1,1.1,0,2.25.11,6.45.11,6.71,0,.77-.22.92-1.07.92Zm5.2-15.07c0,.92.18,1.11,1.1,1.11h2c2.8,0,4.5-1.44,4.5-4.24,0-2.21-1.14-3.46-3.87-3.46h-2.62c-.92,0-1.1.18-1.1,1.1Z"/><path class="cls-1" d="M472.49,22.15c1.92,0,5.9-.08,6.16-.08.77,0,.92.22.92,1.07v3.24c0,.85-.15,1.07-.92,1.07-.26,0-4.24-.07-6.16-.07h-5.27c-2,0-6.26.07-6.52.07-.77,0-.92-.22-.92-1.07V24.8a1.56,1.56,0,0,1,.92-1.73c.74-.52,1.33-1,2-1.55,7-6,10.21-9.18,10.21-12.2,0-2-1.33-3.42-4-3.42a7.21,7.21,0,0,0-5.23,2.57c-.33.37-.51.56-.74.56s-.4-.19-.73-.52L459.52,5.6c-.29-.33-.44-.55-.44-.81s.15-.44.48-.77a14,14,0,0,1,9.87-4c6.34,0,9.95,3.61,9.95,8.33,0,4.9-3.79,9-8.58,13.12-.3.25-.41.4-.41.51s.22.19.67.19Z"/><path class="cls-1" d="M684.06,19.38c0,5.24-3.76,8.33-10.32,8.33a19.25,19.25,0,0,1-8.58-2c-.52-.29-.74-.47-.74-.81a1.89,1.89,0,0,1,.22-.73l1.66-3.58c.22-.48.37-.74.59-.74a1.69,1.69,0,0,1,.73.37,11.72,11.72,0,0,0,6.53,2.07c2.21,0,3.57-.85,3.57-2.25,0-1.62-2.25-2.58-5.27-3.72C669,15,665,12.93,665,8.18,665,3,669.06,0,675.36,0a18,18,0,0,1,7.34,1.58c.51.26.77.44.77.77a2.11,2.11,0,0,1-.18.7L681.78,7c-.23.52-.37.78-.63.78s-.37-.12-.7-.34a11.85,11.85,0,0,0-5.68-1.58c-2.54,0-3.46,1-3.46,2.06,0,1.37,2,2.25,4.24,3.13C679.49,12.6,684.06,14.52,684.06,19.38Z"/><path class="cls-1" d="M700.75,20.08c0,2,.11,6.19.11,6.45,0,.77-.22.92-1.06.92h-4.35c-.85,0-1.07-.15-1.07-.92,0-.26.11-4.49.11-6.45V7.22c0-.92-.18-1.1-1.11-1.1h-.77c-1.33,0-4.72.07-5,.07-.78,0-.93-.22-.93-1.07V1.29c0-.85.15-1.07.93-1.07.25,0,4,.07,5.71.07h8.55c1.73,0,5.45-.07,5.71-.07.77,0,.92.22.92,1.07V5.12c0,.85-.15,1.07-.92,1.07-.26,0-3.65-.07-5-.07h-.77c-.92,0-1.11.18-1.11,1.1Z"/><path class="cls-1" d="M722.24,21.81c1.73,0,5.45-.07,5.71-.07.77,0,.92.22.92,1.07v3.65c0,.84-.15,1.07-.92,1.07-.26,0-4-.08-5.71-.08h-3.76c-1.7,0-4.94.08-5.2.08-.77,0-1-.26-1-1,0-.25.11-4.34.11-6.3V7.55c0-1.95-.11-6-.11-6.3,0-.77.26-1,1-1,.26,0,3.5.07,5.2.07h2.95c1.73,0,5.45-.07,5.71-.07.77,0,.92.22.92,1.07V5.08c0,.85-.15,1.07-.92,1.07-.26,0-4-.07-5.71-.07h-1.81c-.92,0-1.1.18-1.1,1.11V9.43c0,.85.14,1,1,1h1.07c1.73,0,5.45-.08,5.71-.08.78,0,.92.23.92,1.07v3.5c0,.85-.14,1.07-.92,1.07-.26,0-4-.07-5.71-.07h-1.07c-.85,0-1,.15-1,1v3.8c0,.92.18,1.1,1.1,1.1Z"/><path class="cls-1" d="M734.47,27.45c-.85,0-1.07-.15-1.07-.92,0-.26.11-4.49.11-6.45V7.55c0-1.95-.11-6-.11-6.3,0-.77.26-1,1-1,.25,0,3.5.07,5.19.07h4.83c5.64,0,9.1,2.8,9.1,8.37,0,6-3.5,10.06-10.76,10.06h-2c-.92,0-1.1.18-1.1,1.1,0,2.25.11,6.45.11,6.71,0,.77-.22.92-1.07.92Zm5.2-15.07c0,.92.18,1.11,1.1,1.11h2c2.8,0,4.5-1.44,4.5-4.24,0-2.21-1.14-3.46-3.87-3.46h-2.62c-.92,0-1.1.18-1.1,1.1Z"/><path class="cls-1" d="M772.28,12.79c0,.14.11.22.55.36a5.82,5.82,0,0,1,4.1,5.86c0,4.09-3.17,8.74-12.17,8.74a18.88,18.88,0,0,1-8.07-1.62c-.55-.26-.77-.48-.77-.85a1.78,1.78,0,0,1,.15-.66l1.18-3.36c.18-.51.33-.77.59-.77a1.47,1.47,0,0,1,.7.33,12.34,12.34,0,0,0,6.33,1.62c3.47,0,5.68-1.51,5.68-3.57,0-2.33-2-3.06-6.38-3.06-1,0-2.46.07-2.94.07-.78,0-.89-.22-.89-1.1v-3c0-.88.11-1.1.89-1.1.48,0,1.66.07,2.54.07,3.94,0,5.64-.85,5.64-2.76,0-1.51-1.59-2.44-4.17-2.44a10.46,10.46,0,0,0-5.38,1.51,1.45,1.45,0,0,1-.73.34c-.26,0-.45-.22-.67-.74L757,3.5a2.07,2.07,0,0,1-.22-.74c0-.33.22-.51.74-.77a18.19,18.19,0,0,1,8.47-2c7,0,9.77,3.35,9.77,6.74a6.56,6.56,0,0,1-3,5.64C772.47,12.57,772.28,12.68,772.28,12.79Z"/></g></g></svg>